<svg width="64" height="64" viewBox="0 0 64 64" fill="none" xmlns="http://www.w3.org/2000/svg">
<circle cx="32" cy="32" r="32" fill="#509BF8"/>
<path fill-rule="evenodd" clip-rule="evenodd" d="M33.785 23.3043C33.785 22.584 33.201 22 32.4806 22C31.7602 22 31.1763 22.584 31.1763 23.3043V31.5705H23.3043C22.584 31.5705 22 32.1545 22 32.8749C22 33.5952 22.584 34.1792 23.3043 34.1792H31.1763V40.6957C31.1763 41.416 31.7602 42 32.4806 42C33.201 42 33.785 41.416 33.785 40.6957V34.1792H40.6957C41.416 34.1792 42 33.5952 42 32.8749C42 32.1545 41.416 31.5705 40.6957 31.5705H33.785V23.3043Z" fill="#FEFEFE"/>
</svg>
