<svg width="72" height="72" viewBox="0 0 72 72" fill="none" xmlns="http://www.w3.org/2000/svg">
<circle cx="36" cy="36" r="36" fill="#EBF2FA"/>
<mask id="path-2-inside-1_1138_7867" fill="white">
<path fill-rule="evenodd" clip-rule="evenodd" d="M26.8466 19.0279C23.6086 17.5236 20.2755 17.3682 17.5927 18.9171C12.1494 22.0598 11.4438 31.0282 16.0167 38.9486C17.123 40.8647 18.4368 42.544 19.8701 43.9444C19.7784 44.5744 19.7311 45.217 19.7311 45.8694C19.7311 54.0366 27.1452 60.6574 36.2909 60.6574C45.4366 60.6574 52.8507 54.0366 52.8507 45.8694C52.8507 44.8904 52.7441 43.9336 52.5409 43.0078C53.6242 41.8147 54.6221 40.4548 55.4917 38.9486C60.0646 31.0282 59.359 22.0598 53.9157 18.9171C51.4142 17.4729 48.3474 17.5103 45.3194 18.7414C43.2472 14.6525 39.9135 12 36.154 12C32.3075 12 28.9067 14.7768 26.8466 19.0279Z"/>
</mask>
<path fill-rule="evenodd" clip-rule="evenodd" d="M26.8466 19.0279C23.6086 17.5236 20.2755 17.3682 17.5927 18.9171C12.1494 22.0598 11.4438 31.0282 16.0167 38.9486C17.123 40.8647 18.4368 42.544 19.8701 43.9444C19.7784 44.5744 19.7311 45.217 19.7311 45.8694C19.7311 54.0366 27.1452 60.6574 36.2909 60.6574C45.4366 60.6574 52.8507 54.0366 52.8507 45.8694C52.8507 44.8904 52.7441 43.9336 52.5409 43.0078C53.6242 41.8147 54.6221 40.4548 55.4917 38.9486C60.0646 31.0282 59.359 22.0598 53.9157 18.9171C51.4142 17.4729 48.3474 17.5103 45.3194 18.7414C43.2472 14.6525 39.9135 12 36.154 12C32.3075 12 28.9067 14.7768 26.8466 19.0279Z" fill="white"/>
<path d="M26.8466 19.0279L26.4253 19.9348L27.3175 20.3493L27.7465 19.4639L26.8466 19.0279ZM17.5927 18.9171L17.0927 18.0511L17.5927 18.9171ZM16.0167 38.9486L15.1506 39.4486L16.0167 38.9486ZM19.8701 43.9444L20.8597 44.0884L20.933 43.5848L20.569 43.2291L19.8701 43.9444ZM52.5409 43.0078L51.8005 42.3355L51.4534 42.7178L51.5641 43.2222L52.5409 43.0078ZM55.4917 38.9486L56.3578 39.4486L55.4917 38.9486ZM53.9157 18.9171L54.4157 18.0511L53.9157 18.9171ZM45.3194 18.7414L44.4274 19.1935L44.8435 20.0144L45.6961 19.6678L45.3194 18.7414ZM27.268 18.1209C23.8292 16.5234 20.1374 16.2932 17.0927 18.0511L18.0927 19.7832C20.4136 18.4431 23.3879 18.5237 26.4253 19.9348L27.268 18.1209ZM17.0927 18.0511C14.0036 19.8346 12.3543 23.217 12.0517 27.0628C11.7487 30.9139 12.7762 35.3359 15.1506 39.4486L16.8827 38.4486C14.6843 34.6409 13.7781 30.6185 14.0455 27.2196C14.3134 23.8154 15.7385 21.1423 18.0927 19.7832L17.0927 18.0511ZM15.1506 39.4486C16.3015 41.442 17.6712 43.194 19.1713 44.6596L20.569 43.2291C19.2024 41.894 17.9444 40.2875 16.8827 38.4486L15.1506 39.4486ZM18.8806 43.8003C18.7819 44.4779 18.7311 45.1686 18.7311 45.8694H20.7311C20.7311 45.2654 20.7749 44.671 20.8597 44.0884L18.8806 43.8003ZM18.7311 45.8694C18.7311 54.6923 26.7023 61.6574 36.2909 61.6574V59.6574C27.588 59.6574 20.7311 53.3809 20.7311 45.8694H18.7311ZM36.2909 61.6574C45.8795 61.6574 53.8507 54.6923 53.8507 45.8694H51.8507C51.8507 53.3809 44.9937 59.6574 36.2909 59.6574V61.6574ZM53.8507 45.8694C53.8507 44.8176 53.7362 43.7889 53.5176 42.7933L51.5641 43.2222C51.7521 44.0783 51.8507 44.9632 51.8507 45.8694H53.8507ZM53.2812 43.68C54.4131 42.4335 55.453 41.0158 56.3578 39.4486L54.6257 38.4486C53.7913 39.8939 52.8354 41.1959 51.8005 42.3355L53.2812 43.68ZM56.3578 39.4486C58.7323 35.3359 59.7597 30.9139 59.4567 27.0628C59.1541 23.217 57.5048 19.8346 54.4157 18.0511L53.4157 19.7832C55.7699 21.1423 57.195 23.8154 57.4629 27.2196C57.7303 30.6185 56.8241 34.6409 54.6257 38.4486L56.3578 39.4486ZM54.4157 18.0511C51.5782 16.4128 48.174 16.5014 44.9428 17.8151L45.6961 19.6678C48.5209 18.5193 51.2503 18.5329 53.4157 19.7832L54.4157 18.0511ZM46.2114 18.2894C44.04 14.0048 40.4254 11 36.154 11V13C39.4015 13 42.4543 15.3002 44.4274 19.1935L46.2114 18.2894ZM36.154 11C31.7832 11 28.102 14.1441 25.9467 18.5918L27.7465 19.4639C29.7113 15.4094 32.8318 13 36.154 13V11Z" fill="#56A2E9" mask="url(#path-2-inside-1_1138_7867)"/>
<path d="M41.0354 23.9938C41.0354 28.0579 38.4946 31.1263 35.6065 31.1263C32.7185 31.1263 30.1777 28.0579 30.1777 23.9938C30.1777 19.9298 32.7185 16.8613 35.6065 16.8613C38.4946 16.8613 41.0354 19.9298 41.0354 23.9938Z" fill="#BBDEFF" stroke="#56A2E9"/>
<path d="M45.1262 45.7325C45.1262 51.0122 41.0558 55.2501 36.0855 55.2501C31.1153 55.2501 27.0449 51.0122 27.0449 45.7325C27.0449 40.4528 31.1153 36.2148 36.0855 36.2148C41.0558 36.2148 45.1262 40.4528 45.1262 45.7325Z" fill="#BBDEFF" stroke="#56A2E9"/>
<path d="M28.6112 27.1733C30.6432 30.6929 29.9771 34.6206 27.476 36.0646C24.9748 37.5087 21.2403 36.1217 19.2082 32.6021C17.1762 29.0826 17.8423 25.1548 20.3435 23.7108C22.8446 22.2668 26.5792 23.6537 28.6112 27.1733Z" fill="#BBDEFF" stroke="#56A2E9"/>
<path d="M42.9239 27.1733C40.8919 30.6929 41.558 34.6206 44.0592 36.0646C46.5603 37.5087 50.2949 36.1217 52.3269 32.6021C54.3589 29.0826 53.6928 25.1548 51.1917 23.7108C48.6905 22.2668 44.956 23.6537 42.9239 27.1733Z" fill="#BBDEFF" stroke="#56A2E9"/>
</svg>
