<svg width="1277" height="362" viewBox="0 0 1277 362" fill="none" xmlns="http://www.w3.org/2000/svg">
<circle cx="852" cy="154" r="10" fill="#509BF8"/>
<path d="M847 154L678 154" stroke="#509BF8" stroke-width="2" stroke-linecap="round"/>
<mask id="path-3-inside-1_1106_7881" fill="white">
<path d="M0 237H729.6V299.069H0V237Z"/>
</mask>
<path d="M0 237H729.6V299.069H0V237Z" fill="#FEFEFE"/>
<path d="M729.6 299.069V299.69H730.221V299.069H729.6ZM0 299.069H-0.62069V299.69H0V299.069ZM728.979 237V299.069H730.221V237H728.979ZM729.6 298.448H0V299.69H729.6V298.448ZM0.62069 299.069V237H-0.62069V299.069H0.62069Z" fill="#C4C4C4" mask="url(#path-3-inside-1_1106_7881)"/>
<path d="M684.578 264.312L689.471 271.761L694.365 264.312" stroke="#757575" stroke-width="1.24138" stroke-linecap="round"/>
<path d="M12.3796 268.769V274.107C14.4652 274.095 15.8058 274.033 17.3079 273.747L17.4445 274.815C15.8183 275.113 14.3658 275.175 12.0445 275.175H11.1134V267.714H16.4514V268.769H12.3796ZM18.3507 266.671H19.6417V277.918H18.3507V266.671ZM25.7607 268.856V269.936C25.7607 271.674 26.8656 273.66 28.5663 274.467L27.8587 275.473C26.6049 274.877 25.649 273.635 25.14 272.22C24.6435 273.784 23.6504 275.125 22.3594 275.758L21.6269 274.74C23.34 273.921 24.4821 271.798 24.4821 269.936V268.856H22.0366V267.801H28.1318V268.856H25.7607ZM32.2656 271.103V272.158H30.5152V277.893H29.2366V266.684H30.5152V271.103H32.2656ZM42.4936 266.684V274.827H41.2149V266.684H42.4936ZM34.7225 270.234C34.7225 271.252 35.4549 271.935 36.448 271.935C37.4287 271.935 38.1736 271.252 38.1736 270.234C38.1736 269.204 37.4287 268.533 36.448 268.533C35.4549 268.533 34.7225 269.204 34.7225 270.234ZM39.4149 270.234C39.4149 271.86 38.1363 273.04 36.448 273.04C34.7598 273.04 33.4687 271.86 33.4687 270.234C33.4687 268.595 34.7598 267.429 36.448 267.429C38.1363 267.429 39.4149 268.595 39.4149 270.234ZM36.4605 276.64H42.8163V277.682H35.1694V274.008H36.4605V276.64ZM57.1857 271.984L56.6519 273.052C54.8146 272.692 53.2257 271.575 52.5057 270.085C51.7608 271.575 50.1719 272.692 48.3471 273.052L47.8008 271.984C50.0229 271.612 51.8229 269.936 51.8229 268.211V267.366H53.176V268.211C53.176 269.949 54.976 271.612 57.1857 271.984ZM53.1264 275.448H57.6202V276.503H47.4657V275.448H51.8477V272.829H53.1264V275.448ZM65.2288 272.431V268.769H62.6468V272.431H65.2288ZM61.3682 272.431V268.769H59.7171V267.739H68.1461V268.769H66.4951V272.431H68.1213V273.474H59.7544V272.431H61.3682ZM58.873 275.46H69.0523V276.515H58.873V275.46ZM79.3299 272.605V273.635H71.5589V267.59H79.243V268.62H72.8624V270.06H78.9948V271.066H72.8624V272.605H79.3299ZM70.3051 275.473H80.472V276.515H70.3051V275.473ZM84.5304 268.31C83.7483 268.31 83.2145 268.769 83.2145 269.452C83.2145 270.135 83.7483 270.594 84.5304 270.594C85.3 270.594 85.8338 270.135 85.8338 269.452C85.8338 268.769 85.3 268.31 84.5304 268.31ZM84.5304 271.55C83.1028 271.55 82.0724 270.693 82.0724 269.452C82.0724 268.211 83.1028 267.354 84.5304 267.354C85.9455 267.354 86.9759 268.211 86.9759 269.452C86.9759 270.693 85.9455 271.55 84.5304 271.55ZM87.311 272.009L87.4104 272.94C86.6779 273.077 85.8835 273.176 85.1014 273.238V277H83.8848V273.3C83.0779 273.325 82.3207 273.337 81.7124 273.337L81.5635 272.282C83.0779 272.282 85.5235 272.27 87.311 272.009ZM87.9566 273.971V266.907H89.1483V277.347H87.9566V274.951H86.0076V273.971H87.9566ZM90.129 266.671H91.3455V277.893H90.129V266.671ZM96.1611 274.269C97.1294 274.269 97.7873 273.226 97.7873 271.451C97.7873 269.713 97.1294 268.657 96.1611 268.657C95.2052 268.657 94.5473 269.713 94.5473 271.451C94.5473 273.226 95.2052 274.269 96.1611 274.269ZM101.164 266.671H102.455V277.918H101.164V271.897H98.9915C98.8425 274.07 97.7004 275.411 96.1611 275.411C94.5101 275.411 93.3308 273.884 93.3308 271.451C93.3308 269.042 94.5101 267.503 96.1611 267.503C97.6632 267.503 98.8052 268.794 98.979 270.855H101.164V266.671ZM106.228 267.776V274.033C107.742 274.02 109.356 273.896 111.057 273.549L111.206 274.604C109.306 274.976 107.568 275.1 105.88 275.1H104.949V267.776H106.228ZM114.942 271.053V272.109H113.242V277.893H111.963V266.684H113.242V271.053H114.942ZM124.47 275.497H128.927V276.553H118.772V275.497H123.192V272.853H120.014V267.528H127.685V268.558H121.292V271.823H127.785V272.853H124.47V275.497ZM140.334 272.158V273.213H135.865V277.893H134.574V273.213H130.192V272.158H137.479C137.802 270.594 137.802 269.427 137.802 268.397H131.409V267.366H139.055V268.347C139.055 269.402 139.055 270.569 138.77 272.158H140.334ZM145.356 271.289L144.897 270.284C146.97 270.073 148.41 269.204 148.583 268.198H145.331V267.168H153.611V268.198H150.334C150.508 269.204 151.948 270.073 154.021 270.284L153.574 271.289C151.6 271.078 150.061 270.271 149.465 269.117C148.857 270.271 147.317 271.078 145.356 271.289ZM152.01 275.907C152.01 275.237 151.079 274.889 149.44 274.889C147.801 274.889 146.883 275.237 146.883 275.907C146.883 276.553 147.801 276.913 149.44 276.913C151.079 276.913 152.01 276.553 152.01 275.907ZM154.53 272.878H150.098V273.921C152.121 274.045 153.301 274.74 153.301 275.907C153.301 277.173 151.861 277.893 149.44 277.893C147.032 277.893 145.579 277.173 145.579 275.907C145.579 274.74 146.783 274.033 148.819 273.909V272.878H144.388V271.86H154.53V272.878ZM158.34 274.306C159.109 274.306 159.581 273.3 159.581 271.525C159.581 269.75 159.109 268.757 158.34 268.757C157.57 268.757 157.098 269.75 157.098 271.525C157.098 273.3 157.57 274.306 158.34 274.306ZM161.927 270.929V266.895H163.119V277.36H161.927V271.984H160.736C160.624 274.169 159.705 275.51 158.34 275.51C156.887 275.51 155.931 273.983 155.931 271.525C155.931 269.067 156.887 267.553 158.34 267.553C159.68 267.553 160.587 268.831 160.723 270.929H161.927ZM164.174 266.684H165.391V277.881H164.174V266.684ZM170.934 270.904L170.524 269.936C172.622 269.775 174.087 268.993 174.31 268.074H170.959V267.069H179.251V268.074H175.887C176.11 268.993 177.563 269.775 179.661 269.936L179.264 270.904C177.315 270.743 175.763 270.048 175.092 269.017C174.435 270.048 172.895 270.743 170.934 270.904ZM172.51 275.907V276.813H179.214V277.794H171.244V275.001H177.637V274.169H171.219V273.213H178.891V275.907H172.51ZM170.015 271.351H180.17V272.369H170.015V271.351ZM189.442 266.671H190.733V277.893H189.442V273.735H186.549V272.692H189.442V270.693H186.723C186.09 272.779 184.663 274.566 182.068 275.87L181.385 274.864C184.191 273.449 185.581 271.475 185.817 268.906H181.894V267.863H187.108C187.108 268.484 187.058 269.08 186.959 269.663H189.442V266.671ZM199.578 267.615V269.452C199.578 271.451 200.621 273.474 202.309 274.306L201.527 275.324C200.323 274.703 199.429 273.486 198.945 272.022C198.461 273.573 197.517 274.877 196.239 275.535L195.457 274.504C197.207 273.648 198.299 271.525 198.299 269.452V267.615H199.578ZM206.083 271.128V272.183H204.333V277.893H203.054V266.684H204.333V271.128H206.083ZM212.115 276.913C213.754 276.913 214.685 276.565 214.685 275.882C214.685 275.212 213.754 274.852 212.115 274.852C210.476 274.852 209.558 275.212 209.558 275.882C209.558 276.565 210.476 276.913 212.115 276.913ZM212.115 273.871C214.536 273.871 215.976 274.604 215.976 275.882C215.976 277.173 214.536 277.893 212.115 277.893C209.707 277.893 208.254 277.173 208.254 275.882C208.254 274.604 209.707 273.871 212.115 273.871ZM210.75 270.991V272.133H213.505V270.991C213.096 271.053 212.636 271.091 212.14 271.091C211.643 271.091 211.159 271.053 210.75 270.991ZM212.14 267.863C210.464 267.863 209.459 268.26 209.459 268.98C209.459 269.7 210.464 270.11 212.14 270.11C213.803 270.11 214.809 269.7 214.809 268.98C214.809 268.26 213.803 267.863 212.14 267.863ZM214.784 272.133H217.205V273.151H207.063V272.133H209.471V270.644C208.627 270.284 208.143 269.713 208.143 268.98C208.143 267.664 209.682 266.87 212.14 266.87C214.585 266.87 216.137 267.664 216.137 268.98C216.137 269.713 215.641 270.284 214.784 270.656V272.133ZM221.76 274.43C222.666 274.43 223.324 273.809 223.324 272.866C223.324 271.922 222.666 271.302 221.76 271.302C220.853 271.302 220.195 271.922 220.195 272.866C220.195 273.809 220.853 274.43 221.76 274.43ZM221.76 270.246C223.361 270.246 224.54 271.339 224.54 272.866C224.54 274.405 223.361 275.485 221.76 275.485C220.146 275.485 218.979 274.405 218.979 272.866C218.979 271.339 220.146 270.246 221.76 270.246ZM222.38 266.857V268.409H225V269.452H218.433V268.409H221.102V266.857H222.38ZM228.922 271.19V272.257H227.197V277.906H225.906V266.684H227.197V271.19H228.922ZM238.915 269.899V270.942H231.218V267.081H232.497V269.899H238.915ZM232.422 274.343V276.615H238.977V277.645H231.143V274.343H232.422ZM229.902 272.282H240.081V273.313H229.902V272.282ZM252.129 274.206V270.805H249.92V269.75H252.129V266.684H253.408V274.206H252.129ZM244.83 267.553H249.87C249.87 270.52 248.095 272.555 244.818 273.598L244.284 272.605C246.866 271.798 248.294 270.383 248.505 268.583H244.83V267.553ZM250.354 273.313V273.747C250.354 275.212 251.819 276.478 253.979 276.838L253.47 277.844C251.757 277.533 250.391 276.689 249.721 275.497C249.038 276.702 247.66 277.558 245.935 277.869L245.438 276.863C247.598 276.491 249.076 275.224 249.076 273.747V273.313H250.354ZM263.475 266.671H264.766V277.918H263.475V266.671ZM258.795 267.503C260.47 267.503 261.687 269.042 261.687 271.451C261.687 273.884 260.47 275.411 258.795 275.411C257.131 275.411 255.915 273.884 255.915 271.451C255.915 269.042 257.131 267.503 258.795 267.503ZM258.795 268.657C257.826 268.657 257.144 269.713 257.144 271.451C257.144 273.213 257.826 274.269 258.795 274.269C259.775 274.269 260.458 273.213 260.458 271.451C260.458 269.713 259.775 268.657 258.795 268.657ZM278.986 266.696V273.064H277.707V266.696H278.986ZM272.941 268.36C271.947 268.36 271.215 268.993 271.215 269.949C271.215 270.917 271.947 271.537 272.941 271.537C273.934 271.537 274.666 270.917 274.666 269.949C274.666 268.993 273.934 268.36 272.941 268.36ZM272.941 272.593C271.227 272.593 269.961 271.513 269.961 269.949C269.961 268.384 271.227 267.304 272.941 267.304C274.654 267.304 275.907 268.384 275.907 269.949C275.907 271.513 274.654 272.593 272.941 272.593ZM277.794 273.549V274.045C277.794 275.2 278.527 276.329 279.979 276.801L279.346 277.744C278.266 277.36 277.534 276.64 277.149 275.733C276.789 276.615 276.118 277.422 275.101 277.844C274.045 277.434 273.387 276.664 273.04 275.758C272.63 276.64 271.91 277.36 270.867 277.744L270.247 276.801C271.674 276.292 272.419 275.137 272.419 274.045V273.549H273.661V274.045C273.661 274.989 274.095 275.994 275.076 276.615C276.069 275.944 276.541 274.889 276.541 274.045V273.549H277.794ZM282.833 267.776V274.033C284.348 274.02 285.962 273.896 287.662 273.549L287.811 274.604C285.912 274.976 284.174 275.1 282.486 275.1H281.555V267.776H282.833ZM291.548 271.053V272.109H289.847V277.893H288.569V266.684H289.847V271.053H291.548ZM296.239 273.04V275.473H299.07V273.027C298.635 273.139 298.151 273.189 297.654 273.189C297.158 273.189 296.674 273.139 296.239 273.04ZM297.654 268.335C295.954 268.335 294.774 269.08 294.774 270.259C294.774 271.451 295.954 272.195 297.654 272.195C299.343 272.195 300.522 271.451 300.522 270.259C300.522 269.08 299.343 268.335 297.654 268.335ZM300.348 275.473H302.744V276.515H292.59V275.473H294.961V272.555C294.067 272.059 293.533 271.252 293.533 270.259C293.533 268.471 295.259 267.329 297.654 267.329C300.038 267.329 301.776 268.471 301.776 270.259C301.776 271.252 301.242 272.046 300.348 272.555V275.473ZM305.586 274.02C305.288 271.935 307.448 271.14 307.448 269.787C307.448 269.092 307.013 268.583 306.231 268.583C305.648 268.583 305.139 268.881 304.729 269.34L303.922 268.608C304.531 267.913 305.362 267.416 306.393 267.416C307.845 267.416 308.838 268.235 308.838 269.688C308.838 271.5 306.629 272.171 306.84 274.02H305.586ZM306.231 277.099C305.685 277.099 305.276 276.689 305.276 276.106C305.276 275.51 305.685 275.088 306.231 275.088C306.765 275.088 307.187 275.51 307.187 276.106C307.187 276.689 306.765 277.099 306.231 277.099Z" fill="#757575"/>
<mask id="path-7-inside-2_1106_7881" fill="white">
<path d="M0 299.07H729.6V361.139H0V299.07Z"/>
</mask>
<path d="M0 299.07H729.6V361.139H0V299.07Z" fill="#FEFEFE"/>
<path d="M729.6 361.139V361.76H730.221V361.139H729.6ZM0 361.139H-0.62069V361.76H0V361.139ZM728.979 299.07V361.139H730.221V299.07H728.979ZM729.6 360.519H0V361.76H729.6V360.519ZM0.62069 361.139V299.07H-0.62069V361.139H0.62069Z" fill="#C4C4C4" mask="url(#path-7-inside-2_1106_7881)"/>
<path d="M684.578 326.379L689.471 333.827L694.365 326.379" stroke="#757575" stroke-width="1.24138" stroke-linecap="round"/>
<path d="M10.9893 334.539V325.39H12.4293V334.539H10.9893ZM16.6822 334.539V326.607H14.0008V325.39H20.816V326.607H18.1222V334.539H16.6822ZM33.6389 330.207V331.237H25.8679V325.191H33.552V326.222H27.1714V327.662H33.3038V328.667H27.1714V330.207H33.6389ZM24.6141 333.074H34.781V334.117H24.6141V333.074ZM45.518 324.285V332.714H44.3014V324.285H45.518ZM42.0918 332.441V328.307H40.8752V327.265H42.0918V324.484H43.2959V332.441H42.0918ZM41.2476 329.747L41.3718 330.765C40.0187 331.014 38.8766 331.063 37.2628 331.063H36.5056V327.6H39.2118V326.172H36.4807V325.167H40.4531V328.543H37.7469V330.045C39.0752 330.033 40.0931 329.971 41.2476 329.747ZM39.398 334.241H45.8283V335.284H38.1069V331.883H39.398V334.241ZM56.466 329.574V330.604H48.6949V325.266H56.3791V326.309H49.9736V329.574H56.466ZM47.4536 333H57.6205V334.055H47.4536V333ZM60.4374 327.674C60.4374 328.655 61.1822 329.263 62.2002 329.263C63.2181 329.263 63.9505 328.655 63.9505 327.674C63.9505 326.694 63.2181 326.073 62.2002 326.073C61.1822 326.073 60.4374 326.694 60.4374 327.674ZM62.8457 330.306V332.031C63.8015 331.994 64.7574 331.92 65.6512 331.796L65.7629 332.739C63.4167 333.149 60.8471 333.161 58.9229 333.161L58.7491 332.106C59.5933 332.106 60.5615 332.106 61.5671 332.081V330.318C60.1767 330.07 59.196 329.052 59.196 327.674C59.196 326.085 60.4747 324.98 62.2002 324.98C63.9257 324.98 65.1919 326.085 65.1919 327.674C65.1919 329.052 64.236 330.058 62.8457 330.306ZM69.2264 328.804V329.871H67.5878V335.483H66.3091V324.285H67.5878V328.804H69.2264ZM74.0123 330.641L73.4288 329.648C75.0923 329.189 76.073 328.022 76.135 326.706H73.7144V325.676H76.1475V324.385H77.4261V325.676H79.8716V326.706H77.4261C77.5006 327.972 78.4937 329.089 80.1447 329.536L79.5737 330.529C78.2578 330.157 77.2895 329.363 76.793 328.332C76.3088 329.412 75.3406 330.244 74.0123 330.641ZM77.4261 330.281V332.143C78.4068 332.094 79.3999 332.007 80.3309 331.858L80.4302 332.789C77.9599 333.285 75.2785 333.298 73.2923 333.298L73.1309 332.243C74.0123 332.243 75.0675 332.243 76.1475 332.205V330.281H77.4261ZM81.0137 324.273H82.3047V335.52H81.0137V324.273ZM93.7368 324.298V332.491H92.4582V324.298H93.7368ZM91.2913 329.71L90.6334 330.728C89.3548 330.256 88.4361 329.338 87.952 328.171C87.443 329.425 86.512 330.443 85.1961 330.939L84.5382 329.909C86.301 329.263 87.2817 327.662 87.2817 326.023V324.906H88.5851V326.023C88.5851 327.612 89.5658 329.114 91.2913 329.71ZM87.7037 334.241H94.0596V335.284H86.4127V331.721H87.7037V334.241ZM100.67 326.371V331.709C102.756 331.696 104.097 331.634 105.599 331.349L105.735 332.416C104.109 332.714 102.657 332.776 100.335 332.776H99.4041V325.316H104.742V326.371H100.67ZM106.641 324.273H107.932V335.52H106.641V324.273ZM114.051 326.458V327.538C114.051 329.276 115.156 331.262 116.857 332.069L116.149 333.074C114.896 332.478 113.94 331.237 113.431 329.822C112.934 331.386 111.941 332.727 110.65 333.36L109.918 332.342C111.631 331.523 112.773 329.4 112.773 327.538V326.458H110.327V325.403H116.422V326.458H114.051ZM120.556 328.705V329.76H118.806V335.495H117.527V324.285H118.806V328.705H120.556ZM130.784 324.285V332.429H129.506V324.285H130.784ZM123.013 327.836C123.013 328.854 123.746 329.536 124.739 329.536C125.719 329.536 126.464 328.854 126.464 327.836C126.464 326.805 125.719 326.135 124.739 326.135C123.746 326.135 123.013 326.805 123.013 327.836ZM127.706 327.836C127.706 329.462 126.427 330.641 124.739 330.641C123.05 330.641 121.759 329.462 121.759 327.836C121.759 326.197 123.05 325.03 124.739 325.03C126.427 325.03 127.706 326.197 127.706 327.836ZM124.751 334.241H131.107V335.284H123.46V331.609H124.751V334.241ZM144.781 330.207V331.237H137.01V325.191H144.694V326.222H138.314V327.662H144.446V328.667H138.314V330.207H144.781ZM135.756 333.074H145.923V334.117H135.756V333.074ZM156.66 324.285V332.714H155.444V324.285H156.66ZM153.234 332.441V328.307H152.017V327.265H153.234V324.484H154.438V332.441H153.234ZM152.39 329.747L152.514 330.765C151.161 331.014 150.019 331.063 148.405 331.063H147.648V327.6H150.354V326.172H147.623V325.167H151.595V328.543H148.889V330.045C150.217 330.033 151.235 329.971 152.39 329.747ZM150.54 334.241H156.971V335.284H149.249V331.883H150.54V334.241ZM167.608 329.574V330.604H159.837V325.266H167.521V326.309H161.116V329.574H167.608ZM158.596 333H168.763V334.055H158.596V333ZM172.536 331.907C173.305 331.907 173.777 330.902 173.777 329.127C173.777 327.351 173.305 326.358 172.536 326.358C171.766 326.358 171.294 327.351 171.294 329.127C171.294 330.902 171.766 331.907 172.536 331.907ZM176.123 328.531V324.496H177.315V334.961H176.123V329.586H174.931C174.82 331.771 173.901 333.111 172.536 333.111C171.083 333.111 170.127 331.585 170.127 329.127C170.127 326.669 171.083 325.154 172.536 325.154C173.876 325.154 174.782 326.433 174.919 328.531H176.123ZM178.37 324.285H179.587V335.483H178.37V324.285ZM187.24 331.87C188.208 331.87 188.866 330.827 188.866 329.052C188.866 327.314 188.208 326.259 187.24 326.259C186.284 326.259 185.626 327.314 185.626 329.052C185.626 330.827 186.284 331.87 187.24 331.87ZM192.243 324.273H193.534V335.52H192.243V329.499H190.07C189.921 331.671 188.779 333.012 187.24 333.012C185.589 333.012 184.41 331.485 184.41 329.052C184.41 326.644 185.589 325.105 187.24 325.105C188.742 325.105 189.884 326.396 190.058 328.456H192.243V324.273ZM202.011 326.545H203.774V324.285H205.053V330.256H203.774V327.513H202.011V326.545ZM202.781 328.27L202.88 329.276C201.974 329.474 201.242 329.499 199.889 329.499H199.318V324.794H202.434V325.8H200.571V328.494C201.465 328.481 202.074 328.431 202.781 328.27ZM198.858 328.283L198.958 329.288C197.989 329.487 197.207 329.499 196.388 329.499H195.867V324.794H198.734V325.8H197.133V328.481C197.667 328.469 198.238 328.419 198.858 328.283ZM201.155 334.626C202.334 334.626 203.017 334.39 203.017 333.918C203.017 333.434 202.334 333.198 201.155 333.198C199.976 333.198 199.293 333.434 199.293 333.918C199.293 334.39 199.976 334.626 201.155 334.626ZM201.155 332.317C203.191 332.317 204.37 332.888 204.37 333.918C204.37 334.949 203.191 335.507 201.155 335.507C199.131 335.507 197.94 334.949 197.94 333.918C197.94 332.888 199.131 332.317 201.155 332.317ZM201.813 330.902H205.214V331.883H197.12V330.902H200.522V329.921H201.813V330.902ZM213.071 328.742V324.558H214.275V334.961H213.071V329.772H211.011C210.353 331.063 209.285 332.193 207.733 333.124L207.001 332.218C209.335 330.827 210.439 328.99 210.626 326.694H207.535V325.663H211.892C211.892 326.756 211.743 327.786 211.42 328.742H213.071ZM215.417 324.285H216.646V335.495H215.417V324.285ZM222.897 326.656V331.771C224.188 331.758 225.206 331.696 226.361 331.46L226.472 332.516C225.119 332.776 223.965 332.826 222.388 332.826H221.643V325.614H225.79V326.656H222.897ZM229.613 324.273H230.83V335.483H229.613V329.747H228.285V334.936H227.081V324.509H228.285V328.705H229.613V324.273ZM232.678 329.636H242.82V330.666H232.678V329.636ZM237.731 331.448C240.151 331.448 241.591 332.193 241.591 333.484C241.591 334.775 240.151 335.507 237.731 335.507C235.322 335.507 233.87 334.775 233.87 333.484C233.87 332.193 235.322 331.448 237.731 331.448ZM237.731 332.441C236.092 332.441 235.173 332.801 235.173 333.484C235.173 334.167 236.092 334.527 237.731 334.527C239.369 334.527 240.3 334.167 240.3 333.484C240.3 332.801 239.369 332.441 237.731 332.441ZM237.755 324.546C240.189 324.546 241.753 325.365 241.753 326.718C241.753 328.059 240.189 328.878 237.755 328.878C235.31 328.878 233.758 328.059 233.758 326.718C233.758 325.365 235.31 324.546 237.755 324.546ZM237.755 325.551C236.092 325.551 235.074 325.974 235.074 326.718C235.074 327.451 236.092 327.873 237.755 327.873C239.419 327.873 240.424 327.451 240.424 326.718C240.424 325.974 239.419 325.551 237.755 325.551ZM247.375 332.031C248.281 332.031 248.939 331.411 248.939 330.467C248.939 329.524 248.281 328.903 247.375 328.903C246.469 328.903 245.811 329.524 245.811 330.467C245.811 331.411 246.469 332.031 247.375 332.031ZM247.375 327.848C248.977 327.848 250.156 328.94 250.156 330.467C250.156 332.007 248.977 333.087 247.375 333.087C245.761 333.087 244.594 332.007 244.594 330.467C244.594 328.94 245.761 327.848 247.375 327.848ZM247.996 324.459V326.011H250.615V327.054H244.048V326.011H246.717V324.459H247.996ZM254.538 328.791V329.859H252.812V335.507H251.521V324.285H252.812V328.791H254.538ZM257.194 325.378V331.634C258.708 331.622 260.322 331.498 262.022 331.15L262.171 332.205C260.272 332.578 258.534 332.702 256.846 332.702H255.915V325.378H257.194ZM265.908 328.655V329.71H264.207V335.495H262.929V324.285H264.207V328.655H265.908ZM270.599 330.641V333.074H273.43V330.629C272.995 330.74 272.511 330.79 272.015 330.79C271.518 330.79 271.034 330.74 270.599 330.641ZM272.015 325.936C270.314 325.936 269.135 326.681 269.135 327.86C269.135 329.052 270.314 329.797 272.015 329.797C273.703 329.797 274.882 329.052 274.882 327.86C274.882 326.681 273.703 325.936 272.015 325.936ZM274.708 333.074H277.104V334.117H266.95V333.074H269.321V330.157C268.427 329.66 267.893 328.854 267.893 327.86C267.893 326.073 269.619 324.931 272.015 324.931C274.398 324.931 276.136 326.073 276.136 327.86C276.136 328.854 275.602 329.648 274.708 330.157V333.074ZM279.946 331.622C279.648 329.536 281.808 328.742 281.808 327.389C281.808 326.694 281.374 326.185 280.592 326.185C280.008 326.185 279.499 326.483 279.09 326.942L278.283 326.209C278.891 325.514 279.723 325.018 280.753 325.018C282.205 325.018 283.198 325.837 283.198 327.289C283.198 329.102 280.989 329.772 281.2 331.622H279.946ZM280.592 334.7C280.045 334.7 279.636 334.291 279.636 333.707C279.636 333.111 280.045 332.689 280.592 332.689C281.125 332.689 281.547 333.111 281.547 333.707C281.547 334.291 281.125 334.7 280.592 334.7Z" fill="#757575"/>
<mask id="path-11-inside-3_1106_7881" fill="white">
<path d="M0 11H729.6V237H0V11Z"/>
</mask>
<path d="M0 11H729.6V237H0V11Z" fill="#FEFEFE"/>
<path d="M0 11V10.3793H-0.62069V11H0ZM729.6 11H730.221V10.3793H729.6V11ZM729.6 237V237.621H730.221V237H729.6ZM0 237H-0.62069V237.621H0V237ZM0 11.6207H729.6V10.3793H0V11.6207ZM728.979 11V237H730.221V11H728.979ZM729.6 236.379H0V237.621H729.6V236.379ZM0.62069 237V11H-0.62069V237H0.62069Z" fill="#C4C4C4" mask="url(#path-11-inside-3_1106_7881)"/>
<path d="M21.5317 41.3768V47.4099C23.93 47.395 25.4644 47.3206 27.1179 47.0077L27.2966 48.6314C25.4346 48.989 23.6917 49.0486 20.772 49.0486H19.5653V39.7829H26.1943V41.3768H21.5317ZM28.1457 38.5614H30.1121V52.3258H28.1457V38.5614ZM37.4847 41.496V42.2557C37.4847 44.3412 38.5722 46.7694 40.8215 47.8121L39.7341 49.3614C38.2147 48.6612 37.1421 47.2908 36.5313 45.667C35.9206 47.4546 34.8182 48.9592 33.2541 49.704L32.1518 48.1399C34.4011 47.0971 35.5184 44.52 35.5184 42.2557V41.496H32.6731V39.8723H40.2108V41.496H37.4847ZM45.1862 43.7901V45.4138H43.1901V52.2811H41.2238V38.5614H43.1901V43.7901H45.1862ZM57.5492 38.5763V48.4229H55.568V38.5763H57.5492ZM48.2687 42.9261C48.2687 44.0284 49.0731 44.6988 50.086 44.6988C51.1139 44.6988 51.8885 44.0284 51.8885 42.9261C51.8885 41.7939 51.1139 41.1385 50.086 41.1385C49.0731 41.1385 48.2687 41.7939 48.2687 42.9261ZM53.8102 42.9261C53.8102 44.9222 52.1865 46.397 50.086 46.397C47.9856 46.397 46.347 44.9222 46.347 42.9261C46.347 40.9001 47.9856 39.4403 50.086 39.4403C52.1865 39.4403 53.8102 40.9001 53.8102 42.9261ZM50.384 50.4786H57.8918V52.0428H48.4176V47.4546H50.384V50.4786ZM70.8144 45.4287V41.3172H68.0138V45.4287H70.8144ZM66.0624 45.4287V41.3172H64.2003V39.7531H74.6279V41.3172H72.7658V45.4287H74.5832V46.9928H64.2748V45.4287H66.0624ZM63.232 49.0932H75.6557V50.6872H63.232V49.0932ZM84.1158 49.1677H89.3594V50.7766H76.9357V49.1677H82.1495V47.1269H78.3657V42.4792H86.0226V41.0044H78.3508V39.4403H87.9591V44.0135H80.3172V45.5479H88.272V47.1269H84.1158V49.1677ZM95.0189 39.7531V41.9876C95.0189 44.2072 95.6148 46.4863 97.4769 47.7228L96.4043 49.2422C95.2424 48.5272 94.5124 47.3652 94.0804 45.9799C93.6038 47.4993 92.7993 48.8102 91.5629 49.555L90.3861 48.0803C92.3971 46.8588 93.1271 44.4008 93.1271 42.0621V39.7531H95.0189ZM97.7599 43.1942V38.7848H99.5922V51.6703H97.7599V44.7881H96.0319V43.1942H97.7599ZM100.546 38.5614H102.408V52.2811H100.546V38.5614ZM116.335 45.0116L115.501 46.6651C113.117 46.1884 111.359 44.8626 110.48 43.1197C109.601 44.8626 107.859 46.2033 105.475 46.6651L104.641 45.0116C107.725 44.4902 109.438 42.3153 109.438 40.349V39.3658H111.538V40.349C111.538 42.36 113.236 44.4902 116.335 45.0116ZM104.343 49.0188H116.767V50.6127H104.343V49.0188ZM127.014 40.7959V40.1255H119.566V38.7997H128.951V42.0323H121.532V42.7473H129.189V44.0731H119.596V40.7959H127.014ZM121.413 50.0913V50.8361H129.368V52.1619H119.462V48.8549H127.044V48.1548H119.447V46.829H128.996V50.0913H121.413ZM118.047 44.7286H130.47V46.1437H118.047V44.7286ZM144.629 45.533V42.1366H142.127V40.5724H144.629V38.5614H146.596V45.533H144.629ZM143.318 43.8646L142.32 45.3691C140.875 44.9073 139.862 43.9986 139.281 42.8516C138.671 44.1327 137.598 45.1457 136.034 45.6372L135.021 44.1029C137.3 43.4177 138.254 41.7343 138.254 39.9914V39.0083H140.235V39.9914C140.235 41.6152 141.173 43.2091 143.318 43.8646ZM139.505 50.5978H146.983V52.1172H137.568V48.3782H144.659V47.6185H137.553V46.1139H146.596V49.7934H139.505V50.5978ZM153.939 44.3114V41.1087H151.332V44.3114H153.939ZM158.333 42.1068H155.86V43.2836H158.333V42.1068ZM155.86 44.8477V45.8607H149.395V39.5446H155.86V40.5426H158.333V38.5614H160.299V46.6055H158.333V44.8477H155.86ZM155.652 50.7766C157.454 50.7766 158.393 50.4041 158.393 49.6146C158.393 48.8251 157.454 48.4527 155.652 48.4527C153.864 48.4527 152.926 48.8251 152.926 49.6146C152.926 50.4041 153.864 50.7766 155.652 50.7766ZM155.652 46.9481C158.571 46.9481 160.359 47.9313 160.359 49.6146C160.359 51.2979 158.571 52.2811 155.652 52.2811C152.747 52.2811 150.959 51.2979 150.959 49.6146C150.959 47.9313 152.747 46.9481 155.652 46.9481ZM165.825 47.693C166.57 47.693 167.106 47.0971 167.106 46.0692C167.106 45.0414 166.57 44.4306 165.825 44.4306C165.08 44.4306 164.544 45.0414 164.544 46.0692C164.544 47.0971 165.08 47.693 165.825 47.693ZM165.825 42.792C167.583 42.792 168.834 44.1476 168.834 46.0692C168.834 47.976 167.583 49.3316 165.825 49.3316C164.067 49.3316 162.816 47.976 162.816 46.0692C162.816 44.1476 164.067 42.792 165.825 42.792ZM166.793 38.9338V40.632H169.072V42.1961H162.518V40.632H164.857V38.9338H166.793ZM172.439 38.5465H174.301V52.2662H172.439V45.7266H171.396V51.7001H169.564V38.8146H171.396V44.1476H172.439V38.5465ZM180.922 45.3542L180.207 43.8199C183.008 43.4772 184.468 42.1366 184.661 40.8257H180.714V39.2615H190.888V40.8257H187C187.194 42.1366 188.639 43.4772 191.424 43.8199L190.724 45.3542C188.326 45.0265 186.642 43.9986 185.823 42.5983C185.004 43.9986 183.321 45.0265 180.922 45.3542ZM192.02 46.1437V47.7079H186.762V52.3109H184.795V47.7079H179.626V46.1437H192.02ZM197.695 39.7531V41.9876C197.695 44.2072 198.29 46.4863 200.153 47.7228L199.08 49.2422C197.918 48.5272 197.188 47.3652 196.756 45.9799C196.279 47.4993 195.475 48.8102 194.239 49.555L193.062 48.0803C195.073 46.8588 195.803 44.4008 195.803 42.0621V39.7531H197.695ZM200.436 43.1942V38.7848H202.268V51.6703H200.436V44.7881H198.708V43.1942H200.436ZM203.221 38.5614H205.083V52.2811H203.221V38.5614ZM211.711 46.4714V49.0932H214.735V46.4714C214.258 46.5608 213.752 46.6055 213.216 46.6055C212.679 46.6055 212.188 46.5608 211.711 46.4714ZM213.216 40.781C211.309 40.781 210.043 41.5556 210.043 42.9261C210.043 44.2817 211.309 45.0712 213.216 45.0712C215.122 45.0712 216.403 44.2817 216.403 42.9261C216.403 41.5556 215.122 40.781 213.216 40.781ZM216.687 49.0932H219.442V50.6872H207.019V49.0932H209.76V45.7415C208.717 45.101 208.091 44.1178 208.106 42.9261C208.106 40.6767 210.266 39.2317 213.216 39.2317C216.18 39.2317 218.34 40.6767 218.34 42.9261C218.34 44.1178 217.714 45.101 216.687 45.7415V49.0932ZM222.495 51.2086C221.72 51.2086 221.139 50.5829 221.139 49.7785C221.139 48.9592 221.72 48.3484 222.495 48.3484C223.285 48.3484 223.865 48.9592 223.865 49.7785C223.865 50.5829 223.285 51.2086 222.495 51.2086ZM236.524 45.4287V41.3172H233.723V45.4287H236.524ZM231.772 45.4287V41.3172H229.91V39.7531H240.337V41.3172H238.475V45.4287H240.293V46.9928H229.984V45.4287H231.772ZM228.942 49.0932H241.365V50.6872H228.942V49.0932ZM249.825 49.1677H255.069V50.7766H242.645V49.1677H247.859V47.1269H244.075V42.4792H251.732V41.0044H244.06V39.4403H253.669V44.0135H246.027V45.5479H253.982V47.1269H249.825V49.1677ZM262.025 41.9429H263.484V38.8146H265.317V46.8588H263.484V43.5368H262.025V41.9429ZM263.097 45.0563L262.129 46.5757C260.967 46.1288 260.192 45.3393 259.73 44.3561C259.239 45.4436 258.42 46.3225 257.168 46.8141L256.17 45.3095C258.032 44.5796 258.762 43.0154 258.762 41.4811V41.1087H256.602V39.5446H262.665V41.1087H260.669V41.4811C260.669 42.9559 261.354 44.371 263.097 45.0563ZM258.598 48.989V47.4397H268.043V52.296H266.076V48.989H258.598ZM266.181 38.5614H268.043V46.9183H266.181V38.5614ZM281.151 45.6372V47.1865H271.512V39.5594H281.046V41.1385H273.509V42.5834H280.733V44.1029H273.509V45.6372H281.151ZM270.053 49.1081H282.476V50.7021H270.053V49.1081ZM288.166 39.4701C290.311 39.4701 291.949 40.8852 291.949 42.8516C291.949 44.8328 290.311 46.2331 288.166 46.2331C286.021 46.2331 284.397 44.8328 284.397 42.8516C284.397 40.8852 286.021 39.4701 288.166 39.4701ZM288.166 41.1534C287.108 41.1534 286.304 41.779 286.304 42.8516C286.304 43.9241 287.108 44.5498 288.166 44.5498C289.223 44.5498 290.028 43.9241 290.028 42.8516C290.028 41.779 289.223 41.1534 288.166 41.1534ZM293.23 38.5465H295.197V52.3109H293.23V38.5465ZM284.069 49.5252L283.816 47.9313C286.229 47.9313 289.596 47.9164 292.486 47.4844L292.605 48.8996C289.655 49.4954 286.438 49.5252 284.069 49.5252ZM306.153 39.619V41.6152C306.153 44.1625 307.24 46.6651 309.564 47.6632L308.447 49.2571C306.868 48.5421 305.81 47.1865 305.2 45.5032C304.589 47.3354 303.472 48.8102 301.833 49.5848L300.656 47.9611C303.055 46.9332 304.187 44.2817 304.187 41.6152V39.619H306.153ZM310.235 38.5465H312.201V52.3109H310.235V38.5465ZM322.732 44.8328L321.734 46.3523C320.244 45.8756 319.216 44.9073 318.62 43.7007C318.009 45.0265 316.937 46.0841 315.358 46.6055L314.33 45.0712C316.565 44.3412 317.533 42.6281 317.577 40.9299H314.851V39.3658H322.27V40.9299H319.589C319.633 42.509 320.572 44.1327 322.732 44.8328ZM316.177 49.0039V47.4397H325.339V52.296H323.372V49.0039H316.177ZM327.156 41.8684V43.4921H325.339V46.829H323.372V38.5614H325.339V41.8684H327.156ZM337.255 43.5964V42.1812H331.609V43.5964H337.255ZM339.191 39.0828V45.1606H329.657V39.0828H331.609V40.6469H337.255V39.0828H339.191ZM340.666 46.4566V48.0207H335.393V52.296H333.426V48.0207H328.242V46.4566H340.666ZM344.523 45.0563V47.6185C346.37 47.6036 347.875 47.5291 349.558 47.261L349.737 48.84C347.756 49.1528 345.998 49.1975 343.689 49.1975H342.572V39.7084H348.917V41.2874H344.523V43.5219H348.456V45.0563H344.523ZM351.495 38.5465H353.461V52.3109H351.495V44.9669H349.141V43.3879H351.495V38.5465ZM362.51 49.7785V50.6574H370.093V52.1172H360.529V46.099H369.988V47.544H362.51V48.3782H369.661V49.7785H362.51ZM369.646 43.5964H371.433V45.1606H359.025V43.5964H362.257C362.659 42.3302 362.764 41.347 362.793 40.5724H360.187V39.0232H364.715V39.768C364.715 40.6469 364.715 41.9131 364.238 43.5964H367.679C368.022 42.3451 368.097 41.3917 368.111 40.5724H365.505V39.0232H370.018V39.9617C370.018 40.9299 370.018 42.1068 369.646 43.5964ZM373.056 39.9617H376.765C376.765 43.7454 376.423 46.6949 373.98 49.4061L372.445 48.2888C374.263 46.2778 374.799 44.2966 374.903 41.5407H373.056V39.9617ZM377.242 39.9617H380.549C380.549 43.9241 380.236 47.3057 377.838 50.2701L376.289 49.1826C378.106 46.8886 378.597 44.5945 378.702 41.5407H377.242V39.9617ZM385.405 43.9241V45.5479H383.633V52.2662H381.651V38.5465H383.633V43.9241H385.405ZM391.735 41.496V42.2557C391.735 44.4902 392.837 46.8588 395.131 47.8121L394.059 49.3614C392.465 48.6761 391.378 47.3354 390.767 45.6819C390.156 47.4695 389.054 48.9741 387.445 49.704L386.328 48.1399C388.622 47.112 389.739 44.5945 389.739 42.2557V41.496H386.879V39.8723H394.565V41.496H391.735ZM395.832 38.5614H397.798V52.2811H395.832V38.5614ZM407.265 47.5291C408.277 47.5291 408.948 46.4417 408.948 44.4008C408.948 42.3749 408.277 41.2874 407.265 41.2874C406.266 41.2874 405.596 42.3749 405.596 44.4008C405.596 46.4417 406.266 47.5291 407.265 47.5291ZM413.059 38.5465H415.026V52.3109H413.059V45.0861H410.78C410.572 47.7079 409.171 49.3167 407.265 49.3167C405.224 49.3167 403.719 47.4248 403.719 44.4008C403.719 41.3917 405.224 39.5148 407.265 39.5148C409.112 39.5148 410.497 41.0193 410.765 43.4921H413.059V38.5465ZM425.065 42.1812H426.867V38.5614H428.834V48.4974H426.867V43.7454H425.065V42.1812ZM425.78 44.7732L425.944 46.3225C424.99 46.5608 424.216 46.5757 422.398 46.5757H421.653V39.6041H425.467V41.1683H423.59V44.9967C424.543 44.9669 425.124 44.9222 425.78 44.7732ZM421.087 44.7881L421.236 46.3523C420.179 46.5757 419.315 46.5757 418.108 46.5757H417.408V39.6041H421.013V41.1683H419.344V44.9818C419.925 44.952 420.477 44.8924 421.087 44.7881ZM421.281 50.4786H429.161V52.0428H419.315V47.6632H421.281V50.4786ZM442.054 44.2519L442.248 45.8011C440.564 46.1735 439 46.248 435.961 46.248H434.814V39.6488H440.952V41.213H436.766V44.669C439.209 44.6541 440.564 44.5647 442.054 44.2519ZM438.211 47.4397V50.4786H445.584V52.0428H436.244V47.4397H438.211ZM445.093 42.3004H446.91V43.9092H445.093V48.4825H443.127V38.5614H445.093V42.3004ZM455.117 42.1812V38.8593H456.949V51.6852H455.117V47.1865H453.21V45.6074H455.117V43.7454H453.464C452.853 46.0097 451.482 47.9164 448.92 49.4359L447.803 48.0654C450.514 46.4119 451.706 44.4306 451.959 41.7492H448.578V40.1851H453.911C453.911 40.8852 453.866 41.5407 453.791 42.1812H455.117ZM457.933 38.5465H459.795V52.2811H457.933V38.5465ZM472.649 41.6003V43.1495H463.249V38.8295H472.545V40.3937H465.201V41.6003H472.649ZM465.082 49.8381V50.6574H472.947V52.1619H463.13V48.4527H470.653V47.6781H463.115V46.2033H472.59V49.8381H465.082ZM461.715 43.8794H474.124V45.4287H461.715V43.8794ZM481.601 40.2C479.62 40.2 478.681 40.483 478.681 41.0938C478.681 41.7343 479.62 42.0025 481.601 42.0025C483.597 42.0025 484.535 41.7343 484.535 41.0938C484.535 40.483 483.597 40.2 481.601 40.2ZM481.601 43.4326C478.473 43.4326 476.64 42.6132 476.64 41.0938C476.64 39.5892 478.473 38.755 481.601 38.755C484.744 38.755 486.576 39.5892 486.576 41.0938C486.576 42.6132 484.744 43.4326 481.601 43.4326ZM478.785 49.9274V50.7021H486.651V52.1768H476.834V48.5719H484.357V47.8419H476.819V46.397H486.293V49.9274H478.785ZM475.404 44.088H487.798V45.6223H475.404V44.088ZM492.974 39.9766H499.424C499.424 44.1178 498.099 47.544 493.361 49.9126L492.319 48.3931C495.745 46.6651 497.16 44.5349 497.428 41.5407H492.974V39.9766ZM501.987 38.5614H503.953V52.2811H501.987V45.4138H499.335V43.8199H501.987V38.5614ZM511.534 42.36V42.8367C511.534 44.8179 512.622 47.0524 514.871 48.0207L513.828 49.5252C512.279 48.8847 511.191 47.5738 510.581 46.0097C509.97 47.6632 508.868 49.0634 507.303 49.7636L506.246 48.259C508.495 47.2461 509.568 44.9222 509.568 42.8367V42.36H506.708V40.7959H509.568V38.8891H511.534V40.7959H514.335V42.36H511.534ZM515.601 38.5614H517.567V52.2811H515.601V38.5614ZM522.273 39.8574V47.2759C524.001 47.2312 525.863 47.0822 527.785 46.7098L527.979 48.3186C525.7 48.7953 523.495 48.9145 521.499 48.9145H520.307V39.8574H522.273ZM532.552 43.7305V45.3542H530.63V52.2513H528.664V38.5465H530.63V43.7305H532.552ZM538.286 46.4714V49.0932H541.31V46.4714C540.833 46.5608 540.327 46.6055 539.791 46.6055C539.254 46.6055 538.763 46.5608 538.286 46.4714ZM539.791 40.781C537.884 40.781 536.618 41.5556 536.618 42.9261C536.618 44.2817 537.884 45.0712 539.791 45.0712C541.697 45.0712 542.978 44.2817 542.978 42.9261C542.978 41.5556 541.697 40.781 539.791 40.781ZM543.261 49.0932H546.017V50.6872H533.594V49.0932H536.335V45.7415C535.292 45.101 534.666 44.1178 534.681 42.9261C534.681 40.6767 536.841 39.2317 539.791 39.2317C542.755 39.2317 544.915 40.6767 544.915 42.9261C544.915 44.1178 544.289 45.101 543.261 45.7415V49.0932ZM549.293 47.2461C548.936 44.8477 551.468 43.8794 551.468 42.4643C551.468 41.7194 550.977 41.2428 550.202 41.2428C549.547 41.2428 549.025 41.5854 548.549 42.077L547.342 40.9746C548.117 40.0957 549.174 39.485 550.47 39.485C552.258 39.485 553.569 40.4086 553.569 42.3153C553.569 44.4306 550.977 45.1457 551.2 47.2461H549.293ZM550.247 51.2086C549.472 51.2086 548.891 50.5829 548.891 49.7785C548.891 48.9592 549.472 48.3484 550.247 48.3484C551.036 48.3484 551.617 48.9592 551.617 49.7785C551.617 50.5829 551.036 51.2086 550.247 51.2086Z" fill="#757575"/>
<path d="M685 48.4492L689.893 41.0009L694.787 48.4492" stroke="#757575" stroke-width="1.24138" stroke-linecap="round"/>
<path d="M882.744 122.6V119.84H877.44V122.6H882.744ZM885.192 115.088V124.568H874.968V115.088H877.44V117.944H882.744V115.088H885.192ZM879.624 131.792V133.712H891.864V135.656H877.2V129.968H888.696V128.168H877.152V126.248H891.144V131.792H879.624ZM891.144 118.616H894.192V120.656H891.144V125.288H888.672V114.176H891.144V118.616ZM903.214 126.656V131.312H907.486V126.656H903.214ZM902.854 118.04V124.664H907.846V118.04H902.854ZM909.934 131.312H915.238V133.352H895.582V131.312H900.742V126.656H897.262V124.664H900.382V118.04H897.19V116.048H913.486V118.04H910.294V124.664H913.414V126.656H909.934V131.312ZM931.604 120.992V117.104H921.836V120.992H931.604ZM934.028 115.136V122.96H919.412V115.136H934.028ZM921.788 129.176V133.424H934.388V135.44H919.316V129.176H921.788ZM916.916 125.096H936.572V127.088H928.172V131.144H925.7V127.088H916.916V125.096ZM948.09 116.36C944.73 116.36 942.93 117.008 942.93 118.256C942.93 119.48 944.73 120.128 948.09 120.128C951.45 120.128 953.25 119.48 953.25 118.256C953.25 117.008 951.45 116.36 948.09 116.36ZM948.09 121.976C943.218 121.976 940.362 120.656 940.362 118.256C940.362 115.832 943.218 114.512 948.09 114.512C952.938 114.512 955.818 115.832 955.818 118.256C955.818 120.656 952.938 121.976 948.09 121.976ZM943.098 131.96V133.76H956.058V135.656H940.65V130.208H953.01V128.648H940.602V126.776H955.434V131.96H943.098ZM938.274 123.248H957.906V125.216H938.274V123.248ZM965.551 116.456H975.823C975.823 122.912 973.231 128.384 965.791 131.984L964.471 130.016C970.159 127.28 972.847 123.464 973.279 118.472H965.551V116.456ZM979.735 114.176H982.207V135.848H979.735V114.176ZM994.205 124.616V121.04H988.901V124.616H994.205ZM996.653 115.736V126.608H986.429V115.736H988.901V119.12H994.205V115.736H996.653ZM991.373 128.576V133.424H1003.47V135.44H988.877V128.576H991.373ZM1002.61 120.56H1005.68V122.6H1002.61V130.112H1000.13V114.2H1002.61V120.56ZM1016.84 115.4C1021.35 115.4 1024.8 117.848 1024.8 121.52C1024.8 125.216 1021.35 127.64 1016.84 127.64C1012.3 127.64 1008.87 125.216 1008.87 121.52C1008.87 117.848 1012.3 115.4 1016.84 115.4ZM1016.84 117.44C1013.62 117.44 1011.27 119.024 1011.27 121.52C1011.27 124.016 1013.62 125.6 1016.84 125.6C1020.03 125.6 1022.4 124.016 1022.4 121.52C1022.4 119.024 1020.03 117.44 1016.84 117.44ZM1007.04 131.072H1026.68V133.112H1007.04V131.072ZM1039.42 131.264H1048.03V133.304H1028.4V131.264H1036.95V127.568H1030.78V120.584H1043.26V117.68H1030.73V115.688H1045.71V122.552H1033.2V125.576H1046.19V127.568H1039.42V131.264ZM1063.79 125.864H1066.29V121.232H1063.79C1063.91 121.952 1063.96 122.72 1063.96 123.56C1063.96 124.4 1063.91 125.144 1063.79 125.864ZM1059.3 128.912C1060.79 128.912 1061.73 126.992 1061.73 123.56C1061.73 120.128 1060.79 118.184 1059.3 118.184C1057.81 118.184 1056.88 120.128 1056.88 123.56C1056.88 126.992 1057.81 128.912 1059.3 128.912ZM1066.29 119.192V114.584H1068.59V134.816H1066.29V127.88H1063.31C1062.54 129.992 1061.13 131.24 1059.3 131.24C1056.49 131.24 1054.65 128.312 1054.65 123.56C1054.65 118.784 1056.49 115.856 1059.3 115.856C1061.1 115.856 1062.54 117.056 1063.29 119.192H1066.29ZM1070.58 114.176H1072.93V135.824H1070.58V114.176ZM1088.39 124.088L1087.09 126.032C1084.76 125.192 1083.04 123.536 1082.12 121.496C1081.16 123.848 1079.39 125.72 1076.89 126.632L1075.57 124.664C1078.98 123.488 1080.83 120.536 1080.83 117.416V115.28H1083.32V117.608C1083.32 120.392 1085.17 123.032 1088.39 124.088ZM1085.72 133.904C1088.75 133.904 1090.5 133.16 1090.5 131.768C1090.5 130.424 1088.75 129.656 1085.72 129.656C1082.7 129.656 1080.95 130.424 1080.95 131.768C1080.95 133.16 1082.7 133.904 1085.72 133.904ZM1085.72 127.712C1090.21 127.712 1092.95 129.224 1092.95 131.768C1092.95 134.336 1090.21 135.848 1085.72 135.848C1081.26 135.848 1078.5 134.336 1078.5 131.768C1078.5 129.224 1081.26 127.712 1085.72 127.712ZM1092.71 119.528H1095.78V121.568H1092.71V127.184H1090.24V114.152H1092.71V119.528ZM1105.52 125.264V129.176C1107.44 129.104 1109.36 128.984 1111.16 128.768L1111.35 130.592C1106.67 131.336 1101.63 131.408 1097.55 131.384L1097.24 129.344C1099.04 129.344 1101.01 129.32 1103.05 129.272V125.264H1098.75V116.144H1109.84V118.16H1101.23V123.272H1109.94V125.264H1105.52ZM1112.48 114.128H1114.98V135.896H1112.48V114.128ZM1135.9 120.392V122.408H1121.02V114.944H1123.5V120.392H1135.9ZM1123.35 128.984V133.376H1136.02V135.368H1120.88V128.984H1123.35ZM1118.48 125H1138.16V126.992H1118.48V125ZM1162.39 114.176V125.36H1159.89V114.176H1162.39ZM1157.88 123.128L1156.77 125.024C1154.21 124.304 1152.36 122.696 1151.37 120.704C1150.41 122.912 1148.52 124.664 1145.88 125.504L1144.7 123.56C1148.06 122.552 1150.03 119.984 1150.08 117.296H1145.37V115.304H1157.23V117.296H1152.6C1152.67 119.816 1154.59 122.192 1157.88 123.128ZM1150.65 133.736H1163.04V135.656H1148.23V130.04H1159.94V128.216H1148.18V126.344H1162.39V131.816H1150.65V133.736ZM1180.56 120.992V117.104H1170.79V120.992H1180.56ZM1182.98 115.136V122.96H1168.36V115.136H1182.98ZM1170.74 129.176V133.424H1183.34V135.44H1168.27V129.176H1170.74ZM1165.87 125.096H1185.52V127.088H1177.12V131.144H1174.65V127.088H1165.87V125.096ZM1197.04 116.36C1193.68 116.36 1191.88 117.008 1191.88 118.256C1191.88 119.48 1193.68 120.128 1197.04 120.128C1200.4 120.128 1202.2 119.48 1202.2 118.256C1202.2 117.008 1200.4 116.36 1197.04 116.36ZM1197.04 121.976C1192.17 121.976 1189.31 120.656 1189.31 118.256C1189.31 115.832 1192.17 114.512 1197.04 114.512C1201.89 114.512 1204.77 115.832 1204.77 118.256C1204.77 120.656 1201.89 121.976 1197.04 121.976ZM1192.05 131.96V133.76H1205.01V135.656H1189.6V130.208H1201.96V128.648H1189.55V126.776H1204.39V131.96H1192.05ZM1187.23 123.248H1206.86V125.216H1187.23V123.248ZM1227.89 121.688V119.264H1218.25V121.688H1227.89ZM1230.34 114.872V123.632H1215.8V114.872H1218.25V117.368H1227.89V114.872H1230.34ZM1218.13 129.512V133.424H1230.73V135.44H1215.65V129.512H1218.13ZM1213.25 125.456H1232.91V127.448H1224.51V131.312H1222.04V127.448H1213.25V125.456ZM1247.4 124.28L1246.08 126.2C1243.76 125.36 1242.03 123.68 1241.12 121.544C1240.16 123.872 1238.38 125.72 1235.88 126.656L1234.59 124.688C1238 123.488 1239.84 120.608 1239.84 117.44V115.28H1242.34V117.584C1242.34 120.416 1244.19 123.152 1247.4 124.28ZM1237.97 130.112V128.144H1252.59V135.872H1250.12V130.112H1237.97ZM1250.12 114.152H1252.59V127.04H1250.12V120.512H1245.72V118.472H1250.12V114.152ZM1261.27 128.936C1262.74 128.936 1263.77 127.76 1263.77 125.96C1263.77 124.16 1262.74 122.96 1261.27 122.96C1259.81 122.96 1258.78 124.16 1258.78 125.96C1258.78 127.76 1259.81 128.936 1261.27 128.936ZM1261.27 120.92C1264.01 120.92 1265.98 122.96 1265.98 125.96C1265.98 128.936 1264.01 131 1261.27 131C1258.54 131 1256.57 128.936 1256.57 125.96C1256.57 122.96 1258.54 120.92 1261.27 120.92ZM1262.5 114.8V117.704H1266.55V119.696H1255.95V117.704H1260.05V114.8H1262.5ZM1272.1 114.176H1274.45V135.848H1272.1V125.192H1269.79V134.84H1267.49V114.632H1269.79V123.152H1272.1V114.176ZM887.415 174.6V171.84H882.111V174.6H887.415ZM889.863 167.088V176.568H879.639V167.088H882.111V169.944H887.415V167.088H889.863ZM884.295 183.792V185.712H896.535V187.656H881.871V181.968H893.367V180.168H881.823V178.248H895.815V183.792H884.295ZM895.815 170.616H898.863V172.656H895.815V177.288H893.343V166.176H895.815V170.616ZM907.885 178.656V183.312H912.157V178.656H907.885ZM907.525 170.04V176.664H912.517V170.04H907.525ZM914.605 183.312H919.909V185.352H900.253V183.312H905.413V178.656H901.933V176.664H905.053V170.04H901.861V168.048H918.157V170.04H914.965V176.664H918.085V178.656H914.605V183.312ZM926.483 180.912C927.971 180.912 928.883 178.968 928.883 175.536C928.883 172.104 927.971 170.184 926.483 170.184C924.995 170.184 924.083 172.104 924.083 175.536C924.083 178.968 924.995 180.912 926.483 180.912ZM933.419 174.384V166.584H935.723V186.816H933.419V176.424H931.115C930.899 180.648 929.123 183.24 926.483 183.24C923.675 183.24 921.827 180.288 921.827 175.536C921.827 170.784 923.675 167.856 926.483 167.856C929.075 167.856 930.827 170.328 931.091 174.384H933.419ZM937.763 166.176H940.115V187.824H937.763V166.176ZM950.784 170.76V180.648C953.28 180.624 955.248 180.504 957.48 180.048L957.696 182.088C955.08 182.592 952.848 182.688 949.8 182.688H948.36V168.744H956.376V170.76H950.784ZM963.768 166.152H966.12V187.824H963.768V176.736H961.2V186.768H958.872V166.608H961.2V174.72H963.768V166.152ZM981.814 168.648V170.616H969.022V168.648H974.182V166.176H976.654V168.648H981.814ZM972.526 175.728C972.526 177.096 973.702 177.912 975.406 177.912C977.134 177.912 978.31 177.096 978.31 175.728C978.31 174.36 977.134 173.544 975.406 173.544C973.702 173.544 972.526 174.36 972.526 175.728ZM980.662 175.728C980.662 178.2 978.526 179.832 975.406 179.832C972.31 179.832 970.15 178.2 970.15 175.728C970.15 173.28 972.31 171.624 975.406 171.624C978.526 171.624 980.662 173.28 980.662 175.728ZM974.686 181.176V185.424H986.782V187.44H972.19V181.176H974.686ZM985.918 173.088H988.99V175.128H985.918V182.424H983.446V166.176H985.918V173.088ZM1002.61 170.376V172.464C1002.61 175.824 1004.75 179.664 1008.03 181.224L1006.67 183.168C1004.24 182.016 1002.39 179.616 1001.41 176.88C1000.45 179.904 998.53 182.496 996.034 183.72L994.618 181.752C997.93 180.168 1000.14 176.064 1000.14 172.464V170.376H995.41V168.336H1007.19V170.376H1002.61ZM1015.19 174.72V176.76H1011.8V187.848H1009.33V166.176H1011.8V174.72H1015.19ZM1034.24 166.2V182.04H1031.77V166.2H1034.24ZM1029.51 176.664L1028.24 178.632C1025.77 177.72 1023.99 175.944 1023.06 173.688C1022.07 176.112 1020.27 178.08 1017.73 179.04L1016.46 177.048C1019.86 175.8 1021.76 172.704 1021.76 169.536V167.376H1024.28V169.536C1024.28 172.608 1026.18 175.512 1029.51 176.664ZM1022.58 185.424H1034.86V187.44H1020.08V180.552H1022.58V185.424ZM1038.61 167.472H1048.71C1048.71 173.088 1044.99 177.024 1038.58 178.728L1037.62 176.76C1042.69 175.416 1045.64 172.776 1046.05 169.488H1038.61V167.472ZM1043.26 181.296V185.592H1052.21V181.296H1043.26ZM1040.81 187.584V179.328H1054.66V187.584H1040.81ZM1057.73 171.192V173.232H1054.66V178.392H1052.19V166.152H1054.66V171.192H1057.73ZM1068.89 168.36C1065.53 168.36 1063.73 169.008 1063.73 170.256C1063.73 171.48 1065.53 172.128 1068.89 172.128C1072.25 172.128 1074.05 171.48 1074.05 170.256C1074.05 169.008 1072.25 168.36 1068.89 168.36ZM1068.89 173.976C1064.02 173.976 1061.16 172.656 1061.16 170.256C1061.16 167.832 1064.02 166.512 1068.89 166.512C1073.74 166.512 1076.62 167.832 1076.62 170.256C1076.62 172.656 1073.74 173.976 1068.89 173.976ZM1063.9 183.96V185.76H1076.86V187.656H1061.45V182.208H1073.81V180.648H1061.4V178.776H1076.24V183.96H1063.9ZM1059.08 175.248H1078.71V177.216H1059.08V175.248ZM1092.86 181.56V185.616H1097.01V181.56H1092.86ZM1099.46 181.56V185.616H1102.79V187.584H1087.05V185.616H1090.41V181.56H1087.27V179.592H1102.63V181.56H1099.46ZM1096.17 175.752H1104.71V177.744H1085.11V175.752H1093.67V173.424H1087.7V166.632H1090.17V171.432H1102.58V173.424H1096.17V175.752ZM1121.82 166.152H1124.32V187.896H1121.82V166.152ZM1112.78 167.76C1116.02 167.76 1118.37 170.736 1118.37 175.392C1118.37 180.096 1116.02 183.048 1112.78 183.048C1109.56 183.048 1107.21 180.096 1107.21 175.392C1107.21 170.736 1109.56 167.76 1112.78 167.76ZM1112.78 169.992C1110.9 169.992 1109.58 172.032 1109.58 175.392C1109.58 178.8 1110.9 180.84 1112.78 180.84C1114.67 180.84 1115.99 178.8 1115.99 175.392C1115.99 172.032 1114.67 169.992 1112.78 169.992ZM1138.86 183.216H1147.48V185.256H1127.85V183.216H1136.39V178.104H1130.25V167.808H1145.08V169.8H1132.72V176.112H1145.27V178.104H1138.86V183.216ZM1151.39 183.408V181.416H1166.48V187.728H1164.01V183.408H1151.39ZM1160.24 177.96H1168.84V179.952H1149.18V177.96H1157.77V175.992H1151.7V170.4H1163.92V168.576H1151.65V166.68H1166.36V172.176H1154.12V174.096H1166.8V175.992H1160.24V177.96ZM1186.25 183.216H1194.86V185.256H1175.23V183.216H1183.78V178.104H1177.63V167.808H1192.46V169.8H1180.1V176.112H1192.66V178.104H1186.25V183.216ZM1199.61 172.728C1199.61 174.624 1201.05 175.8 1203.02 175.8C1204.99 175.8 1206.41 174.624 1206.41 172.728C1206.41 170.832 1204.99 169.632 1203.02 169.632C1201.05 169.632 1199.61 170.832 1199.61 172.728ZM1204.27 177.816V181.152C1206.12 181.08 1207.97 180.936 1209.69 180.696L1209.91 182.52C1205.37 183.312 1200.41 183.336 1196.69 183.336L1196.35 181.296C1197.98 181.296 1199.85 181.296 1201.8 181.248V177.84C1199.11 177.36 1197.21 175.392 1197.21 172.728C1197.21 169.656 1199.69 167.52 1203.02 167.52C1206.36 167.52 1208.81 169.656 1208.81 172.728C1208.81 175.392 1206.96 177.336 1204.27 177.816ZM1216.61 174.912V176.976H1213.44V187.824H1210.97V166.176H1213.44V174.912H1216.61ZM1219.37 176.04L1218.41 174.168C1221.72 173.544 1223.64 171.768 1223.64 169.824V169.632H1219.17V167.64H1230.62V169.632H1226.16V169.824C1226.16 171.648 1228.1 173.328 1231.25 173.88L1230.29 175.752C1227.74 175.272 1225.89 174.096 1224.93 172.536C1223.95 174.24 1222.05 175.536 1219.37 176.04ZM1231.97 176.856L1232.09 178.68C1230.09 179.04 1228.03 179.28 1226.01 179.4V187.2H1223.54V179.52C1221.6 179.592 1219.77 179.616 1218.17 179.616L1217.85 177.576C1221.84 177.576 1227.29 177.528 1231.97 176.856ZM1233.5 166.176H1236V187.848H1233.5V182.88H1228.85V180.984H1233.5V166.176ZM1246.36 178.464V183.168H1251.84V178.44C1251 178.656 1250.06 178.752 1249.1 178.752C1248.14 178.752 1247.2 178.656 1246.36 178.464ZM1249.1 169.368C1245.81 169.368 1243.53 170.808 1243.53 173.088C1243.53 175.392 1245.81 176.832 1249.1 176.832C1252.36 176.832 1254.64 175.392 1254.64 173.088C1254.64 170.808 1252.36 169.368 1249.1 169.368ZM1254.31 183.168H1258.94V185.184H1239.31V183.168H1243.89V177.528C1242.16 176.568 1241.13 175.008 1241.13 173.088C1241.13 169.632 1244.47 167.424 1249.1 167.424C1253.71 167.424 1257.07 169.632 1257.07 173.088C1257.07 175.008 1256.04 176.544 1254.31 177.528V183.168Z" fill="black"/>
<path d="M788.36 18.24H795.04V21.68H788.36V18.24ZM788.36 29.44H795.04V32.88H788.36V29.44ZM801.04 9.76H805.04V46.32H801.04V9.76ZM793.8 10.44H797.72V44.56H793.8V10.44ZM782.04 12.6C786.84 12.6 789.92 17.56 789.92 25.56C789.92 33.6 786.84 38.56 782.04 38.56C777.28 38.56 774.2 33.6 774.2 25.56C774.2 17.56 777.28 12.6 782.04 12.6ZM782.04 16.52C779.52 16.52 778 19.8 778 25.56C778 31.32 779.52 34.6 782.04 34.6C784.56 34.6 786.12 31.32 786.12 25.56C786.12 19.8 784.56 16.52 782.04 16.52ZM817.917 11.68H821.357V15.2C821.357 22.36 817.757 28.4 811.277 30.8L809.077 27.48C814.837 25.44 817.917 20.52 817.917 15.2V11.68ZM818.717 11.68H822.117V15.56C822.117 20.28 825.237 24.68 830.717 26.48L828.517 29.76C822.317 27.56 818.717 22.04 818.717 15.56V11.68ZM833.757 9.76H837.957V31.68H833.757V9.76ZM836.797 18.76H843.117V22.24H836.797V18.76ZM826.197 32.6C833.717 32.6 838.357 35.12 838.357 39.44C838.357 43.76 833.717 46.28 826.197 46.28C818.637 46.28 813.997 43.76 813.997 39.44C813.997 35.12 818.637 32.6 826.197 32.6ZM826.197 35.88C821.117 35.88 818.157 37.12 818.157 39.44C818.157 41.76 821.117 43 826.197 43C831.277 43 834.197 41.76 834.197 39.44C834.197 37.12 831.277 35.88 826.197 35.88ZM878.738 9.76H882.938V28.6H878.738V9.76ZM858.978 30.24H882.938V39.48H863.138V44.08H859.058V36.48H878.778V33.48H858.978V30.24ZM859.058 42.72H884.018V46H859.058V42.72ZM862.138 13.12H865.578V14.8C865.578 21.24 861.698 26.8 855.098 28.84L853.138 25.56C858.898 23.8 862.138 19.4 862.138 14.8V13.12ZM863.018 13.12H866.418V14.8C866.418 19.12 869.698 23.2 875.378 24.84L873.418 28.08C866.858 26.16 863.018 20.92 863.018 14.8V13.12ZM854.258 11.64H874.218V15H854.258V11.64ZM888.375 28.16H921.495V31.52H888.375V28.16ZM903.175 30.28H907.335V38.36H903.175V30.28ZM892.535 11.4H917.215V24.56H892.535V11.4ZM913.095 14.72H896.655V21.24H913.095V14.72ZM892.415 42.2H917.815V45.6H892.415V42.2ZM892.415 35.04H896.575V43.36H892.415V35.04ZM933.676 12.04H950.996V27.2H933.676V12.04ZM946.916 15.36H937.756V23.92H946.916V15.36ZM957.716 9.76H961.916V30.64H957.716V9.76ZM947.836 35.12H951.436V35.72C951.436 40.96 945.596 45.28 937.316 46.2L935.956 43.04C943.036 42.32 947.836 38.92 947.836 35.72V35.12ZM948.516 35.12H952.156V35.72C952.156 38.8 956.916 42.28 963.956 43.04L962.556 46.2C954.276 45.28 948.516 40.8 948.516 35.72V35.12ZM937.396 32.88H962.596V36.08H937.396V32.88ZM947.876 29.6H952.156V34.36H947.876V29.6ZM999.497 9.76H1003.7V29.28H999.497V9.76ZM1002.54 18H1008.86V21.44H1002.54V18ZM976.697 24.84H979.617C987.337 24.84 991.417 24.6 996.097 23.64L996.537 27C991.737 28.04 987.497 28.24 979.617 28.24H976.697V24.84ZM976.697 12.08H992.857V15.44H980.857V27.12H976.697V12.08ZM980.297 31.16H984.457V35.16H999.537V31.16H1003.7V45.8H980.297V31.16ZM984.457 38.44V42.4H999.537V38.44H984.457ZM1028.41 16.2H1038.41V19.56H1028.41V16.2ZM1028.41 24.08H1038.53V27.44H1028.41V24.08ZM1036.85 9.8H1041.05V36.8H1036.85V9.8ZM1017.25 42.2H1041.89V45.6H1017.25V42.2ZM1017.25 34.16H1021.45V44.04H1017.25V34.16ZM1012.41 12.2H1016.57V18.24H1025.17V12.2H1029.29V30.8H1012.41V12.2ZM1016.57 21.48V27.44H1025.17V21.48H1016.57ZM1081.32 9.76H1085.32V46.32H1081.32V9.76ZM1068.56 22.6H1075.16V26.04H1068.56V22.6ZM1073.96 10.48H1077.88V44.52H1073.96V10.48ZM1061.16 15.56H1064.36V19.8C1064.36 27.88 1061.64 35.72 1056.08 39.24L1053.56 36.12C1058.76 32.92 1061.16 26.32 1061.16 19.8V15.56ZM1062.08 15.56H1065.24V19.8C1065.24 26.04 1067.56 32.28 1072.68 35.28L1070.2 38.36C1064.64 35.04 1062.08 27.64 1062.08 19.8V15.56ZM1054.72 13.76H1071.24V17.16H1054.72V13.76ZM1106.07 32.68C1113.91 32.68 1118.91 35.24 1118.91 39.52C1118.91 43.72 1113.91 46.28 1106.07 46.28C1098.27 46.28 1093.27 43.72 1093.27 39.52C1093.27 35.24 1098.27 32.68 1106.07 32.68ZM1106.07 35.88C1100.71 35.88 1097.43 37.2 1097.43 39.52C1097.43 41.76 1100.71 43.08 1106.07 43.08C1111.47 43.08 1114.75 41.76 1114.75 39.52C1114.75 37.2 1111.47 35.88 1106.07 35.88ZM1093.59 11.52H1116.95V14.84H1093.59V11.52ZM1089.79 26.48H1122.71V29.8H1089.79V26.48ZM1102.71 19.72H1106.87V27.36H1102.71V19.72ZM1114.51 11.52H1118.67V14.56C1118.67 17.48 1118.67 20.52 1117.67 24.28L1113.51 23.84C1114.51 20.08 1114.51 17.4 1114.51 14.56V11.52Z" fill="#3D6BE1"/>
</svg>
