<svg width="318" height="153" viewBox="0 0 318 153" fill="none" xmlns="http://www.w3.org/2000/svg">
<mask id="path-1-inside-1_740_2743" fill="white">
<path d="M0.127441 98.2237H317.227V125.2H0.127441V98.2237Z"/>
</mask>
<path d="M0.127441 98.2237H317.227V125.2H0.127441V98.2237Z" fill="#FEFEFE"/>
<path d="M317.227 125.2V125.47H317.496V125.2H317.227ZM0.127441 125.2H-0.142323V125.47H0.127441V125.2ZM316.957 98.2237V125.2H317.496V98.2237H316.957ZM317.227 124.93H0.127441V125.47H317.227V124.93ZM0.397206 125.2V98.2237H-0.142323V125.2H0.397206Z" fill="#C4C4C4" mask="url(#path-1-inside-1_740_2743)"/>
<path d="M297.66 110.093L299.786 113.331L301.913 110.093" stroke="#757575" stroke-width="0.539529" stroke-linecap="round"/>
<path d="M5.50799 112.512V114.832C6.4144 114.827 6.99709 114.8 7.64992 114.676L7.70927 115.14C7.00248 115.269 6.37123 115.296 5.36231 115.296H4.95767V112.054H7.27764V112.512H5.50799ZM8.10312 111.6H8.66423V116.489H8.10312V111.6ZM11.3237 112.55V113.019C11.3237 113.775 11.8039 114.638 12.543 114.989L12.2355 115.426C11.6906 115.167 11.2751 114.627 11.0539 114.012C10.8381 114.692 10.4065 115.275 9.84538 115.55L9.52706 115.107C10.2716 114.751 10.768 113.829 10.768 113.019V112.55H9.7051V112.091H12.3542V112.55H11.3237ZM14.1508 113.527V113.985H13.3901V116.478H12.8344V111.606H13.3901V113.527H14.1508ZM18.5961 111.606V115.145H18.0404V111.606H18.5961ZM15.2187 113.149C15.2187 113.591 15.537 113.888 15.9686 113.888C16.3948 113.888 16.7186 113.591 16.7186 113.149C16.7186 112.701 16.3948 112.41 15.9686 112.41C15.537 112.41 15.2187 112.701 15.2187 113.149ZM17.2581 113.149C17.2581 113.856 16.7024 114.368 15.9686 114.368C15.2349 114.368 14.6737 113.856 14.6737 113.149C14.6737 112.437 15.2349 111.93 15.9686 111.93C16.7024 111.93 17.2581 112.437 17.2581 113.149ZM15.974 115.933H18.7364V116.386H15.4129V114.789H15.974V115.933ZM24.9816 113.91L24.7496 114.374C23.9511 114.217 23.2605 113.732 22.9476 113.084C22.6239 113.732 21.9333 114.217 21.1402 114.374L20.9028 113.91C21.8685 113.748 22.6508 113.019 22.6508 112.269V111.903H23.2389V112.269C23.2389 113.025 24.0213 113.748 24.9816 113.91ZM23.2174 115.415H25.1704V115.873H20.7571V115.415H22.6616V114.276H23.2174V115.415ZM28.4773 114.104V112.512H27.3551V114.104H28.4773ZM26.7994 114.104V112.512H26.0818V112.064H29.7452V112.512H29.0277V114.104H29.7344V114.557H26.098V114.104H26.7994ZM25.715 115.42H30.1391V115.879H25.715V115.42ZM34.606 114.179V114.627H31.2285V112H34.5682V112.447H31.795V113.073H34.4603V113.51H31.795V114.179H34.606ZM30.6836 115.426H35.1023V115.879H30.6836V115.426ZM36.8662 112.313C36.5263 112.313 36.2943 112.512 36.2943 112.809C36.2943 113.106 36.5263 113.305 36.8662 113.305C37.2007 113.305 37.4327 113.106 37.4327 112.809C37.4327 112.512 37.2007 112.313 36.8662 112.313ZM36.8662 113.721C36.2457 113.721 35.7979 113.349 35.7979 112.809C35.7979 112.269 36.2457 111.897 36.8662 111.897C37.4812 111.897 37.929 112.269 37.929 112.809C37.929 113.349 37.4812 113.721 36.8662 113.721ZM38.0747 113.92L38.1179 114.325C37.7996 114.384 37.4543 114.428 37.1144 114.455V116.089H36.5856V114.482C36.2349 114.492 35.9058 114.498 35.6414 114.498L35.5767 114.039C36.2349 114.039 37.2978 114.034 38.0747 113.92ZM38.3553 114.773V111.703H38.8732V116.24H38.3553V115.199H37.5082V114.773H38.3553ZM39.2995 111.6H39.8282V116.478H39.2995V111.6ZM41.9211 114.902C42.342 114.902 42.6279 114.449 42.6279 113.678C42.6279 112.922 42.342 112.464 41.9211 112.464C41.5057 112.464 41.2198 112.922 41.2198 113.678C41.2198 114.449 41.5057 114.902 41.9211 114.902ZM44.0954 111.6H44.6566V116.489H44.0954V113.872H43.1513C43.0865 114.816 42.5902 115.399 41.9211 115.399C41.2036 115.399 40.691 114.735 40.691 113.678C40.691 112.631 41.2036 111.962 41.9211 111.962C42.574 111.962 43.0703 112.523 43.1459 113.419H44.0954V111.6ZM46.2963 112.081V114.8C46.9545 114.794 47.6559 114.74 48.3951 114.589L48.4598 115.048C47.6343 115.21 46.879 115.264 46.1452 115.264H45.7406V112.081H46.2963ZM50.0838 113.505V113.964H49.3446V116.478H48.7889V111.606H49.3446V113.505H50.0838ZM54.2248 115.436H56.1618V115.895H51.7484V115.436H53.6691V114.287H52.2879V111.973H55.6222V112.421H52.8437V113.839H55.6654V114.287H54.2248V115.436ZM61.1196 113.985V114.444H59.1773V116.478H58.6162V114.444H56.7117V113.985H59.8787C60.019 113.305 60.019 112.798 60.019 112.35H57.2404V111.903H60.5639V112.329C60.5639 112.787 60.5639 113.295 60.4398 113.985H61.1196ZM63.3022 113.607L63.1025 113.17C64.0036 113.079 64.6294 112.701 64.7049 112.264H63.2914V111.816H66.89V112.264H65.4657C65.5412 112.701 66.1671 113.079 67.0681 113.17L66.8739 113.607C66.016 113.516 65.347 113.165 65.088 112.663C64.8236 113.165 64.1546 113.516 63.3022 113.607ZM66.194 115.615C66.194 115.323 65.7894 115.172 65.0772 115.172C64.365 115.172 63.9658 115.323 63.9658 115.615C63.9658 115.895 64.365 116.052 65.0772 116.052C65.7894 116.052 66.194 115.895 66.194 115.615ZM67.2893 114.298H65.3632V114.751C66.2426 114.805 66.7552 115.107 66.7552 115.615C66.7552 116.165 66.1293 116.478 65.0772 116.478C64.0305 116.478 63.3993 116.165 63.3993 115.615C63.3993 115.107 63.9226 114.8 64.8075 114.746V114.298H62.8813V113.856H67.2893V114.298ZM68.9452 114.919C69.2797 114.919 69.4848 114.482 69.4848 113.71C69.4848 112.938 69.2797 112.507 68.9452 112.507C68.6107 112.507 68.4057 112.938 68.4057 113.71C68.4057 114.482 68.6107 114.919 68.9452 114.919ZM70.5045 113.451V111.698H71.0224V116.246H70.5045V113.91H69.9865C69.938 114.859 69.5387 115.442 68.9452 115.442C68.314 115.442 67.8985 114.778 67.8985 113.71C67.8985 112.642 68.314 111.983 68.9452 111.983C69.5279 111.983 69.9218 112.539 69.9811 113.451H70.5045ZM71.481 111.606H72.0098V116.472H71.481V111.606ZM74.4189 113.44L74.2409 113.019C75.1527 112.949 75.7893 112.609 75.8864 112.21H74.4297V111.773H78.0338V112.21H76.5716C76.6688 112.609 77.3 112.949 78.2118 113.019L78.0392 113.44C77.1921 113.37 76.5177 113.068 76.2263 112.62C75.9404 113.068 75.2714 113.37 74.4189 113.44ZM75.1041 115.615V116.008H78.0176V116.435H74.5538V115.221H77.3324V114.859H74.543V114.444H77.8773V115.615H75.1041ZM74.0197 113.634H78.433V114.077H74.0197V113.634ZM82.4629 111.6H83.024V116.478H82.4629V114.67H81.2058V114.217H82.4629V113.349H81.2813C81.0061 114.255 80.3857 115.032 79.2581 115.598L78.9613 115.161C80.1807 114.546 80.7849 113.688 80.8874 112.572H79.1825V112.118H81.4486C81.4486 112.388 81.427 112.647 81.3838 112.901H82.4629V111.6ZM86.8683 112.01V112.809C86.8683 113.678 87.3215 114.557 88.0553 114.919L87.7154 115.361C87.192 115.091 86.8035 114.562 86.5931 113.926C86.3827 114.6 85.9727 115.167 85.417 115.453L85.0771 115.005C85.8378 114.633 86.3126 113.71 86.3126 112.809V112.01H86.8683ZM89.6954 113.537V113.996H88.9347V116.478H88.379V111.606H88.9347V113.537H89.6954ZM92.3171 116.052C93.0293 116.052 93.4339 115.9 93.4339 115.604C93.4339 115.312 93.0293 115.156 92.3171 115.156C91.6049 115.156 91.2057 115.312 91.2057 115.604C91.2057 115.9 91.6049 116.052 92.3171 116.052ZM92.3171 114.73C93.3692 114.73 93.9951 115.048 93.9951 115.604C93.9951 116.165 93.3692 116.478 92.3171 116.478C91.2704 116.478 90.6392 116.165 90.6392 115.604C90.6392 115.048 91.2704 114.73 92.3171 114.73ZM91.7236 113.478V113.974H92.9214V113.478C92.7433 113.505 92.5437 113.521 92.3279 113.521C92.1121 113.521 91.9017 113.505 91.7236 113.478ZM92.3279 112.118C91.5995 112.118 91.1625 112.291 91.1625 112.604C91.1625 112.917 91.5995 113.095 92.3279 113.095C93.0509 113.095 93.4879 112.917 93.4879 112.604C93.4879 112.291 93.0509 112.118 92.3279 112.118ZM93.4771 113.974H94.5292V114.417H90.1212V113.974H91.1679V113.327C90.801 113.17 90.5906 112.922 90.5906 112.604C90.5906 112.032 91.2596 111.687 92.3279 111.687C93.3908 111.687 94.0652 112.032 94.0652 112.604C94.0652 112.922 93.8494 113.17 93.4771 113.332V113.974ZM96.5088 114.972C96.9027 114.972 97.1886 114.703 97.1886 114.293C97.1886 113.883 96.9027 113.613 96.5088 113.613C96.115 113.613 95.829 113.883 95.829 114.293C95.829 114.703 96.115 114.972 96.5088 114.972ZM96.5088 113.154C97.2048 113.154 97.7174 113.629 97.7174 114.293C97.7174 114.962 97.2048 115.431 96.5088 115.431C95.8074 115.431 95.3003 114.962 95.3003 114.293C95.3003 113.629 95.8074 113.154 96.5088 113.154ZM96.7786 111.681V112.356H97.917V112.809H95.0629V112.356H96.2229V111.681H96.7786ZM99.6219 113.564V114.028H98.872V116.483H98.3109V111.606H98.872V113.564H99.6219ZM103.965 113.003V113.456H100.62V111.778H101.175V113.003H103.965ZM101.143 114.935V115.922H103.992V116.37H100.587V114.935H101.143ZM100.048 114.039H104.472V114.487H100.048V114.039ZM109.708 114.875V113.397H108.748V112.938H109.708V111.606H110.264V114.875H109.708ZM106.536 111.983H108.726C108.726 113.273 107.955 114.158 106.53 114.611L106.298 114.179C107.421 113.829 108.041 113.214 108.133 112.431H106.536V111.983ZM108.937 114.487V114.676C108.937 115.312 109.573 115.863 110.512 116.019L110.291 116.456C109.546 116.321 108.953 115.954 108.661 115.436C108.365 115.96 107.766 116.332 107.016 116.467L106.8 116.03C107.739 115.868 108.381 115.318 108.381 114.676V114.487H108.937ZM114.639 111.6H115.2V116.489H114.639V111.6ZM112.605 111.962C113.333 111.962 113.862 112.631 113.862 113.678C113.862 114.735 113.333 115.399 112.605 115.399C111.882 115.399 111.353 114.735 111.353 113.678C111.353 112.631 111.882 111.962 112.605 111.962ZM112.605 112.464C112.184 112.464 111.887 112.922 111.887 113.678C111.887 114.444 112.184 114.902 112.605 114.902C113.031 114.902 113.328 114.444 113.328 113.678C113.328 112.922 113.031 112.464 112.605 112.464ZM121.381 111.611V114.379H120.825V111.611H121.381ZM118.753 112.334C118.321 112.334 118.003 112.609 118.003 113.025C118.003 113.446 118.321 113.715 118.753 113.715C119.185 113.715 119.503 113.446 119.503 113.025C119.503 112.609 119.185 112.334 118.753 112.334ZM118.753 114.174C118.009 114.174 117.458 113.705 117.458 113.025C117.458 112.345 118.009 111.876 118.753 111.876C119.498 111.876 120.043 112.345 120.043 113.025C120.043 113.705 119.498 114.174 118.753 114.174ZM120.863 114.589V114.805C120.863 115.307 121.181 115.798 121.812 116.003L121.537 116.413C121.068 116.246 120.749 115.933 120.582 115.539C120.426 115.922 120.134 116.273 119.692 116.456C119.233 116.278 118.947 115.944 118.796 115.55C118.618 115.933 118.305 116.246 117.852 116.413L117.582 116.003C118.203 115.782 118.527 115.28 118.527 114.805V114.589H119.066V114.805C119.066 115.215 119.255 115.652 119.681 115.922C120.113 115.631 120.318 115.172 120.318 114.805V114.589H120.863ZM123.053 112.081V114.8C123.711 114.794 124.412 114.74 125.152 114.589L125.216 115.048C124.391 115.21 123.635 115.264 122.902 115.264H122.497V112.081H123.053ZM126.84 113.505V113.964H126.101V116.478H125.545V111.606H126.101V113.505H126.84ZM128.879 114.368V115.426H130.109V114.363C129.921 114.411 129.71 114.433 129.494 114.433C129.278 114.433 129.068 114.411 128.879 114.368ZM129.494 112.323C128.755 112.323 128.243 112.647 128.243 113.16C128.243 113.678 128.755 114.001 129.494 114.001C130.228 114.001 130.741 113.678 130.741 113.16C130.741 112.647 130.228 112.323 129.494 112.323ZM130.665 115.426H131.706V115.879H127.293V115.426H128.324V114.158C127.935 113.942 127.703 113.591 127.703 113.16C127.703 112.383 128.453 111.886 129.494 111.886C130.53 111.886 131.286 112.383 131.286 113.16C131.286 113.591 131.054 113.937 130.665 114.158V115.426ZM132.941 114.794C132.812 113.888 133.751 113.543 133.751 112.955C133.751 112.653 133.562 112.431 133.222 112.431C132.968 112.431 132.747 112.561 132.569 112.76L132.218 112.442C132.483 112.14 132.844 111.924 133.292 111.924C133.923 111.924 134.355 112.28 134.355 112.911C134.355 113.699 133.395 113.991 133.486 114.794H132.941ZM133.222 116.132C132.985 116.132 132.807 115.954 132.807 115.701C132.807 115.442 132.985 115.258 133.222 115.258C133.454 115.258 133.637 115.442 133.637 115.701C133.637 115.954 133.454 116.132 133.222 116.132Z" fill="#757575"/>
<mask id="path-5-inside-2_740_2743" fill="white">
<path d="M0.127441 125.201H317.227V152.177H0.127441V125.201Z"/>
</mask>
<path d="M0.127441 125.201H317.227V152.177H0.127441V125.201Z" fill="#FEFEFE"/>
<path d="M317.227 152.177V152.447H317.496V152.177H317.227ZM0.127441 152.177H-0.142323V152.447H0.127441V152.177ZM316.957 125.201V152.177H317.496V125.201H316.957ZM317.227 151.907H0.127441V152.447H317.227V151.907ZM0.397206 152.177V125.201H-0.142323V152.177H0.397206Z" fill="#C4C4C4" mask="url(#path-5-inside-2_740_2743)"/>
<path d="M297.66 137.07L299.786 140.307L301.913 137.07" stroke="#757575" stroke-width="0.539529" stroke-linecap="round"/>
<path d="M4.90371 141.097V137.121H5.52957V141.097H4.90371ZM7.37796 141.097V137.649H6.21258V137.121H9.17459V137.649H8.00381V141.097H7.37796ZM14.7477 139.214V139.662H11.3703V137.034H14.7099V137.482H11.9368V138.108H14.602V138.545H11.9368V139.214H14.7477ZM10.8253 140.46H15.2441V140.914H10.8253V140.46ZM19.9106 136.641V140.304H19.3819V136.641H19.9106ZM18.4215 140.185V138.389H17.8927V137.935H18.4215V136.727H18.9448V140.185H18.4215ZM18.0546 139.014L18.1086 139.457C17.5205 139.565 17.0241 139.586 16.3227 139.586H15.9936V138.081H17.1698V137.461H15.9828V137.024H17.7093V138.491H16.5331V139.144C17.1104 139.139 17.5528 139.112 18.0546 139.014ZM17.2507 140.968H20.0455V141.421H16.6896V139.942H17.2507V140.968ZM24.6688 138.939V139.387H21.2914V137.067H24.631V137.52H21.8471V138.939H24.6688ZM20.7518 140.428H25.1706V140.887H20.7518V140.428ZM26.3949 138.113C26.3949 138.54 26.7186 138.804 27.161 138.804C27.6034 138.804 27.9218 138.54 27.9218 138.113C27.9218 137.687 27.6034 137.417 27.161 137.417C26.7186 137.417 26.3949 137.687 26.3949 138.113ZM27.4416 139.257V140.007C27.857 139.991 28.2724 139.959 28.6609 139.905L28.7095 140.315C27.6898 140.493 26.5729 140.498 25.7367 140.498L25.6611 140.04C26.028 140.04 26.4488 140.04 26.8859 140.029V139.263C26.2816 139.155 25.8554 138.712 25.8554 138.113C25.8554 137.423 26.4111 136.943 27.161 136.943C27.911 136.943 28.4613 137.423 28.4613 138.113C28.4613 138.712 28.0458 139.149 27.4416 139.257ZM30.2148 138.604V139.068H29.5026V141.507H28.9469V136.641H29.5026V138.604H30.2148ZM32.2948 139.403L32.0412 138.971C32.7642 138.772 33.1904 138.264 33.2174 137.693H32.1653V137.245H33.2228V136.684H33.7785V137.245H34.8414V137.693H33.7785C33.8109 138.243 34.2425 138.728 34.9601 138.923L34.7119 139.354C34.14 139.192 33.7192 138.847 33.5033 138.399C33.2929 138.869 32.8721 139.23 32.2948 139.403ZM33.7785 139.246V140.056C34.2047 140.034 34.6364 139.996 35.041 139.932L35.0842 140.336C34.0105 140.552 32.8451 140.557 31.9819 140.557L31.9117 140.099C32.2948 140.099 32.7534 140.099 33.2228 140.083V139.246H33.7785ZM35.3377 136.635H35.8989V141.523H35.3377V136.635ZM40.8675 136.646V140.207H40.3118V136.646H40.8675ZM39.8046 138.998L39.5187 139.441C38.963 139.236 38.5637 138.836 38.3533 138.329C38.1321 138.874 37.7274 139.317 37.1555 139.532L36.8696 139.085C37.6357 138.804 38.0619 138.108 38.0619 137.396V136.91H38.6285V137.396C38.6285 138.086 39.0547 138.739 39.8046 138.998ZM38.2454 140.968H41.0078V141.421H37.6843V139.872H38.2454V140.968ZM43.8809 137.547V139.867C44.7873 139.861 45.37 139.835 46.0229 139.71L46.0822 140.174C45.3754 140.304 44.7442 140.331 43.7353 140.331H43.3306V137.088H45.6506V137.547H43.8809ZM46.4761 136.635H47.0372V141.523H46.4761V136.635ZM49.6966 137.585V138.054C49.6966 138.809 50.1768 139.673 50.916 140.023L50.6084 140.46C50.0635 140.201 49.6481 139.662 49.4269 139.047C49.2111 139.727 48.7794 140.309 48.2183 140.584L47.9 140.142C48.6446 139.786 49.1409 138.863 49.1409 138.054V137.585H48.0781V137.126H50.7271V137.585H49.6966ZM52.5238 138.561V139.02H51.763V141.512H51.2073V136.641H51.763V138.561H52.5238ZM56.9691 136.641V140.18H56.4134V136.641H56.9691ZM53.5916 138.184C53.5916 138.626 53.9099 138.923 54.3416 138.923C54.7678 138.923 55.0915 138.626 55.0915 138.184C55.0915 137.736 54.7678 137.444 54.3416 137.444C53.9099 137.444 53.5916 137.736 53.5916 138.184ZM55.631 138.184C55.631 138.89 55.0753 139.403 54.3416 139.403C53.6078 139.403 53.0467 138.89 53.0467 138.184C53.0467 137.471 53.6078 136.964 54.3416 136.964C55.0753 136.964 55.631 137.471 55.631 138.184ZM54.347 140.968H57.1093V141.421H53.7858V139.824H54.347V140.968ZM63.0524 139.214V139.662H59.675V137.034H63.0147V137.482H60.2415V138.108H62.9068V138.545H60.2415V139.214H63.0524ZM59.1301 140.46H63.5488V140.914H59.1301V140.46ZM68.2153 136.641V140.304H67.6866V136.641H68.2153ZM66.7262 140.185V138.389H66.1975V137.935H66.7262V136.727H67.2495V140.185H66.7262ZM66.3593 139.014L66.4133 139.457C65.8252 139.565 65.3288 139.586 64.6274 139.586H64.2983V138.081H65.4745V137.461H64.2875V137.024H66.014V138.491H64.8378V139.144C65.4151 139.139 65.8576 139.112 66.3593 139.014ZM65.5554 140.968H68.3502V141.421H64.9943V139.942H65.5554V140.968ZM72.9735 138.939V139.387H69.5961V137.067H72.9358V137.52H70.1518V138.939H72.9735ZM69.0565 140.428H73.4753V140.887H69.0565V140.428ZM75.115 139.953C75.4495 139.953 75.6546 139.516 75.6546 138.745C75.6546 137.973 75.4495 137.542 75.115 137.542C74.7805 137.542 74.5755 137.973 74.5755 138.745C74.5755 139.516 74.7805 139.953 75.115 139.953ZM76.6743 138.486V136.732H77.1922V141.28H76.6743V138.944H76.1563C76.1078 139.894 75.7085 140.477 75.115 140.477C74.4838 140.477 74.0683 139.813 74.0683 138.745C74.0683 137.676 74.4838 137.018 75.115 137.018C75.6977 137.018 76.0916 137.574 76.1509 138.486H76.6743ZM77.6508 136.641H78.1796V141.507H77.6508V136.641ZM81.5059 139.937C81.9268 139.937 82.2127 139.484 82.2127 138.712C82.2127 137.957 81.9268 137.498 81.5059 137.498C81.0905 137.498 80.8045 137.957 80.8045 138.712C80.8045 139.484 81.0905 139.937 81.5059 139.937ZM83.6802 136.635H84.2413V141.523H83.6802V138.907H82.736C82.6713 139.851 82.1749 140.433 81.5059 140.433C80.7884 140.433 80.2758 139.77 80.2758 138.712C80.2758 137.666 80.7884 136.997 81.5059 136.997C82.1588 136.997 82.6551 137.558 82.7307 138.453H83.6802V136.635ZM87.9259 137.622H88.692V136.641H89.2477V139.236H88.692V138.043H87.9259V137.622ZM88.2604 138.372L88.3036 138.809C87.9097 138.896 87.5914 138.907 87.0033 138.907H86.7551V136.862H88.1093V137.299H87.3V138.47C87.6885 138.464 87.9529 138.443 88.2604 138.372ZM86.5555 138.378L86.5987 138.815C86.1778 138.901 85.8379 138.907 85.4818 138.907H85.2552V136.862H86.5015V137.299H85.8056V138.464C86.0375 138.459 86.2857 138.437 86.5555 138.378ZM87.5536 141.135C88.0662 141.135 88.3629 141.032 88.3629 140.827C88.3629 140.617 88.0662 140.514 87.5536 140.514C87.0411 140.514 86.7443 140.617 86.7443 140.827C86.7443 141.032 87.0411 141.135 87.5536 141.135ZM87.5536 140.131C88.4385 140.131 88.951 140.379 88.951 140.827C88.951 141.275 88.4385 141.518 87.5536 141.518C86.6742 141.518 86.1562 141.275 86.1562 140.827C86.1562 140.379 86.6742 140.131 87.5536 140.131ZM87.8396 139.516H89.3179V139.942H85.8002V139.516H87.2785V139.09H87.8396V139.516ZM92.7327 138.577V136.759H93.256V141.28H92.7327V139.025H91.8371C91.5511 139.586 91.0871 140.077 90.4127 140.482L90.0944 140.088C91.1087 139.484 91.5889 138.685 91.6698 137.687H90.3264V137.239H92.2201C92.2201 137.714 92.1554 138.162 92.0151 138.577H92.7327ZM93.7524 136.641H94.2865V141.512H93.7524V136.641ZM97.0032 137.671V139.894C97.5643 139.888 98.0067 139.861 98.5085 139.759L98.5571 140.218C97.969 140.331 97.4672 140.352 96.782 140.352H96.4583V137.218H98.2603V137.671H97.0032ZM99.9221 136.635H100.451V141.507H99.9221V139.014H99.3448V141.27H98.8214V136.738H99.3448V138.561H99.9221V136.635ZM101.254 138.966H105.662V139.414H101.254V138.966ZM103.45 139.754C104.502 139.754 105.128 140.077 105.128 140.638C105.128 141.2 104.502 141.518 103.45 141.518C102.403 141.518 101.772 141.2 101.772 140.638C101.772 140.077 102.403 139.754 103.45 139.754ZM103.45 140.185C102.738 140.185 102.339 140.342 102.339 140.638C102.339 140.935 102.738 141.092 103.45 141.092C104.162 141.092 104.567 140.935 104.567 140.638C104.567 140.342 104.162 140.185 103.45 140.185ZM103.461 136.754C104.518 136.754 105.198 137.11 105.198 137.698C105.198 138.281 104.518 138.637 103.461 138.637C102.398 138.637 101.724 138.281 101.724 137.698C101.724 137.11 102.398 136.754 103.461 136.754ZM103.461 137.191C102.738 137.191 102.296 137.374 102.296 137.698C102.296 138.016 102.738 138.2 103.461 138.2C104.184 138.2 104.621 138.016 104.621 137.698C104.621 137.374 104.184 137.191 103.461 137.191ZM107.642 140.007C108.036 140.007 108.322 139.737 108.322 139.327C108.322 138.917 108.036 138.648 107.642 138.648C107.248 138.648 106.962 138.917 106.962 139.327C106.962 139.737 107.248 140.007 107.642 140.007ZM107.642 138.189C108.338 138.189 108.85 138.664 108.85 139.327C108.85 139.996 108.338 140.466 107.642 140.466C106.941 140.466 106.433 139.996 106.433 139.327C106.433 138.664 106.941 138.189 107.642 138.189ZM107.912 136.716V137.39H109.05V137.844H106.196V137.39H107.356V136.716H107.912ZM110.755 138.599V139.063H110.005V141.518H109.444V136.641H110.005V138.599H110.755ZM111.909 137.115V139.835C112.567 139.829 113.269 139.775 114.008 139.624L114.073 140.083C113.247 140.245 112.492 140.299 111.758 140.299H111.353V137.115H111.909ZM115.697 138.54V138.998H114.957V141.512H114.402V136.641H114.957V138.54H115.697ZM117.736 139.403V140.46H118.966V139.397C118.777 139.446 118.567 139.468 118.351 139.468C118.135 139.468 117.924 139.446 117.736 139.403ZM118.351 137.358C117.612 137.358 117.099 137.682 117.099 138.194C117.099 138.712 117.612 139.036 118.351 139.036C119.084 139.036 119.597 138.712 119.597 138.194C119.597 137.682 119.084 137.358 118.351 137.358ZM119.521 140.46H120.563V140.914H116.149V140.46H117.18V139.192C116.791 138.977 116.559 138.626 116.559 138.194C116.559 137.417 117.309 136.921 118.351 136.921C119.387 136.921 120.142 137.417 120.142 138.194C120.142 138.626 119.91 138.971 119.521 139.192V140.46ZM121.798 139.829C121.668 138.923 122.607 138.577 122.607 137.989C122.607 137.687 122.418 137.466 122.078 137.466C121.825 137.466 121.604 137.595 121.426 137.795L121.075 137.477C121.339 137.175 121.701 136.959 122.149 136.959C122.78 136.959 123.211 137.315 123.211 137.946C123.211 138.734 122.251 139.025 122.343 139.829H121.798ZM122.078 141.167C121.841 141.167 121.663 140.989 121.663 140.736C121.663 140.477 121.841 140.293 122.078 140.293C122.31 140.293 122.494 140.477 122.494 140.736C122.494 140.989 122.31 141.167 122.078 141.167Z" fill="#757575"/>
<mask id="path-9-inside-3_740_2743" fill="white">
<path d="M0.127441 0H317.227V98.2243H0.127441V0Z"/>
</mask>
<path d="M0.127441 0H317.227V98.2243H0.127441V0Z" fill="#FEFEFE"/>
<path d="M0.127441 0V-0.269765H-0.142323V0H0.127441ZM317.227 0H317.496V-0.269765H317.227V0ZM317.227 98.2243V98.494H317.496V98.2243H317.227ZM0.127441 98.2243H-0.142323V98.494H0.127441V98.2243ZM0.127441 0.269765H317.227V-0.269765H0.127441V0.269765ZM316.957 0V98.2243H317.496V0H316.957ZM317.227 97.9545H0.127441V98.494H317.227V97.9545ZM0.397206 98.2243V0H-0.142323V98.2243H0.397206Z" fill="#C4C4C4" mask="url(#path-9-inside-3_740_2743)"/>
<path d="M9.48519 13.5095V16.1316C10.5276 16.1251 11.1944 16.0927 11.9131 15.9568L11.9908 16.6625C11.1815 16.8179 10.424 16.8438 9.155 16.8438H8.63058V12.8167H11.5117V13.5095H9.48519ZM12.3598 12.2858H13.2144V18.2681H12.3598V12.2858ZM16.4187 13.5613V13.8915C16.4187 14.7979 16.8913 15.8532 17.869 16.3064L17.3963 16.9797C16.736 16.6754 16.2698 16.0798 16.0044 15.3741C15.7389 16.151 15.2598 16.8049 14.58 17.1286L14.1009 16.4488C15.0785 15.9956 15.5641 14.8756 15.5641 13.8915V13.5613H14.3275V12.8556H17.6035V13.5613H16.4187ZM19.766 14.5583V15.264H18.8984V18.2487H18.0438V12.2858H18.8984V14.5583H19.766ZM25.1392 12.2923V16.5718H24.2781V12.2923H25.1392ZM21.1056 14.1828C21.1056 14.6619 21.4553 14.9532 21.8955 14.9532C22.3422 14.9532 22.6789 14.6619 22.6789 14.1828C22.6789 13.6907 22.3422 13.4059 21.8955 13.4059C21.4553 13.4059 21.1056 13.6907 21.1056 14.1828ZM23.5141 14.1828C23.5141 15.0504 22.8084 15.6913 21.8955 15.6913C20.9826 15.6913 20.2704 15.0504 20.2704 14.1828C20.2704 13.3023 20.9826 12.6678 21.8955 12.6678C22.8084 12.6678 23.5141 13.3023 23.5141 14.1828ZM22.025 17.4653H25.2881V18.1451H21.1704V16.151H22.025V17.4653ZM30.9045 15.2705V13.4836H29.6873V15.2705H30.9045ZM28.8391 15.2705V13.4836H28.0299V12.8038H32.5619V13.4836H31.7526V15.2705H32.5425V15.9503H28.0622V15.2705H28.8391ZM27.609 16.8632H33.0086V17.5559H27.609V16.8632ZM36.6856 16.8955H38.9645V17.5948H33.5649V16.8955H35.8309V16.0086H34.1865V13.9886H37.5143V13.3476H34.18V12.6678H38.3559V14.6554H35.0346V15.3223H38.4919V16.0086H36.6856V16.8955ZM41.4243 12.8038V13.7749C41.4243 14.7396 41.6832 15.7302 42.4925 16.2675L42.0264 16.9279C41.5214 16.6172 41.2041 16.1122 41.0164 15.51C40.8092 16.1704 40.4596 16.7402 39.9222 17.0639L39.4107 16.4229C40.2848 15.892 40.602 14.8238 40.602 13.8073V12.8038H41.4243ZM42.6155 14.2993V12.3829H43.4119V17.9832H42.6155V14.9921H41.8645V14.2993H42.6155ZM43.8263 12.2858H44.6355V18.2487H43.8263V12.2858ZM50.6886 15.0892L50.326 15.8079C49.2901 15.6007 48.5261 15.0245 48.1441 14.267C47.7621 15.0245 47.0047 15.6072 45.9688 15.8079L45.6062 15.0892C46.9464 14.8626 47.6909 13.9173 47.6909 13.0627V12.6354H48.6038V13.0627C48.6038 13.9368 49.3419 14.8626 50.6886 15.0892ZM45.4767 16.8308H50.8763V17.5236H45.4767V16.8308ZM55.3302 13.257V12.9656H52.093V12.3894H56.1718V13.7943H52.9476V14.1051H56.2754V14.6813H52.1059V13.257H55.3302ZM52.8958 17.297V17.6207H56.3531V18.1969H52.0477V16.7596H55.3431V16.4553H52.0412V15.8791H56.1912V17.297H52.8958ZM51.4326 14.9662H56.8322V15.5813H51.4326V14.9662ZM62.986 15.3158V13.8397H61.8983V13.1599H62.986V12.2858H63.8406V15.3158H62.986ZM62.4162 14.5907L61.9824 15.2446C61.3544 15.0439 60.9142 14.649 60.6617 14.1504C60.3962 14.7072 59.9301 15.1475 59.2503 15.3611L58.81 14.6943C59.8006 14.3965 60.215 13.6648 60.215 12.9074V12.48H61.076V12.9074C61.076 13.6131 61.4839 14.3058 62.4162 14.5907ZM60.7588 17.5171H64.0089V18.1775H59.9171V16.5524H62.9989V16.2222H59.9107V15.5683H63.8406V17.1675H60.7588V17.5171ZM67.0319 14.7849V13.3929H65.8989V14.7849H67.0319ZM68.9419 13.8267H67.8671V14.3382H68.9419V13.8267ZM67.8671 15.018V15.4582H65.0573V12.7131H67.8671V13.1469H68.9419V12.2858H69.7965V15.782H68.9419V15.018H67.8671ZM67.7765 17.5948C68.5599 17.5948 68.9678 17.4329 68.9678 17.0898C68.9678 16.7466 68.5599 16.5848 67.7765 16.5848C66.9996 16.5848 66.5917 16.7466 66.5917 17.0898C66.5917 17.4329 66.9996 17.5948 67.7765 17.5948ZM67.7765 15.9309C69.0455 15.9309 69.8224 16.3582 69.8224 17.0898C69.8224 17.8214 69.0455 18.2487 67.7765 18.2487C66.514 18.2487 65.7371 17.8214 65.7371 17.0898C65.7371 16.3582 66.514 15.9309 67.7765 15.9309ZM72.198 16.2546C72.5217 16.2546 72.7548 15.9956 72.7548 15.5489C72.7548 15.1022 72.5217 14.8367 72.198 14.8367C71.8742 14.8367 71.6412 15.1022 71.6412 15.5489C71.6412 15.9956 71.8742 16.2546 72.198 16.2546ZM72.198 14.1245C72.9619 14.1245 73.5058 14.7137 73.5058 15.5489C73.5058 16.3776 72.9619 16.9668 72.198 16.9668C71.434 16.9668 70.8901 16.3776 70.8901 15.5489C70.8901 14.7137 71.434 14.1245 72.198 14.1245ZM72.6188 12.4477V13.1857H73.6094V13.8656H70.7607V13.1857H71.7771V12.4477H72.6188ZM75.0726 12.2793H75.8819V18.2422H75.0726V15.4H74.6194V17.9962H73.823V12.3959H74.6194V14.7137H75.0726V12.2793ZM78.7596 15.2381L78.4488 14.5713C79.666 14.4223 80.3005 13.8397 80.3847 13.2699H78.669V12.5901H83.0909V13.2699H81.4011C81.4853 13.8397 82.1133 14.4223 83.324 14.5713L83.0197 15.2381C81.9774 15.0957 81.2458 14.649 80.8897 14.0404C80.5336 14.649 79.802 15.0957 78.7596 15.2381ZM83.583 15.5813V16.2611H81.2976V18.2616H80.4429V16.2611H78.1963V15.5813H83.583ZM86.0492 12.8038V13.7749C86.0492 14.7396 86.3082 15.7302 87.1175 16.2675L86.6513 16.9279C86.1463 16.6172 85.8291 16.1122 85.6413 15.51C85.4342 16.1704 85.0845 16.7402 84.5472 17.0639L84.0357 16.4229C84.9097 15.892 85.227 14.8238 85.227 13.8073V12.8038H86.0492ZM87.2405 14.2993V12.3829H88.0369V17.9832H87.2405V14.9921H86.4895V14.2993H87.2405ZM88.4512 12.2858H89.2605V18.2487H88.4512V12.2858ZM92.1411 15.7237V16.8632H93.4554V15.7237C93.2482 15.7625 93.0281 15.782 92.795 15.782C92.5619 15.782 92.3483 15.7625 92.1411 15.7237ZM92.795 13.2505C91.9663 13.2505 91.416 13.5872 91.416 14.1828C91.416 14.772 91.9663 15.1151 92.795 15.1151C93.6237 15.1151 94.1805 14.772 94.1805 14.1828C94.1805 13.5872 93.6237 13.2505 92.795 13.2505ZM94.3035 16.8632H95.5013V17.5559H90.1017V16.8632H91.2929V15.4064C90.8397 15.1281 90.5678 14.7007 90.5743 14.1828C90.5743 13.2052 91.5131 12.5772 92.795 12.5772C94.0834 12.5772 95.0222 13.2052 95.0222 14.1828C95.0222 14.7007 94.7502 15.1281 94.3035 15.4064V16.8632ZM96.828 17.7825C96.4913 17.7825 96.2388 17.5106 96.2388 17.161C96.2388 16.8049 96.4913 16.5395 96.828 16.5395C97.1711 16.5395 97.4236 16.8049 97.4236 17.161C97.4236 17.5106 97.1711 17.7825 96.828 17.7825ZM102.925 15.2705V13.4836H101.708V15.2705H102.925ZM100.86 15.2705V13.4836H100.051V12.8038H104.583V13.4836H103.773V15.2705H104.563V15.9503H100.083V15.2705H100.86ZM99.6298 16.8632H105.029V17.5559H99.6298V16.8632ZM108.706 16.8955H110.985V17.5948H105.586V16.8955H107.852V16.0086H106.207V13.9886H109.535V13.3476H106.201V12.6678H110.377V14.6554H107.055V15.3223H110.513V16.0086H108.706V16.8955ZM114.008 13.7555H114.643V12.3959H115.439V15.892H114.643V14.4482H114.008V13.7555ZM114.474 15.1086L114.054 15.769C113.549 15.5748 113.212 15.2316 113.011 14.8043C112.798 15.277 112.442 15.6589 111.898 15.8726L111.464 15.2187C112.273 14.9015 112.59 14.2216 112.59 13.5548V13.3929H111.652V12.7131H114.287V13.3929H113.419V13.5548C113.419 14.1957 113.717 14.8108 114.474 15.1086ZM112.519 16.8179V16.1445H116.624V18.2552H115.769V16.8179H112.519ZM115.815 12.2858H116.624V15.9179H115.815V12.2858ZM122.321 15.3611V16.0345H118.132V12.7196H122.276V13.4059H119V14.0339H122.14V14.6943H119V15.3611H122.321ZM117.498 16.8697H122.897V17.5624H117.498V16.8697ZM125.37 12.6807C126.302 12.6807 127.014 13.2958 127.014 14.1504C127.014 15.0115 126.302 15.6201 125.37 15.6201C124.438 15.6201 123.732 15.0115 123.732 14.1504C123.732 13.2958 124.438 12.6807 125.37 12.6807ZM125.37 13.4124C124.91 13.4124 124.561 13.6843 124.561 14.1504C124.561 14.6166 124.91 14.8885 125.37 14.8885C125.829 14.8885 126.179 14.6166 126.179 14.1504C126.179 13.6843 125.829 13.4124 125.37 13.4124ZM127.571 12.2793H128.426V18.2616H127.571V12.2793ZM123.589 17.0509L123.479 16.3582C124.528 16.3582 125.991 16.3517 127.247 16.1639L127.299 16.779C126.017 17.038 124.619 17.0509 123.589 17.0509ZM133.187 12.7455V13.6131C133.187 14.7202 133.66 15.8079 134.67 16.2416L134.185 16.9344C133.498 16.6236 133.039 16.0345 132.773 15.3029C132.508 16.0992 132.022 16.7402 131.31 17.0768L130.798 16.3711C131.841 15.9244 132.333 14.772 132.333 13.6131V12.7455H133.187ZM134.961 12.2793H135.816V18.2616H134.961V12.2793ZM140.393 15.0115L139.959 15.6719C139.312 15.4647 138.865 15.0439 138.606 14.5195C138.341 15.0957 137.874 15.5554 137.188 15.782L136.741 15.1151C137.713 14.7979 138.133 14.0533 138.153 13.3152H136.968V12.6354H140.192V13.3152H139.027C139.046 14.0015 139.454 14.7072 140.393 15.0115ZM137.544 16.8243V16.1445H141.526V18.2552H140.671V16.8243H137.544ZM142.316 13.7231V14.4288H141.526V15.8791H140.671V12.2858H141.526V13.7231H142.316ZM146.705 14.4741V13.8591H144.251V14.4741H146.705ZM147.547 12.5124V15.1539H143.403V12.5124H144.251V13.1922H146.705V12.5124H147.547ZM148.188 15.7172V16.397H145.896V18.2552H145.041V16.397H142.788V15.7172H148.188ZM149.864 15.1086V16.2222C150.667 16.2157 151.321 16.1834 152.052 16.0668L152.13 16.7531C151.269 16.8891 150.505 16.9085 149.501 16.9085H149.016V12.7843H151.774V13.4706H149.864V14.4418H151.573V15.1086H149.864ZM152.894 12.2793H153.749V18.2616H152.894V15.0698H151.871V14.3835H152.894V12.2793ZM157.682 17.161V17.543H160.977V18.1775H156.82V15.5618H160.932V16.1898H157.682V16.5524H160.789V17.161H157.682ZM160.783 14.4741H161.56V15.1539H156.167V14.4741H157.571C157.746 13.9238 157.792 13.4965 157.805 13.1599H156.672V12.4865H158.64V12.8102C158.64 13.1922 158.64 13.7425 158.433 14.4741H159.928C160.077 13.9303 160.109 13.5159 160.116 13.1599H158.983V12.4865H160.945V12.8944C160.945 13.3152 160.945 13.8267 160.783 14.4741ZM162.265 12.8944H163.877C163.877 14.5389 163.728 15.8208 162.666 16.9991L161.999 16.5136C162.789 15.6395 163.022 14.7784 163.068 13.5807H162.265V12.8944ZM164.084 12.8944H165.522C165.522 14.6166 165.386 16.0863 164.343 17.3747L163.67 16.902C164.46 15.905 164.673 14.9079 164.719 13.5807H164.084V12.8944ZM167.632 14.6166V15.3223H166.862V18.2422H166.001V12.2793H166.862V14.6166H167.632ZM170.383 13.5613V13.8915C170.383 14.8626 170.862 15.892 171.859 16.3064L171.393 16.9797C170.7 16.6819 170.228 16.0992 169.962 15.3806C169.697 16.1575 169.218 16.8114 168.519 17.1286L168.033 16.4488C169.03 16.0021 169.516 14.9079 169.516 13.8915V13.5613H168.273V12.8556H171.613V13.5613H170.383ZM172.164 12.2858H173.018V18.2487H172.164V12.2858ZM177.133 16.1834C177.573 16.1834 177.864 15.7107 177.864 14.8238C177.864 13.9432 177.573 13.4706 177.133 13.4706C176.699 13.4706 176.408 13.9432 176.408 14.8238C176.408 15.7107 176.699 16.1834 177.133 16.1834ZM179.651 12.2793H180.506V18.2616H179.651V15.1216H178.661C178.57 16.2611 177.961 16.9603 177.133 16.9603C176.246 16.9603 175.592 16.1381 175.592 14.8238C175.592 13.5159 176.246 12.7002 177.133 12.7002C177.935 12.7002 178.538 13.3541 178.654 14.4288H179.651V12.2793ZM184.869 13.8591H185.652V12.2858H186.507V16.6042H185.652V14.5389H184.869V13.8591ZM185.18 14.9856L185.251 15.6589C184.837 15.7625 184.5 15.769 183.71 15.769H183.386V12.739H185.044V13.4188H184.228V15.0827C184.642 15.0698 184.895 15.0504 185.18 14.9856ZM183.14 14.9921L183.205 15.6719C182.745 15.769 182.37 15.769 181.845 15.769H181.541V12.739H183.108V13.4188H182.383V15.0763C182.635 15.0633 182.875 15.0374 183.14 14.9921ZM183.224 17.4653H186.649V18.1451H182.37V16.2416H183.224V17.4653ZM192.253 14.759L192.337 15.4323C191.605 15.5942 190.926 15.6266 189.605 15.6266H189.106V12.7584H191.774V13.4382H189.954V14.9403C191.016 14.9338 191.605 14.895 192.253 14.759ZM190.582 16.1445V17.4653H193.787V18.1451H189.728V16.1445H190.582ZM193.574 13.9109H194.364V14.6101H193.574V16.5977H192.719V12.2858H193.574V13.9109ZM197.93 13.8591V12.4153H198.727V17.9897H197.93V16.0345H197.102V15.3482H197.93V14.5389H197.212C196.946 15.523 196.351 16.3517 195.237 17.0121L194.751 16.4164C195.93 15.6978 196.448 14.8367 196.558 13.6713H195.088V12.9915H197.406C197.406 13.2958 197.387 13.5807 197.354 13.8591H197.93ZM199.154 12.2793H199.963V18.2487H199.154V12.2793ZM205.55 13.6066V14.2799H201.465V12.4024H205.505V13.0822H202.313V13.6066H205.55ZM202.261 17.1869V17.543H205.68V18.1969H201.413V16.5848H204.683V16.2481H201.407V15.6072H205.524V17.1869H202.261ZM200.798 14.5972H206.191V15.2705H200.798V14.5972ZM209.441 12.998C208.58 12.998 208.172 13.121 208.172 13.3865C208.172 13.6648 208.58 13.7814 209.441 13.7814C210.308 13.7814 210.716 13.6648 210.716 13.3865C210.716 13.121 210.308 12.998 209.441 12.998ZM209.441 14.4029C208.081 14.4029 207.285 14.0468 207.285 13.3865C207.285 12.7325 208.081 12.37 209.441 12.37C210.807 12.37 211.603 12.7325 211.603 13.3865C211.603 14.0468 210.807 14.4029 209.441 14.4029ZM208.217 17.2257V17.5624H211.636V18.2034H207.369V16.6366H210.639V16.3193H207.362V15.6913H211.48V17.2257H208.217ZM206.747 14.6878H212.134V15.3547H206.747V14.6878ZM214.384 12.9009H217.187C217.187 14.7007 216.611 16.1898 214.552 17.2193L214.099 16.5589C215.588 15.8079 216.203 14.882 216.32 13.5807H214.384V12.9009ZM218.301 12.2858H219.155V18.2487H218.301V15.264H217.148V14.5713H218.301V12.2858ZM222.45 13.9368V14.144C222.45 15.005 222.923 15.9762 223.901 16.397L223.447 17.0509C222.774 16.7725 222.301 16.2028 222.036 15.523C221.771 16.2416 221.291 16.8502 220.612 17.1545L220.152 16.5006C221.13 16.0604 221.596 15.0504 221.596 14.144V13.9368H220.353V13.257H221.596V12.4282H222.45V13.257H223.668V13.9368H222.45ZM224.218 12.2858H225.072V18.2487H224.218V12.2858ZM227.118 12.8491V16.0733C227.869 16.0539 228.678 15.9891 229.513 15.8273L229.598 16.5265C228.607 16.7337 227.649 16.7855 226.781 16.7855H226.263V12.8491H227.118ZM231.585 14.5324V15.2381H230.75V18.2357H229.895V12.2793H230.75V14.5324H231.585ZM234.077 15.7237V16.8632H235.392V15.7237C235.184 15.7625 234.964 15.782 234.731 15.782C234.498 15.782 234.284 15.7625 234.077 15.7237ZM234.731 13.2505C233.902 13.2505 233.352 13.5872 233.352 14.1828C233.352 14.772 233.902 15.1151 234.731 15.1151C235.56 15.1151 236.117 14.772 236.117 14.1828C236.117 13.5872 235.56 13.2505 234.731 13.2505ZM236.24 16.8632H237.437V17.5559H232.038V16.8632H233.229V15.4064C232.776 15.1281 232.504 14.7007 232.51 14.1828C232.51 13.2052 233.449 12.5772 234.731 12.5772C236.02 12.5772 236.958 13.2052 236.958 14.1828C236.958 14.7007 236.686 15.1281 236.24 15.4064V16.8632ZM238.861 16.0604C238.706 15.018 239.807 14.5972 239.807 13.9821C239.807 13.6584 239.593 13.4512 239.256 13.4512C238.971 13.4512 238.745 13.6001 238.538 13.8138L238.013 13.3347C238.35 12.9527 238.81 12.6872 239.373 12.6872C240.15 12.6872 240.719 13.0886 240.719 13.9173C240.719 14.8367 239.593 15.1475 239.69 16.0604H238.861ZM239.276 17.7825C238.939 17.7825 238.686 17.5106 238.686 17.161C238.686 16.8049 238.939 16.5395 239.276 16.5395C239.619 16.5395 239.871 16.8049 239.871 17.161C239.871 17.5106 239.619 17.7825 239.276 17.7825Z" fill="#757575"/>
<path d="M297.842 16.2755L299.969 13.0383L302.096 16.2755" stroke="#757575" stroke-width="0.539529" stroke-linecap="round"/>
</svg>
