<svg width="352" height="80" viewBox="0 0 352 80" fill="none" xmlns="http://www.w3.org/2000/svg">
<g filter="url(#filter0_d_740_2759)">
<rect x="7.43462" y="7.64214" width="333.354" height="61.2815" fill="#FEFEFE" stroke="#509BF8" stroke-width="0.869241"/>
<path d="M15.7759 24.2306V27.0836C16.8905 27.077 17.6071 27.0438 18.4099 26.8912L18.4829 27.4618C17.6137 27.6211 16.8375 27.6542 15.5967 27.6542H15.0991V23.6666H17.9521V24.2306H15.7759ZM18.9673 23.1093H19.6573V29.1205H18.9673V23.1093ZM22.9278 24.277V24.8543C22.9278 25.7832 23.5183 26.8448 24.4273 27.276L24.0491 27.8135C23.379 27.495 22.8681 26.8315 22.5961 26.0751C22.3307 26.9111 21.7999 27.6277 21.1098 27.9661L20.7184 27.422C21.634 26.9841 22.2444 25.8495 22.2444 24.8543V24.277H20.9373V23.7131H24.1951V24.277H22.9278ZM26.4045 25.478V26.0419H25.469V29.1073H24.7856V23.1159H25.469V25.478H26.4045ZM31.8712 23.1159V27.4685H31.1878V23.1159H31.8712ZM27.7177 25.0135C27.7177 25.5576 28.1092 25.9225 28.64 25.9225C29.1641 25.9225 29.5622 25.5576 29.5622 25.0135C29.5622 24.4628 29.1641 24.1045 28.64 24.1045C28.1092 24.1045 27.7177 24.4628 27.7177 25.0135ZM30.2257 25.0135C30.2257 25.8827 29.5423 26.513 28.64 26.513C27.7376 26.513 27.0476 25.8827 27.0476 25.0135C27.0476 24.1377 27.7376 23.514 28.64 23.514C29.5423 23.514 30.2257 24.1377 30.2257 25.0135ZM28.6466 28.4372H32.0437V28.9945H27.9566V27.0305H28.6466V28.4372ZM37.9191 26.1879V24.2306H36.5391V26.1879H37.9191ZM35.8557 26.1879V24.2306H34.9732V23.6799H39.4783V24.2306H38.5959V26.1879H39.4651V26.7452H34.9931V26.1879H35.8557ZM34.522 27.8068H39.9627V28.3708H34.522V27.8068ZM43.6777 27.84H46.0597V28.404H40.6323V27.84H42.9943V26.8182H41.2892V24.8875H44.7393V24.0846H41.2759V23.5339H45.4161V25.4315H41.9593V26.2675H45.5488V26.8182H43.6777V27.84ZM48.5738 23.6666V24.715C48.5738 25.6837 48.9387 26.6988 49.7415 27.2031L49.3567 27.7338C48.8127 27.4021 48.4544 26.8182 48.2487 26.1481C48.0364 26.8846 47.6449 27.5149 47.0677 27.8665L46.6497 27.349C47.4989 26.8448 47.9103 25.7699 47.9103 24.7481V23.6666H48.5738ZM49.9804 25.2126V23.2287H50.624V28.8286H49.9804V25.7699H49.098V25.2126H49.9804ZM51.2012 23.1159H51.8515V29.1073H51.2012V23.1159ZM58.0347 26.0419L57.7361 26.6059C56.7608 26.4069 55.9182 25.7832 55.5267 24.9604C55.1352 25.7832 54.2926 26.4069 53.3173 26.6059L53.0253 26.0419C54.2063 25.823 55.1684 24.9007 55.1684 23.9519V23.5008H55.8916V23.9519C55.8916 24.9074 56.8537 25.8296 58.0347 26.0419ZM52.8395 27.7737H58.2669V28.3376H52.8395V27.7737ZM63.7535 24.8344V25.3917H59.6398V23.3283H60.3232V24.8344H63.7535ZM60.2834 27.2097V28.4239H63.7867V28.9746H59.6V27.2097H60.2834ZM58.9365 26.1083H64.3772V26.659H58.9365V26.1083ZM68.3351 24.7349V24.9472C68.3351 25.8827 68.7399 26.8381 69.5626 27.2827L69.1844 27.7936C68.6204 27.4884 68.2356 26.9377 68.0166 26.2874C67.8043 26.9907 67.4261 27.5945 66.8555 27.9263L66.4641 27.4087C67.2868 26.9244 67.6849 25.9026 67.6849 24.9472V24.7349H66.6499V24.1709H67.6849V23.3216H68.3351V24.1709H69.3635V24.7349H68.3351ZM69.7882 25.4382V23.2354H70.4318V28.8153H69.7882V25.9955H68.9787V25.4382H69.7882ZM70.9957 23.1159H71.646V29.1073H70.9957V23.1159ZM75.8984 24.7349V23.2619H76.5354V28.8153H75.8984V26.7983H74.9165V26.241H75.8984V25.2922H75.0226C74.744 26.3007 74.1136 27.1699 72.9923 27.84L72.6009 27.3557C73.835 26.6059 74.4321 25.6306 74.5316 24.4031H72.8928V23.8524H75.2084C75.2084 24.1576 75.1885 24.4562 75.1421 24.7349H75.8984ZM77.106 23.1159H77.7629V29.1073H77.106V23.1159ZM82.3073 25.9557L81.9689 26.4865C81.3054 26.2543 80.8277 25.7832 80.5689 25.2059C80.3035 25.8495 79.7993 26.3671 79.0893 26.6125L78.7377 26.0751C79.6666 25.7566 80.2106 24.9671 80.2106 24.1576V24.0382H78.9434V23.4875H82.148V24.0382H80.9007V24.151C80.9007 24.8941 81.4115 25.6438 82.3073 25.9557ZM79.6666 27.5414V26.9907H83.7072V29.1073H83.0238V27.5414H79.6666ZM83.0238 23.1093H83.7072V26.6922H83.0238V25.1794H81.9755V24.6154H83.0238V23.1093ZM89.0877 23.1093H89.7777V29.1205H89.0877V23.1093ZM86.5863 23.5538C87.482 23.5538 88.1322 24.3766 88.1322 25.6637C88.1322 26.9642 87.482 27.7803 86.5863 27.7803C85.6972 27.7803 85.047 26.9642 85.047 25.6637C85.047 24.3766 85.6972 23.5538 86.5863 23.5538ZM86.5863 24.1709C86.0688 24.1709 85.7038 24.7349 85.7038 25.6637C85.7038 26.6059 86.0688 27.1699 86.5863 27.1699C87.1104 27.1699 87.4754 26.6059 87.4754 25.6637C87.4754 24.7349 87.1104 24.1709 86.5863 24.1709ZM95.0917 24.2638V24.2306H91.5155V23.6733H95.7818V24.2638C95.7818 25.0069 95.7818 25.8363 95.5496 27.077L94.8595 27.004C95.0917 25.8296 95.0917 24.9803 95.0917 24.2638ZM93.6586 27.7604H96.3657V28.3244H90.9515V27.7604H92.9686V25.6505H93.6586V27.7604ZM101.976 25.6704L102.042 26.2211C101.266 26.387 100.562 26.4268 99.2753 26.4268H98.7909V23.6069H101.458V24.1643H99.4743V25.8628C100.609 25.8562 101.252 25.823 101.976 25.6704ZM100.118 27.0106V28.4372H103.462V28.9945H99.4279V27.0106H100.118ZM103.223 24.8277H104.072V25.3917H103.223V27.4485H102.54V23.1093H103.223V24.8277ZM107.907 24.7349V23.2619H108.544V28.8153H107.907V26.7983H106.925V26.241H107.907V25.2922H107.031C106.752 26.3007 106.122 27.1699 105.001 27.84L104.609 27.3557C105.843 26.6059 106.44 25.6306 106.54 24.4031H104.901V23.8524H107.217C107.217 24.1576 107.197 24.4562 107.15 24.7349H107.907ZM109.114 23.1159H109.771V29.1073H109.114V23.1159ZM114.316 25.9557L113.977 26.4865C113.314 26.2543 112.836 25.7832 112.577 25.2059C112.312 25.8495 111.808 26.3671 111.098 26.6125L110.746 26.0751C111.675 25.7566 112.219 24.9671 112.219 24.1576V24.0382H110.952V23.4875H114.156V24.0382H112.909V24.151C112.909 24.8941 113.42 25.6438 114.316 25.9557ZM111.675 27.5414V26.9907H115.716V29.1073H115.032V27.5414H111.675ZM115.032 23.1093H115.716V26.6922H115.032V25.1794H113.984V24.6154H115.032V23.1093ZM119.563 23.4543C120.811 23.4543 121.766 24.1311 121.766 25.1462C121.766 26.168 120.811 26.8381 119.563 26.8381C118.309 26.8381 117.361 26.168 117.361 25.1462C117.361 24.1311 118.309 23.4543 119.563 23.4543ZM119.563 24.0183C118.674 24.0183 118.024 24.4562 118.024 25.1462C118.024 25.8363 118.674 26.2742 119.563 26.2742C120.446 26.2742 121.103 25.8363 121.103 25.1462C121.103 24.4562 120.446 24.0183 119.563 24.0183ZM116.856 27.7869H122.284V28.3509H116.856V27.7869ZM126.005 27.84H128.387V28.404H122.96V27.84H125.322V26.8182H123.617V24.8875H127.067V24.0846H123.604V23.5339H127.744V25.4315H124.287V26.2675H127.876V26.8182H126.005V27.84ZM135.49 23.1226V27.4817H134.807V23.1226H135.49ZM134.249 26.1415L133.904 26.6789C133.214 26.4533 132.71 25.9889 132.445 25.3984C132.179 26.0353 131.675 26.5462 130.959 26.7851L130.6 26.2543C131.549 25.9358 132.086 25.1595 132.086 24.35V24.1311H130.786V23.5804H134.064V24.1311H132.783V24.35C132.783 25.113 133.327 25.8429 134.249 26.1415ZM132.266 28.4372H135.663V28.9945H131.576V27.0836H132.266V28.4372ZM140.453 25.2391V26.6855H139.816V23.2287H140.453V24.6751H141.076V23.1093H141.727V26.8912H141.076V25.2391H140.453ZM139.61 23.7861V24.3235H136.624V23.7861H137.785V23.169H138.456V23.7861H139.61ZM137.454 25.6173C137.454 25.9424 137.719 26.1547 138.124 26.1547C138.528 26.1547 138.801 25.9424 138.801 25.6173C138.801 25.2922 138.528 25.0799 138.124 25.0799C137.719 25.0799 137.454 25.2922 137.454 25.6173ZM139.411 25.6173C139.411 26.241 138.88 26.6524 138.124 26.6524C137.374 26.6524 136.843 26.241 136.843 25.6173C136.843 25.0003 137.374 24.5823 138.124 24.5823C138.88 24.5823 139.411 25.0003 139.411 25.6173ZM139.736 28.5898C140.599 28.5898 141.076 28.3973 141.076 28.0391C141.076 27.6808 140.599 27.495 139.736 27.495C138.88 27.495 138.389 27.6808 138.389 28.0391C138.389 28.3973 138.88 28.5898 139.736 28.5898ZM139.736 26.9775C140.997 26.9775 141.76 27.3623 141.76 28.0391C141.76 28.7158 140.997 29.1073 139.736 29.1073C138.469 29.1073 137.706 28.7158 137.706 28.0391C137.706 27.3623 138.469 26.9775 139.736 26.9775ZM146.589 25.7367L146.636 26.2144C145.349 26.4467 143.922 26.4666 142.867 26.4666L142.774 25.9291C143.259 25.9291 143.816 25.9291 144.4 25.9092V25.3386H143.298V23.4012H146.145V23.9586H143.982V24.7879H146.191V25.3386H145.083V25.8761C145.594 25.8562 146.105 25.8097 146.589 25.7367ZM147.034 28.4902V27.9064H144.407V28.4902H147.034ZM147.034 27.3822V26.8381H147.711V29.0343H143.73V26.8381H144.407V27.3822H147.034ZM147.021 23.1159H147.711V26.5794H147.021V23.1159ZM149.893 23.6998V27.0106C150.742 27.004 151.638 26.931 152.58 26.7386L152.653 27.3092C151.625 27.5215 150.656 27.5945 149.727 27.5945H149.216V23.6998H149.893ZM153.131 23.1159H153.814V29.1073H153.131V23.1159ZM155.891 24.2372V27.0704C156.859 27.0637 157.589 27.0239 158.425 26.8779L158.498 27.4419C157.589 27.6078 156.78 27.641 155.698 27.641H155.207V23.6799H157.994V24.2372H155.891ZM160.542 25.4183V25.9822H159.606V29.1139H158.923V23.1093H159.606V25.4183H160.542ZM161.722 28.6826C161.437 28.6826 161.211 28.4637 161.211 28.1518C161.211 27.8334 161.437 27.6078 161.722 27.6078C162.007 27.6078 162.233 27.8334 162.233 28.1518C162.233 28.4637 162.007 28.6826 161.722 28.6826ZM166.907 25.9092V24.1576H165.467V25.9092H166.907ZM167.571 25.2922V26.4533H164.797V23.6136H167.571V24.7349H168.818V23.1159H169.501V27.4884H168.818V25.2922H167.571ZM166.303 28.4372H169.654V28.9945H165.62V27.0836H166.303V28.4372ZM172.792 24.2704V24.7548C172.792 25.7699 173.389 26.8713 174.318 27.3026L173.92 27.84C173.236 27.5083 172.725 26.8315 172.46 26.0287C172.195 26.8779 171.677 27.6078 170.98 27.9661L170.576 27.422C171.498 26.9775 172.102 25.8363 172.102 24.7548V24.2704H170.808V23.7131H174.092V24.2704H172.792ZM174.928 23.1093H175.612V29.1139H174.928V25.8164H173.747V25.2524H174.928V23.1093ZM180.187 26.513V27.8135H181.699V26.5064C181.467 26.5661 181.208 26.5926 180.943 26.5926C180.678 26.5926 180.419 26.5661 180.187 26.513ZM180.943 23.9984C180.034 23.9984 179.404 24.3965 179.404 25.0268C179.404 25.6637 180.034 26.0618 180.943 26.0618C181.845 26.0618 182.476 25.6637 182.476 25.0268C182.476 24.3965 181.845 23.9984 180.943 23.9984ZM182.383 27.8135H183.663V28.3708H178.236V27.8135H179.503V26.2543C179.025 25.9889 178.74 25.5576 178.74 25.0268C178.74 24.0714 179.662 23.4609 180.943 23.4609C182.217 23.4609 183.146 24.0714 183.146 25.0268C183.146 25.5576 182.86 25.9822 182.383 26.2543V27.8135ZM189.76 26.0419V26.6059H187.372V29.1073H186.682V26.6059H184.34V26.0419H188.234C188.407 25.2059 188.407 24.5823 188.407 24.0316H184.99V23.4809H189.077V24.005C189.077 24.569 189.077 25.1927 188.924 26.0419H189.76ZM192.54 23.6136V24.5955C192.54 25.6637 193.097 26.7452 194 27.1898L193.582 27.7338C192.938 27.4021 192.46 26.7519 192.201 25.969C191.943 26.7983 191.438 27.495 190.755 27.8466L190.337 27.2959C191.273 26.8381 191.856 25.7036 191.856 24.5955V23.6136H192.54ZM196.017 25.4912V26.0552H195.081V29.1073H194.398V23.1159H195.081V25.4912H196.017ZM200.09 23.7463V24.2903H196.553V23.7463H197.98V23.0761H198.663V23.7463H200.09ZM197.522 25.6107C197.522 25.9491 197.841 26.168 198.318 26.168C198.796 26.168 199.121 25.9491 199.121 25.6107C199.121 25.259 198.796 25.0467 198.318 25.0467C197.841 25.0467 197.522 25.259 197.522 25.6107ZM199.771 25.6107C199.771 26.2543 199.188 26.6723 198.318 26.6723C197.456 26.6723 196.865 26.2543 196.865 25.6107C196.865 24.9604 197.456 24.5424 198.318 24.5424C199.188 24.5424 199.771 24.9604 199.771 25.6107ZM199.314 28.5831C200.136 28.5831 200.614 28.404 200.614 28.0523C200.614 27.7073 200.136 27.5282 199.314 27.5282C198.491 27.5282 198.013 27.7073 198.013 28.0523C198.013 28.404 198.491 28.5831 199.314 28.5831ZM199.314 27.004C200.534 27.004 201.291 27.3955 201.291 28.0523C201.291 28.7158 200.534 29.1073 199.314 29.1073C198.093 29.1073 197.336 28.7158 197.336 28.0523C197.336 27.3955 198.093 27.004 199.314 27.004ZM201.224 24.7216H202.074V25.2856H201.224V26.9443H200.541V23.1159H201.224V24.7216ZM205.357 23.7197C204.429 23.7197 203.931 23.8989 203.931 24.2439C203.931 24.5823 204.429 24.7614 205.357 24.7614C206.286 24.7614 206.784 24.5823 206.784 24.2439C206.784 23.8989 206.286 23.7197 205.357 23.7197ZM205.357 25.2723C204.011 25.2723 203.221 24.9074 203.221 24.2439C203.221 23.5737 204.011 23.2088 205.357 23.2088C206.698 23.2088 207.494 23.5737 207.494 24.2439C207.494 24.9074 206.698 25.2723 205.357 25.2723ZM203.977 28.0324V28.53H207.56V29.0542H203.301V27.5481H206.718V27.1168H203.287V26.5993H207.388V28.0324H203.977ZM202.644 25.6239H208.071V26.168H202.644V25.6239ZM214.285 25.1927V24.5225H211.618V25.1927H214.285ZM214.962 23.3083V25.7301H210.941V23.3083H211.618V23.9984H214.285V23.3083H214.962ZM211.585 27.3557V28.4372H215.068V28.9945H210.901V27.3557H211.585ZM210.238 26.2344H215.672V26.7851H213.349V27.8533H212.666V26.7851H210.238V26.2344ZM219.878 25.9092L219.513 26.44C218.869 26.2078 218.392 25.7434 218.139 25.1529C217.874 25.7964 217.383 26.3073 216.693 26.5661L216.335 26.022C217.277 25.6903 217.788 24.8941 217.788 24.0183V23.4211H218.478V24.0581C218.478 24.841 218.989 25.5974 219.878 25.9092ZM217.27 27.5215V26.9775H221.311V29.1139H220.627V27.5215H217.27ZM220.627 23.1093H221.311V26.6723H220.627V24.8676H219.413V24.3036H220.627V23.1093ZM224.197 27.2561C224.681 27.2561 225.033 26.9244 225.033 26.4201C225.033 25.9159 224.681 25.5841 224.197 25.5841C223.712 25.5841 223.361 25.9159 223.361 26.4201C223.361 26.9244 223.712 27.2561 224.197 27.2561ZM224.197 25.0202C225.052 25.0202 225.683 25.604 225.683 26.4201C225.683 27.2429 225.052 27.8201 224.197 27.8201C223.334 27.8201 222.71 27.2429 222.71 26.4201C222.71 25.604 223.334 25.0202 224.197 25.0202ZM224.528 23.2088V24.0382H225.928V24.5955H222.418V24.0382H223.845V23.2088H224.528ZM228.025 25.5244V26.095H227.103V29.1139H226.413V23.1159H227.103V25.5244H228.025ZM232.695 24.2638V24.2306H229.119V23.6733H233.385V24.2638C233.385 25.0069 233.385 25.8363 233.153 27.077L232.463 27.004C232.695 25.8296 232.695 24.9803 232.695 24.2638ZM231.262 27.7604H233.969V28.3244H228.555V27.7604H230.572V25.6505H231.262V27.7604ZM238.359 23.6136V24.5955C238.359 25.6969 238.969 26.7983 239.911 27.223L239.513 27.767C238.823 27.4419 238.299 26.7784 238.027 25.969C237.755 26.8381 237.224 27.5481 236.501 27.8997L236.096 27.3291C237.051 26.8978 237.675 25.75 237.675 24.5955V23.6136H238.359ZM240.389 23.1093H241.079V29.1205H240.389V23.1093ZM245.769 25.9358L245.437 26.4666C244.767 26.2543 244.29 25.823 244.031 25.2657C243.765 25.9026 243.261 26.4135 242.545 26.659L242.2 26.1216C243.142 25.7964 243.666 25.0268 243.666 24.2107V24.0913H242.392V23.5406H245.61V24.0913H244.356V24.2041C244.356 24.9472 244.854 25.6438 245.769 25.9358ZM245 28.5699C245.836 28.5699 246.32 28.3575 246.32 27.9727C246.32 27.5812 245.836 27.3756 245 27.3756C244.164 27.3756 243.679 27.5812 243.679 27.9727C243.679 28.3575 244.164 28.5699 245 28.5699ZM245 26.8381C246.234 26.8381 246.997 27.2561 246.997 27.9727C246.997 28.6826 246.234 29.1073 245 29.1073C243.765 29.1073 243.002 28.6826 243.002 27.9727C243.002 27.2561 243.765 26.8381 245 26.8381ZM246.93 24.5756H247.78V25.1396H246.93V26.6988H246.247V23.1159H246.93V24.5756ZM250.364 26.6457L250.079 26.1017C251.247 25.9159 252.195 25.0865 252.195 24.1842V24.1709H250.291V23.6202H254.816V24.1709H252.912V24.1842C252.912 25.0865 253.867 25.896 255.055 26.0817L254.776 26.6258C253.788 26.44 252.945 25.8827 252.554 25.1197C252.169 25.8893 251.333 26.4599 250.364 26.6457ZM252.905 27.8135H255.274V28.3708H249.847V27.8135H252.215V26.4135H252.905V27.8135ZM258.047 23.6136V24.5955C258.047 25.6637 258.604 26.7452 259.507 27.1898L259.089 27.7338C258.445 27.4021 257.967 26.7519 257.708 25.969C257.45 26.7983 256.945 27.495 256.262 27.8466L255.844 27.2959C256.78 26.8381 257.363 25.7036 257.363 24.5955V23.6136H258.047ZM261.524 25.4912V26.0552H260.588V29.1073H259.905V23.1159H260.588V25.4912H261.524ZM266.121 24.1377V23.733H262.731V23.2619H266.798V24.5823H263.414V25.0069H266.904V25.4846H262.744V24.1377H266.121ZM263.368 28.112V28.5699H266.997V29.0409H262.691V27.6675H266.141V27.2429H262.678V26.7718H266.818V28.112H263.368ZM262.047 25.8628H267.481V26.3671H262.047V25.8628ZM272.342 28.5964C273.251 28.5964 273.722 28.4504 273.722 28.1319C273.722 27.8267 273.251 27.6741 272.342 27.6741C271.439 27.6741 270.968 27.8267 270.968 28.1319C270.968 28.4504 271.439 28.5964 272.342 28.5964ZM272.342 27.1699C273.649 27.1699 274.405 27.5016 274.405 28.1319C274.405 28.7689 273.649 29.1073 272.342 29.1073C271.041 29.1073 270.278 28.7689 270.278 28.1319C270.278 27.5016 271.041 27.1699 272.342 27.1699ZM272.693 26.2476H275.055V26.7983H269.634V26.2476H272.003V25.7566H270.331V23.2818H274.412V23.806H271.015V24.2571H274.266V24.768H271.015V25.2325H274.451V25.7566H272.693V26.2476ZM277.211 27.1964C277.616 27.1964 277.901 26.8713 277.901 26.3737C277.901 25.8761 277.616 25.5443 277.211 25.5443C276.806 25.5443 276.521 25.8761 276.521 26.3737C276.521 26.8713 276.806 27.1964 277.211 27.1964ZM277.211 24.9803C277.967 24.9803 278.511 25.5443 278.511 26.3737C278.511 27.1964 277.967 27.767 277.211 27.767C276.455 27.767 275.911 27.1964 275.911 26.3737C275.911 25.5443 276.455 24.9803 277.211 24.9803ZM277.549 23.2884V24.0913H278.671V24.642H275.738V24.0913H276.873V23.2884H277.549ZM280.203 23.1159H280.854V29.1073H280.203V26.1614H279.566V28.8286H278.929V23.242H279.566V25.5974H280.203V23.1159ZM285.442 23.6136V24.5955C285.442 25.6637 285.999 26.7452 286.902 27.1898L286.484 27.7338C285.84 27.4021 285.362 26.7519 285.104 25.969C284.845 26.7983 284.34 27.495 283.657 27.8466L283.239 27.2959C284.175 26.8381 284.758 25.7036 284.758 24.5955V23.6136H285.442ZM288.919 25.4912V26.0552H287.983V29.1073H287.3V23.1159H287.983V25.4912H288.919ZM292.143 28.5831C293.018 28.5831 293.516 28.3973 293.516 28.0324C293.516 27.6741 293.018 27.4817 292.143 27.4817C291.267 27.4817 290.776 27.6741 290.776 28.0324C290.776 28.3973 291.267 28.5831 292.143 28.5831ZM292.143 26.9576C293.436 26.9576 294.206 27.349 294.206 28.0324C294.206 28.7225 293.436 29.1073 292.143 29.1073C290.855 29.1073 290.079 28.7225 290.079 28.0324C290.079 27.349 290.855 26.9576 292.143 26.9576ZM291.413 25.4183V26.0287H292.886V25.4183C292.667 25.4514 292.421 25.4713 292.156 25.4713C291.891 25.4713 291.632 25.4514 291.413 25.4183ZM292.156 23.7463C291.26 23.7463 290.723 23.9586 290.723 24.3434C290.723 24.7282 291.26 24.9472 292.156 24.9472C293.045 24.9472 293.582 24.7282 293.582 24.3434C293.582 23.9586 293.045 23.7463 292.156 23.7463ZM293.569 26.0287H294.863V26.5727H289.442V26.0287H290.729V25.2325C290.278 25.0401 290.019 24.7349 290.019 24.3434C290.019 23.6401 290.842 23.2155 292.156 23.2155C293.463 23.2155 294.292 23.6401 294.292 24.3434C294.292 24.7349 294.027 25.0401 293.569 25.2391V26.0287ZM297.649 24.277V24.8543C297.649 25.7832 298.24 26.8448 299.149 27.276L298.77 27.8135C298.1 27.495 297.589 26.8315 297.317 26.0751C297.052 26.9111 296.521 27.6277 295.831 27.9661L295.44 27.422C296.355 26.9841 296.966 25.8495 296.966 24.8543V24.277H295.659V23.7131H298.916V24.277H297.649ZM301.126 25.478V26.0419H300.19V29.1073H299.507V23.1159H300.19V25.478H301.126ZM304.254 24.3898V27.1035C304.453 27.0969 304.653 27.0903 304.858 27.077V24.3898H304.254ZM305.482 24.3898V27.0372C305.674 27.0173 305.867 26.9974 306.039 26.9708L306.086 27.4685C305.15 27.6542 303.916 27.6808 303.16 27.6808L303.08 27.1168C303.246 27.1168 303.432 27.1168 303.631 27.1168V24.3898H303.199V23.8391H305.926V24.3898H305.482ZM306.47 25.3519V23.2486H307.114V28.8087H306.47V25.9557H305.761V25.3519H306.47ZM307.645 23.1159H308.302V29.1073H307.645V23.1159ZM313.357 24.9007V24.1045H309.894V23.5472H314.034V25.4448H310.577V26.2808H314.166V26.8381H309.907V24.9007H313.357ZM309.25 27.8267H314.677V28.3907H309.25V27.8267ZM320.549 25.9491L320.263 26.5197C319.282 26.3272 318.432 25.7301 318.047 24.9339C317.649 25.7301 316.8 26.3272 315.825 26.5197L315.533 25.9491C316.72 25.75 317.683 24.8543 317.683 23.932V23.4809H318.406V23.932C318.406 24.8609 319.368 25.75 320.549 25.9491ZM318.379 27.8002H320.781V28.3642H315.354V27.8002H317.696V26.4002H318.379V27.8002ZM322.346 23.6998V27.0438C323.156 27.0372 324.018 26.9708 324.927 26.7851L325.007 27.349C323.992 27.5481 323.063 27.6144 322.161 27.6144H321.663V23.6998H322.346ZM327.004 25.4514V26.0154H326.095V29.1073H325.412V23.1159H326.095V25.4514H327.004ZM331.628 24.1377V23.733H328.238V23.2619H332.305V24.5823H328.921V25.0069H332.411V25.4846H328.251V24.1377H331.628ZM328.875 28.112V28.5699H332.504V29.0409H328.198V27.6675H331.648V27.2429H328.185V26.7718H332.325V28.112H328.875ZM327.554 25.8628H332.988V26.3671H327.554V25.8628ZM17.9455 35.6221H19.0071V34.1159H19.6905V37.6855H19.0071V36.1794H17.9455V35.6221ZM18.2905 36.9557L17.9521 37.4931C17.2886 37.2609 16.8109 36.7898 16.5588 36.2126C16.2934 36.8694 15.7891 37.4002 15.0792 37.6524L14.7275 37.1083C15.6564 36.7765 16.1939 35.9803 16.1939 35.1576V35.0714H14.9266V34.5207H18.1313V35.0714H16.8839V35.151C16.8839 35.9007 17.3948 36.6438 18.2905 36.9557ZM17.7 39.5831C18.5426 39.5831 19.0336 39.3708 19.0336 38.9793C19.0336 38.5879 18.5426 38.3756 17.7 38.3756C16.8441 38.3756 16.3597 38.5879 16.3597 38.9793C16.3597 39.3708 16.8441 39.5831 17.7 39.5831ZM17.7 37.8448C18.9474 37.8448 19.717 38.2694 19.717 38.9793C19.717 39.6959 18.9474 40.1139 17.7 40.1139C16.446 40.1139 15.6763 39.6959 15.6763 38.9793C15.6763 38.2694 16.446 37.8448 17.7 37.8448ZM22.7619 34.5339C23.6975 34.5339 24.3941 35.1244 24.3941 35.9737C24.3941 36.823 23.6975 37.4135 22.7619 37.4135C21.8264 37.4135 21.1364 36.823 21.1364 35.9737C21.1364 35.1244 21.8264 34.5339 22.7619 34.5339ZM22.7619 35.1178C22.2112 35.1178 21.8065 35.4496 21.8065 35.9737C21.8065 36.4912 22.2112 36.8296 22.7619 36.8296C23.3193 36.8296 23.724 36.4912 23.724 35.9737C23.724 35.4496 23.3193 35.1178 22.7619 35.1178ZM25.0709 34.1093H25.7609V40.1139H25.0709V34.1093ZM20.944 38.8466L20.8577 38.2827C21.9326 38.2827 23.4254 38.276 24.7126 38.0836L24.759 38.5812C23.4387 38.8334 22.0055 38.8466 20.944 38.8466ZM30.4778 34.6865V35.2372H26.9414V34.6865H28.3679V34.0629H29.0513V34.6865H30.4778ZM27.9101 36.5111C27.9101 36.8562 28.2286 37.0618 28.7063 37.0618C29.184 37.0618 29.5091 36.8562 29.5091 36.5111C29.5091 36.1728 29.184 35.9671 28.7063 35.9671C28.2286 35.9671 27.9101 36.1728 27.9101 36.5111ZM30.1594 36.5111C30.1594 37.1481 29.5755 37.5727 28.7063 37.5727C27.8438 37.5727 27.2533 37.1481 27.2533 36.5111C27.2533 35.8808 27.8438 35.4562 28.7063 35.4562C29.5755 35.4562 30.1594 35.8808 30.1594 36.5111ZM30.9357 39.4902V38.9395H28.4608V39.4902H30.9357ZM30.9357 38.4087V37.858H31.6124V40.0343H27.7841V37.858H28.4608V38.4087H30.9357ZM32.4617 35.6088V36.1728H31.6124V37.6125H30.929V34.1159H31.6124V35.6088H32.4617ZM34.0668 34.6998V38.0106C34.9161 38.004 35.8118 37.931 36.754 37.7386L36.827 38.3092C35.7985 38.5215 34.8298 38.5945 33.901 38.5945H33.3901V34.6998H34.0668ZM37.3047 34.1159H37.9881V40.1073H37.3047V34.1159ZM40.0643 35.2372V38.0704C41.033 38.0637 41.7628 38.0239 42.5988 37.8779L42.6718 38.4419C41.7628 38.6078 40.9534 38.641 39.8719 38.641H39.3809V34.6799H42.1676V35.2372H40.0643ZM44.7154 36.4183V36.9822H43.7799V40.1139H43.0965V34.1093H43.7799V36.4183H44.7154ZM45.8959 39.6826C45.6106 39.6826 45.385 39.4637 45.385 39.1518C45.385 38.8334 45.6106 38.6078 45.8959 38.6078C46.1812 38.6078 46.4068 38.8334 46.4068 39.1518C46.4068 39.4637 46.1812 39.6826 45.8959 39.6826ZM52.7528 35.3567V35.2638H49.2894V34.7131H53.4362V35.3567C53.4362 36.1595 53.4362 37.0021 53.2106 38.2694L52.5206 38.1964C52.7528 37.0154 52.7528 36.133 52.7528 35.3567ZM48.7121 38.7073H54.1329V39.2713H48.7121V38.7073ZM59.0953 38.5215V36.2059H58.0603V35.6287H59.0953V34.1159H59.7787V38.5215H59.0953ZM58.1664 37.0154L58.2261 37.5727C57.3968 37.7054 56.6868 37.732 55.5191 37.732H55.048V35.8277H57.0385V35.0714H55.0347V34.5207H57.7219V36.3519H55.7248V37.1746C56.7532 37.168 57.41 37.1415 58.1664 37.0154ZM56.5475 39.4372H59.9446V39.9945H55.8641V38.1898H56.5475V39.4372ZM63.3319 35.2372V38.0704C64.3006 38.0637 65.0305 38.0239 65.8665 37.8779L65.9394 38.4419C65.0305 38.6078 64.221 38.641 63.1395 38.641H62.6485V34.6799H65.4352V35.2372H63.3319ZM67.983 36.4183V36.9822H67.0475V40.1139H66.3641V34.1093H67.0475V36.4183H67.983ZM71.2203 34.242C72.5274 34.242 73.3568 34.6733 73.3568 35.3898C73.3568 36.0998 72.5274 36.5377 71.2203 36.5377C69.9133 36.5377 69.0839 36.0998 69.0839 35.3898C69.0839 34.6733 69.9133 34.242 71.2203 34.242ZM71.2203 34.7728C70.3313 34.7728 69.7872 34.9917 69.7872 35.3898C69.7872 35.7813 70.3313 36.0003 71.2203 36.0003C72.1094 36.0003 72.6469 35.7813 72.6469 35.3898C72.6469 34.9917 72.1094 34.7728 71.2203 34.7728ZM69.1569 38.0305H73.2705V40.0343H69.1569V38.0305ZM72.6004 38.5746H69.8336V39.4902H72.6004V38.5746ZM68.5067 36.9756H73.9274V37.5197H68.5067V36.9756ZM76.1072 38.7936H81.5346V39.3575H76.1072V38.7936ZM76.7176 34.5273H77.3944V35.5756H80.2341V34.5273H80.9109V37.6855H76.7176V34.5273ZM77.3944 36.1197V37.1348H80.2341V36.1197H77.3944ZM83.0534 36.9225V38.1035C83.6838 38.0969 84.2743 38.0637 84.9776 37.9443L85.0373 38.5083C84.2278 38.6476 83.5577 38.6675 82.8079 38.6675H82.3966V36.3718H83.8563V35.297H82.3833V34.7463H84.5131V36.9225H83.0534ZM85.4553 36.2126V34.2486H86.0922V39.8087H85.4553V36.7765H84.7785V36.2126H85.4553ZM86.6695 34.1159H87.3197V40.1073H86.6695V34.1159ZM93.2508 34.1159V38.4685H92.5674V34.1159H93.2508ZM89.0973 36.0135C89.0973 36.5576 89.4888 36.9225 90.0196 36.9225C90.5438 36.9225 90.9419 36.5576 90.9419 36.0135C90.9419 35.4628 90.5438 35.1045 90.0196 35.1045C89.4888 35.1045 89.0973 35.4628 89.0973 36.0135ZM91.6053 36.0135C91.6053 36.8827 90.9219 37.513 90.0196 37.513C89.1172 37.513 88.4272 36.8827 88.4272 36.0135C88.4272 35.1377 89.1172 34.514 90.0196 34.514C90.9219 34.514 91.6053 35.1377 91.6053 36.0135ZM90.0262 39.4372H93.4233V39.9945H89.3362V38.0305H90.0262V39.4372ZM99.6132 37.0419L99.3146 37.6059C98.3393 37.4069 97.4967 36.7832 97.1052 35.9604C96.7137 36.7832 95.8711 37.4069 94.8958 37.6059L94.6038 37.0419C95.7848 36.823 96.7469 35.9007 96.7469 34.9519V34.5008H97.4701V34.9519C97.4701 35.9074 98.4322 36.8296 99.6132 37.0419ZM94.418 38.7737H99.8454V39.3376H94.418V38.7737ZM103.574 38.84H105.949V39.404H100.522V38.84H102.884V37.7121H101.192V34.5671H105.292V35.1244H101.888V35.8477H105.159V36.3851H101.888V37.168H105.345V37.7121H103.574V38.84ZM106.93 34.5472H109.77V37.1945H106.93V34.5472ZM109.107 35.0913H107.601V36.6505H109.107V35.0913ZM110.878 34.1226H111.562V37.6789H110.878V34.1226ZM109.565 37.7784C110.819 37.7784 111.595 38.2097 111.595 38.9395C111.595 39.676 110.819 40.1073 109.565 40.1073C108.317 40.1073 107.534 39.676 107.534 38.9395C107.534 38.2097 108.317 37.7784 109.565 37.7784ZM109.565 38.3158C108.715 38.3158 108.218 38.5414 108.218 38.9395C108.218 39.3443 108.715 39.5699 109.565 39.5699C110.414 39.5699 110.911 39.3443 110.911 38.9395C110.911 38.5414 110.414 38.3158 109.565 38.3158ZM115.436 34.7197C114.507 34.7197 114.009 34.8989 114.009 35.2439C114.009 35.5823 114.507 35.7614 115.436 35.7614C116.365 35.7614 116.862 35.5823 116.862 35.2439C116.862 34.8989 116.365 34.7197 115.436 34.7197ZM115.436 36.2723C114.089 36.2723 113.3 35.9074 113.3 35.2439C113.3 34.5737 114.089 34.2088 115.436 34.2088C116.776 34.2088 117.572 34.5737 117.572 35.2439C117.572 35.9074 116.776 36.2723 115.436 36.2723ZM114.056 39.0324V39.53H117.639V40.0542H113.379V38.5481H116.796V38.1168H113.366V37.5993H117.466V39.0324H114.056ZM112.722 36.6239H118.15V37.168H112.722V36.6239ZM123.017 39.5964C123.926 39.5964 124.397 39.4504 124.397 39.1319C124.397 38.8267 123.926 38.6741 123.017 38.6741C122.114 38.6741 121.643 38.8267 121.643 39.1319C121.643 39.4504 122.114 39.5964 123.017 39.5964ZM123.017 38.1699C124.324 38.1699 125.08 38.5016 125.08 39.1319C125.08 39.7689 124.324 40.1073 123.017 40.1073C121.716 40.1073 120.953 39.7689 120.953 39.1319C120.953 38.5016 121.716 38.1699 123.017 38.1699ZM123.368 37.2476H125.73V37.7983H120.31V37.2476H122.678V36.7566H121.006V34.2818H125.087V34.806H121.69V35.2571H124.941V35.768H121.69V36.2325H125.126V36.7566H123.368V37.2476ZM127.886 38.1964C128.291 38.1964 128.576 37.8713 128.576 37.3737C128.576 36.8761 128.291 36.5443 127.886 36.5443C127.481 36.5443 127.196 36.8761 127.196 37.3737C127.196 37.8713 127.481 38.1964 127.886 38.1964ZM127.886 35.9803C128.642 35.9803 129.187 36.5443 129.187 37.3737C129.187 38.1964 128.642 38.767 127.886 38.767C127.13 38.767 126.586 38.1964 126.586 37.3737C126.586 36.5443 127.13 35.9803 127.886 35.9803ZM128.224 34.2884V35.0913H129.346V35.642H126.413V35.0913H127.548V34.2884H128.224ZM130.878 34.1159H131.529V40.1073H130.878V37.1614H130.242V39.8286H129.605V34.242H130.242V36.5974H130.878V34.1159ZM134.943 35.2372V38.0704C135.911 38.0637 136.641 38.0239 137.477 37.8779L137.55 38.4419C136.641 38.6078 135.832 38.641 134.75 38.641H134.259V34.6799H137.046V35.2372H134.943ZM139.594 36.4183V36.9822H138.658V40.1139H137.975V34.1093H138.658V36.4183H139.594ZM140.867 35.8875C140.867 36.4116 141.259 36.7434 141.789 36.7434C142.327 36.7434 142.718 36.4116 142.718 35.8875C142.718 35.3699 142.327 35.0316 141.789 35.0316C141.259 35.0316 140.867 35.3699 140.867 35.8875ZM143.388 35.8875C143.388 36.7301 142.705 37.3206 141.789 37.3206C140.88 37.3206 140.197 36.7301 140.197 35.8875C140.197 35.0448 140.88 34.4609 141.789 34.4609C142.705 34.4609 143.388 35.0448 143.388 35.8875ZM142.871 39.5632C143.707 39.5632 144.191 39.3509 144.191 38.9594C144.191 38.5613 143.707 38.349 142.871 38.349C142.035 38.349 141.55 38.5613 141.55 38.9594C141.55 39.3509 142.035 39.5632 142.871 39.5632ZM142.871 37.805C144.105 37.805 144.868 38.2362 144.868 38.9594C144.868 39.676 144.105 40.1073 142.871 40.1073C141.643 40.1073 140.874 39.676 140.874 38.9594C140.874 38.2362 141.643 37.805 142.871 37.805ZM145.631 35.496H144.802V36.2258H145.631V36.7898H144.802V37.6391H144.118V34.1093H144.802V34.932H145.631V35.496ZM149.771 34.7993V35.3434H146.234V34.7993H147.661V34.1159H148.344V34.7993H149.771ZM147.203 36.7566C147.203 37.1348 147.528 37.3604 147.999 37.3604C148.477 37.3604 148.802 37.1348 148.802 36.7566C148.802 36.3784 148.477 36.1529 147.999 36.1529C147.528 36.1529 147.203 36.3784 147.203 36.7566ZM149.452 36.7566C149.452 37.44 148.862 37.8912 147.999 37.8912C147.143 37.8912 146.546 37.44 146.546 36.7566C146.546 36.0799 147.143 35.6221 147.999 35.6221C148.862 35.6221 149.452 36.0799 149.452 36.7566ZM147.8 38.2628V39.4372H151.144V39.9945H147.11V38.2628H147.8ZM150.905 36.0268H151.754V36.5908H150.905V38.6078H150.222V34.1159H150.905V36.0268ZM155.414 38.1699C155.931 38.1699 156.296 37.6059 156.296 36.6704C156.296 35.7349 155.931 35.1709 155.414 35.1709C154.89 35.1709 154.531 35.7349 154.531 36.6704C154.531 37.6059 154.89 38.1699 155.414 38.1699ZM155.414 34.5538C156.31 34.5538 156.953 35.3766 156.953 36.6704C156.953 37.9642 156.31 38.7803 155.414 38.7803C154.518 38.7803 153.875 37.9642 153.875 36.6704C153.875 35.3766 154.518 34.5538 155.414 34.5538ZM159.395 36.4581V37.022H158.459V40.1139H157.776V34.1159H158.459V36.4581H159.395ZM164.165 34.1093H164.855V40.1205H164.165V34.1093ZM161.663 34.5538C162.559 34.5538 163.209 35.3766 163.209 36.6637C163.209 37.9642 162.559 38.7803 161.663 38.7803C160.774 38.7803 160.124 37.9642 160.124 36.6637C160.124 35.3766 160.774 34.5538 161.663 34.5538ZM161.663 35.1709C161.146 35.1709 160.781 35.7349 160.781 36.6637C160.781 37.6059 161.146 38.1699 161.663 38.1699C162.188 38.1699 162.553 37.6059 162.553 36.6637C162.553 35.7349 162.188 35.1709 161.663 35.1709ZM167.077 35.2306V38.0836C168.192 38.077 168.908 38.0438 169.711 37.8912L169.784 38.4618C168.915 38.6211 168.139 38.6542 166.898 38.6542H166.4V34.6666H169.253V35.2306H167.077ZM170.268 34.1093H170.958V40.1205H170.268V34.1093ZM173.745 38.1699C174.262 38.1699 174.614 37.6125 174.614 36.6637C174.614 35.7349 174.262 35.1709 173.745 35.1709C173.234 35.1709 172.882 35.7349 172.882 36.6637C172.882 37.6125 173.234 38.1699 173.745 38.1699ZM176.418 34.1093H177.109V40.1205H176.418V36.9026H175.257C175.178 38.0637 174.567 38.7803 173.745 38.7803C172.862 38.7803 172.232 37.9642 172.232 36.6637C172.232 35.3766 172.862 34.5538 173.745 34.5538C174.547 34.5538 175.158 35.2439 175.251 36.3453H176.418V34.1093ZM182.303 35.1377V34.733H178.913V34.2619H182.98V35.5823H179.596V36.0069H183.086V36.4846H178.926V35.1377H182.303ZM179.55 39.112V39.5699H183.179V40.0409H178.873V38.6675H182.323V38.2429H178.86V37.7718H183V39.112H179.55ZM178.229 36.8628H183.663V37.3671H178.229V36.8628ZM191.251 37.0419V37.6059H188.862V40.1073H188.172V37.6059H185.83V37.0419H189.725C189.897 36.2059 189.897 35.5823 189.897 35.0316H186.48V34.4809H190.567V35.005C190.567 35.569 190.567 36.1927 190.415 37.0419H191.251ZM195.417 36.8562L195.059 37.3936C194.415 37.1614 193.937 36.7036 193.685 36.1396C193.42 36.7898 192.929 37.3073 192.239 37.5595L191.874 37.0154C192.816 36.6903 193.327 35.8742 193.327 35.0116V34.4211H194.017V35.0647C194.017 35.8344 194.528 36.5642 195.417 36.8562ZM194.68 39.5699C195.516 39.5699 196.001 39.3642 196.001 38.9793C196.001 38.6078 195.516 38.3955 194.68 38.3955C193.844 38.3955 193.36 38.6078 193.36 38.9793C193.36 39.3642 193.844 39.5699 194.68 39.5699ZM194.68 37.858C195.921 37.858 196.677 38.276 196.677 38.9793C196.677 39.6893 195.921 40.1073 194.68 40.1073C193.446 40.1073 192.683 39.6893 192.683 38.9793C192.683 38.276 193.446 37.858 194.68 37.858ZM196.611 35.5955H197.46V36.1595H196.611V37.7121H195.928V34.1093H196.611V35.5955ZM199.782 38.2561C200.266 38.2561 200.618 37.9244 200.618 37.4201C200.618 36.9159 200.266 36.5841 199.782 36.5841C199.298 36.5841 198.946 36.9159 198.946 37.4201C198.946 37.9244 199.298 38.2561 199.782 38.2561ZM199.782 36.0202C200.638 36.0202 201.268 36.604 201.268 37.4201C201.268 38.2429 200.638 38.8201 199.782 38.8201C198.92 38.8201 198.296 38.2429 198.296 37.4201C198.296 36.604 198.92 36.0202 199.782 36.0202ZM200.114 34.2088V35.0382H201.514V35.5955H198.004V35.0382H199.43V34.2088H200.114ZM203.61 36.5244V37.095H202.688V40.1139H201.998V34.1159H202.688V36.5244H203.61ZM208.281 35.2638V35.2306H204.705V34.6733H208.971V35.2638C208.971 36.0069 208.971 36.8363 208.739 38.077L208.049 38.004C208.281 36.8296 208.281 35.9803 208.281 35.2638ZM206.848 38.7604H209.555V39.3244H204.141V38.7604H206.158V36.6505H206.848V38.7604ZM210.43 40.9234L210.258 40.4921C210.715 40.3063 210.981 39.9679 210.981 39.5831C210.954 39.5898 210.934 39.5898 210.908 39.5898C210.636 39.5898 210.397 39.4172 210.397 39.0988C210.397 38.8002 210.636 38.6078 210.928 38.6078C211.299 38.6078 211.518 38.9196 211.518 39.4305C211.518 40.1272 211.114 40.6646 210.43 40.9234ZM214.547 35.9273C214.547 36.4514 214.945 36.7765 215.489 36.7765C216.033 36.7765 216.425 36.4514 216.425 35.9273C216.425 35.4031 216.033 35.0714 215.489 35.0714C214.945 35.0714 214.547 35.4031 214.547 35.9273ZM215.834 37.3339V38.2561C216.345 38.2362 216.856 38.1964 217.333 38.1301L217.393 38.6343C216.139 38.8533 214.766 38.8599 213.737 38.8599L213.644 38.2959C214.096 38.2959 214.613 38.2959 215.151 38.2827V37.3405C214.407 37.2078 213.883 36.6637 213.883 35.9273C213.883 35.078 214.567 34.4875 215.489 34.4875C216.411 34.4875 217.088 35.078 217.088 35.9273C217.088 36.6637 216.577 37.2012 215.834 37.3339ZM219.244 36.531V37.1017H218.369V40.1006H217.685V34.1159H218.369V36.531H219.244ZM224.054 34.1093H224.744V40.1205H224.054V34.1093ZM221.553 34.5538C222.449 34.5538 223.099 35.3766 223.099 36.6637C223.099 37.9642 222.449 38.7803 221.553 38.7803C220.664 38.7803 220.013 37.9642 220.013 36.6637C220.013 35.3766 220.664 34.5538 221.553 34.5538ZM221.553 35.1709C221.035 35.1709 220.67 35.7349 220.67 36.6637C220.67 37.6059 221.035 38.1699 221.553 38.1699C222.077 38.1699 222.442 37.6059 222.442 36.6637C222.442 35.7349 222.077 35.1709 221.553 35.1709ZM227.53 38.1699C228.048 38.1699 228.4 37.6125 228.4 36.6637C228.4 35.7349 228.048 35.1709 227.53 35.1709C227.019 35.1709 226.668 35.7349 226.668 36.6637C226.668 37.6125 227.019 38.1699 227.53 38.1699ZM230.204 34.1093H230.894V40.1205H230.204V36.9026H229.043C228.963 38.0637 228.353 38.7803 227.53 38.7803C226.648 38.7803 226.018 37.9642 226.018 36.6637C226.018 35.3766 226.648 34.5538 227.53 34.5538C228.333 34.5538 228.944 35.2439 229.036 36.3453H230.204V34.1093ZM235.412 37.1879V35.2306H234.032V37.1879H235.412ZM233.349 37.1879V35.2306H232.466V34.6799H236.971V35.2306H236.089V37.1879H236.958V37.7452H232.486V37.1879H233.349ZM232.015 38.8068H237.456V39.3708H232.015V38.8068ZM238.968 36.9225V38.1035C239.598 38.0969 240.189 38.0637 240.892 37.9443L240.952 38.5083C240.142 38.6476 239.472 38.6675 238.722 38.6675H238.311V36.3718H239.771V35.297H238.298V34.7463H240.428V36.9225H238.968ZM241.37 36.2126V34.2486H242.007V39.8087H241.37V36.7765H240.693V36.2126H241.37ZM242.584 34.1159H243.234V40.1073H242.584V34.1159ZM248.482 34.1226H249.165V37.5329H248.482V34.1226ZM245.244 37.8315H249.165V40.0343H245.244V37.8315ZM248.495 38.3756H245.914V39.4902H248.495V38.3756ZM245.934 34.4145C246.85 34.4145 247.52 34.9917 247.52 35.8277C247.52 36.6637 246.85 37.241 245.934 37.241C245.018 37.241 244.342 36.6637 244.342 35.8277C244.342 34.9917 245.018 34.4145 245.934 34.4145ZM245.934 34.9785C245.397 34.9785 245.012 35.3169 245.012 35.8277C245.012 36.3453 245.397 36.677 245.934 36.677C246.465 36.677 246.856 36.3453 246.856 35.8277C246.856 35.3169 246.465 34.9785 245.934 34.9785ZM253.04 34.7197C252.111 34.7197 251.613 34.8989 251.613 35.2439C251.613 35.5823 252.111 35.7614 253.04 35.7614C253.968 35.7614 254.466 35.5823 254.466 35.2439C254.466 34.8989 253.968 34.7197 253.04 34.7197ZM253.04 36.2723C251.693 36.2723 250.903 35.9074 250.903 35.2439C250.903 34.5737 251.693 34.2088 253.04 34.2088C254.38 34.2088 255.176 34.5737 255.176 35.2439C255.176 35.9074 254.38 36.2723 253.04 36.2723ZM251.66 39.0324V39.53H255.242V40.0542H250.983V38.5481H254.4V38.1168H250.97V37.5993H255.07V39.0324H251.66ZM250.326 36.6239H255.753V37.168H250.326V36.6239ZM261.45 36.9623L261.098 37.4865C260.428 37.2675 259.95 36.8097 259.691 36.2391C259.426 36.8694 258.928 37.3604 258.225 37.6059L257.867 37.0685C258.816 36.75 259.34 35.987 259.34 35.1643V35.0581H258.066V34.5008H261.284V35.0581H260.03V35.1643C260.03 35.9206 260.534 36.6571 261.45 36.9623ZM258.663 38.568V38.0173H262.604V40.1073H261.921V38.568H258.663ZM263.453 35.642V36.2059H262.604V37.7253H261.921V34.1093H262.604V35.642H263.453ZM268.31 37.6457V35.8676H267.095V35.3102H268.31V34.1093H268.993V37.6457H268.31ZM267.586 36.8694L267.221 37.4069C266.578 37.1746 266.113 36.7235 265.855 36.1396C265.589 36.8031 265.085 37.3272 264.362 37.586L264.004 37.0353C264.966 36.7102 265.49 35.9007 265.49 35.0249V34.4344H266.18V34.9917C266.18 35.8211 266.677 36.5709 267.586 36.8694ZM266.996 39.5699C267.845 39.5699 268.336 39.3509 268.336 38.9594C268.336 38.568 267.845 38.349 266.996 38.349C266.147 38.349 265.662 38.568 265.662 38.9594C265.662 39.3509 266.147 39.5699 266.996 39.5699ZM266.996 37.8116C268.25 37.8116 269.02 38.2362 269.02 38.9594C269.02 39.6826 268.25 40.1073 266.996 40.1073C265.749 40.1073 264.979 39.6826 264.979 38.9594C264.979 38.2362 265.749 37.8116 266.996 37.8116ZM271.879 38.2561C272.363 38.2561 272.715 37.9244 272.715 37.4201C272.715 36.9159 272.363 36.5841 271.879 36.5841C271.394 36.5841 271.043 36.9159 271.043 37.4201C271.043 37.9244 271.394 38.2561 271.879 38.2561ZM271.879 36.0202C272.735 36.0202 273.365 36.604 273.365 37.4201C273.365 38.2429 272.735 38.8201 271.879 38.8201C271.016 38.8201 270.392 38.2429 270.392 37.4201C270.392 36.604 271.016 36.0202 271.879 36.0202ZM272.21 34.2088V35.0382H273.61V35.5955H270.101V35.0382H271.527V34.2088H272.21ZM275.707 36.5244V37.095H274.785V40.1139H274.095V34.1159H274.785V36.5244H275.707ZM279.316 37.2808H280.523V35.9671H279.296C279.342 36.186 279.369 36.4116 279.369 36.6637C279.369 36.8893 279.349 37.0884 279.316 37.2808ZM277.85 38.1699C278.367 38.1699 278.719 37.6059 278.719 36.6637C278.719 35.7349 278.367 35.1709 277.85 35.1709C277.339 35.1709 276.98 35.7349 276.98 36.6637C276.98 37.6059 277.339 38.1699 277.85 38.1699ZM280.523 34.1093H281.214V40.1205H280.523V37.8448H279.143C278.891 38.4353 278.42 38.7803 277.85 38.7803C276.967 38.7803 276.337 37.9642 276.337 36.6637C276.337 35.3766 276.967 34.5538 277.85 34.5538C278.394 34.5538 278.838 34.8657 279.11 35.4031H280.523V34.1093ZM284.17 34.7463H287.009C287.009 36.531 286.293 38.0438 284.236 39.0391L283.871 38.495C285.443 37.7386 286.187 36.6837 286.306 35.3036H284.17V34.7463ZM288.091 34.1159H288.774V40.1073H288.091V34.1159ZM291.302 38.3158V39.4372H294.745V39.9945H290.612V38.3158H291.302ZM291.308 35.5557V36.2192H293.975V35.5557H291.308ZM292.98 37.3405H295.356V37.8912H289.922V37.3405H292.29V36.7633H290.631V34.3482H291.308V35.0249H293.975V34.3482H294.652V36.7633H292.98V37.3405ZM302.949 37.0419V37.6059H300.561V40.1073H299.871V37.6059H297.529V37.0419H301.423C301.596 36.2059 301.596 35.5823 301.596 35.0316H298.179V34.4809H302.266V35.005C302.266 35.569 302.266 36.1927 302.113 37.0419H302.949ZM304.15 37.6457L303.865 37.1017C305.032 36.9159 305.981 36.0865 305.981 35.1842V35.1709H304.077V34.6202H308.602V35.1709H306.698V35.1842C306.698 36.0865 307.653 36.896 308.841 37.0817L308.562 37.6258C307.573 37.44 306.731 36.8827 306.339 36.1197C305.955 36.8893 305.119 37.4599 304.15 37.6457ZM306.691 38.8135H309.06V39.3708H303.632V38.8135H306.001V37.4135H306.691V38.8135ZM313.803 35.1377V34.733H310.413V34.2619H314.48V35.5823H311.096V36.0069H314.586V36.4846H310.426V35.1377H313.803ZM311.05 39.112V39.5699H314.679V40.0409H310.373V38.6675H313.823V38.2429H310.36V37.7718H314.5V39.112H311.05ZM309.729 36.8628H315.163V37.3671H309.729V36.8628ZM319.539 34.6136V35.5955C319.539 36.6969 320.15 37.7983 321.092 38.223L320.694 38.767C320.004 38.4419 319.48 37.7784 319.208 36.969C318.935 37.8381 318.405 38.5481 317.681 38.8997L317.277 38.3291C318.232 37.8978 318.856 36.75 318.856 35.5955V34.6136H319.539ZM321.57 34.1093H322.26V40.1205H321.57V34.1093ZM323.672 34.4742H326.459C326.459 36.0268 325.431 37.1083 323.666 37.5794L323.387 37.0419C324.794 36.6837 325.616 35.9405 325.736 35.0249H323.672V34.4742ZM324.17 38.4286V37.8779H328.111V40.1139H327.428V38.4286H324.17ZM328.96 35.5823V36.1462H328.111V37.6125H327.428V34.1093H328.111V35.5823H328.96ZM333.133 34.806V35.3567H329.57V34.806H331.017V34.1358H331.7V34.806H333.133ZM330.565 36.7765C330.565 37.1415 330.891 37.3671 331.362 37.3671C331.833 37.3671 332.151 37.1415 332.151 36.7765C332.151 36.405 331.833 36.1794 331.362 36.1794C330.891 36.1794 330.565 36.405 330.565 36.7765ZM331.7 37.8647V38.422C332.211 38.3955 332.722 38.3623 333.2 38.2893L333.253 38.7936C331.972 39.0192 330.585 39.0324 329.557 39.0324L329.464 38.4685C329.922 38.4685 330.459 38.4685 331.017 38.4485V37.8647C330.353 37.7519 329.922 37.3471 329.922 36.7765C329.922 36.0998 330.506 35.6552 331.362 35.6552C332.211 35.6552 332.795 36.0998 332.795 36.7765C332.795 37.3471 332.364 37.7585 331.7 37.8647ZM335.071 36.6173V37.1813H334.221V40.1073H333.538V34.1093H334.221V36.6173H335.071ZM18.2706 45.6865V46.2372H14.7342V45.6865H16.1607V45.0629H16.8441V45.6865H18.2706ZM15.7029 47.5111C15.7029 47.8562 16.0214 48.0618 16.4991 48.0618C16.9768 48.0618 17.3019 47.8562 17.3019 47.5111C17.3019 47.1728 16.9768 46.9671 16.4991 46.9671C16.0214 46.9671 15.7029 47.1728 15.7029 47.5111ZM17.9521 47.5111C17.9521 48.1481 17.3682 48.5727 16.4991 48.5727C15.6365 48.5727 15.046 48.1481 15.046 47.5111C15.046 46.8808 15.6365 46.4562 16.4991 46.4562C17.3682 46.4562 17.9521 46.8808 17.9521 47.5111ZM18.7284 50.4902V49.9395H16.2536V50.4902H18.7284ZM18.7284 49.4087V48.858H19.4052V51.0343H15.5768V48.858H16.2536V49.4087H18.7284ZM20.2544 46.6088V47.1728H19.4052V48.6125H18.7218V45.1159H19.4052V46.6088H20.2544ZM21.8596 45.6998V49.0106C22.7089 49.004 23.6046 48.931 24.5467 48.7386L24.6197 49.3092C23.5913 49.5215 22.6226 49.5945 21.6937 49.5945H21.1828V45.6998H21.8596ZM25.0974 45.1159H25.7808V51.1073H25.0974V45.1159ZM27.857 46.2372V49.0704C28.8257 49.0637 29.5556 49.0239 30.3916 48.8779L30.4646 49.4419C29.5556 49.6078 28.7461 49.641 27.6646 49.641H27.1736V45.6799H29.9603V46.2372H27.857ZM32.5081 47.4183V47.9822H31.5726V51.1139H30.8892V45.1093H31.5726V47.4183H32.5081ZM33.6886 50.6826C33.4033 50.6826 33.1777 50.4637 33.1777 50.1518C33.1777 49.8334 33.4033 49.6078 33.6886 49.6078C33.9739 49.6078 34.1995 49.8334 34.1995 50.1518C34.1995 50.4637 33.9739 50.6826 33.6886 50.6826ZM40.7446 45.1093H41.4347V51.1205H40.7446V45.1093ZM38.2433 45.5538C39.139 45.5538 39.7892 46.3766 39.7892 47.6637C39.7892 48.9642 39.139 49.7803 38.2433 49.7803C37.3542 49.7803 36.704 48.9642 36.704 47.6637C36.704 46.3766 37.3542 45.5538 38.2433 45.5538ZM38.2433 46.1709C37.7257 46.1709 37.3608 46.7349 37.3608 47.6637C37.3608 48.6059 37.7257 49.1699 38.2433 49.1699C38.7674 49.1699 39.1323 48.6059 39.1323 47.6637C39.1323 46.7349 38.7674 46.1709 38.2433 46.1709ZM47.7241 45.7728V46.3169H42.8739V45.7728H44.9706V45.1027H45.654V45.7728H47.7241ZM46.5961 47.6239C46.5961 47.2988 46.1516 47.1263 45.3156 47.1263C44.4796 47.1263 44.0284 47.2988 44.0284 47.6239C44.0284 47.9491 44.4796 48.1282 45.3156 48.1282C46.1516 48.1282 46.5961 47.9491 46.5961 47.6239ZM43.3185 47.6239C43.3185 46.9737 44.0682 46.6088 45.3156 46.6088C46.5629 46.6088 47.3127 46.9737 47.3127 47.6239C47.3127 48.2742 46.5629 48.6391 45.3156 48.6391C44.0682 48.6391 43.3185 48.2742 43.3185 47.6239ZM48.0359 48.9974V49.5481H45.654V51.1139H44.9706V49.5481H42.6019V48.9974H48.0359ZM51.2507 46.2306V49.0836C52.3654 49.077 53.082 49.0438 53.8848 48.8912L53.9578 49.4618C53.0886 49.6211 52.3123 49.6542 51.0716 49.6542H50.574V45.6666H53.427V46.2306H51.2507ZM54.4421 45.1093H55.1322V51.1205H54.4421V45.1093ZM58.5155 46.277V46.8477C58.5155 47.8429 59.1325 48.8779 60.068 49.276L59.6899 49.8135C58.9932 49.5083 58.4558 48.858 58.1771 48.0817C57.9117 48.9178 57.3743 49.6277 56.671 49.9661L56.2795 49.422C57.2084 48.9907 57.8254 47.8761 57.8254 46.8477V46.277H56.4918V45.7131H59.8491V46.277H58.5155ZM60.5458 45.1159H61.2358V51.1073H60.5458V45.1159ZM66.6826 48.3206V46.987H65.6475V46.4429H66.6826V45.1093H67.3726V48.3206H66.6826ZM65.6873 47.4581L65.7404 48.0021C64.9508 48.1282 64.2807 48.1348 63.1461 48.1348H62.695V45.4676H65.4286V46.005H63.3784V46.5225H65.2561V47.0401H63.3784V47.5974C64.3603 47.5974 64.9707 47.5775 65.6873 47.4581ZM64.1547 50.5234H67.5716V51.0542H63.4779V49.5481H66.6958V49.0969H63.4713V48.5661H67.3726V50.0391H64.1547V50.5234ZM73.394 48.1879V46.2306H72.0139V48.1879H73.394ZM71.3305 48.1879V46.2306H70.4481V45.6799H74.9532V46.2306H74.0708V48.1879H74.9399V48.7452H70.468V48.1879H71.3305ZM69.9969 49.8068H75.4376V50.3708H69.9969V49.8068ZM79.1526 49.84H81.5346V50.404H76.1072V49.84H78.4692V48.8182H76.764V46.8875H80.2142V46.0846H76.7508V45.5339H80.891V47.4315H77.4342V48.2675H81.0237V48.8182H79.1526V49.84ZM85.2629 49.84H87.6382V50.404H82.2108V49.84H84.5728V48.7121H82.8809V45.5671H86.9813V46.1244H83.5776V46.8477H86.8486V47.3851H83.5776V48.168H87.0344V48.7121H85.2629V49.84ZM89.2433 47.8628V49.15C90.1987 49.1433 90.9286 49.1102 91.7712 48.9708L91.8376 49.5282C90.9153 49.6741 90.1191 49.7073 89.0443 49.7073H88.5599V45.6335H91.3599V46.1974H89.2433V47.3121H91.2471V47.8628H89.2433ZM93.8878 47.4647V48.0287H92.9522V51.1139H92.2688V45.1093H92.9522V47.4647H93.8878ZM98.671 45.1159H99.3544V48.3339H98.671V45.1159ZM95.4398 48.6125H96.1166V49.276H98.6777V48.6125H99.3544V51.0343H95.4398V48.6125ZM96.1166 49.8068V50.4836H98.6777V49.8068H96.1166ZM96.1232 45.388C97.0388 45.388 97.709 45.9586 97.709 46.7813C97.709 47.604 97.0388 48.1746 96.1232 48.1746C95.2076 48.1746 94.5308 47.604 94.5308 46.7813C94.5308 45.9586 95.2076 45.388 96.1232 45.388ZM96.1232 45.9519C95.5792 45.9519 95.201 46.2837 95.201 46.7813C95.201 47.2856 95.5792 47.6107 96.1232 47.6107C96.6606 47.6107 97.0455 47.2856 97.0455 46.7813C97.0455 46.2837 96.6606 45.9519 96.1232 45.9519ZM103.229 45.7197C102.3 45.7197 101.802 45.8989 101.802 46.2439C101.802 46.5823 102.3 46.7614 103.229 46.7614C104.158 46.7614 104.655 46.5823 104.655 46.2439C104.655 45.8989 104.158 45.7197 103.229 45.7197ZM103.229 47.2723C101.882 47.2723 101.092 46.9074 101.092 46.2439C101.092 45.5737 101.882 45.2088 103.229 45.2088C104.569 45.2088 105.365 45.5737 105.365 46.2439C105.365 46.9074 104.569 47.2723 103.229 47.2723ZM101.849 50.0324V50.53H105.432V51.0542H101.172V49.5481H104.589V49.1168H101.159V48.5993H105.259V50.0324H101.849ZM100.515 47.6239H105.942V48.168H100.515V47.6239ZM109.934 46.3301V46.7614C109.934 47.7832 110.318 48.8182 111.154 49.3026L110.756 49.8002C110.192 49.4685 109.821 48.8779 109.608 48.1813C109.396 48.9377 109.011 49.5812 108.434 49.9462L108.023 49.4419C108.872 48.9111 109.27 47.8296 109.27 46.7614V46.3301H108.215V45.7662H110.922V46.3301H109.934ZM111.367 47.2192V45.2287H112.01V50.8153H111.367V47.7765H110.484V47.2192H111.367ZM112.574 45.1093H113.224V51.1006H112.574V45.1093ZM117.742 47.9623L117.391 48.4865C116.721 48.2675 116.243 47.8097 115.984 47.2391C115.719 47.8694 115.221 48.3604 114.518 48.6059L114.159 48.0685C115.108 47.75 115.632 46.987 115.632 46.1643V46.0581H114.359V45.5008H117.576V46.0581H116.322V46.1643C116.322 46.9206 116.827 47.6571 117.742 47.9623ZM114.956 49.568V49.0173H118.897V51.1073H118.213V49.568H114.956ZM119.746 46.642V47.2059H118.897V48.7253H118.213V45.1093H118.897V46.642H119.746ZM121.782 49.1964C122.187 49.1964 122.473 48.8713 122.473 48.3737C122.473 47.8761 122.187 47.5443 121.782 47.5443C121.378 47.5443 121.092 47.8761 121.092 48.3737C121.092 48.8713 121.378 49.1964 121.782 49.1964ZM121.782 46.9803C122.539 46.9803 123.083 47.5443 123.083 48.3737C123.083 49.1964 122.539 49.767 121.782 49.767C121.026 49.767 120.482 49.1964 120.482 48.3737C120.482 47.5443 121.026 46.9803 121.782 46.9803ZM122.121 45.2884V46.0913H123.242V46.642H120.31V46.0913H121.444V45.2884H122.121ZM124.775 45.1159H125.425V51.1073H124.775V48.1614H124.138V50.8286H123.501V45.242H124.138V47.5974H124.775V45.1159ZM130.013 45.6136V46.5955C130.013 47.6637 130.571 48.7452 131.473 49.1898L131.055 49.7338C130.411 49.4021 129.934 48.7519 129.675 47.969C129.416 48.7983 128.912 49.495 128.229 49.8466L127.811 49.2959C128.746 48.8381 129.33 47.7036 129.33 46.5955V45.6136H130.013ZM133.49 47.4912V48.0552H132.555V51.1073H131.871V45.1159H132.555V47.4912H133.49ZM136.714 50.5831C137.59 50.5831 138.088 50.3973 138.088 50.0324C138.088 49.6741 137.59 49.4817 136.714 49.4817C135.838 49.4817 135.347 49.6741 135.347 50.0324C135.347 50.3973 135.838 50.5831 136.714 50.5831ZM136.714 48.9576C138.008 48.9576 138.778 49.349 138.778 50.0324C138.778 50.7225 138.008 51.1073 136.714 51.1073C135.427 51.1073 134.651 50.7225 134.651 50.0324C134.651 49.349 135.427 48.9576 136.714 48.9576ZM135.984 47.4183V48.0287H137.457V47.4183C137.238 47.4514 136.993 47.4713 136.727 47.4713C136.462 47.4713 136.203 47.4514 135.984 47.4183ZM136.727 45.7463C135.832 45.7463 135.294 45.9586 135.294 46.3434C135.294 46.7282 135.832 46.9472 136.727 46.9472C137.616 46.9472 138.154 46.7282 138.154 46.3434C138.154 45.9586 137.616 45.7463 136.727 45.7463ZM138.141 48.0287H139.434V48.5727H134.014V48.0287H135.301V47.2325C134.85 47.0401 134.591 46.7349 134.591 46.3434C134.591 45.6401 135.414 45.2155 136.727 45.2155C138.034 45.2155 138.864 45.6401 138.864 46.3434C138.864 46.7349 138.598 47.0401 138.141 47.2391V48.0287ZM142.221 46.277V46.8543C142.221 47.7832 142.811 48.8448 143.72 49.276L143.342 49.8135C142.672 49.495 142.161 48.8315 141.889 48.0751C141.623 48.9111 141.093 49.6277 140.403 49.9661L140.011 49.422C140.927 48.9841 141.537 47.8495 141.537 46.8543V46.277H140.23V45.7131H143.488V46.277H142.221ZM145.697 47.478V48.0419H144.762V51.1073H144.078V45.1159H144.762V47.478H145.697ZM148.574 47.9623V49.1632C149.31 49.1566 149.814 49.1301 150.405 49.0239L150.465 49.5812C149.788 49.7007 149.224 49.7206 148.315 49.7206H147.917V45.806H150.14V46.3567H148.574V47.4249H149.887V47.9623H148.574ZM150.956 47.3453V45.242H151.599V50.822H150.956V47.9092H150.186V47.3453H150.956ZM152.176 45.1093H152.833V51.1006H152.176V45.1093ZM159.017 48.0419L158.718 48.6059C157.743 48.4069 156.9 47.7832 156.509 46.9604C156.117 47.7832 155.274 48.4069 154.299 48.6059L154.007 48.0419C155.188 47.823 156.15 46.9007 156.15 45.9519V45.5008H156.874V45.9519C156.874 46.9074 157.836 47.8296 159.017 48.0419ZM153.821 49.7737H159.249V50.3376H153.821V49.7737ZM164.749 48.2808V48.8315H160.595V45.6003H164.702V46.151H161.292V46.9206H164.57V47.4581H161.292V48.2808H164.749ZM159.925 49.8135H165.359V50.3708H159.925V49.8135ZM170.096 46.1377V45.733H166.705V45.2619H170.773V46.5823H167.389V47.0069H170.879V47.4846H166.719V46.1377H170.096ZM167.342 50.112V50.5699H170.972V51.0409H166.666V49.6675H170.116V49.2429H166.652V48.7718H170.793V50.112H167.342ZM166.022 47.8628H171.456V48.3671H166.022V47.8628ZM178.559 45.1226V49.4817H177.876V45.1226H178.559ZM177.318 48.1415L176.973 48.6789C176.283 48.4533 175.779 47.9889 175.514 47.3984C175.248 48.0353 174.744 48.5462 174.027 48.7851L173.669 48.2543C174.618 47.9358 175.155 47.1595 175.155 46.35V46.1311H173.855V45.5804H177.132V46.1311H175.852V46.35C175.852 47.113 176.396 47.8429 177.318 48.1415ZM175.334 50.4372H178.731V50.9945H174.644V49.0836H175.334V50.4372ZM183.521 47.2391V48.6855H182.884V45.2287H183.521V46.6751H184.145V45.1093H184.795V48.8912H184.145V47.2391H183.521ZM182.679 45.7861V46.3235H179.693V45.7861H180.854V45.169H181.524V45.7861H182.679ZM180.522 47.6173C180.522 47.9424 180.788 48.1547 181.193 48.1547C181.597 48.1547 181.869 47.9424 181.869 47.6173C181.869 47.2922 181.597 47.0799 181.193 47.0799C180.788 47.0799 180.522 47.2922 180.522 47.6173ZM182.48 47.6173C182.48 48.241 181.949 48.6524 181.193 48.6524C180.443 48.6524 179.912 48.241 179.912 47.6173C179.912 47.0003 180.443 46.5823 181.193 46.5823C181.949 46.5823 182.48 47.0003 182.48 47.6173ZM182.805 50.5898C183.667 50.5898 184.145 50.3973 184.145 50.0391C184.145 49.6808 183.667 49.495 182.805 49.495C181.949 49.495 181.458 49.6808 181.458 50.0391C181.458 50.3973 181.949 50.5898 182.805 50.5898ZM182.805 48.9775C184.065 48.9775 184.828 49.3623 184.828 50.0391C184.828 50.7158 184.065 51.1073 182.805 51.1073C181.538 51.1073 180.775 50.7158 180.775 50.0391C180.775 49.3623 181.538 48.9775 182.805 48.9775ZM187.575 49.2561C188.059 49.2561 188.411 48.9244 188.411 48.4201C188.411 47.9159 188.059 47.5841 187.575 47.5841C187.09 47.5841 186.739 47.9159 186.739 48.4201C186.739 48.9244 187.09 49.2561 187.575 49.2561ZM187.575 47.0202C188.431 47.0202 189.061 47.604 189.061 48.4201C189.061 49.2429 188.431 49.8201 187.575 49.8201C186.712 49.8201 186.089 49.2429 186.089 48.4201C186.089 47.604 186.712 47.0202 187.575 47.0202ZM187.907 45.2088V46.0382H189.307V46.5955H185.797V46.0382H187.223V45.2088H187.907ZM191.403 47.5244V48.095H190.481V51.1139H189.791V45.1159H190.481V47.5244H191.403ZM196.074 46.2638V46.2306H192.497V45.6733H196.764V46.2638C196.764 47.0069 196.764 47.8363 196.531 49.077L195.841 49.004C196.074 47.8296 196.074 46.9803 196.074 46.2638ZM194.641 49.7604H197.348V50.3244H191.933V49.7604H193.95V47.6505H194.641V49.7604ZM198.223 51.9234L198.05 51.4921C198.508 51.3063 198.774 50.9679 198.774 50.5831C198.747 50.5898 198.727 50.5898 198.701 50.5898C198.429 50.5898 198.19 50.4172 198.19 50.0988C198.19 49.8002 198.429 49.6078 198.72 49.6078C199.092 49.6078 199.311 49.9196 199.311 50.4305C199.311 51.1272 198.906 51.6646 198.223 51.9234ZM202.91 46.2704V49.1035C203.189 49.0903 203.481 49.0836 203.766 49.0704V46.2704H202.91ZM204.43 46.2704V49.0239C204.728 49.004 205.02 48.9708 205.305 48.9377L205.345 49.4419C204.065 49.6542 202.651 49.6741 201.563 49.6741L201.49 49.1102C201.723 49.1102 201.981 49.1102 202.247 49.1035V46.2704H201.65V45.7197H205.027V46.2704H204.43ZM205.763 45.1159H206.447V51.1139H205.763V45.1159ZM212.424 47.9424V48.4931H208.271V45.6401H212.378V46.1974H208.954V47.9424H212.424ZM207.607 49.7737H213.041V50.3376H207.607V49.7737ZM215.655 47.7898V46.9339H214.593V47.7898H215.655ZM216.292 45.5008V48.3405H213.95V45.5008H214.593V46.3965H215.655V45.5008H216.292ZM214.713 49.5879V49.0438H218.78V51.1139H218.097V49.5879H214.713ZM218.13 45.1159H218.78V48.7121H218.13V47.1927H217.499V48.6922H216.856V45.2287H217.499V46.6353H218.13V45.1159ZM222.521 45.7197C221.593 45.7197 221.095 45.8989 221.095 46.2439C221.095 46.5823 221.593 46.7614 222.521 46.7614C223.45 46.7614 223.948 46.5823 223.948 46.2439C223.948 45.8989 223.45 45.7197 222.521 45.7197ZM222.521 47.2723C221.175 47.2723 220.385 46.9074 220.385 46.2439C220.385 45.5737 221.175 45.2088 222.521 45.2088C223.862 45.2088 224.658 45.5737 224.658 46.2439C224.658 46.9074 223.862 47.2723 222.521 47.2723ZM221.141 50.0324V50.53H224.724V51.0542H220.465V49.5481H223.882V49.1168H220.451V48.5993H224.552V50.0324H221.141ZM219.808 47.6239H225.235V48.168H219.808V47.6239ZM229.764 48.0021V47.0135H228.297V48.0021H229.764ZM230.44 45.5472V48.5528H227.614V45.5472H228.297V46.4827H229.764V45.5472H230.44ZM228.981 49.0969V50.4372H232.325V50.9945H228.291V49.0969H228.981ZM232.086 46.8808H232.935V47.4448H232.086V49.5215H231.403V45.1226H232.086V46.8808ZM234.242 46.9007C234.242 47.4183 234.627 47.7633 235.157 47.7633C235.675 47.7633 236.06 47.4183 236.06 46.9007C236.06 46.3766 235.675 46.0316 235.157 46.0316C234.627 46.0316 234.242 46.3766 234.242 46.9007ZM237.791 46.496H236.657C236.69 46.6221 236.71 46.7548 236.71 46.9007C236.71 47.0467 236.69 47.1794 236.65 47.3055H237.791V46.496ZM237.791 47.8562H236.345C236.066 48.1614 235.642 48.3405 235.157 48.3405C234.262 48.3405 233.592 47.7434 233.592 46.9007C233.592 46.0515 234.262 45.4543 235.157 45.4543C235.648 45.4543 236.066 45.6401 236.345 45.9387H237.791V45.1093H238.475V48.6457H237.791V47.8562ZM236.478 50.5699C237.334 50.5699 237.825 50.3509 237.825 49.9395C237.825 49.5414 237.334 49.3158 236.478 49.3158C235.628 49.3158 235.131 49.5414 235.131 49.9395C235.131 50.3509 235.628 50.5699 236.478 50.5699ZM236.478 48.7784C237.725 48.7784 238.501 49.2097 238.501 49.9395C238.501 50.676 237.725 51.1073 236.478 51.1073C235.23 51.1073 234.461 50.676 234.461 49.9395C234.461 49.2097 235.23 48.7784 236.478 48.7784ZM241.361 49.2561C241.845 49.2561 242.197 48.9244 242.197 48.4201C242.197 47.9159 241.845 47.5841 241.361 47.5841C240.876 47.5841 240.525 47.9159 240.525 48.4201C240.525 48.9244 240.876 49.2561 241.361 49.2561ZM241.361 47.0202C242.216 47.0202 242.847 47.604 242.847 48.4201C242.847 49.2429 242.216 49.8201 241.361 49.8201C240.498 49.8201 239.874 49.2429 239.874 48.4201C239.874 47.604 240.498 47.0202 241.361 47.0202ZM241.692 45.2088V46.0382H243.092V46.5955H239.582V46.0382H241.009V45.2088H241.692ZM245.189 47.5244V48.095H244.267V51.1139H243.577V45.1159H244.267V47.5244H245.189ZM248.798 48.2808H250.005V46.9671H248.778C248.824 47.186 248.851 47.4116 248.851 47.6637C248.851 47.8893 248.831 48.0884 248.798 48.2808ZM247.331 49.1699C247.849 49.1699 248.201 48.6059 248.201 47.6637C248.201 46.7349 247.849 46.1709 247.331 46.1709C246.821 46.1709 246.462 46.7349 246.462 47.6637C246.462 48.6059 246.821 49.1699 247.331 49.1699ZM250.005 45.1093H250.695V51.1205H250.005V48.8448H248.625C248.373 49.4353 247.902 49.7803 247.331 49.7803C246.449 49.7803 245.819 48.9642 245.819 47.6637C245.819 46.3766 246.449 45.5538 247.331 45.5538C247.876 45.5538 248.32 45.8657 248.592 46.4031H250.005V45.1093ZM254.361 46.2306V49.0836C255.476 49.077 256.193 49.0438 256.995 48.8912L257.068 49.4618C256.199 49.6211 255.423 49.6542 254.182 49.6542H253.685V45.6666H256.538V46.2306H254.361ZM257.553 45.1093H258.243V51.1205H257.553V45.1093ZM261.513 46.277V46.8543C261.513 47.7832 262.104 48.8448 263.013 49.276L262.635 49.8135C261.965 49.495 261.454 48.8315 261.182 48.0751C260.916 48.9111 260.385 49.6277 259.695 49.9661L259.304 49.422C260.22 48.9841 260.83 47.8495 260.83 46.8543V46.277H259.523V45.7131H262.781V46.277H261.513ZM264.99 47.478V48.0419H264.055V51.1073H263.371V45.1159H264.055V47.478H264.99ZM270.457 45.1159V49.4685H269.773V45.1159H270.457ZM266.303 47.0135C266.303 47.5576 266.695 47.9225 267.226 47.9225C267.75 47.9225 268.148 47.5576 268.148 47.0135C268.148 46.4628 267.75 46.1045 267.226 46.1045C266.695 46.1045 266.303 46.4628 266.303 47.0135ZM268.811 47.0135C268.811 47.8827 268.128 48.513 267.226 48.513C266.323 48.513 265.633 47.8827 265.633 47.0135C265.633 46.1377 266.323 45.514 267.226 45.514C268.128 45.514 268.811 46.1377 268.811 47.0135ZM267.232 50.4372H270.629V50.9945H266.542V49.0305H267.232V50.4372ZM274.331 45.7197C273.402 45.7197 272.905 45.8989 272.905 46.2439C272.905 46.5823 273.402 46.7614 274.331 46.7614C275.26 46.7614 275.758 46.5823 275.758 46.2439C275.758 45.8989 275.26 45.7197 274.331 45.7197ZM274.331 47.2723C272.984 47.2723 272.195 46.9074 272.195 46.2439C272.195 45.5737 272.984 45.2088 274.331 45.2088C275.671 45.2088 276.467 45.5737 276.467 46.2439C276.467 46.9074 275.671 47.2723 274.331 47.2723ZM272.951 50.0324V50.53H276.534V51.0542H272.274V49.5481H275.691V49.1168H272.261V48.5993H276.361V50.0324H272.951ZM271.617 47.6239H277.045V48.168H271.617V47.6239ZM279.437 45.8723H281.792C281.792 47.4713 281.268 48.8846 279.583 49.8533L279.185 49.3689C280.478 48.6192 281.023 47.6372 281.115 46.4296H279.437V45.8723ZM283.663 45.1159H284.313V51.1073H283.663V48.0154H282.98V50.8286H282.336V45.2752H282.98V47.4581H283.663V45.1159ZM289.601 49.5746V47.0268H288.387V46.4628H289.601V45.1159H290.284V49.5746H289.601ZM288.858 48.1017L288.493 48.6324C287.849 48.3936 287.378 47.9092 287.126 47.3055C286.861 47.9756 286.363 48.5064 285.673 48.7718L285.308 48.241C286.244 47.9092 286.761 47.0666 286.761 46.1775V45.4809H287.458V46.1908C287.458 47.0003 287.962 47.7765 288.858 48.1017ZM287.073 50.4372H290.424V50.9945H286.383V49.1035H287.073V50.4372ZM294.968 45.6865V46.2372H291.432V45.6865H292.858V45.0629H293.542V45.6865H294.968ZM292.4 47.5111C292.4 47.8562 292.719 48.0618 293.197 48.0618C293.674 48.0618 293.999 47.8562 293.999 47.5111C293.999 47.1728 293.674 46.9671 293.197 46.9671C292.719 46.9671 292.4 47.1728 292.4 47.5111ZM294.65 47.5111C294.65 48.1481 294.066 48.5727 293.197 48.5727C292.334 48.5727 291.744 48.1481 291.744 47.5111C291.744 46.8808 292.334 46.4562 293.197 46.4562C294.066 46.4562 294.65 46.8808 294.65 47.5111ZM295.426 50.4902V49.9395H292.951V50.4902H295.426ZM295.426 49.4087V48.858H296.103V51.0343H292.274V48.858H292.951V49.4087H295.426ZM296.952 46.6088V47.1728H296.103V48.6125H295.419V45.1159H296.103V46.6088H296.952ZM298.557 45.6998V49.0106C299.406 49.004 300.302 48.931 301.244 48.7386L301.317 49.3092C300.289 49.5215 299.32 49.5945 298.391 49.5945H297.88V45.6998H298.557ZM301.795 45.1159H302.478V51.1073H301.795V45.1159ZM304.555 46.2372V49.0704C305.523 49.0637 306.253 49.0239 307.089 48.8779L307.162 49.4419C306.253 49.6078 305.444 49.641 304.362 49.641H303.871V45.6799H306.658V46.2372H304.555ZM309.206 47.4183V47.9822H308.27V51.1139H307.587V45.1093H308.27V47.4183H309.206ZM310.386 50.6826C310.101 50.6826 309.875 50.4637 309.875 50.1518C309.875 49.8334 310.101 49.6078 310.386 49.6078C310.671 49.6078 310.897 49.8334 310.897 50.1518C310.897 50.4637 310.671 50.6826 310.386 50.6826Z" fill="#757575"/>
</g>
<defs>
<filter id="filter0_d_740_2759" x="0.0460702" y="0.25359" width="351.608" height="79.5356" filterUnits="userSpaceOnUse" color-interpolation-filters="sRGB">
<feFlood flood-opacity="0" result="BackgroundImageFix"/>
<feColorMatrix in="SourceAlpha" type="matrix" values="0 0 0 0 0 0 0 0 0 0 0 0 0 0 0 0 0 0 127 0" result="hardAlpha"/>
<feOffset dx="1.73848" dy="1.73848"/>
<feGaussianBlur stdDeviation="4.34621"/>
<feComposite in2="hardAlpha" operator="out"/>
<feColorMatrix type="matrix" values="0 0 0 0 0.313726 0 0 0 0 0.607843 0 0 0 0 0.972549 0 0 0 1 0"/>
<feBlend mode="normal" in2="BackgroundImageFix" result="effect1_dropShadow_740_2759"/>
<feBlend mode="normal" in="SourceGraphic" in2="effect1_dropShadow_740_2759" result="shape"/>
</filter>
</defs>
</svg>
