<svg width="763" height="152" viewBox="0 0 763 152" fill="none" xmlns="http://www.w3.org/2000/svg">
<path d="M458.885 30.1073C458.311 29.4702 459.72 29.8353 459.885 29.8906C465.554 31.7923 470.46 35.1813 475.84 37.6906C480.192 39.7204 484.715 41.4198 489.374 42.5962C490.758 42.9457 492.164 43.1766 493.551 43.5073C493.585 43.5152 494.363 43.7949 494.363 43.6351C494.363 43.294 494.021 42.7307 493.924 42.4295C493.345 40.6461 492.986 38.8005 492.396 37.0184C490.484 31.2404 487.026 26.2627 483.663 21.2517C481.179 17.5506 478.753 13.8511 476.374 10.0851C476.151 9.73245 475.607 8.67908 475.607 9.09617C475.607 9.71229 475.917 10.4207 475.963 11.0517C476.102 12.9979 475.922 14.9576 475.763 16.8962C475.426 20.9894 474.965 25.0672 474.49 29.1462C473.762 35.4054 473.337 41.6927 472.607 47.9517C472.552 48.4219 472.386 48.9819 472.84 48.4517C477.482 43.0368 481.923 37.4634 486.368 31.8851C488.896 28.7125 492.789 23.8099 495.501 20.3295C496.229 19.3965 497.192 18.8766 496.485 18.9073C496.107 18.9237 495.729 19.0488 495.385 19.1962C494.26 19.6782 493.194 20.331 492.124 20.9184C489.305 22.4659 486.47 23.9421 483.496 25.1739C477.901 27.4912 472.138 29.4822 466.229 30.8295C463.262 31.5062 460.36 32.0894 457.474 33.0851C456.928 33.2733 454.157 34.6798 453.685 34.2073" stroke="#419AFF" stroke-width="3" stroke-linecap="round"/>
<path d="M68.3011 65.2L67.3411 68.368H73.7731L72.8451 65.2C72.0451 62.64 71.3411 60.016 70.6371 57.36H70.4771C69.8051 60.048 69.0691 62.64 68.3011 65.2ZM60.6851 78L68.4931 54.416H72.7811L80.5891 78H76.6531L74.6691 71.28H66.4771L64.4611 78H60.6851ZM82.7353 78V54.416H86.4473V78H82.7353ZM107.766 62.8V59.12H100.694V62.8H107.766ZM111.03 52.784V65.424H97.3978V52.784H100.694V56.592H107.766V52.784H111.03ZM103.606 75.056V77.616H119.926V80.208H100.374V72.624H115.702V70.224H100.31V67.664H118.966V75.056H103.606ZM118.966 57.488H123.03V60.208H118.966V66.384H115.67V51.568H118.966V57.488ZM135.059 68.208V74.416H140.755V68.208H135.059ZM134.579 56.72V65.552H141.235V56.72H134.579ZM144.019 74.416H151.091V77.136H124.883V74.416H131.763V68.208H127.123V65.552H131.283V56.72H127.027V54.064H148.755V56.72H144.499V65.552H148.659V68.208H144.019V74.416ZM174.276 74.288H185.764V77.008H159.588V74.288H170.98V67.472H162.788V53.744H182.564V56.4H166.084V64.816H182.82V67.472H174.276V74.288ZM201.09 55.28C196.93 55.28 194.21 56.688 194.21 59.024C194.21 61.392 196.93 62.8 201.09 62.8C205.218 62.8 207.938 61.392 207.938 59.024C207.938 56.688 205.218 55.28 201.09 55.28ZM201.09 65.456C194.978 65.456 190.818 62.96 190.818 59.024C190.818 55.12 194.978 52.624 201.09 52.624C207.17 52.624 211.33 55.12 211.33 59.024C211.33 62.96 207.17 65.456 201.09 65.456ZM214.242 67.92V70.64H202.69V80.464H199.394V70.64H188.034V67.92H214.242ZM218.079 54.288H231.647V73.392H218.079V54.288ZM228.415 56.912H221.311V70.736H228.415V56.912ZM236.991 51.536H240.319V80.528H236.991V51.536ZM287.991 64.496V67.152H277.559V54.096H287.703V56.784H280.855V64.496H287.991ZM276.023 63.696L276.311 66.416C273.271 67.056 270.679 67.152 267.543 67.152H265.847V54.128H275.767V56.816H269.143V64.432C271.511 64.368 273.623 64.208 276.023 63.696ZM278.359 74.224H289.879V76.944H263.703V74.224H275.063V68.496H278.359V74.224ZM308.981 63.92L309.333 66.608C304.981 67.376 301.205 67.536 295.669 67.536H293.333V59.056H303.125V55.952H293.269V53.296H306.389V61.552H296.565V64.848C301.525 64.816 305.013 64.656 308.981 63.92ZM305.397 77.936C309.461 77.936 311.797 76.944 311.797 75.088C311.797 73.264 309.461 72.272 305.397 72.272C301.301 72.272 298.997 73.264 298.997 75.088C298.997 76.944 301.301 77.936 305.397 77.936ZM305.397 69.712C311.381 69.712 315.029 71.696 315.029 75.088C315.029 78.48 311.381 80.464 305.397 80.464C299.413 80.464 295.765 78.48 295.765 75.088C295.765 71.696 299.413 69.712 305.397 69.712ZM314.741 58.576H318.837V61.296H314.741V68.944H311.445V51.536H314.741V58.576ZM344.946 64.496V67.152H334.514V54.096H344.658V56.784H337.81V64.496H344.946ZM332.978 63.696L333.266 66.416C330.226 67.056 327.634 67.152 324.498 67.152H322.802V54.128H332.722V56.816H326.098V64.432C328.466 64.368 330.578 64.208 332.978 63.696ZM335.314 74.224H346.834V76.944H320.658V74.224H332.018V68.496H335.314V74.224ZM365.936 63.92L366.288 66.608C361.936 67.376 358.16 67.536 352.624 67.536H350.288V59.056H360.08V55.952H350.224V53.296H363.344V61.552H353.52V64.848C358.48 64.816 361.968 64.656 365.936 63.92ZM362.352 77.936C366.416 77.936 368.752 76.944 368.752 75.088C368.752 73.264 366.416 72.272 362.352 72.272C358.256 72.272 355.952 73.264 355.952 75.088C355.952 76.944 358.256 77.936 362.352 77.936ZM362.352 69.712C368.336 69.712 371.984 71.696 371.984 75.088C371.984 78.48 368.336 80.464 362.352 80.464C356.368 80.464 352.72 78.48 352.72 75.088C352.72 71.696 356.368 69.712 362.352 69.712ZM371.696 58.576H375.792V61.296H371.696V68.944H368.4V51.536H371.696V58.576ZM392.749 67.824L389.517 67.536C390.253 63.056 390.317 59.696 390.317 57.264H378.861V54.608H393.549V56.528C393.549 59.056 393.549 62.704 392.749 67.824ZM386.285 62.896V71.536C389.293 71.408 392.333 71.216 395.149 70.864L395.309 73.264C389.357 74.256 382.733 74.384 377.677 74.384L377.325 71.664C379.085 71.664 381.037 71.632 383.053 71.6V62.896H386.285ZM404.269 63.44V66.224H400.013V80.464H396.685V51.568H400.013V63.44H404.269ZM429.406 54.416V57.04H412.35V54.416H419.23V51.344H422.526V54.416H429.406ZM417.022 63.408C417.022 65.104 418.558 66.128 420.862 66.128C423.166 66.128 424.734 65.104 424.734 63.408C424.734 61.744 423.166 60.72 420.862 60.72C418.558 60.72 417.022 61.744 417.022 63.408ZM427.87 63.408C427.87 66.544 425.054 68.592 420.862 68.592C416.702 68.592 413.854 66.544 413.854 63.408C413.854 60.304 416.702 58.224 420.862 58.224C425.054 58.224 427.87 60.304 427.87 63.408ZM419.678 73.04V77.488H431.646V73.04H419.678ZM416.414 80.112V70.448H434.878V80.112H416.414ZM438.974 58.992V61.712H434.878V68.976H431.582V51.568H434.878V58.992H438.974ZM441.372 54.928H447.836C447.836 61.616 447.068 68.272 443.164 73.968L440.636 72.528C443.9 67.984 444.828 63.12 445.052 57.616H441.372V54.928ZM457.02 62.672V52.24H460.124V79.056H457.02V65.36H453.532C452.892 68.944 451.74 72.464 449.596 75.632L447.036 74.192C450.652 69.104 451.324 63.248 451.42 57.616H448.764V54.928H454.236C454.236 57.424 454.172 60.048 453.884 62.672H457.02ZM462.492 51.536H465.628V80.496H462.492V51.536ZM80.4611 121.568L79.0851 124.064C75.7251 123.296 73.2931 121.664 72.0451 119.424C70.7971 121.856 68.3651 123.712 64.9091 124.512L63.5011 121.984C67.8531 121.024 70.2851 118.464 70.2851 115.584V114.304H73.7091V115.584C73.7091 118.304 76.2051 120.672 80.4611 121.568ZM70.6371 132.256V128.576C67.8211 128.704 65.1331 128.704 62.7651 128.704L62.3811 126.016C67.7251 126.016 74.8291 125.984 80.9731 125.184L81.2291 127.552C78.8291 127.968 76.3651 128.256 73.9331 128.384V132.256H70.6371ZM82.7651 139.488V136.864H69.9971V139.488H82.7651ZM82.7651 134.304V131.552H86.0611V142.112H66.7331V131.552H69.9971V134.304H82.7651ZM82.7331 113.568H86.0611V130.208H82.7331V113.568ZM110.763 119.104V118.944H93.5146V116.256H114.091V119.104C114.091 122.688 114.091 126.688 112.971 132.672L109.643 132.32C110.763 126.656 110.763 122.56 110.763 119.104ZM103.851 135.968H116.907V138.688H90.7946V135.968H100.523V125.792H103.851V135.968ZM131.324 132.96V125.92H128.636V132.96H131.324ZM131.324 123.296V116.224H134.044V135.616H125.884V116.224H128.636V123.296H131.324ZM140.796 132.96V125.92H138.14V132.96H140.796ZM140.796 123.296V116.224H143.516V135.616H135.42V116.224H138.14V123.296H140.796ZM152.252 124.608V127.328H148.828V142.496H145.596V113.568H148.828V124.608H152.252ZM173.785 122.176V118.336H157.081V115.648H177.049V124.8H160.377V128.832H177.689V131.52H157.145V122.176H173.785ZM153.977 136.288H180.153V139.008H153.977V136.288ZM197.943 125.056V114.272H201.047V141.088H197.943V127.712H192.631C190.935 131.04 188.183 133.952 184.183 136.352L182.295 134.016C188.311 130.432 191.159 125.696 191.639 119.776H183.671V117.12H194.903C194.903 119.936 194.519 122.592 193.687 125.056H197.943ZM203.991 113.568H207.159V142.464H203.991V113.568ZM228.52 124.8V121.12H221.448V124.8H228.52ZM231.784 114.784V127.424H218.152V114.784H221.448V118.592H228.52V114.784H231.784ZM224.36 137.056V139.616H240.68V142.208H221.128V134.624H236.456V132.224H221.064V129.664H239.72V137.056H224.36ZM239.72 119.488H243.784V122.208H239.72V128.384H236.424V113.568H239.72V119.488ZM255.813 130.208V136.416H261.509V130.208H255.813ZM255.333 118.72V127.552H261.989V118.72H255.333ZM264.773 136.416H271.845V139.136H245.637V136.416H252.517V130.208H247.877V127.552H252.037V118.72H247.781V116.064H269.509V118.72H265.253V127.552H269.413V130.208H264.773V136.416ZM293.731 118.496V116.544H277.379V114.272H296.995V120.64H280.675V122.688H297.507V124.992H277.443V118.496H293.731ZM280.451 137.664V139.872H297.955V142.144H277.187V135.52H293.827V133.472H277.123V131.2H297.091V137.664H280.451ZM274.083 126.816H300.291V129.248H274.083V126.816ZM311.444 126.464L310.196 123.84C315.636 123.2 319.38 120.512 319.636 117.568H311.22V114.912H332.564V117.568H324.084C324.34 120.512 328.148 123.2 333.556 123.84L332.34 126.464C327.316 125.824 323.412 123.52 321.844 120.32C320.308 123.52 316.436 125.824 311.444 126.464ZM315.284 133.664V139.232H332.084V141.92H311.988V133.664H315.284ZM308.788 128.224H334.996V130.88H323.796V136.32H320.5V130.88H308.788V128.224ZM357.745 113.536H361.073V142.528H357.745V113.536ZM338.833 115.936H342.097V123.296H349.425V115.936H352.721V135.648H338.833V115.936ZM342.097 125.92V132.992H349.425V125.92H342.097ZM372.815 133.248C374.767 133.248 376.143 131.68 376.143 129.28C376.143 126.88 374.767 125.28 372.815 125.28C370.863 125.28 369.487 126.88 369.487 129.28C369.487 131.68 370.863 133.248 372.815 133.248ZM372.815 122.56C376.463 122.56 379.087 125.28 379.087 129.28C379.087 133.248 376.463 136 372.815 136C369.167 136 366.543 133.248 366.543 129.28C366.543 125.28 369.167 122.56 372.815 122.56ZM374.447 114.4V118.272H379.855V120.928H365.711V118.272H371.183V114.4H374.447ZM387.247 113.568H390.383V142.464H387.247V128.256H384.175V141.12H381.103V114.176H384.175V125.536H387.247V113.568ZM403.66 129.952V136.224H410.956V129.92C409.836 130.208 408.588 130.336 407.308 130.336C406.028 130.336 404.78 130.208 403.66 129.952ZM407.308 117.824C402.924 117.824 399.884 119.744 399.884 122.784C399.884 125.856 402.924 127.776 407.308 127.776C411.66 127.776 414.7 125.856 414.7 122.784C414.7 119.744 411.66 117.824 407.308 117.824ZM414.252 136.224H420.428V138.912H394.252V136.224H400.364V128.704C398.06 127.424 396.684 125.344 396.684 122.784C396.684 118.176 401.132 115.232 407.308 115.232C413.452 115.232 417.932 118.176 417.932 122.784C417.932 125.344 416.556 127.392 414.252 128.704V136.224Z" fill="#424242"/>
<path d="M222.627 87.7046C222.467 87.6994 222.307 87.6942 222.147 87.689C221.068 87.401 220.136 87.1901 219.73 87.7187C219.107 87.5901 218.479 87.4974 218.065 87.5742C217.816 87.6203 217.639 87.7228 217.527 87.9179C217.361 87.9486 217.201 87.9434 216.958 87.9535C216.793 87.9843 216.633 87.9791 216.39 87.9892C215.85 87.8452 215.382 87.7577 215.33 88.0811C214.47 87.9267 213.676 87.8648 213.161 88.0647C212.99 88.1314 212.89 88.2545 212.789 88.3777C212.784 88.4136 212.784 88.4136 212.707 88.393C212.707 88.393 212.63 88.3725 212.624 88.4084C211.533 88.1923 210.447 87.9403 209.892 88.3917C209.81 88.4071 209.732 88.3865 209.655 88.366C209.198 88.2066 208.736 88.0832 208.47 88.2371C208.464 88.273 208.381 88.2884 208.375 88.3243C208.37 88.3602 208.293 88.3397 208.215 88.3191C208.138 88.2985 208.133 88.3345 208.055 88.3139C207.895 88.3087 207.735 88.3035 207.647 88.3548C207.333 88.3084 207.09 88.3186 206.776 88.2722C204.859 87.6862 203.599 88.0244 202.076 87.9929C201.033 87.977 199.77 87.8276 199.364 88.3561C198.979 88.2532 198.67 88.171 198.499 88.2376C198.41 88.2889 198.321 88.3402 198.304 88.448C197.764 88.304 197.225 88.1601 197.167 88.5194C196.936 88.4576 196.781 88.4165 196.621 88.4113C196.538 88.4267 196.384 88.3855 196.301 88.4009C196.213 88.4522 196.124 88.5035 196.101 88.6472C195.561 88.5032 195.021 88.3592 194.964 88.7185C193.644 88.9284 192.258 89.0458 190.592 88.9013C190.01 88.5212 189.904 88.6803 189.87 88.8959C189.627 88.906 189.384 88.9162 189.141 88.9263C189.07 88.8698 188.992 88.8493 188.921 88.7928C188.915 88.8287 188.91 88.8646 188.898 88.9365C188.815 88.9518 188.738 88.9313 188.661 88.9107C188.05 88.7102 187.427 88.5816 187.013 88.6584C186.847 88.6891 186.758 88.7404 186.587 88.8071C186.344 88.8172 186.03 88.7709 185.787 88.781C184.304 88.498 183.036 88.3845 181.822 88.4353C181.093 88.4657 180.436 88.5527 179.773 88.6756C179.21 88.6753 178.724 88.6957 178.156 88.7313C176.928 88.3663 176.033 88.4275 175.347 88.6941C175.259 88.7454 175.17 88.7967 175.081 88.848C174.513 88.8836 173.938 88.9552 173.293 88.9703C172.984 88.8881 172.753 88.8264 172.516 88.8006C172.439 88.78 172.433 88.8159 172.356 88.7954C172.19 88.8261 172.179 88.898 172.156 89.0417C171.841 88.9953 171.456 88.8925 171.142 88.8462C170.904 88.8204 170.744 88.8152 170.584 88.81C170.424 88.8048 170.342 88.8201 170.253 88.8714C170.164 88.9227 170.076 88.974 169.981 89.0612C169.056 88.8144 168.267 88.7165 167.61 88.8035C167.527 88.8188 167.362 88.8495 167.279 88.8649C167.19 88.9162 167.107 88.9316 167.019 88.9829C166.776 88.993 166.462 88.9467 166.219 88.9568C164.351 88.571 162.614 88.37 161.265 88.7595C161.105 88.7543 160.945 88.7491 160.785 88.7439C160.097 88.5228 159.545 88.4507 159.059 88.471C158.811 88.5171 158.556 88.5991 158.302 88.6811C157.728 88.7527 157.153 88.8243 156.656 88.9165C155.962 88.7314 155.185 88.5616 154.902 88.8233C154.819 88.8387 154.808 88.9105 154.796 88.9824C154.79 89.0183 154.79 89.0183 154.713 88.9977C154.713 88.9977 154.636 88.9772 154.63 89.0131C154.102 88.7972 153.776 88.8228 153.736 89.0743C153.333 89.0792 153.002 89.1407 152.599 89.1456C152.285 89.0993 151.828 88.9399 151.502 88.9654C151.342 88.9602 151.17 89.0269 151.142 89.2065C150.964 89.3091 150.716 89.3552 150.396 89.3448C150.313 89.3602 150.159 89.319 150.076 89.3344C149.345 88.8772 149.145 89.1235 148.95 89.3339C148.867 89.3492 148.784 89.3646 148.63 89.3235C148.156 89.2719 147.687 89.1844 147.29 89.1534C146.976 89.1071 146.733 89.1172 146.49 89.1274C146.408 89.1428 146.325 89.1581 146.165 89.1529C145.916 89.199 145.667 89.2451 145.407 89.363C144.613 89.3011 143.813 89.275 143.019 89.2131C141.922 89.0329 140.825 88.8527 139.788 88.8009C139.308 88.7853 138.751 88.7491 138.342 88.79C138.1 88.8001 137.857 88.8103 137.685 88.877C137.437 88.923 137.271 88.9538 137.094 89.0563C136.934 89.0511 136.697 89.0254 136.537 89.0202C135.38 88.7116 134.426 88.6445 133.805 89.0035C133.562 89.0137 133.325 88.9879 133.082 88.998C132.251 88.664 131.617 88.6072 131.317 88.9767C131.074 88.9868 130.831 88.997 130.594 88.9712C129.183 88.7447 127.909 88.6671 126.974 88.9798C126.08 89.041 125.125 88.9738 124.1 88.8502C123.743 88.5677 123.577 88.5984 123.406 88.6651C123.4 88.701 123.312 88.7523 123.306 88.7882C123.3 88.8241 123.223 88.8036 123.223 88.8036C123.223 88.8036 123.146 88.783 123.063 88.7984C122.44 88.6697 121.823 88.5052 121.266 88.469C120.946 88.4586 120.621 88.4841 120.36 88.6021C120.2 88.5968 119.963 88.5711 119.803 88.5659C118.487 88.2521 117.235 88.0308 116.372 88.4C116.212 88.3948 116.052 88.3896 115.886 88.4203C115.038 88.1941 114.196 87.9319 113.878 88.4091C113.635 88.4193 113.398 88.3935 113.155 88.4037C112.65 88.0441 112.473 88.1467 112.432 88.3982C111.509 88.639 110.11 88.3407 109.049 88.4326C108.113 88.2576 107.104 88.0262 106.638 88.4263C106.318 88.4159 105.915 88.4209 105.595 88.4105C105.375 88.2769 105.227 88.1998 105.15 88.1793C105.073 88.1587 105.067 88.1946 104.984 88.21C104.978 88.2459 104.978 88.2459 104.973 88.2818C104.967 88.3178 104.955 88.3896 104.95 88.4256C104.944 88.4615 104.944 88.4615 104.867 88.4409L104.79 88.4204C103.936 88.23 103.093 87.9678 102.781 88.4092C101.715 88.537 100.518 88.48 99.3327 88.3511C97.9987 88.1452 96.7302 88.0316 95.4503 87.99C94.9703 87.9744 94.4846 87.9947 93.9989 88.015C93.756 88.0252 93.5132 88.0353 93.3417 88.102C93.1817 88.0967 93.0159 88.1275 92.8559 88.1223C92.6959 88.117 92.536 88.1119 92.2989 88.0861C91.9789 88.0757 91.5818 88.0447 91.1905 87.9778C89.9566 87.6487 88.7941 87.3761 88.0022 87.8018C87.7593 87.8119 87.5222 87.7861 87.2022 87.7757C86.1997 87.5083 85.0717 87.0202 84.6481 87.6565C84.5653 87.6719 84.4824 87.6872 84.3282 87.6461C84.0968 87.5844 83.7884 87.5021 83.6284 87.4969C83.5455 87.5123 83.4684 87.4917 83.3798 87.543C83.2911 87.5943 83.2854 87.6302 83.1967 87.6815C83.0367 87.6763 82.8768 87.6711 82.7168 87.6659C82.337 87.5271 82.0227 87.4808 81.9226 87.6039C81.9168 87.6398 81.8282 87.6911 81.8167 87.763C81.0455 87.5573 80.4884 87.5211 80.348 87.8958C78.9679 87.9773 78.0218 88.3618 76.8673 88.541C76.0133 88.3506 75.1535 88.1963 74.5504 88.4475C73.9104 88.4267 73.2819 88.334 72.7133 88.3696C72.0619 88.4207 71.9272 88.7594 72.0239 89.1599C72.0722 89.3601 72.4348 89.6067 72.749 89.653C73.9403 89.7459 75.1799 90.0391 76.1744 89.8548C77.6661 89.5782 79.2407 89.2864 80.8037 89.0664C84.4156 88.606 88.7607 89.0906 92.9089 89.2978C96.66 89.4741 100.411 89.6503 104.031 89.6417C108.137 89.6128 112.182 89.4555 116.562 89.7245C119.667 89.9159 122.713 89.9789 125.747 90.1137C131.021 90.3215 135.967 90.0671 141.312 90.3313C145.94 90.5542 150.651 90.7617 154.672 90.2605C157.786 89.8923 161.235 89.9504 164.743 90.1368C167.926 90.3487 170.911 90.2834 173.82 90.1974C176.326 90.1165 178.766 89.9431 181.414 89.9751C186.711 90.0391 192.276 90.4369 197.031 89.8693C200.063 89.5165 203.291 89.441 206.728 89.5709C207.208 89.5866 207.688 89.6022 208.168 89.6178C208.157 89.6897 208.151 89.7256 208.217 89.818C208.205 89.8899 208.199 89.9258 208.265 90.0182C207.299 90.0229 206.185 89.9505 205.291 90.0117C199.399 90.6507 193.09 90.8788 186.995 91.2764C177.406 91.9033 167.484 92.1041 157.698 92.4538C152.36 92.6413 146.767 92.4231 141.435 92.5746C137.312 92.7113 133.249 92.9764 128.847 92.8512C124.604 92.7311 120.641 92.8731 116.744 93.1074C114.475 93.2141 112.272 93.4133 109.795 93.3147C109.635 93.3095 109.469 93.3402 109.309 93.335C108.989 93.3245 108.669 93.3141 108.344 93.3397C108.184 93.3345 108.024 93.3292 107.864 93.324C104.658 93.2558 101.524 93.2441 98.3185 93.1759C98.2414 93.1553 98.1643 93.1348 98.1643 93.1348C98.01 93.0936 97.9271 93.109 97.8327 93.1962C96.3756 93.2571 94.9127 93.354 93.4555 93.4149C91.9983 93.4759 90.4698 93.4803 88.8756 93.3923C88.65 93.2947 88.4843 93.3254 88.3128 93.392C86.5587 93.2988 84.8103 93.1697 82.979 93.0559C82.4392 92.9119 81.8338 92.6755 81.4851 92.8448C81.4022 92.8601 81.3964 92.8961 81.3078 92.9473C80.105 92.9263 78.9793 92.9257 77.7765 92.9046C76.6911 92.6526 75.6656 92.5289 75.1936 92.9651C75.1879 93.001 75.105 93.0164 75.0279 92.9958C74.8622 93.0265 74.7022 93.0213 74.5364 93.052C74.2935 93.0622 74.1278 93.0929 73.8907 93.0671C73.4338 92.9078 73.108 92.9333 73.0677 93.1848C72.9849 93.2002 72.9791 93.2361 72.8249 93.195C72.6649 93.1898 72.4991 93.2205 72.3391 93.2153C72.0191 93.2049 71.7705 93.251 71.4506 93.2405C71.3735 93.22 71.2963 93.1994 71.2192 93.1788C71.065 93.1377 70.9763 93.189 70.8935 93.2043C70.8877 93.2403 70.8049 93.2556 70.7991 93.2916C70.7934 93.3275 70.7162 93.3069 70.7105 93.3429C70.6333 93.3223 70.6276 93.3582 70.5505 93.3377C70.0107 93.1937 69.5422 93.1062 69.2107 93.1676C68.9679 93.1778 68.7963 93.2444 68.6904 93.4035C68.5189 93.4702 68.2703 93.5163 68.0217 93.5623C67.7788 93.5725 67.4589 93.5621 67.1447 93.5158C65.5851 93.2122 64.0197 92.9445 62.9136 93.3239C62.5994 93.2775 62.3622 93.2517 62.0422 93.2413C61.5197 92.9896 61.1997 92.9791 61.0823 93.2101C60.028 93.2661 58.7193 93.4041 59.4099 94.1128C60.1005 94.8215 61.5519 94.7965 62.7317 94.9613C64.1485 95.1519 65.4457 95.0857 66.8569 95.3123C66.9167 95.4406 66.8937 95.5843 66.9535 95.7127C66.4563 95.8049 65.8819 95.8765 65.3847 95.9686C65.3018 95.984 65.2132 96.0353 65.0532 96.0301C64.4017 96.0811 63.7445 96.1681 63.093 96.2191C62.7903 96.1009 62.6304 96.0957 62.4704 96.0905C62.3104 96.0853 62.216 96.1725 62.1929 96.3162C61.3331 96.1618 60.4561 96.1152 59.8046 96.1663C59.396 96.2071 58.9817 96.2839 58.6387 96.4173C58.4015 96.3915 58.0816 96.3811 57.8445 96.3553C57.3392 95.9957 57.239 96.1189 57.1274 96.3139C55.8302 96.38 54.4018 96.2613 52.9734 96.1426C52.3565 95.978 51.6797 95.6851 51.3137 95.9622C50.5793 96.0285 49.4594 95.9921 50.0015 96.6237C50.5494 97.2195 51.3412 96.7938 52.0295 97.0148C52.2609 97.0765 52.4324 97.0099 52.6695 97.0356C57.5544 97.6642 62.0456 97.7381 66.066 97.2369C69.9208 96.7664 73.7099 96.2035 78.2552 96.4417C81.6863 96.6075 85.0692 96.5732 88.0952 96.2563C90.4697 95.9904 93.5118 96.5771 95.8035 96.3266C98.0894 96.112 100.495 96.1542 103.174 96.4942C106.014 96.8395 108.52 96.7585 111.025 96.6775C116.208 96.4489 121.386 96.2562 127.176 96.7517C131.224 97.0821 134.593 96.6319 138.099 96.3306C140.871 96.0958 143.363 95.599 146.546 95.8109C149.491 95.9971 152.442 96.1473 155.268 96.0767C158.011 96.0215 160.539 95.7968 163.211 95.6851C166.605 95.5789 170.399 95.9913 174.073 96.147C174.607 96.3269 175.147 96.4709 175.282 96.1322C179.195 96.8013 182.743 96.7362 186.209 96.6865C189.752 96.6573 193.42 96.8489 197.023 96.9481C200.46 97.078 203.885 97.2798 207.262 97.2813C209.431 97.2977 211.26 96.9238 213.268 96.935C218.008 96.9629 222.289 96.3437 227.499 96.9467C228.839 97.1167 229.108 96.4393 229.046 95.8232C228.978 95.2432 227.804 95.0424 226.95 94.8521C226.622 94.39 225.928 94.2048 225.3 94.1122C225.063 94.0864 224.748 94.04 224.505 94.0502C224.268 94.0244 223.948 94.014 223.711 93.9882C223.551 93.983 223.468 93.9984 223.308 93.9932C223.148 93.988 222.906 93.9981 222.74 94.0288C222.574 94.0596 222.408 94.0903 222.243 94.121C221.774 94.0335 221.229 93.9255 220.766 93.8021C220.694 93.7456 220.623 93.6891 220.623 93.6891C220.617 93.725 220.612 93.7609 220.606 93.7969C220.054 93.7247 219.497 93.6886 218.869 93.5959C218.721 93.5188 218.638 93.5342 218.561 93.5136C218.478 93.529 218.395 93.5443 218.383 93.6162C217.578 93.6261 216.7 93.5795 215.895 93.5894C215.089 93.5993 214.212 93.5526 213.406 93.5625C210.426 93.592 207.632 93.9706 204.384 93.6662C204.152 93.6045 203.927 93.5069 203.69 93.4811C203.452 93.4553 203.287 93.486 203.187 93.6092C202.867 93.5988 202.475 93.5318 202.155 93.5214C201.995 93.5162 201.835 93.511 201.598 93.4853C199.104 93.4944 196.365 93.026 193.936 93.1275C189.724 93.3155 185.364 93.4264 181.081 93.5579C180.867 93.3884 180.73 93.2395 180.511 93.1059C180.759 93.0599 181.014 92.9778 181.262 92.9318C186.314 92.5183 191.848 92.6081 196.894 92.2306C200.394 91.9652 203.763 91.5151 207.549 91.4758C210.209 91.4359 212.934 91.4885 215.315 91.1867C218.269 90.8134 220.576 89.9674 223.382 89.517C224.785 89.2918 225.043 88.6862 224.387 87.7619C224.239 87.6848 224.09 87.6078 224.019 87.5512C223.942 87.5307 223.942 87.5307 223.865 87.5101C223.787 87.4896 223.787 87.4896 223.71 87.469C223.259 87.2737 222.91 87.4429 222.627 87.7046Z" fill="#419AFF"/>
<path d="M230.547 96.8747C237.994 93.7679 244.221 90.1834 249.099 86.2977C253.976 82.4121 257.504 78.2253 259.478 73.8751C261.36 69.5579 261.762 65.1161 260.109 60.8193C258.256 55.6822 253.534 50.9149 247.275 46.5645C241.071 42.3247 233.423 38.4688 224.719 35.119C217.253 32.1752 208.843 29.6328 199.987 27.5095C191.131 25.3861 181.645 23.7478 171.861 22.6061C162.151 21.5032 152.125 20.9689 142.023 21.0478C131.829 21.1596 121.632 21.9234 111.988 23.4675C101.919 25.0328 92.5687 27.3842 84.1604 30.3122C75.7521 33.2403 68.3782 36.7119 62.4279 40.5235C56.385 44.3681 51.6731 48.5856 48.4961 53.0383C45.3191 57.4911 43.936 62.1519 44.0889 66.7219C44.223 71.3638 46.0409 75.9924 49.1916 80.342C52.3975 84.8023 57.0103 89.0222 62.9007 92.8525C68.8464 96.7934 76.1437 100.383 84.4232 103.428C93.6268 106.796 104.313 109.31 116.206 110.417C127.119 111.417 138.59 111.242 149.693 110.546C153.449 110.316 157.317 109.981 161.019 109.641C165.33 109.539 169.678 109.294 173.972 108.938C184.52 108.114 194.885 106.704 204.493 104.651C214.083 102.671 222.915 100.047 230.547 96.8747ZM182.328 104.921C175.127 106.117 167.65 107.085 160.154 107.799C153.974 107.98 147.684 107.939 141.45 107.683C119.418 106.799 96.8934 103.288 81.0575 96.6801C66.2748 90.5441 59.4739 81.8273 59.0007 73.0074C58.2881 63.8168 63.515 54.4007 72.5133 45.9869C77.4301 41.3056 83.8818 36.8596 92.2557 33.0971C99.666 29.8079 108.665 27.1905 118.661 25.5864C119.457 25.4333 120.327 25.319 121.104 25.2377C128.673 24.5625 136.408 24.2191 144.141 24.2017C145.307 24.2428 146.38 24.3168 147.526 24.4296C148.1 24.486 148.544 24.393 148.914 24.2612C155.02 24.3676 161.142 24.7282 167.061 25.2265C186.926 27.0132 205.211 31.3163 218.846 37.6655C232.925 44.2476 242.224 52.7264 244.491 61.7544C246.741 70.5282 241.607 79.5853 230.946 87.2885C225.662 91.1235 218.954 94.6187 211.138 97.5313C202.581 100.708 192.786 103.152 182.328 104.921ZM115.361 108.503C103.893 107.375 93.9105 104.741 85.1876 101.463C77.3889 98.5072 70.6462 95.0454 64.9961 91.2598C54.2319 83.8887 48.023 75.1566 47.9754 66.3154C47.9465 57.4025 54.4296 48.6465 66.3666 41.2057C74.4852 36.1663 85.0254 31.828 97.1163 28.6312C94.1717 29.6143 91.5413 30.6809 89.0587 31.8252C80.481 35.7254 73.8253 40.3092 68.7785 45.167C64.0656 49.7105 60.4807 54.4387 58.0426 59.2797C55.7532 63.8724 54.6845 68.6167 55.1516 73.2703C55.6375 77.8521 57.5666 82.376 61.3282 86.6384C65.3114 91.0174 71.4974 95.0029 79.3877 98.2515C88.1096 101.855 98.851 104.48 110.113 106.398C118.323 107.774 126.905 108.693 135.747 109.258C128.753 109.337 122.001 109.136 115.361 108.503ZM202.129 103.083C200.167 103.521 198.149 103.848 196.113 104.247C202.815 102.708 209.019 100.826 214.705 98.6714C222.651 95.5822 229.582 91.8775 234.904 87.8989C240.318 83.8872 244.309 79.5356 246.579 75.0147C248.869 70.4221 249.419 65.7319 248.12 61.049C246.82 56.3661 243.652 51.7623 238.946 47.5753C234.334 43.3553 228.129 39.4416 220.609 36.0611C219.482 35.5504 218.281 35.0009 217.061 34.5232C219.057 35.2456 221.053 35.9681 223.03 36.7623C239.422 43.1724 252.995 51.693 256.444 61.3423C259.343 69.5593 254.748 78.1645 245.345 85.5497C235.461 93.1715 220.346 99.2686 202.129 103.083Z" fill="#419AFF"/>
<path d="M65.9231 11.13C67.3271 11.13 68.3171 9.6 68.3171 7.062C68.3171 4.524 67.3271 2.994 65.9231 2.994C64.5011 2.994 63.5291 4.524 63.5291 7.062C63.5291 9.6 64.5011 11.13 65.9231 11.13ZM65.9231 1.32C68.3531 1.32 70.0991 3.552 70.0991 7.062C70.0991 10.572 68.3531 12.786 65.9231 12.786C63.4931 12.786 61.7471 10.572 61.7471 7.062C61.7471 3.552 63.4931 1.32 65.9231 1.32ZM76.7231 6.486V8.016H74.1851V16.404H72.3311V0.131999H74.1851V6.486H76.7231ZM88.6737 5.928V2.472H81.2397V5.928H88.6737ZM90.5097 0.995999V7.422H79.4037V0.995999H90.5097ZM92.3457 9.42V10.914H85.8477V16.386H83.9937V10.914H77.6037V9.42H92.3457ZM96.4302 7.602V11.022C99.0042 11.004 101.254 10.878 103.828 10.464L104.026 11.976C101.236 12.462 98.8062 12.552 95.9442 12.552H94.5582V6.108H100.228V3.084H94.5222V1.572H102.1V7.602H96.4302ZM105.178 0.0959988H107.05V16.422H105.178V0.0959988ZM117.122 11.202C118.22 11.202 118.994 10.32 118.994 8.97C118.994 7.62 118.22 6.72 117.122 6.72C116.024 6.72 115.25 7.62 115.25 8.97C115.25 10.32 116.024 11.202 117.122 11.202ZM117.122 5.19C119.174 5.19 120.65 6.72 120.65 8.97C120.65 11.202 119.174 12.75 117.122 12.75C115.07 12.75 113.594 11.202 113.594 8.97C113.594 6.72 115.07 5.19 117.122 5.19ZM118.04 0.6V2.778H121.082V4.272H113.126V2.778H116.204V0.6H118.04ZM125.24 0.131999H127.004V16.386H125.24V8.394H123.512V15.63H121.784V0.473999H123.512V6.864H125.24V0.131999ZM137.442 12.912H143.904V14.442H129.18V12.912H135.588V9.078H130.98V1.356H142.104V2.85H132.834V7.584H142.248V9.078H137.442V12.912ZM151.132 10.572H162.094V16.404H160.24V12.084H151.132V10.572ZM160.24 0.131999H162.094V9.744H160.24V0.131999ZM153.328 1.068C155.794 1.068 157.63 2.67 157.63 4.974C157.63 7.278 155.794 8.88 153.328 8.88C150.844 8.88 149.008 7.278 149.008 4.974C149.008 2.67 150.844 1.068 153.328 1.068ZM153.328 2.634C151.87 2.634 150.826 3.552 150.826 4.974C150.826 6.396 151.87 7.314 153.328 7.314C154.768 7.314 155.83 6.396 155.83 4.974C155.83 3.552 154.768 2.634 153.328 2.634ZM178.617 5.154L177.933 6.594C175.305 6.216 173.109 4.956 172.065 3.246C171.021 4.974 168.825 6.216 166.179 6.594L165.513 5.154C168.717 4.74 171.111 2.904 171.111 0.959999V0.348H173.019V0.959999C173.019 2.868 175.413 4.74 178.617 5.154ZM179.409 9.186H172.965V11.04H177.609V16.404H175.755V12.534H166.341V11.04H171.111V9.186H164.703V7.692H179.409V9.186ZM184.699 11.202C185.797 11.202 186.571 10.32 186.571 8.97C186.571 7.62 185.797 6.72 184.699 6.72C183.601 6.72 182.827 7.62 182.827 8.97C182.827 10.32 183.601 11.202 184.699 11.202ZM184.699 5.19C186.751 5.19 188.227 6.72 188.227 8.97C188.227 11.202 186.751 12.75 184.699 12.75C182.647 12.75 181.171 11.202 181.171 8.97C181.171 6.72 182.647 5.19 184.699 5.19ZM185.617 0.6V2.778H188.659V4.272H180.703V2.778H183.781V0.6H185.617ZM192.817 0.131999H194.581V16.386H192.817V8.394H191.089V15.63H189.361V0.473999H191.089V6.864H192.817V0.131999ZM202.752 3.282V4.83C202.752 7.53 204.426 10.338 206.964 11.418L205.938 12.876C204.048 12.048 202.59 10.284 201.834 8.178C201.114 10.446 199.656 12.372 197.748 13.29L196.686 11.814C199.206 10.644 200.88 7.62 200.88 4.83V3.282H197.262V1.752H206.37V3.282H202.752ZM208.26 0.131999H210.132V16.386H208.26V0.131999ZM218.77 3.282V4.83C218.77 7.53 220.444 10.338 222.982 11.418L221.956 12.876C220.066 12.048 218.608 10.284 217.852 8.178C217.132 10.446 215.674 12.372 213.766 13.29L212.704 11.814C215.224 10.644 216.898 7.62 216.898 4.83V3.282H213.28V1.752H222.388V3.282H218.77ZM224.278 0.131999H226.15V16.386H224.278V0.131999ZM234.296 4.776C234.296 6.108 235.358 7.026 236.762 7.026C238.166 7.026 239.228 6.108 239.228 4.776C239.228 3.426 238.166 2.508 236.762 2.508C235.358 2.508 234.296 3.426 234.296 4.776ZM241.028 4.776C241.028 6.972 239.21 8.556 236.762 8.556C234.314 8.556 232.496 6.972 232.496 4.776C232.496 2.562 234.314 0.995999 236.762 0.995999C239.21 0.995999 241.028 2.562 241.028 4.776ZM235.664 9.852V14.442C236.6 14.388 237.626 14.244 238.598 13.92L238.904 15.396C237.428 15.9 236.024 15.972 234.71 15.972H233.864V9.852H235.664ZM242.396 15.108C243.206 15.108 243.818 14.73 243.818 14.1C243.818 13.452 243.206 13.092 242.396 13.092C241.568 13.092 240.956 13.452 240.956 14.1C240.956 14.73 241.568 15.108 242.396 15.108ZM242.396 11.796C244.178 11.796 245.456 12.696 245.456 14.1C245.456 15.504 244.178 16.404 242.396 16.404C240.596 16.404 239.318 15.504 239.318 14.1C239.318 12.696 240.596 11.796 242.396 11.796ZM243.296 8.61V9.942H246.464V11.292H238.31V9.942H241.496V8.61H243.296ZM244.988 3.66H247.292V5.19H244.988V8.178H243.134V0.131999H244.988V3.66ZM261.366 4.794V6.306H250.206V0.707999H252.06V4.794H261.366ZM251.952 11.238V14.532H261.456V16.026H250.098V11.238H251.952ZM248.298 8.25H263.058V9.744H248.298V8.25ZM274.228 6.45V4.38H270.25V6.45H274.228ZM276.064 0.815999V7.926H268.396V0.815999H270.25V2.958H274.228V0.815999H276.064ZM271.888 13.344V14.784H281.068V16.242H270.07V11.976H278.692V10.626H270.034V9.186H280.528V13.344H271.888ZM280.528 3.462H282.814V4.992H280.528V8.466H278.674V0.131999H280.528V3.462ZM289.581 9.492V12.984H292.785V9.492H289.581ZM289.311 3.03V7.998H293.055V3.03H289.311ZM294.621 12.984H298.599V14.514H283.857V12.984H287.727V9.492H285.117V7.998H287.457V3.03H285.063V1.536H297.285V3.03H294.891V7.998H297.231V9.492H294.621V12.984ZM301.351 10.77L301.063 3.57L301.009 1.428H303.097L303.025 3.57L302.737 10.77H301.351ZM302.035 15.234C301.261 15.234 300.667 14.64 300.667 13.794C300.667 12.93 301.261 12.318 302.035 12.318C302.827 12.318 303.439 12.93 303.439 13.794C303.439 14.64 302.827 15.234 302.035 15.234Z" fill="#757575"/>
</svg>
