<svg width="1493" height="300" viewBox="0 0 1493 300" fill="none" xmlns="http://www.w3.org/2000/svg">
<g clip-path="url(#clip0_550_1960)">
<rect width="1493" height="300" fill="#3D6BE1"/>
<path fill-rule="evenodd" clip-rule="evenodd" d="M403.324 306.01C398.969 308.547 393.904 310 388.5 310C372.208 310 359 296.792 359 280.5C359 269.729 364.772 260.306 373.393 255.157C371.853 251.581 371 247.64 371 243.5C371 227.208 384.208 214 400.5 214C401.304 214 402.1 214.032 402.887 214.095C407.094 202.937 417.87 195 430.5 195C436.83 195 442.695 196.994 447.5 200.388C452.305 196.994 458.17 195 464.5 195C478.213 195 489.741 204.357 493.047 217.035C493.529 217.012 494.013 217 494.5 217C510.792 217 524 230.208 524 246.5C524 249.351 523.596 252.107 522.841 254.714C531.884 259.754 538 269.413 538 280.5C538 296.792 524.792 310 508.5 310C504.986 310 501.616 309.386 498.491 308.259C489.881 323.52 472.072 334 451.5 334C429.932 334 411.402 322.481 403.324 306.01Z" fill="#587FE4"/>
<path fill-rule="evenodd" clip-rule="evenodd" d="M1123.77 -13.1088C1128.33 -17.966 1134.81 -21 1142 -21C1155.81 -21 1167 -9.80712 1167 4C1167 9.64838 1165.13 14.8592 1161.97 19.0453C1169.73 23.2871 1175 31.5284 1175 41C1175 50.8029 1169.36 59.288 1161.14 63.3851C1162.97 66.8555 1164 70.8072 1164 75C1164 88.8071 1152.81 100 1139 100C1136.18 100 1133.47 99.5336 1130.94 98.6739C1130.08 111.701 1119.24 122 1106 122C1097.82 122 1090.56 118.073 1086 112.002C1081.44 118.073 1074.18 122 1066 122C1052.63 122 1041.72 111.512 1041.03 98.3178C1038.23 99.4041 1035.19 100 1032 100C1018.19 100 1007 88.8071 1007 75C1007 70.4664 1008.21 66.2146 1010.32 62.5483C1002.95 58.2002 998 50.1777 998 41C998 31.2385 1003.59 22.7836 1011.75 18.667C1008.76 14.5472 1007 9.47948 1007 4C1007 -9.80712 1018.19 -21 1032 -21C1038.92 -21 1045.18 -18.1914 1049.7 -13.6524C1059.18 -24.3817 1072.17 -31 1086.5 -31C1101.07 -31 1114.26 -24.1577 1123.77 -13.1088Z" fill="#587FE4"/>
<path fill-rule="evenodd" clip-rule="evenodd" d="M439.5 -41H409.5V12.2867L371.821 -25.3927L350.607 -4.17947L388.287 33.5H335V63.5H388.287L350.608 101.179L371.821 122.393L409.5 84.7134V138H439.5V84.7131L477.18 122.393L498.393 101.179L460.713 63.5H514V33.5H460.713L498.393 -4.17947L477.18 -25.3927L439.5 12.287V-41Z" fill="#587FE4"/>
<path d="M1021.5 184L909.5 206L874 304.5L899.5 361L1071 354.5L1102 273L1021.5 184Z" fill="#587FE4"/>
<path d="M173.568 109.145L276.058 58.9065L284.854 -45.4253L245.6 -93.4002L81.6259 -42.7342L72.776 44.0121L173.568 109.145Z" fill="#587FE4"/>
<path fill-rule="evenodd" clip-rule="evenodd" d="M1331.5 191H1301.5V244.287L1263.82 206.607L1242.61 227.821L1280.29 265.5H1227V295.5H1280.29L1242.61 333.179L1263.82 354.393L1301.5 316.713V370H1331.5V316.713L1369.18 354.393L1390.39 333.179L1352.71 295.5H1406V265.5H1352.71L1390.39 227.821L1369.18 206.607L1331.5 244.287V191Z" fill="#587FE4"/>
<path fill-rule="evenodd" clip-rule="evenodd" d="M165.5 229H135.5V282.287L97.8206 244.607L76.6074 265.821L114.287 303.5H61V333.5H114.287L76.6076 371.179L97.8208 392.393L135.5 354.713V408H165.5V354.713L203.18 392.393L224.393 371.179L186.713 333.5H240V303.5H186.713L224.393 265.821L203.18 244.607L165.5 282.287V229Z" fill="#587FE4"/>
</g>
<defs>
<clipPath id="clip0_550_1960">
<rect width="1493" height="300" fill="white"/>
</clipPath>
</defs>
</svg>
