<svg width="1279" height="615" viewBox="0 0 1279 615" fill="none" xmlns="http://www.w3.org/2000/svg">
<path d="M9.52 27L8.32 30.96H16.36L15.2 27C14.2 23.8 13.32 20.52 12.44 17.2H12.24C11.4 20.56 10.48 23.8 9.52 27ZM0 43L9.76 13.52H15.12L24.88 43H19.96L17.48 34.6H7.24L4.72 43H0ZM27.5628 43V13.52H32.2028V43H27.5628ZM61.3866 16.12V13.68H40.9466V10.84H65.4666V18.8H45.0666V21.36H66.1066V24.24H41.0266V16.12H61.3866ZM44.7866 40.08V42.84H66.6666V45.68H40.7066V37.4H61.5066V34.84H40.6266V32H65.5866V40.08H44.7866ZM36.8266 26.52H69.5866V29.56H36.8266V26.52ZM96.4878 43C101.968 43 104.808 42.12 104.808 40.2C104.808 38.36 101.968 37.44 96.4878 37.44C91.0478 37.44 88.2078 38.36 88.2078 40.2C88.2078 42.12 91.0478 43 96.4878 43ZM96.4878 34.4C104.368 34.4 108.928 36.4 108.928 40.2C108.928 44.04 104.368 46.08 96.4878 46.08C88.6478 46.08 84.0478 44.04 84.0478 40.2C84.0478 36.4 88.6478 34.4 96.4878 34.4ZM98.6078 28.84H112.848V32.16H80.1678V28.84H94.4478V25.88H84.3678V10.96H108.968V14.12H88.4878V16.84H108.088V19.92H88.4878V22.72H109.208V25.88H98.6078V28.84ZM137.205 14.08V17.36H115.885V14.08H124.485V9.96H128.605V14.08H137.205ZM121.725 25.88C121.725 28.16 123.685 29.52 126.525 29.52C129.405 29.52 131.365 28.16 131.365 25.88C131.365 23.6 129.405 22.24 126.525 22.24C123.685 22.24 121.725 23.6 121.725 25.88ZM135.285 25.88C135.285 30 131.725 32.72 126.525 32.72C121.365 32.72 117.765 30 117.765 25.88C117.765 21.8 121.365 19.04 126.525 19.04C131.725 19.04 135.285 21.8 135.285 25.88ZM125.325 34.96V42.04H145.485V45.4H121.165V34.96H125.325ZM144.045 21.48H149.165V24.88H144.045V37.04H139.925V9.96H144.045V21.48ZM173.346 24.72V15.64H164.546V24.72H173.346ZM177.386 12.32V28H160.466V12.32H177.386ZM187.946 35.64H178.266C178.866 38.92 183.226 42 189.386 42.92L187.906 46C182.426 45.24 178.106 42.72 176.026 39.4C173.946 42.76 169.666 45.16 164.106 45.96L162.586 42.84C168.906 42 173.146 39 173.786 35.64H164.066V32.36H187.946V35.64ZM187.426 18.24H192.546V21.64H187.426V30.4H183.306V9.92H187.426V18.24ZM197.703 25.84L196.463 22.72C203.783 22.2 208.303 19.72 208.783 16.48H198.063V13.24H209.063V9.84H213.183V13.24H224.183V16.48H213.463C213.943 19.72 218.423 22.2 225.783 22.72L224.543 25.84C218.223 25.32 213.383 23.32 211.103 20.16C208.863 23.32 204.023 25.32 197.703 25.84ZM219.463 42.36V37.6H202.783V42.36H219.463ZM227.463 30.84H213.183V34.32H223.503V45.64H198.703V34.32H209.063V30.84H194.783V27.52H227.463V30.84ZM256.22 33.16V28.76H250.7V25.44H256.22V21.64H250.78V18.28H256.22V9.96H260.34V33.16H256.22ZM250.54 13.6V16.88H230.5V13.6H238.62V9.64H242.74V13.6H250.54ZM236.22 25.2C236.22 27.48 238.02 28.84 240.66 28.84C243.34 28.84 245.14 27.48 245.14 25.2C245.14 23 243.34 21.6 240.66 21.6C238.02 21.6 236.22 23 236.22 25.2ZM248.98 25.2C248.98 29.24 245.58 31.96 240.66 31.96C235.78 31.96 232.38 29.24 232.38 25.2C232.38 21.2 235.78 18.48 240.66 18.48C245.58 18.48 248.98 21.2 248.98 25.2ZM248.38 42.92C253.26 42.92 256.18 41.84 256.18 39.8C256.18 37.76 253.26 36.72 248.38 36.72C243.42 36.72 240.5 37.76 240.5 39.8C240.5 41.84 243.42 42.92 248.38 42.92ZM248.38 33.56C255.86 33.56 260.54 35.88 260.54 39.8C260.54 43.76 255.86 46.08 248.38 46.08C240.82 46.08 236.18 43.76 236.18 39.8C236.18 35.88 240.82 33.56 248.38 33.56ZM288.001 24V19.4H279.161V24H288.001ZM292.081 11.48V27.28H275.041V11.48H279.161V16.24H288.001V11.48H292.081ZM282.801 39.32V42.52H303.201V45.76H278.761V36.28H297.921V33.28H278.681V30.08H302.001V39.32H282.801ZM302.001 17.36H307.081V20.76H302.001V28.48H297.881V9.96H302.001V17.36ZM322.118 30.76V38.52H329.238V30.76H322.118ZM321.518 16.4V27.44H329.838V16.4H321.518ZM333.318 38.52H342.158V41.92H309.398V38.52H317.998V30.76H312.198V27.44H317.398V16.4H312.078V13.08H339.238V16.4H333.918V27.44H339.118V30.76H333.318V38.52ZM377.899 17.12V16.68H356.019V13.32H382.019V17.12C382.019 21.64 382.019 26.48 380.739 33.48L376.619 33C377.899 26.4 377.899 21.52 377.899 17.12ZM373.299 37.96H385.419V41.36H352.779V37.96H360.299V26.28H364.379V37.96H369.219V26.28H373.299V37.96ZM407.776 19.04H414.176V9.96H418.296V31.48H414.176V22.4H407.776V19.04ZM409.856 27.08L407.816 30.32C403.816 28.92 400.936 26.08 399.416 22.6C397.816 26.56 394.776 29.76 390.496 31.28L388.376 28C393.976 26 397.216 21.2 397.216 16.24V15.72H389.576V12.4H408.896V15.72H401.376V16.2C401.376 20.72 404.456 25.2 409.856 27.08ZM406.296 42.92C411.376 42.92 414.336 41.64 414.336 39.28C414.336 36.92 411.376 35.64 406.296 35.64C401.136 35.64 398.216 36.92 398.216 39.28C398.216 41.64 401.136 42.92 406.296 42.92ZM406.296 32.44C413.816 32.44 418.456 35 418.456 39.28C418.456 43.6 413.816 46.12 406.296 46.12C398.736 46.12 394.096 43.6 394.096 39.28C394.096 35 398.736 32.44 406.296 32.44Z" fill="#3D6BE1"/>
<g filter="url(#filter0_d_1106_7673)">
<path d="M0 91.46C0 86.7877 3.78767 83 8.46 83H434.706C439.379 83 443.168 86.7887 443.168 91.4623V559.068C443.168 563.742 439.379 567.53 434.706 567.53H8.46227C3.78868 567.53 0 563.742 0 559.068V91.46Z" fill="#FEFEFE" shape-rendering="crispEdges"/>
<path d="M1.18178 91.46C1.18178 87.4403 4.44035 84.1818 8.46 84.1818H434.706C438.727 84.1818 441.986 87.4414 441.986 91.4623V559.068C441.986 563.089 438.727 566.348 434.706 566.348H8.46227C4.44137 566.348 1.18178 563.089 1.18178 559.068V91.46Z" stroke="#88BDFF" stroke-width="2.36356" shape-rendering="crispEdges"/>
<path d="M35.908 118.336V117.13H37.9517V110.631H36.2761V109.704C37.152 109.539 37.774 109.324 38.3071 108.981H39.4114V117.13H41.2393V118.336H35.908ZM43.9469 118.501C43.4011 118.501 42.9695 118.082 42.9695 117.485C42.9695 116.876 43.4011 116.445 43.9469 116.445C44.4927 116.445 44.9243 116.876 44.9243 117.485C44.9243 118.082 44.4927 118.501 43.9469 118.501ZM67.0715 112.307V110.847H64.2662V112.307H67.0715ZM68.3662 108.334V113.347H62.9588V108.334H64.2662V109.844H67.0715V108.334H68.3662ZM65.4213 117.168V118.184H71.895V119.212H64.1393V116.203H70.2194V115.251H64.1139V114.236H71.5142V117.168H65.4213ZM71.5142 110.199H73.1262V111.278H71.5142V113.728H70.2067V107.851H71.5142V110.199ZM78.2788 114.452V116.914H80.5382V114.452H78.2788ZM78.0883 109.895V113.398H80.7286V109.895H78.0883ZM81.8329 116.914H84.6381V117.993H74.2422V116.914H76.9713V114.452H75.1308V113.398H76.7809V109.895H75.0927V108.841H83.7115V109.895H82.0233V113.398H83.6734V114.452H81.8329V116.914ZM89.613 108.651C91.4027 108.651 92.7355 109.781 92.7355 111.405C92.7355 113.03 91.4027 114.16 89.613 114.16C87.8232 114.16 86.5031 113.03 86.5031 111.405C86.5031 109.781 87.8232 108.651 89.613 108.651ZM89.613 109.768C88.5594 109.768 87.7851 110.403 87.7851 111.405C87.7851 112.395 88.5594 113.043 89.613 113.043C90.6792 113.043 91.4535 112.395 91.4535 111.405C91.4535 110.403 90.6792 109.768 89.613 109.768ZM94.0303 107.838H95.3504V119.326H94.0303V107.838ZM86.135 116.902L85.97 115.823C88.0263 115.823 90.8823 115.81 93.3448 115.442L93.4337 116.394C90.9077 116.876 88.1659 116.902 86.135 116.902ZM101.488 113.462L101.018 112.434C103.202 112.142 104.814 110.885 104.89 109.552H101.399V108.499H109.84V109.552H106.375C106.451 110.885 108.063 112.142 110.247 112.434L109.777 113.462C107.886 113.182 106.324 112.243 105.626 110.974C104.928 112.243 103.379 113.182 101.488 113.462ZM110.818 114.299L110.805 115.353H106.248V119.326H104.941V115.353H100.447V114.299H110.818ZM115.602 110.174V110.999C115.602 112.954 116.338 114.934 117.938 115.861L117.176 116.813C116.097 116.178 115.386 115.048 114.98 113.716C114.574 115.163 113.838 116.394 112.733 117.092L111.946 116.127C113.571 115.112 114.333 113.043 114.333 110.999V110.174H112.315V109.095H117.493V110.174H115.602ZM118.344 111.875V108.067H119.575V118.755H118.344V112.941H116.656V111.875H118.344ZM120.654 107.838H121.898V119.301H120.654V107.838ZM126.378 115.645C127.165 115.645 127.647 114.617 127.647 112.802C127.647 110.986 127.165 109.971 126.378 109.971C125.591 109.971 125.108 110.986 125.108 112.802C125.108 114.617 125.591 115.645 126.378 115.645ZM130.046 112.192V108.067H131.265V118.768H130.046V113.271H128.828C128.713 115.505 127.774 116.876 126.378 116.876C124.893 116.876 123.915 115.315 123.915 112.802C123.915 110.288 124.893 108.74 126.378 108.74C127.749 108.74 128.675 110.047 128.815 112.192H130.046ZM132.344 107.851H133.588V119.301H132.344V107.851ZM139.992 110.276V115.505C141.312 115.493 142.353 115.429 143.533 115.188L143.648 116.267C142.264 116.533 141.084 116.584 139.471 116.584H138.71V109.209H142.949V110.276H139.992ZM146.859 107.838H148.103V119.301H146.859V113.436H145.501V118.742H144.27V108.08H145.501V112.37H146.859V107.838ZM152.799 115.658C153.573 115.658 154.119 115.036 154.119 114.084C154.119 113.132 153.573 112.497 152.799 112.497C152.024 112.497 151.478 113.132 151.478 114.084C151.478 115.036 152.024 115.658 152.799 115.658ZM152.799 111.418C154.246 111.418 155.286 112.497 155.286 114.084C155.286 115.658 154.246 116.749 152.799 116.749C151.352 116.749 150.311 115.658 150.311 114.084C150.311 112.497 151.352 111.418 152.799 111.418ZM153.446 108.181V109.717H155.591V110.771H149.981V109.717H152.151V108.181H153.446ZM158.523 107.851H159.767V119.313H158.523V113.677H157.305V118.78H156.086V108.092H157.305V112.599H158.523V107.851ZM164.978 108.727H170.398C170.398 111.761 168.38 113.919 165.042 114.934L164.496 113.893C167.123 113.094 168.748 111.608 168.977 109.793H164.978V108.727ZM167.53 115.315V118.031H173.927V119.098H166.21V115.315H167.53ZM173.47 111.202H175.108V112.281H173.47V116.153H172.163V107.851H173.47V111.202ZM182.875 112.865L183.015 113.931C181.288 114.236 179.791 114.299 177.595 114.299H176.668V110.847H180.552V109.552H176.643V108.499H181.847V111.837H177.95V113.233C179.917 113.22 181.301 113.157 182.875 112.865ZM177.62 116.445V115.391H185.16V119.326H183.852V116.445H177.62ZM186.772 110.644H185.16V111.989H186.772V113.068H185.16V114.82H183.852V107.877H185.16V109.577H186.772V110.644ZM191.569 115.772C192.508 115.772 193.194 115.137 193.194 114.172C193.194 113.208 192.508 112.573 191.569 112.573C190.63 112.573 189.944 113.208 189.944 114.172C189.944 115.137 190.63 115.772 191.569 115.772ZM191.569 111.494C193.232 111.494 194.45 112.611 194.45 114.172C194.45 115.746 193.232 116.851 191.569 116.851C189.906 116.851 188.688 115.746 188.688 114.172C188.688 112.611 189.906 111.494 191.569 111.494ZM192.216 108.004V109.641H194.971V110.695H188.129V109.641H190.896V108.004H192.216ZM195.999 107.851H197.319V119.313H195.999V107.851ZM210.603 113.728V110.809H208.28V109.755H210.603V107.838H211.911V113.728H210.603ZM209.181 112.522L208.496 113.538C207.252 113.119 206.338 112.268 205.856 111.202C205.348 112.395 204.396 113.322 203.051 113.792L202.378 112.764C204.168 112.18 205.17 110.745 205.17 109.171V108.207H206.478V109.171C206.478 110.618 207.468 111.964 209.181 112.522ZM205.767 118.146H212.304V119.174H204.472V116.203H210.616V115.29H204.447V114.274H211.911V117.168H205.767V118.146ZM218.624 112.827V109.743H215.87V112.827H218.624ZM222.28 110.682H219.894V111.888H222.28V110.682ZM219.894 112.954V113.868H214.588V108.702H219.894V109.616H222.28V107.851H223.588V114.604H222.28V112.954H219.894ZM219.767 118.298C221.392 118.298 222.331 117.879 222.331 117.117C222.331 116.368 221.392 115.95 219.767 115.95C218.142 115.95 217.215 116.368 217.215 117.117C217.215 117.879 218.142 118.298 219.767 118.298ZM219.767 114.921C222.166 114.921 223.638 115.734 223.638 117.117C223.638 118.501 222.166 119.313 219.767 119.313C217.38 119.313 215.908 118.501 215.908 117.117C215.908 115.734 217.38 114.921 219.767 114.921ZM228.562 115.658C229.337 115.658 229.882 115.036 229.882 114.084C229.882 113.132 229.337 112.497 228.562 112.497C227.788 112.497 227.242 113.132 227.242 114.084C227.242 115.036 227.788 115.658 228.562 115.658ZM228.562 111.418C230.009 111.418 231.05 112.497 231.05 114.084C231.05 115.658 230.009 116.749 228.562 116.749C227.115 116.749 226.074 115.658 226.074 114.084C226.074 112.497 227.115 111.418 228.562 111.418ZM229.21 108.181V109.717H231.355V110.771H225.744V109.717H227.915V108.181H229.21ZM234.287 107.851H235.531V119.313H234.287V113.677H233.069V118.78H231.85V108.092H233.069V112.599H234.287V107.851ZM241.339 113.462L240.869 112.434C243.052 112.142 244.664 110.885 244.74 109.552H241.25V108.499H249.691V109.552H246.226C246.302 110.885 247.914 112.142 250.097 112.434L249.627 113.462C247.736 113.182 246.175 112.243 245.477 110.974C244.779 112.243 243.23 113.182 241.339 113.462ZM250.668 114.299L250.656 115.353H246.099V119.326H244.791V115.353H240.298V114.299H250.668ZM255.491 108.905V110.91C255.491 112.764 256.189 114.706 257.725 115.67L256.989 116.686C255.948 116.051 255.262 114.934 254.869 113.652C254.463 115.061 253.714 116.267 252.609 116.94L251.81 115.95C253.434 114.985 254.221 112.929 254.221 110.974V108.905H255.491ZM258.182 111.862V108.067H259.413V118.78H258.182V112.929H256.494V111.862H258.182ZM260.517 107.851H261.761V119.313H260.517V107.851ZM267.384 114.35V116.838H270.278V114.338C269.833 114.452 269.338 114.503 268.831 114.503C268.323 114.503 267.828 114.452 267.384 114.35ZM268.831 109.539C267.092 109.539 265.886 110.301 265.886 111.507C265.886 112.725 267.092 113.487 268.831 113.487C270.557 113.487 271.763 112.725 271.763 111.507C271.763 110.301 270.557 109.539 268.831 109.539ZM271.585 116.838H274.035V117.904H263.652V116.838H266.076V113.855C265.162 113.347 264.616 112.522 264.616 111.507C264.616 109.679 266.381 108.511 268.831 108.511C271.268 108.511 273.045 109.679 273.045 111.507C273.045 112.522 272.499 113.335 271.585 113.855V116.838Z" fill="#757575"/>
<path d="M54.9368 112.649L54.2767 112.167L55.0891 110.783L53.6547 110.174L53.9086 109.4L55.4318 109.755L55.5714 108.169H56.3965L56.5361 109.755L58.0593 109.4L58.3132 110.174L56.8789 110.783L57.7039 112.167L57.0439 112.649L55.9903 111.418L54.9368 112.649Z" fill="#FD8889"/>
<rect x="33.4932" y="132.716" width="376.571" height="92.2127" rx="2.46816" fill="#FEFEFE"/>
<rect x="33.4932" y="132.716" width="376.571" height="92.2127" rx="2.46816" stroke="#C4C4C4" stroke-width="0.705189"/>
<path d="M53.6279 183.686C51.9468 183.686 50.6041 182.49 50.6041 180.436C50.6041 178.428 51.9919 177.175 53.4361 177.175C55.0834 177.175 55.9748 178.36 55.9748 180.109C55.9748 180.369 55.941 180.617 55.9071 180.775H51.8791C51.9806 181.959 52.7253 182.67 53.7972 182.67C54.3501 182.67 54.8239 182.501 55.2753 182.208L55.7266 183.031C55.1511 183.415 54.4403 183.686 53.6279 183.686ZM51.8678 179.872H54.8465C54.8465 178.811 54.3613 178.191 53.4587 178.191C52.6802 178.191 51.9919 178.789 51.8678 179.872ZM56.4903 183.539L58.4987 180.301L56.637 177.333H58.0361L58.7808 178.575C58.9613 178.924 59.1644 179.274 59.3675 179.624H59.4126C59.5819 179.274 59.7624 178.924 59.9316 178.575L60.586 177.333H61.94L60.0783 180.448L62.0754 183.539H60.665L59.8526 182.219C59.6495 181.858 59.4352 181.474 59.2095 181.124H59.1531C58.9613 181.474 58.7695 181.847 58.5777 182.219L57.8555 183.539H56.4903ZM66.4755 179.252C65.9903 179.252 65.6067 178.868 65.6067 178.349C65.6067 177.819 65.9903 177.424 66.4755 177.424C66.9607 177.424 67.3443 177.819 67.3443 178.349C67.3443 178.868 66.9607 179.252 66.4755 179.252ZM66.4755 183.686C65.9903 183.686 65.6067 183.313 65.6067 182.783C65.6067 182.242 65.9903 181.858 66.4755 181.858C66.9607 181.858 67.3443 182.242 67.3443 182.783C67.3443 183.313 66.9607 183.686 66.4755 183.686ZM77.7073 177.785V180.154H76.6129V174.411H77.7073V176.837H78.7792V174.231H79.885V180.481H78.7792V177.785H77.7073ZM76.3759 178.89L75.7554 179.759C74.8527 179.409 74.2209 178.732 73.8373 177.92C73.4649 178.857 72.7992 179.646 71.8176 180.075L71.2083 179.184C72.5736 178.563 73.2618 177.288 73.2618 176.126V174.84H74.3901V176.126C74.3901 177.254 75.0558 178.371 76.3759 178.89ZM76.4888 183.516C77.9217 183.516 78.7792 183.167 78.7792 182.546C78.7792 181.914 77.9217 181.565 76.4888 181.565C75.0558 181.565 74.1983 181.914 74.1983 182.546C74.1983 183.167 75.0558 183.516 76.4888 183.516ZM76.4888 180.673C78.61 180.673 79.9414 181.373 79.9414 182.546C79.9414 183.708 78.61 184.408 76.4888 184.408C74.3676 184.408 73.0362 183.708 73.0362 182.546C73.0362 181.373 74.3676 180.673 76.4888 180.673ZM87.6355 174.93V175.731H81.8248V174.93H84.1491V174.118H85.3225V174.93H87.6355ZM83.3931 177.322C83.3931 177.717 83.9121 177.931 84.7245 177.931C85.5482 177.931 86.0559 177.717 86.0559 177.322C86.0559 176.938 85.5482 176.724 84.7245 176.724C83.9121 176.724 83.3931 176.938 83.3931 177.322ZM87.9176 178.936L88.0079 179.646C85.8528 180.03 83.4495 180.053 81.6781 180.053L81.554 179.229C82.3212 179.229 83.2126 179.229 84.1491 179.206V178.631C82.9982 178.518 82.2986 178.056 82.2986 177.322C82.2986 176.487 83.2464 175.991 84.7245 175.991C86.2026 175.991 87.1503 176.487 87.1503 177.322C87.1503 178.056 86.4621 178.518 85.3225 178.631V179.161C86.2026 179.116 87.0939 179.048 87.9176 178.936ZM84.0814 182.806V183.516H89.9937V184.318H82.9305V182.072H88.4705V181.429H82.9079V180.639H89.6213V182.806H84.0814ZM89.6213 176.735H91.0204V177.694H89.6213V180.211H88.4592V174.219H89.6213V176.735ZM103.235 177.458L102.795 178.36C101.159 178.101 99.7933 177.345 99.1389 176.25C98.4958 177.333 97.1418 178.112 95.4945 178.36L95.0657 177.458C97.0741 177.187 98.5522 176.036 98.5522 174.772V174.389H99.7482V174.772C99.7482 176.058 101.192 177.187 103.235 177.458ZM95.5735 182.005V181.068H102.637V184.419H101.475V182.005H95.5735ZM99.7256 179.252H103.788V180.188H94.5467V179.252H98.5635V177.807H99.7256V179.252ZM107.228 181.147C107.928 181.147 108.356 180.233 108.356 178.62C108.356 177.006 107.928 176.104 107.228 176.104C106.528 176.104 106.1 177.006 106.1 178.62C106.1 180.233 106.528 181.147 107.228 181.147ZM110.489 178.078V174.411H111.572V183.923H110.489V179.037H109.406C109.304 181.023 108.469 182.242 107.228 182.242C105.908 182.242 105.039 180.854 105.039 178.62C105.039 176.386 105.908 175.009 107.228 175.009C108.447 175.009 109.27 176.171 109.394 178.078H110.489ZM112.531 174.219H113.637V184.397H112.531V174.219ZM119.007 175.043V176.724C119.007 178.62 119.977 180.47 121.534 181.192L120.846 182.129C119.695 181.553 118.871 180.436 118.431 179.071C117.98 180.515 117.145 181.7 115.983 182.298L115.249 181.373C116.84 180.594 117.833 178.631 117.833 176.724V175.043H119.007ZM122.606 174.197H123.779V184.419H122.606V178.496H120.428V177.548H122.606V174.197ZM136.625 174.219V179.443H135.452V174.219H136.625ZM134.425 178.304L133.861 179.218C132.688 178.834 131.83 178.056 131.367 177.051C130.905 178.146 130.036 178.992 128.806 179.409L128.231 178.484C129.844 177.954 130.758 176.634 130.758 175.257V174.49H131.943V175.257C131.943 176.577 132.857 177.819 134.425 178.304ZM131.108 183.404H136.93V184.318H129.968V181.666H135.475V180.831H129.946V179.928H136.625V182.512H131.108V183.404ZM144.015 177.277H145.888V174.231H147.05V181.801H145.888V178.236H144.015V177.277ZM144.669 179.556L144.105 180.47C142.954 180.109 142.097 179.364 141.645 178.405C141.194 179.443 140.348 180.256 139.163 180.651L138.588 179.748C140.156 179.218 141.036 177.977 141.036 176.634V176.442H138.892V175.506H141.036V174.287H142.21V175.506H144.342V176.442H142.198V176.634C142.198 177.886 143.101 179.071 144.669 179.556ZM141.612 183.268H147.31V184.216H140.449V181.147H141.612V183.268ZM155.015 175.077V175.957H149.001V175.077H151.427V174.118H152.589V175.077H155.015ZM150.648 177.988C150.648 178.507 151.179 178.811 152.002 178.811C152.837 178.811 153.368 178.507 153.368 177.988C153.368 177.458 152.837 177.153 152.002 177.153C151.179 177.153 150.648 177.458 150.648 177.988ZM154.473 177.988C154.473 179.015 153.503 179.646 152.002 179.646C150.513 179.646 149.531 179.015 149.531 177.988C149.531 176.95 150.513 176.307 152.002 176.307C153.503 176.307 154.473 176.95 154.473 177.988ZM151.528 182.648V183.449H157.283V184.318H150.389V181.835H155.793V181.102H150.366V180.244H156.944V182.648H151.528ZM156.944 176.521H158.389V177.48H156.944V179.782H155.782V174.197H156.944V176.521ZM170.716 177.977L170.264 178.913C168.572 178.642 167.184 177.785 166.518 176.611C165.864 177.796 164.454 178.642 162.761 178.913L162.31 177.977C164.386 177.683 165.898 176.431 165.898 175.088V174.546H167.128V175.088C167.128 176.408 168.662 177.683 170.716 177.977ZM171.111 179.872V180.82H167.06V184.419H165.898V180.82H161.904V179.872H171.111ZM183.212 174.231V180.019H182.05V174.231H183.212ZM177.717 175.742C176.814 175.742 176.149 176.318 176.149 177.187C176.149 178.067 176.814 178.631 177.717 178.631C178.62 178.631 179.285 178.067 179.285 177.187C179.285 176.318 178.62 175.742 177.717 175.742ZM177.717 179.59C176.16 179.59 175.009 178.608 175.009 177.187C175.009 175.765 176.16 174.783 177.717 174.783C179.274 174.783 180.414 175.765 180.414 177.187C180.414 178.608 179.274 179.59 177.717 179.59ZM182.129 180.459V180.91C182.129 181.959 182.794 182.986 184.115 183.415L183.539 184.272C182.558 183.923 181.892 183.268 181.542 182.445C181.215 183.246 180.606 183.979 179.68 184.363C178.721 183.99 178.123 183.291 177.807 182.467C177.435 183.268 176.781 183.923 175.833 184.272L175.269 183.415C176.566 182.952 177.243 181.903 177.243 180.91V180.459H178.372V180.91C178.372 181.768 178.766 182.682 179.658 183.246C180.56 182.636 180.989 181.677 180.989 180.91V180.459H182.129ZM193.377 177.142V178.089H186.382V174.58H187.544V177.142H193.377ZM187.476 181.181V183.246H193.433V184.182H186.314V181.181H187.476ZM185.186 179.308H194.438V180.244H185.186V179.308ZM204.102 175.133V175.991H198.28V175.133H200.615V174.174H201.789V175.133H204.102ZM199.86 177.92C199.86 178.394 200.379 178.676 201.191 178.676C202.003 178.676 202.522 178.394 202.522 177.92C202.522 177.435 202.003 177.142 201.191 177.142C200.379 177.142 199.86 177.435 199.86 177.92ZM204.384 179.838L204.474 180.639C202.342 181.046 199.916 181.091 198.156 181.102L198.02 180.177C198.776 180.177 199.679 180.165 200.615 180.143V179.443C199.476 179.308 198.765 178.755 198.765 177.92C198.765 176.95 199.724 176.352 201.191 176.352C202.658 176.352 203.617 176.95 203.617 177.92C203.617 178.744 202.917 179.308 201.789 179.443V180.086C202.669 180.03 203.56 179.962 204.384 179.838ZM200.661 181.677V183.268H206.426V184.216H199.498V181.677H200.661ZM206.088 177.672H207.487V178.631H206.088V182.185H204.926V174.208H206.088V177.672ZM215.768 176.916H213.398C212.766 178.541 211.266 179.68 209.066 180.323L208.603 179.398C210.995 178.732 212.315 177.48 212.518 175.889H209.133V174.953H213.759C213.759 175.314 213.725 175.652 213.669 175.968H215.768V174.219H216.93V180.211H215.768V179.037H213.297V178.089H215.768V176.916ZM213.59 183.449C214.978 183.449 215.847 183.054 215.847 182.343C215.847 181.644 214.978 181.249 213.59 181.249C212.214 181.249 211.345 181.644 211.345 182.343C211.345 183.054 212.214 183.449 213.59 183.449ZM213.59 180.335C215.655 180.335 216.998 181.102 216.998 182.343C216.998 183.595 215.655 184.363 213.59 184.363C211.525 184.363 210.194 183.595 210.194 182.343C210.194 181.102 211.525 180.335 213.59 180.335ZM223.593 177.548V179.218H228.422V177.548H223.593ZM226.583 182.208H230.633V183.167H221.404V182.208H225.421V180.154H222.442V174.896H223.593V176.611H228.422V174.896H229.573V180.154H226.583V182.208ZM240.539 175.607V176.544H232.201V175.607H235.8V174.355H236.962V175.607H240.539ZM234.164 179.082C234.164 179.759 234.977 180.143 236.364 180.143C237.763 180.143 238.576 179.759 238.576 179.082C238.576 178.417 237.763 178.033 236.364 178.033C234.977 178.033 234.164 178.417 234.164 179.082ZM236.962 182.343H241.013V183.302H231.772V182.343H235.8V181.034C234.051 180.91 232.979 180.211 232.979 179.082C232.979 177.852 234.288 177.13 236.364 177.13C238.452 177.13 239.761 177.852 239.761 179.082C239.761 180.211 238.711 180.899 236.962 181.034V182.343ZM248.703 178.676V177.187H246.209V178.676H248.703ZM249.854 174.862V179.601H245.047V174.862H246.209V176.273H248.703V174.862H249.854ZM249.368 183.505C250.79 183.505 251.614 183.144 251.614 182.478C251.614 181.824 250.79 181.463 249.368 181.463C247.947 181.463 247.123 181.824 247.123 182.478C247.123 183.144 247.947 183.505 249.368 183.505ZM249.368 180.538C251.467 180.538 252.765 181.271 252.765 182.478C252.765 183.697 251.467 184.419 249.368 184.419C247.27 184.419 245.972 183.697 245.972 182.478C245.972 181.271 247.27 180.538 249.368 180.538ZM252.652 176.702H254.096V177.661H252.652V180.301H251.49V174.219H252.652V176.702ZM256.34 177.446C256.34 178.383 257.017 178.992 257.909 178.992C258.8 178.992 259.488 178.383 259.488 177.446C259.488 176.521 258.8 175.912 257.909 175.912C257.017 175.912 256.34 176.521 256.34 177.446ZM260.628 177.446C260.628 178.936 259.455 179.996 257.909 179.996C256.374 179.996 255.201 178.936 255.201 177.446C255.201 175.957 256.374 174.908 257.909 174.908C259.455 174.908 260.628 175.957 260.628 177.446ZM257.751 180.921V183.268H263.437V184.216H256.577V180.921H257.751ZM263.031 177.243H264.475V178.202H263.031V181.689H261.869V174.219H263.031V177.243Z" fill="#757575"/>
<path d="M363.563 219.029C361.939 219.029 360.878 217.585 360.878 214.697C360.878 211.82 361.939 210.421 363.563 210.421C365.188 210.421 366.249 211.831 366.249 214.697C366.249 217.585 365.188 219.029 363.563 219.029ZM363.563 218.003C364.41 218.003 365.008 217.1 365.008 214.697C365.008 212.316 364.41 211.447 363.563 211.447C362.717 211.447 362.119 212.316 362.119 214.697C362.119 217.1 362.717 218.003 363.563 218.003ZM369.452 220.914L372.589 209.868H373.492L370.355 220.914H369.452ZM377.218 218.883V217.811H379.034V212.034H377.545V211.21C378.324 211.064 378.876 210.872 379.35 210.567H380.332V217.811H381.957V218.883H377.218ZM385.898 219.029C384.273 219.029 383.213 217.585 383.213 214.697C383.213 211.82 384.273 210.421 385.898 210.421C387.523 210.421 388.583 211.831 388.583 214.697C388.583 217.585 387.523 219.029 385.898 219.029ZM385.898 218.003C386.744 218.003 387.342 217.1 387.342 214.697C387.342 212.316 386.744 211.447 385.898 211.447C385.052 211.447 384.454 212.316 384.454 214.697C384.454 217.1 385.052 218.003 385.898 218.003ZM392.333 219.029C390.708 219.029 389.647 217.585 389.647 214.697C389.647 211.82 390.708 210.421 392.333 210.421C393.958 210.421 395.018 211.831 395.018 214.697C395.018 217.585 393.958 219.029 392.333 219.029ZM392.333 218.003C393.179 218.003 393.777 217.1 393.777 214.697C393.777 212.316 393.179 211.447 392.333 211.447C391.487 211.447 390.889 212.316 390.889 214.697C390.889 217.1 391.487 218.003 392.333 218.003Z" fill="#757575"/>
<path d="M35.3749 270.488V269.638C38.1294 267.201 39.551 265.386 39.551 263.85C39.551 262.834 39.0179 262.136 37.9644 262.136C37.2281 262.136 36.6189 262.606 36.1238 263.177L35.2988 262.365C36.0984 261.489 36.9235 260.968 38.1421 260.968C39.8557 260.968 40.96 262.085 40.96 263.773C40.96 265.576 39.5257 267.442 37.5455 269.333C38.0278 269.282 38.6117 269.244 39.0687 269.244H41.4043V270.488H35.3749ZM43.9469 270.653C43.4011 270.653 42.9695 270.234 42.9695 269.638C42.9695 269.029 43.4011 268.597 43.9469 268.597C44.4927 268.597 44.9243 269.029 44.9243 269.638C44.9243 270.234 44.4927 270.653 43.9469 270.653ZM67.0715 264.459V262.999H64.2662V264.459H67.0715ZM68.3662 260.486V265.5H62.9588V260.486H64.2662V261.996H67.0715V260.486H68.3662ZM65.4213 269.32V270.336H71.895V271.364H64.1393V268.356H70.2194V267.404H64.1139V266.388H71.5142V269.32H65.4213ZM71.5142 262.352H73.1262V263.431H71.5142V265.881H70.2067V260.004H71.5142V262.352ZM78.2788 266.604V269.067H80.5382V266.604H78.2788ZM78.0883 262.047V265.551H80.7286V262.047H78.0883ZM81.8329 269.067H84.6381V270.146H74.2422V269.067H76.9713V266.604H75.1308V265.551H76.7809V262.047H75.0927V260.994H83.7115V262.047H82.0233V265.551H83.6734V266.604H81.8329V269.067ZM89.9253 268.838V267.785H97.8587V271.466H96.5513V268.838H89.9253ZM91.3597 261.501V263.393H96.5259V261.501H91.3597ZM94.5965 265.716H99.1408V266.769H88.7576V265.716H93.2764V264.434H90.0777V260.46H97.808V264.434H94.5965V265.716ZM107.264 265.436L106.616 266.452C105.347 266.008 104.433 265.106 103.938 264.002C103.43 265.233 102.465 266.223 101.107 266.693L100.434 265.665C102.212 265.056 103.252 263.545 103.252 261.996V261.768H100.828V260.714H106.959V261.768H104.573V261.984C104.573 263.405 105.55 264.84 107.264 265.436ZM102.212 268.47V267.416H109.942V271.466H108.634V268.47H102.212ZM108.634 259.991H109.942V266.845H108.634V263.951H106.629V262.872H108.634V259.991ZM117.303 261.159C115.526 261.159 114.574 261.501 114.574 262.161C114.574 262.809 115.526 263.151 117.303 263.151C119.08 263.151 120.032 262.809 120.032 262.161C120.032 261.501 119.08 261.159 117.303 261.159ZM117.303 264.129C114.726 264.129 113.216 263.431 113.216 262.161C113.216 260.879 114.726 260.181 117.303 260.181C119.867 260.181 121.39 260.879 121.39 262.161C121.39 263.431 119.867 264.129 117.303 264.129ZM114.663 269.409V270.361H121.517V271.364H113.368V268.483H119.905V267.658H113.343V266.668H121.187V269.409H114.663ZM112.111 264.802H122.495V265.842H112.111V264.802ZM134.839 268.533V263.659H132.516V262.58H134.839V260.004H136.147V268.533H134.839ZM133.418 265.716L132.72 266.731C131.488 266.274 130.587 265.347 130.105 264.192C129.597 265.474 128.645 266.49 127.325 266.998L126.627 265.982C128.417 265.347 129.407 263.735 129.407 262.034V260.702H130.739V262.06C130.739 263.608 131.704 265.094 133.418 265.716ZM130.003 270.184H136.413V271.25H128.683V267.632H130.003V270.184ZM143.584 265.094L143.724 266.16C142.404 266.401 141.312 266.439 139.535 266.439H138.761V260.816H143.229V261.869H140.03V263.075H143.102V264.091H140.03V265.373C141.477 265.36 142.454 265.309 143.584 265.094ZM140.246 268.584V267.531H148.027V271.478H146.719V268.584H140.246ZM146.783 260.004H148.027V266.972H146.783V263.977H145.514V266.896H144.295V260.219H145.514V262.91H146.783V260.004ZM152.799 267.81C153.573 267.81 154.119 267.188 154.119 266.236C154.119 265.284 153.573 264.649 152.799 264.649C152.024 264.649 151.478 265.284 151.478 266.236C151.478 267.188 152.024 267.81 152.799 267.81ZM152.799 263.57C154.246 263.57 155.286 264.649 155.286 266.236C155.286 267.81 154.246 268.902 152.799 268.902C151.352 268.902 150.311 267.81 150.311 266.236C150.311 264.649 151.352 263.57 152.799 263.57ZM153.446 260.334V261.869H155.591V262.923H149.981V261.869H152.151V260.334H153.446ZM158.523 260.004H159.767V271.466H158.523V265.83H157.305V270.933H156.086V260.245H157.305V264.751H158.523V260.004ZM165.575 265.614L165.105 264.586C167.288 264.294 168.901 263.037 168.977 261.704H165.486V260.651H173.927V261.704H170.462C170.538 263.037 172.15 264.294 174.333 264.586L173.864 265.614C171.972 265.335 170.411 264.395 169.713 263.126C169.015 264.395 167.466 265.335 165.575 265.614ZM174.905 266.452L174.892 267.505H170.335V271.478H169.027V267.505H164.534V266.452H174.905ZM179.727 261.057V263.063C179.727 264.916 180.425 266.858 181.961 267.823L181.225 268.838C180.184 268.203 179.499 267.086 179.105 265.804C178.699 267.213 177.95 268.419 176.846 269.092L176.046 268.102C177.671 267.137 178.458 265.081 178.458 263.126V261.057H179.727ZM182.418 264.015V260.219H183.649V270.933H182.418V265.081H180.73V264.015H182.418ZM184.754 260.004H185.998V271.466H184.754V260.004ZM191.62 266.503V268.99H194.514V266.49C194.07 266.604 193.575 266.655 193.067 266.655C192.559 266.655 192.064 266.604 191.62 266.503ZM193.067 261.692C191.328 261.692 190.122 262.453 190.122 263.659C190.122 264.878 191.328 265.639 193.067 265.639C194.793 265.639 195.999 264.878 195.999 263.659C195.999 262.453 194.793 261.692 193.067 261.692ZM195.821 268.99H198.271V270.057H187.888V268.99H190.312V266.008C189.398 265.5 188.853 264.675 188.853 263.659C188.853 261.831 190.617 260.664 193.067 260.664C195.504 260.664 197.281 261.831 197.281 263.659C197.281 264.675 196.735 265.487 195.821 266.008V268.99Z" fill="#757575"/>
<path d="M54.9368 264.802L54.2767 264.319L55.0891 262.936L53.6547 262.326L53.9086 261.552L55.4318 261.908L55.5714 260.321H56.3965L56.5361 261.908L58.0593 261.552L58.3132 262.326L56.8789 262.936L57.7039 264.319L57.0439 264.802L55.9903 263.57L54.9368 264.802Z" fill="#FD8889"/>
<rect x="33.1406" y="284.516" width="98.7265" height="36.604" rx="2.82076" fill="#509BF8"/>
<path d="M56.9994 299.183V300.12H50.8389V299.183H53.3437V298.021H54.5058V299.183H56.9994ZM52.5426 302.512C52.5426 303.144 53.1067 303.527 53.9304 303.527C54.7428 303.527 55.3069 303.144 55.3069 302.512C55.3069 301.891 54.7428 301.508 53.9304 301.508C53.1067 301.508 52.5426 301.891 52.5426 302.512ZM54.5058 304.373V305.333C55.4198 305.276 56.345 305.22 57.2138 305.096L57.2927 305.942C55.0474 306.325 52.6329 306.359 50.7824 306.359L50.6358 305.4C51.4481 305.4 52.3846 305.4 53.3437 305.366V304.373C52.1928 304.193 51.4369 303.493 51.4369 302.512C51.4369 301.372 52.4523 300.616 53.9304 300.616C55.3972 300.616 56.4127 301.372 56.4127 302.512C56.4127 303.505 55.6567 304.193 54.5058 304.373ZM57.7892 297.987H58.9626V308.187H57.7892V297.987ZM64.5243 298.845V300.515C64.5243 302.331 65.4721 304.17 67.0066 304.926L66.2957 305.852C65.2013 305.287 64.3889 304.182 63.9488 302.85C63.5088 304.261 62.6513 305.445 61.4891 306.043L60.7783 305.107C62.3692 304.328 63.3621 302.399 63.3621 300.515V298.845H64.5243ZM70.4366 302.038V302.997H68.8457V308.187H67.6835V297.999H68.8457V302.038H70.4366ZM79.1192 301.169H81.1502V297.999H82.3123V305.547H81.1502V302.128H79.1192V301.169ZM74.5722 298.8H79.1531C79.1531 301.541 77.8781 303.493 74.5496 304.588L74.0757 303.663C75.6779 303.155 76.6934 302.467 77.2801 301.62L74.245 301.846L74.0644 300.921L77.7201 300.774C77.8217 300.447 77.9007 300.097 77.9345 299.736H74.5722V298.8ZM76.9755 307.048H82.6057V307.995H75.802V304.814H76.9755V307.048ZM86.5539 299.928V304.791C86.9939 304.78 87.4678 304.768 87.9191 304.735V299.928H86.5539ZM89.0474 299.928V304.667C89.4987 304.633 89.9613 304.588 90.3901 304.531L90.4691 305.389C88.4043 305.727 86.0687 305.773 84.2973 305.773L84.1844 304.814C84.5681 304.814 84.9968 304.814 85.4256 304.802V299.928H84.4665V298.991H90.0967V299.928H89.0474ZM91.541 297.999H92.7144V308.198H91.541V302.726H89.7808V301.778H91.541V297.999ZM101.909 305.491V301.553H100.149V300.571H101.909V297.999H103.071V305.491H101.909ZM100.33 302.929L100.431 303.877C99.0207 304.103 97.8135 304.148 95.8276 304.148H95.0265V300.91H98.4115V299.623H95.004V298.687H99.5736V301.801H96.1774V303.2C97.9263 303.189 99.0433 303.144 100.33 302.929ZM97.5765 307.048H103.353V307.995H96.4144V304.926H97.5765V307.048ZM113.846 302.974L113.338 303.933C111.679 303.595 110.246 302.534 109.581 301.135C108.915 302.534 107.482 303.595 105.824 303.933L105.327 302.974C107.335 302.602 108.971 301.034 108.971 299.42V298.653H110.201V299.42C110.201 301.045 111.837 302.613 113.846 302.974ZM105.011 305.919H114.241V306.878H105.011V305.919Z" fill="#FEFEFE"/>
<rect x="148.791" y="284.516" width="98.7265" height="36.604" rx="2.82076" fill="#EDEDED"/>
<path d="M182.255 298.991V299.917H176.241V298.991H178.667V297.942H179.829V298.991H182.255ZM177.888 302.218C177.888 302.816 178.43 303.177 179.242 303.177C180.055 303.177 180.608 302.816 180.608 302.218C180.608 301.609 180.055 301.248 179.242 301.248C178.43 301.248 177.888 301.609 177.888 302.218ZM181.713 302.218C181.713 303.324 180.709 304.069 179.242 304.069C177.776 304.069 176.771 303.324 176.771 302.218C176.771 301.101 177.776 300.357 179.242 300.357C180.709 300.357 181.713 301.101 181.713 302.218ZM177.482 305.806V304.87H184.184V308.187H183.022V305.806H177.482ZM185.628 300.729V301.688H184.184V304.373H183.022V297.999H184.184V300.729H185.628ZM193.695 300.018V299.894H187.523V298.946H194.857V300.018C194.857 301.293 194.857 302.658 194.496 304.633L193.334 304.498C193.695 302.636 193.695 301.259 193.695 300.018ZM192.397 305.897H195.816V306.856H186.609V305.897H188.73V302.602H189.881V305.897H191.247V302.602H192.397V305.897ZM203.528 301.959V300.661H201.035V301.959H203.528ZM204.679 298.427V302.884H199.873V298.427H201.035V299.77H203.528V298.427H204.679ZM202.062 306.28V307.183H207.816V308.097H200.922V305.423H206.327V304.577H200.9V303.674H207.478V306.28H202.062ZM207.478 300.086H208.91V301.045H207.478V303.223H206.315V297.999H207.478V300.086ZM213.491 303.866V306.055H215.499V303.866H213.491ZM213.321 299.815V302.929H215.668V299.815H213.321ZM216.65 306.055H219.143V307.014H209.903V306.055H212.328V303.866H210.692V302.929H212.159V299.815H210.658V298.879H218.32V299.815H216.819V302.929H218.286V303.866H216.65V306.055Z" fill="#757575"/>
<rect x="264.441" y="284.516" width="98.7265" height="36.604" rx="2.82076" fill="#EDEDED"/>
<path d="M307.215 302.816L306.73 303.787C305.06 303.46 303.615 302.444 302.961 301.09C302.284 302.444 300.84 303.46 299.181 303.787L298.685 302.816C300.704 302.478 302.34 300.955 302.34 299.386V298.619H303.57V299.386C303.57 300.966 305.206 302.478 307.215 302.816ZM303.525 305.964H307.61V306.923H298.38V305.964H302.363V303.584H303.525V305.964ZM310.926 299.736V302.76H315.778V299.736H310.926ZM313.939 305.987H317.989V306.935H308.76V305.987H312.776V303.685H309.786V298.811H316.917V303.685H313.939V305.987ZM326.372 298.01H327.534V303.809H326.372V298.01ZM320.865 304.317H327.534V308.063H320.865V304.317ZM326.394 305.242H322.005V307.138H326.394V305.242ZM322.039 298.506C323.596 298.506 324.736 299.488 324.736 300.91C324.736 302.331 323.596 303.313 322.039 303.313C320.482 303.313 319.331 302.331 319.331 300.91C319.331 299.488 320.482 298.506 322.039 298.506ZM322.039 299.465C321.125 299.465 320.471 300.041 320.471 300.91C320.471 301.79 321.125 302.354 322.039 302.354C322.942 302.354 323.607 301.79 323.607 300.91C323.607 300.041 322.942 299.465 322.039 299.465Z" fill="#757575"/>
<path d="M38.2182 366.493C36.7458 366.493 35.7938 365.909 35.1718 365.211L35.8826 364.272C36.4285 364.83 37.1266 365.3 38.0913 365.3C39.1449 365.3 39.8684 364.716 39.8684 363.739C39.8684 362.711 39.2083 362.038 37.1012 362.038V360.959C38.9418 360.959 39.551 360.261 39.551 359.321C39.551 358.496 39.0052 357.989 38.1167 357.976C37.3932 357.989 36.7839 358.331 36.2508 358.852L35.4892 357.938C36.2254 357.278 37.0885 356.808 38.1675 356.808C39.843 356.808 41.0235 357.684 41.0235 359.22C41.0235 360.299 40.4015 361.048 39.4114 361.416V361.479C40.4904 361.746 41.3408 362.558 41.3408 363.815C41.3408 365.503 39.9318 366.493 38.2182 366.493ZM43.9469 366.493C43.4011 366.493 42.9695 366.074 42.9695 365.478C42.9695 364.868 43.4011 364.437 43.9469 364.437C44.4927 364.437 44.9243 364.868 44.9243 365.478C44.9243 366.074 44.4927 366.493 43.9469 366.493ZM63.53 360.527L63.073 359.512C65.1928 359.296 66.6526 358.407 66.843 357.392H63.5173V356.338H71.9838V357.392H68.6328C68.8105 358.407 70.2829 359.296 72.4154 359.512L71.9457 360.527C69.9275 360.311 68.3535 359.499 67.7442 358.319C67.1222 359.499 65.5483 360.311 63.53 360.527ZM67.7188 366.303C69.4071 366.303 70.3464 365.973 70.3464 365.3C70.3464 364.64 69.4071 364.297 67.7188 364.297C66.0306 364.297 65.104 364.64 65.104 365.3C65.104 365.973 66.0306 366.303 67.7188 366.303ZM67.7188 363.294C70.194 363.294 71.6665 364.018 71.6665 365.3C71.6665 366.582 70.194 367.306 67.7188 367.306C65.2563 367.306 63.7712 366.582 63.7712 365.3C63.7712 364.018 65.2563 363.294 67.7188 363.294ZM68.3789 361.454H72.9231V362.507H62.5526V361.454H67.0715V359.918H68.3789V361.454ZM82.4295 358.42H79.7766C79.0657 360.172 77.3775 361.34 74.8515 361.911L74.3946 360.845C77.111 360.261 78.5199 359.004 78.6976 357.405H75.0165V356.351H80.1447C80.1447 356.719 80.1193 357.075 80.0558 357.405H82.4295V355.843H83.7369V361.657H82.4295V360.616H79.6243V359.601H82.4295V358.42ZM77.606 366.15H84.0543V367.204H76.2986V364.119H82.4295V363.167H76.2732V362.127H83.7369V365.097H77.606V366.15ZM91.8547 363.599C92.8448 363.599 93.5176 362.533 93.5176 360.718C93.5176 358.941 92.8448 357.862 91.8547 357.862C90.8774 357.862 90.2046 358.941 90.2046 360.718C90.2046 362.533 90.8774 363.599 91.8547 363.599ZM96.9702 355.831H98.2903V367.331H96.9702V361.175H94.7488C94.5965 363.396 93.4287 364.767 91.8547 364.767C90.1665 364.767 88.9606 363.206 88.9606 360.718C88.9606 358.255 90.1665 356.681 91.8547 356.681C93.3906 356.681 94.5584 358.001 94.7361 360.108H96.9702V355.831ZM101.056 356.922H106.438V364.5H101.056V356.922ZM105.156 357.963H102.339V363.447H105.156V357.963ZM108.558 355.831H109.878V367.331H108.558V355.831ZM119.905 357.798V357.024H113.419V356.123H121.2V358.649H114.726V359.461H121.403V360.375H113.444V357.798H119.905ZM114.637 365.402V366.277H121.581V367.179H113.343V364.551H119.943V363.739H113.317V362.837H121.238V365.402H114.637ZM112.111 361.098H122.507V362.063H112.111V361.098ZM134.839 364.373V359.499H132.516V358.42H134.839V355.843H136.147V364.373H134.839ZM133.418 361.555L132.72 362.571C131.488 362.114 130.587 361.187 130.105 360.032C129.597 361.314 128.645 362.33 127.325 362.837L126.627 361.822C128.417 361.187 129.407 359.575 129.407 357.874V356.542H130.739V357.9C130.739 359.448 131.704 360.933 133.418 361.555ZM130.003 366.023H136.413V367.09H128.683V363.472H130.003V366.023ZM143.584 360.933L143.724 362C142.404 362.241 141.312 362.279 139.535 362.279H138.761V356.656H143.229V357.709H140.03V358.915H143.102V359.931H140.03V361.213C141.477 361.2 142.454 361.149 143.584 360.933ZM140.246 364.424V363.371H148.027V367.318H146.719V364.424H140.246ZM146.783 355.843H148.027V362.812H146.783V359.816H145.514V362.736H144.295V356.059H145.514V358.75H146.783V355.843ZM152.799 363.65C153.573 363.65 154.119 363.028 154.119 362.076C154.119 361.124 153.573 360.489 152.799 360.489C152.024 360.489 151.478 361.124 151.478 362.076C151.478 363.028 152.024 363.65 152.799 363.65ZM152.799 359.41C154.246 359.41 155.286 360.489 155.286 362.076C155.286 363.65 154.246 364.741 152.799 364.741C151.352 364.741 150.311 363.65 150.311 362.076C150.311 360.489 151.352 359.41 152.799 359.41ZM153.446 356.173V357.709H155.591V358.763H149.981V357.709H152.151V356.173H153.446ZM158.523 355.843H159.767V367.306H158.523V361.67H157.305V366.772H156.086V356.085H157.305V360.591H158.523V355.843ZM165.575 361.454L165.105 360.426C167.288 360.134 168.901 358.877 168.977 357.544H165.486V356.491H173.927V357.544H170.462C170.538 358.877 172.15 360.134 174.333 360.426L173.864 361.454C171.972 361.175 170.411 360.235 169.713 358.966C169.015 360.235 167.466 361.175 165.575 361.454ZM174.905 362.292L174.892 363.345H170.335V367.318H169.027V363.345H164.534V362.292H174.905ZM179.727 356.897V358.902C179.727 360.756 180.425 362.698 181.961 363.663L181.225 364.678C180.184 364.043 179.499 362.926 179.105 361.644C178.699 363.053 177.95 364.259 176.846 364.932L176.046 363.942C177.671 362.977 178.458 360.921 178.458 358.966V356.897H179.727ZM182.418 359.854V356.059H183.649V366.772H182.418V360.921H180.73V359.854H182.418ZM184.754 355.843H185.998V367.306H184.754V355.843ZM191.62 362.342V364.83H194.514V362.33C194.07 362.444 193.575 362.495 193.067 362.495C192.559 362.495 192.064 362.444 191.62 362.342ZM193.067 357.532C191.328 357.532 190.122 358.293 190.122 359.499C190.122 360.718 191.328 361.479 193.067 361.479C194.793 361.479 195.999 360.718 195.999 359.499C195.999 358.293 194.793 357.532 193.067 357.532ZM195.821 364.83H198.271V365.897H187.888V364.83H190.312V361.847C189.398 361.34 188.853 360.515 188.853 359.499C188.853 357.671 190.617 356.503 193.067 356.503C195.504 356.503 197.281 357.671 197.281 359.499C197.281 360.515 196.735 361.327 195.821 361.847V364.83Z" fill="#757575"/>
<path d="M54.9368 360.641L54.2767 360.159L55.0891 358.776L53.6547 358.166L53.9086 357.392L55.4318 357.747L55.5714 356.161H56.3965L56.5361 357.747L58.0593 357.392L58.3132 358.166L56.8789 358.776L57.7039 360.159L57.0439 360.641L55.9903 359.41L54.9368 360.641Z" fill="#FD8889"/>
<rect x="33.1406" y="380.355" width="98.7265" height="36.604" rx="2.82076" fill="#509BF8"/>
<path d="M58.5342 400.45V399.491H61.5129V400.45H58.5342ZM71.1716 394.809V395.745H65.1577V394.809H67.5836V393.748H68.7457V394.809H71.1716ZM66.805 397.912C66.805 398.498 67.3466 398.848 68.159 398.848C68.9714 398.848 69.5242 398.498 69.5242 397.912C69.5242 397.336 68.9714 396.986 68.159 396.986C67.3466 396.986 66.805 397.336 66.805 397.912ZM70.63 397.912C70.63 398.995 69.6371 399.717 68.159 399.717C66.6922 399.717 65.688 398.995 65.688 397.912C65.688 396.84 66.6922 396.118 68.159 396.118C69.6371 396.118 70.63 396.84 70.63 397.912ZM71.9501 402.978V402.041H67.7415V402.978H71.9501ZM71.9501 401.139V400.202H73.101V403.903H66.5906V400.202H67.7415V401.139H71.9501ZM74.5452 396.377V397.336H73.101V399.785H71.9388V393.838H73.101V396.377H74.5452ZM77.2748 394.831V400.462C78.719 400.45 80.2422 400.326 81.8444 399.999L81.9685 400.969C80.2197 401.33 78.5723 401.454 76.9927 401.454H76.1239V394.831H77.2748ZM82.7809 393.838H83.9431V404.027H82.7809V393.838ZM87.4738 395.745V400.563C89.1211 400.552 90.3622 400.484 91.7839 400.236L91.908 401.195C90.3622 401.477 88.9857 401.533 87.1466 401.533H86.3116V394.797H91.0505V395.745H87.4738ZM95.3832 397.754V398.713H93.7923V404.038H92.6301V393.827H93.7923V397.754H95.3832ZM99.3426 396.591V396.953C99.3426 398.543 100.031 400.168 101.43 400.924L100.787 401.793C99.8278 401.274 99.1734 400.337 98.801 399.232C98.44 400.428 97.7969 401.454 96.8265 402.019L96.1608 401.139C97.5599 400.315 98.2369 398.577 98.2369 396.953V396.591H96.4767V395.632H98.2369V394.188H99.3426V395.632H101.092V396.591H99.3426ZM101.814 397.787V394.042H102.908V403.531H101.814V398.735H100.437V397.787H101.814ZM103.867 393.838H104.973V404.027H103.867V393.838Z" fill="#FEFEFE"/>
<rect x="148.791" y="380.355" width="98.7265" height="36.604" rx="2.82076" fill="#EDEDED"/>
<path d="M179.685 400.45V399.491H182.663V400.45H179.685ZM188.779 400.777C189.467 400.777 189.953 400.225 189.953 399.378C189.953 398.532 189.467 397.968 188.779 397.968C188.091 397.968 187.606 398.532 187.606 399.378C187.606 400.225 188.091 400.777 188.779 400.777ZM188.779 397.009C190.065 397.009 190.991 397.968 190.991 399.378C190.991 400.777 190.065 401.748 188.779 401.748C187.493 401.748 186.568 400.777 186.568 399.378C186.568 397.968 187.493 397.009 188.779 397.009ZM189.355 394.132V395.497H191.261V396.434H186.274V395.497H188.204V394.132H189.355ZM193.868 393.838H194.973V404.027H193.868V399.017H192.785V403.553H191.701V394.053H192.785V398.058H193.868V393.838ZM199.994 399.615V401.827H202.566V399.604C202.171 399.706 201.731 399.751 201.28 399.751C200.828 399.751 200.388 399.706 199.994 399.615ZM201.28 395.339C199.734 395.339 198.662 396.016 198.662 397.088C198.662 398.171 199.734 398.848 201.28 398.848C202.814 398.848 203.886 398.171 203.886 397.088C203.886 396.016 202.814 395.339 201.28 395.339ZM203.728 401.827H205.906V402.775H196.676V401.827H198.831V399.175C198.019 398.724 197.534 397.991 197.534 397.088C197.534 395.463 199.102 394.425 201.28 394.425C203.446 394.425 205.026 395.463 205.026 397.088C205.026 397.991 204.541 398.713 203.728 399.175V401.827ZM210.114 396.591V396.953C210.114 398.543 210.802 400.168 212.201 400.924L211.558 401.793C210.599 401.274 209.944 400.337 209.572 399.232C209.211 400.428 208.568 401.454 207.597 402.019L206.932 401.139C208.331 400.315 209.008 398.577 209.008 396.953V396.591H207.248V395.632H209.008V394.188H210.114V395.632H211.862V396.591H210.114ZM212.585 397.787V394.042H213.679V403.531H212.585V398.735H211.208V397.787H212.585ZM214.638 393.838H215.744V404.027H214.638V393.838Z" fill="#757575"/>
<path d="M62.9685 456.392L62.4989 455.364C64.6186 455.149 66.0911 454.26 66.2688 453.232H62.9431V452.178H71.4096V453.232H68.0586C68.2363 454.26 69.7087 455.149 71.8285 455.364L71.3715 456.392C69.3533 456.177 67.7793 455.352 67.17 454.171C66.548 455.352 64.9741 456.177 62.9685 456.392ZM69.7722 461.114C69.7722 460.429 68.8202 460.074 67.1446 460.074C65.4691 460.074 64.5298 460.429 64.5298 461.114C64.5298 461.774 65.4691 462.143 67.1446 462.143C68.8202 462.143 69.7722 461.774 69.7722 461.114ZM72.3489 458.017H67.8174V459.083C69.8864 459.21 71.0923 459.921 71.0923 461.114C71.0923 462.409 69.6199 463.145 67.1446 463.145C64.6821 463.145 63.197 462.409 63.197 461.114C63.197 459.921 64.4282 459.198 66.51 459.071V458.017H61.9784V456.976H72.3489V458.017ZM74.8105 460.569V459.515H82.7565V463.158H81.4491V460.569H74.8105ZM76.2956 454.133V455.263H81.3983V454.133H76.2956ZM79.4943 457.484H84.0386V458.55H73.6427V457.484H78.1742V456.304H75.0009V451.962H76.2956V453.13H81.3983V451.962H82.6931V456.304H79.4943V457.484ZM92.2326 458.284V460.746H94.492V458.284H92.2326ZM92.0422 453.727V457.23H94.6824V453.727H92.0422ZM95.7867 460.746H98.592V461.825H88.1961V460.746H90.9251V458.284H89.0846V457.23H90.7347V453.727H89.0465V452.673H97.6653V453.727H95.9771V457.23H97.6273V458.284H95.7867V460.746ZM108.06 460.429V458.131H106.309V457.078H108.06V455.707H106.309V454.641H108.06V451.683H109.368V460.429H108.06ZM106.258 452.991V454.031H99.8984V452.991H102.475V451.671H103.783V452.991H106.258ZM101.726 456.786C101.726 457.535 102.297 457.979 103.123 457.979C103.96 457.979 104.531 457.535 104.531 456.786C104.531 456.05 103.96 455.58 103.123 455.58C102.297 455.58 101.726 456.05 101.726 456.786ZM105.763 456.786C105.763 458.106 104.684 459.007 103.123 459.007C101.574 459.007 100.495 458.106 100.495 456.786C100.495 455.453 101.574 454.565 103.123 454.565C104.684 454.565 105.763 455.453 105.763 456.786ZM103.224 461.863H109.634V462.93H101.904V459.693H103.224V461.863ZM116.729 452.838C114.952 452.838 114 453.181 114 453.841C114 454.488 114.952 454.831 116.729 454.831C118.506 454.831 119.458 454.488 119.458 453.841C119.458 453.181 118.506 452.838 116.729 452.838ZM116.729 455.809C114.152 455.809 112.642 455.11 112.642 453.841C112.642 452.559 114.152 451.861 116.729 451.861C119.293 451.861 120.816 452.559 120.816 453.841C120.816 455.11 119.293 455.809 116.729 455.809ZM114.089 461.089V462.041H120.943V463.044H112.794V460.162H119.331V459.337H112.769V458.347H120.613V461.089H114.089ZM111.537 456.481H121.92V457.522H111.537V456.481ZM129.556 454.006V454.831C129.556 456.786 130.292 458.766 131.892 459.693L131.13 460.645C130.051 460.01 129.34 458.88 128.934 457.548C128.528 458.995 127.792 460.226 126.687 460.924L125.9 459.959C127.525 458.944 128.287 456.875 128.287 454.831V454.006H126.268V452.927H131.447V454.006H129.556ZM132.298 455.707V451.899H133.529V462.587H132.298V456.773H130.609V455.707H132.298ZM134.608 451.671H135.852V463.133H134.608V451.671ZM138.199 452.889H143.518C143.518 456.253 142.274 459.134 138.39 461.064L137.691 460.048C140.674 458.576 141.969 456.557 142.185 453.955H138.199V452.889ZM145.929 451.683H147.25V463.158H145.929V457.268H143.467V456.189H145.929V451.683ZM156.21 452.648V453.638H149.445V452.648H152.174V451.569H153.481V452.648H156.21ZM151.298 455.923C151.298 456.507 151.894 456.849 152.821 456.849C153.76 456.849 154.357 456.507 154.357 455.923C154.357 455.326 153.76 454.983 152.821 454.983C151.894 454.983 151.298 455.326 151.298 455.923ZM155.601 455.923C155.601 457.078 154.509 457.789 152.821 457.789C151.145 457.789 150.041 457.078 150.041 455.923C150.041 454.755 151.145 454.031 152.821 454.031C154.509 454.031 155.601 454.755 155.601 455.923ZM152.288 461.165V462.066H158.761V463.044H151.006V460.251H157.086V459.426H150.98V458.461H158.381V461.165H152.288ZM158.381 454.273H160.005V455.352H158.381V457.941H157.073V451.658H158.381V454.273ZM167.252 456.24V451.962H168.484V462.6H167.252V457.294H165.145C164.473 458.614 163.381 459.769 161.794 460.721L161.045 459.794C163.432 458.373 164.561 456.494 164.752 454.146H161.591V453.092H166.047C166.047 454.209 165.894 455.263 165.564 456.24H167.252ZM169.651 451.683H170.908V463.145H169.651V451.683ZM176.518 458.182V460.67H179.412V458.17C178.967 458.284 178.472 458.335 177.965 458.335C177.457 458.335 176.962 458.284 176.518 458.182ZM177.965 453.371C176.226 453.371 175.02 454.133 175.02 455.339C175.02 456.557 176.226 457.319 177.965 457.319C179.691 457.319 180.897 456.557 180.897 455.339C180.897 454.133 179.691 453.371 177.965 453.371ZM180.719 460.67H183.169V461.736H172.786V460.67H175.21V457.687C174.296 457.179 173.75 456.354 173.75 455.339C173.75 453.511 175.515 452.343 177.965 452.343C180.402 452.343 182.179 453.511 182.179 455.339C182.179 456.354 181.633 457.167 180.719 457.687V460.67Z" fill="#757575"/>
<rect x="35.959" y="447.984" width="16.9245" height="16.8942" rx="2.82076" fill="#509BF8"/>
<rect x="31.0273" y="506.273" width="177.708" height="42.3114" rx="2.82076" fill="#509BF8"/>
<path d="M105.303 528.816L104.862 527.879C107.006 527.586 108.405 526.424 108.473 525.058H105.28V524.111H108.484V522.79H109.646V524.111H112.84V525.058H109.658C109.725 526.424 111.125 527.586 113.268 527.879L112.828 528.816C111.113 528.545 109.737 527.755 109.071 526.604C108.394 527.755 107.018 528.545 105.303 528.816ZM109.646 530.621H113.686V531.569H104.456V530.621H108.484V528.455H109.646V530.621ZM115.411 523.682H120.24C120.24 526.717 119.022 529.289 115.524 530.982L114.903 530.057C117.578 528.77 118.841 526.976 119.044 524.63H115.411V523.682ZM122.08 522.61H123.242V532.798H122.08V522.61ZM131.331 523.783V524.72H125.272V523.783H127.731V522.644H128.894V523.783H131.331ZM126.964 527.134C126.964 527.755 127.517 528.139 128.318 528.139C129.119 528.139 129.661 527.755 129.661 527.134C129.661 526.503 129.119 526.119 128.318 526.119C127.517 526.119 126.964 526.503 126.964 527.134ZM128.894 528.985V529.933C129.762 529.887 130.631 529.831 131.444 529.707L131.534 530.564C129.356 530.948 126.998 530.971 125.249 530.971L125.091 530.012C125.87 530.012 126.784 530.012 127.731 529.978V528.985C126.603 528.793 125.87 528.105 125.87 527.134C125.87 525.984 126.863 525.228 128.318 525.228C129.762 525.228 130.755 525.984 130.755 527.134C130.755 528.105 130.022 528.804 128.894 528.985ZM134.625 526.864V527.823H133.181V532.798H132.019V522.599H133.181V526.864H134.625Z" fill="#FEFEFE"/>
<rect x="232.709" y="506.41" width="177.708" height="42.3114" rx="2.82076" fill="#509BF8"/>
<path d="M308.224 524.766V524.642H302.052V523.694H309.386V524.766C309.386 526.041 309.386 527.407 309.025 529.381L307.863 529.246C308.224 527.384 308.224 526.007 308.224 524.766ZM306.926 530.645H310.345V531.604H301.138V530.645H303.259V527.35H304.41V530.645H305.775V527.35H306.926V530.645ZM316.99 525.308H318.795V522.747H319.957V528.817H318.795V526.256H316.99V525.308ZM317.576 527.576L317.001 528.49C315.873 528.095 315.06 527.294 314.632 526.312C314.18 527.429 313.323 528.332 312.115 528.76L311.517 527.835C313.097 527.271 314.011 525.917 314.011 524.518V524.371H311.856V523.435H317.306V524.371H315.184V524.507C315.184 525.782 316.053 527.045 317.576 527.576ZM316.572 532.044C318.005 532.044 318.84 531.683 318.84 531.017C318.84 530.351 318.005 529.99 316.572 529.99C315.117 529.99 314.293 530.351 314.293 531.017C314.293 531.683 315.117 532.044 316.572 532.044ZM316.572 529.088C318.693 529.088 320.002 529.81 320.002 531.017C320.002 532.236 318.693 532.946 316.572 532.946C314.44 532.946 313.131 532.236 313.131 531.017C313.131 529.81 314.44 529.088 316.572 529.088ZM324.864 529.787C325.688 529.787 326.286 529.223 326.286 528.366C326.286 527.508 325.688 526.944 324.864 526.944C324.041 526.944 323.443 527.508 323.443 528.366C323.443 529.223 324.041 529.787 324.864 529.787ZM324.864 525.985C326.32 525.985 327.392 526.978 327.392 528.366C327.392 529.765 326.32 530.746 324.864 530.746C323.398 530.746 322.337 529.765 322.337 528.366C322.337 526.978 323.398 525.985 324.864 525.985ZM325.429 522.905V524.315H327.809V525.263H321.841V524.315H324.266V522.905H325.429ZM331.375 526.842V527.813H329.806V532.946H328.633V522.747H329.806V526.842H331.375ZM332.852 523.819H337.681C337.681 526.854 336.462 529.426 332.965 531.119L332.344 530.193C335.018 528.907 336.282 527.113 336.485 524.766H332.852V523.819ZM339.52 522.747H340.682V532.935H339.52V522.747Z" fill="#FEFEFE"/>
<path d="M40 456L42.2 458.933C42.6 459.467 43.4 459.467 43.8 458.933L49 452" stroke="#FEFEFE" stroke-width="2" stroke-linecap="round"/>
</g>
<path d="M847.376 83.808H844.112V94.68H842V73.704H844.112V82.056H847.376V83.808ZM840.272 87.984L839 89.568C837.976 88.896 836.96 87.968 835.952 86.784C834.944 85.6 834.256 84.44 833.888 83.304C833.536 84.568 832.88 85.816 831.92 87.048C830.976 88.28 829.904 89.296 828.704 90.096L827.384 88.512C829 87.504 830.304 86.144 831.296 84.432C832.288 82.72 832.784 80.912 832.784 79.008V75.504H834.968V78.912C834.968 80.8 835.464 82.544 836.456 84.144C837.448 85.744 838.72 87.024 840.272 87.984ZM864.638 78.168C864.638 79.608 863.798 80.672 862.118 81.36V84.216H866.894V85.944H847.958V84.216H852.638V81.312C851.006 80.624 850.19 79.576 850.19 78.168C850.19 76.952 850.822 76 852.086 75.312C853.366 74.608 855.142 74.256 857.414 74.256C859.686 74.256 861.454 74.608 862.718 75.312C863.998 76 864.638 76.952 864.638 78.168ZM862.886 88.08C864.214 88.736 864.878 89.664 864.878 90.864C864.878 92.064 864.214 92.992 862.886 93.648C861.574 94.32 859.75 94.656 857.414 94.656C855.094 94.656 853.278 94.32 851.966 93.648C850.654 92.992 849.998 92.064 849.998 90.864C849.998 89.664 850.654 88.736 851.966 88.08C853.278 87.424 855.094 87.096 857.414 87.096C859.75 87.096 861.574 87.424 862.886 88.08ZM862.478 78.168C862.478 77.448 862.03 76.896 861.134 76.512C860.238 76.128 858.998 75.936 857.414 75.936C855.846 75.936 854.614 76.136 853.718 76.536C852.822 76.92 852.374 77.464 852.374 78.168C852.374 78.872 852.822 79.424 853.718 79.824C854.614 80.208 855.846 80.4 857.414 80.4C858.982 80.4 860.214 80.208 861.11 79.824C862.022 79.424 862.478 78.872 862.478 78.168ZM857.414 88.8C855.83 88.8 854.574 88.984 853.646 89.352C852.718 89.704 852.254 90.216 852.254 90.888C852.254 91.544 852.718 92.048 853.646 92.4C854.574 92.752 855.83 92.928 857.414 92.928C859.03 92.928 860.302 92.752 861.23 92.4C862.174 92.048 862.646 91.544 862.646 90.888C862.646 90.216 862.174 89.704 861.23 89.352C860.286 88.984 859.014 88.8 857.414 88.8ZM857.414 82.104C856.422 82.104 855.534 82.032 854.75 81.888V84.216H860.006V81.912C859.19 82.04 858.326 82.104 857.414 82.104ZM880.363 88.224L879.115 89.784C878.059 89.176 877.027 88.288 876.019 87.12C875.011 85.952 874.347 84.808 874.027 83.688C873.707 84.888 873.059 86.104 872.083 87.336C871.123 88.552 870.019 89.544 868.771 90.312L867.403 88.752C869.051 87.808 870.379 86.496 871.387 84.816C872.411 83.136 872.923 81.32 872.923 79.368V77.64H868.195V75.888H879.739V77.64H875.107V79.344C875.107 81.296 875.587 83.048 876.547 84.6C877.523 86.152 878.795 87.36 880.363 88.224ZM887.491 83.856H884.203V94.68H882.091V73.704H884.203V82.08H887.491V83.856ZM904.249 73.704V82.296H907.609V84.072H904.249V94.68H902.137V73.704H904.249ZM898.729 75.936C898.665 79.2 897.825 82.064 896.209 84.528C894.593 86.992 892.313 89.024 889.369 90.624L888.073 89.016C890.505 87.848 892.457 86.248 893.929 84.216C895.417 82.184 896.257 80.024 896.449 77.736H888.985V75.936H898.729ZM930.887 84.936H928.751V73.704H930.887V84.936ZM930.911 94.416H917.279V86.088H919.391V88.56H928.775V86.064H930.911V94.416ZM928.775 92.712V90.24H919.391V92.712H928.775ZM915.815 76.104C916.855 75.16 918.135 74.688 919.655 74.688C921.175 74.688 922.447 75.152 923.471 76.08C924.495 76.992 925.007 78.184 925.007 79.656C925.007 81.128 924.495 82.312 923.471 83.208C922.463 84.104 921.191 84.552 919.655 84.552C918.119 84.552 916.839 84.104 915.815 83.208C914.791 82.312 914.279 81.136 914.279 79.68C914.279 78.224 914.791 77.032 915.815 76.104ZM919.655 76.536C918.727 76.536 917.951 76.824 917.327 77.4C916.719 77.96 916.415 78.704 916.415 79.632C916.415 80.56 916.719 81.304 917.327 81.864C917.951 82.424 918.727 82.704 919.655 82.704C920.599 82.704 921.367 82.432 921.959 81.888C922.567 81.328 922.871 80.584 922.871 79.656C922.871 78.712 922.567 77.96 921.959 77.4C921.367 76.824 920.599 76.536 919.655 76.536ZM944.789 83.616L945.029 85.272C943.269 85.624 940.845 85.8 937.757 85.8H934.517V79.368H941.789V76.608H934.493V74.904H943.901V81.048H936.653V84.096H937.709C940.941 84.096 943.301 83.936 944.789 83.616ZM950.933 86.76H948.797V82.968H945.365V81.216H948.797V78.48H945.365V76.752H948.797V73.704H950.933V86.76ZM936.725 87.672H950.933V94.776H948.797V89.4H936.725V87.672ZM973.114 82.536H969.97V89.16H967.858V73.704H969.97V80.736H973.114V82.536ZM970.69 94.056H956.698V88.56H958.81V92.352H970.69V94.056ZM962.746 76.08H956.65V74.352H962.746V76.08ZM965.962 79.224H953.65V77.52H965.962V79.224ZM964.786 83.976C964.786 85.112 964.322 86.024 963.394 86.712C962.466 87.384 961.274 87.72 959.818 87.72C958.378 87.72 957.194 87.384 956.266 86.712C955.338 86.024 954.874 85.112 954.874 83.976C954.874 82.808 955.33 81.888 956.242 81.216C957.17 80.544 958.362 80.208 959.818 80.208C961.274 80.208 962.466 80.544 963.394 81.216C964.322 81.888 964.786 82.808 964.786 83.976ZM962.674 83.976C962.674 83.336 962.394 82.832 961.834 82.464C961.29 82.096 960.618 81.912 959.818 81.912C959.018 81.912 958.346 82.096 957.802 82.464C957.258 82.832 956.986 83.336 956.986 83.976C956.986 84.584 957.258 85.08 957.802 85.464C958.362 85.832 959.034 86.016 959.818 86.016C960.618 86.016 961.29 85.832 961.834 85.464C962.394 85.096 962.674 84.6 962.674 83.976ZM998.721 80.016H995.601V84.552H993.465V73.704H995.601V78.264H998.721V80.016ZM996.345 94.536H982.257V89.184H993.465V87.408H982.089V85.68H995.601V90.792H984.369V92.808H996.345V94.536ZM989.985 83.856H980.073V74.52H982.185V77.448H987.873V74.496H989.985V83.856ZM987.873 82.152V79.152H982.185V82.152H987.873ZM1018.38 92.016H999.446V90.288H1004.41V86.064H1006.55V90.288H1011.21V86.064H1013.34V90.288H1018.38V92.016ZM1016.46 85.032H1001.25V83.304H1004.39L1003.93 78.48L1006.07 78.192L1006.41 83.304H1011.45L1012.02 78.24L1014.11 78.6L1013.39 83.304H1016.46V85.032ZM1016.49 77.208H1001.22V75.48H1016.49V77.208ZM1043.17 81.936L1042.21 83.64C1040.63 83.384 1039.08 82.824 1037.56 81.96C1036.05 81.096 1035.04 80.184 1034.53 79.224C1034.07 80.216 1033.1 81.152 1031.63 82.032C1030.17 82.896 1028.61 83.456 1026.95 83.712L1025.94 82.032C1027.72 81.84 1029.37 81.264 1030.91 80.304C1032.44 79.328 1033.28 78.208 1033.43 76.944H1026.83V75.192H1042.31V76.944H1035.68C1035.84 78.192 1036.7 79.296 1038.25 80.256C1039.82 81.2 1041.46 81.76 1043.17 81.936ZM1035.56 94.68H1033.43V87.336H1025.08V85.608H1044.01V87.336H1035.56V94.68ZM1055.83 88.344L1054.55 89.856C1053.74 89.328 1052.89 88.536 1052.01 87.48C1051.15 86.408 1050.58 85.384 1050.31 84.408C1050.08 85.48 1049.57 86.56 1048.77 87.648C1047.97 88.736 1047.07 89.616 1046.08 90.288L1044.74 88.824C1046.1 87.944 1047.19 86.728 1048.03 85.176C1048.86 83.624 1049.27 81.856 1049.27 79.872V77.904H1045.19V76.2H1055.23V77.904H1051.36V79.8C1051.36 81.8 1051.79 83.528 1052.63 84.984C1053.48 86.44 1054.55 87.56 1055.83 88.344ZM1058.68 93.648H1056.67V82.992H1053.55V81.24H1056.67V74.184H1058.68V93.648ZM1062.83 94.68H1060.79V73.704H1062.83V94.68ZM1064.81 95.232L1065.65 90.384H1068.07L1066.58 95.232H1064.81ZM1094.83 85.92H1075.89V84.168H1084.24V81.672H1078.32V74.472H1092.43V81.672H1086.38V84.168H1094.83V85.92ZM1090.27 79.992V76.176H1080.43V79.992H1090.27ZM1077.98 87.96H1092.5V94.776H1090.39V89.688H1077.98V87.96ZM1096.42 76.992V75.264H1107.89V76.992H1103.31V77.832C1103.31 79.224 1103.82 80.488 1104.84 81.624C1105.87 82.744 1107.03 83.504 1108.32 83.904L1107.15 85.608C1106.19 85.224 1105.23 84.616 1104.29 83.784C1103.35 82.936 1102.67 82.048 1102.25 81.12C1101.93 82.096 1101.25 83.072 1100.21 84.048C1099.17 85.024 1098.09 85.744 1096.97 86.208L1095.77 84.528C1097.21 84.016 1098.47 83.136 1099.54 81.888C1100.61 80.624 1101.15 79.288 1101.15 77.88V76.992H1096.42ZM1099.11 87.24H1113.17V94.68H1111.01V88.968H1099.11V87.24ZM1113.15 86.136H1111.01V80.832H1107.12V79.104H1111.01V73.704H1113.15V86.136ZM1115.62 95.232L1116.46 90.384H1118.89L1117.4 95.232H1115.62ZM1143.41 90.936C1143.41 92.104 1142.78 93.008 1141.52 93.648C1140.25 94.288 1138.47 94.608 1136.16 94.608C1133.88 94.608 1132.1 94.28 1130.84 93.624C1129.57 92.984 1128.94 92.088 1128.94 90.936C1128.94 89.816 1129.57 88.936 1130.84 88.296C1132.12 87.656 1133.89 87.336 1136.16 87.336C1138.47 87.336 1140.25 87.648 1141.52 88.272C1142.78 88.896 1143.41 89.784 1143.41 90.936ZM1144.78 80.736L1143.84 82.44C1142.2 82.2 1140.64 81.68 1139.19 80.88C1137.73 80.08 1136.72 79.192 1136.16 78.216C1135.72 79.224 1134.78 80.128 1133.36 80.928C1131.95 81.712 1130.36 82.216 1128.58 82.44L1127.64 80.76C1129.4 80.616 1130.99 80.168 1132.4 79.416C1133.82 78.648 1134.68 77.688 1134.99 76.536H1128.53V74.784H1143.8V76.536H1137.39C1137.71 77.672 1138.61 78.632 1140.1 79.416C1141.6 80.184 1143.16 80.624 1144.78 80.736ZM1145.64 85.992H1126.71V84.24H1135.08V81.072H1137.22V84.24H1145.64V85.992ZM1136.16 88.992C1134.61 88.992 1133.38 89.168 1132.47 89.52C1131.57 89.872 1131.12 90.352 1131.12 90.96C1131.12 91.584 1131.57 92.072 1132.47 92.424C1133.36 92.76 1134.6 92.928 1136.16 92.928C1137.75 92.928 1138.99 92.76 1139.88 92.424C1140.8 92.072 1141.25 91.584 1141.25 90.96C1141.25 90.352 1140.8 89.872 1139.88 89.52C1138.97 89.168 1137.73 88.992 1136.16 88.992ZM1164.68 94.56H1150.4V89.16H1161.82V87.168H1150.23V85.464H1163.96V90.744H1152.51V92.832H1164.68V94.56ZM1157.48 74.784C1157.3 77.392 1156.35 79.544 1154.62 81.24C1152.91 82.936 1150.71 84.16 1148.02 84.912L1146.87 83.232C1149.03 82.752 1150.84 81.92 1152.3 80.736C1153.75 79.552 1154.68 78.16 1155.08 76.56H1147.93V74.784H1157.48ZM1157.72 78.36V76.704H1161.82V73.704H1163.96V84.336H1161.82V82.2H1157.46V80.544H1161.82V78.36H1157.72ZM1173.85 87.96C1172.94 86.584 1172.48 84.8 1172.48 82.608C1172.48 80.416 1172.94 78.632 1173.85 77.256C1174.76 75.88 1176.1 75.192 1177.88 75.192C1179.51 75.192 1180.77 75.784 1181.65 76.968C1182.54 78.136 1183.06 79.696 1183.21 81.648H1187.46V73.704H1189.59V94.68H1187.46V83.448H1183.21C1183.08 85.432 1182.57 87.024 1181.67 88.224C1180.79 89.424 1179.53 90.024 1177.88 90.024C1176.1 90.024 1174.76 89.336 1173.85 87.96ZM1181.12 82.632C1181.12 80.952 1180.83 79.6 1180.26 78.576C1179.7 77.536 1178.9 77.016 1177.88 77.016C1176.84 77.016 1176.04 77.528 1175.48 78.552C1174.94 79.576 1174.66 80.936 1174.66 82.632C1174.66 84.296 1174.94 85.64 1175.48 86.664C1176.04 87.688 1176.84 88.2 1177.88 88.2C1178.9 88.2 1179.7 87.688 1180.26 86.664C1180.83 85.64 1181.12 84.296 1181.12 82.632ZM1209.59 94.68H1207.48V73.704H1209.59V94.68ZM1203.59 89.328H1193.53V75.816H1203.59V89.328ZM1201.48 87.576V77.544H1195.64V87.576H1201.48ZM1217.47 75.36C1218.87 75.36 1219.97 75.96 1220.75 77.16C1221.55 78.344 1221.99 79.92 1222.07 81.888H1224.11V74.112H1226.13V93.696H1224.11V83.64H1222.07C1221.98 85.576 1221.54 87.136 1220.75 88.32C1219.97 89.488 1218.87 90.072 1217.47 90.072C1215.96 90.072 1214.82 89.392 1214.03 88.032C1213.25 86.672 1212.86 84.888 1212.86 82.68C1212.86 80.488 1213.25 78.72 1214.03 77.376C1214.82 76.032 1215.96 75.36 1217.47 75.36ZM1219.36 86.76C1219.79 85.752 1220.01 84.4 1220.01 82.704C1220.01 81.008 1219.79 79.664 1219.36 78.672C1218.93 77.664 1218.3 77.16 1217.47 77.16C1216.67 77.16 1216.04 77.664 1215.59 78.672C1215.16 79.68 1214.95 81.024 1214.95 82.704C1214.95 84.4 1215.16 85.752 1215.59 86.76C1216.03 87.752 1216.65 88.248 1217.47 88.248C1218.3 88.248 1218.93 87.752 1219.36 86.76ZM1230.19 94.68H1228.17V73.704H1230.19V94.68ZM1257.64 83.712H1254.69V94.68H1252.6V73.704H1254.69V81.912H1257.64V83.712ZM1244.58 88.584C1243.05 88.952 1241.07 89.136 1238.66 89.136V75.888H1243.94V77.616H1240.77V87.384C1241.97 87.384 1243.15 87.232 1244.32 86.928L1244.58 88.584ZM1251.66 88.632C1250.11 88.968 1247.94 89.136 1245.16 89.136V75.888H1250.7V77.616H1247.25V87.384C1248.74 87.384 1250.11 87.248 1251.38 86.976L1251.66 88.632ZM1270.58 87.24L1270.8 89.016C1268.08 89.48 1264.96 89.712 1261.44 89.712H1258.92V81.48H1266.45V77.328H1258.85V75.6H1268.57V83.184H1261.03V87.96C1264.81 87.992 1267.99 87.752 1270.58 87.24ZM1274.35 73.704V82.032H1277.61V83.784H1274.35V94.68H1272.24V73.704H1274.35ZM838.664 136.432H828.656V127.168H838.664V136.432ZM836.576 134.728V128.872H830.744V134.728H836.576ZM847.232 132.736H844.112V137.968H841.976V125.704H844.112V130.984H847.232V132.736ZM845.576 145.12L844.496 146.8C843.088 146.608 841.68 146.08 840.272 145.216C838.88 144.368 837.984 143.52 837.584 142.672C837.184 143.552 836.312 144.408 834.968 145.24C833.624 146.072 832.184 146.584 830.648 146.776L829.568 145.096C831.248 145 832.776 144.496 834.152 143.584C835.528 142.672 836.312 141.672 836.504 140.584H830.696V138.856H844.472V140.584H838.736C838.944 141.64 839.736 142.632 841.112 143.56C842.504 144.488 843.992 145.008 845.576 145.12ZM864.59 146.392H850.214V139.96H856.334V138.016H847.958V136.288H866.894V138.016H858.47V139.96H864.59V146.392ZM865.958 133.576L865.07 135.352C863.454 135.16 861.91 134.736 860.438 134.08C858.982 133.424 857.974 132.656 857.414 131.776C856.87 132.704 855.886 133.488 854.462 134.128C853.038 134.768 851.486 135.176 849.806 135.352L848.87 133.576C850.534 133.496 852.054 133.184 853.43 132.64C854.806 132.096 855.71 131.408 856.142 130.576H849.902V128.896H864.926V130.576H858.758C859.206 131.408 860.134 132.096 861.542 132.64C862.95 133.184 864.422 133.496 865.958 133.576ZM862.454 144.736V141.64H852.326V144.736H862.454ZM860.798 127.48H854.006V125.752H860.798V127.48ZM886.939 143.848H868.003V142.12H886.939V143.848ZM885.043 132.928C885.043 134.56 884.347 135.88 882.955 136.888C881.563 137.88 879.731 138.376 877.459 138.376C875.203 138.376 873.379 137.88 871.987 136.888C870.611 135.88 869.923 134.56 869.923 132.928C869.923 131.312 870.611 130 871.987 128.992C873.379 127.984 875.203 127.48 877.459 127.48C879.731 127.48 881.563 127.984 882.955 128.992C884.347 130 885.043 131.312 885.043 132.928ZM882.883 132.928C882.883 131.872 882.387 131.016 881.395 130.36C880.403 129.688 879.091 129.352 877.459 129.352C875.843 129.352 874.539 129.688 873.547 130.36C872.571 131.016 872.083 131.872 872.083 132.928C872.083 134 872.571 134.864 873.547 135.52C874.539 136.176 875.843 136.504 877.459 136.504C879.091 136.504 880.403 136.176 881.395 135.52C882.387 134.864 882.883 134 882.883 132.928ZM906.985 144.016H888.049V142.288H896.401V138.976H890.329V132.232H902.521V129.16H890.281V127.432H904.633V133.96H892.441V137.248H905.209V138.976H898.537V142.288H906.985V144.016ZM932.999 132.016H929.879V136.552H927.743V125.704H929.879V130.264H932.999V132.016ZM930.623 146.536H916.535V141.184H927.743V139.408H916.367V137.68H929.879V142.792H918.647V144.808H930.623V146.536ZM924.263 135.856H914.351V126.52H916.463V129.448H922.151V126.496H924.263V135.856ZM922.151 134.152V131.152H916.463V134.152H922.151ZM952.661 144.016H933.725V142.288H938.693V138.064H940.829V142.288H945.485V138.064H947.621V142.288H952.661V144.016ZM950.741 137.032H935.525V135.304H938.669L938.213 130.48L940.349 130.192L940.685 135.304H945.725L946.301 130.24L948.389 130.6L947.669 135.304H950.741V137.032ZM950.765 129.208H935.501V127.48H950.765V129.208ZM970.33 134.224H956.17V126.832H970.33V134.224ZM964.378 142.264H962.266V138.16H953.77V136.456H972.706V138.16H964.378V142.264ZM968.218 132.472V128.584H958.306V132.472H968.218ZM970.618 146.056H956.122V140.248H958.258V144.328H970.618V146.056ZM992.752 136.384H973.816V134.656H992.752V136.384ZM991.168 146.536H975.976V141.4H988.264V139.888H975.928V138.16H990.376V142.984H978.088V144.784H991.168V146.536ZM990.568 129.712C990.568 130.88 989.928 131.792 988.648 132.448C987.368 133.088 985.584 133.408 983.296 133.408C981.024 133.408 979.248 133.088 977.968 132.448C976.704 131.792 976.072 130.88 976.072 129.712C976.072 128.528 976.704 127.616 977.968 126.976C979.248 126.32 981.024 125.992 983.296 125.992C985.584 125.992 987.368 126.32 988.648 126.976C989.928 127.616 990.568 128.528 990.568 129.712ZM983.296 127.696C981.776 127.696 980.56 127.88 979.648 128.248C978.736 128.616 978.28 129.104 978.28 129.712C978.28 130.304 978.736 130.784 979.648 131.152C980.56 131.52 981.776 131.704 983.296 131.704C984.848 131.704 986.08 131.52 986.992 131.152C987.92 130.784 988.384 130.304 988.384 129.712C988.384 129.104 987.92 128.616 986.992 128.248C986.08 127.88 984.848 127.696 983.296 127.696ZM1018.38 143.632H999.446V141.88H1004.01V134.944H1006.14V141.88H1009.21V134.944H1011.33V141.88H1018.38V143.632ZM1016.17 128.008C1016.17 133.144 1015.87 136.968 1015.26 139.48L1013.2 139.144C1013.77 136.824 1014.05 133.688 1014.01 129.736H1001.39V128.008H1016.17ZM1034.95 139.648C1036.2 140.368 1036.82 141.36 1036.82 142.624C1036.82 143.888 1036.2 144.88 1034.97 145.6C1033.74 146.32 1032 146.68 1029.74 146.68C1027.52 146.68 1025.78 146.32 1024.53 145.6C1023.3 144.88 1022.68 143.888 1022.68 142.624C1022.68 141.36 1023.3 140.368 1024.53 139.648C1025.78 138.912 1027.52 138.544 1029.74 138.544C1031.98 138.544 1033.72 138.912 1034.95 139.648ZM1019.97 129.136V127.408H1031.44V129.136H1026.86V129.832C1026.86 131.224 1027.37 132.488 1028.4 133.624C1029.42 134.744 1030.58 135.504 1031.88 135.904L1030.7 137.608C1029.74 137.224 1028.79 136.616 1027.84 135.784C1026.9 134.936 1026.22 134.048 1025.8 133.12C1025.48 134.096 1024.8 135.072 1023.76 136.048C1022.72 137.024 1021.64 137.744 1020.52 138.208L1019.32 136.528C1020.76 136.016 1022.02 135.136 1023.09 133.888C1024.16 132.624 1024.7 131.288 1024.7 129.88V129.136H1019.97ZM1029.74 140.296C1028.2 140.296 1027 140.504 1026.14 140.92C1025.28 141.32 1024.84 141.888 1024.84 142.624C1024.84 143.36 1025.28 143.936 1026.14 144.352C1027 144.752 1028.2 144.952 1029.74 144.952C1031.29 144.952 1032.5 144.752 1033.36 144.352C1034.23 143.936 1034.66 143.36 1034.66 142.624C1034.66 141.888 1034.23 141.32 1033.36 140.92C1032.5 140.504 1031.29 140.296 1029.74 140.296ZM1034.56 132.736H1030.65V130.984H1034.56V125.704H1036.7V138.712H1034.56V132.736ZM1057.25 146.68H1055.21V136.12H1053.05V145.648H1051.01V126.16H1053.05V134.368H1055.21V125.704H1057.25V146.68ZM1049.55 137.68C1049.55 138.944 1049.12 139.952 1048.27 140.704C1047.43 141.44 1046.31 141.808 1044.94 141.808C1043.58 141.808 1042.47 141.424 1041.6 140.656C1040.74 139.872 1040.31 138.88 1040.31 137.68C1040.31 136.432 1040.73 135.44 1041.58 134.704C1042.44 133.952 1043.56 133.576 1044.94 133.576C1046.31 133.576 1047.43 133.952 1048.27 134.704C1049.12 135.44 1049.55 136.432 1049.55 137.68ZM1046.76 139.408C1047.26 138.944 1047.51 138.368 1047.51 137.68C1047.51 136.992 1047.26 136.424 1046.76 135.976C1046.28 135.528 1045.67 135.304 1044.94 135.304C1044.19 135.304 1043.56 135.536 1043.07 136C1042.59 136.448 1042.35 137.008 1042.35 137.68C1042.35 138.384 1042.59 138.968 1043.07 139.432C1043.55 139.88 1044.17 140.104 1044.94 140.104C1045.67 140.104 1046.28 139.872 1046.76 139.408ZM1049.98 132.616H1039.59V130.864H1049.98V132.616ZM1047.55 129.016H1041.91V127.288H1047.55V129.016ZM1081.85 137.704H1067.62V127.768H1081.66V129.496H1069.73V136H1081.85V137.704ZM1084.1 143.848H1065.17V142.12H1084.1V143.848ZM1096.52 139.504L1096.73 141.208C1094.33 141.576 1091.38 141.76 1087.88 141.76H1085.93V133.408H1093.09V129.328H1085.93V127.6H1095.2V135.136H1088.05V140.032C1091.63 140.032 1094.45 139.856 1096.52 139.504ZM1096.61 138.016V136.288H1100.29V132.616H1096.61V130.864H1100.29V125.704H1102.4V146.68H1100.29V138.016H1096.61ZM1120.38 128.608C1121.82 129.6 1122.54 130.912 1122.54 132.544C1122.54 134.176 1121.82 135.488 1120.38 136.48C1118.96 137.472 1117.07 137.968 1114.72 137.968C1112.38 137.968 1110.49 137.472 1109.05 136.48C1107.63 135.488 1106.92 134.176 1106.92 132.544C1106.92 130.912 1107.63 129.6 1109.05 128.608C1110.49 127.6 1112.38 127.096 1114.72 127.096C1117.07 127.096 1118.96 127.6 1120.38 128.608ZM1120.36 132.544C1120.36 131.44 1119.84 130.552 1118.8 129.88C1117.77 129.192 1116.41 128.848 1114.72 128.848C1113.02 128.848 1111.66 129.192 1110.64 129.88C1109.61 130.552 1109.1 131.44 1109.1 132.544C1109.1 133.632 1109.61 134.52 1110.64 135.208C1111.68 135.88 1113.04 136.216 1114.72 136.216C1116.41 136.216 1117.77 135.88 1118.8 135.208C1119.84 134.52 1120.36 133.632 1120.36 132.544ZM1124.2 144.016H1105.26V142.288H1109.8V138.568L1111.93 138.496V142.288H1117.48V138.496L1119.59 138.568V142.288H1124.2V144.016Z" fill="black"/>
<circle cx="798" cy="83" r="10" fill="#509BF8"/>
<path d="M791 83L461 83" stroke="#509BF8" stroke-width="2" stroke-linecap="round"/>
<defs>
<filter id="filter0_d_1106_7673" x="0" y="83" width="490.439" height="531.802" filterUnits="userSpaceOnUse" color-interpolation-filters="sRGB">
<feFlood flood-opacity="0" result="BackgroundImageFix"/>
<feColorMatrix in="SourceAlpha" type="matrix" values="0 0 0 0 0 0 0 0 0 0 0 0 0 0 0 0 0 0 127 0" result="hardAlpha"/>
<feOffset dx="23.6356" dy="23.6356"/>
<feGaussianBlur stdDeviation="11.8178"/>
<feComposite in2="hardAlpha" operator="out"/>
<feColorMatrix type="matrix" values="0 0 0 0 0.533333 0 0 0 0 0.741176 0 0 0 0 1 0 0 0 0.25 0"/>
<feBlend mode="normal" in2="BackgroundImageFix" result="effect1_dropShadow_1106_7673"/>
<feBlend mode="normal" in="SourceGraphic" in2="effect1_dropShadow_1106_7673" result="shape"/>
</filter>
</defs>
</svg>
