<svg width="491" height="532" viewBox="0 0 491 532" fill="none" xmlns="http://www.w3.org/2000/svg">
<g filter="url(#filter0_d_554_206)">
<path d="M0 0H434.706C439.379 0 443.168 3.78869 443.168 8.46227V476.068C443.168 480.742 439.379 484.53 434.706 484.53H8.46227C3.78868 484.53 0 480.742 0 476.068V0Z" fill="#FEFEFE" shape-rendering="crispEdges"/>
<path d="M1.18178 1.18178H434.706C438.727 1.18178 441.986 4.44137 441.986 8.46227V476.068C441.986 480.089 438.727 483.348 434.706 483.348H8.46227C4.44137 483.348 1.18178 480.089 1.18178 476.068V1.18178Z" stroke="#88BDFF" stroke-width="2.36356" shape-rendering="crispEdges"/>
<path d="M35.909 35.335V34.1291H37.9526V27.6301H36.2771V26.7034C37.153 26.5384 37.7749 26.3226 38.3081 25.9799H39.4124V34.1291H41.2402V35.335H35.909ZM43.9479 35.5C43.4021 35.5 42.9705 35.0811 42.9705 34.4845C42.9705 33.8752 43.4021 33.4436 43.9479 33.4436C44.4937 33.4436 44.9253 33.8752 44.9253 34.4845C44.9253 35.0811 44.4937 35.5 43.9479 35.5ZM67.0724 29.3056V27.8459H64.2672V29.3056H67.0724ZM68.3672 25.3326V30.3465H62.9598V25.3326H64.2672V26.8431H67.0724V25.3326H68.3672ZM65.4223 34.1672V35.1826H71.8959V36.2108H64.1403V33.2025H70.2204V32.2505H64.1149V31.235H71.5151V34.1672H65.4223ZM71.5151 27.1985H73.1272V28.2774H71.5151V30.7273H70.2077V24.8502H71.5151V27.1985ZM78.2797 31.4508V33.9133H80.5392V31.4508H78.2797ZM78.0893 26.8938V30.3972H80.7296V26.8938H78.0893ZM81.8339 33.9133H84.6391V34.9922H74.2432V33.9133H76.9723V31.4508H75.1318V30.3972H76.7819V26.8938H75.0937V25.8403H83.7125V26.8938H82.0243V30.3972H83.6744V31.4508H81.8339V33.9133ZM89.6139 25.6499C91.4037 25.6499 92.7365 26.7796 92.7365 28.4044C92.7365 30.0291 91.4037 31.1588 89.6139 31.1588C87.8242 31.1588 86.5041 30.0291 86.5041 28.4044C86.5041 26.7796 87.8242 25.6499 89.6139 25.6499ZM89.6139 26.7669C88.5604 26.7669 87.7861 27.4016 87.7861 28.4044C87.7861 29.3944 88.5604 30.0418 89.6139 30.0418C90.6802 30.0418 91.4545 29.3944 91.4545 28.4044C91.4545 27.4016 90.6802 26.7669 89.6139 26.7669ZM94.0313 24.8375H95.3514V36.325H94.0313V24.8375ZM86.136 33.9006L85.9709 32.8217C88.0273 32.8217 90.8833 32.809 93.3458 32.4409L93.4347 33.3929C90.9087 33.8752 88.1669 33.9006 86.136 33.9006ZM101.489 30.4607L101.019 29.4325C103.203 29.1406 104.815 27.8839 104.891 26.5511H101.4V25.4976H109.841V26.5511H106.376C106.452 27.8839 108.064 29.1406 110.247 29.4325L109.778 30.4607C107.887 30.1814 106.325 29.2421 105.627 27.9728C104.929 29.2421 103.38 30.1814 101.489 30.4607ZM110.819 31.2985L110.806 32.352H106.249V36.325H104.942V32.352H100.448V31.2985H110.819ZM115.603 27.1731V27.9982C115.603 29.953 116.339 31.9331 117.939 32.8597L117.177 33.8118C116.098 33.1771 115.387 32.0474 114.981 30.7146C114.575 32.1616 113.839 33.3929 112.734 34.091L111.947 33.1263C113.572 32.1108 114.334 30.0418 114.334 27.9982V27.1731H112.316V26.0942H117.494V27.1731H115.603ZM118.345 28.874V25.066H119.576V35.7538H118.345V29.9403H116.657V28.874H118.345ZM120.655 24.8375H121.899V36.2997H120.655V24.8375ZM126.379 32.644C127.166 32.644 127.648 31.6158 127.648 29.8006C127.648 27.9855 127.166 26.97 126.379 26.97C125.592 26.97 125.109 27.9855 125.109 29.8006C125.109 31.6158 125.592 32.644 126.379 32.644ZM130.047 29.1914V25.066H131.266V35.7665H130.047V30.2703H128.829C128.714 32.5043 127.775 33.8752 126.379 33.8752C124.894 33.8752 123.916 32.3139 123.916 29.8006C123.916 27.2873 124.894 25.7387 126.379 25.7387C127.75 25.7387 128.676 27.0462 128.816 29.1914H130.047ZM132.345 24.8502H133.589V36.2997H132.345V24.8502ZM139.993 27.2746V32.5043C141.313 32.4916 142.354 32.4282 143.534 32.187L143.649 33.2659C142.265 33.5325 141.085 33.5833 139.472 33.5833H138.711V26.2084H142.95V27.2746H139.993ZM146.86 24.8375H148.104V36.2997H146.86V30.4353H145.502V35.7411H144.271V25.0787H145.502V29.3691H146.86V24.8375ZM152.8 32.6567C153.574 32.6567 154.12 32.0347 154.12 31.0827C154.12 30.1307 153.574 29.496 152.8 29.496C152.025 29.496 151.479 30.1307 151.479 31.0827C151.479 32.0347 152.025 32.6567 152.8 32.6567ZM152.8 28.4171C154.247 28.4171 155.287 29.496 155.287 31.0827C155.287 32.6567 154.247 33.7483 152.8 33.7483C151.352 33.7483 150.312 32.6567 150.312 31.0827C150.312 29.496 151.352 28.4171 152.8 28.4171ZM153.447 25.1802V26.7161H155.592V27.7697H149.982V26.7161H152.152V25.1802H153.447ZM158.524 24.8502H159.768V36.3124H158.524V30.6765H157.306V35.7792H156.087V25.0914H157.306V29.5975H158.524V24.8502ZM164.979 25.7261H170.399C170.399 28.7598 168.381 30.9177 165.043 31.9331L164.497 30.8923C167.124 30.0926 168.749 28.6075 168.978 26.7923H164.979V25.7261ZM167.531 32.3139V35.0303H173.928V36.0966H166.211V32.3139H167.531ZM173.471 28.2013H175.109V29.2802H173.471V33.1517H172.164V24.8502H173.471V28.2013ZM182.876 29.8641L183.016 30.9303C181.289 31.235 179.791 31.2985 177.596 31.2985H176.669V27.8459H180.553V26.5511H176.644V25.4976H181.848V28.8359H177.951V30.2322C179.918 30.2195 181.302 30.1561 182.876 29.8641ZM177.621 33.4436V32.3901H185.161V36.325H183.853V33.4436H177.621ZM186.773 27.6428H185.161V28.9883H186.773V30.0672H185.161V31.8189H183.853V24.8756H185.161V26.5765H186.773V27.6428ZM191.57 32.7709C192.509 32.7709 193.195 32.1362 193.195 31.1715C193.195 30.2068 192.509 29.5722 191.57 29.5722C190.631 29.5722 189.945 30.2068 189.945 31.1715C189.945 32.1362 190.631 32.7709 191.57 32.7709ZM191.57 28.4932C193.233 28.4932 194.451 29.6102 194.451 31.1715C194.451 32.7455 193.233 33.8498 191.57 33.8498C189.907 33.8498 188.689 32.7455 188.689 31.1715C188.689 29.6102 189.907 28.4932 191.57 28.4932ZM192.217 25.0025V26.64H194.972V27.6935H188.13V26.64H190.897V25.0025H192.217ZM196 24.8502H197.32V36.3124H196V24.8502ZM210.604 30.7273V27.8078H208.281V26.7542H210.604V24.8375H211.912V30.7273H210.604ZM209.182 29.5214L208.497 30.5369C207.253 30.118 206.339 29.2675 205.857 28.2013C205.349 29.3944 204.397 30.3211 203.052 30.7907L202.379 29.7626C204.169 29.1787 205.171 27.7443 205.171 26.1703V25.2056H206.479V26.1703C206.479 27.6174 207.469 28.9629 209.182 29.5214ZM205.768 35.1446H212.305V36.1727H204.473V33.2025H210.617V32.2885H204.448V31.2731H211.912V34.1672H205.768V35.1446ZM218.625 29.826V26.7415H215.871V29.826H218.625ZM222.281 27.6808H219.895V28.8867H222.281V27.6808ZM219.895 29.953V30.8669H214.589V25.7007H219.895V26.6146H222.281V24.8502H223.588V31.6031H222.281V29.953H219.895ZM219.768 35.2969C221.393 35.2969 222.332 34.878 222.332 34.1164C222.332 33.3675 221.393 32.9486 219.768 32.9486C218.143 32.9486 217.216 33.3675 217.216 34.1164C217.216 34.878 218.143 35.2969 219.768 35.2969ZM219.768 31.9204C222.167 31.9204 223.639 32.7328 223.639 34.1164C223.639 35.5 222.167 36.3124 219.768 36.3124C217.381 36.3124 215.909 35.5 215.909 34.1164C215.909 32.7328 217.381 31.9204 219.768 31.9204ZM228.563 32.6567C229.338 32.6567 229.883 32.0347 229.883 31.0827C229.883 30.1307 229.338 29.496 228.563 29.496C227.789 29.496 227.243 30.1307 227.243 31.0827C227.243 32.0347 227.789 32.6567 228.563 32.6567ZM228.563 28.4171C230.01 28.4171 231.051 29.496 231.051 31.0827C231.051 32.6567 230.01 33.7483 228.563 33.7483C227.116 33.7483 226.075 32.6567 226.075 31.0827C226.075 29.496 227.116 28.4171 228.563 28.4171ZM229.211 25.1802V26.7161H231.356V27.7697H225.745V26.7161H227.916V25.1802H229.211ZM234.288 24.8502H235.532V36.3124H234.288V30.6765H233.069V35.7792H231.851V25.0914H233.069V29.5975H234.288V24.8502ZM241.34 30.4607L240.87 29.4325C243.053 29.1406 244.665 27.8839 244.741 26.5511H241.251V25.4976H249.692V26.5511H246.227C246.303 27.8839 247.915 29.1406 250.098 29.4325L249.628 30.4607C247.737 30.1814 246.176 29.2421 245.478 27.9728C244.78 29.2421 243.231 30.1814 241.34 30.4607ZM250.669 31.2985L250.657 32.352H246.1V36.325H244.792V32.352H240.299V31.2985H250.669ZM255.492 25.9038V27.9093C255.492 29.7626 256.19 31.7046 257.726 32.6693L256.99 33.6848C255.949 33.0501 255.263 31.9331 254.87 30.6511C254.464 32.0601 253.715 33.2659 252.61 33.9387L251.811 32.9486C253.435 31.9839 254.222 29.9276 254.222 27.9728V25.9038H255.492ZM258.183 28.8613V25.066H259.414V35.7792H258.183V29.9276H256.495V28.8613H258.183ZM260.518 24.8502H261.762V36.3124H260.518V24.8502ZM267.385 31.3492V33.8371H270.279V31.3365C269.834 31.4508 269.339 31.5016 268.832 31.5016C268.324 31.5016 267.829 31.4508 267.385 31.3492ZM268.832 26.5384C267.093 26.5384 265.887 27.3 265.887 28.5059C265.887 29.7245 267.093 30.4861 268.832 30.4861C270.558 30.4861 271.764 29.7245 271.764 28.5059C271.764 27.3 270.558 26.5384 268.832 26.5384ZM271.586 33.8371H274.036V34.9034H263.653V33.8371H266.077V30.8542C265.163 30.3465 264.617 29.5214 264.617 28.5059C264.617 26.6781 266.382 25.5103 268.832 25.5103C271.269 25.5103 273.046 26.6781 273.046 28.5059C273.046 29.5214 272.5 30.3338 271.586 30.8542V33.8371Z" fill="#757575"/>
<path d="M54.9377 29.6483L54.2777 29.166L55.0901 27.7824L53.6557 27.1731L53.9096 26.3988L55.4328 26.7542L55.5724 25.1675H56.3975L56.5371 26.7542L58.0603 26.3988L58.3142 27.1731L56.8798 27.7824L57.7049 29.166L57.0448 29.6483L55.9913 28.4171L54.9377 29.6483Z" fill="#FD8889"/>
<rect x="33.4952" y="49.7159" width="376.571" height="92.2127" rx="2.46816" fill="#FEFEFE"/>
<rect x="33.4952" y="49.7159" width="376.571" height="92.2127" rx="2.46816" stroke="#C4C4C4" stroke-width="0.705189"/>
<path d="M53.6299 100.686C51.9487 100.686 50.606 99.4897 50.606 97.4362C50.606 95.4279 51.9939 94.1754 53.4381 94.1754C55.0854 94.1754 55.9768 95.3602 55.9768 97.109C55.9768 97.3685 55.9429 97.6168 55.9091 97.7747H51.881C51.9826 98.9594 52.7272 99.6703 53.7991 99.6703C54.352 99.6703 54.8259 99.501 55.2772 99.2077L55.7285 100.031C55.1531 100.415 54.4423 100.686 53.6299 100.686ZM51.8697 96.8721H54.8485C54.8485 95.8115 54.3633 95.1909 53.4606 95.1909C52.6821 95.1909 51.9939 95.7889 51.8697 96.8721ZM56.4923 100.539L58.5006 97.3008L56.6389 94.3334H58.038L58.7827 95.5745C58.9632 95.9243 59.1663 96.2741 59.3694 96.6239H59.4146C59.5838 96.2741 59.7643 95.9243 59.9336 95.5745L60.588 94.3334H61.942L60.0803 97.4475L62.0774 100.539H60.667L59.8546 99.2189C59.6515 98.8579 59.4371 98.4743 59.2115 98.1245H59.155C58.9632 98.4743 58.7714 98.8466 58.5796 99.2189L57.8575 100.539H56.4923ZM66.4775 96.2515C65.9923 96.2515 65.6087 95.8679 65.6087 95.3489C65.6087 94.8186 65.9923 94.4237 66.4775 94.4237C66.9626 94.4237 67.3463 94.8186 67.3463 95.3489C67.3463 95.8679 66.9626 96.2515 66.4775 96.2515ZM66.4775 100.686C65.9923 100.686 65.6087 100.313 65.6087 99.7831C65.6087 99.2415 65.9923 98.8579 66.4775 98.8579C66.9626 98.8579 67.3463 99.2415 67.3463 99.7831C67.3463 100.313 66.9626 100.686 66.4775 100.686ZM77.7093 94.7847V97.1542H76.6148V91.4111H77.7093V93.8369H78.7812V91.2306H79.8869V97.4814H78.7812V94.7847H77.7093ZM76.3779 95.8905L75.7573 96.7592C74.8547 96.4095 74.2228 95.7325 73.8392 94.9201C73.4669 95.8566 72.8012 96.6464 71.8195 97.0752L71.2103 96.1838C72.5755 95.5632 73.2638 94.2883 73.2638 93.1261V91.8398H74.3921V93.1261C74.3921 94.2544 75.0578 95.3714 76.3779 95.8905ZM76.4907 100.516C77.9237 100.516 78.7812 100.167 78.7812 99.5462C78.7812 98.9143 77.9237 98.5645 76.4907 98.5645C75.0578 98.5645 74.2003 98.9143 74.2003 99.5462C74.2003 100.167 75.0578 100.516 76.4907 100.516ZM76.4907 97.6732C78.6119 97.6732 79.9433 98.3727 79.9433 99.5462C79.9433 100.708 78.6119 101.408 76.4907 101.408C74.3695 101.408 73.0381 100.708 73.0381 99.5462C73.0381 98.3727 74.3695 97.6732 76.4907 97.6732ZM87.6375 91.9301V92.7312H81.8267V91.9301H84.151V91.1177H85.3244V91.9301H87.6375ZM83.3951 94.3221C83.3951 94.717 83.9141 94.9314 84.7264 94.9314C85.5501 94.9314 86.0578 94.717 86.0578 94.3221C86.0578 93.9385 85.5501 93.7241 84.7264 93.7241C83.9141 93.7241 83.3951 93.9385 83.3951 94.3221ZM87.9195 95.9356L88.0098 96.6464C85.8548 97.03 83.4515 97.0526 81.68 97.0526L81.5559 96.2289C82.3232 96.2289 83.2145 96.2289 84.151 96.2064V95.6309C83.0001 95.5181 82.3006 95.0555 82.3006 94.3221C82.3006 93.4872 83.2484 92.9907 84.7264 92.9907C86.2045 92.9907 87.1523 93.4872 87.1523 94.3221C87.1523 95.0555 86.464 95.5181 85.3244 95.6309V96.1612C86.2045 96.1161 87.0959 96.0484 87.9195 95.9356ZM84.0833 99.8057V100.516H89.9956V101.318H82.9324V99.0723H88.4724V98.4291H82.9099V97.6393H89.6233V99.8057H84.0833ZM89.6233 93.7354H91.0224V94.6945H89.6233V97.2106H88.4611V91.2193H89.6233V93.7354ZM103.237 94.4575L102.797 95.3602C101.161 95.1006 99.7953 94.3447 99.1409 93.2502C98.4977 94.3334 97.1438 95.1119 95.4965 95.3602L95.0677 94.4575C97.0761 94.1867 98.5542 93.0358 98.5542 91.7721V91.3885H99.7502V91.7721C99.7502 93.0584 101.194 94.1867 103.237 94.4575ZM95.5754 99.0046V98.0681H102.639V101.419H101.476V99.0046H95.5754ZM99.7276 96.2515H103.789V97.188H94.5487V96.2515H98.5654V94.8073H99.7276V96.2515ZM107.23 98.1471C107.929 98.1471 108.358 97.2331 108.358 95.6197C108.358 94.0062 107.929 93.1035 107.23 93.1035C106.53 93.1035 106.102 94.0062 106.102 95.6197C106.102 97.2331 106.53 98.1471 107.23 98.1471ZM110.491 95.0781V91.4111H111.574V100.923H110.491V96.0371H109.408C109.306 98.0229 108.471 99.2415 107.23 99.2415C105.91 99.2415 105.041 97.8537 105.041 95.6197C105.041 93.3856 105.91 92.0091 107.23 92.0091C108.448 92.0091 109.272 93.1712 109.396 95.0781H110.491ZM112.533 91.2193H113.639V101.397H112.533V91.2193ZM119.009 92.0429V93.7241C119.009 95.6197 119.979 97.4701 121.536 98.1922L120.848 99.1287C119.697 98.5532 118.873 97.4362 118.433 96.071C117.982 97.5152 117.147 98.6999 115.985 99.2979L115.251 98.3727C116.842 97.5942 117.835 95.6309 117.835 93.7241V92.0429H119.009ZM122.608 91.1967H123.781V101.419H122.608V95.4955H120.43V94.5478H122.608V91.1967ZM136.627 91.2193V96.4433H135.454V91.2193H136.627ZM134.427 95.3037L133.863 96.2177C132.69 95.834 131.832 95.0555 131.369 94.0513C130.907 95.1458 130.038 95.992 128.808 96.4095L128.233 95.4843C129.846 94.954 130.76 93.6338 130.76 92.2573V91.4901H131.945V92.2573C131.945 93.5774 132.859 94.8186 134.427 95.3037ZM131.11 100.404H136.932V101.318H129.97V98.6661H135.476V97.8311H129.948V96.9285H136.627V99.5123H131.11V100.404ZM144.017 94.277H145.89V91.2306H147.052V98.8015H145.89V95.236H144.017V94.277ZM144.671 96.5562L144.107 97.4701C142.956 97.109 142.099 96.3643 141.647 95.4053C141.196 96.4433 140.35 97.2557 139.165 97.6506L138.59 96.748C140.158 96.2177 141.038 94.9765 141.038 93.6338V93.442H138.894V92.5055H141.038V91.287H142.212V92.5055H144.344V93.442H142.2V93.6338C142.2 94.8863 143.103 96.071 144.671 96.5562ZM141.614 100.268H147.311V101.216H140.451V98.1471H141.614V100.268ZM155.017 92.0768V92.9569H149.003V92.0768H151.429V91.1177H152.591V92.0768H155.017ZM150.65 94.9878C150.65 95.5068 151.181 95.8115 152.004 95.8115C152.839 95.8115 153.37 95.5068 153.37 94.9878C153.37 94.4575 152.839 94.1529 152.004 94.1529C151.181 94.1529 150.65 94.4575 150.65 94.9878ZM154.475 94.9878C154.475 96.0146 153.505 96.6464 152.004 96.6464C150.515 96.6464 149.533 96.0146 149.533 94.9878C149.533 93.9498 150.515 93.3066 152.004 93.3066C153.505 93.3066 154.475 93.9498 154.475 94.9878ZM151.53 99.6477V100.449H157.285V101.318H150.391V98.8353H155.795V98.1019H150.368V97.2444H156.946V99.6477H151.53ZM156.946 93.521H158.391V94.4801H156.946V96.7818H155.784V91.1967H156.946V93.521ZM170.718 94.9765L170.266 95.913C168.574 95.6422 167.186 94.7847 166.52 93.6113C165.866 94.796 164.456 95.6422 162.763 95.913L162.312 94.9765C164.388 94.6832 165.9 93.4308 165.9 92.0881V91.5465H167.13V92.0881C167.13 93.4082 168.664 94.6832 170.718 94.9765ZM171.112 96.8721V97.8199H167.062V101.419H165.9V97.8199H161.906V96.8721H171.112ZM183.214 91.2306V97.0188H182.052V91.2306H183.214ZM177.719 92.7425C176.816 92.7425 176.151 93.3179 176.151 94.1867C176.151 95.0668 176.816 95.6309 177.719 95.6309C178.622 95.6309 179.287 95.0668 179.287 94.1867C179.287 93.3179 178.622 92.7425 177.719 92.7425ZM177.719 96.59C176.162 96.59 175.011 95.6084 175.011 94.1867C175.011 92.7651 176.162 91.7834 177.719 91.7834C179.276 91.7834 180.416 92.7651 180.416 94.1867C180.416 95.6084 179.276 96.59 177.719 96.59ZM182.131 97.4588V97.9101C182.131 98.9594 182.796 99.9862 184.117 100.415L183.541 101.272C182.559 100.923 181.894 100.268 181.544 99.4446C181.217 100.246 180.608 100.979 179.682 101.363C178.723 100.99 178.125 100.291 177.809 99.4672C177.437 100.268 176.783 100.923 175.835 101.272L175.271 100.415C176.568 99.9523 177.245 98.903 177.245 97.9101V97.4588H178.373V97.9101C178.373 98.7676 178.768 99.6816 179.66 100.246C180.562 99.6364 180.991 98.6774 180.991 97.9101V97.4588H182.131ZM193.379 94.1416V95.0894H186.384V91.5803H187.546V94.1416H193.379ZM187.478 98.1809V100.246H193.435V101.182H186.316V98.1809H187.478ZM185.188 96.3079H194.44V97.2444H185.188V96.3079ZM204.104 92.1332V92.9907H198.282V92.1332H200.617V91.1741H201.791V92.1332H204.104ZM199.861 94.9201C199.861 95.394 200.381 95.6761 201.193 95.6761C202.005 95.6761 202.524 95.394 202.524 94.9201C202.524 94.4349 202.005 94.1416 201.193 94.1416C200.381 94.1416 199.861 94.4349 199.861 94.9201ZM204.386 96.8382L204.476 97.6393C202.344 98.0455 199.918 98.0906 198.158 98.1019L198.022 97.1767C198.778 97.1767 199.681 97.1654 200.617 97.1429V96.4433C199.478 96.3079 198.767 95.7551 198.767 94.9201C198.767 93.9498 199.726 93.3518 201.193 93.3518C202.66 93.3518 203.619 93.9498 203.619 94.9201C203.619 95.7438 202.919 96.3079 201.791 96.4433V97.0865C202.671 97.03 203.562 96.9623 204.386 96.8382ZM200.663 98.6774V100.268H206.428V101.216H199.5V98.6774H200.663ZM206.09 94.6719H207.489V95.6309H206.09V99.1851H204.928V91.208H206.09V94.6719ZM215.77 93.9159H213.4C212.768 95.5407 211.268 96.6803 209.068 97.3234L208.605 96.3982C210.997 95.7325 212.317 94.4801 212.52 92.8892H209.135V91.9527H213.761C213.761 92.3137 213.727 92.6522 213.671 92.9681H215.77V91.2193H216.932V97.2106H215.77V96.0371H213.299V95.0894H215.77V93.9159ZM213.592 100.449C214.98 100.449 215.849 100.054 215.849 99.3431C215.849 98.6435 214.98 98.2486 213.592 98.2486C212.216 98.2486 211.347 98.6435 211.347 99.3431C211.347 100.054 212.216 100.449 213.592 100.449ZM213.592 97.3347C215.657 97.3347 217 98.1019 217 99.3431C217 100.595 215.657 101.363 213.592 101.363C211.527 101.363 210.196 100.595 210.196 99.3431C210.196 98.1019 211.527 97.3347 213.592 97.3347ZM223.595 94.5478V96.2177H228.424V94.5478H223.595ZM226.585 99.2077H230.635V100.167H221.406V99.2077H225.423V97.1542H222.444V91.8963H223.595V93.6113H228.424V91.8963H229.575V97.1542H226.585V99.2077ZM240.541 92.6071V93.5436H232.203V92.6071H235.802V91.3547H236.964V92.6071H240.541ZM234.166 96.0823C234.166 96.7592 234.979 97.1429 236.366 97.1429C237.765 97.1429 238.578 96.7592 238.578 96.0823C238.578 95.4166 237.765 95.0329 236.366 95.0329C234.979 95.0329 234.166 95.4166 234.166 96.0823ZM236.964 99.3431H241.015V100.302H231.774V99.3431H235.802V98.0342C234.053 97.9101 232.981 97.2106 232.981 96.0823C232.981 94.8524 234.29 94.1303 236.366 94.1303C238.454 94.1303 239.763 94.8524 239.763 96.0823C239.763 97.2106 238.713 97.8988 236.964 98.0342V99.3431ZM248.705 95.6761V94.1867H246.211V95.6761H248.705ZM249.856 91.8624V96.6013H245.049V91.8624H246.211V93.2728H248.705V91.8624H249.856ZM249.37 100.505C250.792 100.505 251.616 100.144 251.616 99.4785C251.616 98.824 250.792 98.463 249.37 98.463C247.949 98.463 247.125 98.824 247.125 99.4785C247.125 100.144 247.949 100.505 249.37 100.505ZM249.37 97.5378C251.469 97.5378 252.767 98.2712 252.767 99.4785C252.767 100.697 251.469 101.419 249.37 101.419C247.272 101.419 245.974 100.697 245.974 99.4785C245.974 98.2712 247.272 97.5378 249.37 97.5378ZM252.654 93.7015H254.098V94.6606H252.654V97.3008H251.492V91.2193H252.654V93.7015ZM256.342 94.4462C256.342 95.3827 257.019 95.992 257.911 95.992C258.802 95.992 259.49 95.3827 259.49 94.4462C259.49 93.521 258.802 92.9117 257.911 92.9117C257.019 92.9117 256.342 93.521 256.342 94.4462ZM260.63 94.4462C260.63 95.9356 259.457 96.9962 257.911 96.9962C256.376 96.9962 255.203 95.9356 255.203 94.4462C255.203 92.9569 256.376 91.9075 257.911 91.9075C259.457 91.9075 260.63 92.9569 260.63 94.4462ZM257.753 97.9214V100.268H263.439V101.216H256.579V97.9214H257.753ZM263.033 94.2431H264.477V95.2022H263.033V98.6886H261.871V91.2193H263.033V94.2431Z" fill="#757575"/>
<path d="M363.564 136.029C361.94 136.029 360.879 134.584 360.879 131.696C360.879 128.819 361.94 127.42 363.564 127.42C365.189 127.42 366.25 128.83 366.25 131.696C366.25 134.584 365.189 136.029 363.564 136.029ZM363.564 135.002C364.411 135.002 365.009 134.099 365.009 131.696C365.009 129.315 364.411 128.446 363.564 128.446C362.718 128.446 362.12 129.315 362.12 131.696C362.12 134.099 362.718 135.002 363.564 135.002ZM369.453 137.913L372.59 126.867H373.492L370.356 137.913H369.453ZM377.219 135.882V134.81H379.035V129.033H377.546V128.209C378.325 128.063 378.877 127.871 379.351 127.566H380.333V134.81H381.958V135.882H377.219ZM385.899 136.029C384.274 136.029 383.214 134.584 383.214 131.696C383.214 128.819 384.274 127.42 385.899 127.42C387.524 127.42 388.584 128.83 388.584 131.696C388.584 134.584 387.524 136.029 385.899 136.029ZM385.899 135.002C386.745 135.002 387.343 134.099 387.343 131.696C387.343 129.315 386.745 128.446 385.899 128.446C385.053 128.446 384.455 129.315 384.455 131.696C384.455 134.099 385.053 135.002 385.899 135.002ZM392.334 136.029C390.709 136.029 389.648 134.584 389.648 131.696C389.648 128.819 390.709 127.42 392.334 127.42C393.959 127.42 395.019 128.83 395.019 131.696C395.019 134.584 393.959 136.029 392.334 136.029ZM392.334 135.002C393.18 135.002 393.778 134.099 393.778 131.696C393.778 129.315 393.18 128.446 392.334 128.446C391.488 128.446 390.89 129.315 390.89 131.696C390.89 134.099 391.488 135.002 392.334 135.002Z" fill="#757575"/>
<path d="M35.3759 187.488V186.638C38.1304 184.201 39.552 182.386 39.552 180.85C39.552 179.834 39.0189 179.136 37.9653 179.136C37.2291 179.136 36.6198 179.606 36.1248 180.177L35.2997 179.365C36.0994 178.489 36.9245 177.968 38.1431 177.968C39.8567 177.968 40.961 179.085 40.961 180.773C40.961 182.576 39.5266 184.442 37.5465 186.333C38.0288 186.282 38.6127 186.244 39.0697 186.244H41.4053V187.488H35.3759ZM43.9479 187.653C43.4021 187.653 42.9705 187.234 42.9705 186.638C42.9705 186.029 43.4021 185.597 43.9479 185.597C44.4937 185.597 44.9253 186.029 44.9253 186.638C44.9253 187.234 44.4937 187.653 43.9479 187.653ZM67.0724 181.459V179.999H64.2672V181.459H67.0724ZM68.3672 177.486V182.5H62.9598V177.486H64.2672V178.996H67.0724V177.486H68.3672ZM65.4223 186.32V187.336H71.8959V188.364H64.1403V185.356H70.2204V184.404H64.1149V183.388H71.5151V186.32H65.4223ZM71.5151 179.352H73.1272V180.431H71.5151V182.881H70.2077V177.004H71.5151V179.352ZM78.2797 183.604V186.067H80.5392V183.604H78.2797ZM78.0893 179.047V182.551H80.7296V179.047H78.0893ZM81.8339 186.067H84.6391V187.146H74.2432V186.067H76.9723V183.604H75.1318V182.551H76.7819V179.047H75.0937V177.994H83.7125V179.047H82.0243V182.551H83.6744V183.604H81.8339V186.067ZM89.9263 185.838V184.785H97.8597V188.466H96.5523V185.838H89.9263ZM91.3607 178.501V180.393H96.5269V178.501H91.3607ZM94.5975 182.716H99.1417V183.769H88.7585V182.716H93.2774V181.434H90.0786V177.46H97.8089V181.434H94.5975V182.716ZM107.265 182.436L106.617 183.452C105.348 183.008 104.434 182.106 103.939 181.002C103.431 182.233 102.466 183.223 101.108 183.693L100.435 182.665C102.213 182.056 103.253 180.545 103.253 178.996V178.768H100.829V177.714H106.96V178.768H104.574V178.984C104.574 180.405 105.551 181.84 107.265 182.436ZM102.213 185.47V184.416H109.943V188.466H108.635V185.47H102.213ZM108.635 176.991H109.943V183.845H108.635V180.951H106.63V179.872H108.635V176.991ZM117.304 178.159C115.527 178.159 114.575 178.501 114.575 179.161C114.575 179.809 115.527 180.151 117.304 180.151C119.081 180.151 120.033 179.809 120.033 179.161C120.033 178.501 119.081 178.159 117.304 178.159ZM117.304 181.129C114.727 181.129 113.217 180.431 113.217 179.161C113.217 177.879 114.727 177.181 117.304 177.181C119.868 177.181 121.391 177.879 121.391 179.161C121.391 180.431 119.868 181.129 117.304 181.129ZM114.664 186.409V187.361H121.518V188.364H113.369V185.483H119.906V184.658H113.344V183.668H121.188V186.409H114.664ZM112.112 181.802H122.496V182.842H112.112V181.802ZM134.84 185.533V180.659H132.517V179.58H134.84V177.004H136.148V185.533H134.84ZM133.419 182.716L132.721 183.731C131.489 183.274 130.588 182.347 130.106 181.192C129.598 182.474 128.646 183.49 127.326 183.998L126.628 182.982C128.417 182.347 129.408 180.735 129.408 179.034V177.702H130.74V179.06C130.74 180.608 131.705 182.094 133.419 182.716ZM130.004 187.184H136.414V188.25H128.684V184.632H130.004V187.184ZM143.585 182.094L143.725 183.16C142.405 183.401 141.313 183.439 139.536 183.439H138.762V177.816H143.23V178.869H140.031V180.075H143.103V181.091H140.031V182.373C141.478 182.36 142.455 182.309 143.585 182.094ZM140.247 185.584V184.531H148.028V188.478H146.72V185.584H140.247ZM146.784 177.004H148.028V183.972H146.784V180.977H145.515V183.896H144.296V177.219H145.515V179.91H146.784V177.004ZM152.8 184.81C153.574 184.81 154.12 184.188 154.12 183.236C154.12 182.284 153.574 181.649 152.8 181.649C152.025 181.649 151.479 182.284 151.479 183.236C151.479 184.188 152.025 184.81 152.8 184.81ZM152.8 180.57C154.247 180.57 155.287 181.649 155.287 183.236C155.287 184.81 154.247 185.902 152.8 185.902C151.352 185.902 150.312 184.81 150.312 183.236C150.312 181.649 151.352 180.57 152.8 180.57ZM153.447 177.334V178.869H155.592V179.923H149.982V178.869H152.152V177.334H153.447ZM158.524 177.004H159.768V188.466H158.524V182.83H157.306V187.933H156.087V177.245H157.306V181.751H158.524V177.004ZM165.576 182.614L165.106 181.586C167.289 181.294 168.902 180.037 168.978 178.704H165.487V177.651H173.928V178.704H170.463C170.539 180.037 172.151 181.294 174.334 181.586L173.865 182.614C171.973 182.335 170.412 181.395 169.714 180.126C169.016 181.395 167.467 182.335 165.576 182.614ZM174.906 183.452L174.893 184.505H170.336V188.478H169.028V184.505H164.535V183.452H174.906ZM179.728 178.057V180.063C179.728 181.916 180.426 183.858 181.962 184.823L181.226 185.838C180.185 185.203 179.5 184.086 179.106 182.804C178.7 184.213 177.951 185.419 176.847 186.092L176.047 185.102C177.672 184.137 178.459 182.081 178.459 180.126V178.057H179.728ZM182.419 181.015V177.219H183.65V187.933H182.419V182.081H180.731V181.015H182.419ZM184.755 177.004H185.999V188.466H184.755V177.004ZM191.621 183.503V185.99H194.515V183.49C194.071 183.604 193.576 183.655 193.068 183.655C192.56 183.655 192.065 183.604 191.621 183.503ZM193.068 178.692C191.329 178.692 190.123 179.453 190.123 180.659C190.123 181.878 191.329 182.639 193.068 182.639C194.794 182.639 196 181.878 196 180.659C196 179.453 194.794 178.692 193.068 178.692ZM195.822 185.99H198.272V187.057H187.889V185.99H190.313V183.008C189.399 182.5 188.854 181.675 188.854 180.659C188.854 178.831 190.618 177.664 193.068 177.664C195.505 177.664 197.282 178.831 197.282 180.659C197.282 181.675 196.736 182.487 195.822 183.008V185.99Z" fill="#757575"/>
<path d="M54.9377 181.802L54.2777 181.319L55.0901 179.936L53.6557 179.326L53.9096 178.552L55.4328 178.908L55.5724 177.321H56.3975L56.5371 178.908L58.0603 178.552L58.3142 179.326L56.8798 179.936L57.7049 181.319L57.0448 181.802L55.9913 180.57L54.9377 181.802Z" fill="#FD8889"/>
<rect x="33.1406" y="201.517" width="98.7265" height="36.604" rx="2.82076" fill="#509BF8"/>
<path d="M56.9994 216.183V217.12H50.8389V216.183H53.3437V215.021H54.5058V216.183H56.9994ZM52.5426 219.512C52.5426 220.144 53.1067 220.527 53.9304 220.527C54.7428 220.527 55.3069 220.144 55.3069 219.512C55.3069 218.891 54.7428 218.508 53.9304 218.508C53.1067 218.508 52.5426 218.891 52.5426 219.512ZM54.5058 221.373V222.333C55.4198 222.276 56.345 222.22 57.2138 222.096L57.2927 222.942C55.0474 223.325 52.6329 223.359 50.7824 223.359L50.6358 222.4C51.4481 222.4 52.3846 222.4 53.3437 222.366V221.373C52.1928 221.193 51.4369 220.493 51.4369 219.512C51.4369 218.372 52.4523 217.616 53.9304 217.616C55.3972 217.616 56.4127 218.372 56.4127 219.512C56.4127 220.505 55.6567 221.193 54.5058 221.373ZM57.7892 214.987H58.9626V225.187H57.7892V214.987ZM64.5243 215.845V217.515C64.5243 219.331 65.4721 221.17 67.0066 221.926L66.2957 222.852C65.2013 222.287 64.3889 221.182 63.9488 219.85C63.5088 221.261 62.6513 222.445 61.4891 223.043L60.7783 222.107C62.3692 221.328 63.3621 219.399 63.3621 217.515V215.845H64.5243ZM70.4366 219.038V219.997H68.8457V225.187H67.6835V214.999H68.8457V219.038H70.4366ZM79.1192 218.169H81.1502V214.999H82.3123V222.547H81.1502V219.128H79.1192V218.169ZM74.5722 215.8H79.1531C79.1531 218.541 77.8781 220.493 74.5496 221.588L74.0757 220.663C75.6779 220.155 76.6934 219.467 77.2801 218.62L74.245 218.846L74.0644 217.921L77.7201 217.774C77.8217 217.447 77.9007 217.097 77.9345 216.736H74.5722V215.8ZM76.9755 224.048H82.6057V224.995H75.802V221.814H76.9755V224.048ZM86.5539 216.928V221.791C86.9939 221.78 87.4678 221.768 87.9191 221.735V216.928H86.5539ZM89.0474 216.928V221.667C89.4987 221.633 89.9613 221.588 90.3901 221.531L90.4691 222.389C88.4043 222.727 86.0687 222.773 84.2973 222.773L84.1844 221.814C84.5681 221.814 84.9968 221.814 85.4256 221.802V216.928H84.4665V215.991H90.0967V216.928H89.0474ZM91.541 214.999H92.7144V225.198H91.541V219.726H89.7808V218.778H91.541V214.999ZM101.909 222.491V218.553H100.149V217.571H101.909V214.999H103.071V222.491H101.909ZM100.33 219.929L100.431 220.877C99.0207 221.103 97.8135 221.148 95.8276 221.148H95.0265V217.91H98.4115V216.623H95.004V215.687H99.5736V218.801H96.1774V220.2C97.9263 220.189 99.0433 220.144 100.33 219.929ZM97.5765 224.048H103.353V224.995H96.4144V221.926H97.5765V224.048ZM113.846 219.974L113.338 220.933C111.679 220.595 110.246 219.534 109.581 218.135C108.915 219.534 107.482 220.595 105.824 220.933L105.327 219.974C107.335 219.602 108.971 218.034 108.971 216.42V215.653H110.201V216.42C110.201 218.045 111.837 219.613 113.846 219.974ZM105.011 222.919H114.241V223.878H105.011V222.919Z" fill="#FEFEFE"/>
<rect x="148.791" y="201.518" width="98.7265" height="36.604" rx="2.82076" fill="#EDEDED"/>
<path d="M182.255 215.992V216.918H176.241V215.992H178.667V214.943H179.829V215.992H182.255ZM177.888 219.219C177.888 219.817 178.43 220.178 179.242 220.178C180.055 220.178 180.608 219.817 180.608 219.219C180.608 218.61 180.055 218.249 179.242 218.249C178.43 218.249 177.888 218.61 177.888 219.219ZM181.713 219.219C181.713 220.325 180.709 221.07 179.242 221.07C177.776 221.07 176.771 220.325 176.771 219.219C176.771 218.102 177.776 217.358 179.242 217.358C180.709 217.358 181.713 218.102 181.713 219.219ZM177.482 222.807V221.871H184.184V225.188H183.022V222.807H177.482ZM185.628 217.73V218.689H184.184V221.374H183.022V215H184.184V217.73H185.628ZM193.695 217.019V216.895H187.523V215.947H194.857V217.019C194.857 218.294 194.857 219.659 194.496 221.634L193.334 221.499C193.695 219.637 193.695 218.26 193.695 217.019ZM192.397 222.898H195.816V223.857H186.609V222.898H188.73V219.603H189.881V222.898H191.247V219.603H192.397V222.898ZM203.528 218.96V217.662H201.035V218.96H203.528ZM204.679 215.428V219.885H199.873V215.428H201.035V216.771H203.528V215.428H204.679ZM202.062 223.281V224.184H207.816V225.098H200.922V222.424H206.327V221.578H200.9V220.675H207.478V223.281H202.062ZM207.478 217.087H208.91V218.046H207.478V220.224H206.315V215H207.478V217.087ZM213.491 220.867V223.056H215.499V220.867H213.491ZM213.321 216.816V219.93H215.668V216.816H213.321ZM216.65 223.056H219.143V224.015H209.903V223.056H212.328V220.867H210.692V219.93H212.159V216.816H210.658V215.88H218.32V216.816H216.819V219.93H218.286V220.867H216.65V223.056Z" fill="#757575"/>
<rect x="264.442" y="201.518" width="98.7265" height="36.604" rx="2.82076" fill="#EDEDED"/>
<path d="M307.216 219.817L306.731 220.788C305.061 220.461 303.616 219.445 302.962 218.091C302.285 219.445 300.841 220.461 299.182 220.788L298.686 219.817C300.705 219.479 302.341 217.956 302.341 216.387V215.62H303.571V216.387C303.571 217.967 305.207 219.479 307.216 219.817ZM303.526 222.965H307.611V223.924H298.381V222.965H302.364V220.585H303.526V222.965ZM310.927 216.737V219.761H315.779V216.737H310.927ZM313.94 222.988H317.99V223.936H308.761V222.988H312.777V220.686H309.787V215.812H316.918V220.686H313.94V222.988ZM326.373 215.011H327.535V220.81H326.373V215.011ZM320.866 221.318H327.535V225.064H320.866V221.318ZM326.395 222.243H322.006V224.139H326.395V222.243ZM322.04 215.507C323.597 215.507 324.736 216.489 324.736 217.911C324.736 219.332 323.597 220.314 322.04 220.314C320.483 220.314 319.332 219.332 319.332 217.911C319.332 216.489 320.483 215.507 322.04 215.507ZM322.04 216.466C321.126 216.466 320.472 217.042 320.472 217.911C320.472 218.791 321.126 219.355 322.04 219.355C322.942 219.355 323.608 218.791 323.608 217.911C323.608 217.042 322.942 216.466 322.04 216.466Z" fill="#757575"/>
<path d="M38.2192 283.493C36.7468 283.493 35.7948 282.909 35.1728 282.211L35.8836 281.272C36.4294 281.83 37.1276 282.3 38.0923 282.3C39.1458 282.3 39.8694 281.716 39.8694 280.739C39.8694 279.711 39.2093 279.038 37.1022 279.038V277.959C38.9427 277.959 39.552 277.261 39.552 276.321C39.552 275.496 39.0062 274.989 38.1177 274.976C37.3941 274.989 36.7849 275.331 36.2517 275.852L35.4901 274.938C36.2263 274.278 37.0895 273.808 38.1684 273.808C39.844 273.808 41.0245 274.684 41.0245 276.22C41.0245 277.299 40.4025 278.048 39.4124 278.416V278.479C40.4913 278.746 41.3418 279.558 41.3418 280.815C41.3418 282.503 39.9328 283.493 38.2192 283.493ZM43.9479 283.493C43.4021 283.493 42.9705 283.074 42.9705 282.478C42.9705 281.868 43.4021 281.437 43.9479 281.437C44.4937 281.437 44.9253 281.868 44.9253 282.478C44.9253 283.074 44.4937 283.493 43.9479 283.493ZM63.531 277.527L63.074 276.512C65.1938 276.296 66.6536 275.407 66.844 274.392H63.5183V273.338H71.9848V274.392H68.6337C68.8114 275.407 70.2839 276.296 72.4164 276.512L71.9467 277.527C69.9285 277.311 68.3545 276.499 67.7452 275.319C67.1232 276.499 65.5492 277.311 63.531 277.527ZM67.7198 283.303C69.408 283.303 70.3473 282.973 70.3473 282.3C70.3473 281.64 69.408 281.297 67.7198 281.297C66.0316 281.297 65.105 281.64 65.105 282.3C65.105 282.973 66.0316 283.303 67.7198 283.303ZM67.7198 280.294C70.195 280.294 71.6675 281.018 71.6675 282.3C71.6675 283.582 70.195 284.306 67.7198 284.306C65.2573 284.306 63.7722 283.582 63.7722 282.3C63.7722 281.018 65.2573 280.294 67.7198 280.294ZM68.3799 278.454H72.9241V279.507H62.5536V278.454H67.0724V276.918H68.3799V278.454ZM82.4305 275.42H79.7775C79.0667 277.172 77.3785 278.34 74.8525 278.911L74.3955 277.845C77.1119 277.261 78.5209 276.004 78.6986 274.405H75.0175V273.351H80.1457C80.1457 273.719 80.1203 274.075 80.0568 274.405H82.4305V272.843H83.7379V278.657H82.4305V277.616H79.6252V276.601H82.4305V275.42ZM77.607 283.15H84.0552V284.204H76.2996V281.119H82.4305V280.167H76.2742V279.127H83.7379V282.097H77.607V283.15ZM91.8557 280.599C92.8458 280.599 93.5186 279.533 93.5186 277.718C93.5186 275.941 92.8458 274.862 91.8557 274.862C90.8783 274.862 90.2056 275.941 90.2056 277.718C90.2056 279.533 90.8783 280.599 91.8557 280.599ZM96.9712 272.831H98.2913V284.331H96.9712V278.175H94.7498C94.5975 280.396 93.4297 281.767 91.8557 281.767C90.1675 281.767 88.9616 280.206 88.9616 277.718C88.9616 275.255 90.1675 273.681 91.8557 273.681C93.3916 273.681 94.5594 275.001 94.7371 277.108H96.9712V272.831ZM101.057 273.922H106.439V281.5H101.057V273.922ZM105.157 274.963H102.339V280.447H105.157V274.963ZM108.559 272.831H109.879V284.331H108.559V272.831ZM119.906 274.798V274.024H113.42V273.123H121.201V275.649H114.727V276.461H121.404V277.375H113.445V274.798H119.906ZM114.638 282.402V283.277H121.582V284.179H113.344V281.551H119.944V280.739H113.318V279.837H121.239V282.402H114.638ZM112.112 278.098H122.508V279.063H112.112V278.098ZM134.84 281.373V276.499H132.517V275.42H134.84V272.843H136.148V281.373H134.84ZM133.419 278.555L132.721 279.571C131.489 279.114 130.588 278.187 130.106 277.032C129.598 278.314 128.646 279.33 127.326 279.837L126.628 278.822C128.417 278.187 129.408 276.575 129.408 274.874V273.542H130.74V274.9C130.74 276.448 131.705 277.933 133.419 278.555ZM130.004 283.023H136.414V284.09H128.684V280.472H130.004V283.023ZM143.585 277.933L143.725 279C142.405 279.241 141.313 279.279 139.536 279.279H138.762V273.656H143.23V274.709H140.031V275.915H143.103V276.931H140.031V278.213C141.478 278.2 142.455 278.149 143.585 277.933ZM140.247 281.424V280.371H148.028V284.318H146.72V281.424H140.247ZM146.784 272.843H148.028V279.812H146.784V276.816H145.515V279.736H144.296V273.059H145.515V275.75H146.784V272.843ZM152.8 280.65C153.574 280.65 154.12 280.028 154.12 279.076C154.12 278.124 153.574 277.489 152.8 277.489C152.025 277.489 151.479 278.124 151.479 279.076C151.479 280.028 152.025 280.65 152.8 280.65ZM152.8 276.41C154.247 276.41 155.287 277.489 155.287 279.076C155.287 280.65 154.247 281.741 152.8 281.741C151.352 281.741 150.312 280.65 150.312 279.076C150.312 277.489 151.352 276.41 152.8 276.41ZM153.447 273.173V274.709H155.592V275.763H149.982V274.709H152.152V273.173H153.447ZM158.524 272.843H159.768V284.306H158.524V278.67H157.306V283.772H156.087V273.085H157.306V277.591H158.524V272.843ZM165.576 278.454L165.106 277.426C167.289 277.134 168.902 275.877 168.978 274.544H165.487V273.491H173.928V274.544H170.463C170.539 275.877 172.151 277.134 174.334 277.426L173.865 278.454C171.973 278.175 170.412 277.235 169.714 275.966C169.016 277.235 167.467 278.175 165.576 278.454ZM174.906 279.292L174.893 280.345H170.336V284.318H169.028V280.345H164.535V279.292H174.906ZM179.728 273.897V275.902C179.728 277.756 180.426 279.698 181.962 280.663L181.226 281.678C180.185 281.043 179.5 279.926 179.106 278.644C178.7 280.053 177.951 281.259 176.847 281.932L176.047 280.942C177.672 279.977 178.459 277.921 178.459 275.966V273.897H179.728ZM182.419 276.854V273.059H183.65V283.772H182.419V277.921H180.731V276.854H182.419ZM184.755 272.843H185.999V284.306H184.755V272.843ZM191.621 279.342V281.83H194.515V279.33C194.071 279.444 193.576 279.495 193.068 279.495C192.56 279.495 192.065 279.444 191.621 279.342ZM193.068 274.532C191.329 274.532 190.123 275.293 190.123 276.499C190.123 277.718 191.329 278.479 193.068 278.479C194.794 278.479 196 277.718 196 276.499C196 275.293 194.794 274.532 193.068 274.532ZM195.822 281.83H198.272V282.897H187.889V281.83H190.313V278.847C189.399 278.34 188.854 277.515 188.854 276.499C188.854 274.671 190.618 273.503 193.068 273.503C195.505 273.503 197.282 274.671 197.282 276.499C197.282 277.515 196.736 278.327 195.822 278.847V281.83Z" fill="#757575"/>
<path d="M54.9377 277.641L54.2777 277.159L55.0901 275.776L53.6557 275.166L53.9096 274.392L55.4328 274.747L55.5724 273.161H56.3975L56.5371 274.747L58.0603 274.392L58.3142 275.166L56.8798 275.776L57.7049 277.159L57.0448 277.641L55.9913 276.41L54.9377 277.641Z" fill="#FD8889"/>
<rect x="33.1406" y="297.355" width="98.7265" height="36.604" rx="2.82076" fill="#509BF8"/>
<path d="M58.5342 317.449V316.49H61.5129V317.449H58.5342ZM71.1716 311.808V312.744H65.1577V311.808H67.5836V310.747H68.7457V311.808H71.1716ZM66.805 314.911C66.805 315.497 67.3466 315.847 68.159 315.847C68.9714 315.847 69.5242 315.497 69.5242 314.911C69.5242 314.335 68.9714 313.985 68.159 313.985C67.3466 313.985 66.805 314.335 66.805 314.911ZM70.63 314.911C70.63 315.994 69.6371 316.716 68.159 316.716C66.6922 316.716 65.688 315.994 65.688 314.911C65.688 313.839 66.6922 313.117 68.159 313.117C69.6371 313.117 70.63 313.839 70.63 314.911ZM71.9501 319.977V319.04H67.7415V319.977H71.9501ZM71.9501 318.138V317.201H73.101V320.902H66.5906V317.201H67.7415V318.138H71.9501ZM74.5452 313.376V314.335H73.101V316.784H71.9388V310.837H73.101V313.376H74.5452ZM77.2748 311.83V317.461C78.719 317.449 80.2422 317.325 81.8444 316.998L81.9685 317.968C80.2197 318.329 78.5723 318.453 76.9927 318.453H76.1239V311.83H77.2748ZM82.7809 310.837H83.9431V321.026H82.7809V310.837ZM87.4738 312.744V317.562C89.1211 317.551 90.3622 317.483 91.7839 317.235L91.908 318.194C90.3622 318.476 88.9857 318.532 87.1466 318.532H86.3116V311.797H91.0505V312.744H87.4738ZM95.3832 314.753V315.712H93.7923V321.037H92.6301V310.826H93.7923V314.753H95.3832ZM99.3426 313.591V313.952C99.3426 315.542 100.031 317.167 101.43 317.923L100.787 318.792C99.8278 318.273 99.1734 317.336 98.801 316.231C98.44 317.427 97.7969 318.453 96.8265 319.018L96.1608 318.138C97.5599 317.314 98.2369 315.576 98.2369 313.952V313.591H96.4767V312.631H98.2369V311.187H99.3426V312.631H101.092V313.591H99.3426ZM101.814 314.787V311.041H102.908V320.53H101.814V315.734H100.437V314.787H101.814ZM103.867 310.837H104.973V321.026H103.867V310.837Z" fill="#FEFEFE"/>
<rect x="148.791" y="297.355" width="98.7265" height="36.604" rx="2.82076" fill="#EDEDED"/>
<path d="M179.685 317.449V316.49H182.663V317.449H179.685ZM188.779 317.777C189.467 317.777 189.953 317.224 189.953 316.377C189.953 315.531 189.467 314.967 188.779 314.967C188.091 314.967 187.606 315.531 187.606 316.377C187.606 317.224 188.091 317.777 188.779 317.777ZM188.779 314.008C190.065 314.008 190.991 314.967 190.991 316.377C190.991 317.777 190.065 318.747 188.779 318.747C187.493 318.747 186.568 317.777 186.568 316.377C186.568 314.967 187.493 314.008 188.779 314.008ZM189.355 311.131V312.496H191.261V313.433H186.274V312.496H188.204V311.131H189.355ZM193.868 310.837H194.973V321.026H193.868V316.016H192.785V320.552H191.701V311.052H192.785V315.057H193.868V310.837ZM199.994 316.614V318.826H202.566V316.603C202.171 316.705 201.731 316.75 201.28 316.75C200.828 316.75 200.388 316.705 199.994 316.614ZM201.28 312.338C199.734 312.338 198.662 313.015 198.662 314.087C198.662 315.17 199.734 315.847 201.28 315.847C202.814 315.847 203.886 315.17 203.886 314.087C203.886 313.015 202.814 312.338 201.28 312.338ZM203.728 318.826H205.906V319.774H196.676V318.826H198.831V316.174C198.019 315.723 197.534 314.99 197.534 314.087C197.534 312.462 199.102 311.424 201.28 311.424C203.446 311.424 205.026 312.462 205.026 314.087C205.026 314.99 204.541 315.712 203.728 316.174V318.826ZM210.114 313.591V313.952C210.114 315.542 210.802 317.167 212.201 317.923L211.558 318.792C210.599 318.273 209.944 317.336 209.572 316.231C209.211 317.427 208.568 318.453 207.597 319.018L206.932 318.138C208.331 317.314 209.008 315.576 209.008 313.952V313.591H207.248V312.631H209.008V311.187H210.114V312.631H211.862V313.591H210.114ZM212.585 314.787V311.041H213.679V320.53H212.585V315.734H211.208V314.787H212.585ZM214.638 310.837H215.744V321.026H214.638V310.837Z" fill="#757575"/>
<path d="M62.9685 373.391L62.4989 372.363C64.6186 372.148 66.0911 371.259 66.2688 370.231H62.9431V369.177H71.4096V370.231H68.0586C68.2363 371.259 69.7087 372.148 71.8285 372.363L71.3715 373.391C69.3533 373.176 67.7793 372.351 67.17 371.17C66.548 372.351 64.9741 373.176 62.9685 373.391ZM69.7722 378.113C69.7722 377.428 68.8202 377.073 67.1446 377.073C65.4691 377.073 64.5298 377.428 64.5298 378.113C64.5298 378.773 65.4691 379.142 67.1446 379.142C68.8202 379.142 69.7722 378.773 69.7722 378.113ZM72.3489 375.016H67.8174V376.082C69.8864 376.209 71.0923 376.92 71.0923 378.113C71.0923 379.408 69.6199 380.144 67.1446 380.144C64.6821 380.144 63.197 379.408 63.197 378.113C63.197 376.92 64.4282 376.197 66.51 376.07V375.016H61.9784V373.975H72.3489V375.016ZM74.8105 377.568V376.514H82.7565V380.157H81.4491V377.568H74.8105ZM76.2956 371.132V372.262H81.3983V371.132H76.2956ZM79.4943 374.483H84.0386V375.549H73.6427V374.483H78.1742V373.303H75.0009V368.961H76.2956V370.129H81.3983V368.961H82.6931V373.303H79.4943V374.483ZM92.2326 375.283V377.745H94.492V375.283H92.2326ZM92.0422 370.726V374.229H94.6824V370.726H92.0422ZM95.7867 377.745H98.592V378.824H88.1961V377.745H90.9251V375.283H89.0846V374.229H90.7347V370.726H89.0465V369.672H97.6653V370.726H95.9771V374.229H97.6273V375.283H95.7867V377.745ZM108.06 377.428V375.13H106.309V374.077H108.06V372.706H106.309V371.64H108.06V368.682H109.368V377.428H108.06ZM106.258 369.99V371.031H99.8984V369.99H102.475V368.67H103.783V369.99H106.258ZM101.726 373.785C101.726 374.534 102.297 374.978 103.123 374.978C103.96 374.978 104.531 374.534 104.531 373.785C104.531 373.049 103.96 372.579 103.123 372.579C102.297 372.579 101.726 373.049 101.726 373.785ZM105.763 373.785C105.763 375.105 104.684 376.006 103.123 376.006C101.574 376.006 100.495 375.105 100.495 373.785C100.495 372.452 101.574 371.564 103.123 371.564C104.684 371.564 105.763 372.452 105.763 373.785ZM103.224 378.862H109.634V379.929H101.904V376.692H103.224V378.862ZM116.729 369.837C114.952 369.837 114 370.18 114 370.84C114 371.487 114.952 371.83 116.729 371.83C118.506 371.83 119.458 371.487 119.458 370.84C119.458 370.18 118.506 369.837 116.729 369.837ZM116.729 372.808C114.152 372.808 112.642 372.109 112.642 370.84C112.642 369.558 114.152 368.86 116.729 368.86C119.293 368.86 120.816 369.558 120.816 370.84C120.816 372.109 119.293 372.808 116.729 372.808ZM114.089 378.088V379.04H120.943V380.043H112.794V377.161H119.331V376.336H112.769V375.346H120.613V378.088H114.089ZM111.537 373.48H121.92V374.521H111.537V373.48ZM129.556 371.005V371.83C129.556 373.785 130.292 375.765 131.892 376.692L131.13 377.644C130.051 377.009 129.34 375.879 128.934 374.547C128.528 375.994 127.792 377.225 126.687 377.923L125.9 376.958C127.525 375.943 128.287 373.874 128.287 371.83V371.005H126.268V369.926H131.447V371.005H129.556ZM132.298 372.706V368.898H133.529V379.586H132.298V373.772H130.609V372.706H132.298ZM134.608 368.67H135.852V380.132H134.608V368.67ZM138.199 369.888H143.518C143.518 373.252 142.274 376.133 138.39 378.063L137.691 377.047C140.674 375.575 141.969 373.557 142.185 370.954H138.199V369.888ZM145.929 368.682H147.25V380.157H145.929V374.267H143.467V373.188H145.929V368.682ZM156.21 369.647V370.637H149.445V369.647H152.174V368.568H153.481V369.647H156.21ZM151.298 372.922C151.298 373.506 151.894 373.848 152.821 373.848C153.76 373.848 154.357 373.506 154.357 372.922C154.357 372.325 153.76 371.983 152.821 371.983C151.894 371.983 151.298 372.325 151.298 372.922ZM155.601 372.922C155.601 374.077 154.509 374.788 152.821 374.788C151.145 374.788 150.041 374.077 150.041 372.922C150.041 371.754 151.145 371.031 152.821 371.031C154.509 371.031 155.601 371.754 155.601 372.922ZM152.288 378.164V379.065H158.761V380.043H151.006V377.25H157.086V376.425H150.98V375.461H158.381V378.164H152.288ZM158.381 371.272H160.005V372.351H158.381V374.94H157.073V368.657H158.381V371.272ZM167.252 373.239V368.961H168.484V379.599H167.252V374.293H165.145C164.473 375.613 163.381 376.768 161.794 377.72L161.045 376.793C163.432 375.372 164.561 373.493 164.752 371.145H161.591V370.091H166.047C166.047 371.208 165.894 372.262 165.564 373.239H167.252ZM169.651 368.682H170.908V380.144H169.651V368.682ZM176.518 375.181V377.669H179.412V375.169C178.967 375.283 178.472 375.334 177.965 375.334C177.457 375.334 176.962 375.283 176.518 375.181ZM177.965 370.37C176.226 370.37 175.02 371.132 175.02 372.338C175.02 373.557 176.226 374.318 177.965 374.318C179.691 374.318 180.897 373.557 180.897 372.338C180.897 371.132 179.691 370.37 177.965 370.37ZM180.719 377.669H183.169V378.735H172.786V377.669H175.21V374.686C174.296 374.178 173.75 373.353 173.75 372.338C173.75 370.51 175.515 369.342 177.965 369.342C180.402 369.342 182.179 370.51 182.179 372.338C182.179 373.353 181.633 374.166 180.719 374.686V377.669Z" fill="#757575"/>
<rect x="35.959" y="364.981" width="16.9245" height="16.8942" rx="2.82076" fill="#509BF8"/>
<rect x="31.0283" y="423.272" width="177.708" height="42.3114" rx="2.82076" fill="#509BF8"/>
<path d="M104.401 447.653H113.744V448.623H104.401V447.653ZM108.475 445.475H109.648V448.16H108.475V445.475ZM108.463 441.707H109.513V441.932C109.513 443.974 107.752 445.441 105.248 445.825L104.808 444.888C107.042 444.584 108.463 443.343 108.463 441.932V441.707ZM108.621 441.707H109.659V441.932C109.659 443.343 111.081 444.584 113.315 444.888L112.875 445.825C110.381 445.441 108.621 443.974 108.621 441.932V441.707ZM105.225 441.075H112.886V442.034H105.225V441.075ZM108.475 439.732H109.648V441.447H108.475V439.732ZM122.104 439.552H123.288V449.864H122.104V439.552ZM119.08 440.646H120.242C120.242 443.704 119.023 446.299 115.48 448.025L114.86 447.077C117.827 445.644 119.08 443.602 119.08 440.849V440.646ZM115.368 440.646H119.61V441.594H115.368V440.646ZM127.699 445.678H128.884V447.348H127.699V445.678ZM132.032 439.552H133.216V449.864H132.032V439.552ZM132.822 443.85H134.683V444.832H132.822V443.85ZM125.194 448.014L125.036 447.043C126.853 447.043 129.346 447.032 131.456 446.728L131.547 447.596C129.346 448.003 126.966 448.014 125.194 448.014ZM125.217 440.748H131.343V441.684H125.217V440.748ZM128.286 442.203C129.741 442.203 130.757 442.97 130.757 444.121C130.757 445.283 129.741 446.039 128.286 446.039C126.83 446.039 125.826 445.283 125.826 444.121C125.826 442.97 126.83 442.203 128.286 442.203ZM128.286 443.106C127.473 443.106 126.943 443.501 126.943 444.121C126.943 444.753 127.473 445.137 128.286 445.137C129.098 445.137 129.64 444.753 129.64 444.121C129.64 443.501 129.098 443.106 128.286 443.106ZM127.699 439.585H128.884V441.413H127.699V439.585Z" fill="#FEFEFE"/>
<rect x="232.709" y="423.41" width="177.708" height="42.3114" rx="2.82076" fill="#509BF8"/>
<path d="M302.018 440.648H308.597V441.607H302.018V440.648ZM301.082 447.678H310.402V448.648H301.082V447.678ZM303.215 444.349H304.388V448.005H303.215V444.349ZM308.247 440.648H309.42V441.731C309.42 443.018 309.42 444.394 309.059 446.391L307.886 446.267C308.247 444.383 308.247 442.984 308.247 441.731V440.648ZM305.764 444.349H306.927V448.005H305.764V444.349ZM317.001 442.284H319.157V443.255H317.001V442.284ZM318.818 439.689H320.003V445.827H318.818V439.689ZM316.561 446.098C318.717 446.098 320.037 446.831 320.037 448.05C320.037 449.291 318.717 450.002 316.561 450.002C314.406 450.002 313.086 449.291 313.086 448.05C313.086 446.831 314.406 446.098 316.561 446.098ZM316.561 447.012C315.106 447.012 314.26 447.373 314.26 448.05C314.26 448.727 315.106 449.088 316.561 449.088C318.028 449.088 318.863 448.727 318.863 448.05C318.863 447.373 318.028 447.012 316.561 447.012ZM313.978 440.727H314.937V441.483C314.937 443.413 313.887 445.116 312.06 445.771L311.45 444.834C313.064 444.27 313.978 442.894 313.978 441.483V440.727ZM314.215 440.727H315.162V441.472C315.162 442.758 316.042 444.033 317.588 444.564L317.001 445.5C315.219 444.879 314.215 443.255 314.215 441.472V440.727ZM311.789 440.389H317.317V441.337H311.789V440.389ZM328.656 439.689H329.829V450.002H328.656V439.689ZM329.559 443.83H331.432V444.812H329.559V443.83ZM321.785 441.28H327.832V442.228H321.785V441.28ZM324.842 442.973C326.309 442.973 327.392 443.966 327.392 445.376C327.392 446.798 326.309 447.79 324.842 447.79C323.364 447.79 322.281 446.798 322.281 445.376C322.281 443.966 323.364 442.973 324.842 442.973ZM324.842 443.943C324.007 443.943 323.409 444.507 323.409 445.376C323.409 446.245 324.007 446.82 324.842 446.82C325.666 446.82 326.264 446.245 326.264 445.376C326.264 444.507 325.666 443.943 324.842 443.943ZM324.233 439.836H325.418V441.675H324.233V439.836ZM339.543 439.689H340.728V450.002H339.543V439.689ZM336.519 440.784H337.682C337.682 443.841 336.463 446.436 332.92 448.163L332.3 447.215C335.267 445.782 336.519 443.74 336.519 440.987V440.784ZM332.807 440.784H337.05V441.731H332.807V440.784Z" fill="#FEFEFE"/>
</g>
<defs>
<filter id="filter0_d_554_206" x="0" y="0" width="490.439" height="531.802" filterUnits="userSpaceOnUse" color-interpolation-filters="sRGB">
<feFlood flood-opacity="0" result="BackgroundImageFix"/>
<feColorMatrix in="SourceAlpha" type="matrix" values="0 0 0 0 0 0 0 0 0 0 0 0 0 0 0 0 0 0 127 0" result="hardAlpha"/>
<feOffset dx="23.6356" dy="23.6356"/>
<feGaussianBlur stdDeviation="11.8178"/>
<feComposite in2="hardAlpha" operator="out"/>
<feColorMatrix type="matrix" values="0 0 0 0 0.533333 0 0 0 0 0.741176 0 0 0 0 1 0 0 0 0.25 0"/>
<feBlend mode="normal" in2="BackgroundImageFix" result="effect1_dropShadow_554_206"/>
<feBlend mode="normal" in="SourceGraphic" in2="effect1_dropShadow_554_206" result="shape"/>
</filter>
</defs>
</svg>
