<svg width="809" height="183" viewBox="0 0 809 183" fill="none" xmlns="http://www.w3.org/2000/svg">
<g filter="url(#filter0_d_554_285)">
<rect x="17" y="17" width="767.001" height="141" fill="#FEFEFE" stroke="#509BF8" stroke-width="2"/>
<path d="M43.5803 53.3139H45.1833V67.2976H43.5803V53.3139ZM34.5734 62.5499H35.7336C38.5731 62.5499 40.2981 62.4735 42.2827 62.1072L42.4354 63.4353C40.4203 63.817 38.6189 63.8933 35.7336 63.8933H34.5734V62.5499ZM34.5734 54.5963H41.2141V55.9091H36.161V63.0537H34.5734V54.5963ZM51.0442 55.4054H52.3113V57.3594C52.3113 60.3668 50.7389 63.4506 48.388 64.6108L47.472 63.3437C49.6092 62.3209 51.0442 59.6951 51.0442 57.3594V55.4054ZM51.3648 55.4054H52.6319V57.3594C52.6319 59.5272 53.9906 62.0003 56.1278 62.9926L55.2271 64.2597C52.8762 63.13 51.3648 60.2142 51.3648 57.3594V55.4054ZM47.991 54.7031H55.5783V56.0313H47.991V54.7031ZM56.9522 53.3139H58.5551V67.2671H56.9522V53.3139ZM58.1888 58.8097H60.7229V60.1378H58.1888V58.8097ZM71.6827 53.3292H73.2857V63.4353H71.6827V53.3292ZM64.1718 65.6947H73.6826V66.9923H64.1718V65.6947ZM64.1718 62.4125H65.7748V66.1832H64.1718V62.4125ZM65.7595 54.2604C67.8662 54.2604 69.4539 55.6954 69.4539 57.7411C69.4539 59.7562 67.8662 61.2217 65.7595 61.2217C63.6528 61.2217 62.0499 59.7562 62.0499 57.7411C62.0499 55.6954 63.6528 54.2604 65.7595 54.2604ZM65.7595 55.6344C64.5382 55.6344 63.607 56.4587 63.607 57.7411C63.607 58.9929 64.5382 59.8173 65.7595 59.8173C66.9808 59.8173 67.8968 58.9929 67.8968 57.7411C67.8968 56.4587 66.9808 55.6344 65.7595 55.6344ZM79.2628 64.2291H91.9031V65.5573H79.2628V64.2291ZM80.3009 54.6268H90.7734V55.9244H80.3009V54.6268ZM80.3467 60.4584H90.7429V61.756H80.3467V60.4584ZM82.3465 55.8175H83.9495V60.5958H82.3465V55.8175ZM87.1401 55.8175H88.7277V60.5958H87.1401V55.8175ZM93.3064 64.3207H105.947V65.6336H93.3064V64.3207ZM98.8021 61.4813H100.39V64.855H98.8021V61.4813ZM94.7872 54.2909H104.435V58.7028H96.4054V61.2981H94.8177V57.4358H102.848V55.5733H94.7872V54.2909ZM94.8177 60.6416H104.756V61.9392H94.8177V60.6416ZM112.83 58.1685H115.349V59.4814H112.83V58.1685ZM110.067 54.581H111.304V57.0999C111.304 60.1226 110.235 63.0689 108.113 64.3665L107.136 63.1605C109.106 61.9698 110.067 59.4814 110.067 57.0999V54.581ZM110.403 54.581H111.609V57.0388C111.609 59.2829 112.464 61.6339 114.327 62.8094L113.426 64.0612C111.334 62.7636 110.403 59.8783 110.403 57.0388V54.581ZM117.731 53.3139H119.257V67.2671H117.731V53.3139ZM114.891 53.5734H116.387V66.5954H114.891V53.5734ZM126.798 54.1993H128.187V55.2527C128.187 58.2754 125.653 60.779 122.508 61.4507L121.806 60.1226C124.569 59.6188 126.798 57.451 126.798 55.2527V54.1993ZM127.103 54.1993H128.492V55.2527C128.492 57.4815 130.721 59.6188 133.484 60.1226L132.782 61.4507C129.637 60.779 127.103 58.3059 127.103 55.2527V54.1993ZM121.393 64.1528H134.034V65.4657H121.393V64.1528ZM137.071 57.3136H146.627V58.596H137.071V57.3136ZM135.422 60.2752H148.062V61.5728H135.422V60.2752ZM137.071 53.8177H138.658V57.9548H137.071V53.8177ZM136.964 65.6489H146.703V66.9465H136.964V65.6489ZM136.964 62.8399H138.551V66H136.964V62.8399ZM158.588 58.7181H161.031V60.031H158.588V58.7181ZM155.566 57.0236H156.787V57.5884C156.787 60.4126 155.764 63.2674 153.642 64.5192L152.726 63.3132C154.65 62.1835 155.566 59.802 155.566 57.5884V57.0236ZM155.871 57.0236H157.092V57.5884C157.092 59.7562 158.024 61.9698 159.947 63.0079L159.062 64.1986C156.924 63.0384 155.871 60.3516 155.871 57.5884V57.0236ZM153.169 55.787H159.474V57.0846H153.169V55.787ZM155.566 53.8024H157.092V56.8098H155.566V53.8024ZM163.275 53.3139H164.802V67.2671H163.275V53.3139ZM160.466 53.5887H161.962V66.5801H160.466V53.5887ZM172.342 57.0999H175.319V58.3822H172.342V57.0999ZM172.25 60.5958H175.273V61.8782H172.25V60.5958ZM177.334 53.3139H178.876V67.2671H177.334V53.3139ZM174.51 53.6498H176.006V66.5954H174.51V53.6498ZM171.38 55.0237H172.922C172.922 58.8097 171.579 62.0461 167.762 64.3055L166.846 63.1758C170.067 61.237 171.38 58.657 171.38 55.329V55.0237ZM167.548 55.0237H171.96V56.3213H167.548V55.0237ZM184.401 54.7184H185.699V55.7412C185.699 58.3212 184.279 60.6111 181.79 61.466L180.981 60.1989C183.149 59.4661 184.401 57.6189 184.401 55.7412V54.7184ZM184.722 54.7184H186.004V55.7412C186.004 57.4663 187.195 59.1913 189.286 59.9088L188.492 61.1759C186.08 60.3363 184.722 58.138 184.722 55.7412V54.7184ZM188.508 56.8098H191.408V58.1227H188.508V56.8098ZM181.439 54.1841H188.92V55.4664H181.439V54.1841ZM183.149 62.3362H192.553V67.2671H190.95V63.6338H183.149V62.3362ZM190.95 53.3139H192.553V61.6339H190.95V53.3139ZM204.917 53.2987H206.52V67.2823H204.917V53.2987ZM199.086 54.3367C201.177 54.3367 202.689 56.245 202.689 59.2524C202.689 62.2598 201.177 64.1833 199.086 64.1833C197.01 64.1833 195.498 62.2598 195.498 59.2524C195.498 56.245 197.01 54.3367 199.086 54.3367ZM199.086 55.787C197.864 55.787 197.025 57.0846 197.025 59.2524C197.025 61.4355 197.864 62.7483 199.086 62.7483C200.307 62.7483 201.147 61.4355 201.147 59.2524C201.147 57.0846 200.307 55.787 199.086 55.787ZM210.397 54.6115H219.312V55.9091H210.397V54.6115ZM209.084 64.1223H221.694V65.4352H209.084V64.1223ZM213.786 59.2219H215.389V64.7787H213.786V59.2219ZM218.717 54.6115H220.32V55.9702C220.32 57.7105 220.32 59.6493 219.785 62.5346L218.182 62.3514C218.717 59.6341 218.717 57.6495 218.717 55.9702V54.6115ZM235.838 53.3139H237.441V63.4048H235.838V53.3139ZM236.968 57.2984H239.41V58.6265H236.968V57.2984ZM227.136 59.7257H228.251C231.197 59.7257 232.754 59.6493 234.54 59.2677L234.708 60.55C232.876 60.9469 231.258 61.0233 228.251 61.0233H227.136V59.7257ZM227.136 54.4741H233.334V55.7718H228.724V60.4126H227.136V54.4741ZM228.617 65.6947H238.006V66.9923H228.617V65.6947ZM228.617 62.3667H230.22V66.3206H228.617V62.3667ZM245.989 57.0999H248.966V58.3822H245.989V57.0999ZM245.897 60.5958H248.92V61.8782H245.897V60.5958ZM250.981 53.3139H252.523V67.2671H250.981V53.3139ZM248.156 53.6498H249.653V66.5954H248.156V53.6498ZM245.027 55.0237H246.569C246.569 58.8097 245.225 62.0461 241.409 64.3055L240.493 63.1758C243.714 61.237 245.027 58.657 245.027 55.329V55.0237ZM241.195 55.0237H245.607V56.3213H241.195V55.0237ZM258.048 54.7184H259.345V55.7412C259.345 58.3212 257.926 60.6111 255.437 61.466L254.628 60.1989C256.796 59.4661 258.048 57.6189 258.048 55.7412V54.7184ZM258.368 54.7184H259.651V55.7412C259.651 57.4663 260.841 59.1913 262.933 59.9088L262.139 61.1759C259.727 60.3363 258.368 58.138 258.368 55.7412V54.7184ZM262.154 56.8098H265.055V58.1227H262.154V56.8098ZM255.086 54.1841H262.566V55.4664H255.086V54.1841ZM256.796 62.3362H266.2V67.2671H264.597V63.6338H256.796V62.3362ZM264.597 53.3139H266.2V61.6339H264.597V53.3139ZM274.977 54.123C277.892 54.123 280.106 55.6802 280.106 58.0464C280.106 60.4279 277.892 61.985 274.977 61.985C272.076 61.985 269.847 60.4279 269.847 58.0464C269.847 55.6802 272.076 54.123 274.977 54.123ZM274.977 55.4206C272.916 55.4206 271.404 56.4435 271.404 58.0464C271.404 59.6341 272.916 60.6722 274.977 60.6722C277.053 60.6722 278.564 59.6341 278.564 58.0464C278.564 56.4435 277.053 55.4206 274.977 55.4206ZM268.687 64.1681H281.327V65.4962H268.687V64.1681ZM282.73 64.3207H295.371V65.6336H282.73V64.3207ZM288.226 61.4813H289.814V64.855H288.226V61.4813ZM284.211 54.2909H293.859V58.7028H285.83V61.2981H284.242V57.4358H292.272V55.5733H284.211V54.2909ZM284.242 60.6416H294.18V61.9392H284.242V60.6416ZM303.76 54.8558H305.088V56.1687C305.088 58.7639 303.638 61.008 301.149 61.8629L300.325 60.6111C302.523 59.8631 303.76 58.0464 303.76 56.1687V54.8558ZM304.081 54.8558H305.393V56.1687C305.393 57.9548 306.645 59.6493 308.798 60.3516L307.989 61.6034C305.531 60.7943 304.081 58.657 304.081 56.1687V54.8558ZM300.753 54.3978H308.37V55.6802H300.753V54.3978ZM310.095 53.3292H311.698V63.4658H310.095V53.3292ZM302.584 65.6947H312.095V66.9923H302.584V65.6947ZM302.584 62.5346H304.187V66.3053H302.584V62.5346ZM324.536 53.3139H326.047V62.1072H324.536V53.3139ZM322.505 56.9472H324.963V58.2601H322.505V56.9472ZM321.589 53.5887H323.086V61.6186H321.589V53.5887ZM314.17 54.8711H321.101V56.1229H314.17V54.8711ZM317.651 56.7182C319.406 56.7182 320.643 57.6953 320.643 59.1303C320.643 60.5806 319.406 61.5423 317.651 61.5423C315.911 61.5423 314.659 60.5806 314.659 59.1303C314.659 57.6953 315.911 56.7182 317.651 56.7182ZM317.651 57.8937C316.72 57.8937 316.094 58.367 316.094 59.1303C316.094 59.9088 316.72 60.3821 317.651 60.3821C318.582 60.3821 319.208 59.9088 319.208 59.1303C319.208 58.367 318.582 57.8937 317.651 57.8937ZM316.857 53.436H318.429V55.6649H316.857V53.436ZM321.406 62.3056C324.353 62.3056 326.123 63.191 326.123 64.7787C326.123 66.3511 324.353 67.2518 321.406 67.2518C318.46 67.2518 316.689 66.3511 316.689 64.7787C316.689 63.191 318.46 62.3056 321.406 62.3056ZM321.406 63.5116C319.391 63.5116 318.277 63.9391 318.277 64.7787C318.277 65.6031 319.391 66.0458 321.406 66.0458C323.406 66.0458 324.521 65.6031 324.521 64.7787C324.521 63.9391 323.406 63.5116 321.406 63.5116ZM332.091 58.0159H333.694V60.3058H332.091V58.0159ZM338.213 53.3139H339.816V61.3744H338.213V53.3139ZM328.534 61.1301L328.321 59.8631C330.855 59.8631 334.274 59.8325 337.19 59.4203L337.297 60.5348C334.305 61.0691 331.007 61.1149 328.534 61.1301ZM329.542 57.222H336.274V58.4891H329.542V57.222ZM329.542 53.9856H336.167V55.268H331.145V57.6647H329.542V53.9856ZM330.534 61.9698H332.122V63.2521H338.228V61.9698H339.816V67.0992H330.534V61.9698ZM332.122 64.4734V65.8168H338.228V64.4734H332.122ZM352.257 53.3139H353.844V67.2671H352.257V53.3139ZM343.143 54.6573H344.73V63.3132H343.143V54.6573ZM343.143 62.3667H344.333C346.41 62.3667 348.639 62.214 350.974 61.7408L351.157 63.0842C348.745 63.588 346.501 63.7406 344.333 63.7406H343.143V62.3667ZM365.583 53.2987H367.186V67.2823H365.583V53.2987ZM366.819 58.657H369.353V59.9852H366.819V58.657ZM356.942 62.5346H358.072C360.545 62.5346 362.377 62.443 364.438 62.0614L364.606 63.4048C362.468 63.7864 360.606 63.8628 358.072 63.8628H356.942V62.5346ZM356.942 54.6268H363.43V55.9244H358.53V63.1453H356.942V54.6268ZM371.993 66.2137C371.321 66.2137 370.818 65.6947 370.818 64.9772C370.818 64.2444 371.321 63.7406 371.993 63.7406C372.65 63.7406 373.169 64.2444 373.169 64.9772C373.169 65.6947 372.65 66.2137 371.993 66.2137ZM378.992 54.4894H385.465V61.0843H378.992V54.4894ZM383.892 55.7565H380.564V59.8173H383.892V55.7565ZM388.35 53.3292H389.953V63.4964H388.35V53.3292ZM385.022 57.0999H388.778V58.3975H385.022V57.0999ZM380.916 65.6947H390.304V66.9923H380.916V65.6947ZM380.916 62.5499H382.503V66.3206H380.916V62.5499ZM402.409 53.2987H404.012V67.2823H402.409V53.2987ZM399.661 58.2906H402.836V59.5883H399.661V58.2906ZM395.829 55.3901H397.112V57.1152C397.112 60.2905 395.6 63.3895 393.219 64.5955L392.272 63.3284C394.425 62.2904 395.829 59.6341 395.829 57.1152V55.3901ZM396.18 55.3901H397.448V57.1152C397.448 59.4967 398.837 62.0461 400.989 63.0537L400.058 64.3055C397.661 63.1453 396.18 60.1684 396.18 57.1152V55.3901ZM392.807 54.7031H400.47V56.0007H392.807V54.7031ZM412.859 60.4584H414.447V64.5039H412.859V60.4584ZM417.973 60.4584H419.576V64.5039H417.973V60.4584ZM409.913 64.2444H422.553V65.5573H409.913V64.2444ZM416.202 54.1078C419.179 54.1078 421.332 55.5428 421.332 57.7716C421.332 59.9852 419.179 61.4202 416.202 61.4202C413.225 61.4202 411.073 59.9852 411.073 57.7716C411.073 55.5428 413.225 54.1078 416.202 54.1078ZM416.202 55.3596C414.096 55.3596 412.63 56.2908 412.63 57.7716C412.63 59.2371 414.096 60.1684 416.202 60.1684C418.309 60.1684 419.775 59.2371 419.775 57.7716C419.775 56.2908 418.309 55.3596 416.202 55.3596ZM425.468 54.1841H434.2V55.4512H425.468V54.1841ZM423.956 60.1378H436.566V61.4507H423.956V60.1378ZM429.406 61.0385H431.009V67.2823H429.406V61.0385ZM433.406 54.1841H434.978V55.4054C434.978 56.8862 434.978 58.5349 434.444 60.9469L432.872 60.7485C433.406 58.4586 433.406 56.8251 433.406 55.4054V54.1841ZM441.282 54.4589H442.58V56.7488C442.58 60.0004 441.129 63.1147 438.733 64.336L437.756 63.0537C439.923 62.0003 441.282 59.3287 441.282 56.7488V54.4589ZM441.587 54.4589H442.87V56.7488C442.87 59.2371 444.183 61.7713 446.274 62.8094L445.297 64.0765C442.977 62.8705 441.587 59.8936 441.587 56.7488V54.4589ZM447.205 53.3139H448.808V67.2671H447.205V53.3139ZM448.442 58.8402H450.976V60.1684H448.442V58.8402ZM461.325 53.3139H462.928V62.2446H461.325V53.3139ZM462.485 57.0541H464.897V58.367H462.485V57.0541ZM458.486 62.3667C461.325 62.3667 463.081 63.2674 463.081 64.8092C463.081 66.3511 461.325 67.2518 458.486 67.2518C455.631 67.2518 453.875 66.3511 453.875 64.8092C453.875 63.2674 455.631 62.3667 458.486 62.3667ZM458.486 63.588C456.562 63.588 455.463 64.0154 455.463 64.8092C455.463 65.6031 456.562 66.0458 458.486 66.0458C460.394 66.0458 461.493 65.6031 461.493 64.8092C461.493 64.0154 460.394 63.588 458.486 63.588ZM452.059 54.7795H460.272V56.0313H452.059V54.7795ZM456.165 56.6419C458.165 56.6419 459.539 57.6189 459.539 59.115C459.539 60.6111 458.165 61.5881 456.165 61.5881C454.15 61.5881 452.776 60.6111 452.776 59.115C452.776 57.6189 454.15 56.6419 456.165 56.6419ZM456.165 57.8174C455.066 57.8174 454.318 58.3059 454.318 59.115C454.318 59.9241 455.066 60.3974 456.165 60.3974C457.264 60.3974 458.012 59.9241 458.012 59.115C458.012 58.3059 457.264 57.8174 456.165 57.8174ZM455.371 53.2071H456.959V55.4664H455.371V53.2071ZM472.377 53.5276C475.506 53.5276 477.353 54.3825 477.353 55.9397C477.353 57.4815 475.506 58.3364 472.377 58.3364C469.247 58.3364 467.415 57.4815 467.415 55.9397C467.415 54.3825 469.247 53.5276 472.377 53.5276ZM472.377 54.7184C470.224 54.7184 469.064 55.1458 469.064 55.9397C469.064 56.7335 470.224 57.1457 472.377 57.1457C474.544 57.1457 475.689 56.7335 475.689 55.9397C475.689 55.1458 474.544 54.7184 472.377 54.7184ZM466.072 59.1455H478.681V60.4126H466.072V59.1455ZM467.568 61.4355H477.109V64.7635H469.171V66.2595H467.583V63.6338H475.537V62.6262H467.568V61.4355ZM467.583 65.9084H477.506V67.145H467.583V65.9084ZM483.544 60.5806H496.184V61.8629H483.544V60.5806ZM489.193 61.2523H490.78V64.336H489.193V61.2523ZM485.086 65.6947H494.78V66.9923H485.086V65.6947ZM485.086 63.1758H486.674V66.2137H485.086V63.1758ZM485.193 53.7566H486.765V55.3748H492.948V53.7566H494.536V59.4051H485.193V53.7566ZM486.765 56.5961V58.138H492.948V56.5961H486.765ZM504.732 56.0923H507.831V57.4052H504.732V56.0923ZM500.946 54.0314H502.259V55.4206C502.259 58.138 500.885 60.4279 498.412 61.3286L497.557 60.0615C499.771 59.2982 500.946 57.4358 500.946 55.4206V54.0314ZM501.252 54.0314H502.549V55.5122C502.549 57.3442 503.74 59.0845 505.816 59.802L504.976 61.0538C502.61 60.1989 501.252 58.0159 501.252 55.5122V54.0314ZM499.756 62.2904H509.159V67.2671H507.556V63.5727H499.756V62.2904ZM507.556 53.3139H509.159V61.5881H507.556V53.3139ZM520.867 53.3139H522.455V67.2671H520.867V53.3139ZM522.089 58.9166H524.623V60.2447H522.089V58.9166ZM511.57 55.4664H519.753V56.7488H511.57V55.4664ZM515.707 57.7563C517.692 57.7563 519.157 59.0997 519.157 61.008C519.157 62.9315 517.692 64.2749 515.707 64.2749C513.707 64.2749 512.242 62.9315 512.242 61.008C512.242 59.0997 513.707 57.7563 515.707 57.7563ZM515.707 59.0692C514.578 59.0692 513.769 59.8325 513.769 61.008C513.769 62.1835 514.578 62.9621 515.707 62.9621C516.822 62.9621 517.631 62.1835 517.631 61.008C517.631 59.8325 516.822 59.0692 515.707 59.0692ZM514.883 53.5124H516.486V56.0007H514.883V53.5124ZM527.003 54.6115H535.918V55.9091H527.003V54.6115ZM525.69 64.1223H538.3V65.4352H525.69V64.1223ZM530.392 59.2219H531.995V64.7787H530.392V59.2219ZM535.323 54.6115H536.926V55.9702C536.926 57.7105 536.926 59.6493 536.392 62.5346L534.789 62.3514C535.323 59.6341 535.323 57.6495 535.323 55.9702V54.6115ZM546.704 54.4589H548.017V56.7488C548.017 60.1226 546.506 63.2216 544.002 64.4429L543.04 63.1147C545.269 62.1072 546.704 59.4203 546.704 56.7488V54.4589ZM547.01 54.4589H548.307V56.7488C548.307 59.3135 549.727 61.8782 551.925 62.8552L550.979 64.1375C548.521 62.9773 547.01 60.0004 547.01 56.7488V54.4589ZM553.04 53.2987H554.643V67.2823H553.04V53.2987ZM560.488 54.8405H561.801V55.8481C561.801 58.4586 560.381 60.7179 557.878 61.5728L557.084 60.3058C559.267 59.5577 560.488 57.7563 560.488 55.8481V54.8405ZM560.794 54.8405H562.091V55.8481C562.091 57.5731 563.251 59.1913 565.389 59.8783L564.625 61.1301C562.152 60.3363 560.794 58.2601 560.794 55.8481V54.8405ZM557.527 54.3062H565.022V55.5886H557.527V54.3062ZM566.488 53.3139H568.091V61.6644H566.488V53.3139ZM567.648 56.703H570.06V58.0311H567.648V56.703ZM563.603 61.985C566.457 61.985 568.243 62.9621 568.243 64.6108C568.243 66.2748 566.457 67.2518 563.603 67.2518C560.733 67.2518 558.946 66.2748 558.946 64.6108C558.946 62.9621 560.733 61.985 563.603 61.985ZM563.603 63.2521C561.664 63.2521 560.534 63.7254 560.534 64.6108C560.534 65.5115 561.664 66 563.603 66C565.541 66 566.656 65.5115 566.656 64.6108C566.656 63.7254 565.541 63.2521 563.603 63.2521ZM574.679 64.2444H587.319V65.5573H574.679V64.2444ZM580.19 60.9927H581.777V64.6413H580.19V60.9927ZM580.144 55.1H581.503V55.8023C581.503 58.7028 578.968 60.9317 575.869 61.5423L575.228 60.2752C577.946 59.8325 580.144 57.8937 580.144 55.8023V55.1ZM580.464 55.1H581.808V55.8023C581.808 57.8937 584.021 59.7867 586.785 60.2142L586.159 61.4813C582.999 60.8859 580.464 58.7028 580.464 55.8023V55.1ZM575.717 54.4894H586.235V55.787H575.717V54.4894ZM592.004 54.4589H593.302V56.7488C593.302 60.0004 591.852 63.1147 589.455 64.336L588.478 63.0537C590.646 62.0003 592.004 59.3287 592.004 56.7488V54.4589ZM592.31 54.4589H593.592V56.7488C593.592 59.2371 594.905 61.7713 596.996 62.8094L596.019 64.0765C593.699 62.8705 592.31 59.8936 592.31 56.7488V54.4589ZM597.928 53.3139H599.531V67.2671H597.928V53.3139ZM599.164 58.8402H601.698V60.1684H599.164V58.8402ZM602.751 59.6951H615.391V60.8859H602.751V59.6951ZM604.216 61.8171H613.849V64.9466H605.834V66.3817H604.247V63.8933H612.277V62.9315H604.216V61.8171ZM604.247 66H614.276V67.1144H604.247V66ZM604.338 53.6498H613.803V56.7182H605.941V58.0617H604.353V55.6802H612.231V54.7489H604.338V53.6498ZM604.353 57.7105H614.063V58.825H604.353V57.7105ZM620.223 60.6111H632.833V61.8782H620.223V60.6111ZM625.719 58.9471H627.306V61.1149H625.719V58.9471ZM621.841 58.2449H631.413V59.4661H621.841V58.2449ZM621.841 53.6956H631.321V54.9321H623.429V58.9318H621.841V53.6956ZM622.971 55.9702H630.985V57.161H622.971V55.9702ZM626.513 62.7331C629.566 62.7331 631.321 63.5269 631.321 64.9924C631.321 66.458 629.566 67.2518 626.513 67.2518C623.459 67.2518 621.704 66.458 621.704 64.9924C621.704 63.5269 623.459 62.7331 626.513 62.7331ZM626.513 63.9238C624.406 63.9238 623.307 64.2902 623.307 64.9924C623.307 65.7099 624.406 66.0611 626.513 66.0611C628.619 66.0611 629.718 65.7099 629.718 64.9924C629.718 64.2902 628.619 63.9238 626.513 63.9238ZM634.251 55.5733H641.06V56.8556H634.251V55.5733ZM637.671 57.6495C639.426 57.6495 640.694 58.9929 640.694 60.9011C640.694 62.8094 639.426 64.1375 637.671 64.1375C635.93 64.1375 634.648 62.8094 634.648 60.9011C634.648 58.9929 635.93 57.6495 637.671 57.6495ZM637.671 58.9929C636.74 58.9929 636.068 59.7562 636.068 60.9011C636.068 62.0614 636.74 62.7941 637.671 62.7941C638.602 62.7941 639.274 62.0614 639.274 60.9011C639.274 59.7562 638.602 58.9929 637.671 58.9929ZM644.632 53.3139H646.159V67.2671H644.632V53.3139ZM642.648 59.0997H645.136V60.3974H642.648V59.0997ZM641.671 53.604H643.167V66.6259H641.671V53.604ZM636.892 53.7108H638.465V56.3671H636.892V53.7108ZM655.036 54.4589H656.334V56.7488C656.334 60.0004 654.884 63.1147 652.487 64.336L651.51 63.0537C653.678 62.0003 655.036 59.3287 655.036 56.7488V54.4589ZM655.342 54.4589H656.624V56.7488C656.624 59.2371 657.937 61.7713 660.028 62.8094L659.051 64.0765C656.731 62.8705 655.342 59.8936 655.342 56.7488V54.4589ZM660.96 53.3139H662.563V67.2671H660.96V53.3139ZM662.196 58.8402H664.73V60.1684H662.196V58.8402ZM668.775 58.0159H670.362V60.6111H668.775V58.0159ZM673.797 58.0159H675.385V60.6111H673.797V58.0159ZM665.783 60.092H678.392V61.3591H665.783V60.092ZM672.072 62.2598C675.064 62.2598 676.881 63.1605 676.881 64.7482C676.881 66.3511 675.064 67.2518 672.072 67.2518C669.065 67.2518 667.263 66.3511 667.263 64.7482C667.263 63.1605 669.065 62.2598 672.072 62.2598ZM672.072 63.4811C670.027 63.4811 668.882 63.9238 668.882 64.7482C668.882 65.5878 670.027 66.0305 672.072 66.0305C674.118 66.0305 675.263 65.5878 675.263 64.7482C675.263 63.9238 674.118 63.4811 672.072 63.4811ZM672.087 53.5429C675.141 53.5429 677.064 54.5352 677.064 56.1839C677.064 57.8327 675.141 58.7944 672.087 58.7944C669.034 58.7944 667.126 57.8327 667.126 56.1839C667.126 54.5352 669.034 53.5429 672.087 53.5429ZM672.087 54.7795C670.011 54.7795 668.775 55.268 668.775 56.1839C668.775 57.0846 670.011 57.5731 672.087 57.5731C674.179 57.5731 675.415 57.0846 675.415 56.1839C675.415 55.268 674.179 54.7795 672.087 54.7795ZM683.139 55.4054H684.406V57.3594C684.406 60.3668 682.834 63.4506 680.483 64.6108L679.567 63.3437C681.704 62.3209 683.139 59.6951 683.139 57.3594V55.4054ZM683.459 55.4054H684.727V57.3594C684.727 59.5272 686.085 62.0003 688.222 62.9926L687.322 64.2597C684.971 63.13 683.459 60.2142 683.459 57.3594V55.4054ZM680.086 54.7031H687.673V56.0313H680.086V54.7031ZM689.047 53.3139H690.65V67.2671H689.047V53.3139ZM690.283 58.8097H692.818V60.1378H690.283V58.8097ZM707.771 53.3139H709.298V67.2671H707.771V53.3139ZM703.405 58.5196H705.512V59.9241H703.405V58.5196ZM705.038 53.6192H706.55V66.5648H705.038V53.6192ZM697.421 54.9932H703.787V56.2908H697.421V54.9932ZM697.344 63.9544L697.161 62.6262C698.947 62.6262 701.924 62.5804 704.046 62.2904L704.153 63.4506C701.97 63.8933 699.1 63.9544 697.344 63.9544ZM698.443 55.8175H699.894V62.9926H698.443V55.8175ZM701.298 55.8175H702.749V62.9926H701.298V55.8175ZM711.357 64.2749H723.998V65.6031H711.357V64.2749ZM712.838 54.3215H722.486V58.7486H714.456V61.3286H712.869V57.4815H720.899V55.6191H712.838V54.3215ZM712.869 60.6874H722.807V61.9698H712.869V60.6874ZM725.401 64.2139H738.041V65.5268H725.401V64.2139ZM730.851 60.9622H732.439V64.6108H730.851V60.9622ZM730.805 54.1688H732.194V55.2222C732.194 58.1991 729.645 60.6264 726.47 61.2523L725.798 59.9241C728.576 59.4509 730.805 57.3594 730.805 55.2222V54.1688ZM731.095 54.1688H732.5V55.2222C732.5 57.39 734.729 59.4509 737.507 59.9241L736.835 61.2523C733.645 60.6264 731.095 58.2143 731.095 55.2222V54.1688ZM749.825 58.7486H752.344V60.0768H749.825V58.7486ZM748.65 53.2987H750.253V67.2518H748.65V53.2987ZM739.933 54.6573H741.521V63.3132H739.933V54.6573ZM739.933 62.443H741.078C743.108 62.443 745.246 62.3056 747.52 61.8476L747.703 63.1605C745.353 63.649 743.169 63.7864 741.078 63.7864H739.933V62.443ZM753.473 59.6951H766.113V60.8859H753.473V59.6951ZM754.938 61.8171H764.571V64.9466H756.557V66.3817H754.969V63.8933H762.999V62.9315H754.938V61.8171ZM754.969 66H764.999V67.1144H754.969V66ZM755.06 53.6498H764.525V56.7182H756.663V58.0617H755.076V55.6802H762.953V54.7489H755.06V53.6498ZM755.076 57.7105H764.785V58.825H755.076V57.7105ZM41.1988 81.8251H44.1147V83.138H41.1988V81.8251ZM43.6567 78.3139H45.2596V86.6186H43.6567V78.3139ZM40.6035 86.985C43.5193 86.985 45.3054 87.9773 45.3054 89.6261C45.3054 91.3053 43.5193 92.2671 40.6035 92.2671C37.6877 92.2671 35.9015 91.3053 35.9015 89.6261C35.9015 87.9773 37.6877 86.985 40.6035 86.985ZM40.6035 88.2216C38.6341 88.2216 37.4892 88.7101 37.4892 89.6261C37.4892 90.542 38.6341 91.0305 40.6035 91.0305C42.5881 91.0305 43.7177 90.542 43.7177 89.6261C43.7177 88.7101 42.5881 88.2216 40.6035 88.2216ZM37.1075 79.7184H38.4052V80.7412C38.4052 83.3517 36.9854 85.6569 34.5123 86.5423L33.6879 85.2752C35.871 84.5119 37.1075 82.6495 37.1075 80.7412V79.7184ZM37.4281 79.7184H38.7105V80.726C38.7105 82.4663 39.9012 84.1913 41.9927 84.9088L41.1988 86.1759C38.7868 85.3363 37.4281 83.138 37.4281 80.726V79.7184ZM34.1459 79.2604H41.6263V80.5428H34.1459V79.2604ZM52.2503 79.2909C54.4333 79.2909 56.021 80.6649 56.021 82.6342C56.021 84.6188 54.4333 85.9927 52.2503 85.9927C50.0672 85.9927 48.449 84.6188 48.449 82.6342C48.449 80.6649 50.0672 79.2909 52.2503 79.2909ZM52.2503 80.6649C50.9679 80.6649 50.0214 81.4282 50.0214 82.6342C50.0214 83.8402 50.9679 84.6188 52.2503 84.6188C53.5173 84.6188 54.4638 83.8402 54.4638 82.6342C54.4638 81.4282 53.5173 80.6649 52.2503 80.6649ZM57.6239 78.2987H59.2268V92.2823H57.6239V78.2987ZM48.0063 89.336L47.8078 88.0231C50.3115 88.0231 53.7769 87.9926 56.7843 87.5499L56.9064 88.7101C53.8227 89.3055 50.4641 89.336 48.0063 89.336ZM71.0721 78.3139H72.675V86.4507H71.0721V78.3139ZM72.0186 81.7793H74.6444V83.1075H72.0186V81.7793ZM63.7749 87.0308H65.3473V88.3132H71.0874V87.0308H72.675V92.0992H63.7749V87.0308ZM65.3473 89.5345V90.8321H71.0874V89.5345H65.3473ZM61.8056 79.6421H70.0187V80.9244H61.8056V79.6421ZM65.9122 81.4435C67.912 81.4435 69.286 82.4205 69.286 83.9013C69.286 85.3821 67.912 86.3591 65.9122 86.3591C63.8971 86.3591 62.5231 85.3821 62.5231 83.9013C62.5231 82.4205 63.8971 81.4435 65.9122 81.4435ZM65.9122 82.6342C64.813 82.6342 64.065 83.1227 64.065 83.9013C64.065 84.6951 64.813 85.1836 65.9122 85.1836C67.0113 85.1836 67.7594 84.6951 67.7594 83.9013C67.7594 83.1227 67.0113 82.6342 65.9122 82.6342ZM65.1183 78.1918H66.706V80.3443H65.1183V78.1918ZM85.7568 78.3139H87.3445V92.2671H85.7568V78.3139ZM76.643 79.6573H78.2307V88.3132H76.643V79.6573ZM76.643 87.3667H77.8338C79.9099 87.3667 82.1388 87.214 84.4745 86.7408L84.6577 88.0842C82.2456 88.588 80.0015 88.7406 77.8338 88.7406H76.643V87.3667ZM99.0829 78.2987H100.686V92.2823H99.0829V78.2987ZM100.319 83.657H102.854V84.9852H100.319V83.657ZM90.4423 87.5346H91.572C94.0451 87.5346 95.877 87.443 97.9379 87.0614L98.1059 88.4048C95.9686 88.7864 94.1062 88.8628 91.572 88.8628H90.4423V87.5346ZM90.4423 79.6268H96.9304V80.9244H92.03V88.1453H90.4423V79.6268ZM105.493 91.2137C104.822 91.2137 104.318 90.6947 104.318 89.9772C104.318 89.2444 104.822 88.7406 105.493 88.7406C106.15 88.7406 106.669 89.2444 106.669 89.9772C106.669 90.6947 106.15 91.2137 105.493 91.2137ZM113.225 79.7031H122.14V80.9855H113.225V79.7031ZM111.897 89.0154H124.507V90.3283H111.897V89.0154ZM121.286 79.7031H122.873V81.2145C122.873 83.0769 122.873 85.031 122.354 87.9773L120.751 87.8247C121.286 85.0615 121.286 83.0159 121.286 81.2145V79.7031ZM126.49 85.4279H127.574C130.246 85.4279 131.864 85.3821 133.741 85.0615L133.879 86.3439C131.94 86.6644 130.291 86.7255 127.574 86.7255H126.49V85.4279ZM126.46 79.2604H132.688V83.5196H128.078V86.2523H126.49V82.2984H131.116V80.5428H126.46V79.2604ZM135.894 78.3292H137.497V88.5727H135.894V78.3292ZM128.368 90.6947H137.879V91.9923H128.368V90.6947ZM128.368 87.7941H129.971V91.1069H128.368V87.7941ZM133.467 81.8251H136.245V83.1838H133.467V81.8251ZM152.618 78.2987H154.221V92.2823H152.618V78.2987ZM153.855 83.657H156.389V84.9852H153.855V83.657ZM143.978 87.5346H145.108C147.581 87.5346 149.413 87.443 151.473 87.0614L151.641 88.4048C149.504 88.7864 147.642 88.8628 145.108 88.8628H143.978V87.5346ZM143.978 79.6268H150.466V80.9244H145.565V88.1453H143.978V79.6268ZM163.746 78.604C166.799 78.604 168.723 79.6115 168.723 81.2755C168.723 82.9548 166.799 83.9471 163.746 83.9471C160.708 83.9471 158.785 82.9548 158.785 81.2755C158.785 79.6115 160.708 78.604 163.746 78.604ZM163.746 79.8558C161.67 79.8558 160.433 80.3443 160.433 81.2755C160.433 82.1915 161.67 82.6953 163.746 82.6953C165.822 82.6953 167.074 82.1915 167.074 81.2755C167.074 80.3443 165.822 79.8558 163.746 79.8558ZM158.953 87.4277H168.524V92.0992H158.953V87.4277ZM166.967 88.7101H160.525V90.8168H166.967V88.7101ZM157.441 84.9699H170.051V86.237H157.441V84.9699ZM174.929 89.1833H187.569V90.5115H174.929V89.1833ZM176.333 79.2757H177.936V81.703H184.516V79.2757H186.104V86.6186H176.333V79.2757ZM177.936 82.9701V85.3363H184.516V82.9701H177.936ZM189.385 87.5957H190.347C192.041 87.5957 193.568 87.5499 195.4 87.2293L195.537 88.5269C193.659 88.8628 192.087 88.9086 190.347 88.9086H189.385V87.5957ZM189.354 79.7795H194.316V84.8478H190.942V88.1147H189.385V83.5654H192.774V81.0618H189.354V79.7795ZM199.338 78.3139H200.865V92.2671H199.338V78.3139ZM194.942 83.1991H197.155V84.5119H194.942V83.1991ZM196.514 78.6192H197.995V91.5648H196.514V78.6192ZM212.909 78.3292H214.511V88.4353H212.909V78.3292ZM205.398 90.6947H214.908V91.9923H205.398V90.6947ZM205.398 87.4125H207.001V91.1832H205.398V87.4125ZM206.985 79.2604C209.092 79.2604 210.68 80.6954 210.68 82.7411C210.68 84.7562 209.092 86.2217 206.985 86.2217C204.879 86.2217 203.276 84.7562 203.276 82.7411C203.276 80.6954 204.879 79.2604 206.985 79.2604ZM206.985 80.6344C205.764 80.6344 204.833 81.4587 204.833 82.7411C204.833 83.9929 205.764 84.8173 206.985 84.8173C208.207 84.8173 209.123 83.9929 209.123 82.7411C209.123 81.4587 208.207 80.6344 206.985 80.6344ZM222.464 79.1993H223.853V80.2527C223.853 83.2754 221.319 85.779 218.174 86.4507L217.472 85.1226C220.235 84.6188 222.464 82.451 222.464 80.2527V79.1993ZM222.769 79.1993H224.158V80.2527C224.158 82.4815 226.387 84.6188 229.15 85.1226L228.448 86.4507C225.303 85.779 222.769 83.3059 222.769 80.2527V79.1993ZM217.06 89.1528H229.7V90.4657H217.06V89.1528ZM232.66 85.4126H242.339V86.6797H232.66V85.4126ZM231.103 89.3207H243.744V90.6183H231.103V89.3207ZM236.599 86.0538H238.202V89.9008H236.599V86.0538ZM232.66 79.3673H242.202V80.6649H234.279V85.8859H232.66V79.3673ZM233.775 82.3442H241.896V83.6112H233.775V82.3442ZM245.864 79.3062H252.475V85.4737H245.864V79.3062ZM250.917 80.5886H247.421V84.2066H250.917V80.5886ZM255.039 78.3292H256.642V86.5881H255.039V78.3292ZM251.986 86.8476C254.887 86.8476 256.718 87.8399 256.718 89.5497C256.718 91.2595 254.887 92.2518 251.986 92.2518C249.085 92.2518 247.269 91.2595 247.269 89.5497C247.269 87.8399 249.085 86.8476 251.986 86.8476ZM251.986 88.0995C250.001 88.0995 248.856 88.6032 248.856 89.5497C248.856 90.481 250.001 91 251.986 91C253.971 91 255.116 90.481 255.116 89.5497C255.116 88.6032 253.971 88.0995 251.986 88.0995ZM265.48 78.5276C268.61 78.5276 270.457 79.3825 270.457 80.9397C270.457 82.4815 268.61 83.3364 265.48 83.3364C262.35 83.3364 260.519 82.4815 260.519 80.9397C260.519 79.3825 262.35 78.5276 265.48 78.5276ZM265.48 79.7184C263.327 79.7184 262.167 80.1458 262.167 80.9397C262.167 81.7335 263.327 82.1457 265.48 82.1457C267.648 82.1457 268.793 81.7335 268.793 80.9397C268.793 80.1458 267.648 79.7184 265.48 79.7184ZM259.175 84.1455H271.785V85.4126H259.175V84.1455ZM260.671 86.4355H270.212V89.7635H262.274V91.2595H260.686V88.6338H268.64V87.6262H260.671V86.4355ZM260.686 90.9084H270.609V92.145H260.686V90.9084ZM276.648 85.6111H289.257V86.8782H276.648V85.6111ZM282.143 83.9471H283.731V86.1149H282.143V83.9471ZM278.266 83.2449H287.838V84.4661H278.266V83.2449ZM278.266 78.6956H287.746V79.9321H279.853V83.9318H278.266V78.6956ZM279.395 80.9702H287.41V82.161H279.395V80.9702ZM282.937 87.7331C285.99 87.7331 287.746 88.5269 287.746 89.9924C287.746 91.458 285.99 92.2518 282.937 92.2518C279.884 92.2518 278.128 91.458 278.128 89.9924C278.128 88.5269 279.884 87.7331 282.937 87.7331ZM282.937 88.9238C280.83 88.9238 279.731 89.2902 279.731 89.9924C279.731 90.7099 280.83 91.0611 282.937 91.0611C285.044 91.0611 286.143 90.7099 286.143 89.9924C286.143 89.2902 285.044 88.9238 282.937 88.9238ZM290.676 80.5733H297.485V81.8556H290.676V80.5733ZM294.095 82.6495C295.851 82.6495 297.118 83.9929 297.118 85.9011C297.118 87.8094 295.851 89.1375 294.095 89.1375C292.355 89.1375 291.073 87.8094 291.073 85.9011C291.073 83.9929 292.355 82.6495 294.095 82.6495ZM294.095 83.9929C293.164 83.9929 292.493 84.7562 292.493 85.9011C292.493 87.0614 293.164 87.7941 294.095 87.7941C295.027 87.7941 295.698 87.0614 295.698 85.9011C295.698 84.7562 295.027 83.9929 294.095 83.9929ZM301.057 78.3139H302.583V92.2671H301.057V78.3139ZM299.072 84.0997H301.561V85.3974H299.072V84.0997ZM298.095 78.604H299.591V91.6259H298.095V78.604ZM293.317 78.7108H294.889V81.3671H293.317V78.7108ZM317.384 78.2987H318.987V92.2823H317.384V78.2987ZM318.621 83.657H321.155V84.9852H318.621V83.657ZM308.744 87.5346H309.873C312.346 87.5346 314.178 87.443 316.239 87.0614L316.407 88.4048C314.27 88.7864 312.408 88.8628 309.873 88.8628H308.744V87.5346ZM308.744 79.6268H315.232V80.9244H310.331V88.1453H308.744V79.6268ZM332.619 80.2374H335.031V81.5503H332.619V80.2374ZM332.619 83.2296H335.031V84.5425H332.619V83.2296ZM326.1 79.1078C328.222 79.1078 329.81 80.4817 329.81 82.451C329.81 84.3898 328.222 85.7637 326.1 85.7637C323.978 85.7637 322.406 84.3898 322.406 82.451C322.406 80.4817 323.978 79.1078 326.1 79.1078ZM326.1 80.4512C324.863 80.4512 323.963 81.245 323.963 82.451C323.963 83.657 324.863 84.4203 326.1 84.4203C327.337 84.4203 328.253 83.657 328.253 82.451C328.253 81.245 327.337 80.4512 326.1 80.4512ZM331.504 78.3139H333.107V86.527H331.504V78.3139ZM328.619 86.8934C331.474 86.8934 333.26 87.901 333.26 89.5803C333.26 91.2595 331.474 92.2518 328.619 92.2518C325.749 92.2518 323.963 91.2595 323.963 89.5803C323.963 87.901 325.749 86.8934 328.619 86.8934ZM328.619 88.1758C326.68 88.1758 325.55 88.6643 325.55 89.5803C325.55 90.4962 326.68 90.9847 328.619 90.9847C330.558 90.9847 331.672 90.4962 331.672 89.5803C331.672 88.6643 330.558 88.1758 328.619 88.1758ZM345.548 78.3292H347.151V88.7712H345.548V78.3292ZM346.677 82.7563H349.12V84.0845H346.677V82.7563ZM336.281 79.9169H344.494V81.1839H336.281V79.9169ZM340.388 81.8251C342.372 81.8251 343.762 82.8937 343.762 84.4661C343.762 86.0538 342.372 87.1072 340.388 87.1072C338.388 87.1072 336.999 86.0538 336.999 84.4661C336.999 82.8937 338.388 81.8251 340.388 81.8251ZM340.388 83.0617C339.289 83.0617 338.541 83.596 338.541 84.4661C338.541 85.3516 339.289 85.8706 340.388 85.8706C341.487 85.8706 342.235 85.3516 342.235 84.4661C342.235 83.596 341.487 83.0617 340.388 83.0617ZM339.594 78.3139H341.182V80.5428H339.594V78.3139ZM338.327 90.6947H347.716V91.9923H338.327V90.6947ZM338.327 87.9621H339.93V91.2443H338.327V87.9621ZM357.448 79.3367C359.524 79.3367 361.02 81.245 361.02 84.2524C361.02 87.2598 359.524 89.1833 357.448 89.1833C355.372 89.1833 353.876 87.2598 353.876 84.2524C353.876 81.245 355.372 79.3367 357.448 79.3367ZM357.448 80.787C356.242 80.787 355.402 82.0846 355.402 84.2524C355.402 86.4355 356.242 87.7483 357.448 87.7483C358.654 87.7483 359.494 86.4355 359.494 84.2524C359.494 82.0846 358.654 80.787 357.448 80.787ZM362.944 78.3139H364.547V92.2671H362.944V78.3139ZM364.18 83.7486H366.715V85.0768H364.18V83.7486ZM377.659 78.2987H379.262V92.2823H377.659V78.2987ZM371.828 79.3367C373.919 79.3367 375.43 81.245 375.43 84.2524C375.43 87.2598 373.919 89.1833 371.828 89.1833C369.751 89.1833 368.24 87.2598 368.24 84.2524C368.24 81.245 369.751 79.3367 371.828 79.3367ZM371.828 80.787C370.606 80.787 369.767 82.0846 369.767 84.2524C369.767 86.4355 370.606 87.7483 371.828 87.7483C373.049 87.7483 373.888 86.4355 373.888 84.2524C373.888 82.0846 373.049 80.787 371.828 80.787ZM391.703 78.3139H393.306V92.2976H391.703V78.3139ZM382.696 87.5499H383.856C386.695 87.5499 388.421 87.4735 390.405 87.1072L390.558 88.4353C388.543 88.817 386.741 88.8933 383.856 88.8933H382.696V87.5499ZM382.696 79.5963H389.336V80.9091H384.283V88.0537H382.696V79.5963ZM399.625 79.3367C401.686 79.3367 403.151 81.245 403.151 84.2524C403.151 87.2598 401.686 89.1833 399.625 89.1833C397.564 89.1833 396.098 87.2598 396.098 84.2524C396.098 81.245 397.564 79.3367 399.625 79.3367ZM399.625 80.787C398.434 80.787 397.625 82.0846 397.625 84.2524C397.625 86.4355 398.434 87.7483 399.625 87.7483C400.831 87.7483 401.64 86.4355 401.64 84.2524C401.64 82.0846 400.831 80.787 399.625 80.787ZM405.853 78.2987H407.441V92.2823H405.853V78.2987ZM402.663 83.5044H406.54V84.7867H402.663V83.5044ZM409.897 84.6951H422.538V85.8859H409.897V84.6951ZM411.363 86.8171H420.996V89.9466H412.981V91.3817H411.394V88.8933H419.423V87.9315H411.363V86.8171ZM411.394 91H421.423V92.1144H411.394V91ZM411.485 78.6498H420.95V81.7182H413.088V83.0617H411.5V80.6802H419.378V79.7489H411.485V78.6498ZM411.5 82.7105H421.21V83.825H411.5V82.7105ZM428.897 79.1841H437.629V80.4512H428.897V79.1841ZM427.385 85.1378H439.995V86.4507H427.385V85.1378ZM432.835 86.0385H434.438V92.2823H432.835V86.0385ZM436.835 79.1841H438.407V80.4054C438.407 81.8862 438.407 83.5349 437.873 85.9469L436.301 85.7485C436.835 83.4586 436.835 81.8251 436.835 80.4054V79.1841ZM444.665 79.0467H445.978V80.3901C445.978 83.1227 444.604 85.4279 442.131 86.3439L441.291 85.0768C443.49 84.2982 444.665 82.4205 444.665 80.3901V79.0467ZM444.97 79.0467H446.268V80.5275C446.268 82.3289 447.459 84.0082 449.55 84.6951L448.711 85.9469C446.344 85.1073 444.97 83.0006 444.97 80.5275V79.0467ZM450.71 78.3139H452.313V86.6797H450.71V78.3139ZM451.871 81.7488H454.283V83.0769H451.871V81.7488ZM447.825 87.0308C450.695 87.0308 452.466 87.9926 452.466 89.6413C452.466 91.2901 450.695 92.2518 447.825 92.2518C444.94 92.2518 443.169 91.2901 443.169 89.6413C443.169 87.9926 444.94 87.0308 447.825 87.0308ZM447.825 88.2826C445.886 88.2826 444.757 88.7559 444.757 89.6413C444.757 90.5268 445.886 91 447.825 91C449.764 91 450.878 90.5268 450.878 89.6413C450.878 88.7559 449.764 88.2826 447.825 88.2826ZM464.693 78.3139H466.281V92.2671H464.693V78.3139ZM465.914 83.9166H468.448V85.2447H465.914V83.9166ZM455.396 80.4664H463.579V81.7488H455.396V80.4664ZM459.533 82.7563C461.518 82.7563 462.983 84.0997 462.983 86.008C462.983 87.9315 461.518 89.2749 459.533 89.2749C457.533 89.2749 456.068 87.9315 456.068 86.008C456.068 84.0997 457.533 82.7563 459.533 82.7563ZM459.533 84.0692C458.403 84.0692 457.594 84.8325 457.594 86.008C457.594 87.1835 458.403 87.9621 459.533 87.9621C460.648 87.9621 461.457 87.1835 461.457 86.008C461.457 84.8325 460.648 84.0692 459.533 84.0692ZM458.709 78.5124H460.312V81.0007H458.709V78.5124ZM470.829 79.6115H479.744V80.9091H470.829V79.6115ZM469.516 89.1223H482.126V90.4352H469.516V89.1223ZM474.218 84.2219H475.821V89.7787H474.218V84.2219ZM479.149 79.6115H480.752V80.9702C480.752 82.7105 480.752 84.6493 480.217 87.5346L478.614 87.3514C479.149 84.6341 479.149 82.6495 479.149 80.9702V79.6115ZM484.048 94.0685L483.666 93.0762C484.72 92.6335 485.33 91.8549 485.33 90.9389L485.208 89.5345L485.941 90.6794C485.727 90.9084 485.452 91 485.162 91C484.536 91 483.972 90.5878 483.972 89.8703C483.972 89.1681 484.536 88.7406 485.208 88.7406C486.063 88.7406 486.567 89.4429 486.567 90.6183C486.567 92.2365 485.636 93.4731 484.048 94.0685ZM494.879 85.3668H496.482V88.6796H494.879V85.3668ZM495.672 79.1841C497.81 79.1841 499.397 80.558 499.397 82.5273C499.397 84.4967 497.81 85.8706 495.672 85.8706C493.505 85.8706 491.932 84.4967 491.932 82.5273C491.932 80.558 493.505 79.1841 495.672 79.1841ZM495.672 80.5428C494.405 80.5428 493.489 81.3213 493.489 82.5273C493.489 83.7334 494.405 84.5119 495.672 84.5119C496.924 84.5119 497.84 83.7334 497.84 82.5273C497.84 81.3213 496.924 80.5428 495.672 80.5428ZM500.771 78.3139H502.374V92.2671H500.771V78.3139ZM501.901 83.9318H504.42V85.26H501.901V83.9318ZM491.581 89.3513L491.367 88.0537C493.841 88.0384 497.153 88.0384 499.962 87.6567L500.084 88.8322C497.169 89.3513 493.978 89.3665 491.581 89.3513ZM515.456 78.2987H517.059V92.2823H515.456V78.2987ZM509.624 79.3367C511.716 79.3367 513.227 81.245 513.227 84.2524C513.227 87.2598 511.716 89.1833 509.624 89.1833C507.548 89.1833 506.037 87.2598 506.037 84.2524C506.037 81.245 507.548 79.3367 509.624 79.3367ZM509.624 80.787C508.403 80.787 507.564 82.0846 507.564 84.2524C507.564 86.4355 508.403 87.7483 509.624 87.7483C510.846 87.7483 511.685 86.4355 511.685 84.2524C511.685 82.0846 510.846 80.787 509.624 80.787ZM523.378 79.3367C525.439 79.3367 526.904 81.245 526.904 84.2524C526.904 87.2598 525.439 89.1833 523.378 89.1833C521.317 89.1833 519.851 87.2598 519.851 84.2524C519.851 81.245 521.317 79.3367 523.378 79.3367ZM523.378 80.787C522.187 80.787 521.378 82.0846 521.378 84.2524C521.378 86.4355 522.187 87.7483 523.378 87.7483C524.584 87.7483 525.393 86.4355 525.393 84.2524C525.393 82.0846 524.584 80.787 523.378 80.787ZM529.606 78.2987H531.194V92.2823H529.606V78.2987ZM526.416 83.5044H530.293V84.7867H526.416V83.5044ZM533.666 89.2291H546.306V90.5573H533.666V89.2291ZM534.704 79.6268H545.177V80.9244H534.704V79.6268ZM534.75 85.4584H545.146V86.756H534.75V85.4584ZM536.75 80.8175H538.353V85.5958H536.75V80.8175ZM541.543 80.8175H543.131V85.5958H541.543V80.8175ZM548.122 87.5957H549.084C550.778 87.5957 552.305 87.5499 554.137 87.2293L554.274 88.5269C552.396 88.8628 550.824 88.9086 549.084 88.9086H548.122V87.5957ZM548.091 79.7795H553.053V84.8478H549.679V88.1147H548.122V83.5654H551.511V81.0618H548.091V79.7795ZM558.075 78.3139H559.602V92.2671H558.075V78.3139ZM553.679 83.1991H555.892V84.5119H553.679V83.1991ZM555.251 78.6192H556.732V91.5648H555.251V78.6192ZM571.646 78.3292H573.249V86.2523H571.646V78.3292ZM564.119 86.9545H573.249V92.0992H564.119V86.9545ZM571.676 88.2216H565.692V90.8168H571.676V88.2216ZM565.722 79.0162C567.86 79.0162 569.417 80.3596 569.417 82.3136C569.417 84.2371 567.86 85.6111 565.722 85.6111C563.585 85.6111 562.013 84.2371 562.013 82.3136C562.013 80.3596 563.585 79.0162 565.722 79.0162ZM565.722 80.3443C564.486 80.3443 563.57 81.1229 563.57 82.3136C563.57 83.5044 564.486 84.2677 565.722 84.2677C566.959 84.2677 567.86 83.5044 567.86 82.3136C567.86 81.1229 566.959 80.3443 565.722 80.3443ZM582.086 78.5276C585.216 78.5276 587.063 79.3825 587.063 80.9397C587.063 82.4815 585.216 83.3364 582.086 83.3364C578.957 83.3364 577.125 82.4815 577.125 80.9397C577.125 79.3825 578.957 78.5276 582.086 78.5276ZM582.086 79.7184C579.934 79.7184 578.774 80.1458 578.774 80.9397C578.774 81.7335 579.934 82.1457 582.086 82.1457C584.254 82.1457 585.399 81.7335 585.399 80.9397C585.399 80.1458 584.254 79.7184 582.086 79.7184ZM575.781 84.1455H588.391V85.4126H575.781V84.1455ZM577.278 86.4355H586.819V89.7635H578.88V91.2595H577.293V88.6338H585.246V87.6262H577.278V86.4355ZM577.293 90.9084H587.216V92.145H577.293V90.9084ZM596.551 79.7489H597.864V80.7565C597.864 83.3517 596.445 85.5958 593.971 86.4355L593.132 85.1989C595.33 84.4509 596.551 82.6495 596.551 80.7565V79.7489ZM596.857 79.7489H598.154V80.7565C598.154 82.5121 599.33 84.2219 601.467 84.9241L600.658 86.1759C598.215 85.3516 596.857 83.1991 596.857 80.7565V79.7489ZM593.59 79.2146H601.085V80.5122H593.59V79.2146ZM602.551 78.3139H604.154V86.7102H602.551V78.3139ZM603.711 81.8556H606.123V83.1838H603.711V81.8556ZM594.979 87.3972H604.154V92.2671H602.551V88.6948H594.979V87.3972ZM610.702 79.0772H612.03V80.4206C612.03 83.1685 610.626 85.489 608.076 86.3897L607.236 85.092C609.481 84.344 610.702 82.4663 610.702 80.4206V79.0772ZM611.007 79.0772H612.305V80.3596C612.305 82.2831 613.465 84.0234 615.587 84.7257L614.732 85.9775C612.335 85.1073 611.007 82.9701 611.007 80.3596V79.0772ZM617.266 78.3139H618.869V86.527H617.266V78.3139ZM614.213 86.924C617.129 86.924 618.915 87.901 618.915 89.5803C618.915 91.2748 617.129 92.2518 614.213 92.2518C611.297 92.2518 609.511 91.2748 609.511 89.5803C609.511 87.901 611.297 86.924 614.213 86.924ZM614.213 88.1758C612.244 88.1758 611.099 88.6796 611.099 89.5803C611.099 90.4962 612.244 91 614.213 91C616.198 91 617.327 90.4962 617.327 89.5803C617.327 88.6796 616.198 88.1758 614.213 88.1758ZM614.442 81.0771H617.541V82.39H614.442V81.0771ZM630.577 78.3139H632.165V92.2671H630.577V78.3139ZM631.798 83.9166H634.332V85.2447H631.798V83.9166ZM621.28 80.4664H629.463V81.7488H621.28V80.4664ZM625.417 82.7563C627.402 82.7563 628.867 84.0997 628.867 86.008C628.867 87.9315 627.402 89.2749 625.417 89.2749C623.417 89.2749 621.952 87.9315 621.952 86.008C621.952 84.0997 623.417 82.7563 625.417 82.7563ZM625.417 84.0692C624.287 84.0692 623.478 84.8325 623.478 86.008C623.478 87.1835 624.287 87.9621 625.417 87.9621C626.532 87.9621 627.341 87.1835 627.341 86.008C627.341 84.8325 626.532 84.0692 625.417 84.0692ZM624.593 78.5124H626.196V81.0007H624.593V78.5124ZM641.659 81.3061H645.689V82.6037H641.659V81.3061ZM641.659 85.6874H645.689V86.985H641.659V85.6874ZM639.155 79.3367C641.216 79.3367 642.682 81.245 642.682 84.2524C642.682 87.2598 641.216 89.1833 639.155 89.1833C637.094 89.1833 635.629 87.2598 635.629 84.2524C635.629 81.245 637.094 79.3367 639.155 79.3367ZM639.155 80.787C637.965 80.787 637.14 82.0846 637.14 84.2524C637.14 86.4355 637.965 87.7483 639.155 87.7483C640.361 87.7483 641.17 86.4355 641.17 84.2524C641.17 82.0846 640.361 80.787 639.155 80.787ZM645.384 78.2987H646.972V92.2823H645.384V78.2987ZM662.78 78.3139H664.383V92.2671H662.78V78.3139ZM658.689 79.7947H660.261C660.261 83.9318 658.612 87.443 653.819 89.7787L652.979 88.4964C656.994 86.5576 658.689 83.7944 658.689 80.0695V79.7947ZM653.666 79.7947H659.406V81.0771H653.666V79.7947ZM668.549 78.8482H670.122V80.4206H676.305V78.8482H677.892V84.4661H668.549V78.8482ZM670.122 81.6724V83.1991H676.305V81.6724H670.122ZM666.901 85.8248H679.51V87.1072H666.901V85.8248ZM672.412 83.7639H673.999V86.3744H672.412V83.7639ZM668.488 90.6947H678.106V91.9923H668.488V90.6947ZM668.488 88.0995H670.091V91.1527H668.488V88.0995ZM685.9 79.1841H694.632V80.4512H685.9V79.1841ZM684.388 85.1378H696.998V86.4507H684.388V85.1378ZM689.838 86.0385H691.441V92.2823H689.838V86.0385ZM693.838 79.1841H695.41V80.4054C695.41 81.8862 695.41 83.5349 694.876 85.9469L693.304 85.7485C693.838 83.4586 693.838 81.8251 693.838 80.4054V79.1841ZM698.432 89.2444H711.072V90.5573H698.432V89.2444ZM703.943 85.9927H705.531V89.6413H703.943V85.9927ZM703.897 80.1H705.256V80.8023C705.256 83.7028 702.722 85.9317 699.623 86.5423L698.982 85.2752C701.699 84.8325 703.897 82.8937 703.897 80.8023V80.1ZM704.218 80.1H705.561V80.8023C705.561 82.8937 707.775 84.7867 710.538 85.2142L709.912 86.4813C706.752 85.8859 704.218 83.7028 704.218 80.8023V80.1ZM699.47 79.4894H709.988V80.787H699.47V79.4894ZM712.46 84.6951H725.101V85.8859H712.46V84.6951ZM713.926 86.8171H723.559V89.9466H715.544V91.3817H713.956V88.8933H721.986V87.9315H713.926V86.8171ZM713.956 91H723.986V92.1144H713.956V91ZM714.048 78.6498H723.513V81.7182H715.651V83.0617H714.063V80.6802H721.94V79.7489H714.048V78.6498ZM714.063 82.7105H723.772V83.825H714.063V82.7105ZM733.49 79.4589H734.803V81.7488C734.803 85.1226 733.291 88.2216 730.788 89.4429L729.826 88.1147C732.055 87.1072 733.49 84.4203 733.49 81.7488V79.4589ZM733.795 79.4589H735.093V81.7488C735.093 84.3135 736.512 86.8782 738.711 87.8552L737.764 89.1375C735.306 87.9773 733.795 85.0004 733.795 81.7488V79.4589ZM739.825 78.2987H741.428V92.2823H739.825V78.2987ZM753.273 78.3139H754.876V86.4507H753.273V78.3139ZM754.434 81.7182H756.846V83.0464H754.434V81.7182ZM749.35 79.1536H751.029C751.029 82.7716 748.648 85.2905 744.541 86.3744L743.885 85.1378C747.426 84.2066 749.35 82.2831 749.35 79.9169V79.1536ZM744.541 79.1536H750.281V80.4359H744.541V79.1536ZM745.701 87.0766H754.876V92.2671H753.273V88.359H745.701V87.0766ZM761.47 86.6034H763.073V88.8628H761.47V86.6034ZM767.332 78.3139H768.935V92.2671H767.332V78.3139ZM768.401 84.1303H770.92V85.4584H768.401V84.1303ZM758.081 89.7635L757.867 88.4506C760.325 88.4506 763.699 88.4353 766.554 88.0231L766.676 89.1986C763.699 89.7482 760.478 89.7635 758.081 89.7635ZM758.111 79.9321H766.401V81.1992H758.111V79.9321ZM762.264 81.9014C764.233 81.9014 765.607 82.9395 765.607 84.4967C765.607 86.0691 764.233 87.0919 762.264 87.0919C760.294 87.0919 758.936 86.0691 758.936 84.4967C758.936 82.9395 760.294 81.9014 762.264 81.9014ZM762.264 83.1227C761.165 83.1227 760.447 83.657 760.447 84.4967C760.447 85.3516 761.165 85.8706 762.264 85.8706C763.363 85.8706 764.096 85.3516 764.096 84.4967C764.096 83.657 763.363 83.1227 762.264 83.1227ZM761.47 78.3597H763.073V80.8328H761.47V78.3597ZM42.985 102.314H44.5879V110.451H42.985V102.314ZM43.9315 105.779H46.5572V107.107H43.9315V105.779ZM35.6878 111.031H37.2602V112.313H43.0002V111.031H44.5879V116.099H35.6878V111.031ZM37.2602 113.534V114.832H43.0002V113.534H37.2602ZM33.7185 103.642H41.9316V104.924H33.7185V103.642ZM37.825 105.443C39.8249 105.443 41.1988 106.42 41.1988 107.901C41.1988 109.382 39.8249 110.359 37.825 110.359C35.8099 110.359 34.436 109.382 34.436 107.901C34.436 106.42 35.8099 105.443 37.825 105.443ZM37.825 106.634C36.7259 106.634 35.9779 107.123 35.9779 107.901C35.9779 108.695 36.7259 109.184 37.825 109.184C38.9242 109.184 39.6722 108.695 39.6722 107.901C39.6722 107.123 38.9242 106.634 37.825 106.634ZM37.0312 102.192H38.6189V104.344H37.0312V102.192ZM57.6697 102.314H59.2574V116.267H57.6697V102.314ZM48.5559 103.657H50.1435V112.313H48.5559V103.657ZM48.5559 111.367H49.7466C51.8228 111.367 54.0517 111.214 56.3874 110.741L56.5706 112.084C54.1585 112.588 51.9144 112.741 49.7466 112.741H48.5559V111.367ZM70.9958 102.299H72.5987V116.282H70.9958V102.299ZM72.2323 107.657H74.7665V108.985H72.2323V107.657ZM62.3552 111.535H63.4849C65.958 111.535 67.7899 111.443 69.8508 111.061L70.0187 112.405C67.8815 112.786 66.019 112.863 63.4849 112.863H62.3552V111.535ZM62.3552 103.627H68.8433V104.924H63.9429V112.145H62.3552V103.627ZM77.4063 115.214C76.7346 115.214 76.2308 114.695 76.2308 113.977C76.2308 113.244 76.7346 112.741 77.4063 112.741C78.0628 112.741 78.5818 113.244 78.5818 113.977C78.5818 114.695 78.0628 115.214 77.4063 115.214ZM93.6869 102.299H95.2899V116.282H93.6869V102.299ZM87.8553 103.337C89.9468 103.337 91.4581 105.245 91.4581 108.252C91.4581 111.26 89.9468 113.183 87.8553 113.183C85.7791 113.183 84.2678 111.26 84.2678 108.252C84.2678 105.245 85.7791 103.337 87.8553 103.337ZM87.8553 104.787C86.634 104.787 85.7944 106.085 85.7944 108.252C85.7944 110.435 86.634 111.748 87.8553 111.748C89.0766 111.748 89.9162 110.435 89.9162 108.252C89.9162 106.085 89.0766 104.787 87.8553 104.787ZM98.4793 103.841H109.761V105.108H98.4793V103.841ZM97.8534 111.351H110.494V112.649H97.8534V111.351ZM103.349 112.451H104.937V116.282H103.349V112.451ZM104.143 105.81C107.059 105.81 108.784 106.649 108.784 108.161C108.784 109.672 107.059 110.527 104.143 110.527C101.227 110.527 99.5021 109.672 99.5021 108.161C99.5021 106.649 101.227 105.81 104.143 105.81ZM104.143 107.001C102.204 107.001 101.166 107.398 101.166 108.161C101.166 108.924 102.204 109.321 104.143 109.321C106.097 109.321 107.135 108.924 107.135 108.161C107.135 107.398 106.097 107.001 104.143 107.001ZM103.349 102.268H104.937V104.695H103.349V102.268ZM125.203 102.314H126.806V116.298H125.203V102.314ZM116.196 111.55H117.356C120.196 111.55 121.921 111.474 123.905 111.107L124.058 112.435C122.043 112.817 120.242 112.893 117.356 112.893H116.196V111.55ZM116.196 103.596H122.837V104.909H117.784V112.054H116.196V103.596ZM132.911 104.405H134.193V106.359C134.193 109.428 132.621 112.466 130.224 113.611L129.308 112.344C131.461 111.351 132.911 108.741 132.911 106.359V104.405ZM133.247 104.405H134.514V106.359C134.514 108.665 135.949 111.077 138.132 111.993L137.247 113.26C134.819 112.176 133.247 109.352 133.247 106.359V104.405ZM129.812 103.703H137.613V105.031H129.812V103.703ZM139.247 102.314H140.849V116.267H139.247V102.314ZM144.085 108.084H145.138C147.733 108.084 149.245 108.054 151.046 107.779L151.168 109.031C149.321 109.321 147.779 109.352 145.138 109.352H144.085V108.084ZM144.085 103.138H150.435V104.39H145.672V108.894H144.085V103.138ZM145.245 105.596H150.038V106.787H145.245V105.596ZM150.939 105.413H153.702V106.68H150.939V105.413ZM153.366 102.314H154.954V109.779H153.366V102.314ZM145.871 110.359H154.954V113.794H147.474V115.702H145.901V112.634H153.382V111.58H145.871V110.359ZM145.901 114.908H155.427V116.145H145.901V114.908ZM160.885 113.229H173.526V114.557H160.885V113.229ZM161.924 103.627H172.396V104.924H161.924V103.627ZM161.969 109.458H172.365V110.756H161.969V109.458ZM163.969 104.818H165.572V109.596H163.969V104.818ZM168.763 104.818H170.35V109.596H168.763V104.818ZM174.929 113.321H187.569V114.634H174.929V113.321ZM180.425 110.481H182.012V113.855H180.425V110.481ZM176.41 103.291H186.058V107.703H178.028V110.298H176.44V106.436H184.47V104.573H176.41V103.291ZM176.44 109.642H186.379V110.939H176.44V109.642ZM190.53 109.413H200.208V110.68H190.53V109.413ZM188.973 113.321H201.613V114.618H188.973V113.321ZM194.468 110.054H196.071V113.901H194.468V110.054ZM190.53 103.367H200.071V104.665H192.148V109.886H190.53V103.367ZM191.644 106.344H199.766V107.611H191.644V106.344ZM203.581 111.687H204.711C207.184 111.687 208.97 111.641 211.061 111.29L211.214 112.573C209.077 112.939 207.23 113 204.711 113H203.581V111.687ZM203.581 103.535H210.1V104.848H205.184V112.13H203.581V103.535ZM204.787 107.428H209.84V108.695H204.787V107.428ZM212.222 102.314H213.824V116.267H212.222V102.314ZM213.458 107.779H215.992V109.107H213.458V107.779ZM226.952 102.314H228.555V109.81H226.952V102.314ZM219.441 110.466H221.014V111.977H226.967V110.466H228.555V116.099H219.441V110.466ZM221.014 113.229V114.817H226.967V113.229H221.014ZM221.029 102.94C223.166 102.94 224.723 104.268 224.723 106.191C224.723 108.1 223.166 109.443 221.029 109.443C218.892 109.443 217.319 108.1 217.319 106.191C217.319 104.268 218.892 102.94 221.029 102.94ZM221.029 104.268C219.777 104.268 218.876 105.031 218.876 106.191C218.876 107.352 219.777 108.115 221.029 108.115C222.281 108.115 223.166 107.352 223.166 106.191C223.166 105.031 222.281 104.268 221.029 104.268ZM237.393 102.528C240.522 102.528 242.37 103.383 242.37 104.94C242.37 106.482 240.522 107.336 237.393 107.336C234.263 107.336 232.431 106.482 232.431 104.94C232.431 103.383 234.263 102.528 237.393 102.528ZM237.393 103.718C235.24 103.718 234.08 104.146 234.08 104.94C234.08 105.734 235.24 106.146 237.393 106.146C239.561 106.146 240.706 105.734 240.706 104.94C240.706 104.146 239.561 103.718 237.393 103.718ZM231.088 108.146H243.698V109.413H231.088V108.146ZM232.584 110.435H242.125V113.763H234.187V115.26H232.599V112.634H240.553V111.626H232.584V110.435ZM232.599 114.908H242.522V116.145H232.599V114.908ZM258.941 102.314H260.468V116.267H258.941V102.314ZM254.071 107.214H256.59V108.527H254.071V107.214ZM256.132 102.589H257.628V115.58H256.132V102.589ZM251.247 104.527H252.469V106.146C252.469 109.229 251.43 112.222 249.308 113.565L248.347 112.374C250.331 111.153 251.247 108.634 251.247 106.146V104.527ZM251.598 104.527H252.804V106.146C252.804 108.527 253.69 110.909 255.644 112.054L254.697 113.229C252.575 111.962 251.598 109.138 251.598 106.146V104.527ZM248.789 103.841H255.094V105.138H248.789V103.841ZM265.901 103.749H267.214V104.756C267.214 107.352 265.795 109.596 263.322 110.435L262.482 109.199C264.68 108.451 265.901 106.649 265.901 104.756V103.749ZM266.207 103.749H267.504V104.756C267.504 106.512 268.68 108.222 270.817 108.924L270.008 110.176C267.565 109.352 266.207 107.199 266.207 104.756V103.749ZM262.94 103.215H270.436V104.512H262.94V103.215ZM271.901 102.314H273.504V110.71H271.901V102.314ZM273.061 105.856H275.473V107.184H273.061V105.856ZM264.329 111.397H273.504V116.267H271.901V112.695H264.329V111.397ZM276.632 104.573H283.441V105.856H276.632V104.573ZM280.052 106.649C281.808 106.649 283.075 107.993 283.075 109.901C283.075 111.809 281.808 113.138 280.052 113.138C278.312 113.138 277.029 111.809 277.029 109.901C277.029 107.993 278.312 106.649 280.052 106.649ZM280.052 107.993C279.121 107.993 278.449 108.756 278.449 109.901C278.449 111.061 279.121 111.794 280.052 111.794C280.983 111.794 281.655 111.061 281.655 109.901C281.655 108.756 280.983 107.993 280.052 107.993ZM287.013 102.314H288.54V116.267H287.013V102.314ZM285.029 108.1H287.517V109.397H285.029V108.1ZM284.052 102.604H285.548V115.626H284.052V102.604ZM279.273 102.711H280.846V105.367H279.273V102.711ZM297.418 103.459H298.715V105.749C298.715 109 297.265 112.115 294.868 113.336L293.891 112.054C296.059 111 297.418 108.329 297.418 105.749V103.459ZM297.723 103.459H299.005V105.749C299.005 108.237 300.318 110.771 302.41 111.809L301.432 113.076C299.112 111.87 297.723 108.894 297.723 105.749V103.459ZM303.341 102.314H304.944V116.267H303.341V102.314ZM304.577 107.84H307.111V109.168H304.577V107.84ZM311.156 107.016H312.743V109.611H311.156V107.016ZM316.178 107.016H317.766V109.611H316.178V107.016ZM308.164 109.092H320.773V110.359H308.164V109.092ZM314.453 111.26C317.445 111.26 319.262 112.161 319.262 113.748C319.262 115.351 317.445 116.252 314.453 116.252C311.446 116.252 309.644 115.351 309.644 113.748C309.644 112.161 311.446 111.26 314.453 111.26ZM314.453 112.481C312.408 112.481 311.263 112.924 311.263 113.748C311.263 114.588 312.408 115.031 314.453 115.031C316.499 115.031 317.644 114.588 317.644 113.748C317.644 112.924 316.499 112.481 314.453 112.481ZM314.468 102.543C317.522 102.543 319.445 103.535 319.445 105.184C319.445 106.833 317.522 107.794 314.468 107.794C311.415 107.794 309.507 106.833 309.507 105.184C309.507 103.535 311.415 102.543 314.468 102.543ZM314.468 103.779C312.392 103.779 311.156 104.268 311.156 105.184C311.156 106.085 312.392 106.573 314.468 106.573C316.56 106.573 317.796 106.085 317.796 105.184C317.796 104.268 316.56 103.779 314.468 103.779ZM325.52 104.405H326.787V106.359C326.787 109.367 325.215 112.451 322.864 113.611L321.948 112.344C324.085 111.321 325.52 108.695 325.52 106.359V104.405ZM325.84 104.405H327.108V106.359C327.108 108.527 328.466 111 330.603 111.993L329.703 113.26C327.352 112.13 325.84 109.214 325.84 106.359V104.405ZM322.467 103.703H330.054V105.031H322.467V103.703ZM331.428 102.314H333.031V116.267H331.428V102.314ZM332.664 107.81H335.199V109.138H332.664V107.81ZM345.435 107.504H347.984V108.802H345.435V107.504ZM340.153 111.748H341.069C343.13 111.748 344.412 111.703 345.939 111.412L346.076 112.71C344.504 113 343.176 113.046 341.069 113.046H340.153V111.748ZM340.153 103.932H345.328V105.214H341.679V112.206H340.153V103.932ZM341.222 107.688H344.733V108.939H341.222V107.688ZM350.061 102.314H351.587V116.267H350.061V102.314ZM347.221 102.604H348.717V115.595H347.221V102.604ZM359.143 103.199H360.532V104.253C360.532 107.275 357.998 109.779 354.853 110.451L354.151 109.123C356.914 108.619 359.143 106.451 359.143 104.253V103.199ZM359.448 103.199H360.837V104.253C360.837 106.482 363.066 108.619 365.829 109.123L365.127 110.451C361.982 109.779 359.448 107.306 359.448 104.253V103.199ZM353.738 113.153H366.379V114.466H353.738V113.153ZM369.339 109.687H379.018V110.954H369.339V109.687ZM367.782 113.244H380.422V114.557H367.782V113.244ZM369.339 103.428H378.88V104.726H370.957V110.054H369.339V103.428ZM370.454 106.527H378.575V107.779H370.454V106.527ZM381.81 108.695H394.451V109.886H381.81V108.695ZM383.276 110.817H392.909V113.947H384.894V115.382H383.306V112.893H391.336V111.932H383.276V110.817ZM383.306 115H393.336V116.114H383.306V115ZM383.398 102.65H392.863V105.718H385.001V107.062H383.413V104.68H391.291V103.749H383.398V102.65ZM383.413 106.711H393.122V107.825H383.413V106.711ZM402.855 103.856H404.183V105.169C404.183 107.764 402.733 110.008 400.245 110.863L399.42 109.611C401.619 108.863 402.855 107.046 402.855 105.169V103.856ZM403.176 103.856H404.489V105.169C404.489 106.955 405.74 108.649 407.893 109.352L407.084 110.603C404.626 109.794 403.176 107.657 403.176 105.169V103.856ZM399.848 103.398H407.465V104.68H399.848V103.398ZM409.19 102.329H410.793V112.466H409.19V102.329ZM401.68 114.695H411.19V115.992H401.68V114.695ZM401.68 111.535H403.282V115.305H401.68V111.535ZM423.631 102.314H425.142V111.107H423.631V102.314ZM421.601 105.947H424.058V107.26H421.601V105.947ZM420.685 102.589H422.181V110.619H420.685V102.589ZM413.265 103.871H420.196V105.123H413.265V103.871ZM416.746 105.718C418.502 105.718 419.738 106.695 419.738 108.13C419.738 109.581 418.502 110.542 416.746 110.542C415.006 110.542 413.754 109.581 413.754 108.13C413.754 106.695 415.006 105.718 416.746 105.718ZM416.746 106.894C415.815 106.894 415.189 107.367 415.189 108.13C415.189 108.909 415.815 109.382 416.746 109.382C417.677 109.382 418.303 108.909 418.303 108.13C418.303 107.367 417.677 106.894 416.746 106.894ZM415.952 102.436H417.525V104.665H415.952V102.436ZM420.501 111.306C423.448 111.306 425.219 112.191 425.219 113.779C425.219 115.351 423.448 116.252 420.501 116.252C417.555 116.252 415.784 115.351 415.784 113.779C415.784 112.191 417.555 111.306 420.501 111.306ZM420.501 112.512C418.486 112.512 417.372 112.939 417.372 113.779C417.372 114.603 418.486 115.046 420.501 115.046C422.501 115.046 423.616 114.603 423.616 113.779C423.616 112.939 422.501 112.512 420.501 112.512ZM436.606 102.314H438.194V116.267H436.606V102.314ZM437.827 107.917H440.361V109.245H437.827V107.917ZM427.309 104.466H435.491V105.749H427.309V104.466ZM431.446 106.756C433.431 106.756 434.896 108.1 434.896 110.008C434.896 111.932 433.431 113.275 431.446 113.275C429.446 113.275 427.981 111.932 427.981 110.008C427.981 108.1 429.446 106.756 431.446 106.756ZM431.446 108.069C430.316 108.069 429.507 108.833 429.507 110.008C429.507 111.183 430.316 111.962 431.446 111.962C432.56 111.962 433.369 111.183 433.369 110.008C433.369 108.833 432.56 108.069 431.446 108.069ZM430.622 102.512H432.225V105.001H430.622V102.512ZM442.742 103.612H451.657V104.909H442.742V103.612ZM441.429 113.122H454.038V114.435H441.429V113.122ZM446.131 108.222H447.734V113.779H446.131V108.222ZM451.062 103.612H452.665V104.97C452.665 106.711 452.665 108.649 452.13 111.535L450.527 111.351C451.062 108.634 451.062 106.649 451.062 104.97V103.612ZM455.961 118.068L455.579 117.076C456.633 116.633 457.243 115.855 457.243 114.939L457.121 113.534L457.854 114.679C457.64 114.908 457.365 115 457.075 115C456.449 115 455.885 114.588 455.885 113.87C455.885 113.168 456.449 112.741 457.121 112.741C457.976 112.741 458.48 113.443 458.48 114.618C458.48 116.237 457.549 117.473 455.961 118.068ZM473.356 102.314H474.959V116.267H473.356V102.314ZM463.784 103.718H471.646V105.001H463.784V103.718ZM463.586 112.939L463.418 111.611C465.967 111.611 469.371 111.565 472.287 111.214L472.379 112.374C469.402 112.878 466.12 112.924 463.586 112.939ZM465.173 104.711H466.73V111.962H465.173V104.711ZM468.7 104.711H470.257V111.962H468.7V104.711ZM479.034 108.894H488.712V110.176H479.034V108.894ZM477.492 113.153H490.132V114.466H477.492V113.153ZM479.034 103.535H488.59V104.848H480.621V109.443H479.034V103.535ZM492.085 103.199H493.596V105.306H496.039V103.199H497.535V109.825H492.085V103.199ZM493.596 106.543V108.542H496.039V106.543H493.596ZM501.825 102.329H503.336V110.71H501.825V102.329ZM499.825 105.84H502.267V107.153H499.825V105.84ZM498.848 102.573H500.344V110.634H498.848V102.573ZM493.886 111.458H503.336V116.267H501.748V112.741H493.886V111.458ZM511.869 102.528C514.998 102.528 516.845 103.383 516.845 104.94C516.845 106.482 514.998 107.336 511.869 107.336C508.739 107.336 506.907 106.482 506.907 104.94C506.907 103.383 508.739 102.528 511.869 102.528ZM511.869 103.718C509.716 103.718 508.556 104.146 508.556 104.94C508.556 105.734 509.716 106.146 511.869 106.146C514.036 106.146 515.181 105.734 515.181 104.94C515.181 104.146 514.036 103.718 511.869 103.718ZM505.564 108.146H518.173V109.413H505.564V108.146ZM507.06 110.435H516.601V113.763H508.663V115.26H507.075V112.634H515.029V111.626H507.06V110.435ZM507.075 114.908H516.998V116.145H507.075V114.908ZM532.333 102.329H533.936V112.573H532.333V102.329ZM533.463 106.405H535.905V107.733H533.463V106.405ZM525.112 114.695H534.501V115.992H525.112V114.695ZM525.112 111.565H526.715V114.985H525.112V111.565ZM523.54 103.321H525.128V105.505H528.532V103.321H530.104V110.298H523.54V103.321ZM525.128 106.741V109.031H528.532V106.741H525.128ZM543.354 104.237H547.552V105.535H543.354V104.237ZM543.354 107.398H547.552V108.695H543.354V107.398ZM540.911 103.108C542.972 103.108 544.545 104.512 544.545 106.466C544.545 108.42 542.972 109.825 540.911 109.825C538.835 109.825 537.278 108.42 537.278 106.466C537.278 104.512 538.835 103.108 540.911 103.108ZM540.911 104.466C539.705 104.466 538.805 105.245 538.805 106.466C538.805 107.672 539.705 108.466 540.911 108.466C542.117 108.466 543.018 107.672 543.018 106.466C543.018 105.245 542.117 104.466 540.911 104.466ZM547.048 102.314H548.651V110.527H547.048V102.314ZM543.995 110.848C546.896 110.848 548.697 111.84 548.697 113.55C548.697 115.26 546.896 116.252 543.995 116.252C541.095 116.252 539.293 115.26 539.293 113.55C539.293 111.84 541.095 110.848 543.995 110.848ZM543.995 112.084C542.011 112.084 540.866 112.603 540.866 113.55C540.866 114.481 542.011 115 543.995 115C545.98 115 547.125 114.481 547.125 113.55C547.125 112.603 545.98 112.084 543.995 112.084ZM560.359 102.314H561.947V116.267H560.359V102.314ZM561.58 107.917H564.115V109.245H561.58V107.917ZM551.062 104.466H559.245V105.749H551.062V104.466ZM555.199 106.756C557.184 106.756 558.649 108.1 558.649 110.008C558.649 111.932 557.184 113.275 555.199 113.275C553.199 113.275 551.734 111.932 551.734 110.008C551.734 108.1 553.199 106.756 555.199 106.756ZM555.199 108.069C554.07 108.069 553.26 108.833 553.26 110.008C553.26 111.183 554.07 111.962 555.199 111.962C556.314 111.962 557.123 111.183 557.123 110.008C557.123 108.833 556.314 108.069 555.199 108.069ZM554.375 102.512H555.978V105.001H554.375V102.512ZM571.441 105.306H575.471V106.604H571.441V105.306ZM571.441 109.687H575.471V110.985H571.441V109.687ZM568.938 103.337C570.998 103.337 572.464 105.245 572.464 108.252C572.464 111.26 570.998 113.183 568.938 113.183C566.877 113.183 565.411 111.26 565.411 108.252C565.411 105.245 566.877 103.337 568.938 103.337ZM568.938 104.787C567.747 104.787 566.922 106.085 566.922 108.252C566.922 110.435 567.747 111.748 568.938 111.748C570.144 111.748 570.953 110.435 570.953 108.252C570.953 106.085 570.144 104.787 568.938 104.787ZM575.166 102.299H576.754V116.282H575.166V102.299ZM592.532 102.314H594.135V116.298H592.532V102.314ZM583.525 111.55H584.685C587.524 111.55 589.249 111.474 591.234 111.107L591.387 112.435C589.372 112.817 587.57 112.893 584.685 112.893H583.525V111.55ZM583.525 103.596H590.165V104.909H585.112V112.054H583.525V103.596ZM599.996 104.405H601.263V106.359C601.263 109.367 599.69 112.451 597.339 113.611L596.423 112.344C598.561 111.321 599.996 108.695 599.996 106.359V104.405ZM600.316 104.405H601.583V106.359C601.583 108.527 602.942 111 605.079 111.993L604.178 113.26C601.827 112.13 600.316 109.214 600.316 106.359V104.405ZM596.942 103.703H604.53V105.031H596.942V103.703ZM605.904 102.314H607.506V116.267H605.904V102.314ZM607.14 107.81H609.674V109.138H607.14V107.81ZM620.634 102.329H622.237V112.435H620.634V102.329ZM613.123 114.695H622.634V115.992H613.123V114.695ZM613.123 111.412H614.726V115.183H613.123V111.412ZM614.711 103.26C616.818 103.26 618.405 104.695 618.405 106.741C618.405 108.756 616.818 110.222 614.711 110.222C612.604 110.222 611.001 108.756 611.001 106.741C611.001 104.695 612.604 103.26 614.711 103.26ZM614.711 104.634C613.49 104.634 612.558 105.459 612.558 106.741C612.558 107.993 613.49 108.817 614.711 108.817C615.932 108.817 616.848 107.993 616.848 106.741C616.848 105.459 615.932 104.634 614.711 104.634ZM631.075 102.528C634.204 102.528 636.052 103.383 636.052 104.94C636.052 106.482 634.204 107.336 631.075 107.336C627.945 107.336 626.113 106.482 626.113 104.94C626.113 103.383 627.945 102.528 631.075 102.528ZM631.075 103.718C628.922 103.718 627.762 104.146 627.762 104.94C627.762 105.734 628.922 106.146 631.075 106.146C633.243 106.146 634.388 105.734 634.388 104.94C634.388 104.146 633.243 103.718 631.075 103.718ZM624.77 108.146H637.38V109.413H624.77V108.146ZM626.266 110.435H635.807V113.763H627.869V115.26H626.281V112.634H634.235V111.626H626.266V110.435ZM626.281 114.908H636.204V116.145H626.281V114.908ZM652.593 102.314H654.119V116.267H652.593V102.314ZM650.547 107.764H653.066V109.062H650.547V107.764ZM646.7 104.07H648.242C648.242 107.81 647.036 111.077 643.097 113.336L642.166 112.206C645.525 110.283 646.7 107.672 646.7 104.39V104.07ZM642.777 104.07H647.204V105.367H642.777V104.07ZM649.494 102.68H651.005V115.611H649.494V102.68ZM663.43 105.459H666.82V106.772H663.43V105.459ZM659.66 103.169H660.942V104.787C660.942 107.55 659.568 109.886 657.11 110.832L656.271 109.581C658.438 108.802 659.66 106.848 659.66 104.787V103.169ZM659.98 103.169H661.263V104.818C661.263 106.695 662.438 108.512 664.53 109.26L663.675 110.497C661.324 109.611 659.98 107.382 659.98 104.818V103.169ZM666.255 102.329H667.858V112.695H666.255V102.329ZM658.774 114.695H668.178V115.992H658.774V114.695ZM658.774 111.596H660.377V115.366H658.774V111.596ZM679.627 102.314H681.23V110.451H679.627V102.314ZM680.573 105.779H683.199V107.107H680.573V105.779ZM672.329 111.031H673.902V112.313H679.642V111.031H681.23V116.099H672.329V111.031ZM673.902 113.534V114.832H679.642V113.534H673.902ZM670.36 103.642H678.573V104.924H670.36V103.642ZM674.467 105.443C676.466 105.443 677.84 106.42 677.84 107.901C677.84 109.382 676.466 110.359 674.467 110.359C672.452 110.359 671.078 109.382 671.078 107.901C671.078 106.42 672.452 105.443 674.467 105.443ZM674.467 106.634C673.367 106.634 672.619 107.123 672.619 107.901C672.619 108.695 673.367 109.184 674.467 109.184C675.566 109.184 676.314 108.695 676.314 107.901C676.314 107.123 675.566 106.634 674.467 106.634ZM673.673 102.192H675.26V104.344H673.673V102.192ZM694.311 102.314H695.899V116.267H694.311V102.314ZM685.197 103.657H686.785V112.313H685.197V103.657ZM685.197 111.367H686.388C688.464 111.367 690.693 111.214 693.029 110.741L693.212 112.084C690.8 112.588 688.556 112.741 686.388 112.741H685.197V111.367ZM707.637 102.299H709.24V116.282H707.637V102.299ZM708.874 107.657H711.408V108.985H708.874V107.657ZM698.997 111.535H700.127C702.6 111.535 704.432 111.443 706.492 111.061L706.66 112.405C704.523 112.786 702.661 112.863 700.127 112.863H698.997V111.535ZM698.997 103.627H705.485V104.924H700.584V112.145H698.997V103.627ZM714.048 115.214C713.376 115.214 712.872 114.695 712.872 113.977C712.872 113.244 713.376 112.741 714.048 112.741C714.704 112.741 715.223 113.244 715.223 113.977C715.223 114.695 714.704 115.214 714.048 115.214Z" fill="#757575"/>
</g>
<defs>
<filter id="filter0_d_554_285" x="0" y="0" width="809.001" height="183" filterUnits="userSpaceOnUse" color-interpolation-filters="sRGB">
<feFlood flood-opacity="0" result="BackgroundImageFix"/>
<feColorMatrix in="SourceAlpha" type="matrix" values="0 0 0 0 0 0 0 0 0 0 0 0 0 0 0 0 0 0 127 0" result="hardAlpha"/>
<feOffset dx="4" dy="4"/>
<feGaussianBlur stdDeviation="10"/>
<feComposite in2="hardAlpha" operator="out"/>
<feColorMatrix type="matrix" values="0 0 0 0 0.313726 0 0 0 0 0.607843 0 0 0 0 0.972549 0 0 0 1 0"/>
<feBlend mode="normal" in2="BackgroundImageFix" result="effect1_dropShadow_554_285"/>
<feBlend mode="normal" in="SourceGraphic" in2="effect1_dropShadow_554_285" result="shape"/>
</filter>
</defs>
</svg>
