<svg width="730" height="351" viewBox="0 0 730 351" fill="none" xmlns="http://www.w3.org/2000/svg">
<mask id="path-1-inside-1_554_266" fill="white">
<path d="M0.000976562 226H729.601V288.069H0.000976562V226Z"/>
</mask>
<path d="M0.000976562 226H729.601V288.069H0.000976562V226Z" fill="#FEFEFE"/>
<path d="M729.601 288.069V288.69H730.222V288.069H729.601ZM0.000976562 288.069H-0.619713V288.69H0.000976562V288.069ZM728.98 226V288.069H730.222V226H728.98ZM729.601 287.448H0.000976562V288.69H729.601V287.448ZM0.621666 288.069V226H-0.619713V288.069H0.621666Z" fill="#C4C4C4" mask="url(#path-1-inside-1_554_266)"/>
<path d="M684.58 253.311L689.473 260.759L694.367 253.311" stroke="#757575" stroke-width="1.24138" stroke-linecap="round"/>
<path d="M18.3889 255.622H19.6923V266.993H18.3889V255.622ZM11.0648 263.132H12.0082C14.3172 263.132 15.7199 263.07 17.3337 262.772L17.4579 263.852C15.8192 264.162 14.3544 264.224 12.0082 264.224H11.0648V263.132ZM11.0648 256.664H16.4648V257.732H12.3558V263.542H11.0648V256.664ZM24.4583 257.322H25.4886V258.911C25.4886 261.357 24.21 263.864 22.2983 264.808L21.5534 263.777C23.2914 262.946 24.4583 260.811 24.4583 258.911V257.322ZM24.719 257.322H25.7493V258.911C25.7493 260.674 26.8541 262.685 28.5921 263.492L27.8596 264.522C25.9479 263.604 24.719 261.233 24.719 258.911V257.322ZM21.9755 256.751H28.1452V257.831H21.9755V256.751ZM29.2624 255.622H30.5659V266.968H29.2624V255.622ZM30.2679 260.091H32.3286V261.171H30.2679V260.091ZM41.2407 255.634H42.5442V263.852H41.2407V255.634ZM35.1332 265.689H42.867V266.744H35.1332V265.689ZM35.1332 263.02H36.4366V266.086H35.1332V263.02ZM36.4242 256.391C38.1373 256.391 39.4283 257.558 39.4283 259.222C39.4283 260.86 38.1373 262.052 36.4242 262.052C34.7111 262.052 33.4076 260.86 33.4076 259.222C33.4076 257.558 34.7111 256.391 36.4242 256.391ZM36.4242 257.509C35.4311 257.509 34.6739 258.179 34.6739 259.222C34.6739 260.24 35.4311 260.91 36.4242 260.91C37.4173 260.91 38.1621 260.24 38.1621 259.222C38.1621 258.179 37.4173 257.509 36.4242 257.509ZM47.4046 264.485H57.6832V265.553H47.4046V264.485ZM51.8363 261.841H53.1273V264.808H51.8363V261.841ZM51.7991 256.317H52.9287V257.173C52.9287 259.594 50.8556 261.568 48.2735 262.077L47.7273 260.997C49.9867 260.612 51.7991 258.911 51.7991 257.173V256.317ZM52.0349 256.317H53.177V257.173C53.177 258.936 54.9894 260.612 57.2487 260.997L56.7025 262.077C54.108 261.568 52.0349 259.606 52.0349 257.173V256.317ZM58.8243 264.497H69.1029V265.577H58.8243V264.497ZM59.6684 256.689H68.1843V257.744H59.6684V256.689ZM59.7057 261.431H68.1595V262.486H59.7057V261.431ZM61.3319 257.657H62.6353V261.543H61.3319V257.657ZM65.2298 257.657H66.5209V261.543H65.2298V257.657ZM71.5102 261.617H79.3806V262.648H71.5102V261.617ZM70.244 264.51H80.5226V265.577H70.244V264.51ZM71.5102 256.528H79.2689V257.583H72.8261V261.915H71.5102V256.528ZM72.4164 259.048H79.0206V260.066H72.4164V259.048ZM84.4941 256.304C85.9341 256.304 86.9769 257.173 86.9769 258.427C86.9769 259.669 85.9341 260.537 84.4941 260.537C83.0541 260.537 82.0113 259.669 82.0113 258.427C82.0113 257.173 83.0541 256.304 84.4941 256.304ZM84.4941 257.285C83.712 257.285 83.1658 257.732 83.1658 258.427C83.1658 259.11 83.712 259.569 84.4941 259.569C85.2637 259.569 85.8224 259.11 85.8224 258.427C85.8224 257.732 85.2637 257.285 84.4941 257.285ZM90.1548 255.622H91.3962V266.968H90.1548V255.622ZM87.97 255.845H89.1865V266.409H87.97V255.845ZM85.9962 262.995H88.3796V264.001H85.9962V262.995ZM83.8362 261.829H85.0775V266.062H83.8362V261.829ZM81.6513 262.362L81.49 261.295C83.0293 261.295 85.4996 261.27 87.312 261.009L87.4113 261.965C85.5244 262.337 83.1658 262.362 81.6513 262.362ZM96.1373 256.453C97.8131 256.453 99.0048 258.005 99.0048 260.451C99.0048 262.896 97.8131 264.46 96.1373 264.46C94.4614 264.46 93.2697 262.896 93.2697 260.451C93.2697 258.005 94.4614 256.453 96.1373 256.453ZM96.1373 257.633C95.169 257.633 94.511 258.688 94.511 260.451C94.511 262.226 95.169 263.293 96.1373 263.293C97.1179 263.293 97.7759 262.226 97.7759 260.451C97.7759 258.688 97.1179 257.633 96.1373 257.633ZM101.202 255.609H102.493V266.98H101.202V255.609ZM98.6076 259.842H101.761V260.885H98.6076V259.842ZM112.945 260.041H114.993V261.121H112.945V260.041ZM111.989 255.609H113.292V266.955H111.989V255.609ZM104.9 256.714H106.191V263.753H104.9V256.714ZM104.9 263.045H105.831C107.482 263.045 109.22 262.933 111.07 262.561L111.219 263.629C109.307 264.026 107.532 264.137 105.831 264.137H104.9V263.045ZM119.965 260.811H127.835V261.866H119.965V260.811ZM118.711 264.535H128.99V265.615H118.711V264.535ZM123.18 261.282H124.471V264.92H123.18V261.282ZM119.965 256.466H127.736V257.521H121.256V261.27H119.965V256.466ZM131.36 256.329H138.461V257.36H131.36V256.329ZM130.131 261.171H140.385V262.238H130.131V261.171ZM134.563 261.903H135.866V266.98H134.563V261.903ZM137.815 256.329H139.094V257.322C139.094 258.526 139.094 259.867 138.659 261.829L137.381 261.667C137.815 259.805 137.815 258.477 137.815 257.322V256.329ZM148.808 261.307H150.099V263.293H148.808V261.307ZM144.326 260.86H154.58V261.903H144.326V260.86ZM149.441 262.921C151.874 262.921 153.351 263.641 153.351 264.944C153.351 266.223 151.874 266.955 149.441 266.955C146.995 266.955 145.531 266.223 145.531 264.944C145.531 263.641 146.995 262.921 149.441 262.921ZM149.441 263.914C147.777 263.914 146.846 264.262 146.846 264.944C146.846 265.602 147.777 265.962 149.441 265.962C151.104 265.962 152.035 265.602 152.035 264.944C152.035 264.262 151.104 263.914 149.441 263.914ZM148.584 256.615H149.739V256.925C149.739 258.7 147.902 260.004 145.295 260.289L144.848 259.259C147.07 259.048 148.584 258.03 148.584 256.925V256.615ZM149.18 256.615H150.322V256.925C150.322 258.042 151.837 259.048 154.071 259.259L153.612 260.289C151.017 260.004 149.18 258.7 149.18 256.925V256.615ZM145.27 256.118H153.662V257.161H145.27V256.118ZM160.327 259.929H162.338V260.984H160.327V259.929ZM164.2 255.622H165.441V266.968H164.2V255.622ZM161.916 255.833H163.145V266.422H161.916V255.833ZM158.303 256.503C159.793 256.503 160.749 258.042 160.749 260.525C160.749 263.02 159.793 264.56 158.303 264.56C156.826 264.56 155.87 263.02 155.87 260.525C155.87 258.042 156.826 256.503 158.303 256.503ZM158.303 257.72C157.534 257.72 157.062 258.737 157.062 260.525C157.062 262.313 157.534 263.331 158.303 263.331C159.085 263.331 159.557 262.313 159.557 260.525C159.557 258.737 159.085 257.72 158.303 257.72ZM169.954 260.351H180.208V261.382H169.954V260.351ZM171.171 262.226H178.929V264.957H172.474V266.173H171.183V264.038H177.651V263.194H171.171V262.226ZM171.183 265.875H179.252V266.869H171.183V265.875ZM174.324 256.441H175.453V256.776C175.453 258.464 173.554 259.669 170.873 259.892L170.463 258.911C172.772 258.725 174.324 257.819 174.324 256.776V256.441ZM174.721 256.441H175.851V256.776C175.851 257.819 177.39 258.725 179.711 258.911L179.302 259.892C176.62 259.669 174.721 258.477 174.721 256.776V256.441ZM170.898 256.019H179.289V257.037H170.898V256.019ZM185.83 256.826H187.109C187.109 260.14 185.781 263.033 182.007 264.907L181.324 263.889C184.452 262.313 185.83 260.053 185.83 257.049V256.826ZM181.833 256.826H186.501V257.869H181.833V256.826ZM189.48 255.609H190.771V266.955H189.48V255.609ZM186.675 258.638H189.704V259.681H186.675V258.638ZM186.55 261.704H189.579V262.76H186.55V261.704ZM198.263 256.553H199.318V258.415C199.318 261.059 198.139 263.591 196.19 264.584L195.396 263.542C197.158 262.685 198.263 260.513 198.263 258.415V256.553ZM198.511 256.553H199.554V258.415C199.554 260.438 200.622 262.499 202.323 263.343L201.528 264.373C199.641 263.393 198.511 260.972 198.511 258.415V256.553ZM203.08 255.622H204.383V266.968H203.08V255.622ZM204.085 260.115H206.146V261.195H204.085V260.115ZM209.435 259.445H210.726V261.555H209.435V259.445ZM213.519 259.445H214.81V261.555H213.519V259.445ZM207.002 261.133H217.255V262.164H207.002V261.133ZM212.116 262.896C214.549 262.896 216.026 263.629 216.026 264.92C216.026 266.223 214.549 266.955 212.116 266.955C209.671 266.955 208.206 266.223 208.206 264.92C208.206 263.629 209.671 262.896 212.116 262.896ZM212.116 263.889C210.453 263.889 209.522 264.249 209.522 264.92C209.522 265.602 210.453 265.962 212.116 265.962C213.779 265.962 214.711 265.602 214.711 264.92C214.711 264.249 213.779 263.889 212.116 263.889ZM212.128 255.808C214.611 255.808 216.175 256.615 216.175 257.955C216.175 259.296 214.611 260.078 212.128 260.078C209.646 260.078 208.094 259.296 208.094 257.955C208.094 256.615 209.646 255.808 212.128 255.808ZM212.128 256.813C210.44 256.813 209.435 257.211 209.435 257.955C209.435 258.688 210.44 259.085 212.128 259.085C213.829 259.085 214.835 258.688 214.835 257.955C214.835 257.211 213.829 256.813 212.128 256.813ZM225.932 255.622H227.223V266.968H225.932V255.622ZM226.925 260.177H228.985V261.257H226.925V260.177ZM218.372 257.372H225.025V258.415H218.372V257.372ZM221.736 259.234C223.35 259.234 224.541 260.326 224.541 261.878C224.541 263.442 223.35 264.535 221.736 264.535C220.11 264.535 218.918 263.442 218.918 261.878C218.918 260.326 220.11 259.234 221.736 259.234ZM221.736 260.302C220.817 260.302 220.159 260.922 220.159 261.878C220.159 262.834 220.817 263.467 221.736 263.467C222.642 263.467 223.3 262.834 223.3 261.878C223.3 260.922 222.642 260.302 221.736 260.302ZM221.065 255.783H222.369V257.806H221.065V255.783ZM231.182 258.874H238.953V259.917H231.182V258.874ZM229.841 261.282H240.12V262.337H229.841V261.282ZM231.182 256.031H232.473V259.395H231.182V256.031ZM231.095 265.652H239.015V266.707H231.095V265.652ZM231.095 263.368H232.386V265.938H231.095V263.368ZM252.155 255.622H253.459V263.231H252.155V255.622ZM249.933 258.737H252.379V259.793H249.933V258.737ZM248.518 256.503H249.883C249.883 259.507 248.096 261.555 244.769 262.623L244.223 261.605C247.078 260.724 248.518 259.122 248.518 257.049V256.503ZM244.781 256.503H249.461V257.546H244.781V256.503ZM249.077 262.325H250.181V262.772C250.181 264.907 248.406 266.471 245.911 266.943L245.402 265.913C247.587 265.54 249.077 264.262 249.077 262.772V262.325ZM249.263 262.325H250.368V262.772C250.368 264.249 251.845 265.528 254.03 265.888L253.508 266.918C251.026 266.459 249.263 264.895 249.263 262.772V262.325ZM263.513 255.609H264.816V266.98H263.513V255.609ZM258.771 256.453C260.471 256.453 261.7 258.005 261.7 260.451C261.7 262.896 260.471 264.46 258.771 264.46C257.082 264.46 255.854 262.896 255.854 260.451C255.854 258.005 257.082 256.453 258.771 256.453ZM258.771 257.633C257.778 257.633 257.095 258.688 257.095 260.451C257.095 262.226 257.778 263.293 258.771 263.293C259.764 263.293 260.447 262.226 260.447 260.451C260.447 258.688 259.764 257.633 258.771 257.633ZM272.383 262.561H273.376V263.07C273.376 264.659 272.519 266.186 270.819 266.806L270.186 265.851C271.638 265.342 272.383 264.162 272.383 263.07V262.561ZM272.693 262.561H273.637V263.07C273.637 264.187 274.27 265.379 275.635 265.938L275.101 266.918C273.388 266.26 272.693 264.646 272.693 263.07V262.561ZM276.554 262.561H277.497V263.07C277.497 264.51 276.777 266.223 275.101 266.918L274.568 265.938C275.921 265.329 276.554 264.063 276.554 263.07V262.561ZM276.839 262.561H277.833V263.07C277.833 264.237 278.565 265.379 280.03 265.851L279.397 266.806C277.671 266.211 276.839 264.733 276.839 263.07V262.561ZM277.733 255.634H279.037V262.077H277.733V255.634ZM272.917 256.255C274.655 256.255 275.921 257.347 275.921 258.936C275.921 260.5 274.655 261.605 272.917 261.605C271.179 261.605 269.9 260.5 269.9 258.936C269.9 257.347 271.179 256.255 272.917 256.255ZM272.917 257.335C271.911 257.335 271.166 257.968 271.166 258.936C271.166 259.904 271.911 260.525 272.917 260.525C273.922 260.525 274.655 259.904 274.655 258.936C274.655 257.968 273.922 257.335 272.917 257.335ZM289.55 260.041H291.598V261.121H289.55V260.041ZM288.594 255.609H289.898V266.955H288.594V255.609ZM281.506 256.714H282.797V263.753H281.506V256.714ZM281.506 263.045H282.437C284.088 263.045 285.826 262.933 287.676 262.561L287.825 263.629C285.913 264.026 284.138 264.137 282.437 264.137H281.506V263.045ZM294.924 261.431H296.215V264.721H294.924V261.431ZM299.083 261.431H300.386V264.721H299.083V261.431ZM292.529 264.51H302.807V265.577H292.529V264.51ZM297.643 256.267C300.064 256.267 301.814 257.434 301.814 259.246C301.814 261.046 300.064 262.213 297.643 262.213C295.222 262.213 293.472 261.046 293.472 259.246C293.472 257.434 295.222 256.267 297.643 256.267ZM297.643 257.285C295.93 257.285 294.738 258.042 294.738 259.246C294.738 260.438 295.93 261.195 297.643 261.195C299.356 261.195 300.548 260.438 300.548 259.246C300.548 258.042 299.356 257.285 297.643 257.285ZM305.574 263.033C305.277 260.935 307.449 260.14 307.449 258.8C307.449 258.104 307.014 257.595 306.232 257.595C305.649 257.595 305.14 257.881 304.718 258.353L303.911 257.608C304.519 256.913 305.351 256.416 306.394 256.416C307.846 256.416 308.839 257.235 308.839 258.7C308.839 260.5 306.63 261.171 306.841 263.033H305.574ZM306.232 266.111C305.686 266.111 305.277 265.689 305.277 265.106C305.277 264.51 305.686 264.1 306.232 264.1C306.766 264.1 307.188 264.51 307.188 265.106C307.188 265.689 306.766 266.111 306.232 266.111Z" fill="#757575"/>
<mask id="path-5-inside-2_554_266" fill="white">
<path d="M0.000976562 288.069H729.601V350.138H0.000976562V288.069Z"/>
</mask>
<path d="M0.000976562 288.069H729.601V350.138H0.000976562V288.069Z" fill="#FEFEFE"/>
<path d="M729.601 350.138V350.759H730.222V350.138H729.601ZM0.000976562 350.138H-0.619713V350.759H0.000976562V350.138ZM728.98 288.069V350.138H730.222V288.069H728.98ZM729.601 349.518H0.000976562V350.759H729.601V349.518ZM0.621666 350.138V288.069H-0.619713V350.138H0.621666Z" fill="#C4C4C4" mask="url(#path-5-inside-2_554_266)"/>
<path d="M684.58 315.38L689.473 322.828L694.367 315.38" stroke="#757575" stroke-width="1.24138" stroke-linecap="round"/>
<path d="M10.9779 323.539V314.403H12.4303V323.539H10.9779ZM16.6707 323.539V315.619H13.9894V314.403H20.8045V315.619H18.1232V323.539H16.6707ZM25.8313 319.219H33.7017V320.249H25.8313V319.219ZM24.5651 322.111H34.8438V323.179H24.5651V322.111ZM25.8313 314.129H33.59V315.185H27.1472V319.517H25.8313V314.129ZM26.7376 316.649H33.3417V317.667H26.7376V316.649ZM36.469 319.045H37.2138C38.8152 319.045 39.9324 319.008 41.2483 318.76L41.3724 319.778C40.0193 320.038 38.8649 320.088 37.2138 320.088H36.469V319.045ZM36.4442 314.117H40.4538V317.543H37.7228V319.529H36.469V316.563H39.1876V315.135H36.4442V314.117ZM40.8759 316.227H42.9862V317.283H40.8759V316.227ZM44.3518 313.223H45.5807V321.751H44.3518V313.223ZM42.0924 313.434H43.3214V321.478H42.0924V313.434ZM38.0828 323.291H45.9035V324.346H38.0828V323.291ZM38.0828 320.92H39.3862V324.023H38.0828V320.92ZM48.6584 318.574H56.5287V319.616H48.6584V318.574ZM47.4046 322.037H57.6832V323.105H47.4046V322.037ZM48.6584 314.216H56.4294V315.284H49.9494V319.02H48.6584V314.216ZM61.5429 318.958H62.8464V321.652H61.5429V318.958ZM62.1884 313.931C63.9264 313.931 65.2174 315.048 65.2174 316.649C65.2174 318.251 63.9264 319.368 62.1884 319.368C60.4257 319.368 59.1471 318.251 59.1471 316.649C59.1471 315.048 60.4257 313.931 62.1884 313.931ZM62.1884 315.036C61.1581 315.036 60.4133 315.669 60.4133 316.649C60.4133 317.63 61.1581 318.263 62.1884 318.263C63.2064 318.263 63.9512 317.63 63.9512 316.649C63.9512 315.669 63.2064 315.036 62.1884 315.036ZM66.3346 313.223H67.6381V324.569H66.3346V313.223ZM67.2533 317.791H69.3015V318.871H67.2533V317.791ZM58.8615 322.198L58.6878 321.143C60.6988 321.131 63.3926 321.131 65.6767 320.82L65.776 321.776C63.405 322.198 60.8105 322.211 58.8615 322.198ZM76.1233 319.294H77.4268V321.702H76.1233V319.294ZM76.1109 315.284H77.1537V315.532C77.1537 317.481 75.9868 319.07 73.9633 319.654L73.3799 318.648C75.1178 318.164 76.1109 316.923 76.1109 315.532V315.284ZM76.384 315.284H77.4268V315.532C77.4268 316.873 78.4447 318.065 80.1826 318.536L79.5992 319.542C77.5757 318.983 76.384 317.419 76.384 315.532V315.284ZM73.6778 314.638H79.8971V315.681H73.6778V314.638ZM76.1233 313.31H77.4268V315.098H76.1233V313.31ZM81.064 313.211H82.3675V324.582H81.064V313.211ZM73.2433 322.347L73.0819 321.28C75.1054 321.28 77.9357 321.255 80.3812 320.895L80.4806 321.851C77.973 322.323 75.2419 322.335 73.2433 322.347ZM92.4961 313.236H93.7996V321.528H92.4961V313.236ZM86.3886 323.291H94.1223V324.346H86.3886V323.291ZM86.3886 320.746H87.692V323.812H86.3886V320.746ZM87.2699 313.856H88.3499V314.986C88.3499 317.196 87.1954 319.182 85.1596 319.951L84.4892 318.909C86.2892 318.251 87.2699 316.625 87.2699 314.986V313.856ZM87.5182 313.856H88.5858V314.986C88.5858 316.587 89.5665 318.102 91.3292 318.71L90.6589 319.74C88.6603 319.02 87.5182 317.158 87.5182 314.986V313.856ZM106.692 313.223H107.995V324.594H106.692V313.223ZM99.3676 320.734H100.311C102.62 320.734 104.023 320.671 105.637 320.374L105.761 321.454C104.122 321.764 102.657 321.826 100.311 321.826H99.3676V320.734ZM99.3676 314.266H104.768V315.334H100.659V321.143H99.3676V314.266ZM112.761 314.924H113.791V316.513C113.791 318.958 112.513 321.466 110.601 322.409L109.856 321.379C111.594 320.547 112.761 318.412 112.761 316.513V314.924ZM113.022 314.924H114.052V316.513C114.052 318.276 115.157 320.287 116.895 321.094L116.162 322.124C114.251 321.205 113.022 318.834 113.022 316.513V314.924ZM110.278 314.353H116.448V315.433H110.278V314.353ZM117.565 313.223H118.869V324.569H117.565V313.223ZM118.571 317.692H120.631V318.772H118.571V317.692ZM129.544 313.236H130.847V321.454H129.544V313.236ZM123.436 323.291H131.17V324.346H123.436V323.291ZM123.436 320.622H124.739V323.688H123.436V320.622ZM124.727 313.993C126.44 313.993 127.731 315.16 127.731 316.823C127.731 318.462 126.44 319.654 124.727 319.654C123.014 319.654 121.71 318.462 121.71 316.823C121.71 315.16 123.014 313.993 124.727 313.993ZM124.727 315.11C123.734 315.11 122.977 315.78 122.977 316.823C122.977 317.841 123.734 318.511 124.727 318.511C125.72 318.511 126.465 317.841 126.465 316.823C126.465 315.78 125.72 315.11 124.727 315.11ZM136.974 319.219H144.844V320.249H136.974V319.219ZM135.707 322.111H145.986V323.179H135.707V322.111ZM136.974 314.129H144.732V315.185H138.289V319.517H136.974V314.129ZM137.88 316.649H144.484V317.667H137.88V316.649ZM147.611 319.045H148.356C149.957 319.045 151.075 319.008 152.391 318.76L152.515 319.778C151.162 320.038 150.007 320.088 148.356 320.088H147.611V319.045ZM147.586 314.117H151.596V317.543H148.865V319.529H147.611V316.563H150.33V315.135H147.586V314.117ZM152.018 316.227H154.128V317.283H152.018V316.227ZM155.494 313.223H156.723V321.751H155.494V313.223ZM153.235 313.434H154.464V321.478H153.235V313.434ZM149.225 323.291H157.046V324.346H149.225V323.291ZM149.225 320.92H150.528V324.023H149.225V320.92ZM159.801 318.574H167.671V319.616H159.801V318.574ZM158.547 322.037H168.825V323.105H158.547V322.037ZM159.801 314.216H167.572V315.284H161.092V319.02H159.801V314.216ZM174.535 317.531H176.546V318.586H174.535V317.531ZM178.408 313.223H179.649V324.569H178.408V313.223ZM176.124 313.434H177.353V324.023H176.124V313.434ZM172.511 314.105C174.001 314.105 174.957 315.644 174.957 318.127C174.957 320.622 174.001 322.161 172.511 322.161C171.034 322.161 170.078 320.622 170.078 318.127C170.078 315.644 171.034 314.105 172.511 314.105ZM172.511 315.321C171.742 315.321 171.27 316.339 171.27 318.127C171.27 319.914 171.742 320.932 172.511 320.932C173.293 320.932 173.765 319.914 173.765 318.127C173.765 316.339 173.293 315.321 172.511 315.321ZM187.228 314.055C188.904 314.055 190.096 315.607 190.096 318.052C190.096 320.498 188.904 322.062 187.228 322.062C185.552 322.062 184.361 320.498 184.361 318.052C184.361 315.607 185.552 314.055 187.228 314.055ZM187.228 315.234C186.26 315.234 185.602 316.289 185.602 318.052C185.602 319.827 186.26 320.895 187.228 320.895C188.209 320.895 188.867 319.827 188.867 318.052C188.867 316.289 188.209 315.234 187.228 315.234ZM192.293 313.211H193.584V324.582H192.293V313.211ZM189.699 317.444H192.852V318.487H189.699V317.444ZM197.084 319.914H205.277V320.907H197.084V319.914ZM201.168 321.354C203.216 321.354 204.433 321.925 204.433 322.968C204.433 323.998 203.216 324.569 201.168 324.569C199.132 324.569 197.916 323.998 197.916 322.968C197.916 321.925 199.132 321.354 201.168 321.354ZM201.168 322.26C199.976 322.26 199.294 322.496 199.294 322.968C199.294 323.44 199.976 323.676 201.168 323.676C202.36 323.676 203.043 323.44 203.043 322.968C203.043 322.496 202.36 322.26 201.168 322.26ZM200.535 318.921H201.838V320.56H200.535V318.921ZM195.83 317.481H196.351C197.134 317.481 197.916 317.456 198.847 317.258L198.958 318.288C197.965 318.487 197.183 318.499 196.351 318.499H195.83V317.481ZM195.83 313.732H198.71V314.75H197.109V318.201H195.83V313.732ZM199.306 317.481H199.889C201.193 317.481 201.925 317.456 202.807 317.245L202.906 318.263C202 318.474 201.243 318.499 199.889 318.499H199.306V317.481ZM199.306 313.732H202.447V314.75H200.585V318.201H199.306V313.732ZM203.812 313.223H205.103V319.256H203.812V313.223ZM202.037 315.507H204.532V316.5H202.037V315.507ZM215.455 313.223H216.709V324.569H215.455V313.223ZM210.726 317.729H213.395V318.772H210.726V317.729ZM213.084 313.496H214.301V324.023H213.084V313.496ZM210.639 314.614H211.893C211.893 317.705 210.8 320.336 207.684 322.161L206.939 321.243C209.571 319.666 210.639 317.568 210.639 314.862V314.614ZM207.498 314.614H211.086V315.669H207.498V314.614ZM229.651 313.223H230.892V324.569H229.651V313.223ZM227.913 317.692H229.961V318.747H227.913V317.692ZM227.094 313.447H228.298V324.011H227.094V313.447ZM221.582 320.796H222.352C223.891 320.796 225.033 320.746 226.361 320.485L226.473 321.553C225.107 321.826 223.941 321.876 222.352 321.876H221.582V320.796ZM221.582 314.576H225.79V315.631H222.873V321.305H221.582V314.576ZM232.629 318.636H242.883V319.678H232.629V318.636ZM237.744 320.473C240.177 320.473 241.654 321.205 241.654 322.521C241.654 323.837 240.177 324.569 237.744 324.569C235.298 324.569 233.833 323.837 233.833 322.521C233.833 321.205 235.298 320.473 237.744 320.473ZM237.744 321.466C236.08 321.466 235.149 321.838 235.149 322.521C235.149 323.216 236.08 323.576 237.744 323.576C239.407 323.576 240.338 323.216 240.338 322.521C240.338 321.838 239.407 321.466 237.744 321.466ZM237.756 313.484C240.226 313.484 241.803 314.316 241.803 315.681C241.803 317.047 240.226 317.866 237.756 317.866C235.286 317.866 233.722 317.047 233.722 315.681C233.722 314.316 235.286 313.484 237.756 313.484ZM237.756 314.502C236.068 314.502 235.062 314.924 235.062 315.681C235.062 316.438 236.068 316.848 237.756 316.848C239.444 316.848 240.462 316.438 240.462 315.681C240.462 314.924 239.444 314.502 237.756 314.502ZM251.559 313.223H252.85V324.569H251.559V313.223ZM252.552 317.779H254.613V318.859H252.552V317.779ZM243.999 314.974H250.653V316.016H243.999V314.974ZM247.363 316.836C248.977 316.836 250.169 317.928 250.169 319.48C250.169 321.044 248.977 322.136 247.363 322.136C245.737 322.136 244.546 321.044 244.546 319.48C244.546 317.928 245.737 316.836 247.363 316.836ZM247.363 317.903C246.445 317.903 245.787 318.524 245.787 319.48C245.787 320.436 246.445 321.069 247.363 321.069C248.27 321.069 248.928 320.436 248.928 319.48C248.928 318.524 248.27 317.903 247.363 317.903ZM246.693 313.385H247.997V315.408H246.693V313.385ZM263.922 317.643H265.971V318.723H263.922V317.643ZM262.967 313.211H264.27V324.557H262.967V313.211ZM255.878 314.316H257.169V321.354H255.878V314.316ZM255.878 320.647H256.809C258.46 320.647 260.198 320.535 262.048 320.163L262.197 321.23C260.285 321.627 258.51 321.739 256.809 321.739H255.878V320.647ZM269.297 319.033H270.588V322.323H269.297V319.033ZM273.455 319.033H274.759V322.323H273.455V319.033ZM266.901 322.111H277.179V323.179H266.901V322.111ZM272.015 313.869C274.436 313.869 276.186 315.036 276.186 316.848C276.186 318.648 274.436 319.815 272.015 319.815C269.595 319.815 267.844 318.648 267.844 316.848C267.844 315.036 269.595 313.869 272.015 313.869ZM272.015 314.887C270.302 314.887 269.11 315.644 269.11 316.848C269.11 318.04 270.302 318.797 272.015 318.797C273.728 318.797 274.92 318.04 274.92 316.848C274.92 315.644 273.728 314.887 272.015 314.887ZM279.947 320.634C279.649 318.536 281.821 317.742 281.821 316.401C281.821 315.706 281.387 315.197 280.605 315.197C280.021 315.197 279.512 315.483 279.09 315.954L278.283 315.209C278.892 314.514 279.723 314.018 280.766 314.018C282.218 314.018 283.212 314.837 283.212 316.302C283.212 318.102 281.002 318.772 281.213 320.634H279.947ZM280.605 323.713C280.058 323.713 279.649 323.291 279.649 322.707C279.649 322.111 280.058 321.702 280.605 321.702C281.138 321.702 281.561 322.111 281.561 322.707C281.561 323.291 281.138 323.713 280.605 323.713Z" fill="#757575"/>
<mask id="path-9-inside-3_554_266" fill="white">
<path d="M0.000976562 0H729.601V226H0.000976562V0Z"/>
</mask>
<path d="M0.000976562 0H729.601V226H0.000976562V0Z" fill="#FEFEFE"/>
<path d="M0.000976562 0V-0.62069H-0.619713V0H0.000976562ZM729.601 0H730.222V-0.62069H729.601V0ZM729.601 226V226.621H730.222V226H729.601ZM0.000976562 226H-0.619713V226.621H0.000976562V226ZM0.000976562 0.62069H729.601V-0.62069H0.000976562V0.62069ZM728.98 0V226H730.222V0H728.98ZM729.601 225.379H0.000976562V226.621H729.601V225.379ZM0.621666 226V0H-0.619713V226H0.621666Z" fill="#C4C4C4" mask="url(#path-9-inside-3_554_266)"/>
<path d="M28.1606 27.5316H30.1568V41.3705H28.1606V27.5316ZM19.5355 36.4248H20.7273C23.6321 36.4248 25.2707 36.3652 27.1179 36.0226L27.2966 37.6463C25.4346 38.0188 23.6917 38.0783 20.7273 38.0783H19.5355V36.4248ZM19.5355 28.7531H26.1943V30.347H21.5019V37.0505H19.5355V28.7531ZM35.5035 29.7065H37.0676V31.2557C37.0676 34.3691 35.7567 37.5421 33.2243 38.7338L32.1071 37.1697C34.3862 36.0971 35.5035 33.52 35.5035 31.2557V29.7065ZM35.9206 29.7065H37.4847V31.2557C37.4847 33.3412 38.5573 35.7843 40.8215 36.827L39.7341 38.3912C37.2017 37.2143 35.9206 34.1903 35.9206 31.2557V29.7065ZM32.6433 28.8574H40.2108V30.4811H32.6433V28.8574ZM41.2238 27.5316H43.2199V41.3258H41.2238V27.5316ZM42.773 32.7901H45.216V34.4287H42.773V32.7901ZM55.5829 27.5465H57.579V37.4527H55.5829V27.5465ZM48.3878 39.5084H57.9216V41.0874H48.3878V39.5084ZM48.3878 36.4546H50.3691V40.149H48.3878V36.4546ZM50.0711 28.4105C52.1865 28.4105 53.8102 29.8703 53.8102 31.9112C53.8102 33.9371 52.1865 35.4119 50.0711 35.4119C47.9558 35.4119 46.3172 33.9371 46.3172 31.9112C46.3172 29.8703 47.9558 28.4105 50.0711 28.4105ZM50.0711 30.1236C49.0433 30.1236 48.2538 30.779 48.2538 31.9112C48.2538 33.0284 49.0433 33.6839 50.0711 33.6839C51.0841 33.6839 51.8736 33.0284 51.8736 31.9112C51.8736 30.779 51.0841 30.1236 50.0711 30.1236ZM63.2022 38.1081H75.6855V39.7319H63.2022V38.1081ZM64.1556 28.7233H74.6577V30.3023H64.1556V28.7233ZM64.2152 34.4287H74.613V36.0226H64.2152V34.4287ZM66.0326 30.1832H68.0138V34.5777H66.0326V30.1832ZM70.8144 30.1832H72.7807V34.5777H70.8144V30.1832ZM76.9059 38.1975H89.3892V39.8063H76.9059V38.1975ZM82.1346 35.5906H84.1158V38.853H82.1346V35.5906ZM78.3062 28.4254H87.9889V33.0135H80.3023V35.3374H78.336V31.4643H86.0226V29.9895H78.3062V28.4254ZM78.336 34.5479H88.3017V36.1418H78.336V34.5479ZM96.0319 32.1644H98.3111V33.7732H96.0319V32.1644ZM93.0824 28.7233H94.6018V31.0472C94.6018 34.1754 93.7378 37.2292 91.5331 38.5848L90.3414 37.0952C92.3673 35.8439 93.0824 33.3859 93.0824 31.0472V28.7233ZM93.5144 28.7233H95.004V30.9578C95.004 33.2072 95.585 35.5012 97.462 36.7228L96.3894 38.272C94.1996 36.9164 93.5144 33.9371 93.5144 30.9578V28.7233ZM100.56 27.5316H102.452V41.3258H100.56V27.5316ZM97.7599 27.7401H99.6071V40.7001H97.7599V27.7401ZM109.423 28.3211H111.151V29.3192C111.151 32.3134 109.021 34.965 105.445 35.6651L104.596 34.0265C107.71 33.4902 109.423 31.3004 109.423 29.3192V28.3211ZM109.825 28.3211H111.538V29.3192C111.538 31.3451 113.236 33.4902 116.365 34.0265L115.515 35.6651C111.94 34.965 109.825 32.3581 109.825 29.3192V28.3211ZM104.313 38.0337H116.797V39.6425H104.313V38.0337ZM118.002 33.7137H130.5V35.1586H118.002V33.7137ZM119.402 35.8439H129.011V39.1211H121.398V40.2979H119.432V37.8698H127.059V37.1846H119.402V35.8439ZM119.432 39.8808H129.398V41.2215H119.432V39.8808ZM119.536 27.7699H128.981V31.0174H121.518V32.1495H119.551V29.781H127.029V29.0957H119.536V27.7699ZM119.551 31.7324H129.234V33.0731H119.551V31.7324ZM142.127 29.5426H145.523V31.1217H142.127V29.5426ZM144.644 27.5316H146.625V34.533H144.644V27.5316ZM137.509 35.1139H146.625V38.8232H139.49V40.5512H137.539V37.3931H144.659V36.6334H137.509V35.1139ZM137.539 39.6425H147.013V41.1768H137.539V39.6425ZM138.239 27.9785H139.848V28.9617C139.848 31.5686 138.626 33.8179 135.989 34.6521L134.976 33.088C137.27 32.4028 138.239 30.7194 138.239 28.9617V27.9785ZM138.626 27.9785H140.235V28.9617C140.235 30.6003 141.158 32.1942 143.333 32.8497L142.32 34.384C139.803 33.5647 138.626 31.4345 138.626 28.9617V27.9785ZM155.458 29.5277H158.974V31.0919H155.458V29.5277ZM155.458 32.2836H159.033V33.8626H155.458V32.2836ZM158.348 27.5316H160.329V35.6055H158.348V27.5316ZM149.35 28.5297H155.875V34.8607H149.35V28.5297ZM153.924 30.0938H151.302V33.3114H153.924V30.0938ZM155.652 35.963C158.571 35.963 160.374 36.9611 160.374 38.6444C160.374 40.3426 158.571 41.3258 155.652 41.3258C152.732 41.3258 150.929 40.3426 150.929 38.6444C150.929 36.9611 152.732 35.963 155.652 35.963ZM155.652 37.4825C153.864 37.4825 152.911 37.8549 152.911 38.6444C152.911 39.4339 153.864 39.8212 155.652 39.8212C157.454 39.8212 158.407 39.4339 158.407 38.6444C158.407 37.8549 157.454 37.4825 155.652 37.4825ZM162.473 29.6022H169.072V31.1812H162.473V29.6022ZM165.795 31.792C167.553 31.792 168.819 33.1476 168.819 35.0841C168.819 37.0058 167.553 38.3614 165.795 38.3614C164.052 38.3614 162.771 37.0058 162.771 35.0841C162.771 33.1476 164.052 31.792 165.795 31.792ZM165.795 33.4455C165.05 33.4455 164.529 34.0414 164.529 35.0841C164.529 36.1269 165.05 36.7079 165.795 36.7079C166.54 36.7079 167.076 36.1269 167.076 35.0841C167.076 34.0414 166.54 33.4455 165.795 33.4455ZM172.454 27.5316H174.346V41.3258H172.454V27.5316ZM170.8 33.1327H173.079V34.7266H170.8V33.1327ZM169.564 27.7848H171.411V40.7448H169.564V27.7848ZM164.827 27.904H166.778V30.6003H164.827V27.904ZM184.676 29.0659H186.389V29.4681C186.389 31.8963 184.408 33.8775 180.907 34.3542L180.177 32.805C183.216 32.4326 184.676 30.8833 184.676 29.4681V29.0659ZM185.242 29.0659H186.955V29.4681C186.955 30.8833 188.415 32.4326 191.454 32.805L190.739 34.3542C187.223 33.8775 185.242 31.8963 185.242 29.4681V29.0659ZM184.78 36.2759H186.747V41.3407H184.78V36.2759ZM179.582 35.1437H192.05V36.7228H179.582V35.1437ZM180.684 28.2317H190.918V29.7959H180.684V28.2317ZM198.708 32.1644H200.987V33.7732H198.708V32.1644ZM195.758 28.7233H197.277V31.0472C197.277 34.1754 196.413 37.2292 194.209 38.5848L193.017 37.0952C195.043 35.8439 195.758 33.3859 195.758 31.0472V28.7233ZM196.19 28.7233H197.68V30.9578C197.68 33.2072 198.261 35.5012 200.138 36.7228L199.065 38.272C196.875 36.9164 196.19 33.9371 196.19 30.9578V28.7233ZM203.236 27.5316H205.128V41.3258H203.236V27.5316ZM200.436 27.7401H202.283V40.7001H200.436V27.7401ZM209.73 34.533H211.696V38.4061H209.73V34.533ZM214.735 34.533H216.716V38.4061H214.735V34.533ZM206.989 38.123H219.472V39.7319H206.989V38.123ZM213.216 28.2019C216.18 28.2019 218.37 29.6618 218.37 31.9112C218.37 34.1606 216.18 35.6055 213.216 35.6055C210.236 35.6055 208.061 34.1606 208.061 31.9112C208.061 29.6618 210.236 28.2019 213.216 28.2019ZM213.216 29.7512C211.294 29.7512 210.013 30.5407 210.013 31.9112C210.013 33.2668 211.294 34.0712 213.216 34.0712C215.137 34.0712 216.418 33.2668 216.418 31.9112C216.418 30.5407 215.137 29.7512 213.216 29.7512ZM222.495 40.2086C221.705 40.2086 221.139 39.5978 221.139 38.7785C221.139 37.9592 221.705 37.3633 222.495 37.3633C223.27 37.3633 223.865 37.9592 223.865 38.7785C223.865 39.5978 223.27 40.2086 222.495 40.2086ZM228.912 38.1081H241.395V39.7319H228.912V38.1081ZM229.865 28.7233H240.367V30.3023H229.865V28.7233ZM229.925 34.4287H240.323V36.0226H229.925V34.4287ZM231.742 30.1832H233.723V34.5777H231.742V30.1832ZM236.524 30.1832H238.49V34.5777H236.524V30.1832ZM242.615 38.1975H255.099V39.8063H242.615V38.1975ZM247.844 35.5906H249.825V38.853H247.844V35.5906ZM244.016 28.4254H253.699V33.0135H246.012V35.3374H244.046V31.4643H251.732V29.9895H244.016V28.4254ZM244.046 34.5479H254.011V36.1418H244.046V34.5479ZM262.01 30.9429H264.17V32.5368H262.01V30.9429ZM263.484 27.7997H265.332V35.8737H263.484V27.7997ZM258.732 29.6022H260.267V30.4811C260.267 32.7901 259.358 34.9501 257.124 35.8439L256.125 34.3095C257.973 33.5796 258.732 32.0154 258.732 30.4811V29.6022ZM259.105 29.6022H260.639V30.4811C260.639 31.9559 261.354 33.3859 263.082 34.0712L262.114 35.5906C259.954 34.7564 259.105 32.7007 259.105 30.4811V29.6022ZM256.557 28.5148H262.65V30.0938H256.557V28.5148ZM266.181 27.5316H268.058V35.9332H266.181V27.5316ZM258.583 36.4397H268.058V41.3258H266.091V38.0188H258.583V36.4397ZM271.483 34.6372H281.18V36.1865H271.483V34.6372ZM270.023 38.1379H282.506V39.7468H270.023V38.1379ZM271.483 28.5297H281.061V30.1236H273.494V35.0692H271.483V28.5297ZM272.883 31.5686H280.748V33.1029H272.883V31.5686ZM288.151 28.4403C290.326 28.4403 291.949 29.8554 291.949 31.8367C291.949 33.8328 290.326 35.248 288.151 35.248C285.991 35.248 284.337 33.8328 284.337 31.8367C284.337 29.8554 285.991 28.4403 288.151 28.4403ZM288.151 30.1385C287.093 30.1385 286.289 30.7641 286.289 31.8367C286.289 32.9241 287.093 33.5498 288.151 33.5498C289.208 33.5498 290.013 32.9241 290.013 31.8367C290.013 30.7641 289.208 30.1385 288.151 30.1385ZM293.245 27.5167H295.227V41.3556H293.245V27.5167ZM284.009 38.555L283.771 36.9611C286.199 36.9611 289.581 36.9313 292.486 36.4993L292.635 37.9294C289.64 38.5252 286.393 38.555 284.009 38.555ZM304.157 28.5892H305.766V30.6003C305.766 34.1457 304.544 37.3484 301.803 38.6146L300.626 36.976C303.025 35.9332 304.157 33.2817 304.157 30.6003V28.5892ZM304.544 28.5892H306.153V30.6003C306.153 33.1476 307.24 35.68 309.594 36.693L308.432 38.2869C305.766 37.0654 304.544 33.9967 304.544 30.6003V28.5892ZM310.25 27.5167H312.246V41.3556H310.25V27.5167ZM317.563 28.9468H319.186V29.8108C319.186 32.4177 317.95 34.7564 315.313 35.6055L314.285 34.0712C316.594 33.3263 317.563 31.5388 317.563 29.8108V28.9468ZM317.965 28.9468H319.574V29.8108C319.574 31.4345 320.512 33.1178 322.747 33.8328L321.734 35.3672C319.157 34.533 317.965 32.2836 317.965 29.8108V28.9468ZM314.822 28.336H322.27V29.915H314.822V28.336ZM323.372 27.5316H325.353V35.8439H323.372V27.5316ZM324.802 30.8684H327.186V32.4921H324.802V30.8684ZM316.147 36.4397H325.353V41.3258H323.372V38.0337H316.147V36.4397ZM328.198 35.4714H340.696V37.0356H328.198V35.4714ZM333.411 36.261H335.378V41.3258H333.411V36.261ZM329.628 28.053H331.594V29.6171H337.255V28.053H339.221V34.1606H329.628V28.053ZM331.594 31.1663V32.5815H337.255V31.1663H331.594ZM351.509 27.5167H353.476V41.3556H351.509V27.5167ZM349.141 32.373H351.733V33.9818H349.141V32.373ZM342.527 36.6334H343.629C345.908 36.6334 347.607 36.6036 349.558 36.2908L349.737 37.8698C347.741 38.1826 345.953 38.2422 343.629 38.2422H342.527V36.6334ZM342.527 28.6786H348.917V30.2874H344.493V37.1399H342.527V28.6786ZM344.046 32.5219H348.441V34.0712H344.046V32.5219ZM358.98 32.5815H371.463V34.1606H358.98V32.5815ZM360.142 27.9934H363.359V29.5575H360.142V27.9934ZM362.779 27.9934H364.715V28.7382C364.715 29.7214 364.715 31.2259 364.03 33.2221L362.123 32.9539C362.779 30.9727 362.779 29.6916 362.779 28.7382V27.9934ZM365.49 27.9934H369.035V29.5575H365.49V27.9934ZM368.111 27.9934H370.048V28.9468C370.048 30.064 370.048 31.4643 369.467 33.2966L367.545 33.0284C368.111 31.2259 368.111 30.0193 368.111 28.9468V27.9934ZM360.499 35.099H370.003V36.5589H362.481V40.0447H360.499V35.099ZM360.499 39.7021H370.108V41.1768H360.499V39.7021ZM361.676 37.408H369.676V38.8083H361.676V37.408ZM381.666 27.5316H383.647V41.3258H381.666V27.5316ZM383.037 32.9241H385.435V34.5628H383.037V32.9241ZM374.903 28.9319H376.75C376.75 32.7603 376.393 35.6949 373.95 38.4359L372.401 37.3186C374.531 34.965 374.903 32.6709 374.903 29.1702V28.9319ZM373.011 28.9319H375.678V30.5407H373.011V28.9319ZM378.702 28.9319H380.549C380.549 32.939 380.221 36.3206 377.823 39.3148L376.274 38.2124C378.359 35.5757 378.702 32.9241 378.702 29.1553V28.9319ZM377.212 28.9319H379.521V30.5407H377.212V28.9319ZM389.709 29.7065H391.288V31.2557C391.288 34.4436 389.992 37.557 387.4 38.7338L386.283 37.1697C388.592 36.1418 389.709 33.5945 389.709 31.2557V29.7065ZM390.156 29.7065H391.72V31.2557C391.72 33.4902 392.823 35.8737 395.131 36.827L394.059 38.3912C391.437 37.259 390.156 34.3244 390.156 31.2557V29.7065ZM386.834 28.8574H394.565V30.4811H386.834V28.8574ZM395.847 27.5316H397.843V41.3258H395.847V27.5316ZM407.25 28.485C409.305 28.485 410.81 30.3917 410.81 33.4008C410.81 36.4397 409.305 38.3465 407.25 38.3465C405.179 38.3465 403.689 36.4397 403.689 33.4008C403.689 30.3917 405.179 28.485 407.25 28.485ZM407.25 30.2874C406.252 30.2874 405.581 31.3749 405.581 33.4008C405.581 35.4566 406.252 36.5589 407.25 36.5589C408.263 36.5589 408.918 35.4566 408.918 33.4008C408.918 31.3749 408.263 30.2874 407.25 30.2874ZM413.074 27.5167H415.041V41.3556H413.074V27.5167ZM410.229 32.4921H413.908V34.0861H410.229V32.4921ZM419.285 39.5084H429.191V41.0874H419.285V39.5084ZM419.285 36.6781H421.281V40.4916H419.285V36.6781ZM426.882 27.5465H428.848V37.5272H426.882V27.5465ZM425.065 31.1663H428.58V32.7454H425.065V31.1663ZM417.363 34.0116H418.063C419.225 34.0116 420.045 33.9818 421.058 33.7732L421.206 35.3672C420.134 35.5906 419.3 35.5906 418.063 35.5906H417.363V34.0116ZM417.363 28.5743H420.983V30.1534H419.315V34.3095H417.363V28.5743ZM421.638 34.0116H422.383C424.126 34.0116 424.886 33.9818 425.78 33.7583L425.944 35.3523C424.99 35.5608 424.201 35.5906 422.383 35.5906H421.638V34.0116ZM421.638 28.5743H425.467V30.1534H423.575V34.2946H421.638V28.5743ZM443.127 27.5316H445.108V37.4974H443.127V27.5316ZM444.542 31.2855H446.94V32.9092H444.542V31.2855ZM434.77 33.6541H435.917C438.911 33.6541 440.4 33.5945 442.054 33.237L442.248 34.8011C440.564 35.1735 438.985 35.248 435.917 35.248H434.77V33.6541ZM434.77 28.619H440.937V30.213H436.736V34.5032H434.77V28.619ZM436.215 39.5084H445.599V41.0874H436.215V39.5084ZM436.215 36.4546H438.196V40.3128H436.215V36.4546ZM453.27 31.1663H456.071V32.7454H453.27V31.1663ZM453.195 34.6074H456.011V36.1865H453.195V34.6074ZM457.947 27.5316H459.839V41.3258H457.947V27.5316ZM455.102 27.8295H456.949V40.715H455.102V27.8295ZM451.989 29.1553H453.896C453.896 33.0731 452.719 36.2014 448.875 38.4657L447.758 37.0803C450.872 35.1884 451.989 32.8943 451.989 29.5575V29.1553ZM448.548 29.1553H452.659V30.7343H448.548V29.1553ZM461.67 32.8794H474.154V34.4436H461.67V32.8794ZM463.205 30.5854H472.679V32.1346H463.205V30.5854ZM463.205 27.7848H472.56V29.3639H465.171V31.9261H463.205V27.7848ZM463.086 35.2182H472.619V38.8679H465.052V40.0596H463.1V37.4676H470.668V36.7079H463.086V35.2182ZM463.1 39.7021H472.977V41.2215H463.1V39.7021ZM481.601 27.7252C484.744 27.7252 486.591 28.5594 486.591 30.0789C486.591 31.5983 484.744 32.4326 481.601 32.4326C478.443 32.4326 476.611 31.5983 476.611 30.0789C476.611 28.5594 478.443 27.7252 481.601 27.7252ZM481.601 29.1702C479.605 29.1702 478.666 29.4681 478.666 30.0789C478.666 30.7194 479.605 30.9876 481.601 30.9876C483.597 30.9876 484.535 30.7194 484.535 30.0789C484.535 29.4681 483.597 29.1702 481.601 29.1702ZM475.359 33.0731H487.828V34.6372H475.359V33.0731ZM476.789 35.4119H486.323V38.9572H478.756V40.1788H476.804V37.5868H484.372V36.8866H476.789V35.4119ZM476.804 39.7468H486.681V41.2364H476.804V39.7468ZM502.001 27.5316H503.983V41.3258H502.001V27.5316ZM499.335 32.8199H502.955V34.4287H499.335V32.8199ZM497.473 28.9617H499.424C499.424 33.1476 498.099 36.5589 493.317 38.9572L492.274 37.408C496.177 35.4714 497.473 32.9688 497.473 29.3192V28.9617ZM492.929 28.9617H498.516V30.5258H492.929V28.9617ZM515.616 27.5316H517.612V41.3258H515.616V27.5316ZM509.538 31.1068H511.102V31.8218C511.102 34.7415 509.806 37.6761 507.259 38.7785L506.201 37.259C508.465 36.2461 509.538 33.9073 509.538 31.8218V31.1068ZM509.97 31.1068H511.519V31.8218C511.519 33.803 512.607 36.0673 514.886 37.0356L513.828 38.555C511.281 37.4974 509.97 34.6521 509.97 31.8218V31.1068ZM506.663 29.781H514.335V31.3451H506.663V29.781ZM509.538 27.8444H511.519V30.5854H509.538V27.8444ZM530.139 32.7454H532.567V34.3691H530.139V32.7454ZM528.664 27.5167H530.66V41.3109H528.664V27.5167ZM520.262 28.8425H522.244V37.408H520.262V28.8425ZM520.262 36.3057H521.454C523.42 36.3057 525.551 36.1716 527.77 35.7247L527.979 37.3484C525.7 37.8251 523.48 37.9443 521.454 37.9443H520.262V36.3057ZM536.305 34.533H538.271V38.4061H536.305V34.533ZM541.31 34.533H543.291V38.4061H541.31V34.533ZM533.564 38.123H546.047V39.7319H533.564V38.123ZM539.791 28.2019C542.755 28.2019 544.945 29.6618 544.945 31.9112C544.945 34.1606 542.755 35.6055 539.791 35.6055C536.811 35.6055 534.636 34.1606 534.636 31.9112C534.636 29.6618 536.811 28.2019 539.791 28.2019ZM539.791 29.7512C537.869 29.7512 536.588 30.5407 536.588 31.9112C536.588 33.2668 537.869 34.0712 539.791 34.0712C541.712 34.0712 542.993 33.2668 542.993 31.9112C542.993 30.5407 541.712 29.7512 539.791 29.7512ZM549.278 36.2461C548.921 33.8477 551.468 32.8943 551.468 31.4792C551.468 30.7194 550.977 30.2577 550.202 30.2577C549.547 30.2577 549.025 30.5854 548.534 31.0919L547.327 29.9746C548.102 29.0957 549.159 28.485 550.455 28.485C552.258 28.485 553.569 29.4086 553.569 31.3302C553.569 33.4455 550.977 34.1457 551.2 36.2461H549.278ZM550.247 40.2086C549.457 40.2086 548.891 39.5978 548.891 38.7785C548.891 37.9592 549.457 37.3633 550.247 37.3633C551.021 37.3633 551.617 37.9592 551.617 38.7785C551.617 39.5978 551.021 40.2086 550.247 40.2086Z" fill="#757575"/>
<path d="M685 37.4482L689.893 30L694.787 37.4482" stroke="#757575" stroke-width="1.24138" stroke-linecap="round"/>
</svg>
