<svg width="696" height="772" viewBox="0 0 696 772" fill="none" xmlns="http://www.w3.org/2000/svg">
<g clip-path="url(#clip0_935_9415)">
<rect x="96.1377" width="599.862" height="772" rx="4" fill="#EBF2FA"/>
<rect opacity="0.4" x="-289.354" y="718.883" width="2092.82" height="191.623" rx="95.8117" transform="rotate(-4.37359 -289.354 718.883)" fill="#419AFF"/>
<rect opacity="0.4" x="-291.307" y="577.605" width="1495.54" height="207.027" rx="103.513" transform="rotate(6.46655 -291.307 577.605)" fill="#7CC7EE"/>
<g clip-path="url(#clip1_935_9415)">
<path d="M253.233 197.439C253.233 179.996 267.374 165.855 284.817 165.855H1212.09C1229.53 165.855 1243.67 179.996 1243.67 197.439V875.57H253.233V197.439Z" fill="#3D6BE1"/>
<rect x="264.363" y="178.375" width="827.759" height="61.2124" fill="#FEFEFE"/>
<g clip-path="url(#clip2_935_9415)">
<rect width="884.385" height="1061.26" transform="translate(256.138 185)" fill="#F9F9F9"/>
<path d="M402.596 407.229C403.347 407.229 403.867 406.422 403.867 404.907C403.867 403.404 403.347 402.597 402.596 402.597C401.833 402.597 401.324 403.404 401.324 404.907C401.324 406.422 401.833 407.229 402.596 407.229ZM402.596 401.281C404.132 401.281 405.271 402.674 405.271 404.907C405.271 407.152 404.132 408.555 402.596 408.555C401.048 408.555 399.92 407.152 399.92 404.907C399.92 402.674 401.048 401.281 402.596 401.281ZM409.317 404.41V405.615H407.836V410.755H406.376V400.574H407.836V404.41H409.317ZM416.723 404.034V402.221H412.533V404.034H416.723ZM418.149 401.071V405.184H411.096V401.071H418.149ZM419.254 406.267V407.428H415.341V410.755H413.882V407.428H410.035V406.267H419.254ZM422.238 405.372V407.207C423.786 407.196 425.068 407.118 426.505 406.875L426.66 408.058C425.002 408.345 423.51 408.412 421.663 408.412H420.746V404.222H424.051V402.597H420.735V401.436H425.544V405.372H422.238ZM427.213 400.563H428.672V410.778H427.213V400.563ZM435.321 407.351C435.874 407.351 436.272 406.908 436.272 406.146C436.272 405.383 435.874 404.93 435.321 404.93C434.769 404.93 434.371 405.383 434.371 406.146C434.371 406.908 434.769 407.351 435.321 407.351ZM435.321 403.713C436.626 403.713 437.555 404.719 437.555 406.146C437.555 407.561 436.626 408.567 435.321 408.567C434.017 408.567 433.088 407.561 433.088 406.146C433.088 404.719 434.017 403.713 435.321 403.713ZM436.04 400.85V402.111H437.731V403.271H432.867V402.111H434.603V400.85H436.04ZM440.23 400.563H441.612V410.744H440.23V405.891H439.456V410.324H438.096V400.762H439.456V404.719H440.23V400.563ZM448.376 408.412H452.268V409.606H443.048V408.412H446.917V406.289H444.12V401.27H451.206V402.442H445.59V405.117H451.284V406.289H448.376V408.412ZM457.237 407.019H464.179V410.766H462.709V408.18H457.237V407.019ZM462.709 400.585H464.179V406.555H462.709V400.585ZM458.629 401.127C460.21 401.127 461.404 402.177 461.404 403.625C461.404 405.073 460.21 406.112 458.629 406.112C457.071 406.112 455.866 405.073 455.866 403.625C455.866 402.177 457.071 401.127 458.629 401.127ZM458.629 402.365C457.867 402.365 457.292 402.829 457.292 403.625C457.292 404.41 457.867 404.885 458.629 404.885C459.403 404.885 459.978 404.41 459.978 403.625C459.978 402.829 459.403 402.365 458.629 402.365ZM474.636 403.57L474.116 404.686C472.381 404.454 471.132 403.713 470.49 402.719C469.849 403.713 468.6 404.454 466.864 404.686L466.334 403.57C468.622 403.282 469.739 402.099 469.739 401.016V400.718H471.242V401.016C471.242 402.088 472.359 403.282 474.636 403.57ZM475.089 406.378H471.209V407.362H473.984V410.766H472.525V408.5H466.909V407.362H469.75V406.378H465.892V405.217H475.089V406.378ZM478.504 407.351C479.057 407.351 479.455 406.908 479.455 406.146C479.455 405.383 479.057 404.93 478.504 404.93C477.952 404.93 477.554 405.383 477.554 406.146C477.554 406.908 477.952 407.351 478.504 407.351ZM478.504 403.713C479.809 403.713 480.737 404.719 480.737 406.146C480.737 407.561 479.809 408.567 478.504 408.567C477.2 408.567 476.271 407.561 476.271 406.146C476.271 404.719 477.2 403.713 478.504 403.713ZM479.223 400.85V402.111H480.914V403.271H476.05V402.111H477.786V400.85H479.223ZM483.413 400.563H484.795V410.744H483.413V405.891H482.639V410.324H481.279V400.762H482.639V404.719H483.413V400.563ZM490.166 402.752V403.316C490.166 404.974 490.984 406.731 492.687 407.439L491.891 408.589C490.708 408.08 489.901 407.085 489.448 405.858C488.994 407.185 488.176 408.301 486.982 408.843L486.153 407.682C487.856 406.919 488.685 405.051 488.685 403.316V402.752H486.562V401.547H492.267V402.752H490.166ZM493.206 400.574H494.666V410.755H493.206V400.574ZM500.336 402.752V403.316C500.336 404.974 501.154 406.731 502.856 407.439L502.06 408.589C500.878 408.08 500.071 407.085 499.617 405.858C499.164 407.185 498.346 408.301 497.152 408.843L496.323 407.682C498.025 406.919 498.854 405.051 498.854 403.316V402.752H496.732V401.547H502.436V402.752H500.336ZM503.376 400.574H504.835V410.755H503.376V400.574ZM510.556 403.448C510.556 404.189 511.109 404.631 511.86 404.631C512.612 404.631 513.165 404.189 513.165 403.448C513.165 402.696 512.612 402.254 511.86 402.254C511.109 402.254 510.556 402.696 510.556 403.448ZM514.569 403.448C514.569 404.83 513.408 405.825 511.86 405.825C510.313 405.825 509.152 404.83 509.152 403.448C509.152 402.055 510.313 401.06 511.86 401.06C513.408 401.06 514.569 402.055 514.569 403.448ZM511.385 406.566V409.307C511.927 409.263 512.457 409.175 512.966 409.009L513.165 410.158C512.325 410.446 511.529 410.501 510.534 410.501H509.97V406.566H511.385ZM515.354 409.783C515.752 409.783 516.028 409.639 516.028 409.329C516.028 409.031 515.752 408.887 515.354 408.887C514.967 408.887 514.679 409.031 514.679 409.329C514.679 409.639 514.967 409.783 515.354 409.783ZM515.354 407.903C516.514 407.903 517.321 408.456 517.321 409.329C517.321 410.214 516.514 410.766 515.354 410.766C514.193 410.766 513.386 410.214 513.386 409.329C513.386 408.456 514.193 407.903 515.354 407.903ZM516.072 405.88V406.599H517.896V407.649H512.8V406.599H514.657V405.88H516.072ZM517.078 402.674H518.427V403.879H517.078V405.582H515.619V400.574H517.078V402.674ZM527.447 403.327V404.487H520.383V400.939H521.842V403.327H527.447ZM521.754 407.505V409.374H527.502V410.534H520.283V407.505H521.754ZM519.244 405.526H528.464V406.698H519.244V405.526ZM535.655 404.344V403.327H533.654V404.344H535.655ZM537.092 401.016V405.482H532.217V401.016H533.654V402.232H535.655V401.016H537.092ZM534.671 408.909V409.55H540.231V410.678H533.223V407.87H538.496V407.251H533.212V406.146H539.933V408.909H534.671ZM539.933 402.542H541.271V403.725H539.933V405.748H538.474V400.574H539.933V402.542ZM545.802 406.555V408.467H547.56V406.555H545.802ZM545.636 402.542V405.405H547.715V402.542H545.636ZM549.008 408.467H551.308V409.639H542.077V408.467H544.354V406.555H542.862V405.405H544.188V402.542H542.806V401.381H550.545V402.542H549.163V405.405H550.523V406.555H549.008V408.467ZM553.297 407.019L553.064 402.94L553.009 401.403H554.645L554.59 402.94L554.358 407.019H553.297ZM553.827 409.959C553.252 409.959 552.821 409.495 552.821 408.898C552.821 408.29 553.252 407.837 553.827 407.837C554.402 407.837 554.844 408.29 554.844 408.898C554.844 409.495 554.402 409.959 553.827 409.959ZM567.443 404.93V406.09H563.784V401.414H567.366V402.575H565.232V404.93H567.443ZM563.209 404.675L563.309 405.869C562.303 406.068 561.429 406.09 560.202 406.09H559.561V401.414H563.132V402.575H561.02V404.885C561.816 404.874 562.48 404.819 563.209 404.675ZM564.16 408.401H568.073V409.573H558.854V408.401H562.701V406.521H564.16V408.401ZM569.388 403.15H572.583V402.343H569.377V401.171H574.02V404.233H570.836V405.117C572.494 405.106 573.611 405.04 574.882 404.808L575.004 405.98C573.589 406.245 572.295 406.289 570.261 406.289H569.388V403.15ZM573.688 409.65C575.015 409.65 575.7 409.396 575.7 408.832C575.7 408.268 575.015 408.014 573.688 408.014C572.362 408.014 571.676 408.268 571.676 408.832C571.676 409.396 572.362 409.65 573.688 409.65ZM573.688 406.897C575.811 406.897 577.137 407.605 577.137 408.832C577.137 410.048 575.811 410.766 573.688 410.766C571.566 410.766 570.239 410.048 570.239 408.832C570.239 407.605 571.566 406.897 573.688 406.897ZM577.038 402.951H578.387V404.145H577.038V406.687H575.579V400.585H577.038V402.951ZM587.782 404.93V406.09H584.123V401.414H587.705V402.575H585.571V404.93H587.782ZM583.548 404.675L583.648 405.869C582.642 406.068 581.768 406.09 580.541 406.09H579.9V401.414H583.471V402.575H581.359V404.885C582.155 404.874 582.819 404.819 583.548 404.675ZM584.499 408.401H588.412V409.573H579.193V408.401H583.04V406.521H584.499V408.401ZM589.727 403.15H592.922V402.343H589.716V401.171H594.359V404.233H591.175V405.117C592.833 405.106 593.95 405.04 595.221 404.808L595.343 405.98C593.928 406.245 592.635 406.289 590.6 406.289H589.727V403.15ZM594.027 409.65C595.354 409.65 596.039 409.396 596.039 408.832C596.039 408.268 595.354 408.014 594.027 408.014C592.701 408.014 592.015 408.268 592.015 408.832C592.015 409.396 592.701 409.65 594.027 409.65ZM594.027 406.897C596.15 406.897 597.477 407.605 597.477 408.832C597.477 410.048 596.15 410.766 594.027 410.766C591.905 410.766 590.578 410.048 590.578 408.832C590.578 407.605 591.905 406.897 594.027 406.897ZM597.377 402.951H598.726V404.145H597.377V406.687H595.918V400.585H597.377V402.951ZM606.507 400.563H607.967V410.778H606.507V400.563ZM602.495 401.281C604.031 401.281 605.17 402.674 605.17 404.907C605.17 407.152 604.031 408.555 602.495 408.555C600.958 408.555 599.819 407.152 599.819 404.907C599.819 402.674 600.958 401.281 602.495 401.281ZM602.495 402.597C601.743 402.597 601.223 403.404 601.223 404.907C601.223 406.422 601.743 407.229 602.495 407.229C603.246 407.229 603.766 406.422 603.766 404.907C603.766 403.404 603.246 402.597 602.495 402.597ZM617.534 408.412H621.426V409.606H612.206V408.412H616.075V406.289H613.278V401.27H620.364V402.442H614.749V405.117H620.442V406.289H617.534V408.412ZM624.023 403.669C624.023 404.465 624.598 404.941 625.371 404.941C626.145 404.941 626.731 404.465 626.731 403.669C626.731 402.873 626.145 402.409 625.371 402.409C624.598 402.409 624.023 402.873 624.023 403.669ZM626.112 406.09V407.483C626.908 407.45 627.682 407.384 628.423 407.295L628.544 408.345C626.422 408.743 624.155 408.743 622.442 408.732L622.265 407.55C622.984 407.55 623.813 407.55 624.664 407.538V406.101C623.459 405.847 622.608 404.907 622.608 403.669C622.608 402.21 623.802 401.16 625.371 401.16C626.952 401.16 628.146 402.21 628.146 403.669C628.146 404.896 627.306 405.825 626.112 406.09ZM631.75 404.565V405.77H630.412V410.744H628.953V400.563H630.412V404.565H631.75ZM640.781 405.272V406.433H633.617V401.414H640.704V402.597H635.077V405.272H640.781ZM632.545 408.345H641.765V409.539H632.545V408.345ZM651.172 400.574V405.869H649.701V400.574H651.172ZM648.861 404.299L649.005 405.405C647.601 405.637 646.363 405.659 644.097 405.659H643.212V402.807H646.518V402.144H643.19V401.038H647.955V403.824H644.649V404.543C646.529 404.543 647.612 404.498 648.861 404.299ZM645.887 409.584H651.426V410.678H644.395V407.925H649.679V407.339H644.384V406.245H651.172V408.942H645.887V409.584ZM658.113 404.465V400.795H659.473V410.302H658.113V405.637H656.521C655.946 406.798 655.018 407.804 653.581 408.644L652.752 407.616C654.786 406.4 655.681 404.93 655.858 402.94H653.315V401.779H657.306C657.306 402.741 657.218 403.636 656.975 404.465H658.113ZM660.258 400.563H661.64V410.744H660.258V400.563ZM666.536 406.444V408.39H668.78V406.444C668.426 406.51 668.051 406.544 667.653 406.544C667.255 406.544 666.89 406.51 666.536 406.444ZM667.653 402.221C666.238 402.221 665.298 402.796 665.298 403.813C665.298 404.819 666.238 405.405 667.653 405.405C669.068 405.405 670.018 404.819 670.018 403.813C670.018 402.796 669.068 402.221 667.653 402.221ZM670.228 408.39H672.274V409.573H663.054V408.39H665.088V405.902C664.314 405.427 663.85 404.697 663.861 403.813C663.861 402.144 665.464 401.071 667.653 401.071C669.853 401.071 671.456 402.144 671.456 403.813C671.456 404.697 670.991 405.427 670.228 405.902V408.39Z" fill="#757575"/>
<path d="M406.796 421.628V422.245H403.821V418.579H406.695V419.187H404.576V421.628H406.796ZM403.397 421.398L403.471 422.015C402.568 422.218 401.822 422.245 400.983 422.245H400.532V418.588H403.314V419.205H401.278V421.619C401.969 421.61 402.651 421.564 403.397 421.398ZM403.987 424.392H407.377V425.009H399.878V424.392H403.231V422.651H403.987V424.392ZM413.217 421.435L413.29 422.052C411.982 422.273 410.895 422.319 409.366 422.319H408.712V419.979H411.669V418.938H408.693V418.321H412.415V420.559H409.458V421.702C410.904 421.702 411.964 421.656 413.217 421.435ZM412.13 425.479C413.364 425.479 414.101 425.138 414.101 424.558C414.101 423.977 413.364 423.636 412.13 423.636C410.895 423.636 410.149 423.977 410.149 424.558C410.149 425.138 410.895 425.479 412.13 425.479ZM412.13 423.047C413.806 423.047 414.847 423.6 414.847 424.558C414.847 425.516 413.806 426.059 412.13 426.059C410.444 426.059 409.412 425.516 409.412 424.558C409.412 423.6 410.444 423.047 412.13 423.047ZM414.764 419.878H415.99V420.504H414.764V422.789H414.009V417.814H414.764V419.878ZM423.746 421.628V422.245H420.77V418.579H423.644V419.187H421.525V421.628H423.746ZM420.346 421.398L420.42 422.015C419.517 422.218 418.771 422.245 417.933 422.245H417.481V418.588H420.263V419.205H418.227V421.619C418.918 421.61 419.6 421.564 420.346 421.398ZM420.936 424.392H424.326V425.009H416.827V424.392H420.18V422.651H420.936V424.392ZM430.166 421.435L430.24 422.052C428.931 422.273 427.844 422.319 426.315 422.319H425.661V419.979H428.618V418.938H425.643V418.321H429.364V420.559H426.407V421.702C427.854 421.702 428.913 421.656 430.166 421.435ZM429.079 425.479C430.313 425.479 431.05 425.138 431.05 424.558C431.05 423.977 430.313 423.636 429.079 423.636C427.844 423.636 427.098 423.977 427.098 424.558C427.098 425.138 427.844 425.479 429.079 425.479ZM429.079 423.047C430.756 423.047 431.797 423.6 431.797 424.558C431.797 425.516 430.756 426.059 429.079 426.059C427.393 426.059 426.361 425.516 426.361 424.558C426.361 423.6 427.393 423.047 429.079 423.047ZM431.714 419.878H432.939V420.504H431.714V422.789H430.958V417.814H431.714V419.878ZM436.457 418.413C437.747 418.413 438.668 419.196 438.668 420.357C438.668 421.508 437.747 422.301 436.457 422.301C435.177 422.301 434.246 421.508 434.246 420.357C434.246 419.196 435.177 418.413 436.457 418.413ZM436.457 419.058C435.61 419.058 434.983 419.583 434.983 420.357C434.983 421.121 435.61 421.656 436.457 421.656C437.314 421.656 437.931 421.121 437.931 420.357C437.931 419.583 437.314 419.058 436.457 419.058ZM439.755 417.805H440.511V426.087H439.755V417.805ZM433.924 424.272L433.832 423.636C435.333 423.636 437.406 423.627 439.212 423.351L439.276 423.913C437.415 424.254 435.416 424.272 433.924 424.272ZM446.762 418.588V420.136C446.762 421.462 447.379 422.863 448.466 423.526L448.033 424.115C447.25 423.636 446.697 422.761 446.402 421.757C446.108 422.853 445.509 423.784 444.689 424.29L444.219 423.728C445.352 423.065 446.034 421.582 446.034 420.163V418.588H446.762ZM448.936 420.771V417.989H449.645V425.663H448.936V421.398H447.572V420.771H448.936ZM450.613 417.805H451.331V426.068H450.613V417.805ZM457.788 421.545L457.411 422.144C456.462 421.812 455.706 421.112 455.329 420.219C454.969 421.177 454.205 421.941 453.228 422.301L452.841 421.711C454.094 421.26 454.942 420.154 454.942 418.938V418.137H455.697V418.938C455.697 420.108 456.563 421.14 457.788 421.545ZM454.96 423.581V425.35H458.829V423.581H454.96ZM454.223 425.958V422.982H459.566V425.958H454.223ZM458.811 417.814H459.566V422.512H458.811V417.814ZM466.162 418.818V419.426H461.288V418.818H463.343V417.805H464.098V418.818H466.162ZM462.467 421.416C462.467 421.997 462.974 422.365 463.72 422.365C464.466 422.365 464.982 421.997 464.982 421.416C464.982 420.845 464.466 420.477 463.72 420.477C462.974 420.477 462.467 420.845 462.467 421.416ZM465.701 421.416C465.701 422.347 464.89 422.955 463.72 422.955C462.55 422.955 461.749 422.347 461.749 421.416C461.749 420.495 462.55 419.887 463.72 419.887C464.89 419.887 465.701 420.495 465.701 421.416ZM463.287 423.517V425.267H468.041V425.884H462.532V423.517H463.287ZM467.672 420.532H468.888V421.167H467.672V424.005H466.917V417.805H467.672V420.532ZM477.636 419.546V419.251H472.569V418.634H478.391V419.546C478.391 420.596 478.391 421.674 478.097 423.222L477.35 423.13C477.636 421.656 477.636 420.569 477.636 419.546ZM476.42 424.29H479.267V424.908H471.795V424.29H473.629V421.554H474.375V424.29H475.674V421.554H476.42V424.29ZM484.683 419.951H486.313V417.814H487.078V422.734H486.313V420.569H484.683V419.951ZM485.143 421.831L484.766 422.42C483.844 422.089 483.135 421.407 482.776 420.559C482.426 421.518 481.661 422.291 480.694 422.66L480.298 422.061C481.532 421.61 482.38 420.495 482.38 419.307V419.021H480.537V418.413H484.95V419.021H483.135V419.307C483.135 420.366 483.946 421.407 485.143 421.831ZM484.351 425.479C485.595 425.479 486.35 425.129 486.35 424.53C486.35 423.931 485.595 423.572 484.351 423.572C483.107 423.572 482.352 423.931 482.352 424.53C482.352 425.129 483.107 425.479 484.351 425.479ZM484.351 422.992C486.046 422.992 487.106 423.553 487.106 424.53C487.106 425.506 486.046 426.068 484.351 426.068C482.656 426.068 481.597 425.506 481.597 424.53C481.597 423.553 482.656 422.992 484.351 422.992ZM492.476 418.321C494.189 418.321 495.479 419.233 495.479 420.606C495.479 421.987 494.189 422.89 492.476 422.89C490.762 422.89 489.472 421.987 489.472 420.606C489.472 419.233 490.762 418.321 492.476 418.321ZM492.476 418.938C491.177 418.938 490.191 419.611 490.191 420.606C490.191 421.61 491.177 422.273 492.476 422.273C493.784 422.273 494.76 421.61 494.76 420.606C494.76 419.611 493.784 418.938 492.476 418.938ZM488.735 424.346H496.244V424.972H488.735V424.346ZM501.337 424.429H504.718V425.046H497.21V424.429H500.573V422.872H498.15V420.32H503.051V419.03H498.131V418.413H503.788V420.928H498.896V422.264H503.981V422.872H501.337V424.429ZM508.924 419.214V423.406C510.389 423.406 511.356 423.351 512.471 423.139L512.563 423.765C511.365 423.986 510.37 424.042 508.804 424.042H508.169V418.588H511.927V419.214H508.924ZM513.807 417.805H514.562V426.087H513.807V421.425H511.439V420.799H513.807V417.805ZM519.96 418.597C518.652 418.597 517.832 418.966 517.832 419.583C517.832 420.219 518.652 420.578 519.96 420.578C521.268 420.578 522.088 420.219 522.088 419.583C522.088 418.966 521.268 418.597 519.96 418.597ZM519.96 421.167C518.182 421.167 517.058 420.587 517.058 419.583C517.058 418.588 518.182 417.998 519.96 417.998C521.747 417.998 522.862 418.588 522.862 419.583C522.862 420.587 521.747 421.167 519.96 421.167ZM523.7 422.439H520.338V423.415H522.779V426.078H522.023V424.023H517.058V423.415H519.582V422.439H516.229V421.822H523.7V422.439ZM530.172 421.499V419.039H527.888V421.499H530.172ZM532.807 419.758H530.909V420.781H532.807V419.758ZM530.909 421.389V422.098H527.141V418.431H530.909V419.15H532.807V417.814H533.572V422.697H532.807V421.389H530.909ZM530.835 425.47C532.088 425.47 532.844 425.11 532.844 424.502C532.844 423.894 532.088 423.535 530.835 423.535C529.601 423.535 528.846 423.894 528.846 424.502C528.846 425.11 529.601 425.47 530.835 425.47ZM530.835 422.945C532.54 422.945 533.599 423.507 533.599 424.502C533.599 425.488 532.54 426.059 530.835 426.059C529.14 426.059 528.09 425.488 528.09 424.502C528.09 423.507 529.14 422.945 530.835 422.945ZM540.148 418.56V419.132H535.404V418.56H537.403V417.75H538.159V418.56H540.148ZM536.565 420.661C536.565 421.094 537.035 421.37 537.781 421.37C538.509 421.37 538.988 421.094 538.988 420.661C538.988 420.228 538.509 419.961 537.781 419.961C537.035 419.961 536.565 420.228 536.565 420.661ZM540.397 422.245L540.452 422.789C538.684 423.093 536.731 423.102 535.284 423.111L535.201 422.503C535.855 422.503 536.611 422.503 537.403 422.476V421.877C536.445 421.785 535.846 421.342 535.846 420.661C535.846 419.905 536.611 419.436 537.781 419.436C538.932 419.436 539.706 419.905 539.706 420.661C539.706 421.333 539.107 421.775 538.159 421.877V422.448C538.914 422.411 539.679 422.356 540.397 422.245ZM536.206 424.364V423.765H541.641V426.068H540.885V424.364H536.206ZM542.848 420.311V420.937H541.641V423.351H540.885V417.814H541.641V420.311H542.848ZM546.136 423.6C546.891 423.6 547.435 423.065 547.435 422.328C547.435 421.582 546.891 421.048 546.136 421.048C545.39 421.048 544.846 421.582 544.846 422.328C544.846 423.065 545.39 423.6 546.136 423.6ZM546.136 420.421C547.315 420.421 548.153 421.214 548.153 422.328C548.153 423.452 547.315 424.226 546.136 424.226C544.975 424.226 544.137 423.452 544.137 422.328C544.137 421.214 544.975 420.421 546.136 420.421ZM546.504 417.906V419.132H548.54V419.74H543.667V419.132H545.749V417.906H546.504ZM551.433 421.204V421.84H550.079V426.068H549.323V417.814H550.079V421.204H551.433ZM558.019 419.454V419.251H552.98V418.634H558.774V419.454C558.774 420.477 558.774 421.61 558.461 423.277L557.706 423.194C558.019 421.61 558.019 420.449 558.019 419.454ZM555.854 424.29H559.668V424.908H552.197V424.29H555.099V421.333H555.854V424.29ZM564.427 423.415V425.267H569.411V425.884H563.671V423.415H564.427ZM566.84 422.126H570.203V422.743H562.732V422.126H566.094V420.937H563.736V418.118H564.482V420.329H569.346V420.937H566.84V422.126ZM572.431 421.518V423.452C573.786 423.452 575.002 423.388 576.448 423.157L576.522 423.775C575.029 424.023 573.776 424.079 572.358 424.079H571.676V420.91H574.716V419.187H571.648V418.57H575.481V421.518H572.431ZM577.222 417.796H577.977V426.078H577.222V417.796ZM584.545 421.84L584.167 422.43C583.246 422.098 582.537 421.416 582.168 420.559C581.818 421.508 581.063 422.264 580.095 422.623L579.699 422.024C580.925 421.591 581.781 420.486 581.781 419.316V418.984H579.939V418.367H584.352V418.984H582.537V419.316C582.537 420.375 583.347 421.416 584.545 421.84ZM580.952 423.811V423.203H586.48V426.078H585.715V423.811H580.952ZM585.715 417.805H586.48V422.752H585.715V420.578H584.103V419.961H585.715V417.805ZM594.927 417.814V423.848H594.171V417.814H594.927ZM589.077 420.412C589.077 421.232 589.685 421.803 590.486 421.803C591.306 421.803 591.914 421.232 591.914 420.412C591.914 419.611 591.306 419.039 590.486 419.039C589.685 419.039 589.077 419.611 589.077 420.412ZM592.651 420.412C592.651 421.61 591.721 422.457 590.486 422.457C589.261 422.457 588.34 421.61 588.34 420.412C588.34 419.224 589.261 418.385 590.486 418.385C591.721 418.385 592.651 419.224 592.651 420.412ZM590.366 425.267H595.175V425.884H589.611V423.231H590.366V425.267ZM601.417 423.249V419.362H599.685V423.249H601.417ZM603.343 420.919V417.989H604.061V425.654H603.343V421.545H602.117V423.848H598.976V418.763H602.117V420.919H603.343ZM604.982 417.805H605.701V426.059H604.982V417.805ZM610.085 418.524V420.007C610.085 421.518 611.071 423.038 612.296 423.59L611.845 424.198C610.905 423.738 610.113 422.761 609.717 421.582C609.339 422.826 608.547 423.857 607.58 424.355L607.119 423.738C608.335 423.157 609.339 421.573 609.339 420.007V418.524H610.085ZM613.162 417.805H613.918V426.087H613.162V417.805ZM618.578 419.279V420.329C618.578 421.729 619.573 423.157 620.789 423.673L620.366 424.281C619.407 423.839 618.597 422.89 618.201 421.757C617.823 422.964 617.012 424.005 616.073 424.484L615.63 423.876C616.819 423.314 617.823 421.757 617.823 420.329V419.279H615.907V418.652H620.522V419.279H618.578ZM621.637 417.814H622.392V426.068H621.637V417.814ZM629.89 419.251V418.579H625.045V418.044H630.637V419.767H625.809V420.477H630.784V421.02H625.063V419.251H629.89ZM625.763 424.65V425.414H630.922V425.958H625.017V424.125H629.918V423.434H624.999V422.89H630.664V424.65H625.763ZM624.105 421.647H631.595V422.218H624.105V421.647ZM639.025 420.09H640.683V417.814H641.448V423.867H640.683V420.707H639.025V420.09ZM639.513 422.033L639.136 422.623C638.214 422.291 637.505 421.6 637.146 420.753C636.786 421.693 636.031 422.457 635.064 422.807L634.668 422.218C635.893 421.775 636.75 420.679 636.75 419.509V419.095H634.907V418.477H639.32V419.095H637.505V419.5C637.505 420.578 638.316 421.61 639.513 422.033ZM636.925 425.267H641.678V425.884H636.16V423.332H636.925V425.267ZM647.896 420.762L647.988 421.361C646.827 421.6 645.823 421.656 644.119 421.656H643.483V418.284H647.131V418.892H644.229V421.048C645.832 421.048 646.79 420.983 647.896 420.762ZM645.04 424.419V425.35H649.83V425.958H644.303V423.848H648.78V422.982H644.275V422.383H649.526V424.419H645.04ZM649.526 419.546H650.752V420.163H649.526V421.96H648.771V417.805H649.526V419.546ZM653.634 423.526C654.27 423.526 654.731 423.001 654.731 422.264C654.731 421.545 654.27 421.02 653.634 421.02C652.989 421.02 652.538 421.545 652.538 422.264C652.538 423.001 652.989 423.526 653.634 423.526ZM653.634 420.384C654.657 420.384 655.403 421.158 655.403 422.264C655.403 423.388 654.657 424.152 653.634 424.152C652.612 424.152 651.866 423.388 651.866 422.264C651.866 421.158 652.612 420.384 653.634 420.384ZM654.003 418.044V419.214H655.679V419.832H651.58V419.214H653.257V418.044H654.003ZM657.863 417.796H658.591V426.059H657.863V421.904H656.803V425.663H656.094V417.989H656.803V421.287H657.863V417.796ZM663.755 420.486V422.006H667.974V420.486H663.755ZM666.242 424.392H669.614V425.009H662.124V424.392H665.477V422.614H663.008V418.395H663.755V419.869H667.974V418.395H668.711V422.614H666.242V424.392ZM673.049 418.588V420.136C673.049 421.462 673.666 422.863 674.753 423.526L674.32 424.115C673.537 423.636 672.985 422.761 672.69 421.757C672.395 422.853 671.796 423.784 670.976 424.29L670.507 423.728C671.64 423.065 672.321 421.582 672.321 420.163V418.588H673.049ZM675.223 420.771V417.989H675.933V425.663H675.223V421.398H673.86V420.771H675.223ZM676.9 417.805H677.618V426.068H676.9V417.805ZM681.662 422.439V424.383H683.965V422.439C683.615 422.522 683.219 422.568 682.804 422.568C682.399 422.568 682.003 422.522 681.662 422.439ZM682.804 418.92C681.478 418.92 680.529 419.528 680.529 420.449C680.529 421.37 681.478 421.978 682.804 421.978C684.131 421.978 685.089 421.37 685.089 420.449C685.089 419.528 684.131 418.92 682.804 418.92ZM684.72 424.383H686.572V425.009H679.064V424.383H680.907V422.153C680.216 421.794 679.801 421.195 679.801 420.449C679.801 419.159 681.054 418.33 682.804 418.33C684.564 418.33 685.808 419.159 685.808 420.449C685.808 421.195 685.402 421.785 684.72 422.144V424.383Z" fill="#757575"/>
<rect x="354.94" y="453.308" width="687.241" height="366.191" rx="1.61216" fill="#FEFEFE"/>
<rect x="354.94" y="453.308" width="687.241" height="366.191" rx="1.61216" stroke="#C4C4C4" stroke-width="0.460617"/>
<rect x="373.685" y="767.449" width="355.276" height="30.8614" rx="1.61216" fill="#FEFEFE" stroke="#C4C4C4" stroke-width="0.460617"/>
<path d="M373.992 472.34L373.561 472.025L374.092 471.121L373.155 470.724L373.321 470.218L374.315 470.45L374.407 469.414H374.946L375.037 470.45L376.032 470.218L376.198 470.724L375.261 471.121L375.8 472.025L375.368 472.34L374.68 471.536L373.992 472.34Z" fill="#FD8889"/>
<path d="M381.918 472.116V471.163H380.086V472.116H381.918ZM382.764 469.521V472.796H379.232V469.521H380.086V470.508H381.918V469.521H382.764ZM380.84 475.292V475.955H385.069V476.627H380.003V474.662H383.974V474.04H379.986V473.377H384.82V475.292H380.84ZM384.82 470.74H385.873V471.445H384.82V473.045H383.966V469.206H384.82V470.74ZM389.239 473.518V475.126H390.715V473.518H389.239ZM389.114 470.541V472.829H390.839V470.541H389.114ZM391.56 475.126H393.393V475.831H386.602V475.126H388.385V473.518H387.182V472.829H388.26V470.541H387.158V469.853H392.787V470.541H391.685V472.829H392.762V473.518H391.56V475.126ZM397.277 470.069V474.073C397.94 474.057 398.662 473.998 399.474 473.849L399.566 474.579C398.562 474.761 397.7 474.803 396.921 474.803H396.423V470.069H397.277ZM401.647 469.206H402.459V476.693H401.647V472.887H400.759V476.32H399.955V469.355H400.759V472.183H401.647V469.206ZM407.085 476.038C408.179 476.038 408.801 475.806 408.801 475.35C408.801 474.902 408.179 474.662 407.085 474.662C405.99 474.662 405.377 474.902 405.377 475.35C405.377 475.806 405.99 476.038 407.085 476.038ZM407.085 474.007C408.702 474.007 409.663 474.496 409.663 475.35C409.663 476.212 408.702 476.693 407.085 476.693C405.476 476.693 404.506 476.212 404.506 475.35C404.506 474.496 405.476 474.007 407.085 474.007ZM406.173 472.083V472.846H408.014V472.083C407.74 472.125 407.433 472.15 407.102 472.15C406.77 472.15 406.447 472.125 406.173 472.083ZM407.102 469.994C405.982 469.994 405.311 470.259 405.311 470.74C405.311 471.221 405.982 471.495 407.102 471.495C408.213 471.495 408.884 471.221 408.884 470.74C408.884 470.259 408.213 469.994 407.102 469.994ZM408.868 472.846H410.484V473.526H403.71V472.846H405.319V471.851C404.755 471.611 404.432 471.229 404.432 470.74C404.432 469.861 405.46 469.331 407.102 469.331C408.735 469.331 409.771 469.861 409.771 470.74C409.771 471.229 409.44 471.611 408.868 471.859V472.846Z" fill="#757575"/>
<rect x="372.904" y="487.394" width="356.057" height="239.06" rx="1.61216" fill="#FEFEFE"/>
<rect x="372.904" y="487.394" width="356.057" height="239.06" rx="1.61216" stroke="#C4C4C4" stroke-width="0.460617"/>
<path d="M383.036 503.033V502.186H381.407V503.033H383.036ZM383.788 500.726V503.638H380.648V500.726H381.407V501.603H383.036V500.726H383.788ZM382.078 505.856V506.445H385.837V507.042H381.334V505.296H384.864V504.743H381.319V504.153H385.616V505.856H382.078ZM385.616 501.81H386.552V502.436H385.616V503.859H384.856V500.446H385.616V501.81ZM389.322 504.279V505.709H390.634V504.279H389.322ZM389.211 501.633V503.667H390.744V501.633H389.211ZM391.386 505.709H393.014V506.335H386.978V505.709H388.563V504.279H387.494V503.667H388.452V501.633H387.472V501.021H392.476V501.633H391.496V503.667H392.454V504.279H391.386V505.709ZM398.04 502.539V501.346H395.04V502.539H398.04ZM398.784 500.741V503.144H394.296V500.741H398.784ZM395.026 505.053V506.357H398.895V506.976H394.267V505.053H395.026ZM393.53 503.8H399.566V504.411H396.986V505.657H396.227V504.411H393.53V503.8ZM402.083 504.5L401.795 503.888C403.195 503.697 404.109 502.937 404.154 502.046H402.068V501.427H404.161V500.564H404.92V501.427H407.006V502.046H404.927C404.972 502.937 405.885 503.697 407.286 503.888L406.998 504.5C405.878 504.323 404.979 503.807 404.544 503.055C404.102 503.807 403.203 504.323 402.083 504.5ZM404.92 505.679H407.558V506.298H401.53V505.679H404.161V504.264H404.92V505.679ZM408.914 502.554C408.914 503.166 409.356 503.564 409.938 503.564C410.521 503.564 410.97 503.166 410.97 502.554C410.97 501.95 410.521 501.552 409.938 501.552C409.356 501.552 408.914 501.95 408.914 502.554ZM411.714 502.554C411.714 503.527 410.948 504.22 409.938 504.22C408.936 504.22 408.17 503.527 408.17 502.554C408.17 501.581 408.936 500.896 409.938 500.896C410.948 500.896 411.714 501.581 411.714 502.554ZM409.835 504.824V506.357H413.55V506.976H409.069V504.824H409.835ZM413.284 502.422H414.228V503.048H413.284V505.325H412.525V500.446H413.284V502.422ZM417.654 501.117C416.622 501.117 416.07 501.316 416.07 501.699C416.07 502.075 416.622 502.274 417.654 502.274C418.686 502.274 419.239 502.075 419.239 501.699C419.239 501.316 418.686 501.117 417.654 501.117ZM417.654 502.842C416.158 502.842 415.281 502.436 415.281 501.699C415.281 500.955 416.158 500.55 417.654 500.55C419.143 500.55 420.027 500.955 420.027 501.699C420.027 502.436 419.143 502.842 417.654 502.842ZM416.121 505.907V506.46H420.101V507.042H415.369V505.369H419.165V504.89H415.355V504.316H419.909V505.907H416.121ZM414.64 503.232H420.668V503.837H414.64V503.232ZM426.553 503.608L426.163 504.19C425.418 503.947 424.888 503.439 424.6 502.805C424.306 503.505 423.753 504.05 422.972 504.323L422.574 503.726C423.628 503.372 424.21 502.525 424.21 501.611V501.493H422.795V500.874H426.369V501.493H424.976V501.611C424.976 502.451 425.536 503.269 426.553 503.608ZM423.458 505.392V504.78H427.836V507.101H427.077V505.392H423.458ZM428.779 502.141V502.768H427.836V504.456H427.077V500.439H427.836V502.141H428.779ZM433.952 504.367V502.392H432.603V501.773H433.952V500.439H434.711V504.367H433.952ZM433.149 503.505L432.744 504.102C432.029 503.844 431.513 503.343 431.225 502.694C430.931 503.431 430.37 504.013 429.567 504.301L429.169 503.689C430.238 503.328 430.82 502.429 430.82 501.456V500.8H431.586V501.419C431.586 502.34 432.139 503.173 433.149 503.505ZM432.493 506.504C433.436 506.504 433.982 506.261 433.982 505.826C433.982 505.392 433.436 505.148 432.493 505.148C431.55 505.148 431.012 505.392 431.012 505.826C431.012 506.261 431.55 506.504 432.493 506.504ZM432.493 504.551C433.886 504.551 434.741 505.023 434.741 505.826C434.741 506.63 433.886 507.101 432.493 507.101C431.107 507.101 430.252 506.63 430.252 505.826C430.252 505.023 431.107 504.551 432.493 504.551ZM437.379 504.979C437.828 504.979 438.145 504.618 438.145 504.065C438.145 503.512 437.828 503.144 437.379 503.144C436.929 503.144 436.612 503.512 436.612 504.065C436.612 504.618 436.929 504.979 437.379 504.979ZM437.379 502.517C438.219 502.517 438.823 503.144 438.823 504.065C438.823 504.979 438.219 505.613 437.379 505.613C436.538 505.613 435.934 504.979 435.934 504.065C435.934 503.144 436.538 502.517 437.379 502.517ZM437.754 500.638V501.53H439V502.141H435.742V501.53H437.003V500.638H437.754ZM440.702 500.446H441.425V507.101H440.702V503.829H439.995V506.792H439.287V500.586H439.995V503.203H440.702V500.446ZM444.354 503.704L444.082 503.107C445.349 502.937 446.285 502.208 446.33 501.434H444.303V500.822H449.204V501.434H447.192C447.236 502.208 448.172 502.937 449.44 503.107L449.167 503.704C448.069 503.542 447.162 502.996 446.757 502.259C446.352 502.996 445.453 503.542 444.354 503.704ZM449.771 504.19L449.764 504.802H447.118V507.109H446.359V504.802H443.75V504.19H449.771ZM452.35 501.058V502.223C452.35 503.299 452.756 504.426 453.647 504.986L453.22 505.576C452.615 505.207 452.218 504.559 451.989 503.814C451.753 504.633 451.318 505.333 450.677 505.723L450.213 505.148C451.156 504.588 451.613 503.394 451.613 502.259V501.058H452.35ZM453.913 502.775V500.572H454.627V506.792H453.913V503.394H452.932V502.775H453.913ZM455.269 500.446H455.991V507.101H455.269V500.446ZM459.034 504.22V505.664H460.714V504.212C460.456 504.279 460.169 504.308 459.874 504.308C459.579 504.308 459.292 504.279 459.034 504.22ZM459.874 501.427C458.865 501.427 458.164 501.869 458.164 502.569C458.164 503.276 458.865 503.719 459.874 503.719C460.877 503.719 461.577 503.276 461.577 502.569C461.577 501.869 460.877 501.427 459.874 501.427ZM461.473 505.664H462.896V506.283H456.867V505.664H458.275V503.932C457.744 503.638 457.427 503.159 457.427 502.569C457.427 501.508 458.452 500.83 459.874 500.83C461.289 500.83 462.321 501.508 462.321 502.569C462.321 503.159 462.004 503.63 461.473 503.932V505.664Z" fill="#C4C4C4"/>
<g clip-path="url(#clip3_935_9415)">
<path d="M689.577 744.19C689.324 744.19 689.107 744.1 688.927 743.92C688.746 743.739 688.656 743.522 688.656 743.269V737.742C688.656 737.488 688.746 737.271 688.927 737.091C689.107 736.911 689.324 736.82 689.577 736.82H693.723C693.976 736.82 694.193 736.911 694.373 737.091C694.554 737.271 694.644 737.488 694.644 737.742V743.269C694.644 743.522 694.554 743.739 694.373 743.92C694.193 744.1 693.976 744.19 693.723 744.19H689.577ZM689.577 743.269H693.723V737.742H689.577V743.269ZM687.735 746.033C687.481 746.033 687.264 745.942 687.084 745.762C686.904 745.582 686.813 745.365 686.813 745.111V738.663H687.735V745.111H692.802V746.033H687.735Z" fill="#5F6368"/>
</g>
<rect x="359.777" y="398.727" width="27.637" height="27.637" rx="1.84247" fill="#509BF8"/>
<path d="M369.579 420.176V417.983H372.509V409.36H370.04V407.684C371.403 407.426 372.343 407.076 373.209 406.523H375.217V417.983H377.778V420.176H369.579Z" fill="white"/>
<rect x="256.138" y="185.922" width="884.385" height="38.6919" fill="white"/>
<path fill-rule="evenodd" clip-rule="evenodd" d="M678.983 194.211C677.204 194.211 675.761 195.654 675.761 197.434V208.713C675.761 210.493 677.204 211.936 678.983 211.936H682.519L684.052 213.947C684.825 214.962 686.354 214.962 687.127 213.947L688.66 211.936H718.139C719.919 211.936 721.362 210.493 721.362 208.713V197.434C721.362 195.654 719.919 194.211 718.139 194.211H678.983Z" fill="#3D6BE1"/>
<path d="M689.104 204.107H687.537C687.462 204.107 687.388 204.107 687.321 204.091V204.149V205.293H689.8C690.173 205.293 690.397 205.484 690.397 205.857C690.397 206.23 690.173 206.421 689.8 206.421H683.582C683.209 206.421 682.985 206.23 682.985 205.857C682.985 205.484 683.209 205.293 683.582 205.293H686.028V204.149C686.028 204.107 686.028 204.074 686.036 204.033C685.696 204.091 685.406 204.107 685.066 204.107H684.527C683.988 204.107 683.69 203.834 683.69 203.295V200.841C683.69 200.343 683.98 200.07 684.477 200.07H685.812C686.185 200.07 686.409 200.269 686.409 200.642C686.409 201.015 686.185 201.214 685.812 201.214H685.058C684.95 201.214 684.933 201.222 684.933 201.33V202.831C684.933 202.938 684.95 202.955 685.058 202.955H685.381C685.588 202.955 685.746 202.938 685.953 202.913C686.268 202.872 686.492 203.03 686.534 203.361C686.542 203.428 686.542 203.502 686.534 203.56C686.575 203.56 686.625 203.552 686.675 203.552H686.724C686.708 203.477 686.699 203.394 686.699 203.295V200.841C686.699 200.343 686.99 200.07 687.487 200.07H689.054C689.419 200.07 689.651 200.285 689.651 200.642C689.651 201.007 689.419 201.214 689.054 201.214H688.067C687.96 201.214 687.943 201.222 687.943 201.33V202.822C687.943 202.93 687.96 202.947 688.067 202.947H689.104C689.469 202.947 689.701 203.162 689.701 203.527C689.701 203.892 689.469 204.107 689.104 204.107ZM694.565 204.29C696.083 204.29 697.235 204.729 697.235 205.873C697.235 207.018 696.083 207.457 694.565 207.457C693.048 207.457 691.896 207.018 691.896 205.873C691.896 204.729 693.048 204.29 694.565 204.29ZM695.079 203.693C694.242 203.817 693.471 203.859 692.567 203.859H691.929C691.365 203.859 691.125 203.618 691.125 203.079V202.134C691.125 201.595 691.365 201.346 691.929 201.346H693.587C693.67 201.346 693.695 201.322 693.695 201.239V200.932C693.695 200.849 693.67 200.832 693.587 200.832H691.738C691.406 200.832 691.166 200.658 691.166 200.335C691.166 200.003 691.406 199.829 691.738 199.829H694.134C694.706 199.829 694.939 200.061 694.939 200.617V201.521C694.939 202.076 694.706 202.317 694.134 202.317H692.468C692.385 202.317 692.368 202.333 692.368 202.416V202.781C692.368 202.864 692.385 202.88 692.468 202.88H692.783C693.546 202.88 694.25 202.822 694.914 202.723C695.229 202.673 695.486 202.764 695.552 203.096C695.618 203.428 695.395 203.643 695.079 203.693ZM695.933 203.519V200.277C695.933 199.887 696.207 199.68 696.597 199.68C696.986 199.68 697.26 199.887 697.26 200.277V201.288H697.832C698.18 201.288 698.429 201.463 698.429 201.836C698.429 202.209 698.18 202.383 697.832 202.383H697.26V203.519C697.26 203.908 696.986 204.124 696.597 204.124C696.207 204.124 695.933 203.908 695.933 203.519ZM694.565 206.47C695.204 206.47 695.909 206.363 695.909 205.873C695.909 205.384 695.204 205.276 694.565 205.276C693.927 205.276 693.222 205.384 693.222 205.873C693.222 206.363 693.927 206.47 694.565 206.47ZM704.687 204.107H703.12C703.045 204.107 702.97 204.107 702.904 204.091V204.149V205.293H705.383C705.756 205.293 705.98 205.484 705.98 205.857C705.98 206.23 705.756 206.421 705.383 206.421H699.165C698.792 206.421 698.568 206.23 698.568 205.857C698.568 205.484 698.792 205.293 699.165 205.293H701.611V204.149C701.611 204.107 701.611 204.074 701.619 204.033C701.279 204.091 700.989 204.107 700.649 204.107H700.11C699.571 204.107 699.272 203.834 699.272 203.295V200.841C699.272 200.343 699.563 200.07 700.06 200.07H701.395C701.768 200.07 701.992 200.269 701.992 200.642C701.992 201.015 701.768 201.214 701.395 201.214H700.641C700.533 201.214 700.516 201.222 700.516 201.33V202.831C700.516 202.938 700.533 202.955 700.641 202.955H700.964C701.171 202.955 701.329 202.938 701.536 202.913C701.851 202.872 702.075 203.03 702.116 203.361C702.125 203.428 702.125 203.502 702.116 203.56C702.158 203.56 702.208 203.552 702.257 203.552H702.307C702.29 203.477 702.282 203.394 702.282 203.295V200.841C702.282 200.343 702.572 200.07 703.07 200.07H704.637C705.002 200.07 705.234 200.285 705.234 200.642C705.234 201.007 705.002 201.214 704.637 201.214H703.65C703.542 201.214 703.526 201.222 703.526 201.33V202.822C703.526 202.93 703.542 202.947 703.65 202.947H704.687C705.051 202.947 705.284 203.162 705.284 203.527C705.284 203.892 705.051 204.107 704.687 204.107ZM710.148 204.29C711.665 204.29 712.818 204.729 712.818 205.873C712.818 207.018 711.665 207.457 710.148 207.457C708.631 207.457 707.478 207.018 707.478 205.873C707.478 204.729 708.631 204.29 710.148 204.29ZM710.662 203.693C709.825 203.817 709.054 203.859 708.15 203.859H707.512C706.948 203.859 706.707 203.618 706.707 203.079V202.134C706.707 201.595 706.948 201.346 707.512 201.346H709.17C709.253 201.346 709.278 201.322 709.278 201.239V200.932C709.278 200.849 709.253 200.832 709.17 200.832H707.321C706.989 200.832 706.749 200.658 706.749 200.335C706.749 200.003 706.989 199.829 707.321 199.829H709.717C710.289 199.829 710.521 200.061 710.521 200.617V201.521C710.521 202.076 710.289 202.317 709.717 202.317H708.051C707.968 202.317 707.951 202.333 707.951 202.416V202.781C707.951 202.864 707.968 202.88 708.051 202.88H708.366C709.128 202.88 709.833 202.822 710.496 202.723C710.811 202.673 711.068 202.764 711.135 203.096C711.201 203.428 710.977 203.643 710.662 203.693ZM711.516 203.519V200.277C711.516 199.887 711.79 199.68 712.179 199.68C712.569 199.68 712.843 199.887 712.843 200.277V201.288H713.415C713.763 201.288 714.012 201.463 714.012 201.836C714.012 202.209 713.763 202.383 713.415 202.383H712.843V203.519C712.843 203.908 712.569 204.124 712.179 204.124C711.79 204.124 711.516 203.908 711.516 203.519ZM710.148 206.47C710.787 206.47 711.491 206.363 711.491 205.873C711.491 205.384 710.787 205.276 710.148 205.276C709.51 205.276 708.805 205.384 708.805 205.873C708.805 206.363 709.51 206.47 710.148 206.47Z" fill="#E3EDFD"/>
<g clip-path="url(#clip4_935_9415)">
<rect width="687.702" height="138.185" transform="translate(356.553 231.984)" fill="#3D6BE1"/>
<path fill-rule="evenodd" clip-rule="evenodd" d="M542.334 372.939C540.327 374.108 537.993 374.778 535.503 374.778C527.999 374.778 521.915 368.694 521.915 361.19C521.915 356.228 524.575 351.887 528.546 349.515C527.836 347.867 527.442 346.051 527.442 344.143C527.442 336.638 533.526 330.554 541.031 330.554C541.401 330.554 541.768 330.569 542.131 330.598C544.069 325.46 549.032 321.805 554.849 321.805C557.765 321.805 560.466 322.723 562.68 324.287C564.893 322.723 567.595 321.805 570.511 321.805C576.827 321.805 582.137 326.114 583.66 331.953C583.881 331.943 584.104 331.937 584.328 331.937C591.833 331.937 597.917 338.021 597.917 345.525C597.917 346.839 597.73 348.11 597.382 349.312C601.548 351.633 604.366 356.082 604.366 361.19C604.366 368.694 598.282 374.778 590.778 374.778C589.159 374.778 587.606 374.495 586.166 373.975C582.2 381.003 573.998 385.829 564.523 385.829C554.59 385.829 546.055 380.525 542.334 372.939Z" fill="#587FE4"/>
<path fill-rule="evenodd" clip-rule="evenodd" d="M558.994 213.098H545.176V237.643L527.82 220.288L518.049 230.059L535.406 247.416H510.859V261.234H535.401L518.049 278.587L527.82 288.358L545.176 271.003V295.548H558.994V271.004L576.35 288.36L586.121 278.589L568.767 261.234H593.31V247.416H568.762L586.122 230.056L576.351 220.285L558.994 237.642V213.098Z" fill="#587FE4"/>
<path d="M436.501 282.256L483.709 259.116L487.761 211.059L469.68 188.961L394.151 212.298L390.074 252.255L436.501 282.256Z" fill="#587FE4"/>
<path fill-rule="evenodd" clip-rule="evenodd" d="M432.785 337.461H418.966V362.007L401.61 344.651L391.839 354.422L409.196 371.779H384.65V385.598H409.194L391.838 402.954L401.61 412.725L418.966 395.368V419.911H432.785V395.368L450.14 412.723L459.912 402.952L442.557 385.598H467.101V371.779H442.555L459.911 354.423L450.14 344.652L432.785 362.007V337.461Z" fill="#587FE4"/>
<path d="M622.414 266.774H616.179C615.589 266.774 615.265 266.538 615.265 265.948C615.265 265.359 615.589 265.123 616.179 265.123H623.534C624.492 265.123 624.743 265.359 624.743 266.302V267.732C624.743 268.69 624.433 268.97 623.475 268.97H617.579C617.52 268.97 617.476 268.999 617.476 269.073V269.633C617.476 269.707 617.52 269.722 617.579 269.722H624.139C624.728 269.722 625.067 269.972 625.067 270.562C625.067 271.151 624.728 271.387 624.139 271.387H616.518C615.56 271.387 615.265 271.107 615.265 270.149V268.572C615.265 267.614 615.545 267.349 616.503 267.349H622.414C622.488 267.349 622.532 267.319 622.532 267.245V266.877C622.532 266.803 622.488 266.774 622.414 266.774ZM613.688 262.838V258.932C613.688 258.239 614.071 257.871 614.764 257.871C615.457 257.871 615.84 258.239 615.84 258.932V259.581H618.611V258.932C618.611 258.239 618.994 257.871 619.687 257.871C620.38 257.871 620.763 258.239 620.763 258.932V262.838C620.763 263.796 620.365 264.18 619.407 264.18H615.059C614.101 264.18 613.688 263.796 613.688 262.838ZM622.384 263.501V258.77C622.384 258.077 622.871 257.709 623.564 257.709C624.256 257.709 624.743 258.077 624.743 258.77V259.993H625.76C626.379 259.993 626.821 260.303 626.821 260.966C626.821 261.63 626.379 261.939 625.76 261.939H624.743V263.501C624.743 264.194 624.256 264.577 623.564 264.577C622.871 264.577 622.384 264.194 622.384 263.501ZM615.84 261.202V262.396C615.84 262.499 615.884 262.558 615.987 262.558H618.464C618.567 262.558 618.611 262.499 618.611 262.396V261.202H615.84ZM630.502 265.875H629.603C628.969 265.875 628.542 265.536 628.542 264.902C628.542 264.268 628.969 263.929 629.603 263.929H630.31C630.222 263.384 630.178 262.735 630.178 262.19V261.851C630.178 261.217 630.561 260.789 631.298 260.789C632.02 260.789 632.418 261.217 632.418 261.851V262.19C632.418 262.779 632.418 263.354 632.477 263.929H634.821C634.88 263.354 634.895 262.779 634.895 262.19V261.851C634.895 261.217 635.292 260.789 636.015 260.789C636.752 260.789 637.135 261.217 637.135 261.851V262.19C637.135 262.735 637.091 263.384 637.002 263.929H637.71C638.344 263.929 638.771 264.268 638.771 264.902C638.771 265.536 638.344 265.875 637.71 265.875H636.811V267.688H639.184C639.847 267.688 640.245 268.027 640.245 268.69C640.245 269.353 639.847 269.692 639.184 269.692H628.129C627.466 269.692 627.068 269.353 627.068 268.69C627.068 268.027 627.466 267.688 628.129 267.688H630.502V265.875ZM637.784 260.347H629.529C628.895 260.347 628.468 260.008 628.468 259.374C628.468 258.741 628.895 258.402 629.529 258.402H637.784C638.417 258.402 638.845 258.741 638.845 259.374C638.845 260.008 638.417 260.347 637.784 260.347ZM632.684 265.875V267.688H634.629V265.875H632.684ZM650.117 270.311V258.785C650.117 258.092 650.603 257.709 651.296 257.709C651.989 257.709 652.475 258.092 652.475 258.785V262.278H653.522C654.141 262.278 654.568 262.617 654.568 263.295C654.568 263.958 654.141 264.297 653.522 264.297H652.475V270.311C652.475 271.004 651.989 271.387 651.296 271.387C650.603 271.387 650.117 271.004 650.117 270.311ZM645.65 260.377H642.57C641.951 260.377 641.582 260.008 641.582 259.389C641.582 258.77 641.951 258.402 642.57 258.402H646.874C647.832 258.402 648.348 258.873 648.348 259.831V260.642C648.348 263.988 646.063 266.567 642.835 268.1C642.29 268.351 641.627 268.292 641.302 267.673C641.022 267.172 641.17 266.494 641.789 266.169C644.294 264.843 645.99 263.31 645.99 261.114V260.716C645.99 260.45 645.945 260.377 645.65 260.377ZM661.352 260.377H659.687C659.053 260.377 658.611 260.023 658.611 259.389C658.611 258.755 659.053 258.402 659.687 258.402H665.17C665.789 258.402 666.246 258.755 666.246 259.389C666.246 260.023 665.789 260.377 665.17 260.377H663.652V261.335C663.652 263.177 664.565 264.622 666.216 265.875C666.732 266.258 666.894 266.715 666.688 267.231C666.482 267.761 665.715 267.982 665.17 267.688C664.108 267.098 663.121 266.022 662.502 265.005C661.927 266.066 660.91 267.275 659.834 267.835C659.274 268.115 658.522 267.909 658.316 267.378C658.109 266.862 658.272 266.405 658.787 266.022C660.438 264.769 661.352 263.177 661.352 261.335V260.377ZM667.499 270.311V258.785C667.499 258.092 667.985 257.709 668.678 257.709C669.371 257.709 669.857 258.092 669.857 258.785V261.836H670.904C671.523 261.836 671.95 262.175 671.95 262.853C671.95 263.516 671.523 263.855 670.904 263.855H669.857V270.311C669.857 271.004 669.371 271.387 668.678 271.387C667.985 271.387 667.499 271.004 667.499 270.311ZM681.777 266.081V258.785C681.777 258.092 682.264 257.709 682.957 257.709C683.649 257.709 684.136 258.092 684.136 258.785V266.081C684.136 266.774 683.649 267.157 682.957 267.157C682.264 267.157 681.777 266.774 681.777 266.081ZM675.778 266.11C676.471 266.11 676.972 266.523 676.972 267.231V269.029C676.972 269.235 677.016 269.279 677.223 269.279H683.502C684.121 269.279 684.504 269.633 684.504 270.252C684.504 270.871 684.121 271.225 683.502 271.225H675.926C674.968 271.225 674.584 270.857 674.584 269.928V267.231C674.584 266.523 675.086 266.11 675.778 266.11ZM676.501 262.912C675.896 263.782 674.982 264.636 674.069 265.108C673.479 265.418 672.83 265.344 672.521 264.843C672.197 264.312 672.359 263.737 672.948 263.325C674.422 262.278 675.321 261.128 675.321 259.684V258.903C675.321 258.195 675.793 257.886 676.501 257.886C677.208 257.886 677.68 258.195 677.68 258.903V259.684C677.68 261.128 678.535 262.175 679.994 263.118C680.583 263.501 680.746 264.091 680.421 264.622C680.112 265.123 679.463 265.182 678.874 264.887C677.989 264.445 677.12 263.767 676.501 262.912ZM689.774 261.143C689.774 259.021 691.395 257.886 693.518 257.886C695.272 257.886 696.657 258.667 697.085 260.126H699.015V258.785C699.015 258.092 699.502 257.709 700.195 257.709C700.887 257.709 701.374 258.092 701.374 258.785V263.575C701.374 264.268 700.887 264.651 700.195 264.651C699.502 264.651 699.015 264.268 699.015 263.575V262.086H697.114C696.701 263.605 695.301 264.401 693.518 264.401C691.395 264.401 689.774 263.266 689.774 261.143ZM691.085 270.12V266.332C691.085 265.698 691.395 265.329 692.029 265.329C692.648 265.329 692.972 265.698 692.972 266.332V266.995H694.461V266.332C694.461 265.698 694.77 265.329 695.404 265.329C696.038 265.329 696.348 265.698 696.348 266.332V270.12C696.348 271.034 695.964 271.387 695.05 271.387H692.383C691.469 271.387 691.085 271.034 691.085 270.12ZM699.472 269.707C699.104 270.311 698.691 270.871 698.057 271.24C697.586 271.52 696.981 271.461 696.701 271.048C696.392 270.621 696.48 270.09 696.908 269.692C697.748 268.911 698.382 268.145 698.382 266.818V266.332C698.382 265.698 698.839 265.329 699.472 265.329C700.106 265.329 700.563 265.698 700.563 266.332V266.818C700.563 268.145 701.197 268.837 702.037 269.618C702.465 270.016 702.553 270.547 702.243 270.975C701.963 271.387 701.344 271.461 700.887 271.166C700.298 270.783 699.87 270.252 699.472 269.707ZM692.044 261.143C692.044 262.042 692.618 262.632 693.518 262.632C694.417 262.632 694.991 262.042 694.991 261.143C694.991 260.244 694.417 259.654 693.518 259.654C692.618 259.654 692.044 260.244 692.044 261.143ZM694.461 269.722V268.542H693.031V269.722C693.031 269.781 693.061 269.81 693.134 269.81H694.358C694.431 269.81 694.461 269.781 694.461 269.722ZM715.214 269.692H704.159C703.496 269.692 703.098 269.353 703.098 268.69C703.098 268.027 703.496 267.688 704.159 267.688H707.387V264.017C707.387 263.398 707.785 262.927 708.581 262.927C709.377 262.927 709.775 263.398 709.775 264.017V267.688H715.214C715.877 267.688 716.275 268.027 716.275 268.69C716.275 269.353 715.877 269.692 715.214 269.692ZM711.956 260.421H705.766C705.147 260.421 704.719 260.052 704.719 259.404C704.719 258.755 705.147 258.402 705.766 258.402H713.15C714.094 258.402 714.58 258.858 714.58 259.802V261.143C714.58 262.16 714.418 263.87 714.241 264.887C714.123 265.521 713.622 265.963 712.885 265.845C712.133 265.742 711.883 265.211 711.971 264.563C712.133 263.384 712.236 262.19 712.236 261.246V260.716C712.236 260.495 712.177 260.421 711.956 260.421ZM730.267 261.998V258.8C730.267 258.092 730.753 257.709 731.446 257.709C732.154 257.709 732.625 258.092 732.625 258.8V270.297C732.625 271.004 732.154 271.387 731.446 271.387C730.753 271.387 730.267 271.004 730.267 270.297V263.958H728.395C728.189 266.405 726.995 267.953 724.651 267.953C722.042 267.953 720.833 266.037 720.833 263.104C720.833 260.17 722.042 258.254 724.651 258.254C726.906 258.254 728.1 259.699 728.366 261.998H730.267ZM724.651 265.978C725.83 265.978 726.169 264.695 726.169 263.104C726.169 261.512 725.83 260.229 724.651 260.229C723.472 260.229 723.133 261.512 723.133 263.104C723.133 264.695 723.472 265.978 724.651 265.978ZM735.882 258.357H739.729C740.687 258.357 741.174 258.829 741.174 259.787V262.543C741.174 263.501 740.687 263.973 739.729 263.973H737.386C737.238 263.973 737.179 264.032 737.179 264.18V266.096C737.179 266.243 737.238 266.302 737.386 266.302H737.843C739.184 266.302 740.127 266.214 741.336 266.037C741.896 265.948 742.338 266.14 742.441 266.744C742.559 267.349 742.191 267.776 741.631 267.864C740.481 268.056 738.963 268.174 737.636 268.174H736.339C735.381 268.174 734.88 267.702 734.88 266.744V263.56C734.88 262.602 735.44 262.131 736.398 262.131H738.683C738.83 262.131 738.889 262.086 738.889 261.91V260.45C738.889 260.303 738.83 260.229 738.683 260.229H735.882C735.307 260.229 734.88 259.905 734.88 259.301C734.88 258.682 735.307 258.357 735.882 258.357ZM743.974 260.067V258.785C743.974 258.092 744.461 257.709 745.154 257.709C745.846 257.709 746.333 258.092 746.333 258.785V270.311C746.333 271.004 745.846 271.387 745.154 271.387C744.461 271.387 743.974 271.004 743.974 270.311V265.256H742.677C742.058 265.256 741.616 264.887 741.616 264.268C741.616 263.649 742.058 263.28 742.677 263.28H743.974V262.042H742.677C742.058 262.042 741.616 261.674 741.616 261.055C741.616 260.436 742.058 260.067 742.677 260.067H743.974ZM751.86 269.766H758.669C759.288 269.766 759.672 269.958 759.672 270.577C759.672 271.196 759.288 271.387 758.669 271.387H750.872C749.914 271.387 749.59 271.092 749.59 270.134V268.823C749.59 267.864 749.914 267.584 750.872 267.584H757.122C757.195 267.584 757.225 267.555 757.225 267.481V267.127C757.225 267.054 757.195 267.024 757.122 267.024H750.607C750.017 267.024 749.59 266.833 749.59 266.243C749.59 265.653 750.017 265.462 750.607 265.462H753.363V264.577H748.838C748.293 264.577 747.895 264.327 747.895 263.782C747.895 263.236 748.293 262.986 748.838 262.986H760.143C760.689 262.986 761.072 263.236 761.072 263.782C761.072 264.327 760.689 264.577 760.143 264.577H755.603V265.462H758.109C759.067 265.462 759.377 265.757 759.377 266.715V267.894C759.377 268.852 759.067 269.147 758.109 269.147H751.86C751.786 269.147 751.756 269.176 751.756 269.25V269.663C751.756 269.736 751.786 269.766 751.86 269.766ZM754.483 257.665C757.077 257.665 759.421 258.136 759.421 260.097C759.421 262.042 757.077 262.529 754.483 262.529C751.889 262.529 749.545 262.057 749.545 260.097C749.545 258.136 751.889 257.665 754.483 257.665ZM754.483 260.893C755.987 260.893 757.151 260.73 757.151 260.097C757.151 259.463 755.987 259.301 754.483 259.301C752.98 259.301 751.815 259.463 751.815 260.097C751.815 260.73 752.98 260.893 754.483 260.893ZM773.28 265.875V258.844C773.28 258.21 773.619 257.856 774.253 257.856C774.887 257.856 775.226 258.21 775.226 258.844V260.996H775.978V258.711C775.978 258.077 776.317 257.709 776.95 257.709C777.584 257.709 777.923 258.077 777.923 258.711V266.169C777.923 266.803 777.584 267.157 776.95 267.157C776.317 267.157 775.978 266.803 775.978 266.169V262.691H775.226V265.875C775.226 266.508 774.887 266.862 774.253 266.862C773.619 266.862 773.28 266.508 773.28 265.875ZM769.124 266.11C769.816 266.11 770.318 266.523 770.318 267.231V269.029C770.318 269.235 770.362 269.279 770.568 269.279H777.142C777.761 269.279 778.144 269.633 778.144 270.252C778.144 270.871 777.761 271.225 777.142 271.225H769.271C768.313 271.225 767.93 270.857 767.93 269.928V267.231C767.93 266.523 768.431 266.11 769.124 266.11ZM772.072 263.339C772.632 263.28 772.941 263.457 773.015 264.047C773.089 264.622 772.882 264.99 772.293 265.123C771.954 265.197 771.629 265.211 771.276 265.211H770.657C769.698 265.211 769.315 264.872 769.315 263.914V259.183C769.315 258.298 769.625 258.018 770.509 258.018H771.998C772.587 258.018 772.838 258.343 772.838 258.932C772.838 259.522 772.587 259.846 771.998 259.846H771.423C771.231 259.846 771.202 259.861 771.202 260.052V263.148C771.202 263.339 771.231 263.369 771.423 263.369H771.659C771.777 263.369 771.909 263.354 772.072 263.339ZM768.166 263.443C768.726 263.369 769.05 263.516 769.124 264.106C769.197 264.695 768.976 265.049 768.387 265.152C768.033 265.226 767.694 265.27 767.134 265.27H766.854C765.896 265.27 765.527 264.917 765.527 263.958V259.315C765.527 258.357 765.896 258.018 766.854 258.018H768.003C768.593 258.018 768.844 258.313 768.844 258.903C768.844 259.492 768.593 259.787 768.003 259.787H767.635C767.429 259.787 767.429 259.817 767.429 259.993V263.251C767.429 263.443 767.443 263.472 767.635 263.472H767.723C767.885 263.472 768.003 263.457 768.166 263.443ZM781.571 260.878C781.232 261.408 780.657 261.674 780.038 261.423C779.434 261.173 779.316 260.524 779.64 259.92C780.288 258.652 781.63 258.092 783.119 258.092C785.212 258.092 786.745 259.183 786.745 261.261C786.745 261.954 786.538 262.706 786.14 263.384L784.607 266.051C784.283 266.671 783.679 266.818 783.119 266.582C782.514 266.332 782.308 265.668 782.662 265.049L783.708 263.236C784.018 262.706 784.401 261.998 784.401 261.349C784.401 260.583 783.826 260.097 783.06 260.097C782.396 260.097 781.91 260.377 781.571 260.878ZM782.219 268.985C782.219 268.262 782.809 267.673 783.531 267.673C784.253 267.673 784.843 268.262 784.843 268.985C784.843 269.707 784.253 270.297 783.531 270.297C782.809 270.297 782.219 269.707 782.219 268.985Z" fill="#E3EDFD"/>
<path d="M617.596 287.893C618.254 287.893 618.679 288.216 618.899 288.744L621.994 296.251C622.226 296.818 621.968 297.373 621.362 297.553C620.782 297.747 620.24 297.424 620.008 296.831L619.427 295.309H615.752L615.184 296.831C614.952 297.424 614.41 297.747 613.817 297.553C613.224 297.373 612.966 296.818 613.198 296.251L616.293 288.744C616.513 288.216 616.938 287.893 617.596 287.893ZM617.57 290.498L616.435 293.504H618.757L617.622 290.498H617.57ZM623.305 296.521V288.977C623.305 288.332 623.743 287.893 624.388 287.893C625.033 287.893 625.484 288.332 625.484 288.977V296.521C625.484 297.166 625.033 297.605 624.388 297.605C623.743 297.605 623.305 297.166 623.305 296.521ZM634.791 298.198V288.112C634.791 287.506 635.217 287.171 635.823 287.171C636.429 287.171 636.855 287.506 636.855 288.112V291.169H637.771C638.312 291.169 638.686 291.466 638.686 292.059C638.686 292.639 638.312 292.936 637.771 292.936H636.855V298.198C636.855 298.804 636.429 299.14 635.823 299.14C635.217 299.14 634.791 298.804 634.791 298.198ZM630.883 289.505H628.188C627.646 289.505 627.324 289.183 627.324 288.641C627.324 288.1 627.646 287.777 628.188 287.777H631.954C632.792 287.777 633.244 288.19 633.244 289.028V289.738C633.244 292.665 631.245 294.922 628.42 296.264C627.943 296.483 627.362 296.431 627.079 295.89C626.834 295.451 626.963 294.858 627.504 294.574C629.697 293.413 631.18 292.072 631.18 290.15V289.802C631.18 289.57 631.141 289.505 630.883 289.505ZM652.554 297.656H642.881C642.301 297.656 641.953 297.36 641.953 296.779C641.953 296.199 642.301 295.902 642.881 295.902H646.686V293.994H644.687C643.81 293.994 643.436 293.645 643.436 292.768V289.002C643.436 288.125 643.81 287.777 644.687 287.777H651.071C651.651 287.777 652 288.074 652 288.654C652 289.235 651.651 289.531 651.071 289.531H645.641C645.512 289.531 645.486 289.557 645.486 289.673V292.098C645.486 292.214 645.512 292.24 645.641 292.24H651.2C651.78 292.24 652.129 292.536 652.129 293.117C652.129 293.697 651.78 293.994 651.2 293.994H648.75V295.902H652.554C653.135 295.902 653.483 296.199 653.483 296.779C653.483 297.36 653.135 297.656 652.554 297.656ZM654.717 290.524C654.717 288.732 656.162 287.519 658.019 287.519C659.876 287.519 661.321 288.732 661.321 290.524C661.321 292.02 660.354 293.078 658.999 293.413V295.374C659.657 295.335 660.276 295.283 660.998 295.193C661.488 295.129 661.837 295.374 661.927 295.825C662.004 296.238 661.824 296.715 661.385 296.831C660.354 297.089 658.909 297.115 657.813 297.115H654.95C654.408 297.115 654.047 296.805 654.047 296.251C654.047 295.709 654.408 295.387 654.95 295.387H657.039V293.413C655.659 293.078 654.717 292.02 654.717 290.524ZM662.378 298.198V288.112C662.378 287.506 662.804 287.171 663.41 287.171C664.016 287.171 664.442 287.506 664.442 288.112V291.285H665.306C665.848 291.285 666.222 291.569 666.222 292.162C666.222 292.755 665.848 293.039 665.306 293.039H664.442V298.198C664.442 298.804 664.016 299.14 663.41 299.14C662.804 299.14 662.378 298.804 662.378 298.198ZM656.742 290.524C656.742 291.272 657.271 291.84 658.019 291.84C658.767 291.84 659.296 291.272 659.296 290.524C659.296 289.776 658.767 289.209 658.019 289.209C657.271 289.209 656.742 289.776 656.742 290.524ZM671.026 289.247H668.536C667.982 289.247 667.608 288.938 667.608 288.383C667.608 287.829 667.982 287.519 668.536 287.519H675.656C676.21 287.519 676.584 287.829 676.584 288.383C676.584 288.938 676.21 289.247 675.656 289.247H673.154C673.373 290.163 674.805 290.744 676.275 291.324C676.752 291.504 676.958 292.033 676.765 292.498C676.571 292.962 676.081 293.117 675.565 292.962C674.289 292.588 672.844 291.749 672.096 291.001C671.348 291.749 669.904 292.588 668.627 292.962C668.111 293.117 667.621 292.962 667.427 292.498C667.234 292.033 667.44 291.504 667.917 291.324C669.388 290.744 670.806 290.163 671.026 289.247ZM671.064 295.528H667.26C666.679 295.528 666.331 295.232 666.331 294.651C666.331 294.071 666.679 293.774 667.26 293.774H676.933C677.513 293.774 677.861 294.071 677.861 294.651C677.861 295.232 677.513 295.528 676.933 295.528H673.128V298.198C673.128 298.83 672.728 299.14 672.096 299.14C671.464 299.14 671.064 298.83 671.064 298.198V295.528ZM679.934 297.889V295.993C679.934 295.412 680.36 295.141 680.94 295.141C681.521 295.141 681.959 295.412 681.959 295.993V297.218C681.959 297.334 681.998 297.36 682.101 297.36H687.905C688.485 297.36 688.82 297.605 688.82 298.185C688.82 298.766 688.485 298.998 687.905 298.998H681.043C680.269 298.998 679.934 298.662 679.934 297.889ZM689.04 294.419H679.392C678.812 294.419 678.451 294.239 678.451 293.658C678.451 293.078 678.812 292.884 679.392 292.884H689.04C689.62 292.884 689.981 293.078 689.981 293.658C689.981 294.239 689.62 294.419 689.04 294.419ZM682.011 288.229V290.112C682.011 290.228 682.036 290.253 682.165 290.253H687.698C688.24 290.253 688.627 290.537 688.627 291.079C688.627 291.621 688.24 291.904 687.698 291.904H681.25C680.373 291.904 679.999 291.556 679.999 290.679V288.229C679.999 287.635 680.386 287.287 681.005 287.287C681.624 287.287 682.011 287.635 682.011 288.229ZM694.486 293.117H696.652V292.188C695.13 291.93 694.253 291.04 694.253 289.75C694.253 288.216 695.492 287.248 697.581 287.248C699.67 287.248 700.908 288.216 700.908 289.75C700.908 291.04 700.031 291.93 698.51 292.188V293.104C699.258 293.078 699.928 293.026 700.663 292.923C701.154 292.859 701.502 293.001 701.592 293.452C701.682 293.878 701.476 294.252 701.037 294.368C700.031 294.626 698.806 294.638 697.594 294.638H694.486C693.931 294.638 693.583 294.432 693.583 293.89C693.583 293.336 693.931 293.117 694.486 293.117ZM701.966 294.884V288.112C701.966 287.506 702.34 287.171 702.946 287.171C703.565 287.171 703.926 287.506 703.926 288.112V290.344H704.855C705.397 290.344 705.771 290.589 705.771 291.182C705.771 291.762 705.397 292.007 704.855 292.007H703.926V294.884C703.926 295.49 703.552 295.825 702.946 295.825C702.34 295.825 701.966 295.49 701.966 294.884ZM696.446 295.258C697.052 295.258 697.413 295.619 697.413 296.238V297.141C697.413 297.321 697.452 297.36 697.633 297.36H703.372C703.914 297.36 704.249 297.695 704.249 298.172C704.249 298.65 703.914 298.998 703.372 298.998H696.614C695.775 298.998 695.453 298.675 695.453 297.863V296.238C695.453 295.619 695.827 295.258 696.446 295.258ZM698.948 289.75C698.948 289.106 698.355 288.77 697.581 288.77C696.807 288.77 696.214 289.106 696.214 289.75C696.214 290.395 696.807 290.731 697.581 290.731C698.355 290.731 698.948 290.395 698.948 289.75ZM706.46 292.175V288.306C706.46 287.7 706.821 287.377 707.428 287.377C708.034 287.377 708.395 287.7 708.395 288.306V289.131H710.678V288.306C710.678 287.7 711.026 287.377 711.632 287.377C712.238 287.377 712.587 287.7 712.587 288.306V288.499H714.341V288.1C714.341 287.493 714.753 287.171 715.359 287.171C715.966 287.171 716.404 287.493 716.404 288.1V292.755C716.404 293.362 715.979 293.697 715.372 293.697C714.766 293.697 714.341 293.362 714.341 292.755V292.304H712.587C712.548 293.052 712.187 293.349 711.4 293.349H707.66C706.821 293.349 706.46 293.013 706.46 292.175ZM714.341 298.198V296.186C714.341 296.096 714.289 296.044 714.199 296.044H708.679C708.176 296.044 707.789 295.735 707.789 295.193C707.789 294.651 708.176 294.342 708.679 294.342H715.256C716.095 294.342 716.404 294.626 716.404 295.464V298.198C716.404 298.804 715.979 299.14 715.372 299.14C714.766 299.14 714.341 298.804 714.341 298.198ZM708.395 290.602V291.737C708.395 291.827 708.447 291.878 708.524 291.878H710.549C710.626 291.878 710.678 291.827 710.678 291.737V290.602H708.395ZM712.587 289.97V290.834H714.341V289.97H712.587ZM718.493 292.33C718.493 290.782 719.847 290.047 721.64 290.047C723.433 290.047 724.787 290.782 724.787 292.33C724.787 293.878 723.433 294.613 721.64 294.613C719.847 294.613 718.493 293.878 718.493 292.33ZM725.935 294.884V288.1C725.935 287.493 726.36 287.171 726.967 287.171C727.573 287.171 727.998 287.493 727.998 288.1V290.524H728.888C729.43 290.524 729.817 290.795 729.817 291.375C729.817 291.956 729.43 292.227 728.888 292.227H727.998V294.884C727.998 295.49 727.573 295.825 726.967 295.825C726.36 295.825 725.935 295.49 725.935 294.884ZM721.859 296.147V297.076C721.859 297.257 721.898 297.295 722.078 297.295H727.444C727.985 297.295 728.321 297.605 728.321 298.147C728.321 298.688 727.985 298.998 727.444 298.998H720.931C720.092 298.998 719.77 298.688 719.77 297.863V296.147C719.77 295.528 720.195 295.167 720.815 295.167C721.434 295.167 721.859 295.528 721.859 296.147ZM724.348 289.686H718.803C718.222 289.686 717.861 289.48 717.861 288.899C717.861 288.319 718.222 288.112 718.803 288.112H720.673V287.609C720.673 287.029 721.06 286.72 721.64 286.72C722.22 286.72 722.607 287.029 722.607 287.609V288.112H724.348C724.929 288.112 725.29 288.319 725.29 288.899C725.29 289.48 724.929 289.686 724.348 289.686ZM722.814 292.33C722.814 291.775 722.22 291.53 721.64 291.53C721.06 291.53 720.466 291.775 720.466 292.33C720.466 292.884 721.06 293.13 721.64 293.13C722.22 293.13 722.814 292.884 722.814 292.33ZM741.17 295.103H735.714C735.198 295.103 734.915 294.896 734.915 294.381C734.915 293.865 735.198 293.658 735.714 293.658H742.15C742.988 293.658 743.208 293.865 743.208 294.69V295.941C743.208 296.779 742.937 297.024 742.098 297.024H736.939C736.888 297.024 736.849 297.05 736.849 297.115V297.605C736.849 297.669 736.888 297.682 736.939 297.682H742.679C743.195 297.682 743.491 297.901 743.491 298.417C743.491 298.933 743.195 299.14 742.679 299.14H736.011C735.173 299.14 734.915 298.895 734.915 298.056V296.676C734.915 295.838 735.16 295.606 735.998 295.606H741.17C741.234 295.606 741.273 295.58 741.273 295.516V295.193C741.273 295.129 741.234 295.103 741.17 295.103ZM733.535 291.659V288.241C733.535 287.635 733.87 287.313 734.476 287.313C735.082 287.313 735.418 287.635 735.418 288.241V288.809H737.842V288.241C737.842 287.635 738.178 287.313 738.784 287.313C739.39 287.313 739.725 287.635 739.725 288.241V291.659C739.725 292.498 739.377 292.833 738.539 292.833H734.734C733.896 292.833 733.535 292.498 733.535 291.659ZM741.144 292.24V288.1C741.144 287.493 741.57 287.171 742.176 287.171C742.782 287.171 743.208 287.493 743.208 288.1V289.17H744.097C744.639 289.17 745.026 289.441 745.026 290.021C745.026 290.602 744.639 290.872 744.097 290.872H743.208V292.24C743.208 292.846 742.782 293.181 742.176 293.181C741.57 293.181 741.144 292.846 741.144 292.24ZM735.418 290.228V291.272C735.418 291.363 735.456 291.414 735.547 291.414H737.713C737.804 291.414 737.842 291.363 737.842 291.272V290.228H735.418ZM748.247 294.316H747.46C746.906 294.316 746.532 294.019 746.532 293.465C746.532 292.91 746.906 292.614 747.46 292.614H748.079C748.002 292.136 747.963 291.569 747.963 291.092V290.795C747.963 290.241 748.298 289.866 748.943 289.866C749.575 289.866 749.923 290.241 749.923 290.795V291.092C749.923 291.608 749.923 292.111 749.975 292.614H752.026C752.077 292.111 752.09 291.608 752.09 291.092V290.795C752.09 290.241 752.438 289.866 753.07 289.866C753.715 289.866 754.051 290.241 754.051 290.795V291.092C754.051 291.569 754.012 292.136 753.935 292.614H754.554C755.108 292.614 755.482 292.91 755.482 293.465C755.482 294.019 755.108 294.316 754.554 294.316H753.767V295.902H755.843C756.424 295.902 756.772 296.199 756.772 296.779C756.772 297.36 756.424 297.656 755.843 297.656H746.17C745.59 297.656 745.242 297.36 745.242 296.779C745.242 296.199 745.59 295.902 746.17 295.902H748.247V294.316ZM754.618 289.48H747.396C746.841 289.48 746.467 289.183 746.467 288.628C746.467 288.074 746.841 287.777 747.396 287.777H754.618C755.173 287.777 755.547 288.074 755.547 288.628C755.547 289.183 755.173 289.48 754.618 289.48ZM750.156 294.316V295.902H751.858V294.316H750.156ZM762.721 287.326H769.711C770.279 287.326 770.64 287.558 770.64 288.125C770.64 288.693 770.279 288.925 769.711 288.925H767.248C767.428 289.66 768.886 290.318 770.214 290.718C770.73 290.872 770.924 291.285 770.795 291.685C770.653 292.136 770.292 292.317 769.698 292.201C768.434 291.943 767.016 291.246 766.216 290.602C765.416 291.246 763.998 291.943 762.734 292.201C762.141 292.317 761.779 292.136 761.638 291.685C761.509 291.285 761.702 290.872 762.218 290.718C763.533 290.318 765.004 289.66 765.171 288.925H762.721C762.153 288.925 761.792 288.693 761.792 288.125C761.792 287.558 762.153 287.326 762.721 287.326ZM765.326 294.522H761.38C760.825 294.522 760.451 294.252 760.451 293.697C760.451 293.142 760.825 292.884 761.38 292.884H771.065C771.62 292.884 771.981 293.142 771.981 293.697C771.981 294.252 771.62 294.522 771.065 294.522H767.364V295.632C767.364 296.212 766.925 296.509 766.345 296.509C765.765 296.509 765.326 296.212 765.326 295.632V294.522ZM761.934 297.889V296.057C761.934 295.477 762.36 295.206 762.94 295.206C763.521 295.206 763.959 295.477 763.959 296.057V297.218C763.959 297.334 763.998 297.36 764.101 297.36H769.905C770.485 297.36 770.82 297.605 770.82 298.185C770.82 298.766 770.485 298.998 769.905 298.998H763.043C762.27 298.998 761.934 298.662 761.934 297.889ZM781.135 298.198V288.112C781.135 287.506 781.56 287.171 782.167 287.171C782.773 287.171 783.198 287.506 783.198 288.112V298.198C783.198 298.804 782.773 299.14 782.167 299.14C781.56 299.14 781.135 298.804 781.135 298.198ZM777.266 292.085H774.983V294.161C774.983 294.342 775.021 294.393 775.202 294.393H777.046C777.227 294.393 777.266 294.342 777.266 294.161V292.085ZM773.048 294.793V288.603C773.048 288.022 773.435 287.713 774.015 287.713C774.596 287.713 774.983 288.022 774.983 288.603V290.408H777.266V288.603C777.266 288.022 777.652 287.713 778.233 287.713C778.813 287.713 779.2 288.022 779.2 288.603V294.793C779.2 295.632 778.749 296.07 777.91 296.07H774.338C773.5 296.07 773.048 295.632 773.048 294.793Z" fill="#E3EDFD"/>
<path fill-rule="evenodd" clip-rule="evenodd" d="M735.423 312.629H661.565C659.33 312.629 657.518 314.725 657.518 317.309V336.615C657.518 339.2 659.33 341.296 661.565 341.296H735.423C737.658 341.296 739.47 339.2 739.47 336.615V317.309C739.47 314.725 737.658 312.629 735.423 312.629ZM661.565 310.289C658.212 310.289 655.494 313.432 655.494 317.309V336.615C655.494 340.493 658.212 343.636 661.565 343.636H735.423C738.775 343.636 741.493 340.493 741.493 336.615V317.309C741.493 313.432 738.775 310.289 735.423 310.289H661.565Z" fill="#E3EDFD"/>
<path d="M674.726 347.538L670.652 342.272C669.486 340.764 670.411 338.371 672.16 338.371H680.309C682.058 338.371 682.983 340.764 681.817 342.272L677.742 347.538C676.938 348.577 675.531 348.577 674.726 347.538Z" fill="#3D6BE1"/>
<path fill-rule="evenodd" clip-rule="evenodd" d="M672.16 339.539C671.286 339.539 670.823 340.736 671.406 341.49L675.481 346.756C675.883 347.275 676.586 347.275 676.989 346.756L681.063 341.49C681.646 340.736 681.183 339.539 680.309 339.539H672.16ZM669.898 343.05C668.149 340.789 669.537 337.199 672.16 337.199H680.309C682.932 337.199 684.32 340.789 682.571 343.05L678.497 348.316C677.29 349.875 675.179 349.875 673.973 348.316L669.898 343.05Z" fill="#E3EDFD"/>
<rect x="667.129" y="336.617" width="18.2116" height="4.68023" fill="#3D6BE1"/>
<path d="M677.041 328.745H673.503C673.334 328.745 673.166 328.745 673.016 328.707V328.838V331.422H678.614C679.456 331.422 679.962 331.852 679.962 332.695C679.962 333.537 679.456 333.968 678.614 333.968H664.573C663.731 333.968 663.225 333.537 663.225 332.695C663.225 331.852 663.731 331.422 664.573 331.422H670.096V328.838C670.096 328.745 670.096 328.67 670.114 328.576C669.347 328.707 668.692 328.745 667.924 328.745H666.707C665.49 328.745 664.816 328.127 664.816 326.91V321.369C664.816 320.245 665.472 319.628 666.595 319.628H669.609C670.451 319.628 670.957 320.077 670.957 320.919C670.957 321.762 670.451 322.211 669.609 322.211H667.905C667.662 322.211 667.624 322.23 667.624 322.473V325.862C667.624 326.105 667.662 326.143 667.905 326.143H668.635C669.103 326.143 669.459 326.105 669.927 326.049C670.639 325.955 671.144 326.311 671.238 327.06C671.256 327.21 671.256 327.378 671.238 327.509C671.331 327.509 671.444 327.49 671.556 327.49H671.668C671.631 327.322 671.612 327.135 671.612 326.91V321.369C671.612 320.245 672.267 319.628 673.391 319.628H676.929C677.752 319.628 678.277 320.114 678.277 320.919C678.277 321.743 677.752 322.211 676.929 322.211H674.701C674.458 322.211 674.42 322.23 674.42 322.473V325.843C674.42 326.086 674.458 326.124 674.701 326.124H677.041C677.865 326.124 678.389 326.611 678.389 327.434C678.389 328.258 677.865 328.745 677.041 328.745ZM689.373 329.157C692.799 329.157 695.401 330.149 695.401 332.732C695.401 335.316 692.799 336.308 689.373 336.308C685.947 336.308 683.345 335.316 683.345 332.732C683.345 330.149 685.947 329.157 689.373 329.157ZM690.534 327.809C688.643 328.09 686.902 328.183 684.861 328.183H683.42C682.147 328.183 681.604 327.64 681.604 326.423V324.289C681.604 323.072 682.147 322.511 683.42 322.511H687.164C687.351 322.511 687.407 322.455 687.407 322.267V321.575C687.407 321.387 687.351 321.35 687.164 321.35H682.989C682.24 321.35 681.697 320.957 681.697 320.227C681.697 319.478 682.24 319.085 682.989 319.085H688.4C689.691 319.085 690.216 319.609 690.216 320.863V322.904C690.216 324.158 689.691 324.701 688.4 324.701H684.637C684.449 324.701 684.412 324.738 684.412 324.926V325.749C684.412 325.937 684.449 325.974 684.637 325.974H685.348C687.07 325.974 688.662 325.843 690.159 325.618C690.871 325.506 691.451 325.712 691.601 326.461C691.751 327.21 691.245 327.696 690.534 327.809ZM692.462 327.416V320.096C692.462 319.216 693.08 318.748 693.96 318.748C694.84 318.748 695.457 319.216 695.457 320.096V322.38H696.749C697.535 322.38 698.097 322.773 698.097 323.615C698.097 324.458 697.535 324.851 696.749 324.851H695.457V327.416C695.457 328.295 694.84 328.782 693.96 328.782C693.08 328.782 692.462 328.295 692.462 327.416ZM689.373 334.08C690.815 334.08 692.406 333.837 692.406 332.732C692.406 331.628 690.815 331.384 689.373 331.384C687.932 331.384 686.34 331.628 686.34 332.732C686.34 333.837 687.932 334.08 689.373 334.08ZM712.226 328.745H708.688C708.519 328.745 708.351 328.745 708.201 328.707V328.838V331.422H713.799C714.641 331.422 715.147 331.852 715.147 332.695C715.147 333.537 714.641 333.968 713.799 333.968H699.758C698.916 333.968 698.41 333.537 698.41 332.695C698.41 331.852 698.916 331.422 699.758 331.422H705.281V328.838C705.281 328.745 705.281 328.67 705.299 328.576C704.532 328.707 703.877 328.745 703.109 328.745H701.892C700.675 328.745 700.001 328.127 700.001 326.91V321.369C700.001 320.245 700.657 319.628 701.78 319.628H704.794C705.636 319.628 706.142 320.077 706.142 320.919C706.142 321.762 705.636 322.211 704.794 322.211H703.09C702.847 322.211 702.81 322.23 702.81 322.473V325.862C702.81 326.105 702.847 326.143 703.09 326.143H703.82C704.289 326.143 704.644 326.105 705.112 326.049C705.824 325.955 706.329 326.311 706.423 327.06C706.441 327.21 706.441 327.378 706.423 327.509C706.516 327.509 706.629 327.49 706.741 327.49H706.853C706.816 327.322 706.797 327.135 706.797 326.91V321.369C706.797 320.245 707.452 319.628 708.576 319.628H712.114C712.938 319.628 713.462 320.114 713.462 320.919C713.462 321.743 712.938 322.211 712.114 322.211H709.886C709.643 322.211 709.605 322.23 709.605 322.473V325.843C709.605 326.086 709.643 326.124 709.886 326.124H712.226C713.05 326.124 713.574 326.611 713.574 327.434C713.574 328.258 713.05 328.745 712.226 328.745ZM724.558 329.157C727.984 329.157 730.586 330.149 730.586 332.732C730.586 335.316 727.984 336.308 724.558 336.308C721.132 336.308 718.53 335.316 718.53 332.732C718.53 330.149 721.132 329.157 724.558 329.157ZM725.719 327.809C723.828 328.09 722.087 328.183 720.046 328.183H718.605C717.332 328.183 716.789 327.64 716.789 326.423V324.289C716.789 323.072 717.332 322.511 718.605 322.511H722.349C722.536 322.511 722.592 322.455 722.592 322.267V321.575C722.592 321.387 722.536 321.35 722.349 321.35H718.174C717.425 321.35 716.883 320.957 716.883 320.227C716.883 319.478 717.425 319.085 718.174 319.085H723.585C724.876 319.085 725.401 319.609 725.401 320.863V322.904C725.401 324.158 724.876 324.701 723.585 324.701H719.822C719.635 324.701 719.597 324.738 719.597 324.926V325.749C719.597 325.937 719.635 325.974 719.822 325.974H720.533C722.255 325.974 723.847 325.843 725.344 325.618C726.056 325.506 726.636 325.712 726.786 326.461C726.936 327.21 726.43 327.696 725.719 327.809ZM727.647 327.416V320.096C727.647 319.216 728.265 318.748 729.145 318.748C730.025 318.748 730.642 319.216 730.642 320.096V322.38H731.934C732.72 322.38 733.282 322.773 733.282 323.615C733.282 324.458 732.72 324.851 731.934 324.851H730.642V327.416C730.642 328.295 730.025 328.782 729.145 328.782C728.265 328.782 727.647 328.295 727.647 327.416ZM724.558 334.08C726 334.08 727.591 333.837 727.591 332.732C727.591 331.628 726 331.384 724.558 331.384C723.117 331.384 721.525 331.628 721.525 332.732C721.525 333.837 723.117 334.08 724.558 334.08Z" fill="#E3EDFD"/>
</g>
</g>
</g>
<path d="M261.129 197.439C261.129 184.357 271.735 173.751 284.817 173.751H1212.09C1225.17 173.751 1235.77 184.357 1235.77 197.439V867.674H261.129V197.439Z" stroke="#757575" stroke-width="15.7919"/>
<path fill-rule="evenodd" clip-rule="evenodd" d="M220.472 127.672V131.283C220.463 130.55 220.421 129.736 220.341 128.868C220.261 129.736 220.219 130.55 220.209 131.283V127.672C219.32 120.686 215.995 111.224 207.322 111.224C211.256 109.438 218.719 103.743 220.209 94.3101V90.9258C220.209 91.7513 220.255 92.5529 220.341 93.3304C220.427 92.5529 220.472 91.7513 220.472 90.9258V94.3101C221.963 103.743 229.426 109.438 233.36 111.224C224.687 111.224 221.362 120.686 220.472 127.672Z" fill="#F75EAB"/>
<path fill-rule="evenodd" clip-rule="evenodd" d="M251.517 101.305V104.916C251.508 104.182 251.466 103.369 251.386 102.501C251.306 103.369 251.264 104.182 251.254 104.916V101.305C250.365 94.3192 247.04 84.8566 238.367 84.8566C242.301 83.0709 249.763 77.3755 251.254 67.9429V64.5586C251.254 65.3841 251.3 66.1857 251.386 66.9632C251.472 66.1857 251.517 65.3841 251.517 64.5586V67.9429C253.008 77.3755 260.471 83.0709 264.405 84.8566C255.732 84.8566 252.407 94.3192 251.517 101.305Z" fill="#F75EAB"/>
</g>
<path d="M247.38 449.454C167.264 418.925 151.575 317.067 153.745 269.954C146.535 252.24 136.053 277.335 131.713 292.097C130.545 264.615 125.504 219.92 114.689 261.003C68.6226 390.28 183.955 440.502 247.38 449.454Z" fill="#EB6342"/>
<path d="M230.355 455.112C-32.4221 427.975 -17.6676 269.802 22.5569 194.107C51.3984 175.639 42.9195 219.705 35.0748 244.047H51.0978C50.2967 217.663 62.1137 202.901 68.1223 198.818C80.8072 192.537 100.969 188.83 80.1396 224.259C19.2521 353.16 154.914 431.87 230.355 455.112Z" fill="#F75EAB"/>
<path d="M177.816 190.37C177.816 175.258 190.067 163.008 205.179 163.008C207.445 163.008 209.283 164.845 209.283 167.112V285.665C191.904 285.665 177.816 271.577 177.816 254.198V190.37Z" fill="#FAD4F2"/>
<path d="M260.527 191.152C260.527 175.608 247.927 163.008 232.383 163.008C230.052 163.008 228.162 164.898 228.162 167.229V285.665C246.037 285.665 260.527 271.174 260.527 253.299V191.152Z" fill="#FAD4F2"/>
<rect width="67.1179" height="55.2683" rx="10.773" transform="matrix(0.963595 0.267367 -0.299074 0.95423 163.777 327.961)" fill="#F4BFE9"/>
<ellipse cx="196.695" cy="294.968" rx="84.5098" ry="70.2104" fill="#FAD4F2"/>
<ellipse cx="153.316" cy="290.281" rx="19.5527" ry="18.1485" fill="#FFFCFF"/>
<ellipse cx="149.514" cy="296.008" rx="12.1544" ry="11.1874" fill="#050006"/>
<ellipse cx="19.3294" cy="18.187" rx="19.3294" ry="18.187" transform="matrix(-1 0 0 1 226.363 271.281)" fill="#FFFCFF"/>
<ellipse cx="12.137" cy="10.9968" rx="12.137" ry="10.9968" transform="matrix(-1 0 0 1 214.677 283.973)" fill="#050006"/>
<path d="M147.737 373.935L154.518 369.78C158.947 371.272 166.772 375.396 159.16 378.04C151.549 380.684 143.257 387.614 140.062 390.749L121.176 363.457L129.463 358.38C145.59 352.538 148.365 366.316 147.737 373.935Z" fill="#FAD4F2"/>
<path d="M180.808 393.796L186.132 385.768C191.183 384.809 200.661 384.631 193.93 391.585C187.2 398.54 181.382 410.243 179.314 415.226L149.948 397.987L156.454 388.174C170.626 373.195 178.595 385.681 180.808 393.796Z" fill="#FAD4F2"/>
<path d="M165.27 318.22C172.097 319.926 187.3 321.72 193.487 315.248" stroke="#050006" stroke-width="11.01" stroke-linecap="round"/>
<defs>
<clipPath id="clip0_935_9415">
<rect x="96.1377" width="599.862" height="772" rx="4" fill="white"/>
</clipPath>
<clipPath id="clip1_935_9415">
<path d="M253.233 197.439C253.233 179.996 267.374 165.855 284.817 165.855H1212.09C1229.53 165.855 1243.67 179.996 1243.67 197.439V875.57H253.233V197.439Z" fill="white"/>
</clipPath>
<clipPath id="clip2_935_9415">
<rect width="884.385" height="1061.26" fill="white" transform="translate(256.138 185)"/>
</clipPath>
<clipPath id="clip3_935_9415">
<rect width="11.0548" height="11.0548" fill="white" transform="translate(685.433 735.898)"/>
</clipPath>
<clipPath id="clip4_935_9415">
<rect width="687.702" height="138.185" fill="white" transform="translate(356.553 231.984)"/>
</clipPath>
</defs>
</svg>
