<svg width="378" height="800" viewBox="0 0 378 800" fill="none" xmlns="http://www.w3.org/2000/svg">
<path fill-rule="evenodd" clip-rule="evenodd" d="M-408.63 292.801C-414.577 278.774 -417.866 263.347 -417.866 247.152C-417.866 182.513 -365.466 130.112 -300.826 130.112C-287.727 130.112 -275.131 132.264 -263.371 136.234C-262.369 60.8228 -200.926 0 -125.277 0C-95.639 0 -68.1819 9.33573 -45.6854 25.2269C-23.189 9.33573 4.26822 0 33.9059 0C110.12 0 171.915 61.735 172.013 137.926C185.087 132.88 199.294 130.112 214.148 130.112C278.788 130.112 331.188 182.513 331.188 247.152C331.188 262.287 328.316 276.75 323.086 290.027C356.444 315.238 378 355.239 378 400.275C378 431.302 367.769 459.939 350.496 482.996C339.093 500.964 322.928 515.612 303.777 525.164C312.317 541.412 317.149 559.912 317.149 579.542C317.149 644.181 264.749 696.582 200.109 696.582C186.913 696.582 174.227 694.398 162.393 690.372C158.364 751.359 107.619 799.58 45.6112 799.58C7.3223 799.58 -26.6723 781.194 -48.0254 752.769C-69.3788 781.191 -103.372 799.575 -141.658 799.575C-204.227 799.575 -255.328 750.478 -258.538 688.709C-271.654 693.793 -285.915 696.582 -300.826 696.582C-365.466 696.582 -417.866 644.181 -417.866 579.542C-417.866 558.317 -412.216 538.411 -402.339 521.247C-436.848 500.891 -460 463.333 -460 420.367C-460 417.125 -459.868 413.915 -459.61 410.74C-459.868 407.287 -460 403.798 -460 400.279C-460 356.859 -439.962 318.118 -408.63 292.801Z" fill="#F6F8FF"/>
</svg>
