<svg width="98" height="39" viewBox="0 0 98 39" fill="none" xmlns="http://www.w3.org/2000/svg">
<mask id="path-1-inside-1_1106_7653" fill="white">
<path fill-rule="evenodd" clip-rule="evenodd" d="M8.33298 0C3.7308 0 0 3.7308 0 8.33298V24.667C0 29.2692 3.7308 33 8.33298 33H17.245L21.9752 37.4852C23.904 39.3141 26.9267 39.3141 28.8555 37.4852L33.5857 33H89.667C94.2692 33 98 29.2692 98 24.667V8.33298C98 3.7308 94.2692 0 89.667 0H8.33298Z"/>
</mask>
<path d="M17.245 33L19.9972 30.0974L18.8399 29H17.245V33ZM21.9752 37.4852L19.2229 40.3878L21.9752 37.4852ZM28.8555 37.4852L26.1033 34.5826L26.1033 34.5826L28.8555 37.4852ZM33.5857 33V29H31.9908L30.8335 30.0974L33.5857 33ZM4 8.33298C4 5.93994 5.93994 4 8.33298 4V-4C1.52166 -4 -4 1.52167 -4 8.33298H4ZM4 24.667V8.33298H-4V24.667H4ZM8.33298 29C5.93994 29 4 27.0601 4 24.667H-4C-4 31.4783 1.52166 37 8.33298 37V29ZM17.245 29H8.33298V37H17.245V29ZM24.7274 34.5826L19.9972 30.0974L14.4927 35.9026L19.2229 40.3878L24.7274 34.5826ZM26.1033 34.5826C25.7176 34.9483 25.1131 34.9483 24.7274 34.5826L19.2229 40.3878C22.6949 43.6799 28.1358 43.6799 31.6078 40.3878L26.1033 34.5826ZM30.8335 30.0974L26.1033 34.5826L31.6078 40.3878L36.338 35.9026L30.8335 30.0974ZM89.667 29H33.5857V37H89.667V29ZM94 24.667C94 27.0601 92.0601 29 89.667 29V37C96.4783 37 102 31.4783 102 24.667H94ZM94 8.33298V24.667H102V8.33298H94ZM89.667 4C92.0601 4 94 5.93994 94 8.33298H102C102 1.52166 96.4783 -4 89.667 -4V4ZM8.33298 4H89.667V-4H8.33298V4Z" fill="#FEFEFE" mask="url(#path-1-inside-1_1106_7653)"/>
</svg>
