<svg width="120" height="52" viewBox="0 0 120 52" fill="none" xmlns="http://www.w3.org/2000/svg">
<path fill-rule="evenodd" clip-rule="evenodd" d="M17.9965 4C14.1324 4 11 7.13242 11 10.9965V35.4841C11 39.3481 14.1324 42.4806 17.9965 42.4806H25.6745L29.0007 46.8451C30.6807 49.0496 33.9983 49.0496 35.6783 46.8451L39.0045 42.4806H103.004C106.868 42.4806 110 39.3481 110 35.4841V10.9965C110 7.13242 106.868 4 103.004 4H17.9965Z" fill="#3D6BE1"/>
<path d="M39.968 24.4615H36.566C36.404 24.4615 36.242 24.4615 36.098 24.4255V24.5515V27.0355H41.48C42.29 27.0355 42.776 27.4495 42.776 28.2595C42.776 29.0695 42.29 29.4835 41.48 29.4835H27.98C27.17 29.4835 26.684 29.0695 26.684 28.2595C26.684 27.4495 27.17 27.0355 27.98 27.0355H33.29V24.5515C33.29 24.4615 33.29 24.3895 33.308 24.2995C32.57 24.4255 31.94 24.4615 31.202 24.4615H30.032C28.862 24.4615 28.214 23.8675 28.214 22.6975V17.3695C28.214 16.2895 28.844 15.6955 29.924 15.6955H32.822C33.632 15.6955 34.118 16.1275 34.118 16.9375C34.118 17.7475 33.632 18.1795 32.822 18.1795H31.184C30.95 18.1795 30.914 18.1975 30.914 18.4315V21.6895C30.914 21.9235 30.95 21.9595 31.184 21.9595H31.886C32.336 21.9595 32.678 21.9235 33.128 21.8695C33.812 21.7795 34.298 22.1215 34.388 22.8415C34.406 22.9855 34.406 23.1475 34.388 23.2735C34.478 23.2735 34.586 23.2555 34.694 23.2555H34.802C34.766 23.0935 34.748 22.9135 34.748 22.6975V17.3695C34.748 16.2895 35.378 15.6955 36.458 15.6955H39.86C40.652 15.6955 41.156 16.1635 41.156 16.9375C41.156 17.7295 40.652 18.1795 39.86 18.1795H37.718C37.484 18.1795 37.448 18.1975 37.448 18.4315V21.6715C37.448 21.9055 37.484 21.9415 37.718 21.9415H39.968C40.76 21.9415 41.264 22.4095 41.264 23.2015C41.264 23.9935 40.76 24.4615 39.968 24.4615ZM51.8251 24.8575C55.1191 24.8575 57.6211 25.8115 57.6211 28.2955C57.6211 30.7795 55.1191 31.7335 51.8251 31.7335C48.5311 31.7335 46.0291 30.7795 46.0291 28.2955C46.0291 25.8115 48.5311 24.8575 51.8251 24.8575ZM52.9411 23.5615C51.1231 23.8315 49.4491 23.9215 47.4871 23.9215H46.1011C44.8771 23.9215 44.3551 23.3995 44.3551 22.2295V20.1775C44.3551 19.0075 44.8771 18.4675 46.1011 18.4675H49.7011C49.8811 18.4675 49.9351 18.4135 49.9351 18.2335V17.5675C49.9351 17.3875 49.8811 17.3515 49.7011 17.3515H45.6871C44.9671 17.3515 44.4451 16.9735 44.4451 16.2715C44.4451 15.5515 44.9671 15.1735 45.6871 15.1735H50.8891C52.1311 15.1735 52.6351 15.6775 52.6351 16.8835V18.8455C52.6351 20.0515 52.1311 20.5735 50.8891 20.5735H47.2711C47.0911 20.5735 47.0551 20.6095 47.0551 20.7895V21.5815C47.0551 21.7615 47.0911 21.7975 47.2711 21.7975H47.9551C49.6111 21.7975 51.1411 21.6715 52.5811 21.4555C53.2651 21.3475 53.8231 21.5455 53.9671 22.2655C54.1111 22.9855 53.6251 23.4535 52.9411 23.5615ZM54.7951 23.1835V16.1455C54.7951 15.2995 55.3891 14.8495 56.2351 14.8495C57.0811 14.8495 57.6751 15.2995 57.6751 16.1455V18.3415H58.9171C59.6731 18.3415 60.2131 18.7195 60.2131 19.5295C60.2131 20.3395 59.6731 20.7175 58.9171 20.7175H57.6751V23.1835C57.6751 24.0295 57.0811 24.4975 56.2351 24.4975C55.3891 24.4975 54.7951 24.0295 54.7951 23.1835ZM51.8251 29.5915C53.2111 29.5915 54.7411 29.3575 54.7411 28.2955C54.7411 27.2335 53.2111 26.9995 51.8251 26.9995C50.4391 26.9995 48.9091 27.2335 48.9091 28.2955C48.9091 29.3575 50.4391 29.5915 51.8251 29.5915ZM73.7982 24.4615H70.3962C70.2342 24.4615 70.0722 24.4615 69.9282 24.4255V24.5515V27.0355H75.3102C76.1202 27.0355 76.6062 27.4495 76.6062 28.2595C76.6062 29.0695 76.1202 29.4835 75.3102 29.4835H61.8102C61.0002 29.4835 60.5142 29.0695 60.5142 28.2595C60.5142 27.4495 61.0002 27.0355 61.8102 27.0355H67.1202V24.5515C67.1202 24.4615 67.1202 24.3895 67.1382 24.2995C66.4002 24.4255 65.7702 24.4615 65.0322 24.4615H63.8622C62.6922 24.4615 62.0442 23.8675 62.0442 22.6975V17.3695C62.0442 16.2895 62.6742 15.6955 63.7542 15.6955H66.6522C67.4622 15.6955 67.9482 16.1275 67.9482 16.9375C67.9482 17.7475 67.4622 18.1795 66.6522 18.1795H65.0142C64.7802 18.1795 64.7442 18.1975 64.7442 18.4315V21.6895C64.7442 21.9235 64.7802 21.9595 65.0142 21.9595H65.7162C66.1662 21.9595 66.5082 21.9235 66.9582 21.8695C67.6422 21.7795 68.1282 22.1215 68.2182 22.8415C68.2362 22.9855 68.2362 23.1475 68.2182 23.2735C68.3082 23.2735 68.4162 23.2555 68.5242 23.2555H68.6322C68.5962 23.0935 68.5782 22.9135 68.5782 22.6975V17.3695C68.5782 16.2895 69.2082 15.6955 70.2882 15.6955H73.6902C74.4822 15.6955 74.9862 16.1635 74.9862 16.9375C74.9862 17.7295 74.4822 18.1795 73.6902 18.1795H71.5482C71.3142 18.1795 71.2782 18.1975 71.2782 18.4315V21.6715C71.2782 21.9055 71.3142 21.9415 71.5482 21.9415H73.7982C74.5902 21.9415 75.0942 22.4095 75.0942 23.2015C75.0942 23.9935 74.5902 24.4615 73.7982 24.4615ZM85.6552 24.8575C88.9492 24.8575 91.4512 25.8115 91.4512 28.2955C91.4512 30.7795 88.9492 31.7335 85.6552 31.7335C82.3612 31.7335 79.8592 30.7795 79.8592 28.2955C79.8592 25.8115 82.3612 24.8575 85.6552 24.8575ZM86.7712 23.5615C84.9532 23.8315 83.2792 23.9215 81.3172 23.9215H79.9312C78.7072 23.9215 78.1852 23.3995 78.1852 22.2295V20.1775C78.1852 19.0075 78.7072 18.4675 79.9312 18.4675H83.5312C83.7112 18.4675 83.7652 18.4135 83.7652 18.2335V17.5675C83.7652 17.3875 83.7112 17.3515 83.5312 17.3515H79.5172C78.7972 17.3515 78.2752 16.9735 78.2752 16.2715C78.2752 15.5515 78.7972 15.1735 79.5172 15.1735H84.7192C85.9612 15.1735 86.4652 15.6775 86.4652 16.8835V18.8455C86.4652 20.0515 85.9612 20.5735 84.7192 20.5735H81.1012C80.9212 20.5735 80.8852 20.6095 80.8852 20.7895V21.5815C80.8852 21.7615 80.9212 21.7975 81.1012 21.7975H81.7852C83.4412 21.7975 84.9712 21.6715 86.4112 21.4555C87.0952 21.3475 87.6532 21.5455 87.7972 22.2655C87.9412 22.9855 87.4552 23.4535 86.7712 23.5615ZM88.6252 23.1835V16.1455C88.6252 15.2995 89.2192 14.8495 90.0652 14.8495C90.9112 14.8495 91.5052 15.2995 91.5052 16.1455V18.3415H92.7472C93.5032 18.3415 94.0432 18.7195 94.0432 19.5295C94.0432 20.3395 93.5032 20.7175 92.7472 20.7175H91.5052V23.1835C91.5052 24.0295 90.9112 24.4975 90.0652 24.4975C89.2192 24.4975 88.6252 24.0295 88.6252 23.1835ZM85.6552 29.5915C87.0412 29.5915 88.5712 29.3575 88.5712 28.2955C88.5712 27.2335 87.0412 26.9995 85.6552 26.9995C84.2692 26.9995 82.7392 27.2335 82.7392 28.2955C82.7392 29.3575 84.2692 29.5915 85.6552 29.5915Z" fill="#E3EDFD"/>
</svg>
