<svg width="1493" height="300" viewBox="0 0 1493 300" fill="none" xmlns="http://www.w3.org/2000/svg">
<g clip-path="url(#clip0_518_4268)">
<rect width="1493" height="300" fill="#3D6BE1"/>
<path fill-rule="evenodd" clip-rule="evenodd" d="M403.324 306.01C398.969 308.547 393.904 310 388.5 310C372.208 310 359 296.792 359 280.5C359 269.729 364.772 260.306 373.393 255.157C371.853 251.581 371 247.64 371 243.5C371 227.208 384.208 214 400.5 214C401.304 214 402.1 214.032 402.887 214.095C407.094 202.937 417.87 195 430.5 195C436.83 195 442.695 196.994 447.5 200.388C452.305 196.994 458.17 195 464.5 195C478.213 195 489.741 204.357 493.047 217.035C493.529 217.012 494.013 217 494.5 217C510.792 217 524 230.208 524 246.5C524 249.351 523.596 252.107 522.841 254.714C531.884 259.754 538 269.413 538 280.5C538 296.792 524.792 310 508.5 310C504.986 310 501.616 309.386 498.491 308.259C489.881 323.52 472.072 334 451.5 334C429.932 334 411.402 322.481 403.324 306.01Z" fill="#587FE4"/>
<path fill-rule="evenodd" clip-rule="evenodd" d="M1123.77 -13.1088C1128.33 -17.966 1134.81 -21 1142 -21C1155.81 -21 1167 -9.80712 1167 4C1167 9.64838 1165.13 14.8592 1161.97 19.0453C1169.73 23.2871 1175 31.5284 1175 41C1175 50.8029 1169.36 59.288 1161.14 63.3851C1162.97 66.8555 1164 70.8072 1164 75C1164 88.8071 1152.81 100 1139 100C1136.18 100 1133.47 99.5336 1130.94 98.6739C1130.08 111.701 1119.24 122 1106 122C1097.82 122 1090.56 118.073 1086 112.002C1081.44 118.073 1074.18 122 1066 122C1052.63 122 1041.72 111.512 1041.03 98.3178C1038.23 99.4041 1035.19 100 1032 100C1018.19 100 1007 88.8071 1007 75C1007 70.4664 1008.21 66.2146 1010.32 62.5483C1002.95 58.2002 998 50.1777 998 41C998 31.2385 1003.59 22.7836 1011.75 18.667C1008.76 14.5472 1007 9.47948 1007 4C1007 -9.80712 1018.19 -21 1032 -21C1038.92 -21 1045.18 -18.1914 1049.7 -13.6524C1059.18 -24.3817 1072.17 -31 1086.5 -31C1101.07 -31 1114.26 -24.1577 1123.77 -13.1088Z" fill="#587FE4"/>
<path fill-rule="evenodd" clip-rule="evenodd" d="M439.5 -41H409.5V12.2867L371.821 -25.3927L350.607 -4.17947L388.287 33.5H335V63.5H388.287L350.608 101.179L371.821 122.393L409.5 84.7134V138H439.5V84.7131L477.18 122.393L498.393 101.179L460.713 63.5H514V33.5H460.713L498.393 -4.17947L477.18 -25.3927L439.5 12.287V-41Z" fill="#587FE4"/>
<path d="M1021.5 184L909.5 206L874 304.5L899.5 361L1071 354.5L1102 273L1021.5 184Z" fill="#587FE4"/>
<path d="M173.568 109.145L276.058 58.9065L284.854 -45.4253L245.6 -93.4002L81.6259 -42.7342L72.776 44.0121L173.568 109.145Z" fill="#587FE4"/>
<path fill-rule="evenodd" clip-rule="evenodd" d="M1331.5 191H1301.5V244.287L1263.82 206.607L1242.61 227.821L1280.29 265.5H1227V295.5H1280.29L1242.61 333.179L1263.82 354.393L1301.5 316.713V370H1331.5V316.713L1369.18 354.393L1390.39 333.179L1352.71 295.5H1406V265.5H1352.71L1390.39 227.821L1369.18 206.607L1331.5 244.287V191Z" fill="#587FE4"/>
<path fill-rule="evenodd" clip-rule="evenodd" d="M165.5 229H135.5V282.287L97.8206 244.607L76.6074 265.821L114.287 303.5H61V333.5H114.287L76.6076 371.179L97.8208 392.393L135.5 354.713V408H165.5V354.713L203.18 392.393L224.393 371.179L186.713 333.5H240V303.5H186.713L224.393 265.821L203.18 244.607L165.5 282.287V229Z" fill="#587FE4"/>
<path d="M563.648 73.624C563.008 73.624 562.517 73.4853 562.176 73.208C561.835 72.9307 561.664 72.472 561.664 71.832C561.664 71.192 561.835 70.7333 562.176 70.456C562.517 70.1787 563.008 70.04 563.648 70.04H579.616C580.128 70.04 580.555 70.0827 580.896 70.168C581.237 70.232 581.504 70.36 581.696 70.552C581.909 70.744 582.048 71.0107 582.112 71.352C582.197 71.672 582.24 72.088 582.24 72.6V75.704C582.24 76.7493 582.037 77.464 581.632 77.848C581.248 78.2107 580.533 78.392 579.488 78.392H566.688C566.539 78.392 566.464 78.4667 566.464 78.616V79.832C566.464 79.96 566.539 80.024 566.688 80.024H580.928C581.568 80.024 582.059 80.1627 582.4 80.44C582.763 80.7387 582.944 81.208 582.944 81.848C582.944 82.488 582.763 82.9467 582.4 83.224C582.059 83.5013 581.568 83.64 580.928 83.64H564.384C563.339 83.64 562.624 83.448 562.24 83.064C561.856 82.7013 561.664 81.9973 561.664 80.952V77.528C561.664 76.4827 561.845 75.7787 562.208 75.416C562.592 75.0533 563.307 74.872 564.352 74.872H577.184C577.355 74.872 577.44 74.7973 577.44 74.648V73.848C577.44 73.6987 577.355 73.624 577.184 73.624H563.648ZM558.24 56.6C558.24 55.064 559.019 54.296 560.576 54.296C562.133 54.296 562.912 55.064 562.912 56.6V58.008H568.928V56.6C568.928 55.064 569.707 54.296 571.264 54.296C572.821 54.296 573.6 55.064 573.6 56.6V65.08C573.6 66.1253 573.365 66.872 572.896 67.32C572.448 67.768 571.701 67.992 570.656 67.992H561.216C560.171 67.992 559.413 67.768 558.944 67.32C558.475 66.872 558.24 66.1253 558.24 65.08V56.6ZM577.12 56.248C577.12 55.5013 577.355 54.936 577.824 54.552C578.315 54.1467 578.933 53.944 579.68 53.944C580.427 53.944 581.035 54.1467 581.504 54.552C581.995 54.936 582.24 55.5013 582.24 56.248V58.904H584.448C585.131 58.904 585.685 59.0747 586.112 59.416C586.539 59.7573 586.752 60.2907 586.752 61.016C586.752 61.7413 586.539 62.2747 586.112 62.616C585.685 62.9573 585.131 63.128 584.448 63.128H582.24V66.52C582.24 67.2667 581.995 67.8427 581.504 68.248C581.035 68.6533 580.427 68.856 579.68 68.856C578.933 68.856 578.315 68.6533 577.824 68.248C577.355 67.8427 577.12 67.2667 577.12 66.52V56.248ZM562.912 64.12C562.912 64.3547 563.019 64.472 563.232 64.472H568.608C568.821 64.472 568.928 64.3547 568.928 64.12V61.528H562.912V64.12ZM592.791 71.672C592.109 71.672 591.554 71.4907 591.127 71.128C590.701 70.7653 590.487 70.2427 590.487 69.56C590.487 68.8773 590.701 68.3547 591.127 67.992C591.554 67.6293 592.109 67.448 592.791 67.448H594.327C594.221 66.8507 594.146 66.2213 594.103 65.56C594.061 64.8987 594.039 64.2693 594.039 63.672V62.936C594.039 62.2533 594.242 61.6987 594.647 61.272C595.053 60.8453 595.661 60.632 596.471 60.632C597.261 60.632 597.858 60.8453 598.263 61.272C598.69 61.6987 598.903 62.2533 598.903 62.936V63.672C598.903 64.312 598.903 64.952 598.903 65.592C598.925 66.2107 598.967 66.8293 599.031 67.448H604.119C604.183 66.8293 604.226 66.2107 604.247 65.592C604.269 64.952 604.279 64.312 604.279 63.672V62.936C604.279 62.2533 604.482 61.6987 604.887 61.272C605.314 60.8453 605.922 60.632 606.711 60.632C607.522 60.632 608.13 60.8453 608.535 61.272C608.941 61.6987 609.143 62.2533 609.143 62.936V63.672C609.143 64.2693 609.122 64.8987 609.079 65.56C609.037 66.2213 608.962 66.8507 608.855 67.448H610.391C611.074 67.448 611.629 67.6293 612.055 67.992C612.482 68.3547 612.695 68.8773 612.695 69.56C612.695 70.2427 612.482 70.7653 612.055 71.128C611.629 71.4907 611.074 71.672 610.391 71.672H608.439V75.608H613.591C614.317 75.608 614.882 75.7893 615.287 76.152C615.693 76.5147 615.895 77.0587 615.895 77.784C615.895 78.5093 615.693 79.0533 615.287 79.416C614.882 79.7787 614.317 79.96 613.591 79.96H589.591C588.866 79.96 588.301 79.7787 587.895 79.416C587.49 79.0533 587.287 78.5093 587.287 77.784C587.287 77.0587 587.49 76.5147 587.895 76.152C588.301 75.7893 588.866 75.608 589.591 75.608H594.743V71.672H592.791ZM592.631 59.672C591.949 59.672 591.394 59.4907 590.967 59.128C590.541 58.7653 590.327 58.2427 590.327 57.56C590.327 56.8773 590.541 56.3547 590.967 55.992C591.394 55.6293 591.949 55.448 592.631 55.448H610.551C611.234 55.448 611.789 55.6293 612.215 55.992C612.642 56.3547 612.855 56.8773 612.855 57.56C612.855 58.2427 612.642 58.7653 612.215 59.128C611.789 59.4907 611.234 59.672 610.551 59.672H592.631ZM599.479 75.608H603.703V71.672H599.479V75.608ZM637.327 56.28C637.327 55.5333 637.561 54.9573 638.031 54.552C638.521 54.1467 639.14 53.944 639.887 53.944C640.633 53.944 641.241 54.1467 641.711 54.552C642.201 54.9573 642.447 55.5333 642.447 56.28V63.864H644.719C645.401 63.864 645.945 64.0453 646.351 64.408C646.777 64.7707 646.991 65.3253 646.991 66.072C646.991 66.7973 646.777 67.3413 646.351 67.704C645.945 68.0667 645.401 68.248 644.719 68.248H642.447V81.304C642.447 82.0507 642.201 82.6267 641.711 83.032C641.241 83.4373 640.633 83.64 639.887 83.64C639.14 83.64 638.521 83.4373 638.031 83.032C637.561 82.6267 637.327 82.0507 637.327 81.304V56.28ZM620.943 59.736C620.26 59.736 619.727 59.5547 619.343 59.192C618.98 58.808 618.799 58.2747 618.799 57.592C618.799 56.9093 618.98 56.3867 619.343 56.024C619.727 55.64 620.26 55.448 620.943 55.448H630.287C632.42 55.448 633.487 56.4827 633.487 58.552V60.312C633.487 62.1253 633.188 63.832 632.591 65.432C632.015 67.032 631.193 68.5147 630.127 69.88C629.081 71.2453 627.823 72.4827 626.351 73.592C624.879 74.7013 623.268 75.672 621.519 76.504C620.921 76.7813 620.303 76.8667 619.663 76.76C619.044 76.6533 618.553 76.2587 618.191 75.576C617.892 75.0213 617.817 74.4347 617.967 73.816C618.137 73.176 618.564 72.6747 619.247 72.312C620.612 71.5867 621.849 70.84 622.959 70.072C624.089 69.2827 625.049 68.44 625.839 67.544C626.649 66.648 627.268 65.688 627.695 64.664C628.143 63.64 628.367 62.5307 628.367 61.336V60.472C628.367 60.1733 628.324 59.9813 628.239 59.896C628.153 59.7893 627.951 59.736 627.631 59.736H620.943ZM658.103 59.736C657.42 59.736 656.855 59.5547 656.407 59.192C655.98 58.808 655.767 58.2747 655.767 57.592C655.767 56.9093 655.98 56.3867 656.407 56.024C656.855 55.64 657.42 55.448 658.103 55.448H670.007C670.689 55.448 671.244 55.64 671.671 56.024C672.119 56.3867 672.343 56.9093 672.343 57.592C672.343 58.2747 672.119 58.808 671.671 59.192C671.244 59.5547 670.689 59.736 670.007 59.736H666.711V61.816C666.711 63.8213 667.18 65.624 668.119 67.224C669.079 68.824 670.465 70.3067 672.279 71.672C673.409 72.504 673.751 73.4853 673.303 74.616C673.196 74.9147 673.015 75.16 672.759 75.352C672.524 75.544 672.247 75.6933 671.927 75.8C671.628 75.8853 671.308 75.9173 670.967 75.896C670.625 75.8747 670.305 75.7787 670.007 75.608C668.855 74.968 667.767 74.1147 666.743 73.048C665.719 71.9813 664.876 70.8933 664.215 69.784C663.895 70.36 663.521 70.9467 663.095 71.544C662.689 72.1413 662.231 72.7173 661.719 73.272C661.228 73.8053 660.695 74.3067 660.119 74.776C659.564 75.2453 658.999 75.6293 658.423 75.928C657.804 76.2267 657.153 76.28 656.471 76.088C655.809 75.896 655.361 75.512 655.127 74.936C654.679 73.8053 655.02 72.824 656.151 71.992C657.964 70.6267 659.34 69.0907 660.279 67.384C661.239 65.6773 661.719 63.8213 661.719 61.816V59.736H658.103ZM675.063 56.28C675.063 55.5333 675.297 54.9573 675.767 54.552C676.257 54.1467 676.876 53.944 677.623 53.944C678.369 53.944 678.977 54.1467 679.447 54.552C679.937 54.9573 680.183 55.5333 680.183 56.28V62.904H682.455C683.137 62.904 683.681 63.0853 684.087 63.448C684.513 63.8107 684.727 64.3653 684.727 65.112C684.727 65.8373 684.513 66.3813 684.087 66.744C683.681 67.1067 683.137 67.288 682.455 67.288H680.183V81.304C680.183 82.0507 679.937 82.6267 679.447 83.032C678.977 83.4373 678.369 83.64 677.623 83.64C676.876 83.64 676.257 83.4373 675.767 83.032C675.297 82.6267 675.063 82.0507 675.063 81.304V56.28ZM706.062 56.28C706.062 55.5333 706.297 54.9573 706.766 54.552C707.257 54.1467 707.875 53.944 708.622 53.944C709.369 53.944 709.977 54.1467 710.446 54.552C710.937 54.9573 711.182 55.5333 711.182 56.28V72.12C711.182 72.8667 710.937 73.4427 710.446 73.848C709.977 74.2533 709.369 74.456 708.622 74.456C707.875 74.456 707.257 74.2533 706.766 73.848C706.297 73.4427 706.062 72.8667 706.062 72.12V56.28ZM693.038 72.184C693.785 72.184 694.403 72.3973 694.894 72.824C695.385 73.2507 695.63 73.848 695.63 74.616V78.52C695.63 78.7547 695.662 78.904 695.726 78.968C695.79 79.032 695.939 79.064 696.174 79.064H709.806C710.489 79.064 711.022 79.2453 711.406 79.608C711.79 79.9707 711.982 80.4933 711.982 81.176C711.982 81.8587 711.79 82.3813 711.406 82.744C711.022 83.1067 710.489 83.288 709.806 83.288H693.358C692.313 83.288 691.566 83.0747 691.118 82.648C690.67 82.2213 690.446 81.496 690.446 80.472V74.616C690.446 73.848 690.691 73.2507 691.182 72.824C691.673 72.3973 692.291 72.184 693.038 72.184ZM694.606 65.24C693.945 66.2 693.145 67.1067 692.206 67.96C691.289 68.8133 690.329 69.496 689.326 70.008C688.686 70.3493 688.046 70.4773 687.406 70.392C686.787 70.3067 686.307 69.9867 685.966 69.432C685.603 68.856 685.507 68.28 685.678 67.704C685.849 67.1067 686.254 66.584 686.894 66.136C688.494 64.984 689.753 63.7787 690.67 62.52C691.587 61.24 692.046 59.8107 692.046 58.232V56.536C692.046 55.768 692.281 55.2133 692.75 54.872C693.219 54.5093 693.838 54.328 694.606 54.328C695.374 54.328 695.993 54.5093 696.462 54.872C696.931 55.2133 697.166 55.768 697.166 56.536V58.232C697.166 59.8107 697.603 61.1973 698.478 62.392C699.353 63.5653 700.59 64.664 702.19 65.688C702.83 66.1147 703.235 66.6267 703.406 67.224C703.577 67.8 703.481 68.376 703.118 68.952C702.777 69.5067 702.286 69.8267 701.646 69.912C701.027 69.976 700.398 69.848 699.758 69.528C698.798 69.0373 697.87 68.44 696.974 67.736C696.078 67.0107 695.289 66.1787 694.606 65.24ZM723.422 61.4C723.422 60.248 723.624 59.2347 724.03 58.36C724.456 57.464 725.032 56.728 725.758 56.152C726.483 55.5547 727.336 55.1067 728.318 54.808C729.32 54.488 730.398 54.328 731.55 54.328C733.47 54.328 735.123 54.744 736.51 55.576C737.896 56.3867 738.824 57.592 739.294 59.192H743.486V56.28C743.486 55.5333 743.72 54.9573 744.19 54.552C744.68 54.1467 745.299 53.944 746.046 53.944C746.792 53.944 747.4 54.1467 747.87 54.552C748.36 54.9573 748.606 55.5333 748.606 56.28V66.68C748.606 67.4267 748.36 68.0027 747.87 68.408C747.4 68.8133 746.792 69.016 746.046 69.016C745.299 69.016 744.68 68.8133 744.19 68.408C743.72 68.0027 743.486 67.4267 743.486 66.68V63.448H739.358C738.91 65.112 737.982 66.3707 736.574 67.224C735.166 68.056 733.491 68.472 731.55 68.472C730.398 68.472 729.32 68.3227 728.318 68.024C727.336 67.704 726.483 67.256 725.758 66.68C725.032 66.0827 724.456 65.3467 724.03 64.472C723.624 63.576 723.422 62.552 723.422 61.4ZM726.27 72.664C726.27 71.9813 726.44 71.448 726.782 71.064C727.123 70.68 727.635 70.488 728.318 70.488C729 70.488 729.512 70.68 729.854 71.064C730.195 71.448 730.366 71.9813 730.366 72.664V74.104H733.598V72.664C733.598 71.9813 733.768 71.448 734.11 71.064C734.451 70.68 734.963 70.488 735.646 70.488C736.328 70.488 736.84 70.68 737.182 71.064C737.523 71.448 737.694 71.9813 737.694 72.664V80.888C737.694 81.8907 737.47 82.5947 737.022 83C736.595 83.4267 735.88 83.64 734.878 83.64H729.086C728.083 83.64 727.358 83.4267 726.91 83C726.483 82.5947 726.27 81.8907 726.27 80.888V72.664ZM744.478 79.992C744.072 80.6533 743.624 81.272 743.134 81.848C742.664 82.424 742.088 82.9147 741.406 83.32C740.894 83.6187 740.35 83.736 739.774 83.672C739.198 83.608 738.76 83.352 738.462 82.904C738.12 82.4347 737.992 81.9333 738.078 81.4C738.163 80.8667 738.44 80.3867 738.91 79.96C739.358 79.5333 739.774 79.1067 740.158 78.68C740.563 78.2533 740.904 77.7947 741.182 77.304C741.48 76.792 741.704 76.248 741.854 75.672C742.024 75.096 742.11 74.4453 742.11 73.72V72.664C742.11 71.9813 742.334 71.448 742.782 71.064C743.23 70.68 743.795 70.488 744.478 70.488C745.16 70.488 745.726 70.68 746.174 71.064C746.622 71.448 746.846 71.9813 746.846 72.664V73.72C746.846 74.4453 746.92 75.096 747.07 75.672C747.24 76.2267 747.464 76.7387 747.742 77.208C748.04 77.6773 748.382 78.1253 748.766 78.552C749.171 78.9573 749.598 79.3733 750.046 79.8C750.515 80.2267 750.792 80.7067 750.878 81.24C750.963 81.7733 750.835 82.2747 750.494 82.744C750.195 83.192 749.747 83.448 749.15 83.512C748.574 83.5973 748.04 83.48 747.55 83.16C746.91 82.7333 746.344 82.2427 745.854 81.688C745.363 81.1547 744.904 80.5893 744.478 79.992ZM728.35 61.4C728.35 62.3813 728.638 63.1707 729.214 63.768C729.79 64.344 730.568 64.632 731.55 64.632C732.531 64.632 733.31 64.344 733.886 63.768C734.462 63.1707 734.75 62.3813 734.75 61.4C734.75 60.4187 734.462 59.64 733.886 59.064C733.31 58.4667 732.531 58.168 731.55 58.168C730.568 58.168 729.79 58.4667 729.214 59.064C728.638 59.64 728.35 60.4187 728.35 61.4ZM733.598 77.464H730.494V80.024C730.494 80.152 730.568 80.216 730.718 80.216H733.374C733.523 80.216 733.598 80.152 733.598 80.024V77.464ZM754.653 79.96C753.927 79.96 753.362 79.7787 752.957 79.416C752.551 79.0533 752.349 78.5093 752.349 77.784C752.349 77.0587 752.551 76.5147 752.957 76.152C753.362 75.7893 753.927 75.608 754.653 75.608H761.661V67.64C761.661 66.9573 761.874 66.392 762.301 65.944C762.727 65.496 763.378 65.272 764.253 65.272C765.127 65.272 765.778 65.496 766.205 65.944C766.631 66.392 766.845 66.9573 766.845 67.64V75.608H778.653C779.378 75.608 779.943 75.7893 780.349 76.152C780.754 76.5147 780.957 77.0587 780.957 77.784C780.957 78.5093 780.754 79.0533 780.349 79.416C779.943 79.7787 779.378 79.96 778.653 79.96H754.653ZM758.141 59.832C757.458 59.832 756.903 59.64 756.477 59.256C756.071 58.872 755.869 58.328 755.869 57.624C755.869 56.92 756.071 56.3867 756.477 56.024C756.903 55.64 757.458 55.448 758.141 55.448H774.173C776.242 55.448 777.277 56.4613 777.277 58.488V61.4C777.277 61.9547 777.255 62.584 777.213 63.288C777.17 63.992 777.117 64.7173 777.053 65.464C776.989 66.2107 776.903 66.936 776.797 67.64C776.711 68.344 776.626 68.9733 776.541 69.528C776.413 70.2107 776.093 70.7653 775.581 71.192C775.069 71.5973 774.407 71.736 773.597 71.608C772.786 71.5013 772.221 71.192 771.901 70.68C771.602 70.1467 771.506 69.528 771.613 68.824C771.783 67.544 771.922 66.2853 772.029 65.048C772.135 63.7893 772.189 62.648 772.189 61.624V60.472C772.189 60.2373 772.146 60.0773 772.061 59.992C771.975 59.8853 771.815 59.832 771.581 59.832H758.141ZM811.333 56.312C811.333 55.544 811.567 54.9573 812.037 54.552C812.527 54.1467 813.146 53.944 813.893 53.944C814.661 53.944 815.279 54.1467 815.749 54.552C816.218 54.9573 816.453 55.544 816.453 56.312V81.272C816.453 82.04 816.218 82.6267 815.749 83.032C815.279 83.4373 814.661 83.64 813.893 83.64C813.146 83.64 812.527 83.4373 812.037 83.032C811.567 82.6267 811.333 82.04 811.333 81.272V67.512H807.269C807.162 68.8347 806.917 70.04 806.533 71.128C806.149 72.1947 805.615 73.1013 804.933 73.848C804.271 74.5947 803.461 75.1707 802.501 75.576C801.541 75.9813 800.421 76.184 799.141 76.184C797.733 76.184 796.506 75.9387 795.461 75.448C794.415 74.936 793.551 74.2213 792.869 73.304C792.186 72.3867 791.674 71.288 791.333 70.008C791.013 68.7067 790.853 67.256 790.853 65.656C790.853 64.056 791.013 62.616 791.333 61.336C791.674 60.0347 792.186 58.9253 792.869 58.008C793.551 57.0907 794.415 56.3867 795.461 55.896C796.506 55.384 797.733 55.128 799.141 55.128C801.594 55.128 803.471 55.864 804.773 57.336C806.095 58.7867 806.906 60.76 807.205 63.256H811.333V56.312ZM799.141 71.896C799.781 71.896 800.314 71.736 800.741 71.416C801.167 71.0747 801.498 70.6267 801.733 70.072C801.989 69.5173 802.17 68.8667 802.277 68.12C802.383 67.352 802.437 66.5307 802.437 65.656C802.437 64.8027 802.383 63.992 802.277 63.224C802.17 62.456 801.989 61.7947 801.733 61.24C801.498 60.6853 801.167 60.248 800.741 59.928C800.314 59.5867 799.781 59.416 799.141 59.416C798.501 59.416 797.967 59.5867 797.541 59.928C797.114 60.248 796.773 60.6853 796.517 61.24C796.282 61.7947 796.111 62.456 796.005 63.224C795.898 63.992 795.845 64.8027 795.845 65.656C795.845 66.5307 795.898 67.352 796.005 68.12C796.111 68.8667 796.282 69.5173 796.517 70.072C796.773 70.6267 797.114 71.0747 797.541 71.416C797.967 71.736 798.501 71.896 799.141 71.896ZM831.876 55.352C833.966 55.352 835.012 56.3867 835.012 58.456V64.44C835.012 66.5093 833.966 67.544 831.876 67.544H826.788C826.489 67.544 826.34 67.6933 826.34 67.992V72.152C826.34 72.4507 826.489 72.6 826.788 72.6H827.78C828.505 72.6 829.188 72.5893 829.828 72.568C830.468 72.5467 831.086 72.5147 831.684 72.472C832.281 72.408 832.878 72.344 833.476 72.28C834.073 72.216 834.702 72.1307 835.364 72.024C835.982 71.9173 836.505 71.9813 836.932 72.216C837.38 72.4507 837.657 72.8987 837.764 73.56C837.892 74.2213 837.785 74.7653 837.444 75.192C837.102 75.6187 836.622 75.8853 836.004 75.992C834.745 76.2053 833.348 76.376 831.812 76.504C830.276 76.6107 828.782 76.664 827.332 76.664H824.516C822.404 76.664 821.348 75.6293 821.348 73.56V66.648C821.348 65.6027 821.636 64.824 822.212 64.312C822.788 63.8 823.598 63.544 824.644 63.544H829.604C829.774 63.544 829.892 63.512 829.956 63.448C830.02 63.384 830.052 63.256 830.052 63.064V59.896C830.052 59.576 829.902 59.416 829.604 59.416H823.524C822.905 59.416 822.382 59.2453 821.956 58.904C821.55 58.5627 821.348 58.0613 821.348 57.4C821.348 56.7173 821.55 56.2053 821.956 55.864C822.382 55.5227 822.905 55.352 823.524 55.352H831.876ZM841.092 56.28C841.092 55.5333 841.326 54.9573 841.796 54.552C842.286 54.1467 842.905 53.944 843.652 53.944C844.398 53.944 845.006 54.1467 845.476 54.552C845.966 54.9573 846.212 55.5333 846.212 56.28V81.304C846.212 82.0507 845.966 82.6267 845.476 83.032C845.006 83.4373 844.398 83.64 843.652 83.64C842.905 83.64 842.286 83.4373 841.796 83.032C841.326 82.6267 841.092 82.0507 841.092 81.304V70.328H838.276C837.593 70.328 837.038 70.1467 836.612 69.784C836.185 69.4 835.972 68.8667 835.972 68.184C835.972 67.5013 836.185 66.9787 836.612 66.616C837.038 66.232 837.593 66.04 838.276 66.04H841.092V63.352H838.276C837.593 63.352 837.038 63.1707 836.612 62.808C836.185 62.424 835.972 61.8907 835.972 61.208C835.972 60.5253 836.185 60.0027 836.612 59.64C837.038 59.256 837.593 59.064 838.276 59.064H841.092V56.28ZM872.994 80.12C873.677 80.12 874.21 80.2373 874.594 80.472C874.978 80.728 875.17 81.1973 875.17 81.88C875.17 82.5627 874.978 83.0213 874.594 83.256C874.21 83.512 873.677 83.64 872.994 83.64H856.066C855.021 83.64 854.296 83.448 853.89 83.064C853.485 82.68 853.282 81.9653 853.282 80.92V78.072C853.282 77.0267 853.485 76.3227 853.89 75.96C854.296 75.576 855.021 75.384 856.066 75.384H869.634C869.784 75.384 869.858 75.3093 869.858 75.16V74.392C869.858 74.2427 869.784 74.168 869.634 74.168H855.49C854.85 74.168 854.317 74.0507 853.89 73.816C853.485 73.56 853.282 73.112 853.282 72.472C853.282 71.832 853.485 71.3947 853.89 71.16C854.317 70.904 854.85 70.776 855.49 70.776H861.474V68.856H851.65C851.053 68.856 850.562 68.7173 850.178 68.44C849.794 68.1627 849.602 67.7253 849.602 67.128C849.602 66.5307 849.794 66.0933 850.178 65.816C850.562 65.5387 851.053 65.4 851.65 65.4H876.194C876.792 65.4 877.272 65.5387 877.634 65.816C878.018 66.0933 878.21 66.5307 878.21 67.128C878.21 67.7253 878.018 68.1627 877.634 68.44C877.272 68.7173 876.792 68.856 876.194 68.856H866.338V70.776H871.778C872.824 70.776 873.538 70.968 873.922 71.352C874.328 71.736 874.53 72.4507 874.53 73.496V76.056C874.53 77.1013 874.328 77.816 873.922 78.2C873.538 78.584 872.824 78.776 871.778 78.776H858.21C858.061 78.776 857.986 78.8507 857.986 79V79.896C857.986 80.0453 858.061 80.12 858.21 80.12H872.994ZM863.906 53.848C865.314 53.848 866.658 53.9227 867.938 54.072C869.24 54.2213 870.381 54.4987 871.362 54.904C872.365 55.288 873.154 55.8213 873.73 56.504C874.328 57.1867 874.626 58.0613 874.626 59.128C874.626 60.1947 874.328 61.0693 873.73 61.752C873.154 62.4133 872.365 62.9467 871.362 63.352C870.381 63.7573 869.24 64.0347 867.938 64.184C866.658 64.3333 865.314 64.408 863.906 64.408C862.498 64.408 861.144 64.3333 859.842 64.184C858.562 64.0347 857.421 63.768 856.418 63.384C855.437 62.9787 854.648 62.4347 854.05 61.752C853.474 61.0693 853.186 60.1947 853.186 59.128C853.186 58.0613 853.474 57.1867 854.05 56.504C854.648 55.8213 855.437 55.288 856.418 54.904C857.421 54.4987 858.562 54.2213 859.842 54.072C861.144 53.9227 862.498 53.848 863.906 53.848ZM863.906 60.856C864.717 60.856 865.474 60.8347 866.178 60.792C866.882 60.728 867.49 60.632 868.002 60.504C868.536 60.376 868.952 60.2053 869.25 59.992C869.549 59.7573 869.698 59.4693 869.698 59.128C869.698 58.7867 869.549 58.5093 869.25 58.296C868.952 58.0613 868.536 57.88 868.002 57.752C867.49 57.624 866.882 57.5387 866.178 57.496C865.474 57.432 864.717 57.4 863.906 57.4C863.096 57.4 862.338 57.432 861.634 57.496C860.93 57.5387 860.312 57.624 859.778 57.752C859.266 57.88 858.861 58.0613 858.562 58.296C858.264 58.5093 858.114 58.7867 858.114 59.128C858.114 59.4693 858.264 59.7573 858.562 59.992C858.861 60.2053 859.266 60.376 859.778 60.504C860.312 60.632 860.93 60.728 861.634 60.792C862.338 60.8347 863.096 60.856 863.906 60.856ZM904.714 56.408C904.714 54.9787 905.418 54.264 906.826 54.264C908.234 54.264 908.938 54.9787 908.938 56.408V61.08H910.57V56.12C910.57 55.4373 910.752 54.904 911.114 54.52C911.477 54.136 912 53.944 912.682 53.944C913.365 53.944 913.888 54.136 914.25 54.52C914.613 54.904 914.794 55.4373 914.794 56.12V72.312C914.794 73.7413 914.09 74.456 912.682 74.456C911.274 74.456 910.57 73.7413 910.57 72.312V64.76H908.938V71.672C908.938 73.1013 908.234 73.816 906.826 73.816C905.418 73.816 904.714 73.1013 904.714 71.672V56.408ZM895.69 72.184C896.437 72.184 897.056 72.3973 897.546 72.824C898.037 73.2507 898.282 73.848 898.282 74.616V78.52C898.282 78.7547 898.314 78.904 898.378 78.968C898.442 79.032 898.592 79.064 898.826 79.064H913.098C913.781 79.064 914.314 79.2453 914.698 79.608C915.082 79.9707 915.274 80.4933 915.274 81.176C915.274 81.8587 915.082 82.3813 914.698 82.744C914.314 83.1067 913.781 83.288 913.098 83.288H896.01C894.965 83.288 894.218 83.0747 893.77 82.648C893.322 82.2213 893.098 81.496 893.098 80.472V74.616C893.098 73.848 893.344 73.2507 893.834 72.824C894.325 72.3973 894.944 72.184 895.69 72.184ZM902.09 66.168C902.709 66.104 903.178 66.1893 903.498 66.424C903.84 66.6373 904.053 67.064 904.138 67.704C904.224 68.3227 904.138 68.8347 903.882 69.24C903.648 69.624 903.21 69.8907 902.57 70.04C902.208 70.1253 901.845 70.1787 901.482 70.2C901.12 70.2213 900.746 70.232 900.362 70.232H899.018C897.973 70.232 897.226 70.0293 896.778 69.624C896.33 69.1973 896.106 68.4613 896.106 67.416V57.144C896.106 56.184 896.298 55.5227 896.682 55.16C897.066 54.7973 897.738 54.616 898.698 54.616H901.93C902.57 54.616 903.029 54.7867 903.306 55.128C903.605 55.4693 903.754 55.96 903.754 56.6C903.754 57.24 903.605 57.7307 903.306 58.072C903.029 58.4133 902.57 58.584 901.93 58.584H900.682C900.469 58.584 900.33 58.6053 900.266 58.648C900.224 58.6907 900.202 58.8187 900.202 59.032V65.752C900.202 65.9653 900.224 66.104 900.266 66.168C900.33 66.2107 900.469 66.232 900.682 66.232H901.194C901.322 66.232 901.461 66.232 901.61 66.232C901.76 66.2107 901.92 66.1893 902.09 66.168ZM893.61 66.392C894.229 66.3067 894.709 66.3707 895.05 66.584C895.392 66.776 895.605 67.192 895.69 67.832C895.861 69.1333 895.328 69.8907 894.09 70.104C893.706 70.1893 893.312 70.2533 892.906 70.296C892.501 70.3387 891.989 70.36 891.37 70.36H890.762C889.717 70.36 888.97 70.1467 888.522 69.72C888.096 69.2933 887.882 68.5573 887.882 67.512V57.432C887.882 56.3867 888.096 55.6613 888.522 55.256C888.97 54.8293 889.717 54.616 890.762 54.616H893.258C893.898 54.616 894.357 54.776 894.634 55.096C894.933 55.416 895.082 55.896 895.082 56.536C895.082 57.176 894.933 57.656 894.634 57.976C894.357 58.296 893.898 58.456 893.258 58.456H892.458C892.224 58.456 892.085 58.488 892.042 58.552C892.021 58.5947 892.01 58.712 892.01 58.904V65.976C892.01 66.1893 892.032 66.328 892.074 66.392C892.117 66.4347 892.245 66.456 892.458 66.456H892.65C892.821 66.456 892.981 66.456 893.13 66.456C893.28 66.4347 893.44 66.4133 893.61 66.392ZM922.714 60.824C922.351 61.4 921.871 61.816 921.274 62.072C920.698 62.3067 920.068 62.2853 919.386 62.008C918.724 61.7307 918.319 61.2827 918.17 60.664C918.042 60.0453 918.159 59.4053 918.522 58.744C919.226 57.3573 920.25 56.3547 921.594 55.736C922.959 55.096 924.452 54.776 926.074 54.776C927.204 54.776 928.25 54.9253 929.21 55.224C930.17 55.5227 931.002 55.96 931.706 56.536C932.41 57.112 932.954 57.8267 933.338 58.68C933.743 59.5333 933.946 60.5253 933.946 61.656C933.946 62.4027 933.828 63.1707 933.594 63.96C933.38 64.7493 933.06 65.5173 932.634 66.264L929.306 72.056C928.943 72.7387 928.463 73.1653 927.866 73.336C927.29 73.5067 926.692 73.464 926.074 73.208C925.412 72.9307 924.986 72.4827 924.794 71.864C924.602 71.224 924.698 70.5627 925.082 69.88L927.354 65.944C927.695 65.368 928.026 64.7173 928.346 63.992C928.687 63.2667 928.858 62.552 928.858 61.848C928.858 61.016 928.58 60.3547 928.026 59.864C927.471 59.3733 926.778 59.128 925.946 59.128C924.559 59.128 923.482 59.6933 922.714 60.824ZM924.122 78.424C924.122 77.6347 924.399 76.9627 924.954 76.408C925.508 75.8533 926.18 75.576 926.97 75.576C927.759 75.576 928.431 75.8533 928.986 76.408C929.54 76.9627 929.818 77.6347 929.818 78.424C929.818 79.2133 929.54 79.8853 928.986 80.44C928.431 80.9947 927.759 81.272 926.97 81.272C926.18 81.272 925.508 80.9947 924.954 80.44C924.399 79.8853 924.122 79.2133 924.122 78.424Z" fill="#E3EDFD"/>
<path d="M566.724 120.644C567.433 120.644 568.021 120.812 568.488 121.148C568.955 121.465 569.309 121.913 569.552 122.492L576.272 138.788C576.533 139.404 576.533 139.983 576.272 140.524C576.011 141.047 575.553 141.411 574.9 141.616C574.265 141.821 573.677 141.775 573.136 141.476C572.613 141.177 572.221 140.701 571.96 140.048L570.7 136.744H562.72L561.488 140.048C561.227 140.701 560.825 141.177 560.284 141.476C559.761 141.775 559.173 141.821 558.52 141.616C557.867 141.411 557.409 141.047 557.148 140.524C556.905 139.983 556.915 139.404 557.176 138.788L563.896 122.492C564.139 121.913 564.493 121.465 564.96 121.148C565.427 120.812 566.015 120.644 566.724 120.644ZM564.204 132.824H569.244L566.78 126.3H566.668L564.204 132.824ZM579.117 122.996C579.117 122.287 579.332 121.717 579.762 121.288C580.191 120.859 580.76 120.644 581.47 120.644C582.179 120.644 582.748 120.859 583.178 121.288C583.626 121.717 583.849 122.287 583.849 122.996V139.376C583.849 140.085 583.626 140.655 583.178 141.084C582.748 141.513 582.179 141.728 581.47 141.728C580.76 141.728 580.191 141.513 579.762 141.084C579.332 140.655 579.117 140.085 579.117 139.376V122.996ZM604.055 121.12C604.055 120.467 604.261 119.963 604.671 119.608C605.101 119.253 605.642 119.076 606.295 119.076C606.949 119.076 607.481 119.253 607.891 119.608C608.321 119.963 608.535 120.467 608.535 121.12V127.756H610.523C611.121 127.756 611.597 127.915 611.951 128.232C612.325 128.549 612.511 129.035 612.511 129.688C612.511 130.323 612.325 130.799 611.951 131.116C611.597 131.433 611.121 131.592 610.523 131.592H608.535V143.016C608.535 143.669 608.321 144.173 607.891 144.528C607.481 144.883 606.949 145.06 606.295 145.06C605.642 145.06 605.101 144.883 604.671 144.528C604.261 144.173 604.055 143.669 604.055 143.016V121.12ZM589.719 124.144C589.122 124.144 588.655 123.985 588.319 123.668C588.002 123.332 587.843 122.865 587.843 122.268C587.843 121.671 588.002 121.213 588.319 120.896C588.655 120.56 589.122 120.392 589.719 120.392H597.895C599.762 120.392 600.695 121.297 600.695 123.108V124.648C600.695 126.235 600.434 127.728 599.911 129.128C599.407 130.528 598.689 131.825 597.755 133.02C596.841 134.215 595.739 135.297 594.451 136.268C593.163 137.239 591.754 138.088 590.223 138.816C589.701 139.059 589.159 139.133 588.599 139.04C588.058 138.947 587.629 138.601 587.311 138.004C587.05 137.519 586.985 137.005 587.115 136.464C587.265 135.904 587.638 135.465 588.235 135.148C589.43 134.513 590.513 133.86 591.483 133.188C592.473 132.497 593.313 131.76 594.003 130.976C594.713 130.192 595.254 129.352 595.627 128.456C596.019 127.56 596.215 126.589 596.215 125.544V124.788C596.215 124.527 596.178 124.359 596.103 124.284C596.029 124.191 595.851 124.144 595.571 124.144H589.719ZM621.618 141.84C620.984 141.84 620.489 141.681 620.134 141.364C619.78 141.047 619.602 140.571 619.602 139.936C619.602 139.301 619.78 138.825 620.134 138.508C620.489 138.191 620.984 138.032 621.618 138.032H629.878V133.888H625.538C624.586 133.888 623.896 133.683 623.466 133.272C623.037 132.861 622.822 132.18 622.822 131.228V123.052C622.822 122.1 623.037 121.419 623.466 121.008C623.896 120.597 624.586 120.392 625.538 120.392H639.398C640.033 120.392 640.528 120.551 640.882 120.868C641.237 121.185 641.414 121.661 641.414 122.296C641.414 122.931 641.237 123.407 640.882 123.724C640.528 124.041 640.033 124.2 639.398 124.2H627.61C627.461 124.2 627.368 124.219 627.33 124.256C627.293 124.293 627.274 124.377 627.274 124.508V129.772C627.274 129.903 627.293 129.987 627.33 130.024C627.368 130.061 627.461 130.08 627.61 130.08H639.678C640.313 130.08 640.808 130.239 641.162 130.556C641.517 130.873 641.694 131.349 641.694 131.984C641.694 132.619 641.517 133.095 641.162 133.412C640.808 133.729 640.313 133.888 639.678 133.888H634.358V138.032H642.618C643.253 138.032 643.748 138.191 644.102 138.508C644.457 138.825 644.634 139.301 644.634 139.936C644.634 140.571 644.457 141.047 644.102 141.364C643.748 141.681 643.253 141.84 642.618 141.84H621.618ZM647.315 126.356C647.315 125.385 647.492 124.499 647.847 123.696C648.22 122.893 648.724 122.212 649.359 121.652C650.012 121.073 650.777 120.625 651.655 120.308C652.532 119.991 653.475 119.832 654.483 119.832C655.491 119.832 656.424 119.991 657.283 120.308C658.16 120.625 658.916 121.073 659.551 121.652C660.204 122.212 660.717 122.893 661.091 123.696C661.464 124.499 661.651 125.385 661.651 126.356C661.651 127.177 661.52 127.933 661.259 128.624C661.016 129.296 660.671 129.903 660.223 130.444C659.775 130.967 659.243 131.415 658.627 131.788C658.011 132.161 657.339 132.441 656.611 132.628V136.884C657.32 136.847 658.02 136.8 658.711 136.744C659.42 136.669 660.167 136.585 660.951 136.492C661.492 136.417 661.94 136.511 662.295 136.772C662.649 137.015 662.873 137.379 662.967 137.864C663.06 138.312 663.004 138.76 662.799 139.208C662.612 139.637 662.276 139.917 661.791 140.048C661.231 140.197 660.624 140.309 659.971 140.384C659.317 140.459 658.645 140.524 657.955 140.58C657.283 140.617 656.611 140.645 655.939 140.664C655.267 140.664 654.632 140.664 654.035 140.664H647.819C647.221 140.664 646.745 140.505 646.391 140.188C646.036 139.852 645.859 139.385 645.859 138.788C645.859 138.191 646.036 137.733 646.391 137.416C646.745 137.08 647.221 136.912 647.819 136.912H652.355V132.628C650.843 132.255 649.62 131.527 648.687 130.444C647.772 129.361 647.315 127.999 647.315 126.356ZM663.947 121.12C663.947 120.467 664.152 119.963 664.563 119.608C664.992 119.253 665.533 119.076 666.187 119.076C666.84 119.076 667.372 119.253 667.783 119.608C668.212 119.963 668.427 120.467 668.427 121.12V128.008H670.303C670.9 128.008 671.376 128.167 671.731 128.484C672.104 128.783 672.291 129.259 672.291 129.912C672.291 130.565 672.104 131.051 671.731 131.368C671.376 131.667 670.9 131.816 670.303 131.816H668.427V143.016C668.427 143.669 668.212 144.173 667.783 144.528C667.372 144.883 666.84 145.06 666.187 145.06C665.533 145.06 664.992 144.883 664.563 144.528C664.152 144.173 663.947 143.669 663.947 143.016V121.12ZM651.711 126.356C651.711 127.177 651.963 127.859 652.467 128.4C652.989 128.941 653.661 129.212 654.483 129.212C655.304 129.212 655.967 128.941 656.471 128.4C656.993 127.859 657.255 127.177 657.255 126.356C657.255 125.535 656.993 124.853 656.471 124.312C655.967 123.771 655.304 123.5 654.483 123.5C653.661 123.5 652.989 123.771 652.467 124.312C651.963 124.853 651.711 125.535 651.711 126.356ZM677.316 123.584C676.719 123.584 676.233 123.425 675.86 123.108C675.487 122.772 675.3 122.305 675.3 121.708C675.3 121.111 675.487 120.653 675.86 120.336C676.233 120 676.719 119.832 677.316 119.832H692.772C693.369 119.832 693.855 120 694.228 120.336C694.601 120.653 694.788 121.111 694.788 121.708C694.788 122.305 694.601 122.772 694.228 123.108C693.855 123.425 693.369 123.584 692.772 123.584H687.34C687.452 124.088 687.723 124.545 688.152 124.956C688.581 125.367 689.104 125.759 689.72 126.132C690.336 126.487 691.017 126.823 691.764 127.14C692.529 127.457 693.313 127.775 694.116 128.092C694.639 128.297 694.993 128.652 695.18 129.156C695.385 129.641 695.385 130.136 695.18 130.64C694.975 131.144 694.629 131.48 694.144 131.648C693.659 131.816 693.136 131.816 692.576 131.648C691.885 131.443 691.176 131.181 690.448 130.864C689.739 130.547 689.048 130.201 688.376 129.828C687.704 129.455 687.079 129.063 686.5 128.652C685.94 128.223 685.455 127.803 685.044 127.392C684.633 127.803 684.139 128.223 683.56 128.652C683 129.063 682.384 129.455 681.712 129.828C681.04 130.201 680.34 130.547 679.612 130.864C678.903 131.181 678.203 131.443 677.512 131.648C676.952 131.816 676.429 131.816 675.944 131.648C675.459 131.48 675.113 131.144 674.908 130.64C674.703 130.136 674.693 129.641 674.88 129.156C675.085 128.652 675.449 128.297 675.972 128.092C676.775 127.775 677.549 127.457 678.296 127.14C679.061 126.823 679.752 126.487 680.368 126.132C680.984 125.759 681.497 125.367 681.908 124.956C682.337 124.545 682.608 124.088 682.72 123.584H677.316ZM674.544 137.22C673.909 137.22 673.415 137.061 673.06 136.744C672.705 136.427 672.528 135.951 672.528 135.316C672.528 134.681 672.705 134.205 673.06 133.888C673.415 133.571 673.909 133.412 674.544 133.412H695.544C696.179 133.412 696.673 133.571 697.028 133.888C697.383 134.205 697.56 134.681 697.56 135.316C697.56 135.951 697.383 136.427 697.028 136.744C696.673 137.061 696.179 137.22 695.544 137.22H687.284V143.016C687.284 143.707 687.079 144.22 686.668 144.556C686.276 144.892 685.735 145.06 685.044 145.06C684.353 145.06 683.803 144.892 683.392 144.556C683 144.22 682.804 143.707 682.804 143.016V137.22H674.544ZM702.06 138.228C702.06 137.593 702.266 137.127 702.676 136.828C703.087 136.529 703.61 136.38 704.244 136.38C704.879 136.38 705.402 136.529 705.812 136.828C706.242 137.127 706.456 137.593 706.456 138.228V140.888C706.456 141.093 706.559 141.196 706.764 141.196H719.364C719.999 141.196 720.484 141.336 720.82 141.616C721.175 141.896 721.352 142.353 721.352 142.988C721.352 143.623 721.175 144.071 720.82 144.332C720.484 144.612 719.999 144.752 719.364 144.752H704.468C703.628 144.752 703.012 144.556 702.62 144.164C702.247 143.791 702.06 143.184 702.06 142.344V138.228ZM700.884 134.812C700.25 134.812 699.746 134.7 699.372 134.476C699.018 134.233 698.84 133.795 698.84 133.16C698.84 132.525 699.018 132.087 699.372 131.844C699.746 131.601 700.25 131.48 700.884 131.48H721.828C722.463 131.48 722.958 131.601 723.312 131.844C723.686 132.087 723.872 132.525 723.872 133.16C723.872 133.795 723.686 134.233 723.312 134.476C722.958 134.7 722.463 134.812 721.828 134.812H700.884ZM706.568 125.46C706.568 125.591 706.587 125.675 706.624 125.712C706.662 125.749 706.755 125.768 706.904 125.768H718.916C719.514 125.768 719.999 125.917 720.372 126.216C720.746 126.515 720.932 126.963 720.932 127.56C720.932 128.157 720.746 128.605 720.372 128.904C719.999 129.203 719.514 129.352 718.916 129.352H704.916C703.964 129.352 703.274 129.147 702.844 128.736C702.415 128.325 702.2 127.644 702.2 126.692V121.372C702.2 120.719 702.396 120.215 702.788 119.86C703.18 119.505 703.712 119.328 704.384 119.328C705.056 119.328 705.588 119.505 705.98 119.86C706.372 120.215 706.568 120.719 706.568 121.372V125.46ZM738.355 131.984V129.968C736.694 129.688 735.406 129.091 734.491 128.176C733.595 127.243 733.147 126.076 733.147 124.676C733.147 122.996 733.782 121.671 735.051 120.7C736.321 119.729 738.094 119.244 740.371 119.244C742.649 119.244 744.422 119.729 745.691 120.7C746.961 121.671 747.595 122.996 747.595 124.676C747.595 126.076 747.138 127.243 746.223 128.176C745.327 129.091 744.049 129.688 742.387 129.968V131.956C743.209 131.919 743.993 131.872 744.739 131.816C745.486 131.76 746.261 131.676 747.063 131.564C747.605 131.489 748.053 131.545 748.407 131.732C748.762 131.9 748.986 132.227 749.079 132.712C749.173 133.179 749.117 133.599 748.911 133.972C748.706 134.327 748.361 134.569 747.875 134.7C746.774 134.98 745.579 135.148 744.291 135.204C743.022 135.26 741.725 135.288 740.399 135.288H733.651C733.054 135.288 732.578 135.167 732.223 134.924C731.869 134.681 731.691 134.261 731.691 133.664C731.691 133.067 731.869 132.637 732.223 132.376C732.578 132.115 733.054 131.984 733.651 131.984H738.355ZM749.891 121.12C749.891 120.467 750.078 119.963 750.451 119.608C750.843 119.253 751.366 119.076 752.019 119.076C752.691 119.076 753.214 119.253 753.587 119.608C753.961 119.963 754.147 120.467 754.147 121.12V125.964H756.163C756.761 125.964 757.237 126.104 757.591 126.384C757.965 126.664 758.151 127.131 758.151 127.784C758.151 128.419 757.965 128.876 757.591 129.156C757.237 129.436 756.761 129.576 756.163 129.576H754.147V135.82C754.147 136.473 753.951 136.977 753.559 137.332C753.186 137.687 752.673 137.864 752.019 137.864C751.366 137.864 750.843 137.687 750.451 137.332C750.078 136.977 749.891 136.473 749.891 135.82V121.12ZM737.907 136.632C738.561 136.632 739.074 136.819 739.447 137.192C739.821 137.565 740.007 138.088 740.007 138.76V140.72C740.007 140.925 740.035 141.056 740.091 141.112C740.147 141.168 740.278 141.196 740.483 141.196H752.943C753.541 141.196 754.007 141.355 754.343 141.672C754.679 142.008 754.847 142.437 754.847 142.96C754.847 143.483 754.679 143.912 754.343 144.248C754.007 144.584 753.541 144.752 752.943 144.752H738.271C737.357 144.752 736.703 144.565 736.311 144.192C735.938 143.819 735.751 143.184 735.751 142.288V138.76C735.751 138.088 735.938 137.565 736.311 137.192C736.703 136.819 737.235 136.632 737.907 136.632ZM743.339 124.676C743.339 123.967 743.05 123.435 742.471 123.08C741.911 122.725 741.211 122.548 740.371 122.548C739.531 122.548 738.822 122.725 738.243 123.08C737.683 123.435 737.403 123.967 737.403 124.676C737.403 125.385 737.683 125.917 738.243 126.272C738.822 126.627 739.531 126.804 740.371 126.804C741.211 126.804 741.911 126.627 742.471 126.272C743.05 125.917 743.339 125.385 743.339 124.676ZM759.649 121.54C759.649 120.887 759.835 120.392 760.209 120.056C760.582 119.701 761.095 119.524 761.749 119.524C762.402 119.524 762.915 119.701 763.289 120.056C763.662 120.392 763.849 120.887 763.849 121.54V123.332H768.805V121.54C768.805 120.887 768.982 120.392 769.337 120.056C769.71 119.701 770.223 119.524 770.877 119.524C771.53 119.524 772.034 119.701 772.389 120.056C772.762 120.392 772.949 120.887 772.949 121.54V121.96H776.757V121.092C776.757 120.439 776.962 119.944 777.373 119.608C777.783 119.253 778.315 119.076 778.969 119.076C779.622 119.076 780.163 119.253 780.593 119.608C781.022 119.944 781.237 120.439 781.237 121.092V131.2C781.237 131.853 781.022 132.357 780.593 132.712C780.182 133.067 779.65 133.244 778.997 133.244C778.343 133.244 777.802 133.067 777.373 132.712C776.962 132.357 776.757 131.853 776.757 131.2V130.22H772.949C772.911 131.041 772.687 131.629 772.277 131.984C771.866 132.32 771.231 132.488 770.373 132.488H762.253C761.338 132.488 760.675 132.292 760.265 131.9C759.854 131.508 759.649 130.855 759.649 129.94V121.54ZM776.757 138.648C776.757 138.443 776.654 138.34 776.449 138.34H764.465C763.923 138.34 763.466 138.181 763.093 137.864C762.719 137.547 762.533 137.089 762.533 136.492C762.533 135.895 762.719 135.437 763.093 135.12C763.466 134.803 763.923 134.644 764.465 134.644H778.745C779.659 134.644 780.303 134.821 780.677 135.176C781.05 135.531 781.237 136.165 781.237 137.08V143.016C781.237 143.669 781.022 144.173 780.593 144.528C780.182 144.883 779.65 145.06 778.997 145.06C778.343 145.06 777.802 144.883 777.373 144.528C776.962 144.173 776.757 143.669 776.757 143.016V138.648ZM763.849 128.988C763.849 129.193 763.942 129.296 764.129 129.296H768.525C768.711 129.296 768.805 129.193 768.805 128.988V126.524H763.849V128.988ZM772.949 127.028H776.757V125.152H772.949V127.028ZM785.771 130.276C785.771 129.436 785.939 128.708 786.275 128.092C786.63 127.457 787.115 126.944 787.731 126.552C788.347 126.141 789.066 125.833 789.887 125.628C790.727 125.423 791.633 125.32 792.603 125.32C793.574 125.32 794.47 125.423 795.291 125.628C796.131 125.833 796.859 126.141 797.475 126.552C798.091 126.944 798.567 127.457 798.903 128.092C799.258 128.708 799.435 129.436 799.435 130.276C799.435 131.116 799.258 131.853 798.903 132.488C798.567 133.104 798.091 133.617 797.475 134.028C796.859 134.42 796.131 134.719 795.291 134.924C794.47 135.129 793.574 135.232 792.603 135.232C791.633 135.232 790.727 135.129 789.887 134.924C789.066 134.719 788.347 134.42 787.731 134.028C787.115 133.617 786.63 133.104 786.275 132.488C785.939 131.853 785.771 131.116 785.771 130.276ZM801.927 121.092C801.927 120.439 802.133 119.944 802.543 119.608C802.973 119.253 803.514 119.076 804.167 119.076C804.821 119.076 805.353 119.253 805.763 119.608C806.193 119.944 806.407 120.439 806.407 121.092V126.356H808.339C808.937 126.356 809.422 126.505 809.795 126.804C810.169 127.103 810.355 127.569 810.355 128.204C810.355 128.839 810.169 129.305 809.795 129.604C809.422 129.903 808.937 130.052 808.339 130.052H806.407V135.82C806.407 136.473 806.193 136.977 805.763 137.332C805.353 137.687 804.821 137.864 804.167 137.864C803.514 137.864 802.973 137.687 802.543 137.332C802.133 136.977 801.927 136.473 801.927 135.82V121.092ZM793.079 140.58C793.079 140.785 793.107 140.916 793.163 140.972C793.219 141.028 793.35 141.056 793.555 141.056H805.203C805.801 141.056 806.267 141.215 806.603 141.532C806.939 141.849 807.107 142.307 807.107 142.904C807.107 143.501 806.939 143.959 806.603 144.276C806.267 144.593 805.801 144.752 805.203 144.752H791.063C790.149 144.752 789.495 144.565 789.103 144.192C788.73 143.819 788.543 143.184 788.543 142.288V138.564C788.543 137.892 788.749 137.369 789.159 136.996C789.589 136.623 790.139 136.436 790.811 136.436C791.483 136.436 792.025 136.623 792.435 136.996C792.865 137.369 793.079 137.892 793.079 138.564V140.58ZM786.443 124.536C785.809 124.536 785.305 124.415 784.931 124.172C784.577 123.911 784.399 123.463 784.399 122.828C784.399 122.193 784.577 121.755 784.931 121.512C785.305 121.251 785.809 121.12 786.443 121.12H790.503V120.028C790.503 119.393 790.69 118.917 791.063 118.6C791.455 118.264 791.969 118.096 792.603 118.096C793.238 118.096 793.742 118.264 794.115 118.6C794.507 118.917 794.703 119.393 794.703 120.028V121.12H798.483C799.118 121.12 799.613 121.251 799.967 121.512C800.341 121.755 800.527 122.193 800.527 122.828C800.527 123.463 800.341 123.911 799.967 124.172C799.613 124.415 799.118 124.536 798.483 124.536H786.443ZM795.151 130.276C795.151 129.977 795.077 129.716 794.927 129.492C794.778 129.268 794.582 129.091 794.339 128.96C794.115 128.811 793.845 128.708 793.527 128.652C793.229 128.577 792.921 128.54 792.603 128.54C792.286 128.54 791.969 128.577 791.651 128.652C791.353 128.708 791.082 128.811 790.839 128.96C790.615 129.091 790.429 129.268 790.279 129.492C790.13 129.716 790.055 129.977 790.055 130.276C790.055 130.575 790.13 130.836 790.279 131.06C790.429 131.284 790.615 131.471 790.839 131.62C791.082 131.751 791.353 131.853 791.651 131.928C791.969 131.984 792.286 132.012 792.603 132.012C792.921 132.012 793.229 131.984 793.527 131.928C793.845 131.853 794.115 131.751 794.339 131.62C794.582 131.471 794.778 131.284 794.927 131.06C795.077 130.836 795.151 130.575 795.151 130.276ZM823.159 136.296C822.599 136.296 822.169 136.175 821.871 135.932C821.572 135.689 821.423 135.288 821.423 134.728C821.423 134.168 821.572 133.767 821.871 133.524C822.169 133.281 822.599 133.16 823.159 133.16H837.131C837.579 133.16 837.952 133.197 838.251 133.272C838.549 133.328 838.783 133.44 838.951 133.608C839.137 133.776 839.259 134.009 839.315 134.308C839.389 134.588 839.427 134.952 839.427 135.4V138.116C839.427 139.031 839.249 139.656 838.895 139.992C838.559 140.309 837.933 140.468 837.019 140.468H825.819C825.688 140.468 825.623 140.533 825.623 140.664V141.728C825.623 141.84 825.688 141.896 825.819 141.896H838.279C838.839 141.896 839.268 142.017 839.567 142.26C839.884 142.521 840.043 142.932 840.043 143.492C840.043 144.052 839.884 144.453 839.567 144.696C839.268 144.939 838.839 145.06 838.279 145.06H823.803C822.888 145.06 822.263 144.892 821.927 144.556C821.591 144.239 821.423 143.623 821.423 142.708V139.712C821.423 138.797 821.581 138.181 821.899 137.864C822.235 137.547 822.86 137.388 823.775 137.388H835.003C835.152 137.388 835.227 137.323 835.227 137.192V136.492C835.227 136.361 835.152 136.296 835.003 136.296H823.159ZM818.427 121.4C818.427 120.056 819.108 119.384 820.471 119.384C821.833 119.384 822.515 120.056 822.515 121.4V122.632H827.779V121.4C827.779 120.056 828.46 119.384 829.823 119.384C831.185 119.384 831.867 120.056 831.867 121.4V128.82C831.867 129.735 831.661 130.388 831.251 130.78C830.859 131.172 830.205 131.368 829.291 131.368H821.031C820.116 131.368 819.453 131.172 819.043 130.78C818.632 130.388 818.427 129.735 818.427 128.82V121.4ZM834.947 121.092C834.947 120.439 835.152 119.944 835.563 119.608C835.992 119.253 836.533 119.076 837.187 119.076C837.84 119.076 838.372 119.253 838.783 119.608C839.212 119.944 839.427 120.439 839.427 121.092V123.416H841.359C841.956 123.416 842.441 123.565 842.815 123.864C843.188 124.163 843.375 124.629 843.375 125.264C843.375 125.899 843.188 126.365 842.815 126.664C842.441 126.963 841.956 127.112 841.359 127.112H839.427V130.08C839.427 130.733 839.212 131.237 838.783 131.592C838.372 131.947 837.84 132.124 837.187 132.124C836.533 132.124 835.992 131.947 835.563 131.592C835.152 131.237 834.947 130.733 834.947 130.08V121.092ZM822.515 127.98C822.515 128.185 822.608 128.288 822.795 128.288H827.499C827.685 128.288 827.779 128.185 827.779 127.98V125.712H822.515V127.98ZM848.659 134.588C848.062 134.588 847.576 134.429 847.203 134.112C846.83 133.795 846.643 133.337 846.643 132.74C846.643 132.143 846.83 131.685 847.203 131.368C847.576 131.051 848.062 130.892 848.659 130.892H850.003C849.91 130.369 849.844 129.819 849.807 129.24C849.77 128.661 849.751 128.111 849.751 127.588V126.944C849.751 126.347 849.928 125.861 850.283 125.488C850.638 125.115 851.17 124.928 851.879 124.928C852.57 124.928 853.092 125.115 853.447 125.488C853.82 125.861 854.007 126.347 854.007 126.944V127.588C854.007 128.148 854.007 128.708 854.007 129.268C854.026 129.809 854.063 130.351 854.119 130.892H858.571C858.627 130.351 858.664 129.809 858.683 129.268C858.702 128.708 858.711 128.148 858.711 127.588V126.944C858.711 126.347 858.888 125.861 859.243 125.488C859.616 125.115 860.148 124.928 860.839 124.928C861.548 124.928 862.08 125.115 862.435 125.488C862.79 125.861 862.967 126.347 862.967 126.944V127.588C862.967 128.111 862.948 128.661 862.911 129.24C862.874 129.819 862.808 130.369 862.715 130.892H864.059C864.656 130.892 865.142 131.051 865.515 131.368C865.888 131.685 866.075 132.143 866.075 132.74C866.075 133.337 865.888 133.795 865.515 134.112C865.142 134.429 864.656 134.588 864.059 134.588H862.351V138.032H866.859C867.494 138.032 867.988 138.191 868.343 138.508C868.698 138.825 868.875 139.301 868.875 139.936C868.875 140.571 868.698 141.047 868.343 141.364C867.988 141.681 867.494 141.84 866.859 141.84H845.859C845.224 141.84 844.73 141.681 844.375 141.364C844.02 141.047 843.843 140.571 843.843 139.936C843.843 139.301 844.02 138.825 844.375 138.508C844.73 138.191 845.224 138.032 845.859 138.032H850.367V134.588H848.659ZM848.519 124.088C847.922 124.088 847.436 123.929 847.063 123.612C846.69 123.295 846.503 122.837 846.503 122.24C846.503 121.643 846.69 121.185 847.063 120.868C847.436 120.551 847.922 120.392 848.519 120.392H864.199C864.796 120.392 865.282 120.551 865.655 120.868C866.028 121.185 866.215 121.643 866.215 122.24C866.215 122.837 866.028 123.295 865.655 123.612C865.282 123.929 864.796 124.088 864.199 124.088H848.519ZM854.511 138.032H858.207V134.588H854.511V138.032ZM896.966 119.412C897.582 119.412 898.068 119.552 898.422 119.832C898.796 120.093 898.982 120.532 898.982 121.148C898.982 121.764 898.796 122.212 898.422 122.492C898.068 122.753 897.582 122.884 896.966 122.884H891.618C891.712 123.276 891.964 123.659 892.374 124.032C892.785 124.405 893.289 124.76 893.886 125.096C894.502 125.432 895.165 125.74 895.874 126.02C896.602 126.3 897.33 126.552 898.058 126.776C898.618 126.944 899.001 127.233 899.206 127.644C899.43 128.036 899.468 128.447 899.318 128.876C899.001 129.865 898.208 130.239 896.938 129.996C896.248 129.865 895.548 129.679 894.838 129.436C894.129 129.175 893.438 128.895 892.766 128.596C892.113 128.279 891.488 127.943 890.89 127.588C890.312 127.233 889.808 126.879 889.378 126.524C888.949 126.879 888.436 127.233 887.838 127.588C887.26 127.943 886.634 128.279 885.962 128.596C885.309 128.895 884.628 129.175 883.918 129.436C883.209 129.679 882.509 129.865 881.818 129.996C880.549 130.239 879.756 129.865 879.438 128.876C879.289 128.447 879.317 128.036 879.522 127.644C879.746 127.233 880.138 126.944 880.698 126.776C881.408 126.552 882.126 126.3 882.854 126.02C883.582 125.74 884.245 125.432 884.842 125.096C885.44 124.76 885.944 124.405 886.354 124.032C886.765 123.659 887.017 123.276 887.11 122.884H881.79C881.174 122.884 880.68 122.753 880.306 122.492C879.952 122.212 879.774 121.764 879.774 121.148C879.774 120.532 879.952 120.093 880.306 119.832C880.68 119.552 881.174 119.412 881.79 119.412H896.966ZM878.878 135.036C878.281 135.036 877.796 134.887 877.422 134.588C877.049 134.289 876.862 133.841 876.862 133.244C876.862 132.647 877.049 132.208 877.422 131.928C877.796 131.629 878.281 131.48 878.878 131.48H899.906C900.504 131.48 900.98 131.629 901.334 131.928C901.708 132.208 901.894 132.647 901.894 133.244C901.894 133.841 901.708 134.289 901.334 134.588C900.98 134.887 900.504 135.036 899.906 135.036H891.87V137.444C891.87 138.079 891.656 138.555 891.226 138.872C890.816 139.189 890.293 139.348 889.658 139.348C889.024 139.348 888.492 139.189 888.062 138.872C887.652 138.555 887.446 138.079 887.446 137.444V135.036H878.878ZM880.082 138.368C880.082 137.733 880.288 137.267 880.698 136.968C881.109 136.669 881.632 136.52 882.266 136.52C882.901 136.52 883.424 136.669 883.834 136.968C884.264 137.267 884.478 137.733 884.478 138.368V140.888C884.478 141.093 884.581 141.196 884.786 141.196H897.386C898.021 141.196 898.506 141.336 898.842 141.616C899.197 141.896 899.374 142.353 899.374 142.988C899.374 143.623 899.197 144.071 898.842 144.332C898.506 144.612 898.021 144.752 897.386 144.752H882.49C881.65 144.752 881.034 144.556 880.642 144.164C880.269 143.791 880.082 143.184 880.082 142.344V138.368ZM921.767 121.12C921.767 120.467 921.972 119.963 922.383 119.608C922.812 119.253 923.353 119.076 924.007 119.076C924.66 119.076 925.192 119.253 925.603 119.608C926.032 119.963 926.247 120.467 926.247 121.12V143.016C926.247 143.669 926.032 144.173 925.603 144.528C925.192 144.883 924.66 145.06 924.007 145.06C923.353 145.06 922.812 144.883 922.383 144.528C921.972 144.173 921.767 143.669 921.767 143.016V121.12ZM908.411 129.744V134.252C908.411 134.457 908.439 134.597 908.495 134.672C908.551 134.728 908.681 134.756 908.887 134.756H912.891C913.096 134.756 913.227 134.728 913.283 134.672C913.339 134.597 913.367 134.457 913.367 134.252V129.744H908.411ZM904.211 122.184C904.211 121.549 904.397 121.073 904.771 120.756C905.163 120.42 905.676 120.252 906.311 120.252C906.945 120.252 907.449 120.42 907.823 120.756C908.215 121.073 908.411 121.549 908.411 122.184V126.104H913.367V122.184C913.367 121.549 913.553 121.073 913.927 120.756C914.319 120.42 914.832 120.252 915.467 120.252C916.101 120.252 916.605 120.42 916.979 120.756C917.371 121.073 917.567 121.549 917.567 122.184V135.624C917.567 137.472 916.633 138.396 914.767 138.396H907.011C905.144 138.396 904.211 137.472 904.211 135.624V122.184Z" fill="#E3EDFD"/>
<path fill-rule="evenodd" clip-rule="evenodd" d="M822.525 175.08H662.179C657.327 175.08 653.393 179.63 653.393 185.241V227.154C653.393 232.766 657.327 237.315 662.179 237.315H822.525C827.377 237.315 831.311 232.766 831.311 227.154V185.241C831.311 179.63 827.377 175.08 822.525 175.08ZM662.179 170C654.9 170 649 176.824 649 185.241V227.154C649 235.572 654.9 242.396 662.179 242.396H822.525C829.804 242.396 835.704 235.572 835.704 227.154V185.241C835.704 176.824 829.804 170 822.525 170H662.179Z" fill="#E3EDFD"/>
<path d="M690.754 250.865L681.909 239.433C679.377 236.16 681.386 230.965 685.183 230.965H702.873C706.67 230.965 708.679 236.16 706.147 239.433L697.302 250.865C695.556 253.122 692.5 253.122 690.754 250.865Z" fill="#3D6BE1"/>
<path fill-rule="evenodd" clip-rule="evenodd" d="M685.185 233.505C683.286 233.505 682.282 236.102 683.548 237.739L692.393 249.171C693.266 250.3 694.793 250.3 695.666 249.171L704.511 237.739C705.777 236.102 704.773 233.505 702.875 233.505H685.185ZM680.274 241.126C676.476 236.217 679.489 228.424 685.185 228.424H702.875C708.57 228.424 711.583 236.217 707.785 241.126L698.94 252.559C696.321 255.944 691.738 255.944 689.119 252.559L680.274 241.126Z" fill="#E3EDFD"/>
<rect x="674.261" y="227.154" width="39.5374" height="10.1608" fill="#3D6BE1"/>
<path d="M695.78 209.012H688.099C687.733 209.012 687.367 209.012 687.042 208.93V209.215V214.824H699.194C701.023 214.824 702.121 215.758 702.121 217.587C702.121 219.416 701.023 220.351 699.194 220.351H668.712C666.883 220.351 665.786 219.416 665.786 217.587C665.786 215.758 666.883 214.824 668.712 214.824H680.702V209.215C680.702 209.012 680.702 208.849 680.742 208.646C679.076 208.93 677.653 209.012 675.987 209.012H673.345C670.703 209.012 669.24 207.67 669.24 205.029V192.998C669.24 190.56 670.663 189.219 673.101 189.219H679.645C681.474 189.219 682.571 190.194 682.571 192.023C682.571 193.852 681.474 194.827 679.645 194.827H675.946C675.418 194.827 675.337 194.868 675.337 195.396V202.753C675.337 203.281 675.418 203.362 675.946 203.362H677.532C678.548 203.362 679.32 203.281 680.336 203.159C681.88 202.956 682.978 203.728 683.181 205.354C683.222 205.679 683.222 206.045 683.181 206.329C683.384 206.329 683.628 206.289 683.872 206.289H684.116C684.034 205.923 683.994 205.516 683.994 205.029V192.998C683.994 190.56 685.416 189.219 687.855 189.219H695.536C697.325 189.219 698.463 190.275 698.463 192.023C698.463 193.811 697.325 194.827 695.536 194.827H690.7C690.172 194.827 690.09 194.868 690.09 195.396V202.712C690.09 203.24 690.172 203.322 690.7 203.322H695.78C697.569 203.322 698.707 204.378 698.707 206.167C698.707 207.955 697.569 209.012 695.78 209.012ZM722.553 209.906C729.991 209.906 735.64 212.06 735.64 217.669C735.64 223.277 729.991 225.432 722.553 225.432C715.115 225.432 709.466 223.277 709.466 217.669C709.466 212.06 715.115 209.906 722.553 209.906ZM725.073 206.98C720.968 207.589 717.188 207.792 712.758 207.792H709.628C706.865 207.792 705.686 206.614 705.686 203.972V199.339C705.686 196.697 706.865 195.478 709.628 195.478H717.757C718.163 195.478 718.285 195.356 718.285 194.949V193.445C718.285 193.039 718.163 192.958 717.757 192.958H708.694C707.068 192.958 705.889 192.104 705.889 190.519C705.889 188.893 707.068 188.04 708.694 188.04H720.439C723.244 188.04 724.382 189.178 724.382 191.901V196.331C724.382 199.054 723.244 200.233 720.439 200.233H712.27C711.864 200.233 711.783 200.314 711.783 200.721V202.509C711.783 202.915 711.864 202.997 712.27 202.997H713.815C717.554 202.997 721.008 202.712 724.26 202.224C725.804 201.98 727.064 202.428 727.389 204.053C727.715 205.679 726.617 206.736 725.073 206.98ZM729.259 206.126V190.235C729.259 188.324 730.6 187.308 732.51 187.308C734.421 187.308 735.762 188.324 735.762 190.235V195.193H738.566C740.273 195.193 741.493 196.047 741.493 197.876C741.493 199.704 740.273 200.558 738.566 200.558H735.762V206.126C735.762 208.036 734.421 209.093 732.51 209.093C730.6 209.093 729.259 208.036 729.259 206.126ZM722.553 220.595C725.682 220.595 729.137 220.067 729.137 217.669C729.137 215.271 725.682 214.742 722.553 214.742C719.423 214.742 715.969 215.271 715.969 217.669C715.969 220.067 719.423 220.595 722.553 220.595ZM772.167 209.012H764.485C764.12 209.012 763.754 209.012 763.429 208.93V209.215V214.824H775.581C777.41 214.824 778.507 215.758 778.507 217.587C778.507 219.416 777.41 220.351 775.581 220.351H745.099C743.27 220.351 742.172 219.416 742.172 217.587C742.172 215.758 743.27 214.824 745.099 214.824H757.088V209.215C757.088 209.012 757.088 208.849 757.129 208.646C755.463 208.93 754.04 209.012 752.374 209.012H749.732C747.09 209.012 745.627 207.67 745.627 205.029V192.998C745.627 190.56 747.05 189.219 749.488 189.219H756.032C757.861 189.219 758.958 190.194 758.958 192.023C758.958 193.852 757.861 194.827 756.032 194.827H752.333C751.805 194.827 751.724 194.868 751.724 195.396V202.753C751.724 203.281 751.805 203.362 752.333 203.362H753.918C754.934 203.362 755.707 203.281 756.723 203.159C758.267 202.956 759.364 203.728 759.568 205.354C759.608 205.679 759.608 206.045 759.568 206.329C759.771 206.329 760.015 206.289 760.259 206.289H760.502C760.421 205.923 760.381 205.516 760.381 205.029V192.998C760.381 190.56 761.803 189.219 764.242 189.219H771.923C773.711 189.219 774.849 190.275 774.849 192.023C774.849 193.811 773.711 194.827 771.923 194.827H767.087C766.558 194.827 766.477 194.868 766.477 195.396V202.712C766.477 203.24 766.558 203.322 767.087 203.322H772.167C773.955 203.322 775.093 204.378 775.093 206.167C775.093 207.955 773.955 209.012 772.167 209.012ZM798.94 209.906C806.377 209.906 812.027 212.06 812.027 217.669C812.027 223.277 806.377 225.432 798.94 225.432C791.502 225.432 785.853 223.277 785.853 217.669C785.853 212.06 791.502 209.906 798.94 209.906ZM801.46 206.98C797.355 207.589 793.575 207.792 789.145 207.792H786.015C783.251 207.792 782.073 206.614 782.073 203.972V199.339C782.073 196.697 783.251 195.478 786.015 195.478H794.144C794.55 195.478 794.672 195.356 794.672 194.949V193.445C794.672 193.039 794.55 192.958 794.144 192.958H785.08C783.455 192.958 782.276 192.104 782.276 190.519C782.276 188.893 783.455 188.04 785.08 188.04H796.826C799.631 188.04 800.769 189.178 800.769 191.901V196.331C800.769 199.054 799.631 200.233 796.826 200.233H788.657C788.251 200.233 788.169 200.314 788.169 200.721V202.509C788.169 202.915 788.251 202.997 788.657 202.997H790.201C793.941 202.997 797.395 202.712 800.647 202.224C802.191 201.98 803.451 202.428 803.776 204.053C804.101 205.679 803.004 206.736 801.46 206.98ZM805.646 206.126V190.235C805.646 188.324 806.987 187.308 808.897 187.308C810.807 187.308 812.149 188.324 812.149 190.235V195.193H814.953C816.66 195.193 817.879 196.047 817.879 197.876C817.879 199.704 816.66 200.558 814.953 200.558H812.149V206.126C812.149 208.036 810.807 209.093 808.897 209.093C806.987 209.093 805.646 208.036 805.646 206.126ZM798.94 220.595C802.069 220.595 805.524 220.067 805.524 217.669C805.524 215.271 802.069 214.742 798.94 214.742C795.81 214.742 792.356 215.271 792.356 217.669C792.356 220.067 795.81 220.595 798.94 220.595Z" fill="#E3EDFD"/>
</g>
<defs>
<clipPath id="clip0_518_4268">
<rect width="1493" height="300" fill="white"/>
</clipPath>
</defs>
</svg>
