<svg width="196" height="72" viewBox="0 0 196 72" fill="none" xmlns="http://www.w3.org/2000/svg">
<rect width="196" height="72" fill="#FEFEFE"/>
<path fill-rule="evenodd" clip-rule="evenodd" d="M55.9965 14C52.1324 14 49 17.1324 49 20.9965V45.4841C49 49.3481 52.1324 52.4806 55.9965 52.4806H63.6745L67.0007 56.8451C68.6807 59.0496 71.9983 59.0496 73.6783 56.8451L77.0045 52.4806H141.004C144.868 52.4806 148 49.3481 148 45.4841V20.9965C148 17.1324 144.868 14 141.004 14H55.9965Z" fill="#3D6BE1"/>
<path d="M77.968 34.4614H74.566C74.404 34.4614 74.242 34.4614 74.098 34.4254V34.5514V37.0354H79.48C80.29 37.0354 80.776 37.4494 80.776 38.2594C80.776 39.0694 80.29 39.4834 79.48 39.4834H65.98C65.17 39.4834 64.684 39.0694 64.684 38.2594C64.684 37.4494 65.17 37.0354 65.98 37.0354H71.29V34.5514C71.29 34.4614 71.29 34.3894 71.308 34.2994C70.57 34.4254 69.94 34.4614 69.202 34.4614H68.032C66.862 34.4614 66.214 33.8674 66.214 32.6974V27.3694C66.214 26.2894 66.844 25.6954 67.924 25.6954H70.822C71.632 25.6954 72.118 26.1274 72.118 26.9374C72.118 27.7474 71.632 28.1794 70.822 28.1794H69.184C68.95 28.1794 68.914 28.1974 68.914 28.4314V31.6894C68.914 31.9234 68.95 31.9594 69.184 31.9594H69.886C70.336 31.9594 70.678 31.9234 71.128 31.8694C71.812 31.7794 72.298 32.1214 72.388 32.8414C72.406 32.9854 72.406 33.1474 72.388 33.2734C72.478 33.2734 72.586 33.2554 72.694 33.2554H72.802C72.766 33.0934 72.748 32.9134 72.748 32.6974V27.3694C72.748 26.2894 73.378 25.6954 74.458 25.6954H77.86C78.652 25.6954 79.156 26.1634 79.156 26.9374C79.156 27.7294 78.652 28.1794 77.86 28.1794H75.718C75.484 28.1794 75.448 28.1974 75.448 28.4314V31.6714C75.448 31.9054 75.484 31.9414 75.718 31.9414H77.968C78.76 31.9414 79.264 32.4094 79.264 33.2014C79.264 33.9934 78.76 34.4614 77.968 34.4614ZM89.8251 34.8574C93.1191 34.8574 95.6211 35.8114 95.6211 38.2954C95.6211 40.7794 93.1191 41.7334 89.8251 41.7334C86.5311 41.7334 84.0291 40.7794 84.0291 38.2954C84.0291 35.8114 86.5311 34.8574 89.8251 34.8574ZM90.9411 33.5614C89.1231 33.8314 87.4491 33.9214 85.4871 33.9214H84.1011C82.8771 33.9214 82.3551 33.3994 82.3551 32.2294V30.1774C82.3551 29.0074 82.8771 28.4674 84.1011 28.4674H87.7011C87.8811 28.4674 87.9351 28.4134 87.9351 28.2334V27.5674C87.9351 27.3874 87.8811 27.3514 87.7011 27.3514H83.6871C82.9671 27.3514 82.4451 26.9734 82.4451 26.2714C82.4451 25.5514 82.9671 25.1734 83.6871 25.1734H88.8891C90.1311 25.1734 90.6351 25.6774 90.6351 26.8834V28.8454C90.6351 30.0514 90.1311 30.5734 88.8891 30.5734H85.2711C85.0911 30.5734 85.0551 30.6094 85.0551 30.7894V31.5814C85.0551 31.7614 85.0911 31.7974 85.2711 31.7974H85.9551C87.6111 31.7974 89.1411 31.6714 90.5811 31.4554C91.2651 31.3474 91.8231 31.5454 91.9671 32.2654C92.1111 32.9854 91.6251 33.4534 90.9411 33.5614ZM92.7951 33.1834V26.1454C92.7951 25.2994 93.3891 24.8494 94.2351 24.8494C95.0811 24.8494 95.6751 25.2994 95.6751 26.1454V28.3414H96.9171C97.6731 28.3414 98.2131 28.7194 98.2131 29.5294C98.2131 30.3394 97.6731 30.7174 96.9171 30.7174H95.6751V33.1834C95.6751 34.0294 95.0811 34.4974 94.2351 34.4974C93.3891 34.4974 92.7951 34.0294 92.7951 33.1834ZM89.8251 39.5914C91.2111 39.5914 92.7411 39.3574 92.7411 38.2954C92.7411 37.2334 91.2111 36.9994 89.8251 36.9994C88.4391 36.9994 86.9091 37.2334 86.9091 38.2954C86.9091 39.3574 88.4391 39.5914 89.8251 39.5914ZM111.798 34.4614H108.396C108.234 34.4614 108.072 34.4614 107.928 34.4254V34.5514V37.0354H113.31C114.12 37.0354 114.606 37.4494 114.606 38.2594C114.606 39.0694 114.12 39.4834 113.31 39.4834H99.8102C99.0002 39.4834 98.5142 39.0694 98.5142 38.2594C98.5142 37.4494 99.0002 37.0354 99.8102 37.0354H105.12V34.5514C105.12 34.4614 105.12 34.3894 105.138 34.2994C104.4 34.4254 103.77 34.4614 103.032 34.4614H101.862C100.692 34.4614 100.044 33.8674 100.044 32.6974V27.3694C100.044 26.2894 100.674 25.6954 101.754 25.6954H104.652C105.462 25.6954 105.948 26.1274 105.948 26.9374C105.948 27.7474 105.462 28.1794 104.652 28.1794H103.014C102.78 28.1794 102.744 28.1974 102.744 28.4314V31.6894C102.744 31.9234 102.78 31.9594 103.014 31.9594H103.716C104.166 31.9594 104.508 31.9234 104.958 31.8694C105.642 31.7794 106.128 32.1214 106.218 32.8414C106.236 32.9854 106.236 33.1474 106.218 33.2734C106.308 33.2734 106.416 33.2554 106.524 33.2554H106.632C106.596 33.0934 106.578 32.9134 106.578 32.6974V27.3694C106.578 26.2894 107.208 25.6954 108.288 25.6954H111.69C112.482 25.6954 112.986 26.1634 112.986 26.9374C112.986 27.7294 112.482 28.1794 111.69 28.1794H109.548C109.314 28.1794 109.278 28.1974 109.278 28.4314V31.6714C109.278 31.9054 109.314 31.9414 109.548 31.9414H111.798C112.59 31.9414 113.094 32.4094 113.094 33.2014C113.094 33.9934 112.59 34.4614 111.798 34.4614ZM123.655 34.8574C126.949 34.8574 129.451 35.8114 129.451 38.2954C129.451 40.7794 126.949 41.7334 123.655 41.7334C120.361 41.7334 117.859 40.7794 117.859 38.2954C117.859 35.8114 120.361 34.8574 123.655 34.8574ZM124.771 33.5614C122.953 33.8314 121.279 33.9214 119.317 33.9214H117.931C116.707 33.9214 116.185 33.3994 116.185 32.2294V30.1774C116.185 29.0074 116.707 28.4674 117.931 28.4674H121.531C121.711 28.4674 121.765 28.4134 121.765 28.2334V27.5674C121.765 27.3874 121.711 27.3514 121.531 27.3514H117.517C116.797 27.3514 116.275 26.9734 116.275 26.2714C116.275 25.5514 116.797 25.1734 117.517 25.1734H122.719C123.961 25.1734 124.465 25.6774 124.465 26.8834V28.8454C124.465 30.0514 123.961 30.5734 122.719 30.5734H119.101C118.921 30.5734 118.885 30.6094 118.885 30.7894V31.5814C118.885 31.7614 118.921 31.7974 119.101 31.7974H119.785C121.441 31.7974 122.971 31.6714 124.411 31.4554C125.095 31.3474 125.653 31.5454 125.797 32.2654C125.941 32.9854 125.455 33.4534 124.771 33.5614ZM126.625 33.1834V26.1454C126.625 25.2994 127.219 24.8494 128.065 24.8494C128.911 24.8494 129.505 25.2994 129.505 26.1454V28.3414H130.747C131.503 28.3414 132.043 28.7194 132.043 29.5294C132.043 30.3394 131.503 30.7174 130.747 30.7174H129.505V33.1834C129.505 34.0294 128.911 34.4974 128.065 34.4974C127.219 34.4974 126.625 34.0294 126.625 33.1834ZM123.655 39.5914C125.041 39.5914 126.571 39.3574 126.571 38.2954C126.571 37.2334 125.041 36.9994 123.655 36.9994C122.269 36.9994 120.739 37.2334 120.739 38.2954C120.739 39.3574 122.269 39.5914 123.655 39.5914Z" fill="#E3EDFD"/>
</svg>
