<svg width="80" height="80" viewBox="0 0 80 80" fill="none" xmlns="http://www.w3.org/2000/svg">
<g clip-path="url(#clip0_1138_6300)">
<rect width="80" height="80" fill="#F9F9F9"/>
<path d="M6.48828 38.5C6.48828 38.0692 6.5092 37.6434 6.55006 37.2236L6.06408 37.1763C6.15107 36.2824 6.32524 35.414 6.57798 34.5798L7.04528 34.7214C7.29452 33.8988 7.62307 33.1105 8.02209 32.3656L7.59166 32.135C8.01076 31.3526 8.50471 30.6162 9.06396 29.9356L9.44123 30.2455C9.98236 29.5869 10.5869 28.9824 11.2455 28.4412L10.9356 28.064C11.6162 27.5047 12.3526 27.0108 13.135 26.5917L13.3656 27.0221C14.1105 26.6231 14.8988 26.2945 15.7214 26.0453L15.5798 25.578C16.414 25.3252 17.2824 25.1511 18.1763 25.0641L18.2235 25.5501C18.6434 25.5092 19.0692 25.4883 19.5 25.4883H20.8542V25H23.5625V25.4883H26.2708V25H28.9792V25.4883H31.6875V25H34.3958V25.4883H37.1042V25H39.8125V25.4883H42.5208V25H45.2292V25.4883H47.9375V25H50.6458V25.4883H51.5117V26.35H52V29.05H51.5117V31.75H52V34.45H51.5117V37.15H52V39.85H51.5117V42.55H52V45.25H51.5117V47.95H52V50.65H51.5117V51.5117H50.6458V52H47.9375V51.5117H45.2292V52H42.5208V51.5117H39.8125V52H37.1042V51.5117H34.3958V52H31.6875V51.5117H28.9792V52H26.2708V51.5117H23.5625V52H20.8542V51.5117H19.5C19.0692 51.5117 18.6434 51.4908 18.2236 51.4499L18.1763 51.9359C17.2824 51.8489 16.414 51.6748 15.5798 51.422L15.7214 50.9547C14.8988 50.7055 14.1105 50.3769 13.3656 49.9779L13.135 50.4083C12.3526 49.9892 11.6162 49.4953 10.9356 48.936L11.2455 48.5588C10.5869 48.0176 9.98236 47.4131 9.44123 46.7545L9.06396 47.0644C8.50472 46.3838 8.01076 45.6474 7.59167 44.865L8.02209 44.6344C7.62307 43.8895 7.29452 43.1012 7.04528 42.2786L6.57798 42.4202C6.32524 41.586 6.15107 40.7176 6.06408 39.8237L6.55006 39.7764C6.5092 39.3566 6.48828 38.9308 6.48828 38.5Z" stroke="#509BF8" stroke-width="0.976559" stroke-dasharray="2.93 2.93"/>
<path fill-rule="evenodd" clip-rule="evenodd" d="M57.992 52.4902H58.0074C57.912 52.6418 57.8196 52.7982 57.7305 52.9593V52.9071V52.4902H57.992ZM71.7689 52.4902H72.5078C72.7509 52.4902 72.9904 52.5154 73.2252 52.5642L73.1913 52.9776L73.1575 53.391C72.9451 53.3469 72.7282 53.324 72.5078 53.324H71.7689V52.9071V52.4902ZM74.6102 53.1546L74.51 53.5397L74.4099 53.9248C74.8136 54.1916 75.1907 54.5411 75.5328 54.9602L75.6921 54.6296L75.8515 54.299C75.4736 53.8361 75.0568 53.4497 74.6102 53.1546ZM76.8655 55.9153L76.6581 56.1694L76.4507 56.4234C76.7136 56.9687 76.9329 57.5698 77.1003 58.2133L77.3419 58.0536L77.5835 57.8939C77.3983 57.1822 77.1559 56.5178 76.8655 55.9153ZM77.9538 60.1018L77.6945 60.1557L77.4351 60.2096C77.4628 60.5482 77.4772 60.8938 77.4772 61.2452C77.4772 61.5966 77.4628 61.9423 77.4351 62.2809L77.6945 62.3348L77.9538 62.3887C77.9844 62.0145 78.0002 61.6328 78.0002 61.2452C78.0002 60.8577 77.9844 60.476 77.9538 60.1018ZM77.5835 64.5965L77.3419 64.4369L77.1003 64.2772C76.9329 64.9207 76.7136 65.5218 76.4507 66.0671L76.6581 66.3211L76.8655 66.5751C77.1559 65.9727 77.3983 65.3083 77.5835 64.5965ZM75.8515 68.1915L75.6921 67.8609L75.5328 67.5303C75.1907 67.9494 74.8136 68.2988 74.4099 68.5657L74.51 68.9508L74.6102 69.3359C75.0568 69.0408 75.4736 68.6544 75.8515 68.1915ZM68.8135 70.0002V69.5833V69.1664H70.2912V69.5833V70.0002H68.8135ZM71.7689 70.0002V69.5833V69.1664H72.5078C72.7282 69.1664 72.9451 69.1436 73.1575 69.0994L73.1913 69.5128L73.2252 69.9262C72.9904 69.9751 72.7509 70.0002 72.5078 70.0002H71.7689ZM70.2912 52.4902V52.9071V53.324H68.8135V52.9071V52.4902H70.2912ZM67.3357 52.4902V52.9071V53.324H65.858V52.9071V52.4902H67.3357ZM64.3803 52.4902V52.9071V53.324H62.9025V52.9071V52.4902H64.3803Z" fill="#509BF8"/>
<rect x="62" y="50" width="6" height="10" fill="#F9F9F9"/>
<path d="M72.5635 36V38.5024M72.5635 41.0049V38.5024M72.5635 38.5024H70M72.5635 38.5024H75.0049" stroke="#509BF8" stroke-width="0.976559" stroke-linecap="round"/>
<path d="M4.00076 23V24.9531M4.00076 26.9062V24.9531M4.00076 24.9531H2M4.00076 24.9531H5.90624" stroke="#509BF8" stroke-width="0.976559" stroke-linecap="round"/>
<rect x="33.042" y="9.29883" width="37.6234" height="44.3419" rx="4.03749" transform="rotate(14.631 33.042 9.29883)" fill="#C07613"/>
<rect x="34.9746" y="12.3672" width="32.2486" height="38.9671" rx="4.03749" transform="rotate(14.631 34.9746 12.3672)" fill="white"/>
<path d="M40.1734 13.7349C41.0182 10.4985 44.3267 8.5599 47.563 9.40476L56.6452 11.7757C59.8815 12.6206 61.8202 15.929 60.9753 19.1654L60.6383 20.4562L39.8364 15.0257L40.1734 13.7349Z" fill="#D9D9D9"/>
<path fill-rule="evenodd" clip-rule="evenodd" d="M51.5934 12.5416C53.7475 13.1039 55.9496 11.8136 56.512 9.65945C57.0743 7.50534 55.784 5.30322 53.6299 4.74087C51.4757 4.17853 49.2736 5.46891 48.7113 7.62302C48.1489 9.77713 49.4393 11.9792 51.5934 12.5416ZM52.1023 10.5922C53.1793 10.8734 54.2804 10.2282 54.5616 9.15112C54.8427 8.07407 54.1975 6.97301 53.1205 6.69183C52.0434 6.41066 50.9424 7.05585 50.6612 8.13291C50.38 9.20996 51.0252 10.311 52.1023 10.5922Z" fill="#D9D9D9"/>
<rect x="36.0469" y="18.8965" width="25.5302" height="3.35923" rx="1.67962" transform="rotate(14.631 36.0469 18.8965)" fill="#D9D9D9"/>
<rect x="34.5205" y="24.748" width="20.8272" height="3.35923" rx="1.67962" transform="rotate(14.631 34.5205 24.748)" fill="#D9D9D9"/>
<rect x="32.9912" y="30.5977" width="14.1088" height="3.35923" rx="1.67962" transform="rotate(14.631 32.9912 30.5977)" fill="#D9D9D9"/>
<mask id="path-13-inside-1_1138_6300" fill="white">
<path fill-rule="evenodd" clip-rule="evenodd" d="M47.5748 43.1785C46.85 42.8474 46.106 42.8176 45.5095 43.1671C44.2992 43.8763 44.1547 45.8788 45.1866 47.6398C45.4358 48.0651 45.7309 48.4375 46.0522 48.7476C46.0324 48.8893 46.0226 49.0336 46.0235 49.1801C46.0353 51.0028 47.6994 52.4697 49.7404 52.4566C51.7815 52.4434 53.4266 50.9552 53.4148 49.1325C53.4134 48.9143 53.3884 48.7013 53.3418 48.4952C53.5825 48.2269 53.8039 47.9213 53.9962 47.5831C55.0054 45.8089 54.835 43.8085 53.6157 43.1149C53.0552 42.7961 52.3705 42.809 51.6963 43.0884C51.2279 42.1791 50.4803 41.5922 49.6414 41.5976C48.7833 41.6031 48.0285 42.2273 47.5748 43.1785Z"/>
</mask>
<path fill-rule="evenodd" clip-rule="evenodd" d="M47.5748 43.1785C46.85 42.8474 46.106 42.8176 45.5095 43.1671C44.2992 43.8763 44.1547 45.8788 45.1866 47.6398C45.4358 48.0651 45.7309 48.4375 46.0522 48.7476C46.0324 48.8893 46.0226 49.0336 46.0235 49.1801C46.0353 51.0028 47.6994 52.4697 49.7404 52.4566C51.7815 52.4434 53.4266 50.9552 53.4148 49.1325C53.4134 48.9143 53.3884 48.7013 53.3418 48.4952C53.5825 48.2269 53.8039 47.9213 53.9962 47.5831C55.0054 45.8089 54.835 43.8085 53.6157 43.1149C53.0552 42.7961 52.3705 42.809 51.6963 43.0884C51.2279 42.1791 50.4803 41.5922 49.6414 41.5976C48.7833 41.6031 48.0285 42.2273 47.5748 43.1785Z" fill="white"/>
<path d="M47.5748 43.1785L47.4248 43.5068L47.7478 43.6544L47.9007 43.3339L47.5748 43.1785ZM45.5095 43.1671L45.692 43.4786L45.692 43.4786L45.5095 43.1671ZM45.1866 47.6398L44.8751 47.8223L44.8751 47.8223L45.1866 47.6398ZM46.0522 48.7476L46.4097 48.7977L46.4352 48.6156L46.3029 48.4879L46.0522 48.7476ZM53.3418 48.4952L53.0731 48.2541L52.9485 48.3929L52.9897 48.5748L53.3418 48.4952ZM53.9962 47.5831L54.31 47.7616L54.31 47.7616L53.9962 47.5831ZM53.6157 43.1149L53.7942 42.8011L53.6157 43.1149ZM51.6963 43.0884L51.3754 43.2537L51.5275 43.5491L51.8345 43.4219L51.6963 43.0884ZM49.6414 41.5976L49.6437 41.9586L49.6414 41.5976ZM47.7248 42.8501C46.9274 42.4859 46.0536 42.4298 45.327 42.8556L45.692 43.4786C46.1583 43.2053 46.7727 43.209 47.4248 43.5068L47.7248 42.8501ZM45.327 42.8556C44.5897 43.2876 44.2113 44.0939 44.1472 44.983C44.0828 45.8741 44.327 46.8869 44.8751 47.8223L45.498 47.4573C45.0142 46.6316 44.8147 45.7627 44.8673 45.035C44.92 44.3053 45.219 43.7557 45.692 43.4786L45.327 42.8556ZM44.8751 47.8223C45.1406 48.2754 45.456 48.6738 45.8014 49.0074L46.3029 48.4879C46.0058 48.2011 45.731 47.8549 45.498 47.4573L44.8751 47.8223ZM45.6947 48.6976C45.6724 48.8565 45.6615 49.0183 45.6625 49.1825L46.3845 49.1778C46.3837 49.0489 46.3923 48.922 46.4097 48.7977L45.6947 48.6976ZM45.6625 49.1825C45.6758 51.2418 47.5418 52.8318 49.7428 52.8176L49.7381 52.0956C47.8569 52.1077 46.3948 50.7638 46.3845 49.1778L45.6625 49.1825ZM49.7428 52.8176C51.9437 52.8034 53.7891 51.1896 53.7758 49.1302L53.0539 49.1349C53.0641 50.7208 51.6193 52.0835 49.7381 52.0956L49.7428 52.8176ZM53.7758 49.1302C53.7743 48.8858 53.7462 48.6468 53.6939 48.4156L52.9897 48.5748C53.0306 48.7557 53.0526 48.9429 53.0539 49.1349L53.7758 49.1302ZM53.6105 48.7363C53.8687 48.4486 54.1051 48.1219 54.31 47.7616L53.6825 47.4046C53.5027 47.7207 53.2964 48.0053 53.0731 48.2541L53.6105 48.7363ZM54.31 47.7616C54.846 46.8192 55.0772 45.8033 55.0014 44.9132C54.9257 44.0249 54.537 43.2236 53.7942 42.8011L53.4373 43.4287C53.9138 43.6998 54.2199 44.2455 54.282 44.9744C54.3439 45.7014 54.1556 46.5728 53.6825 47.4046L54.31 47.7616ZM53.7942 42.8011C53.1119 42.413 52.3055 42.4452 51.5581 42.7549L51.8345 43.4219C52.4356 43.1728 52.9985 43.1792 53.4373 43.4287L53.7942 42.8011ZM52.0172 42.9231C51.5126 41.9434 50.6627 41.23 49.6391 41.2366L49.6437 41.9586C50.2978 41.9544 50.9433 42.4148 51.3754 43.2537L52.0172 42.9231ZM49.6391 41.2366C48.5917 41.2433 47.7366 42.0007 47.249 43.0231L47.9007 43.3339C48.3204 42.4539 48.9748 41.9629 49.6437 41.9586L49.6391 41.2366Z" fill="#F4BFE9" mask="url(#path-13-inside-1_1138_6300)"/>
<path d="M50.6818 44.2675C50.6875 45.1537 50.1403 45.7939 49.549 45.7978C48.9577 45.8016 48.4023 45.1684 48.3965 44.2823C48.3908 43.3961 48.9381 42.7559 49.5294 42.7521C50.1207 42.7482 50.6761 43.3814 50.6818 44.2675Z" fill="#FAD4F2" stroke="#F4BFE9" stroke-width="0.361005"/>
<path d="M51.6245 49.1137C51.6319 50.2571 50.7571 51.1745 49.689 51.1814C48.621 51.1883 47.7345 50.2822 47.7271 49.1388C47.7198 47.9954 48.5945 47.078 49.6626 47.0711C50.7306 47.0642 51.6171 47.9702 51.6245 49.1137Z" fill="#FAD4F2" stroke="#F4BFE9" stroke-width="0.361005"/>
<path d="M47.9203 45.0297C48.3683 45.7942 48.2145 46.6223 47.7043 46.9213C47.1942 47.2202 46.3966 46.9496 45.9486 46.185C45.5005 45.4205 45.6543 44.5924 46.1645 44.2934C46.6747 43.9945 47.4723 44.2651 47.9203 45.0297Z" fill="#FAD4F2" stroke="#F4BFE9" stroke-width="0.361005"/>
<path d="M51.2352 45.0076C50.797 45.7778 50.9615 46.6039 51.4755 46.8963C51.9894 47.1886 52.7835 46.9077 53.2216 46.1375C53.6598 45.3672 53.4953 44.5412 52.9813 44.2488C52.4674 43.9565 51.6733 44.2373 51.2352 45.0076Z" fill="#FAD4F2" stroke="#F4BFE9" stroke-width="0.361005"/>
<path d="M25.748 9.54883L30.3867 10.6475" stroke="#509BF8" stroke-width="0.976559" stroke-linecap="round"/>
<path d="M28.7324 3.66211L31.7256 8.20898" stroke="#509BF8" stroke-width="0.976559" stroke-linecap="round"/>
<path d="M35.8984 4.05859L34.5478 8.00874" stroke="#509BF8" stroke-width="0.976559" stroke-linecap="round"/>
<path d="M62.8828 35.0563L58.2658 36.7925C58.052 36.9404 57.2953 36.9142 55.979 35.6257C54.6628 34.3371 55.9355 33.0749 56.7364 32.6048C56.6941 32.1478 56.8879 31.0076 58.0012 30.1025C59.1144 29.1975 60.6274 30.3985 61.2447 31.1122C64.1758 30.9018 63.558 33.654 62.8828 35.0563Z" fill="#70AA22"/>
<rect x="59.3086" y="35.043" width="1.30878" height="2.39834" rx="0.654388" transform="rotate(-20.9449 59.3086 35.043)" fill="#5A8F19"/>
<path d="M67.8485 45.8922C69.5353 52.9376 68.6102 55.4087 67.9368 55.7636C64.6324 56.873 59.2145 45.8305 56.9186 40.1705C56.798 39.6017 57.3465 38.1423 60.5053 36.8555C63.6641 35.5688 65.0338 36.2551 65.3239 36.7591C65.4626 36.8679 66.1618 38.8467 67.8485 45.8922Z" fill="#FF9100" stroke="#FD8E01" stroke-width="0.218345"/>
<rect x="59.8633" y="44.2949" width="1.28259" height="2.56519" rx="0.641297" transform="rotate(-110.945 59.8633 44.2949)" fill="#EC6D0C"/>
<rect x="62.4482" y="40.3926" width="1.28259" height="2.56519" rx="0.641297" transform="rotate(-110.945 62.4482 40.3926)" fill="#EC6D0C"/>
<rect x="63.8701" y="46.6445" width="1.28259" height="2.56519" rx="0.641297" transform="rotate(-110.945 63.8701 46.6445)" fill="#EC6D0C"/>
<rect x="64.0713" y="51.2285" width="1.28259" height="2.56519" rx="0.641297" transform="rotate(-110.945 64.0713 51.2285)" fill="#EC6D0C"/>
<path d="M62.8882 36.074C66.1914 39.4937 67.7885 50.492 67.813 55.8469C71.0241 54.6642 66.2612 38.5858 65.617 37.0237C65.1015 35.774 63.5644 35.8615 62.8882 36.074Z" fill="#DF6D15" fill-opacity="0.8"/>
<ellipse cx="59.3652" cy="39.9425" rx="1.65383" ry="1.0413" transform="rotate(-35.9449 59.3652 39.9425)" fill="#FEC303"/>
<path fill-rule="evenodd" clip-rule="evenodd" d="M26.9687 69.0917C37.351 69.0917 45.7675 60.6752 45.7675 50.2929C45.7675 39.9106 37.351 31.4941 26.9687 31.4941C16.5864 31.4941 8.16992 39.9106 8.16992 50.2929C8.16992 55.3073 10.1332 59.8631 13.333 63.2336L10.4874 65.6998C9.96349 66.1538 10.0711 66.987 10.7206 67.2295C12.9833 68.0745 16.2829 68.6647 18.5021 67.0817C21.0466 68.3674 23.923 69.0917 26.9687 69.0917Z" fill="#EBF2FA"/>
<path d="M13.333 63.2336L13.4929 63.4181L13.6859 63.2508L13.51 63.0655L13.333 63.2336ZM10.4874 65.6998L10.6473 65.8843L10.4874 65.6998ZM10.7206 67.2295L10.806 67.0008H10.806L10.7206 67.2295ZM18.5021 67.0817L18.6122 66.8638L18.4805 66.7972L18.3603 66.8829L18.5021 67.0817ZM45.5233 50.2929C45.5233 60.5403 37.2161 68.8475 26.9687 68.8475V69.3358C37.4858 69.3358 46.0116 60.81 46.0116 50.2929H45.5233ZM26.9687 31.7383C37.2161 31.7383 45.5233 40.0455 45.5233 50.2929H46.0116C46.0116 39.7758 37.4858 31.25 26.9687 31.25V31.7383ZM8.41406 50.2929C8.41406 40.0455 16.7212 31.7383 26.9687 31.7383V31.25C16.4516 31.25 7.92578 39.7758 7.92578 50.2929H8.41406ZM13.51 63.0655C10.3516 59.7386 8.41406 55.2423 8.41406 50.2929H7.92578C7.92578 55.3723 9.91478 59.9876 13.1559 63.4017L13.51 63.0655ZM10.6473 65.8843L13.4929 63.4181L13.1731 63.0491L10.3275 65.5153L10.6473 65.8843ZM10.806 67.0008C10.3508 66.8309 10.2463 66.2318 10.6473 65.8843L10.3275 65.5153C9.68067 66.0759 9.79127 67.1431 10.6351 67.4582L10.806 67.0008ZM18.3603 66.8829C17.31 67.6322 15.9906 67.8762 14.6374 67.8222C13.2852 67.7682 11.9208 67.4171 10.806 67.0008L10.6351 67.4582C11.783 67.8869 13.1998 68.2534 14.6179 68.3101C16.035 68.3666 17.475 68.1143 18.6439 67.2804L18.3603 66.8829ZM26.9687 68.8475C23.9622 68.8475 21.1233 68.1326 18.6122 66.8638L18.392 67.2996C20.9698 68.6021 23.8839 69.3358 26.9687 69.3358V68.8475Z" fill="#56A2E9"/>
<circle cx="59.0752" cy="68.0752" r="1.58691" stroke="#509BF8" stroke-width="0.976559"/>
<path fill-rule="evenodd" clip-rule="evenodd" d="M68.6336 54.9316L66.2754 55.5635C66.3801 55.9542 66.7817 56.1861 67.1724 56.0814L67.3034 56.0463L67.7257 57.6225C67.7781 57.8178 67.9789 57.9338 68.1743 57.8814C68.3696 57.8291 68.4856 57.6283 68.4332 57.4329L68.0109 55.8568L68.1157 55.8287C68.5064 55.724 68.7383 55.3224 68.6336 54.9316Z" fill="#4E4F64"/>
<mask id="path-35-outside-2_1138_6300" maskUnits="userSpaceOnUse" x="14.1927" y="36.1107" width="24.0635" height="28.9216" fill="black">
<rect fill="white" x="14.1927" y="36.1107" width="24.0635" height="28.9216"/>
<path d="M25.4403 55.5234L25.1854 54.6111C24.9485 53.7633 24.9202 52.9864 25.1004 52.2803C25.2807 51.5743 25.567 50.928 25.9595 50.3415C26.3468 49.7366 26.7326 49.1618 27.1169 48.6173C27.5197 48.0677 27.8318 47.5136 28.0532 46.955C28.2695 46.3779 28.2901 45.7761 28.115 45.1495C27.873 44.2833 27.36 43.6915 26.5759 43.3741C25.8051 43.0331 24.9865 42.9836 24.1203 43.2257C23.549 43.3853 23.0413 43.6662 22.5974 44.0684C22.1667 44.4471 21.8668 44.9382 21.6977 45.5418C21.5285 46.1453 21.5573 46.8526 21.7838 47.6635L18.2176 48.66C17.7902 47.1302 17.7692 45.7751 18.1546 44.5945C18.5533 43.3903 19.2202 42.3992 20.1553 41.6214C21.0852 40.8251 22.1399 40.2622 23.3194 39.9326C24.5543 39.5876 25.7572 39.5197 26.9284 39.729C28.1128 39.9146 29.1445 40.3715 30.0234 41.0995C30.8972 41.809 31.5066 42.7812 31.8516 44.0161C32.1143 44.956 32.154 45.8092 31.9707 46.5757C31.8008 47.3186 31.5273 48.0109 31.1503 48.6527C30.7681 49.2761 30.3665 49.8652 29.9453 50.42C29.5425 50.9697 29.2253 51.5053 28.9935 52.0271C28.7567 52.5304 28.7129 53.0493 28.8622 53.5838L29.1171 54.496L25.4403 55.5234ZM28.9687 61.0049C28.3605 61.1748 27.8062 61.1111 27.3059 60.8138C26.8056 60.5165 26.4756 60.0821 26.3159 59.5108C26.1563 58.9395 26.2159 58.4062 26.4948 57.911C26.7686 57.3974 27.2096 57.0557 27.8178 56.8857C28.4075 56.7209 28.9526 56.7872 29.4529 57.0845C29.9665 57.3583 30.3031 57.7808 30.4628 58.3522C30.6224 58.9235 30.5561 59.4686 30.2639 59.9873C29.9902 60.5009 29.5584 60.8401 28.9687 61.0049Z"/>
</mask>
<path d="M25.4403 55.5234L25.1854 54.6111C24.9485 53.7633 24.9202 52.9864 25.1004 52.2803C25.2807 51.5743 25.567 50.928 25.9595 50.3415C26.3468 49.7366 26.7326 49.1618 27.1169 48.6173C27.5197 48.0677 27.8318 47.5136 28.0532 46.955C28.2695 46.3779 28.2901 45.7761 28.115 45.1495C27.873 44.2833 27.36 43.6915 26.5759 43.3741C25.8051 43.0331 24.9865 42.9836 24.1203 43.2257C23.549 43.3853 23.0413 43.6662 22.5974 44.0684C22.1667 44.4471 21.8668 44.9382 21.6977 45.5418C21.5285 46.1453 21.5573 46.8526 21.7838 47.6635L18.2176 48.66C17.7902 47.1302 17.7692 45.7751 18.1546 44.5945C18.5533 43.3903 19.2202 42.3992 20.1553 41.6214C21.0852 40.8251 22.1399 40.2622 23.3194 39.9326C24.5543 39.5876 25.7572 39.5197 26.9284 39.729C28.1128 39.9146 29.1445 40.3715 30.0234 41.0995C30.8972 41.809 31.5066 42.7812 31.8516 44.0161C32.1143 44.956 32.154 45.8092 31.9707 46.5757C31.8008 47.3186 31.5273 48.0109 31.1503 48.6527C30.7681 49.2761 30.3665 49.8652 29.9453 50.42C29.5425 50.9697 29.2253 51.5053 28.9935 52.0271C28.7567 52.5304 28.7129 53.0493 28.8622 53.5838L29.1171 54.496L25.4403 55.5234ZM28.9687 61.0049C28.3605 61.1748 27.8062 61.1111 27.3059 60.8138C26.8056 60.5165 26.4756 60.0821 26.3159 59.5108C26.1563 58.9395 26.2159 58.4062 26.4948 57.911C26.7686 57.3974 27.2096 57.0557 27.8178 56.8857C28.4075 56.7209 28.9526 56.7872 29.4529 57.0845C29.9665 57.3583 30.3031 57.7808 30.4628 58.3522C30.6224 58.9235 30.5561 59.4686 30.2639 59.9873C29.9902 60.5009 29.5584 60.8401 28.9687 61.0049Z" fill="#66A8F9"/>
<path d="M25.4403 55.5234L24.4772 55.7925L24.7463 56.7556L25.7094 56.4865L25.4403 55.5234ZM25.1004 52.2803L26.0693 52.5277L26.0694 52.5277L25.1004 52.2803ZM25.9595 50.3415L26.7906 50.8976L26.7962 50.8892L26.8017 50.8807L25.9595 50.3415ZM27.1169 48.6173L26.3103 48.0263L26.3051 48.0334L26.3 48.0407L27.1169 48.6173ZM28.0532 46.955L28.9829 47.3235L28.9863 47.3148L28.9896 47.306L28.0532 46.955ZM26.5759 43.3741L26.1713 44.2886L26.1859 44.295L26.2007 44.301L26.5759 43.3741ZM22.5974 44.0684L23.2576 44.8195L23.2632 44.8145L23.2688 44.8095L22.5974 44.0684ZM21.6977 45.5418L22.6606 45.8116L22.6606 45.8116L21.6977 45.5418ZM21.7838 47.6635L22.0529 48.6266L23.016 48.3576L22.747 47.3944L21.7838 47.6635ZM18.2176 48.66L17.2545 48.9291L17.5236 49.8922L18.4867 49.6231L18.2176 48.66ZM18.1546 44.5945L17.2053 44.2802L17.204 44.2841L18.1546 44.5945ZM20.1553 41.6214L20.7948 42.3902L20.8003 42.3856L20.8057 42.381L20.1553 41.6214ZM26.9284 39.729L26.7525 40.7134L26.763 40.7153L26.7735 40.7169L26.9284 39.729ZM30.0234 41.0995L29.3855 41.8696L29.393 41.8758L30.0234 41.0995ZM31.9707 46.5757L30.9981 46.3432L30.9959 46.3527L31.9707 46.5757ZM31.1503 48.6527L32.0028 49.1754L32.0078 49.1674L32.0125 49.1592L31.1503 48.6527ZM29.9453 50.42L29.1488 49.8153L29.1437 49.8221L29.1387 49.8289L29.9453 50.42ZM28.9935 52.0271L29.8983 52.4529L29.903 52.443L29.9074 52.433L28.9935 52.0271ZM29.1171 54.496L29.3862 55.4592L30.3493 55.1901L30.0802 54.227L29.1171 54.496ZM27.3059 60.8138L27.8167 59.9541L27.3059 60.8138ZM26.4948 57.911L27.3661 58.4018L27.3718 58.3916L27.3773 58.3814L26.4948 57.911ZM29.4529 57.0845L28.942 57.9442L28.962 57.9561L28.9825 57.967L29.4529 57.0845ZM30.2639 59.9873L29.3926 59.4966L29.3869 59.5067L29.3815 59.517L30.2639 59.9873ZM26.4034 55.2543L26.1485 54.342L24.2223 54.8802L24.4772 55.7925L26.4034 55.2543ZM26.1485 54.342C25.9489 53.6278 25.9406 53.0319 26.0693 52.5277L24.1315 52.033C23.8997 52.9408 23.948 53.8987 24.2223 54.8802L26.1485 54.342ZM26.0694 52.5277C26.2224 51.928 26.4633 51.3867 26.7906 50.8976L25.1284 49.7854C24.6707 50.4693 24.3389 51.2206 24.1315 52.033L26.0694 52.5277ZM26.8017 50.8807C27.1815 50.2875 27.5589 49.7253 27.9339 49.194L26.3 48.0407C25.9063 48.5984 25.5121 49.1857 25.1173 49.8023L26.8017 50.8807ZM27.9236 49.2084C28.37 48.5991 28.7262 47.9709 28.9829 47.3235L27.1236 46.5865C26.9374 47.0562 26.6694 47.5363 26.3103 48.0263L27.9236 49.2084ZM28.9896 47.306C29.2847 46.5188 29.3069 45.6992 29.0782 44.8804L27.1519 45.4186C27.2733 45.8531 27.2544 46.2371 27.1169 46.604L28.9896 47.306ZM29.0782 44.8804C28.7588 43.7375 28.0429 42.8891 26.9511 42.4471L26.2007 44.301C26.677 44.4938 26.9872 44.829 27.1519 45.4186L29.0782 44.8804ZM26.9804 42.4596C25.9826 42.0182 24.9247 41.9626 23.8512 42.2626L24.3894 44.1888C25.0484 44.0047 25.6275 44.048 26.1713 44.2886L26.9804 42.4596ZM23.8512 42.2626C23.1288 42.4644 22.4838 42.822 21.926 43.3273L23.2688 44.8095C23.5989 44.5105 23.9691 44.3062 24.3894 44.1888L23.8512 42.2626ZM21.9371 43.3174C21.3477 43.8356 20.951 44.5001 20.7348 45.2719L22.6606 45.8116C22.7826 45.3762 22.9857 45.0585 23.2576 44.8195L21.9371 43.3174ZM20.7348 45.2719C20.5021 46.1024 20.5613 47.004 20.8207 47.9326L22.747 47.3944C22.5533 46.7012 22.555 46.1883 22.6606 45.8116L20.7348 45.2719ZM21.5147 46.7004L17.9485 47.6968L18.4867 49.6231L22.0529 48.6266L21.5147 46.7004ZM19.1807 48.3909C18.7917 46.9986 18.7961 45.8517 19.1052 44.9048L17.204 44.2841C16.7423 45.6985 16.7887 47.2619 17.2545 48.9291L19.1807 48.3909ZM19.1039 44.9088C19.4465 43.8741 20.0098 43.0432 20.7948 42.3902L19.5157 40.8526C18.4306 41.7553 17.6601 42.9065 17.2053 44.2802L19.1039 44.9088ZM20.8057 42.381C21.6248 41.6796 22.5494 41.1861 23.5885 40.8957L23.0503 38.9695C21.7304 39.3383 20.5455 39.9707 19.5048 40.8618L20.8057 42.381ZM23.5885 40.8957C24.69 40.588 25.7407 40.5326 26.7525 40.7134L27.1043 38.7446C25.7738 38.5068 24.4185 38.5872 23.0503 38.9695L23.5885 40.8957ZM26.7735 40.7169C27.7896 40.8762 28.6522 41.2622 29.3855 41.8696L30.6613 40.3293C29.6367 39.4807 28.436 38.9531 27.0832 38.741L26.7735 40.7169ZM29.393 41.8758C30.0844 42.4371 30.5912 43.221 30.8885 44.2852L32.8148 43.747C32.4221 42.3415 31.7101 41.1809 30.6538 40.3232L29.393 41.8758ZM30.8885 44.2852C31.1162 45.1 31.1335 45.777 30.9981 46.3432L32.9433 46.8082C33.1744 45.8414 33.1123 44.812 32.8148 43.747L30.8885 44.2852ZM30.9959 46.3527C30.8482 46.9983 30.612 47.5947 30.2881 48.1462L32.0125 49.1592C32.4426 48.4272 32.7534 47.6389 32.9456 46.7987L30.9959 46.3527ZM30.2978 48.1301C29.9321 48.7266 29.549 49.2882 29.1488 49.8153L30.7418 51.0247C31.1839 50.4422 31.6042 49.8256 32.0028 49.1754L30.2978 48.1301ZM29.1387 49.8289C28.7015 50.4256 28.3453 51.0229 28.0796 51.6212L29.9074 52.433C30.1052 51.9878 30.3836 51.5137 30.7519 51.0111L29.1387 49.8289ZM28.0887 51.6012C27.7499 52.3211 27.685 53.0866 27.8991 53.8528L29.8253 53.3147C29.7407 53.0119 29.7634 52.7397 29.8983 52.4529L28.0887 51.6012ZM27.8991 53.8528L28.154 54.7651L30.0802 54.227L29.8253 53.3147L27.8991 53.8528ZM28.848 53.5329L25.1712 54.5603L25.7094 56.4865L29.3862 55.4592L28.848 53.5329ZM28.6996 60.0418C28.3297 60.1451 28.0608 60.0992 27.8167 59.9541L26.795 61.6735C27.5516 62.1231 28.3912 62.2045 29.2378 61.968L28.6996 60.0418ZM27.8167 59.9541C27.5422 59.791 27.371 59.5707 27.2791 59.2417L25.3528 59.7799C25.5802 60.5936 26.0689 61.242 26.795 61.6735L27.8167 59.9541ZM27.2791 59.2417C27.1873 58.9133 27.2236 58.6548 27.3661 58.4018L25.6235 57.4203C25.2083 58.1576 25.1253 58.9656 25.3528 59.7799L27.2791 59.2417ZM27.3773 58.3814C27.5109 58.1308 27.717 57.9522 28.0869 57.8488L27.5487 55.9226C26.7021 56.1591 26.0263 56.664 25.6124 57.4407L27.3773 58.3814ZM28.0869 57.8488C28.4288 57.7533 28.69 57.7944 28.942 57.9442L29.9638 56.2249C29.2151 55.78 28.3863 55.6886 27.5487 55.9226L28.0869 57.8488ZM28.9825 57.967C29.2498 58.1095 29.4119 58.3074 29.4996 58.6213L31.4259 58.0831C31.1943 57.2543 30.6832 56.6071 29.9232 56.2021L28.9825 57.967ZM29.4996 58.6213C29.5876 58.9361 29.5552 59.208 29.3926 59.4966L31.1352 60.4781C31.557 59.7292 31.6572 58.9109 31.4259 58.0831L29.4996 58.6213ZM29.3815 59.517C29.2436 59.7757 29.0415 59.9462 28.6996 60.0418L29.2378 61.968C30.0753 61.734 30.7368 61.2262 31.1464 60.4577L29.3815 59.517Z" fill="#509BF8" mask="url(#path-35-outside-2_1138_6300)"/>
</g>
<defs>
<clipPath id="clip0_1138_6300">
<rect width="80" height="80" fill="white"/>
</clipPath>
</defs>
</svg>
