<svg width="120" height="120" viewBox="0 0 120 120" fill="none" xmlns="http://www.w3.org/2000/svg">
<g clip-path="url(#clip0_1106_1327)">
<rect width="120" height="120" fill="#FEFEFE"/>
<path d="M55 85H65V55H55V85ZM60 45C61.4167 45 62.6042 44.5208 63.5625 43.5625C64.5208 42.6042 65 41.4167 65 40C65 38.5833 64.5208 37.3958 63.5625 36.4375C62.6042 35.4792 61.4167 35 60 35C58.5833 35 57.3958 35.4792 56.4375 36.4375C55.4792 37.3958 55 38.5833 55 40C55 41.4167 55.4792 42.6042 56.4375 43.5625C57.3958 44.5208 58.5833 45 60 45ZM60 110C53.0833 110 46.5833 108.688 40.5 106.062C34.4167 103.438 29.125 99.875 24.625 95.375C20.125 90.875 16.5625 85.5833 13.9375 79.5C11.3125 73.4167 10 66.9167 10 60C10 53.0833 11.3125 46.5833 13.9375 40.5C16.5625 34.4167 20.125 29.125 24.625 24.625C29.125 20.125 34.4167 16.5625 40.5 13.9375C46.5833 11.3125 53.0833 10 60 10C66.9167 10 73.4167 11.3125 79.5 13.9375C85.5833 16.5625 90.875 20.125 95.375 24.625C99.875 29.125 103.438 34.4167 106.062 40.5C108.688 46.5833 110 53.0833 110 60C110 66.9167 108.688 73.4167 106.062 79.5C103.438 85.5833 99.875 90.875 95.375 95.375C90.875 99.875 85.5833 103.438 79.5 106.062C73.4167 108.688 66.9167 110 60 110ZM60 100C71.1667 100 80.625 96.125 88.375 88.375C96.125 80.625 100 71.1667 100 60C100 48.8333 96.125 39.375 88.375 31.625C80.625 23.875 71.1667 20 60 20C48.8333 20 39.375 23.875 31.625 31.625C23.875 39.375 20 48.8333 20 60C20 71.1667 23.875 80.625 31.625 88.375C39.375 96.125 48.8333 100 60 100Z" fill="#F85A50"/>
</g>
<defs>
<clipPath id="clip0_1106_1327">
<rect width="120" height="120" fill="white"/>
</clipPath>
</defs>
</svg>
