<svg width="490" height="180" viewBox="0 0 490 180" fill="none" xmlns="http://www.w3.org/2000/svg">
<path d="M383.093 108.615C382.825 108.608 382.557 108.601 382.29 108.595C380.483 108.222 378.925 107.95 378.245 108.633C377.203 108.467 376.151 108.347 375.458 108.446C375.042 108.506 374.745 108.639 374.559 108.891C374.281 108.93 374.014 108.924 373.607 108.937C373.33 108.977 373.062 108.97 372.656 108.983C371.752 108.797 370.969 108.684 370.882 109.102C369.443 108.902 368.114 108.822 367.253 109.081C366.966 109.167 366.799 109.326 366.631 109.485C366.622 109.532 366.622 109.532 366.493 109.505C366.493 109.505 366.363 109.479 366.354 109.525C364.528 109.246 362.712 108.92 361.783 109.504C361.645 109.523 361.516 109.497 361.387 109.47C360.622 109.264 359.848 109.105 359.403 109.304C359.393 109.35 359.255 109.37 359.245 109.416C359.235 109.463 359.106 109.436 358.977 109.41C358.848 109.383 358.839 109.43 358.71 109.403C358.442 109.396 358.174 109.389 358.026 109.456C357.5 109.396 357.094 109.409 356.568 109.349C353.361 108.591 351.252 109.029 348.704 108.988C346.959 108.967 344.846 108.774 344.166 109.458C343.521 109.325 343.005 109.218 342.718 109.304C342.57 109.371 342.421 109.437 342.393 109.576C341.489 109.39 340.586 109.204 340.49 109.669C340.103 109.589 339.845 109.536 339.577 109.529C339.438 109.549 339.18 109.496 339.041 109.515C338.893 109.582 338.745 109.648 338.706 109.834C337.803 109.648 336.9 109.462 336.803 109.926C334.594 110.198 332.275 110.35 329.488 110.163C328.514 109.671 328.337 109.877 328.279 110.156C327.873 110.169 327.466 110.182 327.06 110.195C326.94 110.122 326.811 110.095 326.692 110.022C326.682 110.069 326.673 110.115 326.653 110.208C326.515 110.228 326.386 110.201 326.257 110.175C325.234 109.916 324.192 109.749 323.499 109.849C323.221 109.888 323.073 109.955 322.786 110.041C322.38 110.054 321.854 109.994 321.447 110.007C318.967 109.641 316.844 109.494 314.812 109.56C313.593 109.599 312.493 109.712 311.384 109.871C310.442 109.87 309.63 109.897 308.678 109.943C306.623 109.471 305.127 109.55 303.979 109.895C303.83 109.961 303.682 110.027 303.534 110.094C302.582 110.14 301.621 110.232 300.541 110.252C300.025 110.146 299.637 110.066 299.241 110.032C299.112 110.006 299.102 110.052 298.973 110.026C298.696 110.065 298.676 110.158 298.638 110.344C298.112 110.284 297.467 110.151 296.941 110.091C296.544 110.058 296.277 110.051 296.009 110.045C295.741 110.038 295.603 110.058 295.454 110.124C295.306 110.19 295.158 110.257 295 110.369C293.451 110.05 292.132 109.924 291.032 110.036C290.893 110.056 290.616 110.096 290.477 110.116C290.329 110.182 290.19 110.202 290.042 110.268C289.636 110.281 289.11 110.221 288.704 110.234C285.578 109.735 282.671 109.475 280.414 109.979C280.146 109.972 279.879 109.966 279.611 109.959C278.459 109.673 277.537 109.58 276.724 109.606C276.308 109.666 275.882 109.772 275.457 109.878C274.496 109.97 273.534 110.063 272.702 110.182C271.541 109.943 270.241 109.723 269.767 110.062C269.629 110.082 269.609 110.175 269.59 110.267C269.58 110.314 269.58 110.314 269.451 110.287C269.451 110.287 269.322 110.261 269.313 110.307C268.429 110.028 267.884 110.061 267.816 110.386C267.142 110.393 266.587 110.472 265.913 110.479C265.387 110.419 264.623 110.213 264.078 110.246C263.81 110.239 263.523 110.325 263.475 110.557C263.178 110.69 262.762 110.75 262.227 110.736C262.088 110.756 261.83 110.703 261.692 110.723C260.469 110.131 260.133 110.45 259.808 110.722C259.669 110.742 259.531 110.762 259.272 110.709C258.479 110.642 257.695 110.529 257.031 110.489C256.505 110.429 256.098 110.442 255.692 110.455C255.553 110.475 255.415 110.495 255.147 110.488C254.731 110.548 254.315 110.607 253.88 110.76C252.551 110.68 251.212 110.646 249.883 110.566C248.048 110.333 246.212 110.1 244.477 110.033C243.674 110.013 242.742 109.966 242.058 110.019C241.652 110.032 241.245 110.045 240.958 110.131C240.542 110.191 240.265 110.23 239.968 110.363C239.701 110.356 239.304 110.323 239.036 110.316C237.1 109.917 235.504 109.83 234.466 110.295C234.059 110.308 233.663 110.275 233.256 110.288C231.866 109.856 230.804 109.782 230.302 110.26C229.895 110.273 229.489 110.286 229.092 110.253C226.731 109.96 224.599 109.86 223.035 110.264C221.538 110.343 219.942 110.256 218.226 110.097C217.629 109.731 217.351 109.771 217.064 109.857C217.055 109.904 216.906 109.97 216.897 110.016C216.887 110.063 216.758 110.036 216.758 110.036C216.758 110.036 216.629 110.01 216.49 110.03C215.448 109.863 214.416 109.65 213.484 109.604C212.949 109.59 212.404 109.623 211.968 109.776C211.701 109.769 211.304 109.736 211.036 109.729C208.833 109.323 206.739 109.037 205.295 109.514C205.027 109.508 204.759 109.501 204.482 109.541C203.062 109.248 201.653 108.909 201.121 109.526C200.715 109.539 200.318 109.506 199.912 109.519C199.066 109.054 198.769 109.187 198.702 109.512C197.157 109.823 194.815 109.438 193.041 109.556C191.474 109.33 189.787 109.031 189.007 109.548C188.471 109.535 187.797 109.541 187.262 109.528C186.894 109.355 186.645 109.255 186.516 109.229C186.387 109.202 186.378 109.249 186.239 109.269C186.229 109.315 186.229 109.315 186.22 109.361C186.21 109.408 186.191 109.501 186.181 109.547C186.171 109.594 186.171 109.594 186.042 109.567L185.913 109.541C184.484 109.294 183.074 108.955 182.553 109.526C180.769 109.691 178.766 109.618 176.782 109.451C174.55 109.185 172.428 109.038 170.286 108.984C169.483 108.964 168.67 108.99 167.857 109.016C167.451 109.03 167.044 109.043 166.757 109.129C166.49 109.122 166.212 109.162 165.945 109.155C165.677 109.148 165.409 109.142 165.013 109.108C164.477 109.095 163.813 109.055 163.158 108.968C161.093 108.543 159.148 108.19 157.823 108.741C157.416 108.754 157.02 108.72 156.484 108.707C154.807 108.361 152.919 107.73 152.21 108.553C152.072 108.573 151.933 108.592 151.675 108.539C151.288 108.459 150.772 108.353 150.504 108.346C150.365 108.366 150.236 108.34 150.088 108.406C149.94 108.472 149.93 108.519 149.782 108.585C149.514 108.578 149.246 108.572 148.979 108.565C148.343 108.385 147.817 108.325 147.65 108.485C147.64 108.531 147.492 108.598 147.473 108.69C146.182 108.424 145.25 108.378 145.015 108.862C142.706 108.968 141.122 109.465 139.191 109.697C137.762 109.45 136.323 109.251 135.314 109.576C134.243 109.549 133.191 109.429 132.24 109.475C131.15 109.541 130.924 109.979 131.086 110.497C131.167 110.756 131.774 111.075 132.299 111.135C134.293 111.255 136.367 111.634 138.031 111.396C140.527 111.038 143.162 110.661 145.778 110.376C151.821 109.781 159.092 110.407 166.033 110.675C172.31 110.903 178.587 111.131 184.644 111.12C191.514 111.083 198.284 110.879 205.612 111.227C210.809 111.475 215.905 111.556 220.982 111.731C229.807 111.999 238.083 111.67 247.027 112.012C254.771 112.3 262.654 112.569 269.382 111.921C274.594 111.444 280.364 111.519 286.234 111.761C291.56 112.035 296.556 111.95 301.423 111.839C305.616 111.734 309.699 111.51 314.13 111.551C322.994 111.634 332.306 112.149 340.262 111.415C345.335 110.958 350.738 110.861 356.489 111.029C357.292 111.049 358.095 111.069 358.898 111.089C358.879 111.182 358.869 111.229 358.979 111.348C358.96 111.441 358.95 111.488 359.06 111.607C357.444 111.613 355.58 111.52 354.083 111.599C344.224 112.425 333.668 112.72 323.47 113.234C307.424 114.045 290.82 114.305 274.445 114.757C265.514 115 256.154 114.717 247.233 114.913C240.334 115.09 233.535 115.433 226.168 115.271C219.069 115.116 212.438 115.299 205.916 115.603C202.12 115.741 198.434 115.998 194.289 115.871C194.022 115.864 193.744 115.904 193.476 115.897C192.941 115.883 192.406 115.87 191.861 115.903C191.593 115.896 191.325 115.889 191.057 115.883C185.694 115.794 180.449 115.779 175.085 115.691C174.956 115.665 174.827 115.638 174.827 115.638C174.569 115.585 174.43 115.605 174.272 115.717C171.834 115.796 169.386 115.921 166.948 116C164.51 116.079 161.952 116.085 159.284 115.971C158.907 115.845 158.63 115.884 158.343 115.971C155.407 115.85 152.482 115.683 149.418 115.536C148.514 115.35 147.501 115.044 146.918 115.263C146.779 115.283 146.769 115.329 146.621 115.396C144.608 115.368 142.725 115.368 140.712 115.34C138.896 115.014 137.18 114.854 136.39 115.418C136.38 115.465 136.242 115.485 136.113 115.458C135.835 115.498 135.568 115.491 135.29 115.531C134.884 115.544 134.607 115.584 134.21 115.55C133.445 115.344 132.9 115.377 132.833 115.703C132.694 115.723 132.685 115.769 132.426 115.716C132.159 115.709 131.881 115.749 131.614 115.742C131.078 115.729 130.662 115.788 130.127 115.775C129.998 115.748 129.869 115.722 129.74 115.695C129.482 115.642 129.333 115.708 129.195 115.728C129.185 115.774 129.046 115.794 129.037 115.841C129.027 115.887 128.898 115.861 128.888 115.907C128.759 115.88 128.75 115.927 128.621 115.9C127.717 115.714 126.933 115.601 126.379 115.68C125.972 115.694 125.685 115.78 125.508 115.986C125.221 116.072 124.805 116.131 124.389 116.191C123.983 116.204 123.447 116.191 122.922 116.131C120.312 115.738 117.693 115.392 115.842 115.883C115.316 115.823 114.919 115.789 114.384 115.776C113.509 115.45 112.974 115.437 112.777 115.735C111.013 115.808 108.823 115.986 109.979 116.903C111.134 117.819 113.563 117.787 115.537 118C117.908 118.247 120.079 118.161 122.44 118.454C122.54 118.62 122.502 118.806 122.602 118.972C121.77 119.091 120.809 119.184 119.977 119.303C119.838 119.323 119.69 119.389 119.422 119.383C118.332 119.449 117.232 119.561 116.142 119.627C115.635 119.474 115.368 119.467 115.1 119.461C114.832 119.454 114.674 119.567 114.636 119.753C113.197 119.553 111.73 119.493 110.639 119.559C109.956 119.612 109.262 119.711 108.688 119.883C108.292 119.85 107.756 119.836 107.359 119.803C106.514 119.338 106.346 119.497 106.16 119.75C103.989 119.835 101.599 119.682 99.2086 119.528C98.1763 119.315 97.0439 118.936 96.4314 119.295C95.2026 119.381 93.3286 119.333 94.2357 120.15C95.1525 120.921 96.4775 120.37 97.6293 120.656C98.0164 120.736 98.3034 120.65 98.7002 120.683C106.874 121.496 114.389 121.592 121.117 120.943C127.567 120.335 133.907 119.607 141.513 119.915C147.254 120.129 152.915 120.085 157.978 119.675C161.952 119.331 167.042 120.09 170.877 119.766C174.702 119.489 178.727 119.543 183.211 119.983C187.962 120.429 192.155 120.325 196.348 120.22C205.021 119.924 213.684 119.675 223.374 120.316C230.147 120.743 235.785 120.161 241.651 119.771C246.289 119.468 250.459 118.825 255.784 119.099C260.713 119.34 265.651 119.534 270.379 119.443C274.969 119.371 279.2 119.081 283.671 118.936C289.35 118.799 295.698 119.332 301.846 119.534C302.74 119.766 303.643 119.953 303.869 119.515C310.417 120.38 316.355 120.296 322.154 120.231C328.082 120.194 334.22 120.442 340.249 120.57C346 120.738 351.731 120.999 357.382 121.001C361.011 121.022 364.071 120.538 367.432 120.553C375.363 120.589 382.526 119.788 391.245 120.568C393.487 120.788 393.938 119.912 393.834 119.115C393.72 118.365 391.755 118.105 390.326 117.859C389.778 117.261 388.616 117.022 387.565 116.902C387.168 116.869 386.642 116.809 386.236 116.822C385.839 116.789 385.303 116.775 384.907 116.742C384.639 116.735 384.5 116.755 384.233 116.748C383.965 116.741 383.558 116.755 383.281 116.794C383.004 116.834 382.726 116.874 382.449 116.913C381.665 116.8 380.752 116.661 379.978 116.501C379.859 116.428 379.739 116.355 379.739 116.355C379.73 116.401 379.72 116.448 379.71 116.494C378.788 116.401 377.856 116.354 376.804 116.234C376.556 116.135 376.417 116.154 376.288 116.128C376.149 116.148 376.011 116.168 375.991 116.261C374.643 116.273 373.176 116.213 371.827 116.226C370.479 116.239 369.011 116.178 367.663 116.191C362.677 116.229 358.001 116.719 352.565 116.325C352.178 116.245 351.801 116.119 351.404 116.086C351.007 116.052 350.73 116.092 350.562 116.252C350.027 116.238 349.372 116.151 348.837 116.138C348.569 116.131 348.301 116.125 347.905 116.091C343.731 116.103 339.147 115.497 335.083 115.629C328.036 115.872 320.74 116.015 313.574 116.185C313.216 115.966 312.986 115.773 312.618 115.601C313.034 115.541 313.46 115.435 313.876 115.375C322.329 114.841 331.589 114.957 340.033 114.469C345.89 114.125 351.527 113.543 357.862 113.492C362.313 113.441 366.874 113.509 370.857 113.118C375.801 112.636 379.661 111.542 384.356 110.959C386.704 110.668 387.135 109.884 386.038 108.689C385.789 108.589 385.541 108.49 385.421 108.417C385.292 108.39 385.292 108.39 385.163 108.363C385.034 108.337 385.034 108.337 384.905 108.31C384.15 108.058 383.567 108.277 383.093 108.615Z" fill="#419AFF"/>
<path d="M379.694 121.384C391.706 117.491 401.693 112.979 409.452 108.073C417.21 103.166 422.741 97.8646 425.718 92.3418C428.545 86.8601 428.942 81.2073 425.984 75.7216C422.647 69.1641 414.634 63.0532 404.128 57.4601C393.72 52.0083 380.969 47.0331 366.518 42.6934C354.119 38.8812 340.197 35.5722 325.57 32.793C310.943 30.0138 295.312 27.8468 279.223 26.3098C263.257 24.8228 246.807 24.0572 230.269 24.0717C213.581 24.1274 196.929 25.0134 181.227 26.8977C164.829 28.8054 149.656 31.7202 136.059 35.3773C122.462 39.0345 110.59 43.3926 101.07 48.1958C91.4006 53.0402 83.9325 58.3709 78.9917 64.0141C74.0509 69.6573 72.0601 75.5807 72.5791 81.4016C73.0717 87.3137 76.3207 93.2235 81.7361 98.7891C87.2483 104.496 95.0502 109.909 104.922 114.837C114.89 119.906 127.051 124.539 140.788 128.487C156.058 132.854 173.705 136.146 193.246 137.657C211.176 139.023 229.951 138.897 248.092 138.106C254.23 137.845 260.544 137.452 266.585 137.049C273.639 136.957 280.745 136.681 287.755 136.264C304.98 135.305 321.871 133.598 337.485 131.066C353.072 128.625 367.382 125.359 379.694 121.384ZM301.203 131.221C289.482 132.682 277.294 133.851 265.062 134.697C254.952 134.874 244.649 134.769 234.425 134.391C198.293 133.076 161.201 128.415 134.88 119.865C110.311 111.926 98.6615 100.768 97.368 89.5324C95.6607 77.8228 103.667 65.8766 117.907 55.2388C125.684 49.3194 135.988 43.7125 149.479 38.9925C161.421 34.8669 176.004 31.6104 192.279 29.6526C193.573 29.4644 194.991 29.3263 196.259 29.2294C208.614 28.4339 221.26 28.0624 233.924 28.106C235.834 28.1682 237.596 28.2715 239.48 28.425C240.422 28.5017 241.145 28.387 241.743 28.2223C251.747 28.4097 261.795 28.921 271.517 29.6059C304.153 32.0499 334.349 37.6851 357.051 45.8862C380.493 54.3877 396.22 65.2638 400.463 76.7796C404.663 87.9715 396.789 99.4614 379.783 109.18C371.355 114.019 360.576 118.413 347.947 122.055C334.121 126.027 318.225 129.057 301.203 131.221ZM191.749 135.213C172.904 133.678 156.402 130.239 141.925 125.991C128.98 122.161 117.734 117.695 108.259 112.826C90.1985 103.348 79.5175 92.1759 78.9197 80.917C78.3483 69.5668 88.4501 58.4718 107.56 49.098C120.559 42.7497 137.565 37.315 157.176 33.3469C152.412 34.5737 148.167 35.9096 144.169 37.3456C130.352 42.2393 119.722 48.0198 111.743 54.1629C104.292 59.9087 98.6999 65.8992 94.9919 72.0431C91.5129 77.8721 90.0417 83.9046 91.0803 89.8345C92.1453 95.6731 95.5705 101.45 101.981 106.91C108.761 112.52 119.126 117.648 132.238 121.852C146.733 126.516 164.477 129.949 183.031 132.488C196.558 134.31 210.665 135.552 225.178 136.347C213.73 136.389 202.66 136.075 191.749 135.213ZM333.522 129.048C330.334 129.589 327.049 129.989 323.738 130.48C334.623 128.577 344.671 126.232 353.856 123.537C366.687 119.671 377.819 115.012 386.3 109.991C394.93 104.929 401.21 99.421 404.662 93.6834C408.141 87.8544 408.767 81.8865 406.363 75.9122C403.96 69.9379 398.5 64.0483 390.549 58.6765C382.747 53.2634 372.356 48.2268 359.843 43.8581C357.967 43.1982 355.968 42.4883 353.943 41.8696C357.254 42.8065 360.565 43.7434 363.85 44.7716C391.069 53.0737 413.797 64.0394 420.013 76.3564C425.243 86.8448 418.224 97.7637 403.261 107.088C387.523 116.71 363.129 124.346 333.522 129.048Z" fill="#419AFF"/>
</svg>
