<svg width="48" height="44" viewBox="0 0 48 44" fill="none" xmlns="http://www.w3.org/2000/svg">
<path d="M7.68682 23.1073C7.11345 22.4702 8.52188 22.8353 8.68682 22.8906C14.3559 24.7923 19.2622 28.1813 24.6424 30.6906C28.9943 32.7204 33.5173 34.4198 38.1757 35.5962C39.56 35.9457 40.9664 36.1766 42.3535 36.5073C42.3869 36.5152 43.1646 36.7949 43.1646 36.6351C43.1646 36.294 42.8235 35.7307 42.7257 35.4295C42.1469 33.6461 41.7877 31.8005 41.1979 30.0184C39.2859 24.2404 35.8279 19.2627 32.4646 14.2517C29.9805 10.5506 27.5553 6.85111 25.1757 3.08506C24.9529 2.73245 24.409 1.67908 24.409 2.09617C24.409 2.71229 24.7192 3.42068 24.7646 4.05172C24.9045 5.9979 24.7242 7.95757 24.5646 9.89617C24.2276 13.9894 23.7669 18.0672 23.2924 22.1462C22.5642 28.4054 22.1393 34.6927 21.409 40.9517C21.3542 41.4219 21.1879 41.9819 21.6424 41.4517C26.2838 36.0368 30.7249 30.4634 35.1701 24.8851C37.6983 21.7125 41.5912 16.8099 44.3035 13.3295C45.0306 12.3965 45.9936 11.8766 45.2868 11.9073C44.9091 11.9237 44.5306 12.0488 44.1868 12.1962C43.0621 12.6782 41.9957 13.331 40.9257 13.9184C38.1065 15.4659 35.2724 16.9421 32.2979 18.1739C26.7029 20.4912 20.9399 22.4822 15.0313 23.8295C12.0637 24.5062 9.16198 25.0894 6.27571 26.0851C5.73013 26.2733 2.95933 27.6798 2.48682 27.2073" stroke="#419AFF" stroke-width="3" stroke-linecap="round"/>
</svg>
