<svg width="208" height="204" viewBox="0 0 208 204" fill="none" xmlns="http://www.w3.org/2000/svg">
<ellipse cx="102.5" cy="178" rx="72.5" ry="14" fill="#EDEDED"/>
<path d="M142.606 23.7211V76.7502C142.606 85.6042 135.428 92.7818 126.574 92.7818C117.72 92.7818 110.542 85.6042 110.542 76.7502V23.7211C110.542 14.8671 117.72 7.68945 126.574 7.68945C135.428 7.68945 142.606 14.8671 142.606 23.7211Z" fill="#BBDEFF" stroke="#56A2E9"/>
<path d="M95.8704 24.1374V81.4263C95.8704 90.2803 88.6928 97.4579 79.8388 97.4579C70.9847 97.4579 63.8071 90.2803 63.8071 81.4263V24.1374C63.8071 15.2833 70.9847 8.10571 79.8388 8.10571C88.6928 8.10571 95.8704 15.2833 95.8704 24.1374Z" fill="#BBDEFF" stroke="#56A2E9"/>
<circle cx="163.193" cy="124.839" r="20.8174" transform="rotate(15 163.193 124.839)" fill="#BBDEFF" stroke="#56A2E9" stroke-width="1.34952"/>
<circle cx="43.6294" cy="124.839" r="20.8174" transform="rotate(15 43.6294 124.839)" fill="#BBDEFF" stroke="#56A2E9" stroke-width="1.34952"/>
<path d="M144.725 132.553L108.944 132.553L108.944 165.717C108.944 171.019 113.242 175.317 118.544 175.317L135.125 175.317C140.427 175.317 144.725 171.019 144.725 165.717L144.725 132.553Z" fill="#BBDEFF" stroke="#56A2E9" stroke-width="1.74545"/>
<path d="M101.962 132.553L66.1799 132.553L66.1799 165.717C66.1799 171.019 70.478 175.317 75.7799 175.317L92.3617 175.317C97.6637 175.317 101.962 171.019 101.962 165.717L101.962 132.553Z" fill="#BBDEFF" stroke="#56A2E9" stroke-width="1.74545"/>
<mask id="path-8-inside-1_518_4422" fill="white">
<path d="M164.805 105.42C163.395 134.538 135.408 156.842 102.294 155.239C69.1805 153.635 43.4794 128.731 44.8894 99.6138C46.2993 70.4964 74.2863 48.192 107.4 49.7955C140.514 51.3989 166.215 76.303 164.805 105.42Z"/>
</mask>
<path d="M164.805 105.42C163.395 134.538 135.408 156.842 102.294 155.239C69.1805 153.635 43.4794 128.731 44.8894 99.6138C46.2993 70.4964 74.2863 48.192 107.4 49.7955C140.514 51.3989 166.215 76.303 164.805 105.42Z" fill="#BBDEFF"/>
<path d="M162.109 105.29C160.787 132.603 134.386 154.09 102.425 152.543L102.164 157.935C136.43 159.594 166.004 136.472 167.501 105.551L162.109 105.29ZM102.425 152.543C70.4637 150.995 46.2627 127.057 47.5853 99.7443L42.1935 99.4832C40.6962 130.405 67.8973 156.275 102.164 157.935L102.425 152.543ZM47.5853 99.7443C48.9078 72.4312 75.3084 50.9437 107.27 52.4913L107.531 47.0996C73.2642 45.4403 43.6908 68.5616 42.1935 99.4832L47.5853 99.7443ZM107.27 52.4913C139.231 54.039 163.432 77.9767 162.109 105.29L167.501 105.551C168.998 74.6293 141.797 48.7588 107.531 47.0996L107.27 52.4913Z" fill="#56A2E9" mask="url(#path-8-inside-1_518_4422)"/>
<circle cx="82.5152" cy="98.4167" r="14.2565" transform="rotate(5.05497 82.5152 98.4167)" fill="white"/>
<circle cx="82.9369" cy="96.5994" r="9.67404" transform="rotate(5.05497 82.9369 96.5994)" fill="#431110"/>
<circle cx="124.91" cy="97.3598" r="14.2565" transform="rotate(5.05497 124.91 97.3598)" fill="white"/>
<circle cx="123.62" cy="95.6785" r="9.67404" transform="rotate(5.05497 123.62 95.6785)" fill="#431110"/>
<path d="M95.4171 117.58C96.8928 118.909 100.815 120.672 104.7 117.094M104.7 117.094C106.525 118.598 110.679 120.155 112.823 116.668M104.7 117.094L104.495 113.177" stroke="#431110" stroke-width="2.26061" stroke-linecap="round"/>
<ellipse cx="104.153" cy="110.568" rx="4.36267" ry="3.34471" transform="rotate(-2.99935 104.153 110.568)" fill="#F98DE1"/>
<ellipse cx="90.3162" cy="92.5998" rx="4.79197" ry="2.26061" transform="rotate(-3.2074 90.3162 92.5998)" fill="white"/>
<ellipse cx="131.223" cy="91.9699" rx="4.16822" ry="2.26061" transform="rotate(-3.2074 131.223 91.9699)" fill="white"/>
<rect x="118.43" y="13.1226" width="17.8706" height="46.5325" rx="8.93529" fill="#FFF7FD"/>
<rect x="69.0161" y="14.7607" width="17.0316" height="46.5423" rx="8.51579" fill="#FFF7FD"/>
<path d="M113.307 150.189C165.012 136.901 161.886 95.1458 153.807 76.6895L156.307 73.1895L160.165 79.2163C174.814 132.371 134.672 148.344 113.307 150.189Z" fill="#7C7270"/>
<path d="M95.3071 150.189C43.6019 136.901 46.7282 95.1458 54.8071 76.6895L52.3071 73.1895L48.4496 79.2163C33.7998 132.371 73.9427 148.344 95.3071 150.189Z" fill="#7C7270"/>
<rect x="95.7241" y="145.189" width="17" height="8" fill="#D9D9D9"/>
<rect x="101.724" y="145.189" width="12" height="8" fill="#FFC841"/>
<path fill-rule="evenodd" clip-rule="evenodd" d="M120.31 33.7117C121.674 34.0653 123.022 34.4657 124.35 34.9125C130.564 37.0036 136.21 40.0687 140.966 43.9326C145.722 47.7966 149.494 52.3837 152.068 57.4322C154.642 62.4807 155.967 67.8917 155.967 73.3561H104.75L53.5337 73.3561C53.5337 67.8917 54.8584 62.4807 57.4323 57.4322C60.0062 52.3837 63.7788 47.7966 68.5347 43.9326C73.2905 40.0687 78.9366 37.0036 85.1505 34.9125C86.1079 34.5903 87.0758 34.2922 88.053 34.0184C88.1426 31.8886 89.8976 30.1895 92.0494 30.1895H116.338C118.386 30.1895 120.074 31.7278 120.31 33.7117Z" fill="#FFCE58"/>
<path fill-rule="evenodd" clip-rule="evenodd" d="M104.75 73.3561H155.967C155.967 67.8917 154.642 62.4807 152.068 57.4322C149.494 52.3837 145.722 47.7966 140.966 43.9326C136.21 40.0687 130.564 37.0036 124.35 34.9125C123.023 34.4657 121.675 34.0653 120.31 33.7117C120.074 31.7278 118.386 30.1895 116.338 30.1895H104.75V73.3561Z" fill="#FFC841"/>
<rect x="46.3071" y="71.1895" width="116" height="8" rx="4" fill="#ECB736"/>
<path d="M86.3793 60.134L85.2659 35.2451C79.9216 36.8007 74.8742 39.6525 73.5752 40.6896L86.3793 60.134Z" fill="#D3981F" stroke="#D09418"/>
<path d="M123.678 60.134L124.792 35.2451C130.136 36.8007 135.183 39.6525 136.482 40.6896L123.678 60.134Z" fill="#D3981F" stroke="#D09418"/>
</svg>
