<svg width="232" height="238" viewBox="0 0 232 238" fill="none" xmlns="http://www.w3.org/2000/svg">
<circle cx="29.91" cy="29.91" r="28.971" transform="matrix(-0.965926 0.258819 0.258819 0.965926 57.7812 78)" fill="#BBDEFF" stroke="#56A2E9" stroke-width="1.87809"/>
<circle cx="29.91" cy="29.91" r="28.971" transform="matrix(-0.965926 0.258819 0.258819 0.965926 101.781 155)" fill="#BBDEFF" stroke="#56A2E9" stroke-width="1.87809"/>
<circle cx="29.91" cy="29.91" r="28.971" transform="matrix(-0.965926 0.258819 0.258819 0.965926 188.781 164)" fill="#BBDEFF" stroke="#56A2E9" stroke-width="1.87809"/>
<g clip-path="url(#clip0_1170_832)">
<path fill-rule="evenodd" clip-rule="evenodd" d="M166.588 23.0066C166.588 10.3004 156.288 0 143.581 0C130.875 0 120.575 10.3004 120.575 23.0066V61.901C119.424 61.9153 118.267 61.9504 117.106 62.0066C112.717 62.2192 108.421 62.726 104.242 63.504V28.428C104.242 15.7218 93.9416 5.42139 81.2354 5.42139C68.5292 5.42139 58.2288 15.7218 58.2288 28.428V87.2557C44.332 101.164 36.2575 119.589 37.2177 139.418C39.1799 179.94 78.1285 210.98 124.212 208.749C170.295 206.517 206.063 171.859 204.101 131.337C202.915 106.841 188.212 85.8102 166.588 73.4995V23.0066Z" fill="#BBDEFF"/>
<path fill-rule="evenodd" clip-rule="evenodd" d="M124.331 65.6106V23.0066C124.331 12.3749 132.95 3.75618 143.581 3.75618C154.213 3.75618 162.832 12.3749 162.832 23.0066V75.6833L164.73 76.7638C185.411 88.5375 199.234 108.495 200.349 131.519C202.189 169.53 168.51 202.843 124.03 204.997C79.551 207.151 42.8101 177.247 40.9695 139.236C40.0664 120.585 47.648 103.16 60.886 89.9106L61.985 88.8106V28.428C61.985 17.7963 70.6037 9.17757 81.2354 9.17757C91.8671 9.17757 100.486 17.7963 100.486 28.428V68.0241L104.93 67.1967C108.941 66.4498 113.068 65.9628 117.288 65.7584C118.404 65.7044 119.515 65.6707 120.622 65.6569L124.331 65.6106ZM120.575 61.901V23.0066C120.575 10.3004 130.875 0 143.581 0C156.288 0 166.588 10.3004 166.588 23.0066V73.4995C188.212 85.8102 202.915 106.841 204.101 131.337C206.063 171.859 170.295 206.517 124.212 208.749C78.1285 210.98 39.1799 179.94 37.2177 139.418C36.2575 119.589 44.332 101.164 58.2288 87.2557V28.428C58.2288 15.7218 68.5292 5.42139 81.2354 5.42139C93.9416 5.42139 104.242 15.7218 104.242 28.428V63.504C105.484 63.2728 106.736 63.0655 107.998 62.8828C110.983 62.4507 114.021 62.156 117.106 62.0066C118.267 61.9504 119.424 61.9153 120.575 61.901Z" fill="#56A2E9"/>
<path d="M104.729 124.074C105.73 140.13 118.425 152.13 132.78 151.235C147.135 150.339 158.24 136.854 157.239 120.798C156.237 104.741 143.542 92.7413 129.187 93.6368C114.832 94.5323 103.727 108.017 104.729 124.074Z" stroke="#431110" stroke-width="3.63429"/>
<path d="M104.557 121.822C102.227 119.601 99.1026 117.343 93.7719 122.936" stroke="#431110" stroke-width="3.63429"/>
<path d="M112.189 149.004C110.477 151.173 105.51 154.513 99.3404 150.517M99.3404 150.517C97.1912 153.009 91.8583 156.119 88.098 151.84M99.3404 150.517L98.7024 145.096" stroke="#431110" stroke-width="3.54185" stroke-linecap="round"/>
<ellipse cx="6.07139" cy="4.65473" rx="6.07139" ry="4.65473" transform="matrix(-0.993144 0.116895 0.116895 0.993144 104.045 136.109)" fill="#F98DE1"/>
<path d="M51.1644 119.094C51.6693 127.187 54.6194 134.29 58.8962 139.24C63.1719 144.189 68.6904 146.912 74.4326 146.553C80.1748 146.195 85.312 142.807 88.9396 137.366C92.5681 131.923 94.6126 124.508 94.1077 116.415C93.6029 108.322 90.6528 101.219 86.3759 96.2691C82.1002 91.3205 76.5818 88.5974 70.8396 88.9556C65.0974 89.3138 59.9601 92.7016 56.3326 98.1433C52.704 103.586 50.6596 111.001 51.1644 119.094Z" stroke="#431110" stroke-width="3.63429"/>
</g>
<circle cx="29.91" cy="29.91" r="28.971" transform="matrix(-0.965926 0.258819 0.258819 0.965926 215.781 90)" fill="#BBDEFF" stroke="#56A2E9" stroke-width="1.87809"/>
<rect width="24.3963" height="54.2139" rx="12.1981" transform="matrix(-1 5.18986e-09 5.18986e-09 1 90.6875 16.2637)" fill="#FFF7FD"/>
<rect width="27.107" height="62.346" rx="13.5535" transform="matrix(-1 5.18986e-09 5.18986e-09 1 158.455 8.13086)" fill="#FFF7FD"/>
<ellipse cx="14.1768" cy="19.8023" rx="14.1768" ry="19.8023" transform="matrix(0.992368 0.123311 -0.0628436 0.998023 117.617 100.541)" fill="white"/>
<ellipse cx="9.61998" cy="13.4373" rx="9.61998" ry="13.4373" transform="matrix(0.992368 0.123311 -0.0628436 0.998023 120.463 109.396)" fill="#431110"/>
<ellipse cx="4.13563" cy="3.14359" rx="4.13563" ry="3.14359" transform="matrix(0.996916 -0.078478 0.0398598 0.999205 131.066 115.357)" fill="white"/>
<ellipse cx="14.1768" cy="19.8023" rx="14.1768" ry="19.8023" transform="matrix(0.992368 0.123311 -0.0628436 0.998023 64.4883 97)" fill="white"/>
<ellipse cx="9.61998" cy="13.4373" rx="9.61998" ry="13.4373" transform="matrix(0.992368 0.123311 -0.0628436 0.998023 67.3359 105.855)" fill="#431110"/>
<ellipse cx="4.13563" cy="3.14359" rx="4.13563" ry="3.14359" transform="matrix(0.996916 -0.078478 0.0398598 0.999205 77.9375 111.816)" fill="white"/>
<defs>
<clipPath id="clip0_1170_832">
<rect width="167.037" height="208.862" fill="white" transform="matrix(-1 0 0 1 204.178 0)"/>
</clipPath>
</defs>
</svg>
