<svg width="365" height="322" viewBox="0 0 365 322" fill="none" xmlns="http://www.w3.org/2000/svg">
<path fill-rule="evenodd" clip-rule="evenodd" d="M230.079 34.6943V38.0342C230.07 37.3558 230.034 36.6031 229.964 35.8005C229.893 36.6031 229.857 37.3558 229.849 38.0342V34.6943C229.07 28.2337 226.161 19.482 218.572 19.482C222.014 17.8305 228.544 12.563 229.849 3.83901V0.708984C229.849 1.47248 229.888 2.21382 229.964 2.93294C230.039 2.21382 230.079 1.47248 230.079 0.708984V3.83901C231.383 12.563 237.913 17.8305 241.355 19.482C233.767 19.482 230.857 28.2337 230.079 34.6943Z" fill="#F75EAB"/>
<path fill-rule="evenodd" clip-rule="evenodd" d="M202.913 59.0811V62.4209C202.904 61.7426 202.868 60.9898 202.798 60.1872C202.727 60.9898 202.691 61.7426 202.683 62.4209V59.0811C201.904 52.6204 198.995 43.8687 191.406 43.8687C194.848 42.2172 201.378 36.9497 202.683 28.2257V25.0957C202.683 25.8592 202.722 26.6005 202.798 27.3197C202.873 26.6005 202.913 25.8592 202.913 25.0957V28.2257C204.217 36.9497 210.747 42.2172 214.189 43.8687C206.601 43.8687 203.691 52.6204 202.913 59.0811Z" fill="#F75EAB"/>
<circle cx="29.91" cy="29.91" r="28.971" transform="matrix(-0.965926 0.258819 0.258819 0.965926 190.781 140)" fill="#BBDEFF" stroke="#56A2E9" stroke-width="1.87809"/>
<circle cx="29.91" cy="29.91" r="28.971" transform="matrix(-0.965926 0.258819 0.258819 0.965926 234.781 217)" fill="#BBDEFF" stroke="#56A2E9" stroke-width="1.87809"/>
<circle cx="29.91" cy="29.91" r="28.971" transform="matrix(-0.965926 0.258819 0.258819 0.965926 321.781 226)" fill="#BBDEFF" stroke="#56A2E9" stroke-width="1.87809"/>
<g clip-path="url(#clip0_1206_987)">
<path fill-rule="evenodd" clip-rule="evenodd" d="M299.588 85.0066C299.588 72.3004 289.288 62 276.581 62C263.875 62 253.575 72.3004 253.575 85.0066V123.901C252.424 123.915 251.267 123.95 250.106 124.007C245.717 124.219 241.421 124.726 237.242 125.504V90.428C237.242 77.7218 226.942 67.4214 214.235 67.4214C201.529 67.4214 191.229 77.7218 191.229 90.428V149.256C177.332 163.164 169.258 181.589 170.218 201.418C172.18 241.94 211.129 272.98 257.212 270.749C303.295 268.517 339.063 233.859 337.101 193.337C335.915 168.841 321.212 147.81 299.588 135.499V85.0066Z" fill="#BBDEFF"/>
<path fill-rule="evenodd" clip-rule="evenodd" d="M257.331 127.611V85.0066C257.331 74.3749 265.95 65.7562 276.581 65.7562C287.213 65.7562 295.832 74.3749 295.832 85.0066V137.683L297.73 138.764C318.411 150.538 332.234 170.495 333.349 193.519C335.189 231.53 301.51 264.843 257.03 266.997C212.551 269.151 175.81 239.247 173.969 201.236C173.066 182.585 180.648 165.16 193.886 151.911L194.985 150.811V90.428C194.985 79.7963 203.604 71.1776 214.235 71.1776C224.867 71.1776 233.486 79.7963 233.486 90.428V130.024L237.93 129.197C241.941 128.45 246.068 127.963 250.288 127.758C251.404 127.704 252.515 127.671 253.622 127.657L257.331 127.611ZM253.575 123.901V85.0066C253.575 72.3004 263.875 62 276.581 62C289.288 62 299.588 72.3004 299.588 85.0066V135.499C321.212 147.81 335.915 168.841 337.101 193.337C339.063 233.859 303.295 268.517 257.212 270.749C211.129 272.98 172.18 241.94 170.218 201.418C169.258 181.589 177.332 163.164 191.229 149.256V90.428C191.229 77.7218 201.529 67.4214 214.235 67.4214C226.942 67.4214 237.242 77.7218 237.242 90.428V125.504C238.484 125.273 239.736 125.066 240.998 124.883C243.983 124.451 247.021 124.156 250.106 124.007C251.267 123.95 252.424 123.915 253.575 123.901Z" fill="#56A2E9"/>
<path d="M237.729 186.074C238.73 202.13 251.425 214.13 265.78 213.235C280.135 212.339 291.24 198.854 290.239 182.798C289.237 166.741 276.542 154.741 262.187 155.637C247.832 156.532 236.727 170.017 237.729 186.074Z" stroke="#431110" stroke-width="3.63429"/>
<path d="M237.557 183.822C235.227 181.601 232.103 179.343 226.772 184.936" stroke="#431110" stroke-width="3.63429"/>
<path d="M245.189 211.004C243.477 213.173 238.51 216.513 232.34 212.517M232.34 212.517C230.191 215.009 224.858 218.119 221.098 213.84M232.34 212.517L231.702 207.096" stroke="#431110" stroke-width="3.54185" stroke-linecap="round"/>
<ellipse cx="6.07139" cy="4.65473" rx="6.07139" ry="4.65473" transform="matrix(-0.993144 0.116895 0.116895 0.993144 237.045 198.109)" fill="#F98DE1"/>
<path d="M184.164 181.094C184.669 189.187 187.619 196.29 191.896 201.24C196.172 206.189 201.69 208.912 207.433 208.553C213.175 208.195 218.312 204.807 221.94 199.366C225.568 193.923 227.613 186.508 227.108 178.415C226.603 170.322 223.653 163.219 219.376 158.269C215.1 153.321 209.582 150.597 203.84 150.956C198.097 151.314 192.96 154.702 189.333 160.143C185.704 165.586 183.66 173.001 184.164 181.094Z" stroke="#431110" stroke-width="3.63429"/>
</g>
<circle cx="29.91" cy="29.91" r="28.971" transform="matrix(-0.965926 0.258819 0.258819 0.965926 348.781 152)" fill="#BBDEFF" stroke="#56A2E9" stroke-width="1.87809"/>
<rect width="24.3963" height="54.2139" rx="12.1981" transform="matrix(-1 5.18986e-09 5.18986e-09 1 223.688 78.2637)" fill="#FFF7FD"/>
<rect width="27.107" height="62.346" rx="13.5535" transform="matrix(-1 5.18986e-09 5.18986e-09 1 291.455 70.1309)" fill="#FFF7FD"/>
<ellipse cx="14.1768" cy="19.8023" rx="14.1768" ry="19.8023" transform="matrix(0.992368 0.123311 -0.0628436 0.998023 250.617 162.541)" fill="white"/>
<ellipse cx="9.61998" cy="13.4373" rx="9.61998" ry="13.4373" transform="matrix(0.992368 0.123311 -0.0628436 0.998023 253.463 171.396)" fill="#431110"/>
<ellipse cx="4.13563" cy="3.14359" rx="4.13563" ry="3.14359" transform="matrix(0.996916 -0.078478 0.0398598 0.999205 264.066 177.357)" fill="white"/>
<ellipse cx="14.1768" cy="19.8023" rx="14.1768" ry="19.8023" transform="matrix(0.992368 0.123311 -0.0628436 0.998023 197.488 159)" fill="white"/>
<ellipse cx="9.61998" cy="13.4373" rx="9.61998" ry="13.4373" transform="matrix(0.992368 0.123311 -0.0628436 0.998023 200.336 167.855)" fill="#431110"/>
<ellipse cx="4.13563" cy="3.14359" rx="4.13563" ry="3.14359" transform="matrix(0.996916 -0.078478 0.0398598 0.999205 210.938 173.816)" fill="white"/>
<path d="M201.561 321.918C-28.3693 296.82 -15.4591 150.53 19.7373 80.5222C44.9736 63.4415 37.5545 104.197 30.6905 126.71H44.7106C44.0096 102.309 54.3494 88.6559 59.607 84.8795C70.7063 79.0698 88.3483 75.642 70.1221 108.409C16.8456 227.625 135.549 300.422 201.561 321.918Z" fill="#5EB7F7"/>
<path d="M216.457 316.688C146.356 288.453 132.628 194.247 134.526 150.674C128.217 134.291 119.046 157.501 115.249 171.154C114.226 145.736 109.816 104.399 100.352 142.395C60.0444 261.96 160.96 308.409 216.457 316.688Z" fill="#4290EB"/>
<defs>
<clipPath id="clip0_1206_987">
<rect width="167.037" height="208.862" fill="white" transform="matrix(-1 0 0 1 337.178 62)"/>
</clipPath>
</defs>
</svg>
