<svg width="120" height="120" viewBox="0 0 120 120" fill="none" xmlns="http://www.w3.org/2000/svg">
<rect width="120" height="120" fill="#FEFEFE"/>
<ellipse cx="60.5" cy="94.5" rx="45.5" ry="17.5" fill="#C4C4C4"/>
<path d="M48.4467 89.6755C47.5091 93.1745 44.5471 95.8222 40.4303 97.2405C36.316 98.6579 31.0889 98.8286 25.7309 97.393C20.3729 95.9573 15.9315 93.1959 13.0771 89.9112C10.221 86.6245 8.97967 82.8505 9.91722 79.3515C10.8548 75.8525 13.8168 73.2048 17.9337 71.7865C22.0479 70.3691 27.275 70.1983 32.633 71.634C37.991 73.0697 42.4325 75.8311 45.2868 79.1157C48.1429 82.4025 49.3842 86.1765 48.4467 89.6755Z" fill="#BBDEFF" stroke="#56A2E9" stroke-width="0.761272"/>
<path d="M70.5533 89.6755C71.4909 93.1745 74.4529 95.8222 78.5697 97.2405C82.684 98.6579 87.9111 98.8286 93.2691 97.393C98.6271 95.9573 103.069 93.1959 105.923 89.9112C108.779 86.6245 110.02 82.8505 109.083 79.3515C108.145 75.8525 105.183 73.2048 101.066 71.7865C96.9521 70.3691 91.725 70.1983 86.367 71.634C81.009 73.0697 76.5675 75.8311 73.7132 79.1157C70.8571 82.4025 69.6158 86.1765 70.5533 89.6755Z" fill="#BBDEFF" stroke="#56A2E9" stroke-width="0.761272"/>
<mask id="path-4-inside-1_1138_8461" fill="white">
<path fill-rule="evenodd" clip-rule="evenodd" d="M64.5163 18.2923C64.5163 12.608 69.1244 8 74.8086 8C80.4929 8 85.101 12.608 85.101 18.2923V42.2845C93.7887 48.7136 99.1269 58.4807 98.6099 69.1576C97.7321 87.2856 80.3079 101.172 59.6918 100.174C39.0757 99.1754 23.0746 83.6705 23.9524 65.5426C24.3789 56.7348 28.7115 48.9283 35.4184 43.3438V18.5516C35.4184 12.8673 40.0265 8.25928 45.7108 8.25928C51.3951 8.25928 56.0031 12.8673 56.0031 18.5516V34.7453C58.2383 34.4915 60.5339 34.4134 62.8705 34.5266C63.4225 34.5533 63.9712 34.5904 64.5163 34.6377V18.2923Z"/>
</mask>
<path fill-rule="evenodd" clip-rule="evenodd" d="M64.5163 18.2923C64.5163 12.608 69.1244 8 74.8086 8C80.4929 8 85.101 12.608 85.101 18.2923V42.2845C93.7887 48.7136 99.1269 58.4807 98.6099 69.1576C97.7321 87.2856 80.3079 101.172 59.6918 100.174C39.0757 99.1754 23.0746 83.6705 23.9524 65.5426C24.3789 56.7348 28.7115 48.9283 35.4184 43.3438V18.5516C35.4184 12.8673 40.0265 8.25928 45.7108 8.25928C51.3951 8.25928 56.0031 12.8673 56.0031 18.5516V34.7453C58.2383 34.4915 60.5339 34.4134 62.8705 34.5266C63.4225 34.5533 63.9712 34.5904 64.5163 34.6377V18.2923Z" fill="#BBDEFF"/>
<path d="M85.101 42.2845H83.5784V43.0519L84.1953 43.5084L85.101 42.2845ZM98.6099 69.1576L100.131 69.2313L98.6099 69.1576ZM59.6918 100.174L59.7654 98.6529L59.6918 100.174ZM23.9524 65.5426L25.4732 65.6162L23.9524 65.5426ZM35.4184 43.3438L36.3927 44.5139L36.941 44.0573V43.3438H35.4184ZM56.0031 34.7453H54.4806V36.4505L56.1749 36.2581L56.0031 34.7453ZM62.8705 34.5266L62.7969 36.0473L62.8705 34.5266ZM64.5163 34.6377L64.3847 36.1546L66.0389 36.2981V34.6377H64.5163ZM74.8086 6.47746C68.2835 6.47746 62.9938 11.7671 62.9938 18.2923H66.0389C66.0389 13.4489 69.9652 9.52254 74.8086 9.52254V6.47746ZM86.6235 18.2923C86.6235 11.7672 81.3338 6.47746 74.8086 6.47746V9.52254C79.6521 9.52254 83.5784 13.4489 83.5784 18.2923H86.6235ZM86.6235 42.2845V18.2923H83.5784V42.2845H86.6235ZM84.1953 43.5084C92.5359 49.6807 97.578 58.9874 97.0891 69.084L100.131 69.2313C100.676 57.9739 95.0415 47.7466 86.0067 41.0606L84.1953 43.5084ZM97.0891 69.084C96.2606 86.1942 79.7313 99.6197 59.7654 98.6529L59.6181 101.694C80.8844 102.724 99.2036 88.377 100.131 69.2313L97.0891 69.084ZM59.7654 98.6529C39.7995 97.6861 24.6447 82.7264 25.4732 65.6162L22.4317 65.4689C21.5046 84.6146 38.3518 100.665 59.6181 101.694L59.7654 98.6529ZM25.4732 65.6162C25.8767 57.2822 29.9746 49.8578 36.3927 44.5139L34.4442 42.1738C27.4484 47.9987 22.8811 56.1873 22.4317 65.4689L25.4732 65.6162ZM33.8959 18.5516V43.3438H36.941V18.5516H33.8959ZM45.7108 6.73674C39.1856 6.73674 33.8959 12.0264 33.8959 18.5516H36.941C36.941 13.7082 40.8674 9.78182 45.7108 9.78182V6.73674ZM57.5256 18.5516C57.5256 12.0264 52.2359 6.73674 45.7108 6.73674V9.78182C50.5542 9.78182 54.4806 13.7082 54.4806 18.5516H57.5256ZM57.5256 34.7453V18.5516H54.4806V34.7453H57.5256ZM56.1749 36.2581C58.3287 36.0135 60.5422 35.9382 62.7969 36.0473L62.9442 33.0058C60.5256 32.8887 58.1479 32.9694 55.8313 33.2324L56.1749 36.2581ZM62.7969 36.0473C63.3295 36.0731 63.8589 36.1089 64.3847 36.1546L64.6479 33.1209C64.0835 33.0719 63.5155 33.0335 62.9442 33.0058L62.7969 36.0473ZM62.9938 18.2923V34.6377H66.0389V18.2923H62.9938Z" fill="#56A2E9" mask="url(#path-4-inside-1_1138_8461)"/>
<path d="M50.9172 77.6554C51.5928 78.4295 53.4442 79.5376 55.445 77.7776M55.445 77.7776C56.2845 78.6604 58.2549 79.6675 59.4068 77.8846M55.445 77.7776L55.4682 75.6671" stroke="#431110" stroke-width="1.27522" stroke-linecap="round"/>
<ellipse cx="2.12566" cy="1.80004" rx="2.12566" ry="1.80004" transform="matrix(0.999636 0.0269818 -0.0109933 0.99994 53.282 72.3965)" fill="#F98DE1"/>
<rect x="69.7346" y="11.6934" width="11.1259" height="28.9703" rx="5.56295" fill="#FFF7FD"/>
<rect x="38.97" y="12.7129" width="10.6036" height="28.9764" rx="5.30178" fill="#FFF7FD"/>
<circle cx="36.8161" cy="88.7844" r="13" transform="rotate(15 36.8161 88.7844)" fill="#BBDEFF" stroke="#56A2E9" stroke-width="0.761272"/>
<circle cx="77.6166" cy="90.4055" r="13" transform="rotate(15 77.6166 90.4055)" fill="#BBDEFF" stroke="#56A2E9" stroke-width="0.761272"/>
<path d="M53.4866 67.9104C54.5578 67.9104 55.5931 67.4188 56.6818 67.4188C57.1336 67.4188 57.5922 67.3822 58.0336 67.4803C58.576 67.6008 59.007 67.6807 59.324 68.1562" stroke="#431110" stroke-width="1.47471" stroke-linecap="round"/>
<rect x="48.2317" y="70.1074" width="1.47471" height="4.91571" transform="rotate(3.12938 48.2317 70.1074)" fill="#56A2E9"/>
<rect x="46.2683" y="70" width="1.47471" height="4.91571" transform="rotate(3.12938 46.2683 70)" fill="#56A2E9"/>
<rect x="64.5195" y="70.875" width="1.47471" height="4.91571" transform="rotate(3.12938 64.5195 70.875)" fill="#56A2E9"/>
<rect x="62.5562" y="70.7695" width="1.47471" height="4.91571" transform="rotate(3.12938 62.5562 70.7695)" fill="#56A2E9"/>
<path d="M62.3909 70.0742L70.2443 70.5036" stroke="#431110" stroke-width="1.96628" stroke-linecap="round"/>
<path d="M42.7573 69L50.6107 69.4294" stroke="#431110" stroke-width="1.96628" stroke-linecap="round"/>
<path d="M53.5343 66.3326C53.4177 68.9302 52.5054 71.2263 51.1488 72.8407C49.7925 74.4545 48.015 75.3667 46.1404 75.2826C44.2659 75.1985 42.5771 74.1309 41.3708 72.4021C40.1642 70.6727 39.4611 68.3041 39.5776 65.7066C39.6941 63.109 40.6064 60.8129 41.9631 59.1985C43.3193 57.5846 45.0969 56.6725 46.9714 56.7566C48.846 56.8406 50.5347 57.9082 51.741 59.6371C52.9477 61.3664 53.6508 63.735 53.5343 66.3326Z" stroke="#431110" stroke-width="1.05194"/>
<path d="M73.6151 68.0533C73.4986 70.6509 72.5862 72.947 71.2296 74.5614C69.8734 76.1753 68.0958 77.0874 66.2212 77.0033C64.3467 76.9192 62.6579 75.8516 61.4517 74.1228C60.245 72.3934 59.5419 70.0248 59.6584 67.4273C59.7749 64.8297 60.6873 62.5336 62.0439 60.9192C63.4001 59.3053 65.1777 58.3932 67.0522 58.4773C68.9268 58.5613 70.6155 59.6289 71.8218 61.3578C73.0285 63.0871 73.7316 65.4557 73.6151 68.0533Z" stroke="#431110" stroke-width="1.05194"/>
</svg>
