<svg width="254" height="254" viewBox="0 0 254 254" fill="none" xmlns="http://www.w3.org/2000/svg">
<ellipse cx="144.087" cy="215.29" rx="84.2197" ry="13.7102" fill="#D9D9D9"/>
<circle cx="81.4118" cy="123.889" r="21.5446" fill="#BBDEFF" stroke="#56A2E9" stroke-width="2.61146"/>
<path d="M187.829 176.771L142.128 176.771L142.128 201.58C142.128 209.512 148.559 215.943 156.491 215.943L173.466 215.943C181.398 215.943 187.829 209.512 187.829 201.58L187.829 176.771Z" fill="#BBDEFF" stroke="#56A2E9" stroke-width="2.61146"/>
<path d="M105.707 165.482L142.312 185.147L132.394 203.609C128.64 210.596 119.932 213.218 112.944 209.464L101.644 203.394C94.6564 199.64 92.0348 190.931 95.7889 183.943L105.707 165.482Z" fill="#BBDEFF" stroke="#56A2E9" stroke-width="2.61146"/>
<mask id="path-5-inside-1_518_4313" fill="white">
<path fill-rule="evenodd" clip-rule="evenodd" d="M136.096 30.0843C146.521 31.9913 153.426 41.9881 151.519 52.4126L145.38 85.9708C148.128 86.0172 150.906 86.2046 153.705 86.5402C156.322 86.8542 158.886 87.2894 161.388 87.8379L168.869 50.5112C170.749 41.135 180.365 34.8818 190.349 36.5443C200.333 38.2067 206.903 47.1553 205.024 56.5315L195.258 105.257C207.642 116.929 214.226 132.687 211.806 149.083C207.355 179.242 174.125 200.137 137.585 195.754C101.045 191.371 75.0315 163.37 79.4829 133.211C81.6962 118.216 91.0241 105.511 104.336 97.0645L113.768 45.5066C115.675 35.082 125.672 28.1772 136.096 30.0843Z"/>
</mask>
<path fill-rule="evenodd" clip-rule="evenodd" d="M136.096 30.0843C146.521 31.9913 153.426 41.9881 151.519 52.4126L145.38 85.9708C148.128 86.0172 150.906 86.2046 153.705 86.5402C156.322 86.8542 158.886 87.2894 161.388 87.8379L168.869 50.5112C170.749 41.135 180.365 34.8818 190.349 36.5443C200.333 38.2067 206.903 47.1553 205.024 56.5315L195.258 105.257C207.642 116.929 214.226 132.687 211.806 149.083C207.355 179.242 174.125 200.137 137.585 195.754C101.045 191.371 75.0315 163.37 79.4829 133.211C81.6962 118.216 91.0241 105.511 104.336 97.0645L113.768 45.5066C115.675 35.082 125.672 28.1772 136.096 30.0843Z" fill="#BBDEFF"/>
<path d="M151.519 52.4126L154.088 52.8826L154.088 52.8826L151.519 52.4126ZM136.096 30.0843L135.626 32.6531L135.626 32.6531L136.096 30.0843ZM145.38 85.9708L145.336 88.5819L142.257 88.53L142.811 85.5009L145.38 85.9708ZM153.705 86.5402L154.016 83.9473L154.016 83.9473L153.705 86.5402ZM161.388 87.8379L163.949 88.3511L163.426 90.9581L160.829 90.3888L161.388 87.8379ZM168.869 50.5112L166.309 49.998L166.309 49.998L168.869 50.5112ZM190.349 36.5443L189.92 39.1202L189.92 39.1202L190.349 36.5443ZM205.024 56.5315L202.464 56.0183L202.464 56.0183L205.024 56.5315ZM195.258 105.257L193.467 107.158L192.413 106.164L192.698 104.744L195.258 105.257ZM211.806 149.083L209.223 148.702L209.223 148.702L211.806 149.083ZM137.585 195.754L137.274 198.347L137.274 198.347L137.585 195.754ZM79.4829 133.211L82.0664 133.593L82.0664 133.593L79.4829 133.211ZM104.336 97.0645L106.905 97.5344L106.699 98.6577L105.735 99.2695L104.336 97.0645ZM113.768 45.5066L116.337 45.9766L116.337 45.9766L113.768 45.5066ZM148.95 51.9427C150.597 42.9369 144.632 34.3006 135.626 32.6531L136.566 27.5155C148.41 29.682 156.254 41.0393 154.088 52.8826L148.95 51.9427ZM142.811 85.5009L148.95 51.9427L154.088 52.8826L147.948 86.4408L142.811 85.5009ZM145.424 83.3597C148.261 83.4076 151.128 83.601 154.016 83.9473L153.394 89.1331C150.684 88.8081 147.995 88.6268 145.336 88.5819L145.424 83.3597ZM154.016 83.9473C156.716 84.2713 159.363 84.7204 161.947 85.287L160.829 90.3888C158.409 89.8583 155.928 89.4371 153.394 89.1331L154.016 83.9473ZM158.828 87.3247L166.309 49.998L171.43 51.0244L163.949 88.3511L158.828 87.3247ZM166.309 49.998C168.491 39.1118 179.538 32.0965 190.778 33.9683L189.92 39.1202C181.193 37.667 173.006 43.1583 171.43 51.0244L166.309 49.998ZM190.778 33.9683C202.071 35.8487 209.782 46.0796 207.585 57.0447L202.464 56.0183C204.024 48.2311 198.595 40.5647 189.92 39.1202L190.778 33.9683ZM207.585 57.0447L197.819 105.77L192.698 104.744L202.464 56.0183L207.585 57.0447ZM197.049 103.357C209.948 115.514 216.954 132.089 214.39 149.464L209.223 148.702C211.498 133.286 205.337 118.345 193.467 107.158L197.049 103.357ZM214.39 149.464C209.67 181.439 174.759 202.843 137.274 198.347L137.896 193.161C173.491 197.431 205.04 177.044 209.223 148.702L214.39 149.464ZM137.274 198.347C99.7722 193.849 72.1667 164.895 76.8994 132.83L82.0664 133.593C77.8964 161.845 102.317 188.894 137.896 193.161L137.274 198.347ZM76.8994 132.83C79.2421 116.958 89.0998 103.639 102.937 94.8594L105.735 99.2695C92.9485 107.383 84.1502 119.475 82.0664 133.593L76.8994 132.83ZM116.337 45.9766L106.905 97.5344L101.767 96.5945L111.199 45.0367L116.337 45.9766ZM135.626 32.6531C126.621 31.0056 117.984 36.9707 116.337 45.9766L111.199 45.0367C113.366 33.1934 124.723 25.3489 136.566 27.5155L135.626 32.6531Z" fill="#56A2E9" mask="url(#path-5-inside-1_518_4313)"/>
<rect width="20.7427" height="45.4825" rx="10.3713" transform="matrix(-0.983675 -0.179952 -0.179952 0.983675 142.623 41.7263)" fill="#FFF7FD"/>
<rect width="19.7689" height="44.8322" rx="9.88443" transform="matrix(-0.983675 -0.179952 -0.179952 0.983675 198.983 50.9053)" fill="#FFF7FD"/>
<path d="M126.542 156.804C127.939 158.323 131.826 160.531 136.196 157.208M136.196 157.208C137.936 158.943 142.083 160.96 144.643 157.562M136.196 157.208L136.367 153.135" stroke="#431110" stroke-width="2.61146" stroke-linecap="round"/>
<ellipse cx="136.268" cy="150.402" rx="4.53446" ry="3.47642" transform="rotate(2.39927 136.268 150.402)" fill="#F98DE1"/>
<circle cx="117.606" cy="135.273" r="14.8179" transform="rotate(10.4536 117.606 135.273)" fill="white"/>
<circle cx="119.073" cy="135.46" r="10.055" transform="rotate(10.4536 119.073 135.46)" fill="#431110"/>
<ellipse cx="127.106" cy="132.042" rx="4.98066" ry="2.34962" transform="rotate(2.19121 127.106 132.042)" fill="white"/>
<circle cx="162" cy="139.19" r="14.8179" transform="rotate(10.4536 162 139.19)" fill="white"/>
<circle cx="161.683" cy="139.349" r="10.055" transform="rotate(10.4536 161.683 139.349)" fill="#431110"/>
<ellipse cx="169.916" cy="136.256" rx="4.33235" ry="2.34962" transform="rotate(2.19121 169.916 136.256)" fill="white"/>
<rect x="41.6406" y="67.0188" width="48.6699" height="57.361" rx="5.22293" transform="rotate(20.0227 41.6406 67.0188)" fill="#C07613"/>
<rect x="43.7549" y="71.2061" width="41.717" height="50.4081" rx="5.22293" transform="rotate(20.0227 43.7549 71.2061)" fill="white"/>
<path d="M50.2844 73.5989C51.7658 69.5336 56.2624 67.439 60.3277 68.9205L71.7363 73.078C75.8016 74.5595 77.8962 79.056 76.4147 83.1213L75.8238 84.7428L49.6935 75.2203L50.2844 73.5989Z" fill="#D9D9D9"/>
<path fill-rule="evenodd" clip-rule="evenodd" d="M65.1371 73.4488C67.843 74.4349 70.8359 73.0407 71.822 70.3349C72.8081 67.629 71.4139 64.636 68.708 63.65C66.0021 62.6639 63.0092 64.0581 62.0231 66.7639C61.0371 69.4698 62.4312 72.4628 65.1371 73.4488ZM66.0285 70.9997C67.3815 71.4927 68.8779 70.7956 69.371 69.4427C69.864 68.0898 69.1669 66.5933 67.814 66.1002C66.461 65.6072 64.9646 66.3043 64.4715 67.6572C63.9785 69.0102 64.6756 70.5066 66.0285 70.9997Z" fill="#D9D9D9"/>
<rect x="44.3428" y="79.7456" width="33.026" height="4.34553" rx="2.17276" transform="rotate(20.0227 44.3428 79.7456)" fill="#D9D9D9"/>
<rect x="41.665" y="87.0952" width="26.9423" height="4.34553" rx="2.17276" transform="rotate(20.0227 41.665 87.0952)" fill="#D9D9D9"/>
<rect x="38.9854" y="94.4431" width="18.2512" height="4.34553" rx="2.17276" transform="rotate(20.0227 38.9854 94.4431)" fill="#D9D9D9"/>
<mask id="path-24-inside-2_518_4313" fill="white">
<path fill-rule="evenodd" clip-rule="evenodd" d="M56.2371 112.417C55.344 111.902 54.3896 111.774 53.5791 112.151C51.9342 112.917 51.5046 115.479 52.6195 117.872C52.8889 118.451 53.2238 118.966 53.6 119.405C53.5576 119.584 53.5277 119.768 53.5112 119.956C53.3047 122.305 55.2696 124.396 57.8998 124.627C60.5301 124.858 62.8297 123.142 63.0361 120.793C63.0608 120.512 63.0544 120.235 63.0197 119.965C63.3623 119.649 63.6844 119.282 63.9732 118.87C65.4886 116.708 65.5123 114.11 64.0263 113.069C63.343 112.59 62.4596 112.524 61.5571 112.802C61.0645 111.573 60.1728 110.726 59.0915 110.631C57.9852 110.534 56.937 111.246 56.2371 112.417Z"/>
</mask>
<path fill-rule="evenodd" clip-rule="evenodd" d="M56.2371 112.417C55.344 111.902 54.3896 111.774 53.5791 112.151C51.9342 112.917 51.5046 115.479 52.6195 117.872C52.8889 118.451 53.2238 118.966 53.6 119.405C53.5576 119.584 53.5277 119.768 53.5112 119.956C53.3047 122.305 55.2696 124.396 57.8998 124.627C60.5301 124.858 62.8297 123.142 63.0361 120.793C63.0608 120.512 63.0544 120.235 63.0197 119.965C63.3623 119.649 63.6844 119.282 63.9732 118.87C65.4886 116.708 65.5123 114.11 64.0263 113.069C63.343 112.59 62.4596 112.524 61.5571 112.802C61.0645 111.573 60.1728 110.726 59.0915 110.631C57.9852 110.534 56.937 111.246 56.2371 112.417Z" fill="white"/>
<path d="M53.5791 112.151L53.7763 112.575L53.7763 112.575L53.5791 112.151ZM56.2371 112.417L56.0041 112.821L56.4022 113.051L56.6379 112.656L56.2371 112.417ZM52.6195 117.872L53.0428 117.675L53.0428 117.675L52.6195 117.872ZM53.6 119.405L54.0545 119.512L54.1092 119.281L53.9545 119.101L53.6 119.405ZM63.0197 119.965L62.7029 119.622L62.5257 119.785L62.5565 120.024L63.0197 119.965ZM63.9732 118.87L63.5908 118.602L63.5908 118.602L63.9732 118.87ZM64.0263 113.069L64.2943 112.687L64.2943 112.687L64.0263 113.069ZM61.5571 112.802L61.1237 112.975L61.2837 113.375L61.6946 113.248L61.5571 112.802ZM53.7763 112.575C54.41 112.279 55.2005 112.359 56.0041 112.821L56.4701 112.012C55.4875 111.446 54.3693 111.268 53.3819 111.728L53.7763 112.575ZM53.0428 117.675C52.5201 116.553 52.3688 115.41 52.5249 114.479C52.6815 113.546 53.1334 112.874 53.7763 112.575L53.3819 111.728C52.3798 112.195 51.7945 113.187 51.6038 114.324C51.4126 115.464 51.604 116.798 52.1962 118.07L53.0428 117.675ZM53.9545 119.101C53.6066 118.695 53.2946 118.216 53.0428 117.675L52.1962 118.07C52.4831 118.686 52.841 119.237 53.2456 119.709L53.9545 119.101ZM53.9764 119.997C53.9909 119.831 54.0172 119.67 54.0545 119.512L53.1456 119.297C53.098 119.498 53.0645 119.704 53.046 119.915L53.9764 119.997ZM57.9407 124.162C55.5165 123.949 53.7967 122.041 53.9764 119.997L53.046 119.915C52.8127 122.569 55.0227 124.843 57.859 125.093L57.9407 124.162ZM62.5709 120.752C62.3913 122.796 60.3649 124.375 57.9407 124.162L57.859 125.093C60.6952 125.342 63.2681 123.488 63.5013 120.834L62.5709 120.752ZM62.5565 120.024C62.587 120.262 62.5926 120.505 62.5709 120.752L63.5013 120.834C63.5289 120.519 63.5219 120.209 63.4828 119.905L62.5565 120.024ZM63.5908 118.602C63.3209 118.987 63.0207 119.328 62.7029 119.622L63.3364 120.308C63.7038 119.969 64.048 119.577 64.3557 119.138L63.5908 118.602ZM63.7583 113.451C64.3391 113.858 64.667 114.598 64.6583 115.545C64.6497 116.489 64.3013 117.588 63.5908 118.602L64.3557 119.138C65.1605 117.989 65.5817 116.709 65.5923 115.553C65.6028 114.4 65.1996 113.321 64.2943 112.687L63.7583 113.451ZM61.6946 113.248C62.4992 113 63.2235 113.077 63.7583 113.451L64.2943 112.687C63.4626 112.104 62.4199 112.047 61.4196 112.355L61.6946 113.248ZM61.9906 112.628C61.4599 111.304 60.4518 110.282 59.1323 110.166L59.0506 111.096C59.8937 111.17 60.6692 111.842 61.1237 112.975L61.9906 112.628ZM59.1323 110.166C57.7822 110.047 56.5886 110.919 55.8363 112.177L56.6379 112.656C57.2855 111.573 58.1883 111.02 59.0506 111.096L59.1323 110.166Z" fill="#F4BFE9" mask="url(#path-24-inside-2_518_4313)"/>
<path d="M60.1067 114.196C60.0063 115.338 59.2237 116.096 58.4618 116.029C57.6998 115.962 57.0614 115.079 57.1618 113.937C57.2621 112.795 58.0447 112.037 58.8067 112.104C59.5687 112.171 60.2071 113.054 60.1067 114.196Z" fill="#FAD4F2" stroke="#F4BFE9" stroke-width="0.466999"/>
<path d="M60.7313 120.551C60.6018 122.025 59.3637 123.1 57.9873 122.979C56.611 122.858 55.5794 121.583 55.7089 120.11C55.8384 118.636 57.0765 117.561 58.4529 117.682C59.8292 117.803 60.8608 119.078 60.7313 120.551Z" fill="#FAD4F2" stroke="#F4BFE9" stroke-width="0.466999"/>
<path d="M56.4587 114.842C56.9427 115.881 56.644 116.929 55.9506 117.252C55.2572 117.575 54.2629 117.129 53.7788 116.09C53.2948 115.051 53.5935 114.003 54.2869 113.68C54.9803 113.357 55.9746 113.803 56.4587 114.842Z" fill="#FAD4F2" stroke="#F4BFE9" stroke-width="0.466999"/>
<path d="M60.7296 115.217C60.0718 116.156 60.1831 117.24 60.8095 117.679C61.4359 118.118 62.4928 117.853 63.1506 116.914C63.8085 115.975 63.6971 114.891 63.0707 114.452C62.4443 114.013 61.3875 114.279 60.7296 115.217Z" fill="#FAD4F2" stroke="#F4BFE9" stroke-width="0.466999"/>
<path d="M135.017 136.19C133.807 147.687 124.327 155.914 114.049 154.832C103.77 153.751 96.21 143.73 97.4198 132.234C98.6296 120.737 108.11 112.51 118.388 113.592C128.667 114.673 136.227 124.694 135.017 136.19Z" stroke="#431110" stroke-width="2.61146"/>
<path d="M182.024 142.719C180.814 154.215 171.334 162.442 161.055 161.361C150.777 160.279 143.217 150.259 144.427 138.762C145.636 127.266 155.117 119.039 165.395 120.12C175.674 121.202 183.234 131.222 182.024 142.719Z" stroke="#431110" stroke-width="2.61146"/>
<path d="M134.294 140.863C136.035 139.339 140.431 137.337 144.087 141.516" stroke="#431110" stroke-width="2.61146"/>
<circle cx="209.374" cy="165.672" r="21.5446" fill="#BBDEFF" stroke="#56A2E9" stroke-width="2.61146"/>
</svg>
