<svg width="188" height="92" viewBox="0 0 188 92" fill="none" xmlns="http://www.w3.org/2000/svg">
<mask id="path-1-inside-1_550_1954" fill="white">
<path fill-rule="evenodd" clip-rule="evenodd" d="M20.184 6.96582C13.4549 6.96582 8 12.4208 8 19.1498V64.0616C8 70.7906 13.4549 76.2455 20.184 76.2455H33.4958L39.1863 83.9831C42.1076 87.9554 48.0433 87.9555 50.9647 83.9831L56.6552 76.2455H167.816C174.545 76.2455 180 70.7906 180 64.0616V19.1498C180 12.4208 174.545 6.96582 167.816 6.96582H20.184Z"/>
</mask>
<path d="M33.4958 76.2455L37.5238 73.2832L36.0252 71.2455H33.4958V76.2455ZM39.1863 83.9831L35.1583 86.9454L35.1583 86.9454L39.1863 83.9831ZM50.9647 83.9831L54.9927 86.9454L54.9927 86.9454L50.9647 83.9831ZM56.6552 76.2455V71.2455H54.1257L52.6272 73.2832L56.6552 76.2455ZM13 19.1498C13 15.1822 16.2164 11.9658 20.184 11.9658V1.96582C10.6935 1.96582 3 9.65933 3 19.1498H13ZM13 64.0616V19.1498H3V64.0616H13ZM20.184 71.2455C16.2164 71.2455 13 68.0292 13 64.0616H3C3 73.552 10.6935 81.2455 20.184 81.2455V71.2455ZM33.4958 71.2455H20.184V81.2455H33.4958V71.2455ZM43.2143 81.0208L37.5238 73.2832L29.4678 79.2079L35.1583 86.9454L43.2143 81.0208ZM46.9367 81.0208C46.0135 82.2762 44.1375 82.2762 43.2143 81.0208L35.1583 86.9454C40.0778 93.6347 50.0732 93.6347 54.9927 86.9454L46.9367 81.0208ZM52.6272 73.2832L46.9367 81.0208L54.9927 86.9454L60.6832 79.2079L52.6272 73.2832ZM167.816 71.2455H56.6552V81.2455H167.816V71.2455ZM175 64.0616C175 68.0292 171.784 71.2455 167.816 71.2455V81.2455C177.306 81.2455 185 73.552 185 64.0616H175ZM175 19.1498V64.0616H185V19.1498H175ZM167.816 11.9658C171.784 11.9658 175 15.1822 175 19.1498H185C185 9.65935 177.306 1.96582 167.816 1.96582V11.9658ZM20.184 11.9658H167.816V1.96582H20.184V11.9658Z" fill="#E3EDFD" mask="url(#path-1-inside-1_550_1954)"/>
<path d="M58.9536 44.032H52.9056C52.6176 44.032 52.3296 44.032 52.0736 43.968V44.192V48.608H61.6416C63.0816 48.608 63.9456 49.344 63.9456 50.784C63.9456 52.224 63.0816 52.96 61.6416 52.96H37.6416C36.2016 52.96 35.3376 52.224 35.3376 50.784C35.3376 49.344 36.2016 48.608 37.6416 48.608H47.0816V44.192C47.0816 44.032 47.0816 43.904 47.1136 43.744C45.8016 43.968 44.6816 44.032 43.3696 44.032H41.2896C39.2096 44.032 38.0576 42.976 38.0576 40.896V31.424C38.0576 29.504 39.1776 28.448 41.0976 28.448H46.2496C47.6896 28.448 48.5536 29.216 48.5536 30.656C48.5536 32.096 47.6896 32.864 46.2496 32.864H43.3376C42.9216 32.864 42.8576 32.896 42.8576 33.312V39.104C42.8576 39.52 42.9216 39.584 43.3376 39.584H44.5856C45.3856 39.584 45.9936 39.52 46.7936 39.424C48.0096 39.264 48.8736 39.872 49.0336 41.152C49.0656 41.408 49.0656 41.696 49.0336 41.92C49.1936 41.92 49.3856 41.888 49.5776 41.888H49.7696C49.7056 41.6 49.6736 41.28 49.6736 40.896V31.424C49.6736 29.504 50.7936 28.448 52.7136 28.448H58.7616C60.1696 28.448 61.0656 29.28 61.0656 30.656C61.0656 32.064 60.1696 32.864 58.7616 32.864H54.9536C54.5376 32.864 54.4736 32.896 54.4736 33.312V39.072C54.4736 39.488 54.5376 39.552 54.9536 39.552H58.9536C60.3616 39.552 61.2576 40.384 61.2576 41.792C61.2576 43.2 60.3616 44.032 58.9536 44.032ZM80.0328 44.736C85.8888 44.736 90.3368 46.432 90.3368 50.848C90.3368 55.264 85.8888 56.96 80.0328 56.96C74.1768 56.96 69.7288 55.264 69.7288 50.848C69.7288 46.432 74.1768 44.736 80.0328 44.736ZM82.0168 42.432C78.7848 42.912 75.8088 43.072 72.3208 43.072H69.8568C67.6808 43.072 66.7528 42.144 66.7528 40.064V36.416C66.7528 34.336 67.6808 33.376 69.8568 33.376H76.2568C76.5768 33.376 76.6728 33.28 76.6728 32.96V31.776C76.6728 31.456 76.5768 31.392 76.2568 31.392H69.1208C67.8408 31.392 66.9128 30.72 66.9128 29.472C66.9128 28.192 67.8408 27.52 69.1208 27.52H78.3688C80.5768 27.52 81.4728 28.416 81.4728 30.56V34.048C81.4728 36.192 80.5768 37.12 78.3688 37.12H71.9368C71.6168 37.12 71.5528 37.184 71.5528 37.504V38.912C71.5528 39.232 71.6168 39.296 71.9368 39.296H73.1528C76.0968 39.296 78.8168 39.072 81.3768 38.688C82.5928 38.496 83.5848 38.848 83.8408 40.128C84.0968 41.408 83.2328 42.24 82.0168 42.432ZM85.3128 41.76V29.248C85.3128 27.744 86.3688 26.944 87.8728 26.944C89.3768 26.944 90.4328 27.744 90.4328 29.248V33.152H92.6408C93.9848 33.152 94.9448 33.824 94.9448 35.264C94.9448 36.704 93.9848 37.376 92.6408 37.376H90.4328V41.76C90.4328 43.264 89.3768 44.096 87.8728 44.096C86.3688 44.096 85.3128 43.264 85.3128 41.76ZM80.0328 53.152C82.4968 53.152 85.2168 52.736 85.2168 50.848C85.2168 48.96 82.4968 48.544 80.0328 48.544C77.5688 48.544 74.8488 48.96 74.8488 50.848C74.8488 52.736 77.5688 53.152 80.0328 53.152ZM119.096 44.032H113.048C112.76 44.032 112.472 44.032 112.216 43.968V44.192V48.608H121.784C123.224 48.608 124.088 49.344 124.088 50.784C124.088 52.224 123.224 52.96 121.784 52.96H97.7841C96.3441 52.96 95.4801 52.224 95.4801 50.784C95.4801 49.344 96.3441 48.608 97.7841 48.608H107.224V44.192C107.224 44.032 107.224 43.904 107.256 43.744C105.944 43.968 104.824 44.032 103.512 44.032H101.432C99.3521 44.032 98.2001 42.976 98.2001 40.896V31.424C98.2001 29.504 99.3201 28.448 101.24 28.448H106.392C107.832 28.448 108.696 29.216 108.696 30.656C108.696 32.096 107.832 32.864 106.392 32.864H103.48C103.064 32.864 103 32.896 103 33.312V39.104C103 39.52 103.064 39.584 103.48 39.584H104.728C105.528 39.584 106.136 39.52 106.936 39.424C108.152 39.264 109.016 39.872 109.176 41.152C109.208 41.408 109.208 41.696 109.176 41.92C109.336 41.92 109.528 41.888 109.72 41.888H109.912C109.848 41.6 109.816 41.28 109.816 40.896V31.424C109.816 29.504 110.936 28.448 112.856 28.448H118.904C120.312 28.448 121.208 29.28 121.208 30.656C121.208 32.064 120.312 32.864 118.904 32.864H115.096C114.68 32.864 114.616 32.896 114.616 33.312V39.072C114.616 39.488 114.68 39.552 115.096 39.552H119.096C120.504 39.552 121.4 40.384 121.4 41.792C121.4 43.2 120.504 44.032 119.096 44.032ZM140.175 44.736C146.031 44.736 150.479 46.432 150.479 50.848C150.479 55.264 146.031 56.96 140.175 56.96C134.319 56.96 129.871 55.264 129.871 50.848C129.871 46.432 134.319 44.736 140.175 44.736ZM142.159 42.432C138.927 42.912 135.951 43.072 132.463 43.072H129.999C127.823 43.072 126.895 42.144 126.895 40.064V36.416C126.895 34.336 127.823 33.376 129.999 33.376H136.399C136.719 33.376 136.815 33.28 136.815 32.96V31.776C136.815 31.456 136.719 31.392 136.399 31.392H129.263C127.983 31.392 127.055 30.72 127.055 29.472C127.055 28.192 127.983 27.52 129.263 27.52H138.511C140.719 27.52 141.615 28.416 141.615 30.56V34.048C141.615 36.192 140.719 37.12 138.511 37.12H132.079C131.759 37.12 131.695 37.184 131.695 37.504V38.912C131.695 39.232 131.759 39.296 132.079 39.296H133.295C136.239 39.296 138.959 39.072 141.519 38.688C142.735 38.496 143.727 38.848 143.983 40.128C144.239 41.408 143.375 42.24 142.159 42.432ZM145.455 41.76V29.248C145.455 27.744 146.511 26.944 148.015 26.944C149.519 26.944 150.575 27.744 150.575 29.248V33.152H152.783C154.127 33.152 155.087 33.824 155.087 35.264C155.087 36.704 154.127 37.376 152.783 37.376H150.575V41.76C150.575 43.264 149.519 44.096 148.015 44.096C146.511 44.096 145.455 43.264 145.455 41.76ZM140.175 53.152C142.639 53.152 145.359 52.736 145.359 50.848C145.359 48.96 142.639 48.544 140.175 48.544C137.711 48.544 134.991 48.96 134.991 50.848C134.991 52.736 137.711 53.152 140.175 53.152Z" fill="#E3EDFD"/>
</svg>
