<svg width="120" height="120" viewBox="0 0 120 120" fill="none" xmlns="http://www.w3.org/2000/svg">
<rect width="120" height="120" fill="#FEFEFE"/>
<circle cx="95.8612" cy="61.3717" r="13.596" transform="rotate(15 95.8612 61.3717)" fill="#BBDEFF" stroke="#56A2E9" stroke-width="0.796174"/>
<circle cx="23.1395" cy="86.2486" r="13.596" transform="rotate(15 23.1395 86.2486)" fill="#BBDEFF" stroke="#56A2E9" stroke-width="0.796174"/>
<path d="M82.4531 86.0586L58.0181 86.0586L58.0181 108.221C58.0181 111.987 61.0711 115.04 64.8372 115.04L75.6341 115.04C79.4001 115.04 82.4531 111.987 82.4531 108.221L82.4531 86.0586Z" fill="#BBDEFF"/>
<path fill-rule="evenodd" clip-rule="evenodd" d="M59.1546 87.1951L81.3166 87.1951L81.3166 108.221C81.3166 111.359 78.7724 113.903 75.6341 113.903L64.8372 113.903C61.6988 113.903 59.1546 111.359 59.1546 108.221L59.1546 87.1951ZM82.4531 86.0586L82.4531 108.221C82.4531 111.987 79.4001 115.04 75.6341 115.04L64.8372 115.04C61.0711 115.04 58.0181 111.987 58.0181 108.221L58.0181 86.0586L82.4531 86.0586Z" fill="#56A2E9"/>
<path d="M54.6104 86.0586L30.1754 86.0586L30.1754 108.221C30.1754 111.987 33.2284 115.04 36.9944 115.04L47.7913 115.04C51.5573 115.04 54.6103 111.987 54.6103 108.221L54.6104 86.0586Z" fill="#BBDEFF"/>
<path fill-rule="evenodd" clip-rule="evenodd" d="M31.3119 87.1951L53.4738 87.1951L53.4738 108.221C53.4738 111.359 50.9297 113.903 47.7913 113.903L36.9944 113.903C33.856 113.903 31.3119 111.359 31.3119 108.221L31.3119 87.1951ZM54.6104 86.0586L54.6103 108.221C54.6103 111.987 51.5573 115.04 47.7913 115.04L36.9944 115.04C33.2284 115.04 30.1754 111.987 30.1754 108.221L30.1754 86.0586L54.6104 86.0586Z" fill="#56A2E9"/>
<mask id="path-7-inside-1_1138_5367" fill="white">
<path fill-rule="evenodd" clip-rule="evenodd" d="M59.3073 15.7642C59.3073 9.81929 64.1266 5 70.0715 5C76.0164 5 80.8357 9.8193 80.8357 15.7642V40.8565C89.9218 47.5804 95.5047 57.7952 94.964 68.9617C94.046 87.9207 75.8229 102.444 54.2616 101.4C32.7003 100.356 15.9657 84.1399 16.8837 65.1808C17.3297 55.9692 21.861 47.8047 28.8755 41.9642V16.0354C28.8755 10.0905 33.6948 5.2712 39.6397 5.2712C45.5846 5.2712 50.4039 10.0905 50.4039 16.0354V32.9715C52.7416 32.7061 55.1424 32.6245 57.5861 32.7428C58.1634 32.7708 58.7372 32.8096 59.3073 32.8591V15.7642Z"/>
</mask>
<path fill-rule="evenodd" clip-rule="evenodd" d="M59.3073 15.7642C59.3073 9.81929 64.1266 5 70.0715 5C76.0164 5 80.8357 9.8193 80.8357 15.7642V40.8565C89.9218 47.5804 95.5047 57.7952 94.964 68.9617C94.046 87.9207 75.8229 102.444 54.2616 101.4C32.7003 100.356 15.9657 84.1399 16.8837 65.1808C17.3297 55.9692 21.861 47.8047 28.8755 41.9642V16.0354C28.8755 10.0905 33.6948 5.2712 39.6397 5.2712C45.5846 5.2712 50.4039 10.0905 50.4039 16.0354V32.9715C52.7416 32.7061 55.1424 32.6245 57.5861 32.7428C58.1634 32.7708 58.7372 32.8096 59.3073 32.8591V15.7642Z" fill="#BBDEFF"/>
<path d="M80.8357 40.8565H79.2434V41.659L79.8885 42.1365L80.8357 40.8565ZM94.964 68.9617L93.3735 68.8846V68.8846L94.964 68.9617ZM54.2616 101.4L54.1846 102.99H54.1846L54.2616 101.4ZM16.8837 65.1808L18.4742 65.2578L16.8837 65.1808ZM28.8755 41.9642L29.8944 43.1879L30.4679 42.7104V41.9642H28.8755ZM50.4039 32.9715H48.8116V34.7549L50.5836 34.5537L50.4039 32.9715ZM57.5861 32.7428L57.6631 31.1523L57.5861 32.7428ZM59.3073 32.8591L59.1697 34.4455L60.8997 34.5956V32.8591H59.3073ZM70.0715 3.40765C63.2472 3.40765 57.715 8.93986 57.715 15.7642H60.8997C60.8997 10.6987 65.0061 6.59235 70.0715 6.59235V3.40765ZM82.4281 15.7642C82.4281 8.93987 76.8959 3.40765 70.0715 3.40765V6.59235C75.137 6.59235 79.2434 10.6987 79.2434 15.7642H82.4281ZM82.4281 40.8565V15.7642H79.2434V40.8565H82.4281ZM79.8885 42.1365C88.6116 48.5917 93.8848 58.3252 93.3735 68.8846L96.5545 69.0387C97.1246 57.2652 91.232 46.569 81.783 39.5765L79.8885 42.1365ZM93.3735 68.8846C92.507 86.7793 75.2198 100.82 54.3386 99.8092L54.1846 102.99C76.4259 104.067 95.5849 89.0622 96.5545 69.0387L93.3735 68.8846ZM54.3386 99.8092C33.4574 98.7981 17.6077 83.1525 18.4742 65.2578L15.2932 65.1038C14.3236 85.1273 31.9433 101.913 54.1846 102.99L54.3386 99.8092ZM18.4742 65.2578C18.8962 56.5417 23.182 48.7769 29.8944 43.1879L27.8566 40.7405C20.54 46.8325 15.7633 55.3966 15.2932 65.1038L18.4742 65.2578ZM27.2832 16.0354V41.9642H30.4679V16.0354H27.2832ZM39.6397 3.67886C32.8154 3.67886 27.2832 9.21108 27.2832 16.0354H30.4679C30.4679 10.9699 34.5743 6.86355 39.6397 6.86355V3.67886ZM51.9963 16.0354C51.9963 9.21107 46.4641 3.67886 39.6397 3.67886V6.86355C44.7052 6.86355 48.8116 10.9699 48.8116 16.0354H51.9963ZM51.9963 32.9715V16.0354H48.8116V32.9715H51.9963ZM50.5836 34.5537C52.8361 34.298 55.1511 34.2191 57.5091 34.3333L57.6631 31.1523C55.1337 31.0299 52.647 31.1143 50.2243 31.3894L50.5836 34.5537ZM57.5091 34.3333C58.0661 34.3603 58.6198 34.3978 59.1697 34.4455L59.445 31.2727C58.8547 31.2215 58.2606 31.1813 57.6631 31.1523L57.5091 34.3333ZM57.715 15.7642V32.8591H60.8997V15.7642H57.715Z" fill="#56A2E9" mask="url(#path-7-inside-1_1138_5367)"/>
<path d="M49.7772 76.8782C50.738 77.7434 53.2921 78.8912 55.8218 76.5615M55.8218 76.5615C57.0096 77.541 59.7145 78.5547 61.1109 76.2844M55.8218 76.5615L55.6882 74.0114" stroke="#431110" stroke-width="1.33368" stroke-linecap="round"/>
<ellipse cx="55.4702" cy="72.3133" rx="2.84065" ry="2.17783" transform="rotate(-2.99935 55.4702 72.3133)" fill="#F98DE1"/>
<rect x="64.7646" y="8.86328" width="11.636" height="30.2986" rx="5.818" fill="#FFF7FD"/>
<rect x="32.5898" y="9.92969" width="11.0897" height="30.3049" rx="5.54486" fill="#FFF7FD"/>
<path d="M52.1745 61.982C52.4814 69.5403 47.1224 75.7787 40.3479 76.0538C33.5735 76.3289 27.7263 70.5455 27.4194 62.9873C27.1124 55.429 32.4715 49.1906 39.2459 48.9155C46.0203 48.6404 51.8675 54.4238 52.1745 61.982Z" stroke="#431110" stroke-width="1.54068"/>
<path d="M83.0768 61.7535C83.3837 69.3118 78.0247 75.5502 71.2503 75.8253C64.4758 76.1004 58.6286 70.317 58.3217 62.7588C58.0148 55.2005 63.3738 48.9621 70.1482 48.687C76.9227 48.4119 82.7699 54.1953 83.0768 61.7535Z" stroke="#431110" stroke-width="1.54068"/>
<path d="M52.0731 65.0626C53.051 63.9169 55.6942 62.2122 58.4438 64.5592" stroke="#431110" stroke-width="1.54068"/>
<circle cx="40.5882" cy="63.51" r="8.95501" transform="rotate(5.05497 40.5882 63.51)" fill="white"/>
<circle cx="41.2949" cy="63.2603" r="6.07661" transform="rotate(5.05497 41.2949 63.2603)" fill="#431110"/>
<ellipse cx="46.0734" cy="60.9295" rx="2.61821" ry="1.41997" transform="rotate(-3.2074 46.0734 60.9295)" fill="white"/>
<path d="M63.4116 65.0424C64.514 64.1739 65.4362 63.1631 66.6543 62.4244C68.0764 61.562 69.7627 60.9682 71.4121 60.7366C73.1709 60.4896 75.428 60.5938 77.0071 61.4941C77.2197 61.6153 77.3286 61.8342 77.5254 61.9326" stroke="#431110" stroke-width="2.60096" stroke-linecap="round"/>
<path d="M72.7412 65.5215H63.5314" stroke="#431110" stroke-width="2.60096" stroke-linecap="round"/>
</svg>
